<?xml version="1.0" encoding="UTF-8" standalone="no"?>
<!-- Created with Inkscape (http://www.inkscape.org/) -->

<svg
   xmlns:dc="http://purl.org/dc/elements/1.1/"
   xmlns:cc="http://creativecommons.org/ns#"
   xmlns:rdf="http://www.w3.org/1999/02/22-rdf-syntax-ns#"
   xmlns:svg="http://www.w3.org/2000/svg"
   xmlns="http://www.w3.org/2000/svg"
   xmlns:sodipodi="http://sodipodi.sourceforge.net/DTD/sodipodi-0.dtd"
   xmlns:inkscape="http://www.inkscape.org/namespaces/inkscape"
   width="1000"
   height="1000"
   id="svg4152"
   version="1.1"
   inkscape:version="0.91 r13725"
   viewBox="0 0 1000 1000"
   sodipodi:docname="it-assignment.svg">
  <defs
     id="defs5498">
    <marker
       inkscape:isstock="true"
       style="overflow:visible"
       id="marker4233"
       refX="0.0"
       refY="0.0"
       orient="auto"
       inkscape:stockid="TriangleOutL">
      <path
         transform="scale(0.8)"
         style="fill-rule:evenodd;stroke:#000000;stroke-width:1pt;stroke-opacity:1;fill:#000000;fill-opacity:1"
         d="M 5.77,0.0 L -2.88,5.0 L -2.88,-5.0 L 5.77,0.0 z "
         id="path4235" />
    </marker>
    <marker
       inkscape:isstock="true"
       style="overflow:visible"
       id="marker4755"
       refX="0.0"
       refY="0.0"
       orient="auto"
       inkscape:stockid="TriangleOutL">
      <path
         transform="scale(0.8)"
         style="fill-rule:evenodd;stroke:#000000;stroke-width:1pt;stroke-opacity:1;fill:#000000;fill-opacity:1"
         d="M 5.77,0.0 L -2.88,5.0 L -2.88,-5.0 L 5.77,0.0 z "
         id="path4757" />
    </marker>
    <marker
       inkscape:stockid="Arrow1Lend"
       orient="auto"
       refY="0.0"
       refX="0.0"
       id="Arrow1Lend"
       style="overflow:visible;"
       inkscape:isstock="true">
      <path
         id="path4164"
         d="M 0.0,0.0 L 5.0,-5.0 L -12.5,0.0 L 5.0,5.0 L 0.0,0.0 z "
         style="fill-rule:evenodd;stroke:#000000;stroke-width:1pt;stroke-opacity:1;fill:#000000;fill-opacity:1"
         transform="scale(0.8) rotate(180) translate(12.5,0)" />
    </marker>
    <marker
       inkscape:stockid="Arrow2Lend"
       orient="auto"
       refY="0.0"
       refX="0.0"
       id="Arrow2Lend"
       style="overflow:visible;"
       inkscape:isstock="true">
      <path
         id="path4182"
         style="fill-rule:evenodd;stroke-width:0.625;stroke-linejoin:round;stroke:#000000;stroke-opacity:1;fill:#000000;fill-opacity:1"
         d="M 8.7185878,4.0337352 L -2.2072895,0.016013256 L 8.7185884,-4.0017078 C 6.9730900,-1.6296469 6.9831476,1.6157441 8.7185878,4.0337352 z "
         transform="scale(1.1) rotate(180) translate(1,0)" />
    </marker>
    <pattern
       y="0"
       x="0"
       height="6"
       width="6"
       patternUnits="userSpaceOnUse"
       id="EMFhbasepattern" />
    <pattern
       y="0"
       x="0"
       height="6"
       width="6"
       patternUnits="userSpaceOnUse"
       id="EMFhbasepattern-6" />
    <pattern
       y="0"
       x="0"
       height="6"
       width="6"
       patternUnits="userSpaceOnUse"
       id="EMFhbasepattern-9" />
    <pattern
       y="0"
       x="0"
       height="6"
       width="6"
       patternUnits="userSpaceOnUse"
       id="EMFhbasepattern-0" />
    <pattern
       y="0"
       x="0"
       height="6"
       width="6"
       patternUnits="userSpaceOnUse"
       id="EMFhbasepattern-60" />
    <pattern
       y="0"
       x="0"
       height="6"
       width="6"
       patternUnits="userSpaceOnUse"
       id="EMFhbasepattern-2" />
    <pattern
       y="0"
       x="0"
       height="6"
       width="6"
       patternUnits="userSpaceOnUse"
       id="EMFhbasepattern-06" />
    <pattern
       y="0"
       x="0"
       height="6"
       width="6"
       patternUnits="userSpaceOnUse"
       id="EMFhbasepattern-04" />
  </defs>
  <sodipodi:namedview
     inkscape:window-height="838"
     inkscape:window-width="1440"
     inkscape:pageshadow="2"
     inkscape:pageopacity="0.0"
     borderopacity="1.0"
     bordercolor="#666666"
     pagecolor="#ffffff"
     id="base"
     showgrid="true"
     showguides="true"
     inkscape:guide-bbox="true"
     inkscape:zoom="0.5"
     inkscape:cx="357.82213"
     inkscape:cy="459.29481"
     inkscape:window-x="-8"
     inkscape:window-y="-8"
     inkscape:current-layer="svg4152"
     inkscape:window-maximized="1"
     objecttolerance="20">
    <sodipodi:guide
       orientation="horizontal"
       position="200"
       id="guide5596" />
    <inkscape:grid
       type="xygrid"
       id="grid3430"
       empspacing="50" />
    <sodipodi:guide
       position="550,1000"
       orientation="0,1"
       id="guide4169" />
  </sodipodi:namedview>
  <metadata
     id="metadata5594">
    <rdf:RDF>
      <cc:Work
         rdf:about="">
        <dc:format>image/svg+xml</dc:format>
        <dc:type
           rdf:resource="http://purl.org/dc/dcmitype/StillImage" />
        <dc:title></dc:title>
      </cc:Work>
    </rdf:RDF>
  </metadata>
  <path
     inkscape:connector-curvature="0"
     id="path3850"
     d="m 49.941423,730.47046 883.661647,0"
     style="fill:none;stroke:#040404;stroke-width:39.32278442px;stroke-linecap:round;stroke-linejoin:round;stroke-miterlimit:4;stroke-dasharray:none;stroke-opacity:1" />
  <path
     inkscape:connector-curvature="0"
     id="path3852"
     d="m 947.56842,730.47046 -51.27014,38.95509"
     style="fill:none;stroke:#040404;stroke-width:39.32278442px;stroke-linecap:round;stroke-linejoin:round;stroke-miterlimit:4;stroke-dasharray:none;stroke-opacity:1" />
  <path
     inkscape:connector-curvature="0"
     id="path3854"
     d="m 896.29828,691.70025 51.27014,38.77021"
     style="fill:none;stroke:#040404;stroke-width:39.32278442px;stroke-linecap:round;stroke-linejoin:round;stroke-miterlimit:4;stroke-dasharray:none;stroke-opacity:1" />
  <path
     inkscape:connector-curvature="0"
     id="path3862"
     d="m 97.349058,114.9269 c 87.833232,-20.7641 119.622092,79.19703 124.583602,157.47512 11.57643,179.15727 25.72508,256.15085 86.17909,252.8395 158.21027,1.10591 12.67889,-436.77484 212.2328,-419.50211 95.91957,8.2687 85.44538,76.99159 90.22235,155.82133 4.96185,83.97416 6.06232,143.32589 16.17137,209.65987 37.84954,-109.5158 -11.3946,-356.84484 162.80354,-360.3362 35.64885,-0.73428 64.68019,0.91826 96.6527,2.57257"
     style="fill:none;stroke:#040404;stroke-width:31.97272682px;stroke-linecap:round;stroke-linejoin:round;stroke-miterlimit:4;stroke-dasharray:none;stroke-opacity:1" />
  <path
     inkscape:connector-curvature="0"
     id="path4043"
     d="m 326.28388,588.22887 c 0,-7.48453 -6.09183,-13.57619 -13.40206,-13.57619 -7.48436,0 -13.57619,6.09166 -13.57619,13.57619 z m 0,0 0,90.33334 -26.97825,0 0,-90.33334 z m -26.97825,90.33334 c 0,7.31006 6.09183,13.40224 13.57619,13.40224 7.31023,0 13.40206,-6.09218 13.40206,-13.40224 z"
     style="fill:#040404;fill-opacity:1;fill-rule:nonzero;stroke:none" />
  <path
     inkscape:connector-curvature="0"
     id="path4045"
     d="m 644.17381,533.57619 c 0,-7.48436 -6.09166,-13.57619 -13.57619,-13.57619 -7.31024,0 -13.40172,6.09183 -13.40172,13.57619 z m 0,0 0,90.33369 -26.97791,0 0,-90.33369 z m -26.97791,90.33369 c 0,7.31023 6.09148,13.40172 13.40172,13.40172 7.48453,0 13.57619,-6.09149 13.57619,-13.40172 z"
     style="fill:#040404;fill-opacity:1;fill-rule:nonzero;stroke:none" />
</svg>
