<?xml version="1.0" encoding="UTF-8" standalone="no"?>
<svg
   xmlns:dc="http://purl.org/dc/elements/1.1/"
   xmlns:cc="http://creativecommons.org/ns#"
   xmlns:rdf="http://www.w3.org/1999/02/22-rdf-syntax-ns#"
   xmlns:svg="http://www.w3.org/2000/svg"
   xmlns="http://www.w3.org/2000/svg"
   xmlns:sodipodi="http://sodipodi.sourceforge.net/DTD/sodipodi-0.dtd"
   xmlns:inkscape="http://www.inkscape.org/namespaces/inkscape"
   width="1000"
   height="1000"
   id="svg4152"
   version="1.1"
   inkscape:version="1.0.1 (c497b03c, 2020-09-10)"
   viewBox="0 0 1000 1000"
   sodipodi:docname="assignment.svg">
  <defs
     id="defs5498">
    <marker
       inkscape:isstock="true"
       style="overflow:visible"
       id="marker4233"
       refX="0.0"
       refY="0.0"
       orient="auto"
       inkscape:stockid="TriangleOutL">
      <path
         transform="scale(0.8)"
         style="fill-rule:evenodd;stroke:#000000;stroke-width:1pt;stroke-opacity:1;fill:#000000;fill-opacity:1"
         d="M 5.77,0.0 L -2.88,5.0 L -2.88,-5.0 L 5.77,0.0 z "
         id="path4235" />
    </marker>
    <marker
       inkscape:isstock="true"
       style="overflow:visible"
       id="marker4755"
       refX="0.0"
       refY="0.0"
       orient="auto"
       inkscape:stockid="TriangleOutL">
      <path
         transform="scale(0.8)"
         style="fill-rule:evenodd;stroke:#000000;stroke-width:1pt;stroke-opacity:1;fill:#000000;fill-opacity:1"
         d="M 5.77,0.0 L -2.88,5.0 L -2.88,-5.0 L 5.77,0.0 z "
         id="path4757" />
    </marker>
    <marker
       inkscape:stockid="Arrow1Lend"
       orient="auto"
       refY="0.0"
       refX="0.0"
       id="Arrow1Lend"
       style="overflow:visible;"
       inkscape:isstock="true">
      <path
         id="path4164"
         d="M 0.0,0.0 L 5.0,-5.0 L -12.5,0.0 L 5.0,5.0 L 0.0,0.0 z "
         style="fill-rule:evenodd;stroke:#000000;stroke-width:1pt;stroke-opacity:1;fill:#000000;fill-opacity:1"
         transform="scale(0.8) rotate(180) translate(12.5,0)" />
    </marker>
    <marker
       inkscape:stockid="Arrow2Lend"
       orient="auto"
       refY="0.0"
       refX="0.0"
       id="Arrow2Lend"
       style="overflow:visible;"
       inkscape:isstock="true">
      <path
         id="path4182"
         style="fill-rule:evenodd;stroke-width:0.625;stroke-linejoin:round;stroke:#000000;stroke-opacity:1;fill:#000000;fill-opacity:1"
         d="M 8.7185878,4.0337352 L -2.2072895,0.016013256 L 8.7185884,-4.0017078 C 6.9730900,-1.6296469 6.9831476,1.6157441 8.7185878,4.0337352 z "
         transform="scale(1.1) rotate(180) translate(1,0)" />
    </marker>
    <pattern
       y="0"
       x="0"
       height="6"
       width="6"
       patternUnits="userSpaceOnUse"
       id="EMFhbasepattern" />
  </defs>
  <sodipodi:namedview
     inkscape:window-height="943"
     inkscape:window-width="1251"
     inkscape:pageshadow="2"
     inkscape:pageopacity="0.0"
     borderopacity="1.0"
     bordercolor="#666666"
     pagecolor="#ffffff"
     id="base"
     showgrid="false"
     showguides="true"
     inkscape:guide-bbox="true"
     inkscape:zoom="0.43074198"
     inkscape:cx="352.84223"
     inkscape:cy="640.78939"
     inkscape:window-x="0"
     inkscape:window-y="23"
     inkscape:current-layer="g6050"
     inkscape:window-maximized="0"
     objecttolerance="20"
     inkscape:document-rotation="0">
    <sodipodi:guide
       orientation="horizontal"
       position="200"
       id="guide5596"
       inkscape:locked="false" />
    <inkscape:grid
       type="xygrid"
       id="grid3430"
       empspacing="50" />
    <sodipodi:guide
       position="550,1000"
       orientation="0,1"
       id="guide4169"
       inkscape:locked="false" />
  </sodipodi:namedview>
  <metadata
     id="metadata5594">
    <rdf:RDF>
      <cc:Work
         rdf:about="">
        <dc:format>image/svg+xml</dc:format>
        <dc:type
           rdf:resource="http://purl.org/dc/dcmitype/StillImage" />
        <dc:title />
      </cc:Work>
    </rdf:RDF>
  </metadata>
  <g
     id="g6050"
     transform="matrix(2.3748502,0,0,2.3748502,1485.6411,-1771.974)">
    <path
       style="fill:#000000;fill-opacity:1;fill-rule:nonzero;stroke:none;stroke-width:1.09445548"
       d="m -578.8184,1087.6507 c 0,5.4696 3.66298,9.8575 8.22894,9.8575 4.51597,0 8.17879,-4.3879 8.17879,-9.8575 z m 0,0 V 814.36302 h 16.40773 v 273.28768 z m 16.40773,-273.28768 c 0,-5.4105 -3.66282,-9.79658 -8.17879,-9.79658 -4.56596,0 -8.22894,4.38608 -8.22894,9.79658 z"
       id="path5963"
       inkscape:connector-curvature="0" />
    <path
       style="fill:none;stroke:#000000;stroke-width:16.35749817px;stroke-linecap:round;stroke-linejoin:round;stroke-miterlimit:4;stroke-dasharray:none;stroke-opacity:1"
       d="m -570.58946,801.455 21.02395,27.74771"
       id="path5965"
       inkscape:connector-curvature="0" />
    <path
       style="fill:none;stroke:#000000;stroke-width:16.35749817px;stroke-linecap:round;stroke-linejoin:round;stroke-miterlimit:4;stroke-dasharray:none;stroke-opacity:1"
       d="M -591.6133,829.20271 -570.58946,801.455"
       id="path5967"
       inkscape:connector-curvature="0" />
    <path
       style="fill:#000000;fill-opacity:1;fill-rule:nonzero;stroke:none;stroke-width:1.16462314"
       d="m -562.41067,1087.6507 c -6.19303,0 -11.1613,3.6632 -11.1613,8.1786 0,4.5662 4.96827,8.2294 11.1613,8.2294 z m 0,0 h 309.45356 v 16.408 h -309.45356 z m 309.45356,16.408 c 6.12468,0 11.09328,-3.6632 11.09328,-8.2294 0,-4.5154 -4.9686,-8.1786 -11.09328,-8.1786 z"
       id="path5969"
       inkscape:connector-curvature="0" />
    <path
       style="fill:none;stroke:#000000;stroke-width:16.35749817px;stroke-linecap:round;stroke-linejoin:round;stroke-miterlimit:4;stroke-dasharray:none;stroke-opacity:1"
       d="m -238.75373,1095.8293 -27.74761,21.0741"
       id="path5971"
       inkscape:connector-curvature="0" />
    <path
       style="fill:none;stroke:#000000;stroke-width:16.35749817px;stroke-linecap:round;stroke-linejoin:round;stroke-miterlimit:4;stroke-dasharray:none;stroke-opacity:1"
       d="m -266.50134,1074.806 27.74761,21.0233"
       id="path5973"
       inkscape:connector-curvature="0" />
    <path
       style="fill:none;stroke:#000000;stroke-width:13.3205;stroke-linecap:butt;stroke-linejoin:miter;stroke-miterlimit:4;stroke-dasharray:none;stroke-opacity:1"
       d="m -533.09122,1069.4731 c 32.10131,-1.1915 66.03883,-29.5125 68.71394,-86.71111 2.67512,-57.19848 -10.03772,-116.00395 32.37225,-121.90361 43.97795,-6.92484 153.39407,-8.83665 160.88949,-9.88293"
       id="path857"
       inkscape:connector-curvature="0"
       sodipodi:nodetypes="cscc" />
    <flowRoot
       xml:space="preserve"
       id="flowRoot859"
       transform="matrix(0.42107919,0,0,0.42107919,-534.65881,975.86965)"><flowRegion
         id="flowRegion861"
         ><rect
           id="rect863"
           width="659.32745"
           height="269.30276"
           x="232.15755"
           y="-434.73361"
            /></flowRegion><flowPara
         id="flowPara865"
         >TGATGA</flowPara></flowRoot>
    <g
       aria-label="p"
       id="text72"
       style="font-style:normal;font-weight:normal;font-size:80.8472px;line-height:1.25;font-family:sans-serif;fill:#000000;fill-opacity:1;stroke:none;stroke-width:0.421079">
      <path
         d="m -292.4848,1123.4858 q 0,4.4597 -1.39701,8.3821 -1.37016,3.9224 -3.65374,6.6627 -2.31045,2.8209 -5.37315,4.4597 -3.06269,1.612 -6.52837,1.612 -2.41791,0 -4.45971,-0.5642 -2.01493,-0.5373 -3.6806,-1.5851 l -2.9015,12.6269 h -5.05076 l 9.4836,-41.0777 h 5.05076 l -0.72537,3.1433 q 2.49851,-1.7463 4.91642,-2.8478 2.41792,-1.1283 5.34628,-1.1283 4.37911,0 6.6627,2.7134 2.31045,2.7135 2.31045,7.603 z m -5.29254,0.9672 q 0,-3.197 -1.39702,-4.9164 -1.39702,-1.7463 -4.45971,-1.7463 -2.22986,0 -4.62091,1.1015 -2.39105,1.1015 -4.45971,2.4985 l -3.92239,17.006 q 1.74627,0.9403 3.33135,1.397 1.58508,0.4567 3.8418,0.4567 2.76717,0 4.97016,-1.3433 2.22985,-1.3432 3.6806,-3.4925 1.53135,-2.2567 2.28359,-5.0239 0.75224,-2.7672 0.75224,-5.9373 z"
         id="path126" />
    </g>
  </g>
</svg>
