<svg stroke="currentColor" fill="currentColor"
   xmlns="http://www.w3.org/2000/svg"
   width="1000"
   height="1000"
   viewBox="33.1 84.7 933.1 933.1">
  <g
     transform="matrix(2.3748502,0,0,2.3748502,1485.6411,-1771.974)">
    <path
       style="fill-opacity:1;fill-rule:nonzero;stroke:none;stroke-width:1.09445548"
       d="m -578.8184,1087.6507 c 0,5.4696 3.66298,9.8575 8.22894,9.8575 4.51597,0 8.17879,-4.3879 8.17879,-9.8575 z m 0,0 V 814.36302 h 16.40773 v 273.28768 z m 16.40773,-273.28768 c 0,-5.4105 -3.66282,-9.79658 -8.17879,-9.79658 -4.56596,0 -8.22894,4.38608 -8.22894,9.79658 z" />
    <path
       style="fill:none;stroke-width:16.35749817px;stroke-linecap:round;stroke-linejoin:round;stroke-miterlimit:4;stroke-dasharray:none;stroke-opacity:1"
       d="m -570.58946,801.455 21.02395,27.74771" />
    <path
       style="fill:none;stroke-width:16.35749817px;stroke-linecap:round;stroke-linejoin:round;stroke-miterlimit:4;stroke-dasharray:none;stroke-opacity:1"
       d="M -591.6133,829.20271 -570.58946,801.455" />
    <path
       style="fill-opacity:1;fill-rule:nonzero;stroke:none;stroke-width:1.16462314"
       d="m -562.41067,1087.6507 c -6.19303,0 -11.1613,3.6632 -11.1613,8.1786 0,4.5662 4.96827,8.2294 11.1613,8.2294 z m 0,0 h 309.45356 v 16.408 h -309.45356 z m 309.45356,16.408 c 6.12468,0 11.09328,-3.6632 11.09328,-8.2294 0,-4.5154 -4.9686,-8.1786 -11.09328,-8.1786 z" />
    <path
       style="fill:none;stroke-width:16.35749817px;stroke-linecap:round;stroke-linejoin:round;stroke-miterlimit:4;stroke-dasharray:none;stroke-opacity:1"
       d="m -238.75373,1095.8293 -27.74761,21.0741" />
    <path
       style="fill:none;stroke-width:16.35749817px;stroke-linecap:round;stroke-linejoin:round;stroke-miterlimit:4;stroke-dasharray:none;stroke-opacity:1"
       d="m -266.50134,1074.806 27.74761,21.0233" />
    <path
       style="fill:none;stroke-width:13.3205;stroke-linecap:butt;stroke-linejoin:miter;stroke-miterlimit:4;stroke-dasharray:none;stroke-opacity:1"
       d="m -533.09122,1069.4731 c 32.10131,-1.1915 66.03883,-29.5125 68.71394,-86.71111 2.67512,-57.19848 -10.03772,-116.00395 32.37225,-121.90361 43.97795,-6.92484 153.39407,-8.83665 160.88949,-9.88293" />
    <g
       style="font-style:normal;font-weight:normal;font-size:80.8472px;line-height:1.25;font-family:sans-serif;fill-opacity:1;stroke:none;stroke-width:0.421079">
      <path
         d="m -292.4848,1123.4858 q 0,4.4597 -1.39701,8.3821 -1.37016,3.9224 -3.65374,6.6627 -2.31045,2.8209 -5.37315,4.4597 -3.06269,1.612 -6.52837,1.612 -2.41791,0 -4.45971,-0.5642 -2.01493,-0.5373 -3.6806,-1.5851 l -2.9015,12.6269 h -5.05076 l 9.4836,-41.0777 h 5.05076 l -0.72537,3.1433 q 2.49851,-1.7463 4.91642,-2.8478 2.41792,-1.1283 5.34628,-1.1283 4.37911,0 6.6627,2.7134 2.31045,2.7135 2.31045,7.603 z m -5.29254,0.9672 q 0,-3.197 -1.39702,-4.9164 -1.39702,-1.7463 -4.45971,-1.7463 -2.22986,0 -4.62091,1.1015 -2.39105,1.1015 -4.45971,2.4985 l -3.92239,17.006 q 1.74627,0.9403 3.33135,1.397 1.58508,0.4567 3.8418,0.4567 2.76717,0 4.97016,-1.3433 2.22985,-1.3432 3.6806,-3.4925 1.53135,-2.2567 2.28359,-5.0239 0.75224,-2.7672 0.75224,-5.9373 z" />
    </g>
  </g>
</svg>
