<?xml version="1.0" encoding="UTF-8" standalone="no"?>
<!-- Created with Inkscape (http://www.inkscape.org/) -->

<svg
   xmlns:dc="http://purl.org/dc/elements/1.1/"
   xmlns:cc="http://creativecommons.org/ns#"
   xmlns:rdf="http://www.w3.org/1999/02/22-rdf-syntax-ns#"
   xmlns:svg="http://www.w3.org/2000/svg"
   xmlns="http://www.w3.org/2000/svg"
   xmlns:sodipodi="http://sodipodi.sourceforge.net/DTD/sodipodi-0.dtd"
   xmlns:inkscape="http://www.inkscape.org/namespaces/inkscape"
   width="1000"
   height="1000"
   id="svg4152"
   version="1.1"
   inkscape:version="0.91 r13725"
   viewBox="0 0 1000 1000"
   sodipodi:docname="food.svg">
  <defs
     id="defs5498">
    <marker
       inkscape:isstock="true"
       style="overflow:visible"
       id="marker4233"
       refX="0.0"
       refY="0.0"
       orient="auto"
       inkscape:stockid="TriangleOutL">
      <path
         transform="scale(0.8)"
         style="fill-rule:evenodd;stroke:#000000;stroke-width:1pt;stroke-opacity:1;fill:#000000;fill-opacity:1"
         d="M 5.77,0.0 L -2.88,5.0 L -2.88,-5.0 L 5.77,0.0 z "
         id="path4235" />
    </marker>
    <marker
       inkscape:isstock="true"
       style="overflow:visible"
       id="marker4755"
       refX="0.0"
       refY="0.0"
       orient="auto"
       inkscape:stockid="TriangleOutL">
      <path
         transform="scale(0.8)"
         style="fill-rule:evenodd;stroke:#000000;stroke-width:1pt;stroke-opacity:1;fill:#000000;fill-opacity:1"
         d="M 5.77,0.0 L -2.88,5.0 L -2.88,-5.0 L 5.77,0.0 z "
         id="path4757" />
    </marker>
    <marker
       inkscape:stockid="Arrow1Lend"
       orient="auto"
       refY="0.0"
       refX="0.0"
       id="Arrow1Lend"
       style="overflow:visible;"
       inkscape:isstock="true">
      <path
         id="path4164"
         d="M 0.0,0.0 L 5.0,-5.0 L -12.5,0.0 L 5.0,5.0 L 0.0,0.0 z "
         style="fill-rule:evenodd;stroke:#000000;stroke-width:1pt;stroke-opacity:1;fill:#000000;fill-opacity:1"
         transform="scale(0.8) rotate(180) translate(12.5,0)" />
    </marker>
    <marker
       inkscape:stockid="Arrow2Lend"
       orient="auto"
       refY="0.0"
       refX="0.0"
       id="Arrow2Lend"
       style="overflow:visible;"
       inkscape:isstock="true">
      <path
         id="path4182"
         style="fill-rule:evenodd;stroke-width:0.625;stroke-linejoin:round;stroke:#000000;stroke-opacity:1;fill:#000000;fill-opacity:1"
         d="M 8.7185878,4.0337352 L -2.2072895,0.016013256 L 8.7185884,-4.0017078 C 6.9730900,-1.6296469 6.9831476,1.6157441 8.7185878,4.0337352 z "
         transform="scale(1.1) rotate(180) translate(1,0)" />
    </marker>
    <pattern
       y="0"
       x="0"
       height="6"
       width="6"
       patternUnits="userSpaceOnUse"
       id="EMFhbasepattern" />
  </defs>
  <sodipodi:namedview
     inkscape:window-height="838"
     inkscape:window-width="1440"
     inkscape:pageshadow="2"
     inkscape:pageopacity="0.0"
     borderopacity="1.0"
     bordercolor="#666666"
     pagecolor="#ffffff"
     id="base"
     showgrid="true"
     showguides="true"
     inkscape:guide-bbox="true"
     inkscape:zoom="0.5"
     inkscape:cx="357.82213"
     inkscape:cy="459.29481"
     inkscape:window-x="-8"
     inkscape:window-y="-8"
     inkscape:current-layer="svg4152"
     inkscape:window-maximized="1"
     objecttolerance="20">
    <sodipodi:guide
       orientation="horizontal"
       position="200"
       id="guide5596" />
    <inkscape:grid
       type="xygrid"
       id="grid3430"
       empspacing="50" />
    <sodipodi:guide
       position="550,1000"
       orientation="0,1"
       id="guide4169" />
  </sodipodi:namedview>
  <metadata
     id="metadata5594">
    <rdf:RDF>
      <cc:Work
         rdf:about="">
        <dc:format>image/svg+xml</dc:format>
        <dc:type
           rdf:resource="http://purl.org/dc/dcmitype/StillImage" />
        <dc:title></dc:title>
      </cc:Work>
    </rdf:RDF>
  </metadata>
  <path
     inkscape:connector-curvature="0"
     id="path9307"
     d="m 449.65041,685.62377 c -3.34283,12.49596 -16.27592,20.05137 -28.91794,16.56652 -12.49803,-3.34264 -20.05381,-16.27792 -16.71251,-28.92042 z m 0,0 149.09246,-556.12881 -45.62892,-12.2065 -149.09399,555.98141 z M 553.11395,117.28846 c 3.3427,-12.64249 16.27873,-20.053956 28.92075,-16.71132 12.64202,3.34207 20.051,16.27532 16.70817,28.91782 z"
     style="fill:#000000;fill-opacity:1;fill-rule:nonzero;stroke:none" />
  <path
     inkscape:connector-curvature="0"
     id="path9309"
     d="m 594.96638,52.331699 c -36.47232,-9.736299 -73.82075,11.916008 -83.55666,48.245441 -9.73577,36.32887 11.91592,73.82076 48.24705,83.55706 36.32537,9.73614 73.67521,-11.91588 83.41112,-48.24516 9.73438,-36.32943 -11.77318,-73.821053 -48.10151,-83.557341 z"
     style="fill:#000000;fill-opacity:1;fill-rule:evenodd;stroke:none" />
  <path
     inkscape:connector-curvature="0"
     id="path9311"
     d="m 443.1104,618.77589 c -36.32832,-9.735 -73.67521,11.77235 -83.41112,48.10164 -9.73592,36.47568 11.77038,73.82163 48.24564,83.55662 36.32819,9.73499 73.67521,-11.77222 83.41099,-48.24386 9.73592,-36.32928 -11.77025,-73.67523 -48.24551,-83.4144 z"
     style="fill:#000000;fill-opacity:1;fill-rule:evenodd;stroke:none" />
  <path
     inkscape:connector-curvature="0"
     id="path9313"
     d="m 356.93856,362.72904 c -21.36203,79.77884 26.01029,161.7387 105.79047,183.09953 79.77878,21.36081 161.73881,-26.01291 183.09958,-105.79103 C 667.18925,360.40379 619.81538,278.29969 540.03814,256.938 460.4035,235.57633 378.29933,282.94962 356.93856,362.72904 Z"
     style="fill:none;stroke:#000000;stroke-width:58.85338211px;stroke-linecap:round;stroke-linejoin:round;stroke-miterlimit:4;stroke-dasharray:none;stroke-opacity:1" />
  <path
     inkscape:connector-curvature="0"
     id="path9315"
     d="m 785.62314,453.11429 c 12.49663,3.34265 20.0524,16.27792 16.56698,28.92042 -3.34269,12.64248 -16.27732,20.05152 -28.92075,16.70888 z m 0,0 -556.12815,-149.09375 -12.20697,45.62957 555.98135,149.09348 z M 217.28802,349.65011 c -12.64203,-3.34206 -20.05381,-16.27533 -16.71097,-28.91782 3.3427,-12.49725 16.27592,-20.05397 28.91794,-16.71175 z"
     style="fill:#000000;fill-opacity:1;fill-rule:nonzero;stroke:none" />
  <path
     inkscape:connector-curvature="0"
     id="path9317"
     d="m 152.33142,307.94427 c -9.73586,36.3293 11.9159,73.67567 48.24563,83.41182 36.32973,9.73629 73.82075,-11.77064 83.55652,-48.24516 9.73732,-36.32928 -11.91578,-73.67567 -48.2441,-83.41181 -36.32973,-9.7363 -73.82215,11.77063 -83.55805,48.24515 z"
     style="fill:#000000;fill-opacity:1;fill-rule:evenodd;stroke:none" />
  <path
     inkscape:connector-curvature="0"
     id="path9319"
     d="M 375.53861,367.66974 C 356.93856,437.1309 398.2076,508.629 467.66974,527.22885 537.13049,545.82857 608.62852,504.55858 627.22856,435.09641 645.82861,365.63524 604.55816,294.13915 535.09602,275.53858 465.63527,256.938 394.13866,298.20798 375.53861,367.66974 Z"
     style="fill:#fefefe;fill-opacity:1;fill-rule:evenodd;stroke:none" />
  <path
     inkscape:connector-curvature="0"
     id="path9321"
     d="m 718.77619,459.65723 c -9.73591,36.32525 11.77178,73.67522 48.10151,83.41023 36.47526,9.73499 73.82215,-11.77222 83.55667,-48.10166 9.73436,-36.47164 -11.77179,-73.81961 -48.24425,-83.55575 -36.32973,-9.73629 -73.67521,11.91572 -83.41393,48.24718 z"
     style="fill:#000000;fill-opacity:1;fill-rule:evenodd;stroke:none" />
  <path
     inkscape:connector-curvature="0"
     id="path9323"
     d="m 455.75383,418.53076 c 0,3.63254 -0.72035,6.8295 -2.03447,9.59061 -1.31118,2.9062 -3.19717,5.37699 -5.66838,7.2658 -2.32398,2.0345 -5.0847,3.48789 -8.28201,4.50484 -3.3427,1.01723 -6.68553,1.45339 -10.46342,1.45339 -2.61519,0 -5.08625,-0.14554 -7.26485,-0.5821 -2.18,-0.43658 -4.21448,-1.01726 -5.95929,-1.59819 -1.74342,-0.7262 -3.19591,-1.30831 -4.3586,-2.03478 -1.16705,-0.7262 -2.03448,-1.30831 -2.47107,-1.74373 -0.43224,-0.43658 -0.87893,-1.01725 -1.02306,-1.88881 -0.28811,-0.7262 -0.28811,-1.59849 -0.28811,-2.90665 0,-0.87172 0,-1.59862 0.14398,-2.17958 0,-0.58066 0.14413,-1.01724 0.28826,-1.45339 0.14412,-0.28962 0.28811,-0.58066 0.57637,-0.72619 0.2881,-0.14551 0.57636,-0.14551 0.87893,-0.14551 0.57622,0 1.31117,0.29104 2.32553,1.01723 1.02292,0.58066 2.32399,1.30829 3.92201,2.17959 1.59929,0.72618 3.63376,1.59847 5.81377,2.17957 2.32412,0.72619 4.94071,1.16277 7.84697,1.16277 2.32553,0 4.36,-0.28962 6.24894,-1.01724 1.74341,-0.5821 3.3413,-1.45339 4.79519,-2.47034 1.31117,-1.16277 2.32413,-2.47035 3.05178,-4.06884 0.72036,-1.59848 1.02293,-3.48774 1.02293,-5.52222 0,-2.17959 -0.43225,-4.06883 -1.45376,-5.52222 -1.02306,-1.59848 -2.32554,-3.05145 -3.92356,-4.21392 -1.74342,-1.16278 -3.48682,-2.17958 -5.66683,-3.19712 -2.03447,-1.01725 -4.21447,-2.03434 -6.39447,-3.05143 -2.32413,-1.01725 -4.3586,-2.18002 -6.53861,-3.3425 -2.03447,-1.30831 -3.92495,-2.76111 -5.52284,-4.3596 -1.59788,-1.74373 -3.05178,-3.63254 -4.06894,-5.9578 -1.02307,-2.32509 -1.45235,-4.94069 -1.45235,-8.13764 0,-3.19698 0.57636,-6.10333 1.7434,-8.7192 1.16705,-2.47035 2.90626,-4.64993 4.94073,-6.39409 2.03447,-1.74358 4.64952,-3.05144 7.55577,-3.92331 2.90765,-0.87171 5.95942,-1.30829 9.30072,-1.30829 1.74342,0 3.48837,0.14553 5.23179,0.43658 1.7434,0.29105 3.34269,0.7262 4.94071,1.16278 1.59789,0.5821 2.90612,1.01724 4.06895,1.74416 1.31117,0.58066 2.03447,1.01724 2.46966,1.45296 0.28811,0.43656 0.57623,0.72618 0.7348,0.87171 0.14413,0.29104 0.14413,0.58211 0.28812,0.8717 0,0.28962 0.14413,0.7262 0.14413,1.16278 0,0.58211 0.14413,1.16277 0.14413,1.88924 0,0.72619 -0.14413,1.45325 -0.14413,2.03435 0,0.43657 -0.14413,1.01726 -0.28812,1.3083 -0.14413,0.43658 -0.28825,0.72619 -0.43238,0.87171 -0.28811,0.14554 -0.57622,0.29106 -0.86448,0.29106 -0.43223,0 -1.02292,-0.29106 -2.03447,-0.87171 -0.87893,-0.58068 -2.03447,-1.16279 -3.48837,-1.88925 -1.31117,-0.72619 -2.9061,-1.30829 -4.79504,-1.88882 -1.88895,-0.58211 -3.92356,-0.87172 -6.24909,-0.87172 -2.17846,0 -4.06896,0.29107 -5.66683,0.87172 -1.59788,0.58066 -2.90625,1.3083 -3.92342,2.32481 -1.02306,0.87173 -1.88894,2.03435 -2.32553,3.34251 -0.57637,1.3083 -0.87894,2.7611 -0.87894,4.21407 0,2.18 0.57638,4.06882 1.59929,5.6673 1.02306,1.4534 2.32414,2.90636 3.92341,4.06898 1.74356,1.30829 3.6325,2.32511 5.66698,3.34206 2.18,1.01725 4.36,2.03449 6.54001,3.05188 2.1786,1.01724 4.35859,2.17959 6.39306,3.34221 2.18001,1.16277 4.06895,2.61587 5.66683,4.3596 1.74496,1.59846 3.05179,3.63297 4.06909,5.81255 1.02292,2.3251 1.59928,4.94112 1.59928,8.13809 z m 89.36902,-18.01948 c 0,6.24841 -0.72035,11.91573 -2.32399,17.00209 -1.45389,5.08621 -3.63249,9.30028 -6.54015,12.93311 -3.05163,3.48788 -6.68413,6.24856 -11.18812,8.13781 -4.36014,1.88925 -9.59179,2.76111 -15.54982,2.76111 -5.81235,0 -10.89861,-0.87172 -15.11308,-2.61601 -4.21447,-1.74359 -7.84683,-4.21393 -10.60755,-7.55615 -2.76072,-3.3422 -4.7952,-7.41145 -6.24895,-12.35215 -1.31131,-4.94069 -2.03461,-10.60801 -2.03461,-17.00209 0,-6.10331 0.7205,-11.62554 2.32554,-16.71132 1.45248,-4.94069 3.63249,-9.30029 6.68413,-12.78802 2.90624,-3.48745 6.54014,-6.24855 11.04413,-8.13781 4.50569,-1.88881 9.59039,-2.76111 15.54828,-2.76111 5.8139,0 10.75462,0.87173 14.96769,2.47035 4.21448,1.74415 7.84838,4.3596 10.60896,7.55671 2.76071,3.34221 4.94072,7.41103 6.24909,12.35216 1.45235,4.79546 2.17845,10.46275 2.17845,16.71132 z m -10.89861,0.72619 c 0,-4.35959 -0.43224,-8.57366 -1.16705,-12.35216 -0.87892,-3.77807 -2.1786,-6.97518 -3.92341,-9.88139 -1.88894,-2.76111 -4.21307,-4.94069 -7.26485,-6.39407 -3.05177,-1.59848 -6.82966,-2.32511 -11.3352,-2.32511 -4.50414,0 -8.28342,0.72619 -11.3352,2.47034 -3.05177,1.59849 -5.52129,3.92359 -7.41038,6.6847 -1.88894,2.90635 -3.19717,6.10332 -4.06894,9.88139 -0.87894,3.7785 -1.16705,7.70181 -1.16705,11.77063 0,4.50527 0.28811,8.71919 1.02306,12.64293 0.86447,3.77807 2.18,7.12027 3.92342,9.88138 1.7434,2.7611 4.21446,4.94069 7.26625,6.53918 3.05163,1.59847 6.82966,2.32524 11.33365,2.32524 4.50568,0 8.28357,-0.8717 11.48073,-2.61558 3.05178,-1.59849 5.52145,-3.92358 7.41038,-6.68469 1.89035,-2.90635 3.19731,-6.24856 4.06895,-10.02706 0.72049,-3.77807 1.16704,-7.7018 1.16704,-11.91573 z"
     style="fill:none;stroke:#000000;stroke-width:14.53169918px;stroke-linecap:round;stroke-linejoin:round;stroke-miterlimit:4;stroke-dasharray:none;stroke-opacity:1" />
  <path
     inkscape:connector-curvature="0"
     id="path9325"
     d="m 455.75383,418.53076 c 0,3.63254 -0.72035,6.8295 -2.03447,9.59061 -1.31118,2.9062 -3.19717,5.37699 -5.66838,7.2658 -2.32398,2.0345 -5.0847,3.48789 -8.28201,4.50484 -3.3427,1.01723 -6.68553,1.45339 -10.46342,1.45339 -2.61519,0 -5.08625,-0.14554 -7.26485,-0.5821 -2.18,-0.43658 -4.21448,-1.01726 -5.95929,-1.59819 -1.74342,-0.7262 -3.19591,-1.30831 -4.3586,-2.03478 -1.16705,-0.7262 -2.03448,-1.30831 -2.47107,-1.74373 -0.43224,-0.43658 -0.87893,-1.01725 -1.02306,-1.88881 -0.28811,-0.7262 -0.28811,-1.59849 -0.28811,-2.90665 0,-0.87172 0,-1.59862 0.14398,-2.17958 0,-0.58066 0.14413,-1.01724 0.28826,-1.45339 0.14412,-0.28962 0.28811,-0.58066 0.57637,-0.72619 0.2881,-0.14551 0.57636,-0.14551 0.87893,-0.14551 0.57622,0 1.31117,0.29104 2.32553,1.01723 1.02292,0.58066 2.32399,1.30829 3.92201,2.17959 1.59929,0.72618 3.63376,1.59847 5.81377,2.17957 2.32412,0.72619 4.94071,1.16277 7.84697,1.16277 2.32553,0 4.36,-0.28962 6.24894,-1.01724 1.74341,-0.5821 3.3413,-1.45339 4.79519,-2.47034 1.31117,-1.16277 2.32413,-2.47035 3.05178,-4.06884 0.72036,-1.59848 1.02293,-3.48774 1.02293,-5.52222 0,-2.17959 -0.43225,-4.06883 -1.45376,-5.52222 -1.02306,-1.59848 -2.32554,-3.05145 -3.92356,-4.21392 -1.74342,-1.16278 -3.48682,-2.17958 -5.66683,-3.19712 -2.03447,-1.01725 -4.21447,-2.03434 -6.39447,-3.05143 -2.32413,-1.01725 -4.3586,-2.18002 -6.53861,-3.3425 -2.03447,-1.30831 -3.92495,-2.76111 -5.52284,-4.3596 -1.59788,-1.74373 -3.05178,-3.63254 -4.06894,-5.9578 -1.02307,-2.32509 -1.45235,-4.94069 -1.45235,-8.13764 0,-3.19698 0.57636,-6.10333 1.7434,-8.7192 1.16705,-2.47035 2.90626,-4.64993 4.94073,-6.39409 2.03447,-1.74358 4.64952,-3.05144 7.55577,-3.92331 2.90765,-0.87171 5.95942,-1.30829 9.30072,-1.30829 1.74342,0 3.48837,0.14553 5.23179,0.43658 1.7434,0.29105 3.34269,0.7262 4.94071,1.16278 1.59789,0.5821 2.90612,1.01724 4.06895,1.74416 1.31117,0.58066 2.03447,1.01724 2.46966,1.45296 0.28811,0.43656 0.57623,0.72618 0.7348,0.87171 0.14413,0.29104 0.14413,0.58211 0.28812,0.8717 0,0.28962 0.14413,0.7262 0.14413,1.16278 0,0.58211 0.14413,1.16277 0.14413,1.88924 0,0.72619 -0.14413,1.45325 -0.14413,2.03435 0,0.43657 -0.14413,1.01726 -0.28812,1.3083 -0.14413,0.43658 -0.28825,0.72619 -0.43238,0.87171 -0.28811,0.14554 -0.57622,0.29106 -0.86448,0.29106 -0.43223,0 -1.02292,-0.29106 -2.03447,-0.87171 -0.87893,-0.58068 -2.03447,-1.16279 -3.48837,-1.88925 -1.31117,-0.72619 -2.9061,-1.30829 -4.79504,-1.88882 -1.88895,-0.58211 -3.92356,-0.87172 -6.24909,-0.87172 -2.17846,0 -4.06896,0.29107 -5.66683,0.87172 -1.59788,0.58066 -2.90625,1.3083 -3.92342,2.32481 -1.02306,0.87173 -1.88894,2.03435 -2.32553,3.34251 -0.57637,1.3083 -0.87894,2.7611 -0.87894,4.21407 0,2.18 0.57638,4.06882 1.59929,5.6673 1.02306,1.4534 2.32414,2.90636 3.92341,4.06898 1.74356,1.30829 3.6325,2.32511 5.66698,3.34206 2.18,1.01725 4.36,2.03449 6.54001,3.05188 2.1786,1.01724 4.35859,2.17959 6.39306,3.34221 2.18001,1.16277 4.06895,2.61587 5.66683,4.3596 1.74496,1.59846 3.05179,3.63297 4.06909,5.81255 1.02292,2.3251 1.59928,4.94112 1.59928,8.13809 z m 89.36902,-18.01948 c 0,6.24841 -0.72035,11.91573 -2.32399,17.00209 -1.45389,5.08621 -3.63249,9.30028 -6.54015,12.93311 -3.05163,3.48788 -6.68413,6.24856 -11.18812,8.13781 -4.36014,1.88925 -9.59179,2.76111 -15.54982,2.76111 -5.81235,0 -10.89861,-0.87172 -15.11308,-2.61601 -4.21447,-1.74359 -7.84683,-4.21393 -10.60755,-7.55615 -2.76072,-3.3422 -4.7952,-7.41145 -6.24895,-12.35215 -1.31131,-4.94069 -2.03461,-10.60801 -2.03461,-17.00209 0,-6.10331 0.7205,-11.62554 2.32554,-16.71132 1.45248,-4.94069 3.63249,-9.30029 6.68413,-12.78802 2.90624,-3.48745 6.54014,-6.24855 11.04413,-8.13781 4.50569,-1.88881 9.59039,-2.76111 15.54828,-2.76111 5.8139,0 10.75462,0.87173 14.96769,2.47035 4.21448,1.74415 7.84838,4.3596 10.60896,7.55671 2.76071,3.34221 4.94072,7.41103 6.24909,12.35216 1.45235,4.79546 2.17845,10.46275 2.17845,16.71132 z m -10.89861,0.72619 c 0,-4.35959 -0.43224,-8.57366 -1.16705,-12.35216 -0.87892,-3.77807 -2.1786,-6.97518 -3.92341,-9.88139 -1.88894,-2.76111 -4.21307,-4.94069 -7.26485,-6.39407 -3.05177,-1.59848 -6.82966,-2.32511 -11.3352,-2.32511 -4.50414,0 -8.28342,0.72619 -11.3352,2.47034 -3.05177,1.59849 -5.52129,3.92359 -7.41038,6.6847 -1.88894,2.90635 -3.19717,6.10332 -4.06894,9.88139 -0.87894,3.7785 -1.16705,7.70181 -1.16705,11.77063 0,4.50527 0.28811,8.71919 1.02306,12.64293 0.86447,3.77807 2.18,7.12027 3.92342,9.88138 1.7434,2.7611 4.21446,4.94069 7.26625,6.53918 3.05163,1.59847 6.82966,2.32524 11.33365,2.32524 4.50568,0 8.28357,-0.8717 11.48073,-2.61558 3.05178,-1.59849 5.52145,-3.92358 7.41038,-6.68469 1.89035,-2.90635 3.19731,-6.24856 4.06895,-10.02706 0.72049,-3.77807 1.16704,-7.7018 1.16704,-11.91573 z"
     style="fill:#000000;fill-opacity:1;fill-rule:nonzero;stroke:none" />
  <path
     inkscape:connector-curvature="0"
     id="path9327"
     d="m 594.8238,457.91277 c 0,1.16278 -0.14413,2.0332 -0.4467,2.61459 -0.28825,0.5821 -0.7205,0.87028 -1.31117,0.87028 l -7.26625,0 0,13.37041 c 0,0.29249 0,0.5821 -0.14413,0.72762 -0.14399,0.14409 -0.28812,0.28819 -0.72035,0.43515 -0.28826,0.14695 -0.73481,0.28817 -1.31117,0.28817 -0.43225,0 -1.1672,0.14697 -1.8905,0.14697 -0.86448,0 -1.45235,-0.14697 -2.03306,-0.14697 -0.43224,0 -0.86448,-0.14409 -1.31118,-0.28817 -0.28811,-0.14696 -0.43224,-0.29249 -0.57622,-0.43515 -0.14413,-0.14696 -0.14413,-0.43513 -0.14413,-0.72762 l 0,-13.37041 -26.15876,0 c -0.43225,0 -0.72035,0 -1.02293,-0.1441 -0.28825,0 -0.43224,-0.29248 -0.72049,-0.43945 -0.14413,-0.28818 -0.28812,-0.7233 -0.43223,-1.15845 -0.14413,-0.5821 -0.14413,-1.16277 -0.14413,-1.89084 0,-0.72763 0,-1.16277 0.14413,-1.74443 0,-0.43515 0,-0.87028 0.14411,-1.30975 0.14399,-0.43512 0.14399,-0.87027 0.43225,-1.15844 0.14412,-0.43946 0.28811,-0.8746 0.57636,-1.16276 l 22.81593,-38.65541 c 0.14399,-0.14552 0.43225,-0.43659 0.72035,-0.5821 0.28826,-0.29107 0.73481,-0.43659 1.1672,-0.58068 0.43223,-0.14551 1.16704,-0.14551 1.89034,-0.29105 0.7348,0 1.45235,0 2.46811,0 1.16718,0 2.03742,0 2.90765,0.14554 0.73495,0 1.31117,0.14551 1.8905,0.29104 0.43223,0.14553 0.86447,0.29107 1.16704,0.43515 0.14413,0.29104 0.28826,0.5821 0.28826,0.8717 l 0,40.39827 7.2661,0 c 0.43238,0 1.02307,0.28817 1.31117,0.87027 0.28826,0.58211 0.4467,1.4557 0.4467,2.61876 z m -17.1477,-38.21982 -0.14399,0 -20.63312,34.73079 20.78006,0 z"
     style="fill:none;stroke:#000000;stroke-width:7.26584959px;stroke-linecap:round;stroke-linejoin:round;stroke-miterlimit:4;stroke-dasharray:none;stroke-opacity:1" />
  <path
     inkscape:connector-curvature="0"
     id="path9329"
     d="m 594.8238,457.91277 c 0,1.16278 -0.14413,2.0332 -0.4467,2.61459 -0.28825,0.5821 -0.7205,0.87028 -1.31117,0.87028 l -7.26625,0 0,13.37041 c 0,0.29249 0,0.5821 -0.14413,0.72762 -0.14399,0.14409 -0.28812,0.28819 -0.72035,0.43515 -0.28826,0.14695 -0.73481,0.28817 -1.31117,0.28817 -0.43225,0 -1.1672,0.14697 -1.8905,0.14697 -0.86448,0 -1.45235,-0.14697 -2.03306,-0.14697 -0.43224,0 -0.86448,-0.14409 -1.31118,-0.28817 -0.28811,-0.14696 -0.43224,-0.29249 -0.57622,-0.43515 -0.14413,-0.14696 -0.14413,-0.43513 -0.14413,-0.72762 l 0,-13.37041 -26.15876,0 c -0.43225,0 -0.72035,0 -1.02293,-0.1441 -0.28825,0 -0.43224,-0.29248 -0.72049,-0.43945 -0.14413,-0.28818 -0.28812,-0.7233 -0.43223,-1.15845 -0.14413,-0.5821 -0.14413,-1.16277 -0.14413,-1.89084 0,-0.72763 0,-1.16277 0.14413,-1.74443 0,-0.43515 0,-0.87028 0.14411,-1.30975 0.14399,-0.43512 0.14399,-0.87027 0.43225,-1.15844 0.14412,-0.43946 0.28811,-0.8746 0.57636,-1.16276 l 22.81593,-38.65541 c 0.14399,-0.14552 0.43225,-0.43659 0.72035,-0.5821 0.28826,-0.29107 0.73481,-0.43659 1.1672,-0.58068 0.43223,-0.14551 1.16704,-0.14551 1.89034,-0.29105 0.7348,0 1.45235,0 2.46811,0 1.16718,0 2.03742,0 2.90765,0.14554 0.73495,0 1.31117,0.14551 1.8905,0.29104 0.43223,0.14553 0.86447,0.29107 1.16704,0.43515 0.14413,0.29104 0.28826,0.5821 0.28826,0.8717 l 0,40.39827 7.2661,0 c 0.43238,0 1.02307,0.28817 1.31117,0.87027 0.28826,0.58211 0.4467,1.4557 0.4467,2.61876 z m -17.1477,-38.21982 -0.14399,0 -20.63312,34.73079 20.78006,0 z"
     style="fill:#000000;fill-opacity:1;fill-rule:nonzero;stroke:none" />
</svg>
