<?xml version="1.0" encoding="UTF-8" standalone="no"?>
<!-- Created with Inkscape (http://www.inkscape.org/) -->

<svg
   xmlns:dc="http://purl.org/dc/elements/1.1/"
   xmlns:cc="http://creativecommons.org/ns#"
   xmlns:rdf="http://www.w3.org/1999/02/22-rdf-syntax-ns#"
   xmlns:svg="http://www.w3.org/2000/svg"
   xmlns="http://www.w3.org/2000/svg"
   xmlns:sodipodi="http://sodipodi.sourceforge.net/DTD/sodipodi-0.dtd"
   xmlns:inkscape="http://www.inkscape.org/namespaces/inkscape"
   width="1000"
   height="1000"
   id="svg4152"
   version="1.1"
   inkscape:version="0.91 r13725"
   viewBox="0 0 1000 1000"
   sodipodi:docname="eco.svg">
  <defs
     id="defs5498">
    <marker
       inkscape:isstock="true"
       style="overflow:visible"
       id="marker4233"
       refX="0.0"
       refY="0.0"
       orient="auto"
       inkscape:stockid="TriangleOutL">
      <path
         transform="scale(0.8)"
         style="fill-rule:evenodd;stroke:#000000;stroke-width:1pt;stroke-opacity:1;fill:#000000;fill-opacity:1"
         d="M 5.77,0.0 L -2.88,5.0 L -2.88,-5.0 L 5.77,0.0 z "
         id="path4235" />
    </marker>
    <marker
       inkscape:isstock="true"
       style="overflow:visible"
       id="marker4755"
       refX="0.0"
       refY="0.0"
       orient="auto"
       inkscape:stockid="TriangleOutL">
      <path
         transform="scale(0.8)"
         style="fill-rule:evenodd;stroke:#000000;stroke-width:1pt;stroke-opacity:1;fill:#000000;fill-opacity:1"
         d="M 5.77,0.0 L -2.88,5.0 L -2.88,-5.0 L 5.77,0.0 z "
         id="path4757" />
    </marker>
    <marker
       inkscape:stockid="Arrow1Lend"
       orient="auto"
       refY="0.0"
       refX="0.0"
       id="Arrow1Lend"
       style="overflow:visible;"
       inkscape:isstock="true">
      <path
         id="path4164"
         d="M 0.0,0.0 L 5.0,-5.0 L -12.5,0.0 L 5.0,5.0 L 0.0,0.0 z "
         style="fill-rule:evenodd;stroke:#000000;stroke-width:1pt;stroke-opacity:1;fill:#000000;fill-opacity:1"
         transform="scale(0.8) rotate(180) translate(12.5,0)" />
    </marker>
    <marker
       inkscape:stockid="Arrow2Lend"
       orient="auto"
       refY="0.0"
       refX="0.0"
       id="Arrow2Lend"
       style="overflow:visible;"
       inkscape:isstock="true">
      <path
         id="path4182"
         style="fill-rule:evenodd;stroke-width:0.625;stroke-linejoin:round;stroke:#000000;stroke-opacity:1;fill:#000000;fill-opacity:1"
         d="M 8.7185878,4.0337352 L -2.2072895,0.016013256 L 8.7185884,-4.0017078 C 6.9730900,-1.6296469 6.9831476,1.6157441 8.7185878,4.0337352 z "
         transform="scale(1.1) rotate(180) translate(1,0)" />
    </marker>
    <pattern
       y="0"
       x="0"
       height="6"
       width="6"
       patternUnits="userSpaceOnUse"
       id="EMFhbasepattern" />
  </defs>
  <sodipodi:namedview
     inkscape:window-height="838"
     inkscape:window-width="1440"
     inkscape:pageshadow="2"
     inkscape:pageopacity="0.0"
     borderopacity="1.0"
     bordercolor="#666666"
     pagecolor="#ffffff"
     id="base"
     showgrid="true"
     showguides="true"
     inkscape:guide-bbox="true"
     inkscape:zoom="0.5"
     inkscape:cx="52.82213"
     inkscape:cy="459.29481"
     inkscape:window-x="-8"
     inkscape:window-y="-8"
     inkscape:current-layer="svg4152"
     inkscape:window-maximized="1"
     objecttolerance="20">
    <sodipodi:guide
       orientation="horizontal"
       position="200"
       id="guide5596" />
    <inkscape:grid
       type="xygrid"
       id="grid3430"
       empspacing="50" />
    <sodipodi:guide
       position="550,1000"
       orientation="0,1"
       id="guide4169" />
  </sodipodi:namedview>
  <metadata
     id="metadata5594">
    <rdf:RDF>
      <cc:Work
         rdf:about="">
        <dc:format>image/svg+xml</dc:format>
        <dc:type
           rdf:resource="http://purl.org/dc/dcmitype/StillImage" />
        <dc:title></dc:title>
      </cc:Work>
    </rdf:RDF>
  </metadata>
  <path
     inkscape:connector-curvature="0"
     id="path8657"
     d="m 214.0712,153.72692 32.19631,32.09941 -34.81478,128.10655 c -2.32754,8.53414 0.097,17.55341 6.40057,23.85736 l 93.00087,93.0967 -34.71761,127.81588 c -2.32757,8.53464 0.097,17.55234 6.3034,23.85629 L 385.81755,685.8403 c 6.20652,6.20633 15.2253,8.62964 23.75936,6.39893 l 127.91174,-34.91183 36.36646,36.17376 c 9.60113,9.69881 25.11815,9.69881 34.62156,0 9.60114,-9.60108 9.60114,-25.11812 0,-34.62153 l -36.17107,-36.2688 31.03132,-114.43191 114.43188,-31.1317 36.27151,36.27148 c 9.60112,9.60111 25.11542,9.60111 34.71655,0 9.60111,-9.6011 9.60111,-25.11814 0,-34.71926 l -36.2688,-36.17107 34.81424,-128.10743 c 2.23069,-8.43722 -0.19276,-17.55284 -6.39893,-23.85649 L 677.62213,187.18405 c -4.75171,-4.65518 -12.21986,-9.50372 -23.85626,-6.40058 l -128.1063,34.81474 -93.09912,-93.09797 c -5.04292,-5.13979 -12.6071,-10.27957 -23.75937,-6.30346 L 280.6945,150.9144 248.49789,118.81499 c -17.55284,-15.5162 -29.96589,-4.84862 -34.62074,0 -9.30966,9.69772 -9.30966,25.31101 0.19413,34.91193 z m 113.07529,404.10213 31.03242,-114.23654 114.72335,-31.13171 83.0125,82.91755 -31.12902,114.52953 -114.43298,31.03139 -83.20627,-83.11022 z m 409.04842,-242.63538 -31.03132,114.43413 -114.52957,31.03129 -82.91753,-82.91483 31.03404,-114.72415 114.23922,-31.03274 83.20516,83.2063 z M 491.23067,250.41302 460.19936,364.84599 345.66895,395.97501 262.7536,312.96322 c 0,0 31.80852,-112.20256 32.48723,-112.97833 0.67895,-0.77596 113.07529,-32.5844 113.07529,-32.5844 l 82.91455,83.01253 z"
     style="fill:none;stroke:#000000;stroke-width:30;stroke-linecap:round;stroke-linejoin:round;stroke-miterlimit:4;stroke-dasharray:none;stroke-opacity:1" />
</svg>
