<?xml version="1.0" encoding="UTF-8" standalone="no"?>
<!-- Created with Inkscape (http://www.inkscape.org/) -->

<svg
   xmlns:dc="http://purl.org/dc/elements/1.1/"
   xmlns:cc="http://creativecommons.org/ns#"
   xmlns:rdf="http://www.w3.org/1999/02/22-rdf-syntax-ns#"
   xmlns:svg="http://www.w3.org/2000/svg"
   xmlns="http://www.w3.org/2000/svg"
   xmlns:sodipodi="http://sodipodi.sourceforge.net/DTD/sodipodi-0.dtd"
   xmlns:inkscape="http://www.inkscape.org/namespaces/inkscape"
   width="1000"
   height="1000"
   id="svg4152"
   version="1.1"
   inkscape:version="0.91 r13725"
   viewBox="0 0 1000 1000"
   sodipodi:docname="electronegativity.svg">
  <defs
     id="defs5498">
    <marker
       inkscape:isstock="true"
       style="overflow:visible"
       id="marker4233"
       refX="0.0"
       refY="0.0"
       orient="auto"
       inkscape:stockid="TriangleOutL">
      <path
         transform="scale(0.8)"
         style="fill-rule:evenodd;stroke:#000000;stroke-width:1pt;stroke-opacity:1;fill:#000000;fill-opacity:1"
         d="M 5.77,0.0 L -2.88,5.0 L -2.88,-5.0 L 5.77,0.0 z "
         id="path4235" />
    </marker>
    <marker
       inkscape:isstock="true"
       style="overflow:visible"
       id="marker4755"
       refX="0.0"
       refY="0.0"
       orient="auto"
       inkscape:stockid="TriangleOutL">
      <path
         transform="scale(0.8)"
         style="fill-rule:evenodd;stroke:#000000;stroke-width:1pt;stroke-opacity:1;fill:#000000;fill-opacity:1"
         d="M 5.77,0.0 L -2.88,5.0 L -2.88,-5.0 L 5.77,0.0 z "
         id="path4757" />
    </marker>
    <marker
       inkscape:stockid="Arrow1Lend"
       orient="auto"
       refY="0.0"
       refX="0.0"
       id="Arrow1Lend"
       style="overflow:visible;"
       inkscape:isstock="true">
      <path
         id="path4164"
         d="M 0.0,0.0 L 5.0,-5.0 L -12.5,0.0 L 5.0,5.0 L 0.0,0.0 z "
         style="fill-rule:evenodd;stroke:#000000;stroke-width:1pt;stroke-opacity:1;fill:#000000;fill-opacity:1"
         transform="scale(0.8) rotate(180) translate(12.5,0)" />
    </marker>
    <marker
       inkscape:stockid="Arrow2Lend"
       orient="auto"
       refY="0.0"
       refX="0.0"
       id="Arrow2Lend"
       style="overflow:visible;"
       inkscape:isstock="true">
      <path
         id="path4182"
         style="fill-rule:evenodd;stroke-width:0.625;stroke-linejoin:round;stroke:#000000;stroke-opacity:1;fill:#000000;fill-opacity:1"
         d="M 8.7185878,4.0337352 L -2.2072895,0.016013256 L 8.7185884,-4.0017078 C 6.9730900,-1.6296469 6.9831476,1.6157441 8.7185878,4.0337352 z "
         transform="scale(1.1) rotate(180) translate(1,0)" />
    </marker>
    <pattern
       y="0"
       x="0"
       height="6"
       width="6"
       patternUnits="userSpaceOnUse"
       id="EMFhbasepattern" />
  </defs>
  <sodipodi:namedview
     inkscape:window-height="838"
     inkscape:window-width="1440"
     inkscape:pageshadow="2"
     inkscape:pageopacity="0.0"
     borderopacity="1.0"
     bordercolor="#666666"
     pagecolor="#ffffff"
     id="base"
     showgrid="true"
     showguides="true"
     inkscape:guide-bbox="true"
     inkscape:zoom="0.5"
     inkscape:cx="357.82213"
     inkscape:cy="459.29481"
     inkscape:window-x="-8"
     inkscape:window-y="-8"
     inkscape:current-layer="svg4152"
     inkscape:window-maximized="1"
     objecttolerance="20">
    <sodipodi:guide
       orientation="horizontal"
       position="200"
       id="guide5596" />
    <inkscape:grid
       type="xygrid"
       id="grid3430"
       empspacing="50" />
    <sodipodi:guide
       position="550,1000"
       orientation="0,1"
       id="guide4169" />
  </sodipodi:namedview>
  <metadata
     id="metadata5594">
    <rdf:RDF>
      <cc:Work
         rdf:about="">
        <dc:format>image/svg+xml</dc:format>
        <dc:type
           rdf:resource="http://purl.org/dc/dcmitype/StillImage" />
        <dc:title></dc:title>
      </cc:Work>
    </rdf:RDF>
  </metadata>
  <path
     inkscape:connector-curvature="0"
     id="path10513"
     d="m 298.44468,111.26035 400.06912,0 c 50.14399,0 91.18235,41.03836 91.18235,91.18433 l 0,400.06912 c 0,50.14399 -41.03836,91.18235 -91.18235,91.18235 l -400.06912,0 c -50.14597,0 -91.18433,-41.03836 -91.18433,-91.18235 l 0,-400.06912 c 0,-50.14597 41.03836,-91.18433 91.18433,-91.18433 z"
     style="fill:none;stroke:#000000;stroke-width:22.52073669px;stroke-linecap:round;stroke-linejoin:round;stroke-miterlimit:4;stroke-dasharray:none;stroke-opacity:1" />
  <path
     inkscape:connector-curvature="0"
     id="path5102"
     d="m 586.24652,238.46795 c 0,4.78706 -0.15313,8.64776 -0.614,11.89093 -0.31084,3.08839 -0.92943,5.71358 -1.85395,7.56659 -0.77324,1.85303 -1.8538,3.24318 -2.93403,4.1697 -1.08102,0.92635 -2.31637,1.3903 -3.70775,1.3903 l -98.83223,0 0,81.38219 92.80999,0 c 1.39031,0 2.62519,0.30938 3.70605,1.23576 1.08102,0.77168 2.00936,2.00769 2.93418,3.86072 0.77324,1.85328 1.54267,4.47839 1.85379,7.56703 0.30624,3.08837 0.61859,6.94897 0.61859,11.73619 0,4.63295 -0.31082,8.49341 -0.61859,11.58192 -0.31082,3.24319 -1.08101,5.71361 -1.85379,7.72132 -0.92482,2.16199 -1.85394,3.55175 -2.93418,4.32384 -1.08101,0.92637 -2.3162,1.3903 -3.70605,1.3903 l -92.80999,0 0,112.57673 c 0,1.69821 -0.46241,3.24079 -1.54434,4.47681 -0.92636,1.23561 -2.62519,2.31614 -4.9414,3.24531 -2.47101,0.76862 -5.55937,1.38723 -9.57441,1.85382 -3.86054,0.6186 -8.8024,0.76863 -14.82512,0.76863 -5.86821,0 -10.96395,-0.15308 -14.82465,-0.76863 -4.01534,-0.46699 -7.25806,-1.08413 -9.57473,-1.85382 -2.31619,-0.92944 -4.01487,-2.00956 -4.9414,-3.24531 -1.08099,-1.23561 -1.54433,-2.7786 -1.54433,-4.47681 l 0,-274.2605 c 0,-6.79487 1.69868,-11.73627 5.25038,-14.82466 3.55202,-2.93417 7.87588,-4.47866 12.97209,-4.47866 l 142.38014,0 c 1.39185,0 2.62734,0.30929 3.70775,1.23565 1.081,0.92635 2.16063,2.16201 2.93403,4.16968 0.92482,2.00768 1.54279,4.63287 1.85395,7.87558 0.4624,3.24319 0.614,7.25807 0.614,11.89093 z"
     style="fill:#000000;fill-opacity:1;fill-rule:nonzero;stroke:none" />
  <path
     inkscape:connector-curvature="0"
     id="path5104"
     d="m 354.45939,215.98553 c 0,5.29996 -0.28549,10.88669 -0.85931,16.61673 -0.57239,5.58673 -1.57584,11.17331 -3.00797,16.61644 -1.57572,5.44356 -3.72468,10.60034 -6.30299,15.47065 -2.72179,4.87032 -6.15942,9.16796 -10.31388,12.89222 -4.1539,3.72461 -9.31082,6.58941 -15.3272,8.73801 -6.01638,2.14897 -13.03565,3.15152 -21.34401,3.15152 -2.86481,0 -5.72976,-0.14336 -8.59456,-0.57234 -2.86523,-0.42897 -5.44356,-0.85931 -7.73554,-1.43264 -2.43516,-0.71595 -4.44066,-1.28978 -6.01638,-2.00548 -1.71889,-0.57235 -2.86494,-1.28966 -3.58122,-2.00549 -0.71585,-0.71583 -1.28967,-1.71888 -1.57571,-3.1514 -0.43037,-1.28966 -0.57239,-3.15157 -0.57239,-5.58673 0,-2.29155 0,-4.01086 0.14344,-5.29996 0.14345,-1.43268 0.2869,-2.43516 0.57381,-3.15142 0.28691,-0.71585 0.71585,-1.28966 1.14621,-1.43269 0.43036,-0.2869 1.00276,-0.43036 1.57572,-0.43036 0.85931,0 1.86234,0.28691 3.43819,0.71585 1.43255,0.43036 3.29446,1.00276 5.44341,1.57571 2.00552,0.71584 4.44067,1.14621 7.16246,1.71889 2.72134,0.43036 5.58657,0.71584 8.88117,0.71584 5.72975,0 10.45689,-1.14621 14.32473,-3.15144 3.86742,-2.00549 7.16231,-4.72727 9.59746,-8.16489 2.29212,-3.2946 4.15404,-7.30546 5.3001,-11.88959 1.14621,-4.44066 1.71875,-9.16781 1.86234,-14.18128 -3.0084,2.00551 -6.87582,3.72423 -11.17331,5.1565 -4.44053,1.43269 -9.31126,2.14897 -15.04101,2.14897 -6.87582,0 -12.74902,-1.00276 -17.61934,-2.72178 -4.87031,-1.86219 -8.73801,-4.44037 -11.7464,-7.87844 -3.00799,-3.43776 -5.29997,-7.59209 -6.58921,-12.46239 -1.43253,-5.01377 -2.14852,-10.45689 -2.14852,-16.7599 0,-6.44602 1.00275,-12.4624 3.00797,-17.90595 1.86234,-5.44357 4.72728,-10.17027 8.59499,-14.18114 3.86741,-4.0113 8.5947,-7.16244 14.32473,-9.31141 5.72976,-2.29198 12.31896,-3.29459 19.91104,-3.29459 6.01665,0 11.31676,0.57239 15.90045,2.00549 4.44053,1.4327 8.30836,3.43807 11.60296,6.01639 3.29488,2.72177 6.01666,5.8732 8.16519,9.59745 2.14868,3.72424 3.86784,7.87871 5.15693,12.4624 1.28967,4.58412 2.14853,9.45442 2.57833,14.75439 0.57381,5.30053 0.8593,10.88712 0.8593,16.61687 z m -26.3575,-3.58121 c 0,-7.16231 -0.43036,-13.17868 -1.1462,-18.04899 -0.85931,-4.87031 -2.14896,-8.73815 -3.72467,-11.60296 -1.57572,-2.86524 -3.58108,-4.87075 -6.01624,-6.15984 -2.43516,-1.14619 -5.30011,-1.8619 -8.45153,-1.8619 -3.15143,0 -5.87321,0.71583 -8.16534,1.71874 -2.29155,1.1462 -4.15404,2.72178 -5.72974,4.72728 -1.43256,2.00538 -2.5782,4.44053 -3.43807,7.16229 -0.71583,2.72136 -1.00273,5.72977 -1.00273,9.02436 0,3.58122 0.2869,6.73265 0.85928,9.45442 0.71586,2.72179 1.71875,5.01377 3.15144,6.73265 1.28966,1.86234 3.15142,3.15143 5.29996,4.01087 2.29213,0.8593 4.87031,1.28966 8.02187,1.28966 4.01088,0 7.59196,-0.57239 11.17318,-1.71873 3.43804,-1.14621 6.44644,-2.72179 9.16781,-4.72728 z"
     style="fill:#000000;fill-opacity:1;fill-rule:nonzero;stroke:none" />
  <path
     inkscape:connector-curvature="0"
     id="path5106"
     d="m 447.5701,623.23489 c 0,3.86834 -0.71583,7.30747 -2.14853,10.1735 -1.43269,3.00644 -3.43819,5.44362 -6.0168,7.44786 -2.72135,2.00425 -5.72975,3.57964 -9.454,4.5817 -3.58122,1.14617 -7.59209,1.57935 -11.88959,1.57935 -2.5786,0 -5.01376,-0.14485 -7.30546,-0.43318 -2.29198,-0.42897 -4.2975,-0.85783 -6.01637,-1.43116 -1.86234,-0.5737 -3.29488,-1.14617 -4.44095,-1.7195 -1.14621,-0.57382 -1.86191,-1.14629 -2.29171,-1.43105 -0.2869,-0.28833 -0.57381,-0.57382 -0.71583,-1.00267 -0.14345,-0.43331 -0.28691,-0.86217 -0.43037,-1.43513 -0.14345,-0.57382 -0.2869,-1.14628 -0.43036,-2.00424 0,-0.85796 0,-1.71962 0,-2.86616 0,-2.00412 0.14346,-3.29477 0.43036,-4.00837 0.28692,-0.71732 0.8593,-1.14629 1.43226,-1.14629 0.42895,0 1.14621,0.28413 2.00552,0.85796 1.00275,0.57382 2.29198,1.14616 3.72467,1.71962 1.57571,0.57382 3.29459,1.14616 5.29995,1.71975 2.00551,0.57369 4.29749,0.85782 6.87581,0.85782 2.14898,0 4.15434,-0.28413 5.73005,-0.85782 1.71889,-0.42899 3.15156,-1.14629 4.29721,-2.14861 1.14621,-0.86215 2.00536,-2.00437 2.57861,-3.29501 0.57239,-1.43104 0.8593,-2.86604 0.8593,-4.44144 0,-1.85988 -0.43036,-3.43924 -1.00276,-4.87028 -0.71585,-1.43103 -1.7193,-2.57745 -3.15142,-3.57964 -1.28967,-1.00267 -3.00841,-1.86385 -5.15694,-2.29283 -2.0055,-0.57382 -4.44066,-0.86215 -7.3059,-0.86215 l -6.58919,0 c -0.57382,0 -1.00275,-0.14201 -1.28966,-0.28401 -0.43036,-0.14498 -0.71584,-0.42898 -1.00275,-0.85796 -0.14345,-0.43318 -0.2869,-1.00552 -0.43036,-1.7195 -0.14345,-0.86215 -0.14345,-1.8641 -0.14345,-3.01038 0,-1.14629 0,-2.14861 0.14345,-2.86221 0.14346,-0.71719 0.28691,-1.29102 0.43036,-1.7195 0.28691,-0.28833 0.57382,-0.57382 0.8593,-0.71731 0.2869,-0.28413 0.71584,-0.28413 1.14621,-0.28413 l 6.73264,0 c 2.29213,0 4.29749,-0.28821 6.15955,-0.86204 1.71916,-0.42897 3.29488,-1.28681 4.44095,-2.29282 1.1462,-0.85796 2.14852,-2.14861 2.72135,-3.57977 0.71584,-1.29101 1.00276,-2.86603 1.00276,-4.58565 0,-1.28681 -0.28692,-2.57746 -0.71585,-3.72375 -0.43036,-1.14629 -1.00276,-2.1486 -1.86235,-3.00643 -0.8593,-0.86217 -2.0055,-1.57528 -3.29459,-2.00425 -1.28967,-0.43318 -2.86481,-0.71732 -4.72714,-0.71732 -2.14854,0 -4.01086,0.28414 -5.87293,0.85796 -1.71916,0.71719 -3.43804,1.29102 -4.87074,2.00821 -1.43211,0.71298 -2.57818,1.43103 -3.58107,2.14847 -1.00276,0.57383 -1.86191,0.85796 -2.2917,0.85796 -0.2869,0 -0.57382,0 -0.8593,-0.14497 -0.14346,-0.14201 -0.43036,-0.42886 -0.57381,-0.85783 -0.14346,-0.42899 -0.28691,-1.00281 -0.28691,-1.71962 -0.14345,-0.71719 -0.14345,-1.71963 -0.14345,-2.86604 0,-1.0028 0,-1.8599 0,-2.43323 0.14345,-0.71719 0.14345,-1.29101 0.2869,-1.71962 0.14346,-0.42886 0.28691,-0.71719 0.43036,-1.00268 0.14345,-0.42898 0.43036,-0.71731 0.85931,-1.14617 0.42894,-0.28413 1.1462,-0.85796 2.43515,-1.57552 1.28965,-0.86215 2.72176,-1.57526 4.58411,-2.29282 1.86191,-0.71719 4.01087,-1.28681 6.44602,-1.71962 2.43516,-0.5737 5.01349,-0.85784 7.87829,-0.85784 3.72467,0 7.01927,0.42898 9.88423,1.43104 2.8648,0.86204 5.30038,2.00833 7.30575,3.72387 1.86204,1.57539 3.43776,3.58373 4.44066,6.0167 0.85929,2.43731 1.43226,5.01464 1.43226,8.02107 0,2.43706 -0.28691,4.58566 -0.85931,6.58991 -0.57238,2.00832 -1.43225,3.86822 -2.57831,5.44348 -1.14622,1.57552 -2.57862,2.86617 -4.2975,4.01257 -1.71874,1.00281 -3.72425,1.8599 -6.01637,2.43323 l 0,0.14485 c 2.72177,0.28833 5.15693,1.00281 7.30546,2.00425 2.14895,1.14617 3.86785,2.43718 5.30009,4.01245 1.57572,1.57526 2.72179,3.29501 3.43807,5.29926 0.8593,2.00821 1.1462,4.15668 1.1462,6.44555 z m 30.22519,13.89749 c 0,3.72387 -0.57381,6.15697 -1.86233,7.44787 -1.28965,1.29101 -3.58122,1.86385 -6.87581,1.86385 -3.29459,0 -5.58659,-0.57383 -6.87569,-1.86385 -1.28965,-1.14629 -2.00549,-3.57977 -2.00549,-7.01889 0,-3.72399 0.71584,-6.16118 2.00549,-7.44774 1.28967,-1.29114 3.5811,-1.8641 7.01886,-1.8641 3.15142,0 5.44341,0.57383 6.73264,1.8641 1.28966,1.14617 1.86233,3.57952 1.86233,7.01876 z m 64.3178,-33.2344 c 0,3.15066 -0.2869,6.30145 -0.57239,9.74056 -0.2869,3.29503 -0.8593,6.59004 -1.71931,9.7407 -1.00276,3.15066 -2.14852,6.3054 -3.72424,9.16748 -1.57571,2.86592 -3.58122,5.29914 -6.01637,7.45182 -2.43517,2.14848 -5.44357,3.86415 -9.02465,5.15478 -3.58122,1.29102 -7.73525,1.86398 -12.60557,1.86398 -1.5757,0 -3.29502,0 -5.01376,-0.28833 -1.71888,-0.28401 -3.15156,-0.57382 -4.58369,-0.85784 -1.43269,-0.43318 -2.57874,-0.71731 -3.43819,-1.14616 -1.00275,-0.42899 -1.71874,-0.86217 -2.14854,-1.29114 -0.43036,-0.28401 -0.71584,-1.00132 -1.00274,-1.71975 -0.14345,-0.85783 -0.28692,-1.8599 -0.28692,-3.29489 0,-1.28681 0,-2.4331 0.14347,-3.15066 0,-0.85796 0.14345,-1.43104 0.2869,-1.85989 0.28691,-0.43331 0.43036,-0.71732 0.71584,-0.86217 0.2869,-0.142 0.57382,-0.28412 0.8593,-0.28412 0.57381,0 1.1462,0.14484 2.00551,0.42897 0.8593,0.28401 2.00536,0.71732 3.15143,1.00133 1.28964,0.28833 2.72178,0.7173 4.29749,1.0028 1.57571,0.28833 3.2946,0.42886 5.3001,0.42886 3.29488,0 6.01624,-0.713 8.30837,-1.8599 2.29197,-1.14617 4.15432,-2.72181 5.58658,-4.72594 1.43268,-2.0082 2.57875,-4.44143 3.15143,-7.01887 0.71584,-2.72181 1.14621,-5.44362 1.14621,-8.30966 -1.86235,1.00281 -4.01087,2.14848 -6.58949,2.86604 -2.57832,0.85796 -5.44313,1.28681 -8.73814,1.28681 -4.1539,0 -7.59209,-0.42885 -10.45691,-1.57527 -2.8648,-1.00268 -5.15692,-2.57746 -6.87582,-4.5817 -1.86232,-2.00833 -3.15142,-4.44143 -3.8677,-7.30747 -0.8593,-3.00643 -1.28966,-6.16105 -1.28966,-9.88491 0,-3.724 0.57381,-7.30351 1.71875,-10.45418 1.14621,-3.29501 2.86537,-6.01683 5.15694,-8.454 2.29212,-2.29283 5.0139,-4.15273 8.45194,-5.44337 3.2946,-1.28681 7.16188,-2.00437 11.60296,-2.00437 3.58122,0 6.73266,0.42897 9.31084,1.29114 2.72178,0.85783 5.01391,2.00437 6.87582,3.57963 1.86232,1.57528 3.58122,3.43925 4.87031,5.58785 1.1462,2.14847 2.29213,4.5817 3.0084,7.30351 0.71585,2.72156 1.14621,5.58772 1.43255,8.73838 0.28548,3.15079 0.57238,6.30133 0.57238,9.74069 z m -15.47079,-2.14859 c 0,-4.15274 -0.28692,-7.73633 -0.71586,-10.59828 -0.57239,-2.86617 -1.28965,-5.15899 -2.14853,-6.73438 -1.00274,-1.71963 -2.14853,-3.00632 -3.58122,-3.72388 -1.43268,-0.71719 -3.15143,-1.00267 -5.01375,-1.00267 -1.86206,0 -3.43778,0.284 -4.72686,1.00267 -1.4327,0.57383 -2.43517,1.57528 -3.43806,2.72181 -0.8593,1.14617 -1.43269,2.57746 -2.00551,4.15272 -0.2869,1.71963 -0.57239,3.43937 -0.57239,5.44363 0,2.00424 0.14345,3.86809 0.57239,5.44348 0.43036,1.57539 1.00276,3.01027 1.71888,4.01246 0.85931,1.00279 1.86234,1.86001 3.15143,2.28887 1.4327,0.57382 3.00841,0.86215 4.87032,0.86215 2.14896,0 4.44109,-0.42897 6.44644,-1.14616 2.00551,-0.57383 3.86742,-1.57527 5.44313,-2.72181 z m 77.9254,23.3496 c 0,3.57951 -0.57381,6.5899 -1.85992,9.31158 -1.14621,2.72181 -3.01039,5.01464 -5.30323,7.01889 -2.43317,1.85989 -5.29925,3.29502 -8.73461,4.15272 -3.43917,1.0028 -7.45175,1.43512 -12.03417,1.43512 -4.29748,0 -8.16534,-0.43318 -11.45993,-1.29101 -3.29459,-0.85796 -6.01637,-2.1486 -8.16534,-3.72399 -2.29155,-1.71962 -3.86726,-3.8681 -5.01333,-6.30528 -1.1462,-2.43311 -1.71931,-5.29927 -1.71931,-8.44993 0,-2.1486 0.43036,-4.29708 1.00275,-6.16105 0.71586,-1.8599 1.57587,-3.72386 3.0084,-5.29926 1.14622,-1.7195 2.86495,-3.15067 4.72686,-4.5817 1.86234,-1.435 4.15433,-2.86604 6.58948,-4.15668 -2.00535,-1.14618 -3.8677,-2.29296 -5.44341,-3.57964 -1.57585,-1.29114 -3.00798,-2.72181 -4.15403,-4.15273 -1.14622,-1.57947 -2.00552,-3.29514 -2.57863,-5.01463 -0.57238,-1.86398 -0.85928,-3.86834 -0.85928,-6.01683 0,-3.01038 0.43035,-5.87234 1.57571,-8.30952 1.1462,-2.57745 2.72176,-4.72606 4.87031,-6.59003 2.14895,-1.85989 4.87059,-3.15054 8.02174,-4.15273 3.29502,-1.0028 7.01926,-1.57526 11.31676,-1.57526 4.15432,0 7.87829,0.57369 10.88867,1.43092 3.00627,0.86215 5.43944,2.14847 7.44779,3.86822 1.85992,1.57539 3.29488,3.58359 4.29706,5.87234 0.85789,2.29295 1.28682,4.8704 1.28682,7.73644 0,1.86385 -0.28406,3.57952 -0.85787,5.44361 -0.57381,1.71951 -1.43099,3.43913 -2.57749,5.01452 -1.1462,1.5754 -2.43714,3.00631 -4.15673,4.44142 -1.57542,1.43105 -3.43534,2.57746 -5.43958,3.86415 2.43316,1.14617 4.58171,2.58141 6.4456,4.01258 1.86008,1.43103 3.43535,2.86603 4.87031,4.58566 1.28683,1.57526 2.28886,3.29501 2.86211,5.15502 0.71727,1.86385 1.14621,3.8681 1.14621,6.01658 z m -17.18841,-37.10263 c 0,-1.43116 -0.28832,-2.57745 -0.5738,-3.72399 -0.42895,-1.14616 -1.00276,-2.00424 -1.86391,-2.86196 -0.85788,-0.71718 -2.00438,-1.29101 -3.15071,-1.71974 -1.28825,-0.43318 -2.72064,-0.57383 -4.43981,-0.57383 -3.29461,0 -5.72977,0.71311 -7.44864,2.29296 -1.57572,1.43104 -2.43515,3.57963 -2.43515,6.30132 0,1.29114 0.28549,2.43323 0.71583,3.43924 0.43036,1.14197 1.00276,2.14872 1.86235,3.00643 0.85929,1.00269 2.0055,1.86386 3.43819,2.86604 1.28966,0.85796 3.00798,1.8599 4.87031,2.86209 2.86368,-1.71555 5.1565,-3.57965 6.5875,-5.4435 1.5794,-2.00425 2.43713,-4.15272 2.43713,-6.44567 z m 1.7196,38.24892 c 0,-1.43092 -0.28833,-2.86604 -0.71727,-4.01246 -0.42894,-1.14616 -1.29108,-2.29282 -2.29283,-3.43529 -1.00276,-1.00564 -2.43317,-2.00819 -4.00846,-3.01038 -1.57699,-1.00281 -3.29588,-2.00425 -5.44441,-3.00631 -1.86234,1.00281 -3.43806,1.85989 -4.87059,2.86196 -1.28967,1.00564 -2.43517,2.00833 -3.43777,3.15473 -0.8593,1.14197 -1.57572,2.28888 -2.00536,3.43529 -0.43037,1.1463 -0.57382,2.43718 -0.57382,3.86823 0,3.15066 0.8593,5.44349 2.8648,7.01875 2.00551,1.71975 5.01377,2.43719 9.02464,2.43719 3.86869,0 6.73066,-0.86216 8.5947,-2.43719 1.8639,-1.71962 2.86608,-4.00837 2.86608,-6.87452 z"
     style="fill:#000000;fill-opacity:1;fill-rule:nonzero;stroke:none" />
</svg>
