<?xml version="1.0" encoding="UTF-8" standalone="no"?>
<!-- Created with Inkscape (http://www.inkscape.org/) -->

<svg
   xmlns:dc="http://purl.org/dc/elements/1.1/"
   xmlns:cc="http://creativecommons.org/ns#"
   xmlns:rdf="http://www.w3.org/1999/02/22-rdf-syntax-ns#"
   xmlns:svg="http://www.w3.org/2000/svg"
   xmlns="http://www.w3.org/2000/svg"
   xmlns:sodipodi="http://sodipodi.sourceforge.net/DTD/sodipodi-0.dtd"
   xmlns:inkscape="http://www.inkscape.org/namespaces/inkscape"
   width="1000"
   height="1000"
   id="svg4152"
   version="1.1"
   inkscape:version="0.91 r13725"
   viewBox="0 0 1000 1000"
   sodipodi:docname="nature-2.svg">
  <defs
     id="defs5498">
    <marker
       inkscape:isstock="true"
       style="overflow:visible"
       id="marker4233"
       refX="0.0"
       refY="0.0"
       orient="auto"
       inkscape:stockid="TriangleOutL">
      <path
         transform="scale(0.8)"
         style="fill-rule:evenodd;stroke:#000000;stroke-width:1pt;stroke-opacity:1;fill:#000000;fill-opacity:1"
         d="M 5.77,0.0 L -2.88,5.0 L -2.88,-5.0 L 5.77,0.0 z "
         id="path4235" />
    </marker>
    <marker
       inkscape:isstock="true"
       style="overflow:visible"
       id="marker4755"
       refX="0.0"
       refY="0.0"
       orient="auto"
       inkscape:stockid="TriangleOutL">
      <path
         transform="scale(0.8)"
         style="fill-rule:evenodd;stroke:#000000;stroke-width:1pt;stroke-opacity:1;fill:#000000;fill-opacity:1"
         d="M 5.77,0.0 L -2.88,5.0 L -2.88,-5.0 L 5.77,0.0 z "
         id="path4757" />
    </marker>
    <marker
       inkscape:stockid="Arrow1Lend"
       orient="auto"
       refY="0.0"
       refX="0.0"
       id="Arrow1Lend"
       style="overflow:visible;"
       inkscape:isstock="true">
      <path
         id="path4164"
         d="M 0.0,0.0 L 5.0,-5.0 L -12.5,0.0 L 5.0,5.0 L 0.0,0.0 z "
         style="fill-rule:evenodd;stroke:#000000;stroke-width:1pt;stroke-opacity:1;fill:#000000;fill-opacity:1"
         transform="scale(0.8) rotate(180) translate(12.5,0)" />
    </marker>
    <marker
       inkscape:stockid="Arrow2Lend"
       orient="auto"
       refY="0.0"
       refX="0.0"
       id="Arrow2Lend"
       style="overflow:visible;"
       inkscape:isstock="true">
      <path
         id="path4182"
         style="fill-rule:evenodd;stroke-width:0.625;stroke-linejoin:round;stroke:#000000;stroke-opacity:1;fill:#000000;fill-opacity:1"
         d="M 8.7185878,4.0337352 L -2.2072895,0.016013256 L 8.7185884,-4.0017078 C 6.9730900,-1.6296469 6.9831476,1.6157441 8.7185878,4.0337352 z "
         transform="scale(1.1) rotate(180) translate(1,0)" />
    </marker>
    <pattern
       y="0"
       x="0"
       height="6"
       width="6"
       patternUnits="userSpaceOnUse"
       id="EMFhbasepattern" />
  </defs>
  <sodipodi:namedview
     inkscape:window-height="838"
     inkscape:window-width="1440"
     inkscape:pageshadow="2"
     inkscape:pageopacity="0.0"
     borderopacity="1.0"
     bordercolor="#666666"
     pagecolor="#ffffff"
     id="base"
     showgrid="true"
     showguides="true"
     inkscape:guide-bbox="true"
     inkscape:zoom="0.5"
     inkscape:cx="357.82213"
     inkscape:cy="459.29481"
     inkscape:window-x="-8"
     inkscape:window-y="-8"
     inkscape:current-layer="svg4152"
     inkscape:window-maximized="1"
     objecttolerance="20">
    <sodipodi:guide
       orientation="horizontal"
       position="200"
       id="guide5596" />
    <inkscape:grid
       type="xygrid"
       id="grid3430"
       empspacing="50" />
    <sodipodi:guide
       position="550,1000"
       orientation="0,1"
       id="guide4169" />
  </sodipodi:namedview>
  <metadata
     id="metadata5594">
    <rdf:RDF>
      <cc:Work
         rdf:about="">
        <dc:format>image/svg+xml</dc:format>
        <dc:type
           rdf:resource="http://purl.org/dc/dcmitype/StillImage" />
        <dc:title></dc:title>
      </cc:Work>
    </rdf:RDF>
  </metadata>
  <path
     inkscape:connector-curvature="0"
     id="path9684"
     d="m 308.04131,122.55438 383.76019,0 c 48.14949,0 87.48562,39.05473 87.48562,86.86062 l 0,381.01281 c 0,47.80472 -39.33613,86.85932 -87.48562,86.85932 l -383.76019,0 c -48.1506,0 -87.48692,-39.0546 -87.48692,-86.85932 l 0,-381.01281 c 0,-47.80589 39.33632,-86.86062 87.48692,-86.86062 z"
     style="fill:none;stroke:#000000;stroke-width:34;stroke-linecap:round;stroke-linejoin:round;stroke-miterlimit:4;stroke-dasharray:none;stroke-opacity:1" />
  <path
     inkscape:connector-curvature="0"
     id="path9686"
     d="m 650.75349,396.72061 c 0,24.42585 -3.15866,47.02261 -9.73371,67.39892 -6.31734,20.63623 -16.05106,38.27209 -28.94345,53.16284 -12.76354,14.88712 -28.94343,26.51395 -48.28312,34.7415 -19.33932,8.35914 -41.7044,12.54065 -67.22707,12.54065 -24.73298,0 -46.44056,-3.78676 -64.85878,-10.97266 -18.41823,-7.31373 -33.81067,-18.0231 -46.04593,-32.00015 -12.23488,-13.97705 -21.44399,-30.95849 -27.4959,-50.94122 -6.05155,-19.85399 -9.07769,-42.5813 -9.07769,-67.92123 0,-24.42546 3.289,-46.89181 9.47234,-67.26811 6.44655,-20.63766 16.05031,-38.40174 28.94307,-53.2921 12.76133,-14.75968 28.94308,-26.25414 48.15097,-34.48274 19.20752,-8.22911 41.57261,-12.40906 67.22669,-12.40906 24.86478,0 46.44057,3.65764 64.99058,11.10269 18.41639,7.18408 33.81215,17.89449 46.04557,31.87077 12.36593,13.97602 21.57688,31.08684 27.75801,50.94082 6.18482,19.98454 9.07842,42.4505 9.07842,67.52908 z m -58.28081,3.65725 c 0,-16.0658 -1.57933,-31.47861 -4.47294,-45.84665 -3.02613,-14.49834 -8.02552,-27.03782 -14.866,-38.00958 -7.10406,-10.84134 -16.44497,-19.46222 -28.15378,-25.7317 -11.97165,-6.40016 -26.70659,-9.53509 -44.33552,-9.53509 -16.44496,0 -30.39025,2.87371 -42.09906,8.75142 -11.7088,5.61637 -21.44398,13.84535 -28.94307,24.42546 -7.76194,10.57999 -13.28741,22.98854 -16.97105,37.48713 -3.68365,14.36818 -5.52546,30.04221 -5.52546,47.28357 0,16.32729 1.57858,31.73997 4.47294,46.23855 3.02577,14.36818 8.02516,27.03821 15.12922,37.61885 6.97265,10.84095 16.44498,19.3318 28.28557,25.73183 11.84024,6.40003 26.57481,9.40442 44.20374,9.40442 16.18174,0 30.12702,-2.87281 41.96763,-8.6223 11.84023,-5.74575 21.57578,-13.84548 29.20629,-24.29531 7.62978,-10.31759 13.28814,-22.85707 16.84073,-37.22474 3.42005,-14.49858 5.26076,-30.30355 5.26076,-47.67586 z"
     style="fill:#000000;fill-opacity:1;fill-rule:nonzero;stroke:none" />
  <path
     inkscape:connector-curvature="0"
     id="path9688"
     d="m 709.8258,604.40123 c 0,0.91694 -0.13253,1.83116 -0.26506,2.48169 -0.13253,0.78613 -0.26141,1.30857 -0.52647,1.83127 -0.26142,0.52323 -0.52648,0.91436 -0.92029,1.17337 -0.39394,0.13211 -0.92042,0.26291 -1.31427,0.26291 l -56.44009,0 c -0.79153,0 -1.31427,0 -1.97324,-0.26291 -0.52648,-0.12951 -1.05295,-0.52322 -1.44682,-0.91434 -0.26506,-0.39112 -0.659,-1.04515 -0.79154,-1.82753 -0.26141,-0.78613 -0.26141,-1.69969 -0.26141,-2.87293 0,-1.04515 0,-1.95911 0.13254,-2.74498 0,-0.78224 0.26141,-1.4364 0.39394,-2.09069 0.39394,-0.51934 0.65536,-1.17337 1.05295,-1.69594 0.39394,-0.65403 0.92042,-1.30483 1.57933,-1.95911 l 19.73249,-20.89979 c 4.60548,-4.83204 8.28692,-9.01342 11.05168,-12.93164 2.76107,-3.78663 4.86685,-7.18228 6.44619,-10.31825 1.4468,-3.26406 2.4997,-6.00904 2.8936,-8.61868 0.52648,-2.48181 0.78789,-4.96362 0.78789,-7.1859 0,-2.21864 -0.39394,-4.44092 -1.1817,-6.40003 -0.79153,-1.95924 -1.84441,-3.78676 -3.15868,-5.35474 -1.44679,-1.43641 -3.15867,-2.6134 -5.26077,-3.5271 -2.10578,-0.91434 -4.60548,-1.30495 -7.23771,-1.30495 -3.28751,0 -6.05227,0.39113 -8.68082,1.30495 -2.49968,0.91435 -4.73801,1.82753 -6.71126,2.8728 -1.84071,1.04516 -3.55257,2.0907 -4.86684,2.87294 -1.18548,0.91694 -2.23833,1.30845 -2.76476,1.30845 -0.39395,0 -0.78789,0 -1.04917,-0.26291 -0.26506,-0.25902 -0.52647,-0.52322 -0.65901,-1.04515 -0.26506,-0.39112 -0.39394,-1.04515 -0.52647,-1.82752 0,-0.78225 -0.13253,-1.69957 -0.13253,-2.87281 0,-0.78613 0,-1.43654 0.13253,-1.95924 0,-0.65403 0.13253,-1.17725 0.26141,-1.56798 0.13254,-0.39112 0.26506,-0.78225 0.52648,-1.17726 0.13253,-0.25902 0.659,-0.78224 1.18548,-1.30482 0.65901,-0.52322 1.71186,-1.30495 3.28751,-2.21864 1.57935,-0.91694 3.5526,-1.96274 5.91976,-2.87657 2.37084,-0.91434 4.87054,-1.56798 7.63161,-2.21864 2.89361,-0.65403 5.7909,-1.04515 8.94589,-1.04515 4.99939,0 9.3398,0.78224 13.02492,2.09069 3.68511,1.43653 6.71126,3.39564 9.21095,5.74587 2.36715,2.3501 4.20788,5.22666 5.52215,8.35913 1.18535,3.26756 1.71187,6.6632 1.71187,10.19029 0,3.26406 -0.26142,6.52799 -0.78776,9.66409 -0.65901,3.26393 -1.8444,6.6632 -3.68513,10.44983 -1.84071,3.78664 -4.60547,7.83656 -8.15805,12.40907 -3.42006,4.57251 -8.15437,9.92712 -13.94528,15.80457 l -16.31244,16.84987 44.46807,0 c 0.39394,0 0.92028,0.1321 1.31427,0.25902 0.39394,0.2629 0.659,0.65402 0.92028,1.04515 0.39759,0.52322 0.52647,1.17725 0.65901,1.82753 0.13253,0.65402 0.26506,1.56798 0.26506,2.4818 z"
     style="fill:none;stroke:#000000;stroke-width:19.66315651px;stroke-linecap:round;stroke-linejoin:round;stroke-miterlimit:4;stroke-dasharray:none;stroke-opacity:1" />
  <path
     inkscape:connector-curvature="0"
     id="path9690"
     d="m 709.8258,604.40123 c 0,0.91694 -0.13253,1.83116 -0.26506,2.48169 -0.13253,0.78613 -0.26141,1.30857 -0.52647,1.83127 -0.26142,0.52323 -0.52648,0.91436 -0.92029,1.17337 -0.39394,0.13211 -0.92042,0.26291 -1.31427,0.26291 l -56.44009,0 c -0.79153,0 -1.31427,0 -1.97324,-0.26291 -0.52648,-0.12951 -1.05295,-0.52322 -1.44682,-0.91434 -0.26506,-0.39112 -0.659,-1.04515 -0.79154,-1.82753 -0.26141,-0.78613 -0.26141,-1.69969 -0.26141,-2.87293 0,-1.04515 0,-1.95911 0.13254,-2.74498 0,-0.78224 0.26141,-1.4364 0.39394,-2.09069 0.39394,-0.51934 0.65536,-1.17337 1.05295,-1.69594 0.39394,-0.65403 0.92042,-1.30483 1.57933,-1.95911 l 19.73249,-20.89979 c 4.60548,-4.83204 8.28692,-9.01342 11.05168,-12.93164 2.76107,-3.78663 4.86685,-7.18228 6.44619,-10.31825 1.4468,-3.26406 2.4997,-6.00904 2.8936,-8.61868 0.52648,-2.48181 0.78789,-4.96362 0.78789,-7.1859 0,-2.21864 -0.39394,-4.44092 -1.1817,-6.40003 -0.79153,-1.95924 -1.84441,-3.78676 -3.15868,-5.35474 -1.44679,-1.43641 -3.15867,-2.6134 -5.26077,-3.5271 -2.10578,-0.91434 -4.60548,-1.30495 -7.23771,-1.30495 -3.28751,0 -6.05227,0.39113 -8.68082,1.30495 -2.49968,0.91435 -4.73801,1.82753 -6.71126,2.8728 -1.84071,1.04516 -3.55257,2.0907 -4.86684,2.87294 -1.18548,0.91694 -2.23833,1.30845 -2.76476,1.30845 -0.39395,0 -0.78789,0 -1.04917,-0.26291 -0.26506,-0.25902 -0.52647,-0.52322 -0.65901,-1.04515 -0.26506,-0.39112 -0.39394,-1.04515 -0.52647,-1.82752 0,-0.78225 -0.13253,-1.69957 -0.13253,-2.87281 0,-0.78613 0,-1.43654 0.13253,-1.95924 0,-0.65403 0.13253,-1.17725 0.26141,-1.56798 0.13254,-0.39112 0.26506,-0.78225 0.52648,-1.17726 0.13253,-0.25902 0.659,-0.78224 1.18548,-1.30482 0.65901,-0.52322 1.71186,-1.30495 3.28751,-2.21864 1.57935,-0.91694 3.5526,-1.96274 5.91976,-2.87657 2.37084,-0.91434 4.87054,-1.56798 7.63161,-2.21864 2.89361,-0.65403 5.7909,-1.04515 8.94589,-1.04515 4.99939,0 9.3398,0.78224 13.02492,2.09069 3.68511,1.43653 6.71126,3.39564 9.21095,5.74587 2.36715,2.3501 4.20788,5.22666 5.52215,8.35913 1.18535,3.26756 1.71187,6.6632 1.71187,10.19029 0,3.26406 -0.26142,6.52799 -0.78776,9.66409 -0.65901,3.26393 -1.8444,6.6632 -3.68513,10.44983 -1.84071,3.78664 -4.60547,7.83656 -8.15805,12.40907 -3.42006,4.57251 -8.15437,9.92712 -13.94528,15.80457 l -16.31244,16.84987 44.46807,0 c 0.39394,0 0.92028,0.1321 1.31427,0.25902 0.39394,0.2629 0.659,0.65402 0.92028,1.04515 0.39759,0.52322 0.52647,1.17725 0.65901,1.82753 0.13253,0.65402 0.26506,1.56798 0.26506,2.4818 z"
     style="fill:#000000;fill-opacity:1;fill-rule:nonzero;stroke:none" />
</svg>
