<?xml version="1.0" encoding="UTF-8" standalone="no"?>
<!-- Created with Inkscape (http://www.inkscape.org/) -->

<svg
   xmlns:dc="http://purl.org/dc/elements/1.1/"
   xmlns:cc="http://creativecommons.org/ns#"
   xmlns:rdf="http://www.w3.org/1999/02/22-rdf-syntax-ns#"
   xmlns:svg="http://www.w3.org/2000/svg"
   xmlns="http://www.w3.org/2000/svg"
   xmlns:sodipodi="http://sodipodi.sourceforge.net/DTD/sodipodi-0.dtd"
   xmlns:inkscape="http://www.inkscape.org/namespaces/inkscape"
   width="1000"
   height="1000"
   id="svg4152"
   version="1.1"
   inkscape:version="0.91 r13725"
   viewBox="0 0 1000 1000"
   sodipodi:docname="structures 3d.svg">
  <defs
     id="defs5498">
    <marker
       inkscape:isstock="true"
       style="overflow:visible"
       id="marker4233"
       refX="0.0"
       refY="0.0"
       orient="auto"
       inkscape:stockid="TriangleOutL">
      <path
         transform="scale(0.8)"
         style="fill-rule:evenodd;stroke:#000000;stroke-width:1pt;stroke-opacity:1;fill:#000000;fill-opacity:1"
         d="M 5.77,0.0 L -2.88,5.0 L -2.88,-5.0 L 5.77,0.0 z "
         id="path4235" />
    </marker>
    <marker
       inkscape:isstock="true"
       style="overflow:visible"
       id="marker4755"
       refX="0.0"
       refY="0.0"
       orient="auto"
       inkscape:stockid="TriangleOutL">
      <path
         transform="scale(0.8)"
         style="fill-rule:evenodd;stroke:#000000;stroke-width:1pt;stroke-opacity:1;fill:#000000;fill-opacity:1"
         d="M 5.77,0.0 L -2.88,5.0 L -2.88,-5.0 L 5.77,0.0 z "
         id="path4757" />
    </marker>
    <marker
       inkscape:stockid="Arrow1Lend"
       orient="auto"
       refY="0.0"
       refX="0.0"
       id="Arrow1Lend"
       style="overflow:visible;"
       inkscape:isstock="true">
      <path
         id="path4164"
         d="M 0.0,0.0 L 5.0,-5.0 L -12.5,0.0 L 5.0,5.0 L 0.0,0.0 z "
         style="fill-rule:evenodd;stroke:#000000;stroke-width:1pt;stroke-opacity:1;fill:#000000;fill-opacity:1"
         transform="scale(0.8) rotate(180) translate(12.5,0)" />
    </marker>
    <marker
       inkscape:stockid="Arrow2Lend"
       orient="auto"
       refY="0.0"
       refX="0.0"
       id="Arrow2Lend"
       style="overflow:visible;"
       inkscape:isstock="true">
      <path
         id="path4182"
         style="fill-rule:evenodd;stroke-width:0.625;stroke-linejoin:round;stroke:#000000;stroke-opacity:1;fill:#000000;fill-opacity:1"
         d="M 8.7185878,4.0337352 L -2.2072895,0.016013256 L 8.7185884,-4.0017078 C 6.9730900,-1.6296469 6.9831476,1.6157441 8.7185878,4.0337352 z "
         transform="scale(1.1) rotate(180) translate(1,0)" />
    </marker>
  </defs>
  <sodipodi:namedview
     inkscape:window-height="838"
     inkscape:window-width="1440"
     inkscape:pageshadow="2"
     inkscape:pageopacity="0.0"
     borderopacity="1.0"
     bordercolor="#666666"
     pagecolor="#ffffff"
     id="base"
     showgrid="true"
     showguides="true"
     inkscape:guide-bbox="true"
     inkscape:zoom="0.60316208"
     inkscape:cx="292.1903"
     inkscape:cy="522.23674"
     inkscape:window-x="-8"
     inkscape:window-y="-8"
     inkscape:current-layer="svg4152"
     inkscape:window-maximized="1"
     objecttolerance="20">
    <sodipodi:guide
       orientation="horizontal"
       position="200"
       id="guide5596" />
    <inkscape:grid
       type="xygrid"
       id="grid3430"
       empspacing="50" />
    <sodipodi:guide
       position="550,1000"
       orientation="0,1"
       id="guide4169" />
  </sodipodi:namedview>
  <metadata
     id="metadata5594">
    <rdf:RDF>
      <cc:Work
         rdf:about="">
        <dc:format>image/svg+xml</dc:format>
        <dc:type
           rdf:resource="http://purl.org/dc/dcmitype/StillImage" />
        <dc:title />
      </cc:Work>
    </rdf:RDF>
  </metadata>
  <path
     style="clip-rule:evenodd;fill-rule:evenodd;image-rendering:optimizeQuality;shape-rendering:geometricPrecision;text-rendering:geometricPrecision"
     id="path4197"
     d="m 411.81121,619.58022 c 0,29.01557 -4.79634,54.80698 -14.39037,77.37438 -9.59409,22.41475 -23.05168,41.29851 -40.24188,56.65127 -17.18872,15.19856 -37.70843,26.86613 -61.69296,34.8485 -23.98446,7.98407 -50.10081,11.82184 -78.48282,11.82184 -17.18872,0 -33.3123,-1.38156 -48.36914,-4.14461 -15.0569,-2.91731 -28.38207,-6.44827 -39.97415,-10.59284 -11.59208,-4.29886 -21.18618,-8.59768 -28.78081,-13.05082 -7.462206,-4.60568 -12.392441,-7.98238 -14.790582,-10.43866 -2.399615,-2.30367 -4.131289,-5.06674 -5.196491,-7.98406 -1.200533,-3.06989 -2.265735,-6.60085 -3.198512,-10.59285 -0.932778,-4.1446 -1.599256,-9.21136 -1.999436,-15.35283 -0.398723,-6.13978 -0.5326,-13.50854 -0.5326,-22.26049 0,-14.43068 1.066658,-24.40992 3.064637,-29.93602 2.13186,-5.52779 5.330372,-8.29091 9.4602,-8.29091 2.532033,0 7.063527,1.99518 13.459054,6.14148 6.3956,3.99203 14.52427,8.28921 24.38468,13.04912 9.85894,4.60565 21.45243,8.90452 34.77619,13.04913 13.19281,3.99203 28.38207,5.9872 45.30454,5.9872 14.25795,0 26.91671,-1.99517 37.84226,-5.83294 10.92703,-3.83776 20.2534,-9.36562 27.8495,-16.42747 7.72852,-7.06193 13.45765,-15.50541 17.18872,-25.63884 3.73114,-9.97755 5.72913,-21.18577 5.72913,-33.46702 0,-13.51016 -2.39814,-25.63884 -6.92817,-36.38595 -4.53002,-10.89969 -11.32577,-20.11105 -20.25339,-27.78658 -8.92763,-7.52296 -20.2548,-13.51017 -33.97877,-17.65478 -13.59148,-4.29887 -29.71359,-6.29573 -48.23525,-6.29573 l -43.70528,0 c -3.33093,0 -6.26317,-0.6134 -8.52742,-1.68833 -2.39962,-0.92046 -4.3976,-3.22416 -5.86297,-6.44831 -1.59926,-3.37673 -2.66592,-7.8298 -3.33239,-13.66274 -0.66503,-5.98721 -0.93278,-13.51017 -0.93278,-22.72153 0,-8.75025 0.26772,-15.81386 0.93278,-21.4926 0.66647,-5.52779 1.73313,-9.82667 3.06463,-12.74398 1.46684,-3.06989 3.3324,-5.06506 5.46425,-6.29405 2.26428,-1.22729 4.93019,-1.84259 7.99484,-1.84259 l 44.10397,0 c 15.19073,0 28.51596,-1.99517 40.24188,-5.98721 11.72591,-4.14461 21.58632,-9.82497 29.44727,-17.348 7.99484,-7.52296 13.99022,-16.58005 18.2554,-27.17297 4.12982,-10.74712 6.12928,-22.41475 6.12928,-35.31131 0,-9.97754 -1.33294,-19.34317 -4.26371,-28.09342 -2.79835,-8.90452 -7.06206,-16.58174 -12.6587,-23.02836 -5.5967,-6.44824 -12.79259,-11.515 -21.72022,-15.19857 -8.79373,-3.83946 -19.18672,-5.68036 -31.17895,-5.68036 -13.59148,0 -26.25024,2.30201 -38.24247,6.90766 -11.99224,4.75991 -22.65301,9.82497 -32.24563,15.35283 -9.46167,5.52616 -17.58894,10.74542 -24.11836,15.5054 -6.66185,4.75991 -11.59208,7.21619 -14.65669,7.21619 -2.131862,0 -3.997417,-0.61552 -5.464248,-1.53576 -1.5978,-1.07471 -2.930757,-3.06989 -3.997415,-6.14147 -0.932778,-2.91562 -1.731681,-7.36876 -2.264279,-13.04912 -0.532573,-5.68037 -0.800353,-13.04913 -0.800353,-21.95365 0,-7.52296 0.133893,-13.817 0.400149,-18.72949 0.266318,-4.91248 0.798903,-9.05878 1.599256,-12.43551 0.666479,-3.22415 1.731681,-6.14146 2.930757,-8.44349 1.066658,-2.45625 3.064638,-5.06674 5.596673,-7.98406 2.66591,-2.76307 7.99484,-7.06193 15.98968,-12.74229 8.12874,-5.68038 18.2554,-11.20653 30.51395,-16.58005 12.25855,-5.52614 26.25024,-9.97924 42.37229,-13.81701 15.98968,-3.68521 33.3123,-5.52614 52.10027,-5.52614 24.38468,0 46.10343,3.22246 65.02499,9.82497 18.78797,6.60085 34.64376,16.11902 47.56878,28.55453 12.92502,12.43552 22.653,27.78828 29.31485,45.90415 6.52942,18.11588 9.86041,38.5337 9.86041,61.40949 0,17.65477 -1.86557,34.08063 -5.86296,49.43346 -3.86496,15.35283 -9.59409,29.01557 -17.0563,40.99167 -7.59463,11.97441 -17.05483,22.10622 -28.3806,30.5497 -11.32723,8.4451 -24.38467,14.73915 -39.17526,18.88376 l 0,1.38156 c 17.58894,2.3037 33.57856,7.52296 47.56879,15.50702 14.12411,7.98238 25.98392,17.96162 35.71044,29.93602 9.72798,11.97441 17.32262,25.48465 22.51911,40.68314 5.19649,15.04599 7.72852,31.31927 7.72852,48.82147 z"
     class="fil0"
     inkscape:connector-curvature="0"
     sodipodi:nodetypes="ccccscccccccscscccscccscccsscccscccsscccscccscccsccsscccccccscscscccccccccc" />
  <path
     style="clip-rule:evenodd;fill-rule:evenodd;image-rendering:optimizeQuality;shape-rendering:geometricPrecision;text-rendering:geometricPrecision"
     id="path4197-7"
     d="m 920.94964,492.68725 c 0,54.94224 -6.12928,102.12388 -18.25393,141.23366 -12.12613,39.10831 -29.44875,71.09077 -52.10028,95.79185 -22.653,24.69927 -50.10082,42.90725 -82.48003,54.46668 -32.51194,11.55768 -71.0208,17.41605 -115.79233,17.41605 l -120.58873,0 c -8.66131,0 -15.85579,-3.00873 -21.71875,-9.02445 -5.86297,-6.01746 -8.7952,-15.83392 -8.7952,-29.45096 l 0,-523.29291 c 0,-13.61538 2.93224,-23.43351 8.7952,-29.4493 5.86296,-6.01746 13.05744,-9.02444 21.71875,-9.02444 l 129.51636,0 c 45.03821,0 83.28045,6.33216 114.59353,18.8409 31.31284,12.50873 57.82934,31.03317 79.28202,55.57507 21.45243,24.5419 37.84227,54.94222 49.03561,91.20063 11.19187,36.09959 16.78857,78.0574 16.78857,125.71628 z m -106.1983,4.11712 c 0,-28.50166 -2.79841,-54.78487 -8.39352,-79.32699 -5.59683,-24.3828 -14.65816,-45.59959 -27.05061,-63.49113 -12.25855,-17.8916 -28.11434,-31.98246 -47.56878,-41.95794 -19.32061,-10.13284 -44.77043,-15.201 -76.35081,-15.201 l -51.83249,0 0,408.34355 53.43174,0 c 28.11575,0 51.83396,-4.43357 71.02079,-12.9842 19.32061,-8.70806 35.31024,-21.84964 48.23525,-39.26568 12.92502,-17.41779 22.51911,-39.26743 28.9147,-65.23418 6.397,-25.96675 9.5941,-56.20798 9.5941,-90.88286 z"
     class="fil0"
     inkscape:connector-curvature="0"
     sodipodi:nodetypes="ccccsscsscsssscccccccsccsccccc" />
</svg>
