<?xml version="1.0" encoding="UTF-8" standalone="no"?>
<!-- Created with Inkscape (http://www.inkscape.org/) -->

<svg
   xmlns:dc="http://purl.org/dc/elements/1.1/"
   xmlns:cc="http://creativecommons.org/ns#"
   xmlns:rdf="http://www.w3.org/1999/02/22-rdf-syntax-ns#"
   xmlns:svg="http://www.w3.org/2000/svg"
   xmlns="http://www.w3.org/2000/svg"
   xmlns:sodipodi="http://sodipodi.sourceforge.net/DTD/sodipodi-0.dtd"
   xmlns:inkscape="http://www.inkscape.org/namespaces/inkscape"
   width="1000"
   height="1000"
   id="svg4152"
   version="1.1"
   inkscape:version="0.91 r13725"
   viewBox="0 0 1000 1000"
   sodipodi:docname="wikipedia.svg">
  <defs
     id="defs5498">
    <marker
       inkscape:isstock="true"
       style="overflow:visible"
       id="marker4233"
       refX="0.0"
       refY="0.0"
       orient="auto"
       inkscape:stockid="TriangleOutL">
      <path
         transform="scale(0.8)"
         style="fill-rule:evenodd;stroke:#000000;stroke-width:1pt;stroke-opacity:1;fill:#000000;fill-opacity:1"
         d="M 5.77,0.0 L -2.88,5.0 L -2.88,-5.0 L 5.77,0.0 z "
         id="path4235" />
    </marker>
    <marker
       inkscape:isstock="true"
       style="overflow:visible"
       id="marker4755"
       refX="0.0"
       refY="0.0"
       orient="auto"
       inkscape:stockid="TriangleOutL">
      <path
         transform="scale(0.8)"
         style="fill-rule:evenodd;stroke:#000000;stroke-width:1pt;stroke-opacity:1;fill:#000000;fill-opacity:1"
         d="M 5.77,0.0 L -2.88,5.0 L -2.88,-5.0 L 5.77,0.0 z "
         id="path4757" />
    </marker>
    <marker
       inkscape:stockid="Arrow1Lend"
       orient="auto"
       refY="0.0"
       refX="0.0"
       id="Arrow1Lend"
       style="overflow:visible;"
       inkscape:isstock="true">
      <path
         id="path4164"
         d="M 0.0,0.0 L 5.0,-5.0 L -12.5,0.0 L 5.0,5.0 L 0.0,0.0 z "
         style="fill-rule:evenodd;stroke:#000000;stroke-width:1pt;stroke-opacity:1;fill:#000000;fill-opacity:1"
         transform="scale(0.8) rotate(180) translate(12.5,0)" />
    </marker>
    <marker
       inkscape:stockid="Arrow2Lend"
       orient="auto"
       refY="0.0"
       refX="0.0"
       id="Arrow2Lend"
       style="overflow:visible;"
       inkscape:isstock="true">
      <path
         id="path4182"
         style="fill-rule:evenodd;stroke-width:0.625;stroke-linejoin:round;stroke:#000000;stroke-opacity:1;fill:#000000;fill-opacity:1"
         d="M 8.7185878,4.0337352 L -2.2072895,0.016013256 L 8.7185884,-4.0017078 C 6.9730900,-1.6296469 6.9831476,1.6157441 8.7185878,4.0337352 z "
         transform="scale(1.1) rotate(180) translate(1,0)" />
    </marker>
  </defs>
  <sodipodi:namedview
     inkscape:window-height="838"
     inkscape:window-width="1440"
     inkscape:pageshadow="2"
     inkscape:pageopacity="0.0"
     borderopacity="1.0"
     bordercolor="#666666"
     pagecolor="#ffffff"
     id="base"
     showgrid="true"
     showguides="true"
     inkscape:guide-bbox="true"
     inkscape:zoom="0.5"
     inkscape:cx="52.82213"
     inkscape:cy="459.29481"
     inkscape:window-x="-8"
     inkscape:window-y="-8"
     inkscape:current-layer="svg4152"
     inkscape:window-maximized="1"
     objecttolerance="20">
    <sodipodi:guide
       orientation="horizontal"
       position="200"
       id="guide5596" />
    <inkscape:grid
       type="xygrid"
       id="grid3430"
       empspacing="50" />
    <sodipodi:guide
       position="550,1000"
       orientation="0,1"
       id="guide4169" />
  </sodipodi:namedview>
  <metadata
     id="metadata5594">
    <rdf:RDF>
      <cc:Work
         rdf:about="">
        <dc:format>image/svg+xml</dc:format>
        <dc:type
           rdf:resource="http://purl.org/dc/dcmitype/StillImage" />
        <dc:title></dc:title>
      </cc:Work>
    </rdf:RDF>
  </metadata>
  <g
     transform="matrix(29.75748,0,0,29.75748,102.00035,134.45272)"
     style="clip-rule:evenodd;fill-rule:evenodd;image-rendering:optimizeQuality;shape-rendering:geometricPrecision;text-rendering:geometricPrecision"
     id="Layer_x0020_1">
    <metadata
       id="CorelCorpID_0Corel-Layer" />
    <path
       inkscape:connector-curvature="0"
       class="fil0"
       d="m 0,0.884582 c 0,0.0542058 0.0550365,0.0577364 0.10919,0.0779338 0.186916,0.069886 0.357374,0.169782 0.515578,0.283957 0.193718,0.139876 0.383179,0.282503 0.552909,0.450728 0.044289,0.043873 0.067549,0.0527 0.111111,0.093043 0.038006,0.035099 0.064746,0.065109 0.101869,0.102233 0.072586,0.072586 0.13432,0.126584 0.198547,0.209762 l 0.370977,0.428506 c 0.064902,0.079336 0.116096,0.146989 0.178401,0.229907 0.275494,0.366876 0.377467,0.623938 0.577572,1.0215 0.049014,0.097352 0.08162,0.180322 0.130218,0.278038 0.267966,0.539098 0.497302,1.0971 0.760023,1.63858 0.04351,0.08972 0.085618,0.183697 0.126221,0.281984 l 0.129128,0.279181 c 0.117913,0.237176 0.270873,0.588527 0.371652,0.83614 0.078816,0.193614 0.169159,0.371652 0.250364,0.566149 0.0419,0.100364 0.078505,0.175027 0.119107,0.272171 l 0.369108,0.855714 c 0.318225,0.744758 0.62913,1.5177102 0.959141,2.2559802 0.04325,0.09678 0.073884,0.177467 0.115161,0.276117 l 0.602858,1.42145 c 0.15675,0.382867 0.309347,0.76049 0.47887,1.13723 l 0.730895,1.68469 c 0.040031,0.08889 0.081309,0.187903 0.116927,0.2743 0.273988,0.663761 0.604882,1.30618 0.869992,1.97088 l 1.19081,0 0.693875,-1.34746 c 0.230271,-0.42617 0.542837,-1.04092 0.763398,-1.48209 0.04242,-0.08484 0.07451,-0.1554 0.119471,-0.237747 0.04528,-0.08282 0.08385,-0.151402 0.124351,-0.232867 l 1.22482,-2.38158 c 0.08017,-0.160437 0.16054,-0.304051 0.243822,-0.470666 l 0.742837,-1.41761 c 0.03255,0.06786 0.06288,0.152285 0.09476,0.228453 l 0.70426,1.66029 c 0.06817,0.155193 0.129595,0.304362 0.197353,0.466097 l 0.800989,1.88677 c 0.279752,0.625807 0.520199,1.2621 0.799535,1.88827 l 0.601196,1.44014 1.15675,0 c 0.03095,-0.132659 1.1079,-2.56802 1.19663,-2.76704 l 0.361268,-0.829494 c 0.04284,-0.102648 0.08686,-0.192732 0.12404,-0.284217 0.03889,-0.09559 0.07066,-0.182192 0.115577,-0.275702 0.131776,-0.274144 0.237851,-0.553117 0.360749,-0.830013 l 0.727832,-1.67072 c 0.180167,-0.405401 0.579597,-1.2983402 0.727676,-1.6709302 0.03967,-0.099689 0.07238,-0.180115 0.117394,-0.273885 0.04688,-0.097612 0.07877,-0.185255 0.124663,-0.283594 0.08686,-0.185826 0.153323,-0.356024 0.233957,-0.548548 0.312981,-0.747458 0.657946,-1.46683 0.964801,-2.21631 0.07549,-0.18432 0.162981,-0.363708 0.243251,-0.556284 l 0.964749,-2.21631 c 0.07581,-0.184892 0.163448,-0.363293 0.240551,-0.558984 0.06464,-0.164019 0.163292,-0.404051 0.24647,-0.553117 0.0513,-0.091953 0.08583,-0.162358 0.143303,-0.247924 0.335255,-0.499119 0.785309,-0.846057 1.36356,-1.035 0.145951,-0.0477156 0.150572,-0.0330219 0.300209,-0.1081 l 0,-0.884582 -5.40957,0 0,0.884582 c 0,0.083074 0.199793,0.0866046 0.268848,0.1054 0.09242,0.0251299 0.187799,0.0555557 0.286138,0.0881104 0.288734,0.095535 0.520614,0.21511 0.752547,0.387177 0.134839,0.1 0.277363,0.239772 0.363189,0.385308 l 0.132451,0.258827 c 0,0.036656 -0.258672,0.617032 -0.296366,0.707271 -0.09777,0.234217 -0.210281,0.462359 -0.303843,0.699795 -0.02684,0.068173 -0.046,0.100364 -0.07305,0.165161 l -0.540344,1.2458 c -0.05369,0.120925 -0.100052,0.223365 -0.149689,0.343615 -0.04777,0.115784 -0.10405,0.237384 -0.153116,0.357218 -0.09689,0.236345 -0.211475,0.465578 -0.30862,0.7121 -0.02684,0.068121 -0.046,0.100312 -0.07305,0.16511 l -0.461736,1.06921 c -0.07326,0.171392 -0.164019,0.346834 -0.22783,0.520666 l -0.151454,0.358932 c -0.103687,0.23053 -0.217135,0.472899 -0.310749,0.709919 -0.143406,0.363085 -0.309139,0.694395 -0.456699,1.0572698 -0.046,0.113084 -0.100468,0.237124 -0.156543,0.353843 -0.05602,0.116563 -0.09616,0.231101 -0.147716,0.345588 l -1.07139,2.48396 c -0.05452,-0.03998 -0.08069,-0.128038 -0.10945,-0.196782 -0.03027,-0.07233 -0.06319,-0.143926 -0.09699,-0.209243 -0.209243,-0.404518 -0.409036,-0.881415 -0.595017,-1.2932 -0.120561,-0.266927 -0.260177,-0.616097 -0.389357,-0.869473 -0.105296,-0.206595 -0.187695,-0.437333 -0.289149,-0.646471 -0.03583,-0.07383 -0.0621,-0.144756 -0.0972,-0.2260128 l -0.191537,-0.437852 c -0.09652,-0.219783 -0.178349,-0.431933 -0.283957,-0.651664 -0.03863,-0.08027 -0.05981,-0.144497 -0.09657,-0.226688 l -0.468122,-1.09694 c -0.07378,-0.175598 -0.05462,-0.127207 0.08847,-0.434062 l 0.30296,-0.649639 c 0.208671,-0.500053 0.461943,-0.998601 0.689099,-1.48832 0.09621,-0.207477 0.198131,-0.451819 0.308724,-0.643927 0.08448,-0.146626 0.229907,-0.44943 0.315162,-0.620459 0.03801,-0.07622 0.06693,-0.142005 0.107944,-0.215265 l 0.163967,-0.295328 c 0.02388,-0.042939 0.03484,-0.070249 0.05935,-0.1108 l 0.705298,-1.18292 c 0.269004,-0.37809 0.634633,-0.658361 1.08188,-0.806389 0.333023,-0.110177 0.716461,-0.149585 1.07399,-0.18484 l 0,-0.918591 -5.76679,0 c 0,1.06553 -0.08043,0.917812 0.255712,0.91802 0.27025,2.0768e-4 0.593823,0.0418485 0.844032,0.125649 0.164486,0.055088 0.302649,0.125546 0.418641,0.227778 l 0.199741,0.446678 c 0.05961,0.279388 -0.273417,0.888684 -0.397042,1.13396 l -0.356387,0.749379 c -0.04252,0.099637 -0.0729,0.160696 -0.119834,0.254414 l -0.476325,1.00364 c -0.12269,0.244238 -0.249585,0.498548 -0.356335,0.749379 -0.04169,0.097924 -0.07861,0.157633 -0.131309,0.242991 -0.03879,-0.080945 -0.06729,-0.162877 -0.107789,-0.249482 L 14.30674,4.8309061 c -0.191641,-0.426637 -0.397405,-0.855351 -0.583595,-1.2877 -0.184892,-0.429441 -0.40509,-0.858933 -0.583283,-1.28791 -0.130115,-0.313137 -0.330946,-0.656596 -0.04585,-0.950055 0.174871,-0.180063 0.400936,-0.277104 0.658258,-0.328402 0.1608,-0.0320873 0.23619,-0.0411735 0.40104,-0.092264 l -0.01698,-0.884582 -6.48128,0 0,0.918591 c 0.197768,0 0.464124,0.006594 0.634062,0.0293874 0.204777,0.0274663 0.400157,0.0256491 0.597821,0.0655765 0.412047,0.083282 0.66724,0.179699 0.916046,0.427883 0.157737,0.157321 0.34024,0.561061 0.451403,0.790397 l 0.360853,0.727884 c 0.332919,0.677832 0.869162,1.88069 1.13214,2.54227 0.13188,0.331984 0.468797,1.10816 0.608465,1.39886 0.07513,0.156439 0.128817,0.30322 0.20431,0.45914 l 0.529752,1.13915 c 0.01334,0.058515 -0.0078,0.073313 -0.03442,0.11594 -0.02555,0.040862 -0.03972,0.072845 -0.05893,0.111683 -0.09486,0.191849 -0.357374,0.691539 -0.462566,0.864281 -0.107165,0.175961 -0.364176,0.673574 -0.467135,0.876794 l -0.402753,0.754 c -0.114798,0.213189 -0.298859,0.578506 -0.409866,0.763917 -0.04813,0.08032 -0.07321,0.13946 -0.117654,0.222534 -0.0405,0.0757 -0.07565,0.137487 -0.113344,0.209918 -0.03858,0.07425 -0.08141,0.145328 -0.119055,0.221133 -0.03764,0.07581 -0.08043,0.146781 -0.119159,0.221029 -0.04081,0.07819 -0.07529,0.148079 -0.118225,0.222015 -0.166356,0.286242 -0.297093,0.571757 -0.477104,0.866825 -0.165525,-0.345017 -0.4738334,-1.08308 -0.6341144,-1.45826 l -1.02565,-2.35956 c -0.032087,-0.077 -0.050519,-0.112513 -0.082555,-0.189668 l -1.11293,-2.56143 C 7.2828331,7.25183 7.2289908,7.142016 7.1740058,7.013304 L 6.8577018,6.291962 C 6.8045344,6.161172 6.7520418,6.049386 6.6999648,5.922335 L 5.7449258,3.730325 C 5.6883316,3.599432 5.6431598,3.492214 5.5854758,3.362411 5.5283624,3.233854 5.4820488,3.118225 5.4262848,2.994237 5.3715598,2.851246 5.1714038,2.255709 5.1714038,2.126373 c 0,-0.416253 0.331725,-0.719161 0.617863,-0.8621 0.16485,-0.082295 0.346782,-0.152285 0.523678,-0.207789 0.085774,-0.026895 0.211008,-0.053375 0.302545,-0.0717032 0.136605,-0.0273625 0.154621,-0.0206647 0.29107,-0.0831778 l 0,-0.901612 -6.90656,0 0,0.884582 z"
       id="path18032" />
  </g>
</svg>
