<?xml version="1.0" encoding="UTF-8" standalone="no"?>
<!-- Created with Inkscape (http://www.inkscape.org/) -->

<svg stroke="currentColor" fill="currentColor"
   xmlns:dc="http://purl.org/dc/elements/1.1/"
   xmlns:cc="http://creativecommons.org/ns#"
   xmlns:rdf="http://www.w3.org/1999/02/22-rdf-syntax-ns#"
   xmlns:svg="http://www.w3.org/2000/svg"
   xmlns="http://www.w3.org/2000/svg"
   xmlns:sodipodi="http://sodipodi.sourceforge.net/DTD/sodipodi-0.dtd"
   xmlns:inkscape="http://www.inkscape.org/namespaces/inkscape"
   width="1000"
   height="1000"
   id="svg4152"
   version="1.1"
   inkscape:version="0.91 r13725"
   viewBox="0 0 1000 1000"
   sodipodi:docname="ICP-request.svg">
  <defs
     id="defs5498">
    <marker
       inkscape:isstock="true"
       style="overflow:visible"
       id="marker4233"
       refX="0.0"
       refY="0.0"
       orient="auto"
       inkscape:stockid="TriangleOutL">
      <path
         transform="scale(0.8)"
         style="fill-rule:evenodd;stroke:#000000;stroke-width:1pt;stroke-opacity:1;fill:#000000;fill-opacity:1"
         d="M 5.77,0.0 L -2.88,5.0 L -2.88,-5.0 L 5.77,0.0 z "
         id="path4235" />
    </marker>
    <marker
       inkscape:isstock="true"
       style="overflow:visible"
       id="marker4755"
       refX="0.0"
       refY="0.0"
       orient="auto"
       inkscape:stockid="TriangleOutL">
      <path
         transform="scale(0.8)"
         style="fill-rule:evenodd;stroke:#000000;stroke-width:1pt;stroke-opacity:1;fill:#000000;fill-opacity:1"
         d="M 5.77,0.0 L -2.88,5.0 L -2.88,-5.0 L 5.77,0.0 z "
         id="path4757" />
    </marker>
    <marker
       inkscape:stockid="Arrow1Lend"
       orient="auto"
       refY="0.0"
       refX="0.0"
       id="Arrow1Lend"
       style="overflow:visible;"
       inkscape:isstock="true">
      <path
         id="path4164"
         d="M 0.0,0.0 L 5.0,-5.0 L -12.5,0.0 L 5.0,5.0 L 0.0,0.0 z "
         style="fill-rule:evenodd;stroke:#000000;stroke-width:1pt;stroke-opacity:1;fill:#000000;fill-opacity:1"
         transform="scale(0.8) rotate(180) translate(12.5,0)" />
    </marker>
    <marker
       inkscape:stockid="Arrow2Lend"
       orient="auto"
       refY="0.0"
       refX="0.0"
       id="Arrow2Lend"
       style="overflow:visible;"
       inkscape:isstock="true">
      <path
         id="path4182"
         style="fill-rule:evenodd;stroke-width:0.625;stroke-linejoin:round;stroke:#000000;stroke-opacity:1;fill:#000000;fill-opacity:1"
         d="M 8.7185878,4.0337352 L -2.2072895,0.016013256 L 8.7185884,-4.0017078 C 6.9730900,-1.6296469 6.9831476,1.6157441 8.7185878,4.0337352 z "
         transform="scale(1.1) rotate(180) translate(1,0)" />
    </marker>
    <pattern
       y="0"
       x="0"
       height="6"
       width="6"
       patternUnits="userSpaceOnUse"
       id="EMFhbasepattern" />
    <pattern
       y="0"
       x="0"
       height="6"
       width="6"
       patternUnits="userSpaceOnUse"
       id="EMFhbasepattern-6" />
    <pattern
       y="0"
       x="0"
       height="6"
       width="6"
       patternUnits="userSpaceOnUse"
       id="EMFhbasepattern-9" />
    <pattern
       y="0"
       x="0"
       height="6"
       width="6"
       patternUnits="userSpaceOnUse"
       id="EMFhbasepattern-0" />
  </defs>
  <sodipodi:namedview
     inkscape:window-height="838"
     inkscape:window-width="1440"
     inkscape:pageshadow="2"
     inkscape:pageopacity="0.0"
     borderopacity="1.0"
     bordercolor="#666666"
     pagecolor="#ffffff"
     id="base"
     showgrid="true"
     showguides="true"
     inkscape:guide-bbox="true"
     inkscape:zoom="0.5"
     inkscape:cx="357.82213"
     inkscape:cy="459.29481"
     inkscape:window-x="-8"
     inkscape:window-y="-8"
     inkscape:current-layer="svg4152"
     inkscape:window-maximized="1"
     objecttolerance="20">
    <sodipodi:guide
       orientation="horizontal"
       position="200"
       id="guide5596" />
    <inkscape:grid
       type="xygrid"
       id="grid3430"
       empspacing="50" />
    <sodipodi:guide
       position="550,1000"
       orientation="0,1"
       id="guide4169" />
  </sodipodi:namedview>
  <metadata
     id="metadata5594">
    <rdf:RDF>
      <cc:Work
         rdf:about="">
        <dc:format>image/svg+xml</dc:format>
        <dc:type
           rdf:resource="http://purl.org/dc/dcmitype/StillImage" />
        <dc:title></dc:title>
      </cc:Work>
    </rdf:RDF>
  </metadata>
  <path
     inkscape:connector-curvature="0"
     id="path3584"
     d="m 973.85235,153.25192 0,449.48908 -49.70116,0.40335 0,-449.49186 z m 0,449.48908 c 0,35.27256 -15.23054,67.33177 -40.08393,90.5815 l -33.86499,-36.07451 c 15.02869,-14.02494 24.24776,-33.26492 24.24776,-54.10324 z m -40.08393,90.5815 c -24.44403,22.64388 -57.91087,36.8707 -94.58532,36.8707 l 0.40376,-49.6955 c 23.64212,0 45.08601,-9.01733 60.31657,-23.24971 z m -94.58532,36.8707 -461.71396,0 0.40098,-49.6955 461.71676,0 z m -461.51319,-24.84784 -0.20069,24.84784 c -13.82694,0 -24.8489,-11.01922 -24.8489,-24.84784 0.20029,-13.82864 11.42234,-24.84766 25.24986,-24.84766 z M 396.50676,721.57981 179.47699,973.27642 141.8027,941.00957 358.83247,689.11109 Z m -235.86662,235.66403 18.83685,16.03258 c -9.01776,10.62104 -24.8489,11.82097 -35.26971,2.80384 -10.22006,-8.81526 -11.42236,-24.64597 -2.40458,-35.07069 z m -24.24832,-5.00761 53.506,-251.70216 48.49606,9.62276 -53.506,251.8985 z m 77.75431,-246.89087 -24.4485,-5.00761 c 2.80552,-13.43043 16.0319,-22.24589 29.65862,-19.44205 13.42656,2.80382 22.04338,15.8307 19.03763,29.45745 z m -0.20069,24.84784 -53.10508,0 0.40099,-49.6955 53.10505,0 z m -53.10508,0 c -36.67274,0 -70.139018,-14.02493 -94.386846,-36.66883 l 34.267676,-36.4727 c 15.43075,14.4287 36.87295,23.44603 60.52014,23.44603 z M 66.453514,693.52437 C 41.804622,670.47653 26.374099,638.41177 26.374099,603.14475 l 49.898813,-0.40335 c 0,20.84387 9.218227,40.28017 24.448218,54.31068 z m -40.079415,-90.37962 0,-449.49187 49.898813,-0.40137 0,449.4891 z m 0,-449.49187 c 0,-35.47046 15.430523,-67.533647 40.279765,-90.579499 L 100.52094,99.14471 C 85.491139,113.17242 76.272912,132.21013 76.272912,153.25192 Z M 66.653864,63.073381 C 90.902036,40.228202 124.36831,26 161.24127,26 l -0.40097,49.898772 c -23.64661,0 -45.08939,8.817245 -60.31938,23.245938 z M 161.24127,26 l 678.34559,0 -0.40376,49.898772 -678.34278,0 z m 678.34559,0 c 36.66883,0 70.13568,14.228202 94.38345,36.873092 L 899.70156,99.34559 C 884.27474,84.716017 862.83083,75.898772 839.1831,75.898772 Z m 94.38345,36.873092 c 24.6515,23.045245 39.88204,55.109038 39.88204,90.378828 l -49.70116,0.40136 c 0,-21.04178 -9.21907,-40.27976 -24.44963,-54.30729 z"
     style="fill:#000000;fill-opacity:1;fill-rule:nonzero;stroke:none" />
  <path
     inkscape:connector-curvature="0"
     id="path3619"
     d="m 134,516.94383 0,-264.14048 c 0,-13.65865 3.08429,-24.01263 9.47282,-30.84195 6.16856,-6.82933 14.31963,-10.35419 24.23324,-10.35419 10.13379,0 18.28486,3.30446 24.67361,10.13378 6.38896,6.82933 9.47303,17.18352 9.47303,31.06236 l 0,264.14048 c 0,13.87927 -3.08407,24.23281 -9.47303,31.06278 -6.38875,6.82911 -14.53982,10.35354 -24.67361,10.35354 -9.6932,0 -17.84449,-3.52443 -24.23324,-10.35354 C 137.30446,540.95667 134,530.60248 134,516.94383 Z m 429.58583,-70.27601 c 0,10.79498 -2.64327,22.25074 -7.93024,34.58743 -5.2874,12.55687 -13.43824,24.67362 -24.89422,36.79035 -11.23513,11.89589 -25.555,21.58932 -43.17865,29.07941 -17.40414,7.49009 -37.8917,11.23514 -61.24355,11.23514 -17.62433,0 -33.70607,-1.76276 -48.2461,-5.06678 -14.54004,-3.30425 -27.75768,-8.59165 -39.43362,-15.64095 -11.89656,-7.04994 -22.69089,-16.52276 -32.6045,-27.97851 -8.81227,-10.57438 -16.52253,-22.25008 -22.69089,-35.46861 -6.16835,-12.99745 -11.01496,-26.87672 -14.09923,-41.63673 -3.08429,-14.7602 -4.62666,-30.62199 -4.62666,-47.14454 0,-26.87607 3.96589,-51.10953 11.67594,-72.47867 7.9309,-21.36938 19.16603,-39.65381 33.70606,-54.85461 14.76001,-14.98061 31.94353,-26.65655 51.55035,-34.58721 19.60682,-7.93089 40.75601,-11.89633 63.0061,-11.89633 27.09692,0 51.10954,5.50758 72.47868,16.30234 21.14876,10.79457 37.45112,24.23305 48.68625,40.0946 11.23579,15.86178 16.96334,31.06258 16.96334,45.16181 0,7.71028 -2.8641,14.53939 -8.37148,20.48777 -5.50758,5.94818 -12.11606,9.03245 -19.82699,9.03245 -8.59165,0 -15.2008,-2.20334 -19.60661,-6.16835 -4.40603,-4.18584 -9.25263,-11.23579 -14.54003,-21.36936 -8.81184,-16.52255 -19.16603,-29.07985 -31.06215,-37.23093 -12.11652,-8.15107 -26.87673,-12.3367 -44.28021,-12.3367 -27.97852,0 -50.2286,10.57416 -66.75115,31.72335 -16.52276,21.36936 -24.89422,51.32972 -24.89422,90.32319 0,26.21598 3.74503,47.80529 11.01495,65.20878 7.27012,17.18353 17.62433,30.18163 31.06257,38.77328 13.43848,8.37104 29.30026,12.77706 47.14454,12.77706 19.60682,0 36.12937,-4.84616 49.56718,-14.53938 13.43826,-9.69343 23.5725,-23.79267 30.62178,-42.73851 2.86411,-8.81184 6.38898,-15.86178 10.795,-21.58933 4.18584,-5.50758 11.01495,-8.37168 20.48754,-8.37168 8.15174,0 14.98085,2.8641 20.70861,8.59165 5.94817,5.50758 8.81161,12.55752 8.81161,20.92857 z m 190.99927,-24.67362 -62.12276,0 0,94.94963 c 0,13.65865 -3.08427,23.79266 -9.69342,30.84194 -6.38897,7.04995 -14.31985,10.57438 -24.23325,10.57438 -10.13358,0 -18.28509,-3.52443 -24.67362,-10.35354 -6.16834,-7.04994 -9.25263,-17.18351 -9.25263,-30.62199 l 0,-258.4127 c 0,-14.98061 3.30424,-25.55499 10.35419,-31.94374 6.82934,-6.60893 17.62432,-9.6932 32.6045,-9.6932 l 87.01699,0 c 25.77451,0 45.60633,1.98337 59.48297,5.94815 13.66085,3.74505 25.5526,10.1338 35.68726,18.94586 9.91297,8.81205 17.40306,19.60682 22.69219,32.38431 5.28939,12.99767 7.71203,27.31688 7.71203,43.39927 0,34.14621 -10.57852,59.92137 -31.50141,77.5457 -21.15116,17.6241 -52.43675,26.43593 -94.07304,26.43593 z m -16.30062,-153.76965 -45.82214,0 0,102.66011 45.82214,0 c 15.86287,0 29.30178,-1.76275 40.09635,-5.06678 10.57239,-3.30491 18.94387,-8.81227 24.44905,-16.52255 5.73323,-7.71071 8.59361,-17.62411 8.59361,-29.96101 0,-14.76001 -4.40776,-26.87674 -12.99527,-36.12937 -9.91273,-9.9134 -29.96036,-14.9804 -60.14374,-14.9804 z"
     style="fill:#000000;fill-opacity:1;fill-rule:nonzero;stroke:none" />
</svg>
