<?xml version="1.0" encoding="UTF-8" standalone="no"?>
<!-- Created with Inkscape (http://www.inkscape.org/) -->

<svg
   xmlns:dc="http://purl.org/dc/elements/1.1/"
   xmlns:cc="http://creativecommons.org/ns#"
   xmlns:rdf="http://www.w3.org/1999/02/22-rdf-syntax-ns#"
   xmlns:svg="http://www.w3.org/2000/svg"
   xmlns="http://www.w3.org/2000/svg"
   xmlns:sodipodi="http://sodipodi.sourceforge.net/DTD/sodipodi-0.dtd"
   xmlns:inkscape="http://www.inkscape.org/namespaces/inkscape"
   width="1000"
   height="1000"
   id="svg4152"
   version="1.1"
   inkscape:version="0.91 r13725"
   viewBox="0 0 1000 1000"
   sodipodi:docname="element.svg">
  <defs
     id="defs5498">
    <marker
       inkscape:isstock="true"
       style="overflow:visible"
       id="marker4233"
       refX="0.0"
       refY="0.0"
       orient="auto"
       inkscape:stockid="TriangleOutL">
      <path
         transform="scale(0.8)"
         style="fill-rule:evenodd;stroke:#000000;stroke-width:1pt;stroke-opacity:1;fill:#000000;fill-opacity:1"
         d="M 5.77,0.0 L -2.88,5.0 L -2.88,-5.0 L 5.77,0.0 z "
         id="path4235" />
    </marker>
    <marker
       inkscape:isstock="true"
       style="overflow:visible"
       id="marker4755"
       refX="0.0"
       refY="0.0"
       orient="auto"
       inkscape:stockid="TriangleOutL">
      <path
         transform="scale(0.8)"
         style="fill-rule:evenodd;stroke:#000000;stroke-width:1pt;stroke-opacity:1;fill:#000000;fill-opacity:1"
         d="M 5.77,0.0 L -2.88,5.0 L -2.88,-5.0 L 5.77,0.0 z "
         id="path4757" />
    </marker>
    <marker
       inkscape:stockid="Arrow1Lend"
       orient="auto"
       refY="0.0"
       refX="0.0"
       id="Arrow1Lend"
       style="overflow:visible;"
       inkscape:isstock="true">
      <path
         id="path4164"
         d="M 0.0,0.0 L 5.0,-5.0 L -12.5,0.0 L 5.0,5.0 L 0.0,0.0 z "
         style="fill-rule:evenodd;stroke:#000000;stroke-width:1pt;stroke-opacity:1;fill:#000000;fill-opacity:1"
         transform="scale(0.8) rotate(180) translate(12.5,0)" />
    </marker>
    <marker
       inkscape:stockid="Arrow2Lend"
       orient="auto"
       refY="0.0"
       refX="0.0"
       id="Arrow2Lend"
       style="overflow:visible;"
       inkscape:isstock="true">
      <path
         id="path4182"
         style="fill-rule:evenodd;stroke-width:0.625;stroke-linejoin:round;stroke:#000000;stroke-opacity:1;fill:#000000;fill-opacity:1"
         d="M 8.7185878,4.0337352 L -2.2072895,0.016013256 L 8.7185884,-4.0017078 C 6.9730900,-1.6296469 6.9831476,1.6157441 8.7185878,4.0337352 z "
         transform="scale(1.1) rotate(180) translate(1,0)" />
    </marker>
    <pattern
       y="0"
       x="0"
       height="6"
       width="6"
       patternUnits="userSpaceOnUse"
       id="EMFhbasepattern" />
  </defs>
  <sodipodi:namedview
     inkscape:window-height="838"
     inkscape:window-width="1440"
     inkscape:pageshadow="2"
     inkscape:pageopacity="0.0"
     borderopacity="1.0"
     bordercolor="#666666"
     pagecolor="#ffffff"
     id="base"
     showgrid="true"
     showguides="true"
     inkscape:guide-bbox="true"
     inkscape:zoom="0.5"
     inkscape:cx="357.82213"
     inkscape:cy="459.29481"
     inkscape:window-x="-8"
     inkscape:window-y="-8"
     inkscape:current-layer="svg4152"
     inkscape:window-maximized="1"
     objecttolerance="20">
    <sodipodi:guide
       orientation="horizontal"
       position="200"
       id="guide5596" />
    <inkscape:grid
       type="xygrid"
       id="grid3430"
       empspacing="50" />
    <sodipodi:guide
       position="550,1000"
       orientation="0,1"
       id="guide4169" />
  </sodipodi:namedview>
  <metadata
     id="metadata5594">
    <rdf:RDF>
      <cc:Work
         rdf:about="">
        <dc:format>image/svg+xml</dc:format>
        <dc:type
           rdf:resource="http://purl.org/dc/dcmitype/StillImage" />
        <dc:title></dc:title>
      </cc:Work>
    </rdf:RDF>
  </metadata>
  <path
     inkscape:connector-curvature="0"
     id="path10513"
     d="m 298.44468,111.26035 400.06912,0 c 50.14399,0 91.18235,41.03836 91.18235,91.18433 l 0,400.06912 c 0,50.14399 -41.03836,91.18235 -91.18235,91.18235 l -400.06912,0 c -50.14597,0 -91.18433,-41.03836 -91.18433,-91.18235 l 0,-400.06912 c 0,-50.14597 41.03836,-91.18433 91.18433,-91.18433 z"
     style="fill:none;stroke:#000000;stroke-width:22.52073669px;stroke-linecap:round;stroke-linejoin:round;stroke-miterlimit:4;stroke-dasharray:none;stroke-opacity:1" />
  <path
     inkscape:connector-curvature="0"
     id="path10515"
     d="m 623.24225,502.12164 c 3.00313,0 5.907,-1.20185 8.00799,-3.40309 l 41.53954,-44.04147 c 4.20497,-4.40544 4.00251,-11.41107 -0.39697,-15.51381 -4.40644,-4.20397 -11.41107,-4.00549 -15.51382,0.39698 l -33.63376,35.5323 -33.6298,-35.5323 c -2.00274,-2.20124 -4.90463,-3.40307 -8.00798,-3.40307 -3.00213,0 -5.90403,1.20183 -8.00801,3.40307 l -33.52856,35.5323 -33.63079,-35.5323 c -2.00274,-2.20124 -4.90662,-3.40307 -8.00799,-3.40307 -3.00213,0 -5.907,1.20183 -8.00699,3.40307 l -33.53156,35.5323 -33.63078,-35.5323 c -2.00175,-2.20124 -4.90464,-3.40307 -8.008,-3.40307 -3.00311,0 -5.905,1.20183 -8.00699,3.40307 l -33.53155,35.5323 -33.63079,-35.5323 c -4.10374,-4.40544 -11.10937,-4.60393 -15.51381,-0.39698 -4.40444,4.10274 -4.60492,11.10837 -0.49622,15.51381 l 41.63779,44.04147 c 2.10199,2.20124 5.00487,3.40309 8.008,3.40309 3.00213,0 5.90501,-1.20185 8.00699,-3.40309 l 33.53056,-35.53527 33.63079,35.53527 c 2.10198,2.20124 5.00486,3.40309 8.00799,3.40309 3.00213,0 5.90501,-1.20185 8.00699,-3.40309 l 33.53155,-35.53527 33.63079,35.53527 c 2.10099,2.20124 5.00487,3.40309 8.008,3.40309 3.00213,0 5.90401,-1.20185 8.00699,-3.40309 l 33.52956,-35.53527 33.63079,35.53527 c 2.10298,2.20124 5.00487,3.40309 8.00699,3.40309 z"
     style="fill:#000000;fill-opacity:1;fill-rule:evenodd;stroke:none" />
  <path
     inkscape:connector-curvature="0"
     id="path10517"
     d="m 323.26757,268.70588 0,-42.7394"
     style="fill:none;stroke:#000000;stroke-width:22.52073669px;stroke-linecap:round;stroke-linejoin:round;stroke-miterlimit:4;stroke-dasharray:none;stroke-opacity:1" />
  <path
     inkscape:connector-curvature="0"
     id="path10519"
     d="m 560.78606,396.52213 c 0,0.70463 -0.0992,1.30307 -0.50614,1.80127 -0.29773,0.60539 -0.99939,1.00237 -1.80029,1.30209 -0.90311,0.29772 -2.10099,0.59546 -3.60255,0.80387 -1.40331,0.19849 -3.30482,0.39697 -5.40581,0.39697 -2.30147,0 -4.20398,-0.19848 -5.6043,-0.39697 -1.40331,-0.19849 -2.60219,-0.50615 -3.50332,-0.80387 -0.90312,-0.29774 -1.50156,-0.70463 -1.9025,-1.30209 -0.29774,-0.49622 -0.50615,-1.10062 -0.50615,-1.80127 l 0,-76.86938 -78.77189,0 0,76.86938 c 0,0.70463 -0.19848,1.30307 -0.60538,1.80127 -0.39698,0.60539 -1.00039,1.00237 -1.90152,1.30209 -0.80388,0.29772 -2.00174,0.59546 -3.50331,0.80387 -1.50156,0.19849 -3.30283,0.39697 -5.6053,0.39697 -2.10199,0 -3.90326,-0.19848 -5.40482,-0.39697 -1.50157,-0.19849 -2.80264,-0.50615 -3.60354,-0.80387 -0.90313,-0.29774 -1.60081,-0.70463 -1.90151,-1.30209 -0.39698,-0.49622 -0.6054,-1.10062 -0.6054,-1.80127 l 0,-166.25243 c 0,-0.70463 0.19849,-1.30109 0.6054,-1.90151 0.29772,-0.49622 1.00136,-0.90313 1.90151,-1.30109 0.80387,-0.29774 2.10197,-0.49622 3.60354,-0.70464 1.50156,-0.29773 3.30283,-0.39698 5.40482,-0.39698 2.30247,0 4.10374,0.0992 5.6053,0.39698 1.50157,0.19849 2.70241,0.39698 3.50331,0.70464 0.90313,0.39698 1.50157,0.80387 1.90152,1.30109 0.39697,0.60538 0.60538,1.20084 0.60538,1.90151 l 0,69.36455 78.77189,0 0,-69.36455 c 0,-0.70463 0.19848,-1.30109 0.50615,-1.90151 0.39697,-0.49622 1.00038,-0.90313 1.9025,-1.30109 0.90313,-0.29774 2.10001,-0.49622 3.50332,-0.70464 1.40032,-0.29773 3.30283,-0.39698 5.6043,-0.39698 2.10099,0 4.0025,0.0992 5.40581,0.39698 1.50156,0.19849 2.70341,0.39698 3.60255,0.70464 0.80388,0.39698 1.50057,0.80387 1.80029,1.30109 0.39698,0.60538 0.50614,1.20084 0.50614,1.90151 z"
     style="fill:none;stroke:#000000;stroke-width:15.01382542px;stroke-linecap:round;stroke-linejoin:round;stroke-miterlimit:4;stroke-dasharray:none;stroke-opacity:1" />
  <path
     inkscape:connector-curvature="0"
     id="path10521"
     d="m 560.78606,396.52213 c 0,0.70463 -0.0992,1.30307 -0.50614,1.80127 -0.29773,0.60539 -0.99939,1.00237 -1.80029,1.30209 -0.90311,0.29772 -2.10099,0.59546 -3.60255,0.80387 -1.40331,0.19849 -3.30482,0.39697 -5.40581,0.39697 -2.30147,0 -4.20398,-0.19848 -5.6043,-0.39697 -1.40331,-0.19849 -2.60219,-0.50615 -3.50332,-0.80387 -0.90312,-0.29774 -1.50156,-0.70463 -1.9025,-1.30209 -0.29774,-0.49622 -0.50615,-1.10062 -0.50615,-1.80127 l 0,-76.86938 -78.77189,0 0,76.86938 c 0,0.70463 -0.19848,1.30307 -0.60538,1.80127 -0.39698,0.60539 -1.00039,1.00237 -1.90152,1.30209 -0.80388,0.29772 -2.00174,0.59546 -3.50331,0.80387 -1.50156,0.19849 -3.30283,0.39697 -5.6053,0.39697 -2.10199,0 -3.90326,-0.19848 -5.40482,-0.39697 -1.50157,-0.19849 -2.80264,-0.50615 -3.60354,-0.80387 -0.90313,-0.29774 -1.60081,-0.70463 -1.90151,-1.30209 -0.39698,-0.49622 -0.6054,-1.10062 -0.6054,-1.80127 l 0,-166.25243 c 0,-0.70463 0.19849,-1.30109 0.6054,-1.90151 0.29772,-0.49622 1.00136,-0.90313 1.90151,-1.30109 0.80387,-0.29774 2.10197,-0.49622 3.60354,-0.70464 1.50156,-0.29773 3.30283,-0.39698 5.40482,-0.39698 2.30247,0 4.10374,0.0992 5.6053,0.39698 1.50157,0.19849 2.70241,0.39698 3.50331,0.70464 0.90313,0.39698 1.50157,0.80387 1.90152,1.30109 0.39697,0.60538 0.60538,1.20084 0.60538,1.90151 l 0,69.36455 78.77189,0 0,-69.36455 c 0,-0.70463 0.19848,-1.30109 0.50615,-1.90151 0.39697,-0.49622 1.00038,-0.90313 1.9025,-1.30109 0.90313,-0.29774 2.10001,-0.49622 3.50332,-0.70464 1.40032,-0.29773 3.30283,-0.39698 5.6043,-0.39698 2.10099,0 4.0025,0.0992 5.40581,0.39698 1.50156,0.19849 2.70341,0.39698 3.60255,0.70464 0.80388,0.39698 1.50057,0.80387 1.80029,1.30109 0.39698,0.60538 0.50614,1.20084 0.50614,1.90151 z"
     style="fill:#000000;fill-opacity:1;fill-rule:nonzero;stroke:none" />
  <path
     inkscape:connector-curvature="0"
     id="path10523"
     d="m 437.1718,582.6948 c 0,0.50614 0,0.90312 -0.0992,1.30207 -0.0993,0.29774 -0.19849,0.59547 -0.29773,0.90312 -0.19849,0.1985 -0.29774,0.29774 -0.49622,0.39698 -0.19849,0.0993 -0.39698,0.19848 -0.60539,0.19848 l -27.92624,0 c -0.1985,0 -0.39698,-0.0992 -0.59547,-0.19848 -0.0993,-0.0993 -0.29773,-0.19848 -0.39697,-0.39698 -0.1985,-0.29772 -0.29774,-0.59546 -0.39698,-0.90312 -0.0993,-0.39697 -0.0993,-0.80387 -0.0993,-1.30207 0,-0.50615 0,-1.00038 0.0993,-1.30307 0.0992,-0.39698 0.19848,-0.70464 0.29773,-0.90313 0.0993,-0.19849 0.29773,-0.39697 0.49622,-0.49622 0.19849,-0.19849 0.29773,-0.19849 0.59547,-0.19849 l 11.11035,0 0,-40.73863 -10.30946,6.10548 c -0.49622,0.29774 -0.90311,0.50615 -1.30109,0.59546 -0.29772,0 -0.49622,-0.0993 -0.70463,-0.19848 -0.19849,-0.19848 -0.39698,-0.50615 -0.39698,-0.90312 -0.0992,-0.39698 -0.0992,-1.00037 -0.0992,-1.59981 0,-0.49622 0,-0.90312 0,-1.20086 0.0992,-0.29773 0.0992,-0.60539 0.1985,-0.80387 0.0993,-0.19848 0.19848,-0.39698 0.39697,-0.60539 0.0993,-0.19849 0.29773,-0.29773 0.59547,-0.49622 l 12.31121,-7.90676 c 0.0992,-0.0993 0.19848,-0.0993 0.39696,-0.19849 0.1985,-0.0992 0.39698,-0.0992 0.6054,-0.19848 0.29773,0 0.60539,-0.0993 0.90311,-0.0993 0.29774,0 0.70464,0 1.20185,0 0.69471,0 1.20086,0 1.70104,0.0993 0.39698,0 0.80387,0.0993 1.00038,0.19848 0.29773,0.0993 0.39698,0.19849 0.49622,0.39698 0.0993,0.0993 0.0993,0.29772 0.0993,0.50614 l 0,47.0436 9.70804,0 c 0.19849,0 0.50615,0 0.60539,0.19849 0.19849,0.0992 0.39698,0.29773 0.49622,0.49622 0.0993,0.19849 0.19848,0.50614 0.29774,0.90312 0.0993,0.29774 0.0993,0.80388 0.0993,1.30307 z m 35.23159,-1.70005 c 0,1.90151 -0.29772,3.20061 -0.99938,3.90128 -0.59546,0.60538 -1.80127,0.90312 -3.5033,0.90312 -1.70204,0 -2.80265,-0.29774 -3.40309,-0.90312 -0.70463,-0.59548 -1.00137,-1.90151 -1.00137,-3.80402 0,-1.99977 0.29774,-3.30185 1.00137,-3.90129 0.6054,-0.70463 1.80128,-1.00235 3.50331,-1.00235 1.70005,0 2.80365,0.29772 3.40308,1.00235 0.70464,0.59547 0.99938,1.90152 0.99938,3.80403 z m 61.75752,-22.42119 c 0,4.10274 -0.29774,7.90677 -1.00038,11.30984 -0.59546,3.30184 -1.70005,6.20373 -3.20458,8.70766 -1.50058,2.40369 -3.50035,4.3052 -5.90404,5.70553 -2.40269,1.2991 -5.40581,2.00274 -9.00736,2.00274 -3.30285,0 -6.20672,-0.60538 -8.50918,-1.80425 -2.30246,-1.20086 -4.10374,-3.00213 -5.50406,-5.30459 -1.40332,-2.40071 -2.40271,-5.20435 -3.00213,-8.60742 -0.60539,-3.40308 -0.90313,-7.30733 -0.90313,-11.81103 0,-4.0025 0.29774,-7.80553 1.00037,-11.20861 0.6054,-3.40307 1.70303,-6.30793 3.20361,-8.70865 1.50155,-2.50392 3.40307,-4.40543 5.90401,-5.70553 2.40369,-1.30208 5.40582,-2.00275 8.91013,-2.00275 3.40306,0 6.20671,0.59548 8.5062,1.80129 2.30245,1.20184 4.20396,3.00311 5.60728,5.30458 1.40033,2.30247 2.40071,5.20733 3.00312,8.6104 0.59546,3.40308 0.90312,7.30435 0.90312,11.71079 z m -7.30535,0.49622 c 0,-2.70043 -0.0993,-5.10312 -0.30765,-7.20611 -0.19849,-2.10099 -0.49622,-4.0025 -0.79396,-5.60529 -0.39697,-1.6018 -0.90312,-3.00213 -1.50156,-4.20397 -0.60539,-1.20185 -1.30207,-2.10099 -2.10297,-2.9019 -0.80388,-0.80388 -1.80129,-1.30208 -2.80365,-1.70302 -1.10061,-0.29774 -2.29947,-0.49622 -3.60254,-0.49622 -2.40271,0 -4.20398,0.59546 -5.70456,1.70005 -1.50155,1.10062 -2.60217,2.60218 -3.5043,4.50369 -0.80388,2.00275 -1.40032,4.20396 -1.70004,6.80615 -0.29774,2.60515 -0.39698,5.40582 -0.39698,8.40794 0,3.90525 0.19848,7.30833 0.59546,10.11196 0.39698,2.80067 1.00336,5.10312 1.90152,6.90341 0.90311,1.70303 2.10397,3.00313 3.5043,3.80402 1.40033,0.80388 3.10336,1.20184 5.00488,1.20184 1.60279,0 2.90189,-0.19848 4.10372,-0.70463 1.20185,-0.49622 2.20123,-1.20184 3.00213,-2.1 0.90313,-1.00335 1.60279,-2.10397 2.10101,-3.40604 0.60538,-1.3001 1.00236,-2.70043 1.30207,-4.30224 0.39698,-1.50156 0.59547,-3.20459 0.70464,-5.1061 0.0992,-1.80127 0.19848,-3.70278 0.19848,-5.70553 z m 64.05897,23.62302 c 0,0.50616 0,0.90313 -0.0992,1.30209 -0.0993,0.29773 -0.19848,0.59547 -0.29773,0.90312 -0.19849,0.19848 -0.29773,0.29772 -0.50615,0.39698 -0.19848,0.0993 -0.39698,0.19848 -0.59546,0.19848 l -27.92724,0 c -0.19848,0 -0.39698,-0.0993 -0.59546,-0.19848 -0.0993,-0.0993 -0.29774,-0.1985 -0.39698,-0.39698 -0.19848,-0.29774 -0.29772,-0.59546 -0.39698,-0.90312 -0.0992,-0.39697 -0.0992,-0.80387 -0.0992,-1.30209 0,-0.49622 0,-1.00037 0.0992,-1.30307 0.0993,-0.39696 0.1985,-0.70462 0.29774,-0.90311 0.0992,-0.19849 0.29772,-0.39698 0.49622,-0.49623 0.19848,-0.19848 0.39698,-0.19848 0.59546,-0.19848 l 11.11135,0 0,-40.73864 -10.31045,6.10549 c -0.49622,0.29772 -0.90312,0.50614 -1.2991,0.59546 -0.30766,0 -0.50615,-0.0993 -0.70463,-0.19848 -0.1985,-0.1985 -0.29774,-0.50615 -0.39698,-0.90313 -0.0993,-0.39697 -0.0993,-1.00038 -0.0993,-1.5998 0,-0.49622 0,-0.90313 0,-1.20086 0.0993,-0.29773 0.0993,-0.60539 0.19848,-0.80387 0.0992,-0.1985 0.1985,-0.39698 0.39698,-0.60539 0.0993,-0.19849 0.29774,-0.29774 0.60539,-0.49622 l 12.30922,-7.90677 c 0.0993,-0.0993 0.19849,-0.0993 0.39698,-0.19848 0.19849,-0.0993 0.39697,-0.0993 0.59546,-0.1985 0.30765,0 0.60539,-0.0992 0.90313,-0.0992 0.29772,0 0.6947,0 1.20084,0 0.70463,0 1.20185,0 1.70005,0.0992 0.39698,0 0.80387,0.0993 1.00335,0.1985 0.29774,0.0992 0.39698,0.19848 0.49622,0.39698 0.0993,0.0993 0.1985,0.29772 0.1985,0.49622 l 0,47.0436 9.60978,0 c 0.19849,0 0.49622,0 0.59546,0.19848 0.1985,0.0993 0.39698,0.29774 0.50616,0.49622 0.0992,0.19849 0.19848,0.50614 0.29772,0.90312 0.0992,0.29774 0.0992,0.80387 0.0992,1.30307 z"
     style="fill:none;stroke:#000000;stroke-width:10.00921535px;stroke-linecap:round;stroke-linejoin:round;stroke-miterlimit:4;stroke-dasharray:none;stroke-opacity:1" />
  <path
     inkscape:connector-curvature="0"
     id="path10525"
     d="m 437.1718,582.6948 c 0,0.50614 0,0.90312 -0.0992,1.30207 -0.0993,0.29774 -0.19849,0.59547 -0.29773,0.90312 -0.19849,0.1985 -0.29774,0.29774 -0.49622,0.39698 -0.19849,0.0993 -0.39698,0.19848 -0.60539,0.19848 l -27.92624,0 c -0.1985,0 -0.39698,-0.0992 -0.59547,-0.19848 -0.0993,-0.0993 -0.29773,-0.19848 -0.39697,-0.39698 -0.1985,-0.29772 -0.29774,-0.59546 -0.39698,-0.90312 -0.0993,-0.39697 -0.0993,-0.80387 -0.0993,-1.30207 0,-0.50615 0,-1.00038 0.0993,-1.30307 0.0992,-0.39698 0.19848,-0.70464 0.29773,-0.90313 0.0993,-0.19849 0.29773,-0.39697 0.49622,-0.49622 0.19849,-0.19849 0.29773,-0.19849 0.59547,-0.19849 l 11.11035,0 0,-40.73863 -10.30946,6.10548 c -0.49622,0.29774 -0.90311,0.50615 -1.30109,0.59546 -0.29772,0 -0.49622,-0.0993 -0.70463,-0.19848 -0.19849,-0.19848 -0.39698,-0.50615 -0.39698,-0.90312 -0.0992,-0.39698 -0.0992,-1.00037 -0.0992,-1.59981 0,-0.49622 0,-0.90312 0,-1.20086 0.0992,-0.29773 0.0992,-0.60539 0.1985,-0.80387 0.0993,-0.19848 0.19848,-0.39698 0.39697,-0.60539 0.0993,-0.19849 0.29773,-0.29773 0.59547,-0.49622 l 12.31121,-7.90676 c 0.0992,-0.0993 0.19848,-0.0993 0.39696,-0.19849 0.1985,-0.0992 0.39698,-0.0992 0.6054,-0.19848 0.29773,0 0.60539,-0.0993 0.90311,-0.0993 0.29774,0 0.70464,0 1.20185,0 0.69471,0 1.20086,0 1.70104,0.0993 0.39698,0 0.80387,0.0993 1.00038,0.19848 0.29773,0.0993 0.39698,0.19849 0.49622,0.39698 0.0993,0.0993 0.0993,0.29772 0.0993,0.50614 l 0,47.0436 9.70804,0 c 0.19849,0 0.50615,0 0.60539,0.19849 0.19849,0.0992 0.39698,0.29773 0.49622,0.49622 0.0993,0.19849 0.19848,0.50614 0.29774,0.90312 0.0993,0.29774 0.0993,0.80388 0.0993,1.30307 z m 35.23159,-1.70005 c 0,1.90151 -0.29772,3.20061 -0.99938,3.90128 -0.59546,0.60538 -1.80127,0.90312 -3.5033,0.90312 -1.70204,0 -2.80265,-0.29774 -3.40309,-0.90312 -0.70463,-0.59548 -1.00137,-1.90151 -1.00137,-3.80402 0,-1.99977 0.29774,-3.30185 1.00137,-3.90129 0.6054,-0.70463 1.80128,-1.00235 3.50331,-1.00235 1.70005,0 2.80365,0.29772 3.40308,1.00235 0.70464,0.59547 0.99938,1.90152 0.99938,3.80403 z m 61.75752,-22.42119 c 0,4.10274 -0.29774,7.90677 -1.00038,11.30984 -0.59546,3.30184 -1.70005,6.20373 -3.20458,8.70766 -1.50058,2.40369 -3.50035,4.3052 -5.90404,5.70553 -2.40269,1.2991 -5.40581,2.00274 -9.00736,2.00274 -3.30285,0 -6.20672,-0.60538 -8.50918,-1.80425 -2.30246,-1.20086 -4.10374,-3.00213 -5.50406,-5.30459 -1.40332,-2.40071 -2.40271,-5.20435 -3.00213,-8.60742 -0.60539,-3.40308 -0.90313,-7.30733 -0.90313,-11.81103 0,-4.0025 0.29774,-7.80553 1.00037,-11.20861 0.6054,-3.40307 1.70303,-6.30793 3.20361,-8.70865 1.50155,-2.50392 3.40307,-4.40543 5.90401,-5.70553 2.40369,-1.30208 5.40582,-2.00275 8.91013,-2.00275 3.40306,0 6.20671,0.59548 8.5062,1.80129 2.30245,1.20184 4.20396,3.00311 5.60728,5.30458 1.40033,2.30247 2.40071,5.20733 3.00312,8.6104 0.59546,3.40308 0.90312,7.30435 0.90312,11.71079 z m -7.30535,0.49622 c 0,-2.70043 -0.0993,-5.10312 -0.30765,-7.20611 -0.19849,-2.10099 -0.49622,-4.0025 -0.79396,-5.60529 -0.39697,-1.6018 -0.90312,-3.00213 -1.50156,-4.20397 -0.60539,-1.20185 -1.30207,-2.10099 -2.10297,-2.9019 -0.80388,-0.80388 -1.80129,-1.30208 -2.80365,-1.70302 -1.10061,-0.29774 -2.29947,-0.49622 -3.60254,-0.49622 -2.40271,0 -4.20398,0.59546 -5.70456,1.70005 -1.50155,1.10062 -2.60217,2.60218 -3.5043,4.50369 -0.80388,2.00275 -1.40032,4.20396 -1.70004,6.80615 -0.29774,2.60515 -0.39698,5.40582 -0.39698,8.40794 0,3.90525 0.19848,7.30833 0.59546,10.11196 0.39698,2.80067 1.00336,5.10312 1.90152,6.90341 0.90311,1.70303 2.10397,3.00313 3.5043,3.80402 1.40033,0.80388 3.10336,1.20184 5.00488,1.20184 1.60279,0 2.90189,-0.19848 4.10372,-0.70463 1.20185,-0.49622 2.20123,-1.20184 3.00213,-2.1 0.90313,-1.00335 1.60279,-2.10397 2.10101,-3.40604 0.60538,-1.3001 1.00236,-2.70043 1.30207,-4.30224 0.39698,-1.50156 0.59547,-3.20459 0.70464,-5.1061 0.0992,-1.80127 0.19848,-3.70278 0.19848,-5.70553 z m 64.05897,23.62302 c 0,0.50616 0,0.90313 -0.0992,1.30209 -0.0993,0.29773 -0.19848,0.59547 -0.29773,0.90312 -0.19849,0.19848 -0.29773,0.29772 -0.50615,0.39698 -0.19848,0.0993 -0.39698,0.19848 -0.59546,0.19848 l -27.92724,0 c -0.19848,0 -0.39698,-0.0993 -0.59546,-0.19848 -0.0993,-0.0993 -0.29774,-0.1985 -0.39698,-0.39698 -0.19848,-0.29774 -0.29772,-0.59546 -0.39698,-0.90312 -0.0992,-0.39697 -0.0992,-0.80387 -0.0992,-1.30209 0,-0.49622 0,-1.00037 0.0992,-1.30307 0.0993,-0.39696 0.1985,-0.70462 0.29774,-0.90311 0.0992,-0.19849 0.29772,-0.39698 0.49622,-0.49623 0.19848,-0.19848 0.39698,-0.19848 0.59546,-0.19848 l 11.11135,0 0,-40.73864 -10.31045,6.10549 c -0.49622,0.29772 -0.90312,0.50614 -1.2991,0.59546 -0.30766,0 -0.50615,-0.0993 -0.70463,-0.19848 -0.1985,-0.1985 -0.29774,-0.50615 -0.39698,-0.90313 -0.0993,-0.39697 -0.0993,-1.00038 -0.0993,-1.5998 0,-0.49622 0,-0.90313 0,-1.20086 0.0993,-0.29773 0.0993,-0.60539 0.19848,-0.80387 0.0992,-0.1985 0.1985,-0.39698 0.39698,-0.60539 0.0993,-0.19849 0.29774,-0.29774 0.60539,-0.49622 l 12.30922,-7.90677 c 0.0993,-0.0993 0.19849,-0.0993 0.39698,-0.19848 0.19849,-0.0993 0.39697,-0.0993 0.59546,-0.1985 0.30765,0 0.60539,-0.0992 0.90313,-0.0992 0.29772,0 0.6947,0 1.20084,0 0.70463,0 1.20185,0 1.70005,0.0992 0.39698,0 0.80387,0.0993 1.00335,0.1985 0.29774,0.0992 0.39698,0.19848 0.49622,0.39698 0.0993,0.0993 0.1985,0.29772 0.1985,0.49622 l 0,47.0436 9.60978,0 c 0.19849,0 0.49622,0 0.59546,0.19848 0.1985,0.0993 0.39698,0.29774 0.50616,0.49622 0.0992,0.19849 0.19848,0.50614 0.29772,0.90312 0.0992,0.29774 0.0992,0.80387 0.0992,1.30307 z"
     style="fill:#000000;fill-opacity:1;fill-rule:nonzero;stroke:none" />
  <path
     inkscape:connector-curvature="0"
     id="path10527"
     d="m 735.44644,537.85241 0,27.42607 c 0,40.83688 -33.33108,74.16796 -74.16796,74.16796 l -325.59947,0 c -40.83787,0 -74.16895,-33.33108 -74.16895,-74.16796 l 0,-325.59947 c 0,-40.83787 33.33108,-74.16895 74.16895,-74.16895 l 325.59947,0 c 40.83688,0 74.16796,33.33108 74.16796,74.16895 l 0,238.61813"
     style="fill:none;stroke:#000000;stroke-width:22.52073669px;stroke-linecap:round;stroke-linejoin:round;stroke-miterlimit:4;stroke-dasharray:none;stroke-opacity:1" />
</svg>
