<?xml version="1.0" encoding="UTF-8" standalone="no"?>
<!-- Created with Inkscape (http://www.inkscape.org/) -->

<svg
   xmlns:dc="http://purl.org/dc/elements/1.1/"
   xmlns:cc="http://creativecommons.org/ns#"
   xmlns:rdf="http://www.w3.org/1999/02/22-rdf-syntax-ns#"
   xmlns:svg="http://www.w3.org/2000/svg"
   xmlns="http://www.w3.org/2000/svg"
   xmlns:sodipodi="http://sodipodi.sourceforge.net/DTD/sodipodi-0.dtd"
   xmlns:inkscape="http://www.inkscape.org/namespaces/inkscape"
   width="1000"
   height="1000"
   id="svg4152"
   version="1.1"
   inkscape:version="0.91 r13725"
   viewBox="0 0 1000 1000"
   sodipodi:docname="shape.svg">
  <defs
     id="defs5498">
    <marker
       inkscape:isstock="true"
       style="overflow:visible"
       id="marker4233"
       refX="0.0"
       refY="0.0"
       orient="auto"
       inkscape:stockid="TriangleOutL">
      <path
         transform="scale(0.8)"
         style="fill-rule:evenodd;stroke:#000000;stroke-width:1pt;stroke-opacity:1;fill:#000000;fill-opacity:1"
         d="M 5.77,0.0 L -2.88,5.0 L -2.88,-5.0 L 5.77,0.0 z "
         id="path4235" />
    </marker>
    <marker
       inkscape:isstock="true"
       style="overflow:visible"
       id="marker4755"
       refX="0.0"
       refY="0.0"
       orient="auto"
       inkscape:stockid="TriangleOutL">
      <path
         transform="scale(0.8)"
         style="fill-rule:evenodd;stroke:#000000;stroke-width:1pt;stroke-opacity:1;fill:#000000;fill-opacity:1"
         d="M 5.77,0.0 L -2.88,5.0 L -2.88,-5.0 L 5.77,0.0 z "
         id="path4757" />
    </marker>
    <marker
       inkscape:stockid="Arrow1Lend"
       orient="auto"
       refY="0.0"
       refX="0.0"
       id="Arrow1Lend"
       style="overflow:visible;"
       inkscape:isstock="true">
      <path
         id="path4164"
         d="M 0.0,0.0 L 5.0,-5.0 L -12.5,0.0 L 5.0,5.0 L 0.0,0.0 z "
         style="fill-rule:evenodd;stroke:#000000;stroke-width:1pt;stroke-opacity:1;fill:#000000;fill-opacity:1"
         transform="scale(0.8) rotate(180) translate(12.5,0)" />
    </marker>
    <marker
       inkscape:stockid="Arrow2Lend"
       orient="auto"
       refY="0.0"
       refX="0.0"
       id="Arrow2Lend"
       style="overflow:visible;"
       inkscape:isstock="true">
      <path
         id="path4182"
         style="fill-rule:evenodd;stroke-width:0.625;stroke-linejoin:round;stroke:#000000;stroke-opacity:1;fill:#000000;fill-opacity:1"
         d="M 8.7185878,4.0337352 L -2.2072895,0.016013256 L 8.7185884,-4.0017078 C 6.9730900,-1.6296469 6.9831476,1.6157441 8.7185878,4.0337352 z "
         transform="scale(1.1) rotate(180) translate(1,0)" />
    </marker>
    <pattern
       y="0"
       x="0"
       height="6"
       width="6"
       patternUnits="userSpaceOnUse"
       id="EMFhbasepattern" />
  </defs>
  <sodipodi:namedview
     inkscape:window-height="838"
     inkscape:window-width="1440"
     inkscape:pageshadow="2"
     inkscape:pageopacity="0.0"
     borderopacity="1.0"
     bordercolor="#666666"
     pagecolor="#ffffff"
     id="base"
     showgrid="true"
     showguides="true"
     inkscape:guide-bbox="true"
     inkscape:zoom="0.5"
     inkscape:cx="357.82213"
     inkscape:cy="459.29481"
     inkscape:window-x="-8"
     inkscape:window-y="-8"
     inkscape:current-layer="svg4152"
     inkscape:window-maximized="1"
     objecttolerance="20">
    <sodipodi:guide
       orientation="horizontal"
       position="200"
       id="guide5596" />
    <inkscape:grid
       type="xygrid"
       id="grid3430"
       empspacing="50" />
    <sodipodi:guide
       position="550,1000"
       orientation="0,1"
       id="guide4169" />
  </sodipodi:namedview>
  <metadata
     id="metadata5594">
    <rdf:RDF>
      <cc:Work
         rdf:about="">
        <dc:format>image/svg+xml</dc:format>
        <dc:type
           rdf:resource="http://purl.org/dc/dcmitype/StillImage" />
        <dc:title></dc:title>
      </cc:Work>
    </rdf:RDF>
  </metadata>
  <path
     inkscape:connector-curvature="0"
     id="path9368"
     d="m 704.60414,416.61943 c 1.89248,-3.33105 -0.44634,-8.28287 -5.40075,-11.16401 -4.86067,-2.79087 -10.35245,-2.3407 -12.3351,0.99036 z m 0,0 -30.42804,52.66736 -17.64835,-10.26132 30.34054,-52.57969 z m -48.07639,42.40604 c -1.97998,3.41871 0.45528,8.37178 5.31325,11.25389 4.86245,2.78893 10.44262,2.34053 12.3351,-0.99257 z"
     style="fill:#000000;fill-opacity:1;fill-rule:nonzero;stroke:none" />
  <path
     inkscape:connector-curvature="0"
     id="path9370"
     d="m 678.4967,376.01534 105.60629,0 52.66927,91.20051 -52.66927,91.2031 -105.33671,0 -52.66744,-91.2031 z"
     style="fill:none;stroke:#000000;stroke-width:20.70721436px;stroke-linecap:round;stroke-linejoin:round;stroke-miterlimit:4;stroke-dasharray:none;stroke-opacity:1" />
  <path
     inkscape:connector-curvature="0"
     id="path9372"
     d="m 758.17319,416.61943 c -1.88891,-3.33105 0.54454,-8.28287 5.40163,-11.16401 4.86245,-2.79087 10.44529,-2.3407 12.33511,0.99036 z m 0,0 30.4316,52.66736 17.73588,-10.26132 -30.43074,-52.57969 z m 48.16748,42.40604 c 1.88979,3.41871 -0.45531,8.37178 -5.40081,11.25389 -4.86236,2.78893 -10.35515,2.34053 -12.33507,-0.99257 z"
     style="fill:#000000;fill-opacity:1;fill-rule:nonzero;stroke:none" />
  <path
     inkscape:connector-curvature="0"
     id="path9374"
     d="m 446.03558,424.09208 -52.75762,-91.38191 52.66746,-91.20184 105.33668,0 52.66924,91.20184 -52.66924,91.20186 z"
     style="fill:none;stroke:#000000;stroke-width:20.70721436px;stroke-linecap:round;stroke-linejoin:round;stroke-miterlimit:4;stroke-dasharray:none;stroke-opacity:1" />
  <path
     inkscape:connector-curvature="0"
     id="path9376"
     d="m 235.54251,515.56477 c -3.87157,0 -7.02274,4.59027 -7.02274,10.2638 0,5.67105 3.15117,10.26132 7.02274,10.26132 z m 0,0 60.77035,0 0,20.52512 -60.77035,0 z m 60.77035,20.52512 c 3.87157,0 7.02274,-4.59027 7.02274,-10.26132 0,-5.67353 -3.15117,-10.2638 -7.02274,-10.2638 z"
     style="fill:#000000;fill-opacity:1;fill-rule:nonzero;stroke:none" />
  <path
     inkscape:connector-curvature="0"
     id="path9378"
     d="m 188.45611,601.72411 -77.78757,-134.59646 77.60725,-134.41748 155.12347,0 0,-0.0901 77.60636,-134.41685 155.21541,0 77.60635,134.41685 0,0.0901 155.2145,0 77.6064,134.41748 -77.6064,134.41507 -155.12434,0.27227 -77.69651,-134.68715 0,0 -155.03331,0.17852 -0.0892,-0.091 -77.60725,134.32687 z"
     style="fill:none;stroke:#000000;stroke-width:21.33743286px;stroke-linecap:round;stroke-linejoin:round;stroke-miterlimit:4;stroke-dasharray:none;stroke-opacity:1" />
  <path
     inkscape:connector-curvature="0"
     id="path9380"
     d="m 239.1436,416.61943 c 1.8907,-3.33105 -0.44635,-8.37275 -5.40163,-11.16401 -4.86245,-2.79087 -10.4444,-2.3407 -12.33511,0.99036 z m 0,0 -30.4307,52.66736 -17.73674,-10.26132 30.4307,-52.57969 z m -48.16744,42.40604 c -1.89069,3.41871 0.54454,8.37178 5.40254,11.25389 4.86154,2.78893 10.44349,2.34053 12.3342,-0.99257 z"
     style="fill:#000000;fill-opacity:1;fill-rule:nonzero;stroke:none" />
  <path
     inkscape:connector-curvature="0"
     id="path9382"
     d="m 213.03439,376.01534 105.60627,0 52.66836,91.20051 -52.66836,91.2031 -105.33668,0 -52.75762,-91.2031 z"
     style="fill:none;stroke:#000000;stroke-width:20.70721436px;stroke-linecap:round;stroke-linejoin:round;stroke-miterlimit:4;stroke-dasharray:none;stroke-opacity:1" />
</svg>
