<svg stroke="currentColor" fill="currentColor"
   xmlns="http://www.w3.org/2000/svg"
   width="1000"
   height="1000"
   viewBox="143.4 24.5 742.4 742.4">
  <path
     d="m 405.10078,65.97778 192.89669,0 0,414.31184 c 0,53.26973 -28.51813,249.47499 -93.3113,249.47499 -65.82005,0 -99.58539,-189.47321 -99.58539,-249.47499 z"
     style="fill:none;stroke-width:37.18760681px;stroke-linecap:round;stroke-linejoin:round;stroke-miterlimit:4;stroke-dasharray:none;stroke-opacity:1" />
  <path
     d="m 521.79702,170.81035 -116.69624,0"
     style="fill:none;stroke-width:37.30168152px;stroke-linecap:round;stroke-linejoin:round;stroke-miterlimit:4;stroke-dasharray:none;stroke-opacity:1" />
  <path
     d="m 521.79702,294.579 -116.69624,0"
     style="fill:none;stroke-width:37.30168152px;stroke-linecap:round;stroke-linejoin:round;stroke-miterlimit:4;stroke-dasharray:none;stroke-opacity:1" />
  <path
     d="m 521.79702,418.34706 -116.69624,0"
     style="fill:none;stroke-width:37.30168152px;stroke-linecap:round;stroke-linejoin:round;stroke-miterlimit:4;stroke-dasharray:none;stroke-opacity:1" />
  <path
     d="m 595.37353,501.6192 c -8.55542,90.23098 -37.30147,228.14541 -90.68736,228.14541 -54.75493,0 -87.26546,-136.31523 -96.73355,-228.14541 z"
     style="fill:none;stroke-width:37.18760681px;stroke-linecap:round;stroke-linejoin:round;stroke-miterlimit:4;stroke-dasharray:none;stroke-opacity:1" />
  <path
     d="m 595.37353,501.6192 c -8.55542,90.23098 -37.30147,228.14541 -90.68736,228.14541 -54.75493,0 -87.26546,-136.31523 -96.73355,-228.14541 z"
     style="fill-opacity:1;fill-rule:evenodd;stroke:none" />
  <path
     d="m 585.5633,92.67072 -218.10625,0"
     style="fill:none;stroke-width:37.30168152px;stroke-linecap:round;stroke-linejoin:round;stroke-miterlimit:4;stroke-dasharray:none;stroke-opacity:1" />
  <path
     d="m 629.48146,61.757118 -278.56499,0"
     style="fill:none;stroke-width:37.30168152px;stroke-linecap:round;stroke-linejoin:round;stroke-miterlimit:4;stroke-dasharray:none;stroke-opacity:1" />
  <path
     d="m 605.41212,61.642996 51.56025,0 c 11.63518,0 21.21784,10.83677 21.21784,23.955343 0,14.030871 -8.21329,25.666061 -21.21784,25.666061 l -51.56025,0 c -2.62361,0 -5.13331,-0.45583 -7.52889,-1.48271 l 0,-46.541636 c 2.39558,-1.026998 4.90528,-1.597058 7.52889,-1.597058 z"
     style="fill:none;stroke-width:37.18760681px;stroke-linecap:round;stroke-linejoin:round;stroke-miterlimit:4;stroke-dasharray:none;stroke-opacity:1" />
</svg>
