<svg stroke="currentColor" fill="currentColor"
   xmlns="http://www.w3.org/2000/svg"
   width="1000"
   height="1000"
   viewBox="0 0 1000 1000">
  <!-- Y-axis: vertical bar with arrow at top only -->
  <path stroke="none"
    d="M 118,730 L 118,80 L 142,80 L 142,730 Z" />
  <path fill="none" stroke-linecap="round" stroke-linejoin="round" stroke-width="36"
    d="M 80,145 L 130,65 L 180,145" />
  <!-- X-axis: horizontal bar with arrow at right only -->
  <path stroke="none"
    d="M 118,718 L 950,718 L 950,742 L 118,742 Z" />
  <path fill="none" stroke-linecap="round" stroke-linejoin="round" stroke-width="36"
    d="M 885,690 L 955,730 L 885,770" />
  <!-- Original curve uniformly scaled (0.844x) to fit axes, shifted down 70 units -->
  <path fill="none" stroke-linecap="round" stroke-linejoin="round" stroke-width="28"
    d="M 160,322
       c 35,-2 55,15 81,44
         41,44 51,29 128,46
         95,21 163,93 205,165
         21,36 29,34 57,3
       C 730,472 791,441 920,429" />
  <!-- "pH" label on X-axis -->
  <text x="550" y="880" text-anchor="middle" font-family="sans-serif" font-weight="bold" font-size="160" stroke="none">pH</text>
</svg>
