<?xml version="1.0" encoding="UTF-8" standalone="no"?>
<svg stroke="currentColor" fill="currentColor"
   xmlns:dc="http://purl.org/dc/elements/1.1/"
   xmlns:cc="http://creativecommons.org/ns#"
   xmlns:rdf="http://www.w3.org/1999/02/22-rdf-syntax-ns#"
   xmlns:svg="http://www.w3.org/2000/svg"
   xmlns="http://www.w3.org/2000/svg"
   xmlns:sodipodi="http://sodipodi.sourceforge.net/DTD/sodipodi-0.dtd"
   xmlns:inkscape="http://www.inkscape.org/namespaces/inkscape"
   width="1000px"
   height="1000px"
   viewBox="0 0 1000 1000"
   version="1.1"
   id="SVGRoot"
   sodipodi:docname="microscopy.svg"
   inkscape:version="1.0.1 (3bc2e813f5, 2020-09-07)">
  <defs
     id="defs853" />
  <sodipodi:namedview
     id="base"
     pagecolor="#ffffff"
     bordercolor="#666666"
     borderopacity="1.0"
     inkscape:pageopacity="0.0"
     inkscape:pageshadow="2"
     inkscape:zoom="0.35"
     inkscape:cx="400"
     inkscape:cy="560"
     inkscape:document-units="px"
     inkscape:current-layer="layer1"
     inkscape:document-rotation="0"
     showgrid="false"
     inkscape:window-width="1920"
     inkscape:window-height="1016"
     inkscape:window-x="0"
     inkscape:window-y="0"
     inkscape:window-maximized="1" />
  <metadata
     id="metadata856">
    <rdf:RDF>
      <cc:Work
         rdf:about="">
        <dc:format>image/svg+xml</dc:format>
        <dc:type
           rdf:resource="http://purl.org/dc/dcmitype/StillImage" />
        <dc:title></dc:title>
      </cc:Work>
    </rdf:RDF>
  </metadata>
  <g
     inkscape:label="Layer 1"
     inkscape:groupmode="layer"
     id="layer1">
    <ellipse
       style="fill:#333333;fill-opacity:0;stroke:#0e0000;stroke-width:24.49"
       id="path2590"
       cx="724.72302"
       cy="334.66406"
       rx="73.049751"
       ry="67.343407" />
    <path
       id="rect2592"
       style="fill:#000000;fill-opacity:1;stroke:#000000;stroke-width:27.4611;stroke-opacity:1"
       d="m 797.30591,316.42431 c 0,0 139.39137,51.76598 140.94944,153.10766 1.55805,101.3417 -0.14075,475.43869 -0.14075,475.43869 l -873.625091,-0.11232 0.251237,-56.42147 126.959674,1.73261 0.46369,-39.75232 -38.28133,-0.64614 -0.98191,-30.9978 197.06251,-1.96022 -0.68831,30.63073 -41.16271,0.55882 1.05573,43.96029 569.81534,-2.70332 c 0,0 -0.58471,-346.78817 -2.21858,-414.41027 C 875.13104,407.22718 798.9006,361.57174 798.9006,361.57174 Z"
       sodipodi:nodetypes="czcccccccccccczcc" />
    <path
       id="path2595"
       style="fill:#000000;fill-opacity:0;stroke:#000000;stroke-width:26.5622;stroke-opacity:1"
       d="m 367.92868,672.04034 c 2e-5,60.01753 -54.04374,108.67134 -120.71008,108.67134 -66.66632,0 -120.71006,-48.65381 -120.71008,-108.67134 2e-5,-60.01751 54.04376,-108.67135 120.71008,-108.67135 15.66838,0 46.86318,-77.12549 46.86318,-77.12549 1.40671,0.50098 -44.33547,-18.65671 -44.33547,-18.65671 l 155.93681,60.96928 -45.99125,-18.03559 c 0,0 -31.98397,80.11544 -25.61667,86.05361 20.96006,19.5474 33.85348,46.15128 33.85348,75.46625 z"
       sodipodi:nodetypes="ssssscccss" />
    <path
       id="path2600"
       style="fill:#000000;fill-opacity:0.989716;stroke:#000000;stroke-width:22.9634;stroke-opacity:0"
       d="m 338.42326,707.91395 c -19.40297,42.83066 -76.6704,63.89388 -127.91035,47.04618 -51.23994,-16.84785 -77.04888,-65.22677 -57.6459,-108.05742 9.21465,-20.34066 37.18801,24.5738 58.74537,15.71742 46.52545,-19.11398 43.18447,17.39095 70.09003,26.23754 51.23998,16.84776 76.12385,-23.77431 56.72085,19.05628 z"
       sodipodi:nodetypes="ssssss" />
    <rect
       style="fill:#000000;fill-opacity:0.0215363;stroke:#000000;stroke-width:34.3453;stroke-opacity:1"
       id="rect2603"
       width="346.92636"
       height="135.62373"
       x="251.72278"
       y="491.46017"
       transform="matrix(0.87765322,-0.47929617,0.54039026,0.84141451,0,0)" />
    <ellipse
       style="fill:#ffffff;fill-opacity:1;stroke:#0e0000;stroke-width:20.4084;stroke-opacity:0"
       id="path2590-8"
       cx="724.08392"
       cy="333.43491"
       inkscape:transform-center-x="4.6257172"
       inkscape:transform-center-y="-13.063127"
       rx="60.874756"
       ry="56.119484" />
    <rect
       style="fill:#000000;fill-opacity:1;stroke:#0e0000;stroke-width:24.6927;stroke-opacity:0"
       id="rect2624"
       width="25.916498"
       height="63.779026"
       x="225.75044"
       y="522.25348"
       transform="matrix(0.88989561,-0.45616422,0.51648122,0.85629851,0,0)" />
    <rect
       style="fill:#000000;fill-opacity:1;stroke:#0e0000;stroke-width:27.4954;stroke-opacity:0"
       id="rect2641"
       width="215.18564"
       height="60.361507"
       x="442.63226"
       y="-679.61804"
       transform="matrix(0.5333381,0.84590216,-0.88143377,0.47230764,0,0)" />
  </g>
</svg>
