<svg stroke="currentColor" fill="currentColor"
   xmlns="http://www.w3.org/2000/svg"
   width="1000"
   height="1000"
   viewBox="20.3 21.3 957 957">
  <g
     transform="matrix(15.374652,0,0,15.374652,89.272315,55.464108)"
     style="clip-rule:evenodd;fill-rule:evenodd;image-rendering:optimizeQuality;shape-rendering:geometricPrecision;text-rendering:geometricPrecision">
    <path
       style="fill:none;stroke-width:1.77542996;stroke-linecap:round;stroke-linejoin:round"
       d="m 9.54271,0.887715 c -4.78002,0 -8.65499,3.87497 -8.65499,8.65508 0,4.78002 3.87497,8.65499 8.65499,8.65499 4.7801,0 8.65508,-3.87497 8.65508,-8.65499 0,-4.7801 -3.87497,-8.65508 -8.65508,-8.65508 z"
       class="fil0 str0" />
  </g>
  <g
     transform="matrix(15.374652,0,0,15.374652,89.272315,55.464108)"
     style="clip-rule:evenodd;fill-rule:evenodd;image-rendering:optimizeQuality;shape-rendering:geometricPrecision;text-rendering:geometricPrecision">
    <line
       style="fill:none;stroke-width:1.77542996;stroke-linecap:round;stroke-linejoin:round"
       y2="9.5427904"
       x2="13.061"
       y1="9.5427904"
       x1="6.0244002"
       class="fil0 str0" />
  </g>
  <g
     transform="matrix(15.374652,0,0,15.374652,89.272315,55.464108)"
     style="clip-rule:evenodd;fill-rule:evenodd;image-rendering:optimizeQuality;shape-rendering:geometricPrecision;text-rendering:geometricPrecision">
    <line
       style="fill:none;stroke-width:1.77542996;stroke-linecap:round;stroke-linejoin:round"
       y2="13.0611"
       x2="9.5427103"
       y1="6.0244799"
       x1="9.5427103"
       class="fil0 str0" />
  </g>
  <g
     transform="matrix(15.374652,0,0,15.374652,89.272315,55.464108)"
     style="clip-rule:evenodd;fill-rule:evenodd;image-rendering:optimizeQuality;shape-rendering:geometricPrecision;text-rendering:geometricPrecision">
    <path
       style="fill:none;stroke-width:1.77542996;stroke-linecap:round;stroke-linejoin:round"
       d="m 43.7289,0.887715 c -4.78002,0 -8.65499,3.87497 -8.65499,8.65508 0,4.78002 3.87497,8.65499 8.65499,8.65499 4.7801,0 8.65508,-3.87497 8.65508,-8.65499 0,-4.7801 -3.87497,-8.65508 -8.65508,-8.65508 z"
       class="fil0 str0" />
  </g>
  <g
     transform="matrix(15.374652,0,0,15.374652,89.272315,55.464108)"
     style="clip-rule:evenodd;fill-rule:evenodd;image-rendering:optimizeQuality;shape-rendering:geometricPrecision;text-rendering:geometricPrecision">
    <line
       style="fill:none;stroke-width:1.77542996;stroke-linecap:round;stroke-linejoin:round"
       y2="9.5427904"
       x2="47.247299"
       y1="9.5427904"
       x1="40.210602"
       class="fil0 str0" />
  </g>
  <g
     transform="matrix(15.374652,0,0,15.374652,89.272315,55.464108)"
     style="clip-rule:evenodd;fill-rule:evenodd;image-rendering:optimizeQuality;shape-rendering:geometricPrecision;text-rendering:geometricPrecision">
    <path
       style="fill:none;fill-rule:nonzero;stroke-width:1.77542996;stroke-linecap:round;stroke-linejoin:round"
       d="m 9.5565,32.7331 c 2.00281,0 3.63649,-1.63344 3.63649,-3.63624 0,-2.00297 -1.63369,-3.63649 -3.63649,-3.63649 -2.00272,0 -3.63708,1.63352 -3.63708,3.63649 0,2.00281 1.63436,3.63624 3.63708,3.63624 z"
       class="fil1 str0" />
  </g>
  <g
     transform="matrix(15.374652,0,0,15.374652,89.272315,55.464108)"
     style="clip-rule:evenodd;fill-rule:evenodd;image-rendering:optimizeQuality;shape-rendering:geometricPrecision;text-rendering:geometricPrecision">
    <line
       style="fill:none;fill-rule:nonzero;stroke-width:1.77542996;stroke-linecap:round;stroke-linejoin:round"
       y2="49.225498"
       x2="19.388"
       y1="52.586201"
       x1="27.349701"
       class="fil1 str0" />
  </g>
  <g
     transform="matrix(15.374652,0,0,15.374652,89.272315,55.464108)"
     style="clip-rule:evenodd;fill-rule:evenodd;image-rendering:optimizeQuality;shape-rendering:geometricPrecision;text-rendering:geometricPrecision">
    <path
       style="fill:none;fill-rule:nonzero;stroke-width:1.77542996;stroke-linecap:round;stroke-linejoin:round"
       d="m 23.1647,26.4159 c 2.00281,0 3.63649,-1.63344 3.63649,-3.63624 0,-2.00297 -1.63369,-3.63641 -3.63649,-3.63641 -2.00272,0 -3.637,1.63344 -3.637,3.63641 0,2.00281 1.63428,3.63624 3.637,3.63624 z"
       class="fil1 str0" />
  </g>
  <g
     transform="matrix(15.374652,0,0,15.374652,89.272315,55.464108)"
     style="clip-rule:evenodd;fill-rule:evenodd;image-rendering:optimizeQuality;shape-rendering:geometricPrecision;text-rendering:geometricPrecision">
    <path
       style="fill:none;fill-rule:nonzero;stroke-width:1.77542996;stroke-linecap:round;stroke-linejoin:round"
       d="m 28.4847,40.0968 c 2.00281,0 3.63649,-1.63344 3.63649,-3.63616 0,-2.00306 -1.63369,-3.63649 -3.63649,-3.63649 -2.00281,0 -3.637,1.63344 -3.637,3.63649 0,2.00272 1.63419,3.63616 3.637,3.63616 z"
       class="fil1 str0" />
  </g>
  <g
     transform="matrix(15.374652,0,0,15.374652,89.272315,55.464108)"
     style="clip-rule:evenodd;fill-rule:evenodd;image-rendering:optimizeQuality;shape-rendering:geometricPrecision;text-rendering:geometricPrecision">
    <path
       style="fill:none;fill-rule:nonzero;stroke-width:1.77542996;stroke-linecap:round;stroke-linejoin:round"
       d="m 16.3695,50.1459 c 2.00281,0 3.63666,-1.63344 3.63666,-3.63624 0,-2.00297 -1.63386,-3.63641 -3.63666,-3.63641 -2.00281,0 -3.637,1.63344 -3.637,3.63641 0,2.00281 1.63419,3.63624 3.637,3.63624 z"
       class="fil1 str0" />
  </g>
  <g
     transform="matrix(15.374652,0,0,15.374652,89.272315,55.464108)"
     style="clip-rule:evenodd;fill-rule:evenodd;image-rendering:optimizeQuality;shape-rendering:geometricPrecision;text-rendering:geometricPrecision">
    <path
       style="fill:none;fill-rule:nonzero;stroke-width:1.77542996;stroke-linecap:round;stroke-linejoin:round"
       d="m 31.1144,56.9078 c 2.00281,0 3.63641,-1.63344 3.63641,-3.63624 0,-2.00306 -1.6336,-3.63649 -3.63641,-3.63649 -2.00281,0 -3.63708,1.63344 -3.63708,3.63649 0,2.00281 1.63428,3.63624 3.63708,3.63624 z"
       class="fil1 str0" />
  </g>
  <g
     transform="matrix(15.374652,0,0,15.374652,89.272315,55.464108)"
     style="clip-rule:evenodd;fill-rule:evenodd;image-rendering:optimizeQuality;shape-rendering:geometricPrecision;text-rendering:geometricPrecision">
    <line
       style="fill:none;fill-rule:nonzero;stroke-width:1.77542996;stroke-linecap:round;stroke-linejoin:round"
       y2="25.987499"
       x2="24.8109"
       y1="32.817799"
       x1="27.6784"
       class="fil1 str0" />
  </g>
  <g
     transform="matrix(15.374652,0,0,15.374652,89.272315,55.464108)"
     style="clip-rule:evenodd;fill-rule:evenodd;image-rendering:optimizeQuality;shape-rendering:geometricPrecision;text-rendering:geometricPrecision">
    <line
       style="fill:none;fill-rule:nonzero;stroke-width:1.77542996;stroke-linecap:round;stroke-linejoin:round"
       y2="44.265301"
       x2="19.855801"
       y1="39.0271"
       x1="25.674299"
       class="fil1 str0" />
  </g>
  <g
     transform="matrix(15.374652,0,0,15.374652,89.272315,55.464108)"
     style="clip-rule:evenodd;fill-rule:evenodd;image-rendering:optimizeQuality;shape-rendering:geometricPrecision;text-rendering:geometricPrecision">
    <line
       style="fill:none;fill-rule:nonzero;stroke-width:1.77542996;stroke-linecap:round;stroke-linejoin:round"
       y2="27.381599"
       x2="13.0895"
       y1="24.3416"
       x1="19.8762"
       class="fil1 str0" />
  </g>
  <g
     transform="matrix(15.374652,0,0,15.374652,89.272315,55.464108)"
     style="clip-rule:evenodd;fill-rule:evenodd;image-rendering:optimizeQuality;shape-rendering:geometricPrecision;text-rendering:geometricPrecision">
    <path
       style="fill:none;fill-rule:nonzero;stroke-width:1.77542996;stroke-linecap:round;stroke-linejoin:round"
       d="m 44.92,49.2067 c 2.00272,0 3.63641,-1.63344 3.63641,-3.63624 0,-2.00297 -1.63369,-3.63641 -3.63641,-3.63641 -2.00281,0 -3.63708,1.63344 -3.63708,3.63641 0,2.00281 1.63428,3.63624 3.63708,3.63624 z"
       class="fil1 str0" />
  </g>
  <g
     transform="matrix(15.374652,0,0,15.374652,89.272315,55.464108)"
     style="clip-rule:evenodd;fill-rule:evenodd;image-rendering:optimizeQuality;shape-rendering:geometricPrecision;text-rendering:geometricPrecision">
    <path
       style="fill:none;fill-rule:nonzero;stroke-width:1.77542996;stroke-linecap:round;stroke-linejoin:round"
       d="m 40.9755,34.2741 c 2.00281,0 3.63666,-1.63344 3.63666,-3.63624 0,-2.00306 -1.63386,-3.63649 -3.63666,-3.63649 -2.00281,0 -3.63708,1.63344 -3.63708,3.63649 0,2.00281 1.63428,3.63624 3.63708,3.63624 z"
       class="fil1 str0" />
  </g>
  <g
     transform="matrix(15.374652,0,0,15.374652,89.272315,55.464108)"
     style="clip-rule:evenodd;fill-rule:evenodd;image-rendering:optimizeQuality;shape-rendering:geometricPrecision;text-rendering:geometricPrecision">
    <line
       style="fill:none;fill-rule:nonzero;stroke-width:1.77542996;stroke-linecap:round;stroke-linejoin:round"
       y2="51.178902"
       x2="34.789902"
       y1="47.517799"
       x1="41.4221"
       class="fil1 str0" />
  </g>
  <g
     transform="matrix(15.374652,0,0,15.374652,89.272315,55.464108)"
     style="clip-rule:evenodd;fill-rule:evenodd;image-rendering:optimizeQuality;shape-rendering:geometricPrecision;text-rendering:geometricPrecision">
    <line
       style="fill:none;fill-rule:nonzero;stroke-width:1.77542996;stroke-linecap:round;stroke-linejoin:round"
       y2="34.143501"
       x2="41.921902"
       y1="41.917301"
       x1="43.989601"
       class="fil1 str0" />
  </g>
</svg>
