<?xml version="1.0" encoding="UTF-8" standalone="no"?>
<!-- Created with Inkscape (http://www.inkscape.org/) -->

<svg stroke="currentColor" fill="currentColor"
   xmlns:dc="http://purl.org/dc/elements/1.1/"
   xmlns:cc="http://creativecommons.org/ns#"
   xmlns:rdf="http://www.w3.org/1999/02/22-rdf-syntax-ns#"
   xmlns:svg="http://www.w3.org/2000/svg"
   xmlns="http://www.w3.org/2000/svg"
   xmlns:sodipodi="http://sodipodi.sourceforge.net/DTD/sodipodi-0.dtd"
   xmlns:inkscape="http://www.inkscape.org/namespaces/inkscape"
   width="1000"
   height="1000"
   id="svg4152"
   version="1.1"
   inkscape:version="0.91 r13725"
   viewBox="0 0 1000 1000"
   sodipodi:docname="petri.svg">
  <defs
     id="defs5498">
    <marker
       inkscape:isstock="true"
       style="overflow:visible"
       id="marker4233"
       refX="0.0"
       refY="0.0"
       orient="auto"
       inkscape:stockid="TriangleOutL">
      <path
         transform="scale(0.8)"
         style="fill-rule:evenodd;stroke:#000000;stroke-width:1pt;stroke-opacity:1;fill:#000000;fill-opacity:1"
         d="M 5.77,0.0 L -2.88,5.0 L -2.88,-5.0 L 5.77,0.0 z "
         id="path4235" />
    </marker>
    <marker
       inkscape:isstock="true"
       style="overflow:visible"
       id="marker4755"
       refX="0.0"
       refY="0.0"
       orient="auto"
       inkscape:stockid="TriangleOutL">
      <path
         transform="scale(0.8)"
         style="fill-rule:evenodd;stroke:#000000;stroke-width:1pt;stroke-opacity:1;fill:#000000;fill-opacity:1"
         d="M 5.77,0.0 L -2.88,5.0 L -2.88,-5.0 L 5.77,0.0 z "
         id="path4757" />
    </marker>
    <marker
       inkscape:stockid="Arrow1Lend"
       orient="auto"
       refY="0.0"
       refX="0.0"
       id="Arrow1Lend"
       style="overflow:visible;"
       inkscape:isstock="true">
      <path
         id="path4164"
         d="M 0.0,0.0 L 5.0,-5.0 L -12.5,0.0 L 5.0,5.0 L 0.0,0.0 z "
         style="fill-rule:evenodd;stroke:#000000;stroke-width:1pt;stroke-opacity:1;fill:#000000;fill-opacity:1"
         transform="scale(0.8) rotate(180) translate(12.5,0)" />
    </marker>
    <marker
       inkscape:stockid="Arrow2Lend"
       orient="auto"
       refY="0.0"
       refX="0.0"
       id="Arrow2Lend"
       style="overflow:visible;"
       inkscape:isstock="true">
      <path
         id="path4182"
         style="fill-rule:evenodd;stroke-width:0.625;stroke-linejoin:round;stroke:#000000;stroke-opacity:1;fill:#000000;fill-opacity:1"
         d="M 8.7185878,4.0337352 L -2.2072895,0.016013256 L 8.7185884,-4.0017078 C 6.9730900,-1.6296469 6.9831476,1.6157441 8.7185878,4.0337352 z "
         transform="scale(1.1) rotate(180) translate(1,0)" />
    </marker>
    <pattern
       y="0"
       x="0"
       height="6"
       width="6"
       patternUnits="userSpaceOnUse"
       id="EMFhbasepattern" />
  </defs>
  <sodipodi:namedview
     inkscape:window-height="838"
     inkscape:window-width="1440"
     inkscape:pageshadow="2"
     inkscape:pageopacity="0.0"
     borderopacity="1.0"
     bordercolor="#666666"
     pagecolor="#ffffff"
     id="base"
     showgrid="true"
     showguides="true"
     inkscape:guide-bbox="true"
     inkscape:zoom="0.5"
     inkscape:cx="357.82213"
     inkscape:cy="459.29481"
     inkscape:window-x="-8"
     inkscape:window-y="-8"
     inkscape:current-layer="svg4152"
     inkscape:window-maximized="1"
     objecttolerance="20">
    <sodipodi:guide
       orientation="horizontal"
       position="200"
       id="guide5596" />
    <inkscape:grid
       type="xygrid"
       id="grid3430"
       empspacing="50" />
    <sodipodi:guide
       position="550,1000"
       orientation="0,1"
       id="guide4169" />
  </sodipodi:namedview>
  <metadata
     id="metadata5594">
    <rdf:RDF>
      <cc:Work
         rdf:about="">
        <dc:format>image/svg+xml</dc:format>
        <dc:type
           rdf:resource="http://purl.org/dc/dcmitype/StillImage" />
        <dc:title></dc:title>
      </cc:Work>
    </rdf:RDF>
  </metadata>
  <path
     inkscape:connector-curvature="0"
     id="path4485"
     d="m 389.72786,447.68195 0,63.0767 0,0 c 0,0.6446 0,1.29082 0,1.93575 0,76.62814 111.31157,138.8977 248.75928,138.8977 137.44546,0 248.91586,-62.26956 248.91586,-138.8977 0,-0.64461 0,-1.29082 -0.16316,-1.93575 l 0.16316,0 0,-63.0767 c -164.54902,0 -333.12933,0 -497.67514,0 z"
     style="fill:none;stroke:#000000;stroke-width:48.39629364px;stroke-linecap:round;stroke-linejoin:round;stroke-miterlimit:4;stroke-dasharray:none;stroke-opacity:1" />
  <path
     inkscape:connector-curvature="0"
     id="path4487"
     d="m 389.72786,447.68195 0,63.0767 0,0 c 0,0.6446 0,1.29082 0,1.93575 0,76.62814 111.31157,138.8977 248.75928,138.8977 137.44546,0 248.91586,-62.26956 248.91586,-138.8977 0,-0.64461 0,-1.29082 -0.16316,-1.93575 l 0.16316,0 0,-63.0767 c -164.54902,0 -333.12933,0 -497.67514,0 z"
     style="fill:#000000;fill-opacity:1;fill-rule:evenodd;stroke:none" />
  <path
     inkscape:connector-curvature="0"
     id="path4489"
     d="m 638.48714,285.71588 c -137.44771,0 -248.75928,71.78793 -248.75928,160.19155 0,88.5655 111.31157,160.35262 248.75928,160.35262 137.44546,0 248.91586,-71.78712 248.91586,-160.35262 0,-88.40362 -111.4704,-160.19155 -248.91586,-160.19155 z"
     style="fill:none;stroke:#000000;stroke-width:48.39629364px;stroke-linecap:round;stroke-linejoin:round;stroke-miterlimit:4;stroke-dasharray:none;stroke-opacity:1" />
  <path
     inkscape:connector-curvature="0"
     id="path4491"
     d="m 638.48714,285.71588 c -137.44771,0 -248.75928,71.78793 -248.75928,160.19155 0,88.5655 111.31157,160.35262 248.75928,160.35262 137.44546,0 248.91586,-71.78712 248.91586,-160.35262 0,-88.40362 -111.4704,-160.19155 -248.91586,-160.19155 z"
     style="fill:#fefefe;fill-opacity:1;fill-rule:evenodd;stroke:none" />
  <path
     inkscape:connector-curvature="0"
     id="path4493"
     d="m 567.01736,362.18199 c -10.32408,-2.74242 -20.96868,3.3875 -23.71333,13.71204 -2.74017,10.32454 3.39022,20.97187 13.71428,23.87583 10.32406,2.74242 20.97331,-3.38782 23.71348,-13.71236 2.90252,-10.48577 -3.38574,-21.1331 -13.71443,-23.87551 z"
     style="fill:#000000;fill-opacity:1;fill-rule:evenodd;stroke:none" />
  <path
     inkscape:connector-curvature="0"
     id="path4495"
     d="m 756.08792,361.69813 c -10.48658,-2.90413 -21.13118,3.22627 -23.87599,13.71204 -2.74001,10.32454 3.39022,20.97187 13.71444,23.71428 10.48211,2.74242 21.13119,-3.3875 23.87583,-13.71204 2.74017,-10.32454 -3.39022,-20.97187 -13.71428,-23.71428 z"
     style="fill:#000000;fill-opacity:1;fill-rule:evenodd;stroke:none" />
  <path
     inkscape:connector-curvature="0"
     id="path4497"
     d="m 691.5611,440.58369 c -10.32406,-2.74242 -20.97314,3.38798 -23.87583,13.71252 -2.74465,10.48578 3.38574,21.1331 13.87232,23.87551 10.32406,2.74242 20.97314,-3.3875 23.71331,-13.71204 2.74466,-10.32454 -3.38558,-20.97187 -13.7098,-23.87599 z"
     style="fill:#000000;fill-opacity:1;fill-rule:evenodd;stroke:none" />
  <path
     inkscape:connector-curvature="0"
     id="path4499"
     d="m 507.16966,477.04261 c -10.32454,-2.74241 -20.97187,3.3875 -23.71428,13.71205 -2.90397,10.48625 3.22643,21.1331 13.71205,23.8755 10.32454,2.74242 20.9741,-3.38749 23.71427,-13.71203 2.74465,-10.48627 -3.38558,-21.1331 -13.71204,-23.87552 z"
     style="fill:#000000;fill-opacity:1;fill-rule:evenodd;stroke:none" />
  <path
     inkscape:connector-curvature="0"
     id="path4501"
     d="m 447.80375,450.90823 c 19.35841,-20.00351 42.42712,-26.77899 69.85025,-18.71285"
     style="fill:none;stroke:#000000;stroke-width:16.13209724px;stroke-linecap:round;stroke-linejoin:round;stroke-miterlimit:4;stroke-dasharray:none;stroke-opacity:1" />
  <path
     inkscape:connector-curvature="0"
     id="path4503"
     d="m 738.50484,444.13291 c 10.96963,25.4888 30.16425,40.16904 58.55895,42.4276"
     style="fill:none;stroke:#000000;stroke-width:16.13209724px;stroke-linecap:round;stroke-linejoin:round;stroke-miterlimit:4;stroke-dasharray:none;stroke-opacity:1" />
  <path
     inkscape:connector-curvature="0"
     id="path4505"
     d="m 692.52722,400.41496 c -19.19909,19.84243 -42.267,26.77948 -69.6911,18.71348"
     style="fill:none;stroke:#000000;stroke-width:16.13209724px;stroke-linecap:round;stroke-linejoin:round;stroke-miterlimit:4;stroke-dasharray:none;stroke-opacity:1" />
  <path
     inkscape:connector-curvature="0"
     id="path4507"
     d="m 577.34605,551.89525 c 19.19462,-20.0035 42.26236,-26.779 69.69109,-18.71284"
     style="fill:none;stroke:#000000;stroke-width:16.13209724px;stroke-linecap:round;stroke-linejoin:round;stroke-miterlimit:4;stroke-dasharray:none;stroke-opacity:1" />
  <path
     inkscape:connector-curvature="0"
     id="path4509"
     d="m 592.02646,447.68195 c -10.48673,-2.7424 -21.13582,3.38799 -23.87599,13.8736 -2.74465,10.32454 3.38574,20.97188 13.7098,23.71428 10.32406,2.74242 20.97331,-3.38797 23.87583,-13.71251 2.74481,-10.32454 -3.38558,-20.9714 -13.70964,-23.87537 z"
     style="fill:none;stroke:#000000;stroke-width:16.13209724px;stroke-linecap:round;stroke-linejoin:round;stroke-miterlimit:4;stroke-dasharray:none;stroke-opacity:1" />
  <path
     inkscape:connector-curvature="0"
     id="path4511"
     d="m 823.8423,409.28776 c -10.32406,-2.7424 -20.97315,3.38751 -23.71332,13.71205 -2.90268,10.48609 3.38558,21.1331 13.7098,23.87583 10.32855,2.7424 20.97315,-3.38783 23.7178,-13.71237 2.74017,-10.32454 -3.39022,-20.97186 -13.71428,-23.87551 z"
     style="fill:none;stroke:#000000;stroke-width:16.13209724px;stroke-linecap:round;stroke-linejoin:round;stroke-miterlimit:4;stroke-dasharray:none;stroke-opacity:1" />
  <path
     inkscape:connector-curvature="0"
     id="path4513"
     d="m 663.00405,339.59715 c -10.32422,-2.74242 -20.96882,3.38749 -23.71347,13.71203 -2.74017,10.32454 3.39022,20.97188 13.71428,23.87552 10.32422,2.74241 20.96884,-3.3875 23.87599,-13.71205 2.74017,-10.48625 -3.39021,-21.1331 -13.8768,-23.8755 z"
     style="fill:none;stroke:#000000;stroke-width:16.13209724px;stroke-linecap:round;stroke-linejoin:round;stroke-miterlimit:4;stroke-dasharray:none;stroke-opacity:1" />
  <path
     inkscape:connector-curvature="0"
     id="path4515"
     d="m 715.75748,506.08016 c -10.32406,-2.74242 -20.97315,3.38797 -23.87583,13.71251 -2.74017,10.32454 3.39022,20.97188 13.71428,23.87535 10.48209,2.74242 21.13119,-3.38797 23.87599,-13.87358 2.74001,-10.32454 -3.39023,-20.97188 -13.71444,-23.71428 z"
     style="fill:none;stroke:#000000;stroke-width:16.13209724px;stroke-linecap:round;stroke-linejoin:round;stroke-miterlimit:4;stroke-dasharray:none;stroke-opacity:1" />
  <path
     inkscape:connector-curvature="0"
     id="path4517"
     d="m 116.61146,423.64538 19.6812,36.13565 0,0 c 0.16155,0.48467 0.3231,0.80617 0.64461,1.12927 23.87583,44.04057 141.15624,26.45669 261.82399,-39.3624 120.82897,-65.6577 199.23244,-154.54549 175.1941,-198.58606 -0.16316,-0.32312 -0.31992,-0.64462 -0.64622,-1.12927 l 0.16314,0 -19.84466,-36.13567 C 409.0858,264.26032 261.15456,344.92105 116.61098,423.64554 Z"
     style="fill:none;stroke:#000000;stroke-width:48.39629364px;stroke-linecap:round;stroke-linejoin:round;stroke-miterlimit:4;stroke-dasharray:none;stroke-opacity:1" />
  <path
     inkscape:connector-curvature="0"
     id="path4519"
     d="m 116.61146,423.64538 19.6812,36.13565 0,0 c 0.16155,0.48467 0.3231,0.80617 0.64461,1.12927 23.87583,44.04057 141.15624,26.45669 261.82399,-39.3624 120.82897,-65.6577 199.23244,-154.54549 175.1941,-198.58606 -0.16316,-0.32312 -0.31992,-0.64462 -0.64622,-1.12927 l 0.16314,0 -19.84466,-36.13567 C 409.0858,264.26032 261.15456,344.92105 116.61098,423.64554 Z"
     style="fill:#fefefe;fill-opacity:1;fill-rule:evenodd;stroke:none" />
  <path
     inkscape:connector-curvature="0"
     id="path4521"
     d="m 292.28989,225.86547 c -120.8293,65.65803 -200.68306,151.9648 -178.42085,192.6174 22.10083,40.8143 137.92934,20.48784 258.59757,-45.1697 120.82945,-65.65753 200.68113,-151.96462 178.42131,-192.77846 -22.10178,-40.65306 -137.9298,-20.48784 -258.59803,45.33076 z"
     style="fill:none;stroke:#000000;stroke-width:48.39629364px;stroke-linecap:round;stroke-linejoin:round;stroke-miterlimit:4;stroke-dasharray:none;stroke-opacity:1" />
  <path
     inkscape:connector-curvature="0"
     id="path4523"
     d="m 292.28989,225.86547 c -120.8293,65.65803 -200.68306,151.9648 -178.42085,192.6174 22.10083,40.8143 137.92934,20.48784 258.59757,-45.1697 120.82945,-65.65753 200.68113,-151.96462 178.42131,-192.77846 -22.10178,-40.65306 -137.9298,-20.48784 -258.59803,45.33076 z"
     style="fill:#000000;fill-opacity:1;fill-rule:evenodd;stroke:none" />
</svg>
