<?xml version="1.0" encoding="UTF-8" standalone="no"?>
<svg stroke="currentColor" fill="currentColor"
   xmlns:dc="http://purl.org/dc/elements/1.1/"
   xmlns:cc="http://creativecommons.org/ns#"
   xmlns:rdf="http://www.w3.org/1999/02/22-rdf-syntax-ns#"
   xmlns:svg="http://www.w3.org/2000/svg"
   xmlns="http://www.w3.org/2000/svg"
   xmlns:sodipodi="http://sodipodi.sourceforge.net/DTD/sodipodi-0.dtd"
   xmlns:inkscape="http://www.inkscape.org/namespaces/inkscape"
   width="1000px"
   height="1000px"
   viewBox="0 0 1000 1000"
   version="1.1"
   id="SVGRoot"
   sodipodi:docname="seahorse.svg"
   inkscape:version="1.0.1 (3bc2e813f5, 2020-09-07)">
  <defs
     id="defs853" />
  <sodipodi:namedview
     id="base"
     pagecolor="#ffffff"
     bordercolor="#666666"
     borderopacity="1.0"
     inkscape:pageopacity="0.0"
     inkscape:pageshadow="2"
     inkscape:zoom="0.35"
     inkscape:cx="400"
     inkscape:cy="560"
     inkscape:document-units="px"
     inkscape:current-layer="layer1"
     inkscape:document-rotation="0"
     showgrid="false"
     inkscape:window-width="1920"
     inkscape:window-height="1016"
     inkscape:window-x="0"
     inkscape:window-y="0"
     inkscape:window-maximized="1" />
  <metadata
     id="metadata856">
    <rdf:RDF>
      <cc:Work
         rdf:about="">
        <dc:format>image/svg+xml</dc:format>
        <dc:type
           rdf:resource="http://purl.org/dc/dcmitype/StillImage" />
        <dc:title></dc:title>
      </cc:Work>
    </rdf:RDF>
  </metadata>
  <g
     inkscape:label="Layer 1"
     inkscape:groupmode="layer"
     id="layer1">
    <path
       id="path92"
       style="fill:#000000;fill-opacity:1;fill-rule:evenodd;stroke:#000000;stroke-width:1.04214;stroke-opacity:1"
       d="m 456.00427,719.54782 c -11.38138,22.26114 -24.08504,58.2103 -11.60027,95.90243 1.9026,5.74408 31.47919,96.86249 121.72083,97.08895 36.69324,0.0921 105.80472,-30.09115 85.41699,-108.0244 -1.05857,-4.04635 -15.12485,-41.08252 -55.24066,-35.10403 -40.46546,6.03061 -60.34188,54.08941 -69.44159,46.29278 -10.58729,-9.07124 10.71397,-68.5221 68.9111,-78.56901 76.01869,-13.12354 109.70217,24.83971 121.26274,57.34882 10.48058,29.47203 3.057,61.88921 0.30304,69.26988 C 692.01154,931.62523 634.02249,988.95803 519.39274,987.26712 404.67023,985.57505 292.26843,882.7291 282.27226,791.70809 c -1.50716,-13.72336 -4.82281,-53.62446 3.82516,-89.35606 7.76508,-32.08367 21.83435,-51.57449 19.19125,-61.53481 -1.26553,-4.76906 -2.39038,-5.05705 -7.67466,-5.64275 -21.85837,-2.42271 -75.3848,17.81661 -86.7389,15.41282 0,0 25.37931,-31.50882 9.58958,-43.53305 -15.66684,-11.93065 -61.32491,-13.59812 -61.32491,-13.59812 11.79258,-10.46749 64.62326,-18.55893 62.27339,-38.68324 -2.18937,-18.75002 -44.95948,-15.12532 -64.81756,-26.89536 -4.10514,-2.43317 65.17957,-6.45599 73.07518,-30.87829 5.16579,-15.97856 -34.43007,-44.60685 -35.48066,-53.46766 -0.43444,-3.66391 36.68563,18.54075 72.71523,14.0769 16.57018,-2.05295 36.49057,-7.66934 57.62877,-26.3421 3.05686,-2.70035 7.38115,31.50336 19.22785,49.89733 4.43348,6.88376 12.49954,9.34638 18.21358,10.02659 5.17091,0.61553 17.17909,-1.1804 27.74507,-6.42863 6.27221,-3.11549 13.3715,-6.39621 14.57955,-13.98588 1.2892,-8.09977 -28.14253,-28.58145 -47.43031,-54.43144 -14.93696,-20.01896 -20.09267,-44.83859 -23.54424,-59.63162 -5.79181,-24.82314 1.32768,-54.72384 7.19777,-66.9169 39.52786,-82.10525 53.49949,-67.8121 58.06893,-89.2923 2.45491,-11.54028 -48.18508,-32.79986 -45.63059,-41.31101 0.81054,-2.70058 30.21526,-15.51779 33.22845,-27.85504 9.82619,-40.232535 -10.39309,-40.186946 -3.74559,-42.748806 8.82183,-3.399811 16.96574,2.670984 44.25193,-8.847757 24.9683,-10.540256 6.35529,-43.662554 14.86603,-44.524182 17.89364,-1.811556 20.20932,18.288023 42.42006,18.288023 12.53093,0 46.44943,-30.777831 59.33817,-31.109149 5.31986,-0.136748 -3.55648,21.048211 1.68785,21.061724 2.34064,0.0059 2.78106,2.819539 7.63933,2.45343 12.69649,-0.956791 29.74599,-11.533525 42.40618,-11.717793 7.2674,-0.105779 -11.00077,25.293914 -3.90306,25.656422 2.17186,0.110915 3.44654,1.809217 5.65646,1.920235 21.98687,1.104543 33.82918,6.120339 52.57805,19.709685 4.93266,3.575274 16.25737,18.591048 23.78563,37.258978 8.99682,22.30959 14.52006,53.13684 23.81454,60.40279 7.80513,6.10161 14.24433,24.38959 29.73403,39.04649 29.34205,27.7644 72.21923,53.33896 85.31572,67.68844 4.67037,5.1172 3.54977,9.97701 1.75003,15.49335 -3.85877,11.82726 -9.22511,11.65892 -35.71682,18.87341 -3.99738,1.08861 -19.31851,-2.8208 -33.09308,-9.17672 -10.75381,-4.96207 -18.1813,-11.88433 -34.17565,-16.0072 -20.73968,-5.34609 -45.56117,-5.18972 -64.10699,-7.38452 -25.11625,-2.97241 -20.67141,-0.81362 -30.94659,-2.35489 -7.19706,-1.07954 -34.13272,-8.0609 -48.14451,-23.99572 -11.8346,-13.45886 -11.33931,-36.71459 -13.61363,-33.47834 -2.32585,3.30955 -37.45986,37.35254 -13.26361,61.9911 3.7951,3.86448 8.03496,10.35202 34.86828,25.98536 33.27347,19.38544 96.58106,50.90263 125.27161,80.51818 31.34029,32.35071 37.50861,87.17761 36.87359,106.83284 -0.36876,11.41353 -9.30872,29.58092 -12.94977,37.04293 -3.2936,6.74998 -29.30899,38.09472 -63.18272,59.61135 -32.77113,20.8163 -93.0143,35.895 -129.51101,55.59881 -52.08114,28.11748 -73.34017,58.74267 -76.09038,64.12188 z"
       sodipodi:nodetypes="ssssssssssssssssssssssssssssssssssssssssssssssssssssssssssssssss" />
  </g>
</svg>
