<!-- Generator: Adobe Illustrator 15.0.0, SVG Export Plug-In . SVG Version: 6.00 Build 0)  -->

<svg stroke="currentColor" fill="currentColor"
   xmlns="http://www.w3.org/2000/svg"
   x="0px"
   y="0px"
   width="1000px"
   height="1000px"
   viewBox="0 0 1000 1000"
   enable-background="new 0 0 1000 1000"><path
     stroke-miterlimit="22.9256"
     d="m 419.367,668.216 c -175.831,0 -319.25,-143.418 -319.25,-319.251 0,-175.839 143.417,-319.264 319.25,-319.264 175.84,0 319.259,143.423 319.259,319.264 0,175.833 -143.418,319.251 -319.259,319.251"
     style="fill:none;stroke-width:46.91009903;stroke-linecap:round;stroke-linejoin:round;stroke-miterlimit:22.92560005" /><polyline
     stroke-miterlimit="22.9256"
     points="    897.765,890.229 661.895,574.439 579.326,636.111 815.197,951.902   "
     style="fill:none;stroke-width:46.90850067;stroke-linecap:round;stroke-linejoin:round;stroke-miterlimit:22.92560005" /><path
     stroke-miterlimit="22.9256"
     d="m 815.197,951.902 c 12.543,16.792 36.556,20.275 53.355,7.72"
     style="fill:none;stroke-width:46.90850067;stroke-linecap:round;stroke-linejoin:round;stroke-miterlimit:22.92560005" /><line
     stroke-miterlimit="22.9256"
     x1="868.55298"
     y1="959.62402"
     x2="890.03699"
     y2="943.57001"
     style="fill:none;stroke-width:46.90850067;stroke-linecap:round;stroke-linejoin:round;stroke-miterlimit:22.92560005" /><path
     stroke-miterlimit="22.9256"
     d="m 890.037,943.57 c 16.795,-12.541 20.277,-36.542 7.728,-53.342"
     style="fill:none;stroke-width:46.90850067;stroke-linecap:round;stroke-linejoin:round;stroke-miterlimit:22.92560005" /><path
     stroke-miterlimit="22.9256"
     d="m 419.367,610.974 c -144.301,0 -262.007,-117.703 -262.007,-262.009 0,-144.317 117.706,-262.011 262.007,-262.011 144.314,0 262.009,117.694 262.009,262.011 10e-4,144.306 -117.693,262.009 -262.009,262.009"
     style="fill:none;stroke-width:21.58580017;stroke-linecap:round;stroke-linejoin:round;stroke-miterlimit:22.92560005" /><path
     d="M 541.02637,505.55053 C 537.80922,321.97871 296.63493,345.73459 312.49101,185.92105"
     style="fill:none;stroke-width:35.22377396px;stroke-linecap:round;stroke-linejoin:round;stroke-miterlimit:4;stroke-dasharray:none;stroke-opacity:1" /><path
     d="M 311.68682,505.55053 C 314.90396,321.97871 556.07825,345.73459 540.22194,185.92105"
     style="fill:none;stroke-width:35.22377396px;stroke-linecap:round;stroke-linejoin:round;stroke-miterlimit:4;stroke-dasharray:none;stroke-opacity:1" /><path
     d="M 529.53637,209.91604 H 363.39149"
     style="fill:none;stroke-width:11.74125671px;stroke-linecap:round;stroke-linejoin:round;stroke-miterlimit:4;stroke-dasharray:none;stroke-opacity:1" /><path
     d="M 519.54029,244.83071 H 389.47378"
     style="fill:none;stroke-width:11.74125671px;stroke-linecap:round;stroke-linejoin:round;stroke-miterlimit:4;stroke-dasharray:none;stroke-opacity:1" /><path
     d="M 510.23312,279.86555 H 420.38186"
     style="fill:none;stroke-width:11.74125671px;stroke-linecap:round;stroke-linejoin:round;stroke-miterlimit:4;stroke-dasharray:none;stroke-opacity:1" /><path
     d="M 323.1768,481.43297 H 489.32147"
     style="fill:none;stroke-width:11.74125671px;stroke-linecap:round;stroke-linejoin:round;stroke-miterlimit:4;stroke-dasharray:none;stroke-opacity:1" /><path
     d="M 333.05828,446.51832 H 463.23951"
     style="fill:none;stroke-width:11.74125671px;stroke-linecap:round;stroke-linejoin:round;stroke-miterlimit:4;stroke-dasharray:none;stroke-opacity:1" /><path
     d="m 342.36511,411.60364 h 89.85148"
     style="fill:none;stroke-width:11.74125671px;stroke-linecap:round;stroke-linejoin:round;stroke-miterlimit:4;stroke-dasharray:none;stroke-opacity:1" /></svg>
