<svg stroke="currentColor" fill="currentColor"
   xmlns="http://www.w3.org/2000/svg"
   width="1000"
   height="1000"
   viewBox="0 0 1000 1000">
  <path
     d="M 740.4231,738.69254 C 733.60991,361.89399 222.85776,410.65518 256.43734,82.622735"
     style="fill:none;stroke-width:73.4390564px;stroke-linecap:round;stroke-linejoin:round;stroke-miterlimit:4;stroke-dasharray:none;stroke-opacity:1" />
  <path
     d="M 254.73422,738.69254 C 261.54741,361.89399 772.29956,410.65518 738.71951,82.622735"
     style="fill:none;stroke-width:73.4390564px;stroke-linecap:round;stroke-linejoin:round;stroke-miterlimit:4;stroke-dasharray:none;stroke-opacity:1" />
  <path
     d="m 716.08992,131.87473 -351.85699,0"
     style="fill:none;stroke-width:24.47968292px;stroke-linecap:round;stroke-linejoin:round;stroke-miterlimit:4;stroke-dasharray:none;stroke-opacity:1" />
  <path
     d="m 694.9205,203.54041 -275.45122,0"
     style="fill:none;stroke-width:24.47968292px;stroke-linecap:round;stroke-linejoin:round;stroke-miterlimit:4;stroke-dasharray:none;stroke-opacity:1" />
  <path
     d="m 675.21003,275.45272 -190.28448,0"
     style="fill:none;stroke-width:24.47968292px;stroke-linecap:round;stroke-linejoin:round;stroke-miterlimit:4;stroke-dasharray:none;stroke-opacity:1" />
  <path
     d="m 279.0674,689.18895 351.85651,0"
     style="fill:none;stroke-width:24.47968292px;stroke-linecap:round;stroke-linejoin:round;stroke-miterlimit:4;stroke-dasharray:none;stroke-opacity:1" />
  <path
     d="m 299.9941,617.52333 275.69418,0"
     style="fill:none;stroke-width:24.47968292px;stroke-linecap:round;stroke-linejoin:round;stroke-miterlimit:4;stroke-dasharray:none;stroke-opacity:1" />
  <path
     d="m 319.70385,545.85764 190.28496,0"
     style="fill:none;stroke-width:24.47968292px;stroke-linecap:round;stroke-linejoin:round;stroke-miterlimit:4;stroke-dasharray:none;stroke-opacity:1" />
  <g
     transform="translate(1031.8152,214.85369)">
    <ellipse
       ry="281.99951"
       rx="274.00049"
       transform="matrix(0.99996818,0.00797802,-0.00753181,0.99997164,0,0)"
       style="fill:#ffffff;stroke-width:0.79420352"
       cy="467.1987"
       cx="-311.21469" />
    <path
       d="m -314.72758,241.21869 c -123.42041,0 -223.48782,100.0832 -223.48782,223.48782 0,123.43622 100.06741,223.47994 223.48782,223.47994 123.42046,0 223.495702,-100.04372 223.495702,-223.48782 -0.0079,-123.39674 -100.075242,-223.47994 -223.495702,-223.47994 z m 112.91238,243.92762 c -4.77643,4.91849 -11.08443,7.3896 -17.45557,7.3896 -6.10272,0 -12.19755,-2.28159 -16.88711,-6.86062 l -53.98508,-52.38245 v 138.15222 c 0,13.42128 -10.91864,24.30831 -24.31619,24.30831 -13.41338,0 -24.28461,-10.88703 -24.28461,-24.30831 V 433.29284 l -53.98508,52.38245 c -9.62384,9.32384 -24.99514,9.11068 -34.35845,-0.52109 -9.33173,-9.6238 -9.11068,-25.00299 0.52106,-34.35056 l 95.20418,-92.33832 c 9.41856,-9.15014 24.37937,-9.15014 33.8295,0 l 95.17261,92.33832 c 9.6633,9.35546 9.89223,24.71887 0.54474,34.34267 z"
       style="stroke-width:7.89486456" />
  </g>
</svg>
