<?xml version="1.0" encoding="UTF-8" standalone="no"?>
<svg
   stroke="currentColor"
   fill="currentColor"
   sodipodi:docname="assignment.svg"
   viewBox="0 0 1000 1000"
   inkscape:version="1.1 (c4e8f9e, 2021-05-24)"
   version="1.1"
   id="svg4152"
   height="1000"
   width="1000"
   xmlns:inkscape="http://www.inkscape.org/namespaces/inkscape"
   xmlns:sodipodi="http://sodipodi.sourceforge.net/DTD/sodipodi-0.dtd"
   xmlns="http://www.w3.org/2000/svg"
   xmlns:svg="http://www.w3.org/2000/svg"
   xmlns:rdf="http://www.w3.org/1999/02/22-rdf-syntax-ns#"
   xmlns:cc="http://creativecommons.org/ns#"
   xmlns:dc="http://purl.org/dc/elements/1.1/">
  <defs
     id="defs5498">
    <rect
       id="rect99"
       height="250"
       width="450"
       y="1100"
       x="150" />
    <rect
       id="rect93"
       height="350"
       width="850"
       y="1150"
       x="1050" />
    <marker
       inkscape:stockid="TriangleOutL"
       orient="auto"
       refY="0.0"
       refX="0.0"
       id="marker4233"
       inkscape:isstock="true">
      <path
         id="path4235"
         d="M 5.77,0.0 L -2.88,5.0 L -2.88,-5.0 L 5.77,0.0 z "
         transform="scale(0.8)" />
    </marker>
    <marker
       inkscape:stockid="TriangleOutL"
       orient="auto"
       refY="0.0"
       refX="0.0"
       id="marker4755"
       inkscape:isstock="true">
      <path
         id="path4757"
         d="M 5.77,0.0 L -2.88,5.0 L -2.88,-5.0 L 5.77,0.0 z "
         transform="scale(0.8)" />
    </marker>
    <marker
       inkscape:isstock="true"
       id="Arrow1Lend"
       refX="0.0"
       refY="0.0"
       orient="auto"
       inkscape:stockid="Arrow1Lend">
      <path
         transform="scale(0.8) rotate(180) translate(12.5,0)"
         d="M 0.0,0.0 L 5.0,-5.0 L -12.5,0.0 L 5.0,5.0 L 0.0,0.0 z "
         id="path4164" />
    </marker>
    <marker
       inkscape:isstock="true"
       id="Arrow2Lend"
       refX="0.0"
       refY="0.0"
       orient="auto"
       inkscape:stockid="Arrow2Lend">
      <path
         transform="scale(1.1) rotate(180) translate(1,0)"
         d="M 8.7185878,4.0337352 L -2.2072895,0.016013256 L 8.7185884,-4.0017078 C 6.9730900,-1.6296469 6.9831476,1.6157441 8.7185878,4.0337352 z "
         id="path4182" />
    </marker>
    <pattern
       id="EMFhbasepattern"
       patternUnits="userSpaceOnUse"
       width="6"
       height="6"
       x="0"
       y="0" />
    <pattern
       id="EMFhbasepattern-6"
       patternUnits="userSpaceOnUse"
       width="6"
       height="6"
       x="0"
       y="0" />
    <pattern
       id="EMFhbasepattern-9"
       patternUnits="userSpaceOnUse"
       width="6"
       height="6"
       x="0"
       y="0" />
    <pattern
       id="EMFhbasepattern-0"
       patternUnits="userSpaceOnUse"
       width="6"
       height="6"
       x="0"
       y="0" />
    <pattern
       id="EMFhbasepattern-60"
       patternUnits="userSpaceOnUse"
       width="6"
       height="6"
       x="0"
       y="0" />
    <pattern
       id="EMFhbasepattern-2"
       patternUnits="userSpaceOnUse"
       width="6"
       height="6"
       x="0"
       y="0" />
    <pattern
       id="EMFhbasepattern-06"
       patternUnits="userSpaceOnUse"
       width="6"
       height="6"
       x="0"
       y="0" />
    <pattern
       id="EMFhbasepattern-04"
       patternUnits="userSpaceOnUse"
       width="6"
       height="6"
       x="0"
       y="0" />
  </defs>
  <sodipodi:namedview
     inkscape:document-rotation="0"
     objecttolerance="20"
     inkscape:window-maximized="0"
     inkscape:current-layer="svg4152"
     inkscape:window-y="25"
     inkscape:window-x="2880"
     inkscape:cy="24.285714"
     inkscape:cx="837.14286"
     inkscape:zoom="0.35"
     inkscape:guide-bbox="true"
     showguides="true"
     showgrid="true"
     id="base"
     pagecolor="#ffffff"
     bordercolor="#666666"
     borderopacity="1.0"
     inkscape:pageopacity="0.0"
     inkscape:pageshadow="2"
     inkscape:window-width="1920"
     inkscape:window-height="1027"
     inkscape:pagecheckerboard="0">
    <sodipodi:guide
       inkscape:locked="false"
       id="guide5596"
       position="200"
       orientation="horizontal" />
    <inkscape:grid
       empspacing="50"
       id="grid3430"
       type="xygrid" />
    <sodipodi:guide
       inkscape:locked="false"
       id="guide4169"
       orientation="0,1"
       position="550,1000" />
  </sodipodi:namedview>
  <metadata
     id="metadata5594">
    <rdf:RDF>
      <cc:Work
         rdf:about="">
        <dc:format>image/svg+xml</dc:format>
        <dc:type
           rdf:resource="http://purl.org/dc/dcmitype/StillImage" />
      </cc:Work>
    </rdf:RDF>
  </metadata>
  <path
     id="path196"
     d="M 250 710.80859 A 19.6614 19.6614 0 0 0 230.33789 730.4707 A 19.6614 19.6614 0 0 0 250 750.13281 L 933.60352 750.13281 A 19.6614 19.6614 0 0 0 953.26367 730.4707 A 19.6614 19.6614 0 0 0 933.60352 710.80859 L 250 710.80859 z " />
  <path
     id="path192"
     d="M 947.4082 710.81055 A 19.661392 19.661392 0 0 0 935.67383 714.81445 L 884.4043 753.76953 A 19.661392 19.661392 0 0 0 880.64258 781.32031 A 19.661392 19.661392 0 0 0 908.19336 785.08008 L 959.46289 746.125 A 19.661392 19.661392 0 0 0 963.22266 718.57617 A 19.661392 19.661392 0 0 0 947.4082 710.81055 z " />
  <path
     id="path188"
     d="M 896.35156 672.03906 A 19.661392 19.661392 0 0 0 880.61523 679.8418 A 19.661392 19.661392 0 0 0 884.43945 707.38281 L 935.70898 746.15234 A 19.661392 19.661392 0 0 0 963.25 742.33008 A 19.661392 19.661392 0 0 0 959.42773 714.78906 L 908.15625 676.01758 A 19.661392 19.661392 0 0 0 896.35156 672.03906 z " />
  <g
     id="text43">
    <path
       id="path167"
       d="m 199.37331,261.64621 h -37.21875 l -9.65625,-28.21875 h -51.75 l -9.65625,28.21875 H 54.81081 l 51.5625,-139.59375 h 41.4375 z m -55.59375,-53.8125 -17.15625,-50.0625 -17.15625,50.0625 z" />
  </g>
  <g
     id="text91" />
  <g
     id="text97" />
  <g
     id="text43-2">
    <path
       id="path162"
       d="m 864.07867,816.3382 -50.90625,139.59375 h -40.3125 L 721.95367,816.3382 h 37.78125 l 33.75,98.0625 33.75,-98.0625 z" />
  </g>
  <g
     transform="rotate(-90,-163.60302,947.20609)"
     id="g160">
    <path
       id="path172"
       d="M 50 1341.1484 A 19.6614 19.6614 0 0 0 30.337891 1360.8086 A 19.6614 19.6614 0 0 0 50 1380.4707 L 733.60352 1380.4707 A 19.6614 19.6614 0 0 0 753.26367 1360.8086 A 19.6614 19.6614 0 0 0 733.60352 1341.1484 L 50 1341.1484 z " />
    <path
       id="path176"
       d="M 747.4082 1341.1484 A 19.6614 19.6614 0 0 0 735.67383 1345.1543 L 684.4043 1384.1094 A 19.6614 19.6614 0 0 0 680.64258 1411.6582 A 19.6614 19.6614 0 0 0 708.19336 1415.4199 L 759.46289 1376.4648 A 19.6614 19.6614 0 0 0 763.22266 1348.9141 A 19.6614 19.6614 0 0 0 747.4082 1341.1484 z " />
    <path
       id="path180"
       d="M 696.35156 1302.377 A 19.6614 19.6614 0 0 0 680.61523 1310.1797 A 19.6614 19.6614 0 0 0 684.43945 1337.7207 L 735.70898 1376.4922 A 19.6614 19.6614 0 0 0 763.25 1372.668 A 19.6614 19.6614 0 0 0 759.42773 1345.127 L 708.15625 1306.3574 A 19.6614 19.6614 0 0 0 696.35156 1302.377 z " />
  </g>
  <path
     style="fill:none;stroke:#000000;stroke-width:50;stroke-linecap:butt;stroke-linejoin:miter;stroke-miterlimit:4;stroke-dasharray:none;stroke-opacity:1"
     d="m 350,650 c 0,0 107.14286,-254.28571 157.14286,-254.28571 100,0 130,1.42856 180,1.42856 50,0 138.57143,-244.28571 188.57143,-244.28571 C 875.71429,152.85714 820,530 770,530 H 528.57143 C 416.76803,530 350,650 350,650"
     id="path417"
     sodipodi:nodetypes="csssssc" />
</svg>
