<?xml version="1.0" encoding="UTF-8" standalone="no"?>
<!-- Created with Inkscape (http://www.inkscape.org/) -->

<svg
   xmlns:dc="http://purl.org/dc/elements/1.1/"
   xmlns:cc="http://creativecommons.org/ns#"
   xmlns:rdf="http://www.w3.org/1999/02/22-rdf-syntax-ns#"
   xmlns:svg="http://www.w3.org/2000/svg"
   xmlns="http://www.w3.org/2000/svg"
   xmlns:sodipodi="http://sodipodi.sourceforge.net/DTD/sodipodi-0.dtd"
   xmlns:inkscape="http://www.inkscape.org/namespaces/inkscape"
   width="1000"
   height="1000"
   id="svg4152"
   version="1.1"
   inkscape:version="0.91 r13725"
   viewBox="0 0 1000 1000"
   sodipodi:docname="mineral-name-formula.svg">
  <defs
     id="defs5498">
    <marker
       inkscape:isstock="true"
       style="overflow:visible"
       id="marker4233"
       refX="0.0"
       refY="0.0"
       orient="auto"
       inkscape:stockid="TriangleOutL">
      <path
         transform="scale(0.8)"
         style="fill-rule:evenodd;stroke:#000000;stroke-width:1pt;stroke-opacity:1;fill:#000000;fill-opacity:1"
         d="M 5.77,0.0 L -2.88,5.0 L -2.88,-5.0 L 5.77,0.0 z "
         id="path4235" />
    </marker>
    <marker
       inkscape:isstock="true"
       style="overflow:visible"
       id="marker4755"
       refX="0.0"
       refY="0.0"
       orient="auto"
       inkscape:stockid="TriangleOutL">
      <path
         transform="scale(0.8)"
         style="fill-rule:evenodd;stroke:#000000;stroke-width:1pt;stroke-opacity:1;fill:#000000;fill-opacity:1"
         d="M 5.77,0.0 L -2.88,5.0 L -2.88,-5.0 L 5.77,0.0 z "
         id="path4757" />
    </marker>
    <marker
       inkscape:stockid="Arrow1Lend"
       orient="auto"
       refY="0.0"
       refX="0.0"
       id="Arrow1Lend"
       style="overflow:visible;"
       inkscape:isstock="true">
      <path
         id="path4164"
         d="M 0.0,0.0 L 5.0,-5.0 L -12.5,0.0 L 5.0,5.0 L 0.0,0.0 z "
         style="fill-rule:evenodd;stroke:#000000;stroke-width:1pt;stroke-opacity:1;fill:#000000;fill-opacity:1"
         transform="scale(0.8) rotate(180) translate(12.5,0)" />
    </marker>
    <marker
       inkscape:stockid="Arrow2Lend"
       orient="auto"
       refY="0.0"
       refX="0.0"
       id="Arrow2Lend"
       style="overflow:visible;"
       inkscape:isstock="true">
      <path
         id="path4182"
         style="fill-rule:evenodd;stroke-width:0.625;stroke-linejoin:round;stroke:#000000;stroke-opacity:1;fill:#000000;fill-opacity:1"
         d="M 8.7185878,4.0337352 L -2.2072895,0.016013256 L 8.7185884,-4.0017078 C 6.9730900,-1.6296469 6.9831476,1.6157441 8.7185878,4.0337352 z "
         transform="scale(1.1) rotate(180) translate(1,0)" />
    </marker>
    <pattern
       y="0"
       x="0"
       height="6"
       width="6"
       patternUnits="userSpaceOnUse"
       id="EMFhbasepattern" />
  </defs>
  <sodipodi:namedview
     inkscape:window-height="1107"
     inkscape:window-width="2044"
     inkscape:pageshadow="2"
     inkscape:pageopacity="0.0"
     borderopacity="1.0"
     bordercolor="#666666"
     pagecolor="#ffffff"
     id="base"
     showgrid="true"
     showguides="true"
     inkscape:guide-bbox="true"
     inkscape:zoom="0.62225397"
     inkscape:cx="121.53717"
     inkscape:cy="552.87485"
     inkscape:window-x="4"
     inkscape:window-y="1"
     inkscape:current-layer="svg4152"
     inkscape:window-maximized="1"
     objecttolerance="20"
     inkscape:snap-text-baseline="false">
    <sodipodi:guide
       orientation="horizontal"
       position="200"
       id="guide5596"
       inkscape:locked="false" />
    <inkscape:grid
       type="xygrid"
       id="grid3430"
       empspacing="50" />
    <sodipodi:guide
       position="550,1000"
       orientation="0,1"
       id="guide4169"
       inkscape:locked="false" />
  </sodipodi:namedview>
  <metadata
     id="metadata5594">
    <rdf:RDF>
      <cc:Work
         rdf:about="">
        <dc:format>image/svg+xml</dc:format>
        <dc:type
           rdf:resource="http://purl.org/dc/dcmitype/StillImage" />
        <dc:title></dc:title>
      </cc:Work>
    </rdf:RDF>
  </metadata>
  <path
     style="fill:#000000;fill-opacity:0"
     d="m 500,100 150,0 0,50 -150,0 z"
     id="rect6365" />
  <g
     style="font-style:normal;font-weight:normal;font-size:40px;line-height:1.25;font-family:sans-serif;letter-spacing:0px;word-spacing:0px;fill:#000000;fill-opacity:1;stroke:none"
     id="flowRoot37" />
  <g
     style="font-style:normal;font-weight:normal;font-size:40px;line-height:1.25;font-family:sans-serif;letter-spacing:0px;word-spacing:0px;fill:#000000;fill-opacity:1;stroke:none"
     id="flowRoot53" />
  <g
     style="font-style:normal;font-weight:normal;font-size:40px;line-height:1.25;font-family:sans-serif;letter-spacing:0px;word-spacing:0px;fill:#000000;fill-opacity:1;stroke:none"
     id="flowRoot69" />
  <g
     style="font-style:normal;font-weight:normal;font-size:40px;line-height:1.25;font-family:sans-serif;letter-spacing:0px;word-spacing:0px;fill:#000000;fill-opacity:1;stroke:none"
     id="text43">
    <path
       d="m 419.77551,386.85059 q 0,8.85009 -0.91552,15.25878 -0.61036,6.10352 -2.13624,10.07081 -1.52587,3.66211 -3.96728,5.49316 -2.13623,1.83105 -4.88281,1.83105 l -98.87696,0 0,318.29834 q 0,3.05176 -2.13623,5.49317 -1.83105,2.4414 -6.40869,3.96728 -4.57763,1.52588 -12.5122,2.44141 -7.6294,0.91553 -19.22608,0.91553 -11.59668,0 -19.53125,-0.91553 -7.62939,-0.91553 -12.20703,-2.44141 -4.57764,-1.52588 -6.71387,-3.96728 -1.83105,-2.44141 -1.83105,-5.49317 l 0,-318.29834 -98.87696,0 q -3.05175,0 -5.18798,-1.83105 -2.13623,-1.83105 -3.66211,-5.49316 -1.52588,-3.96729 -2.44141,-10.07081 -0.61035,-6.40869 -0.61035,-15.25878 0,-9.15528 0.61035,-15.56397 0.91553,-6.40869 2.44141,-10.0708 1.52588,-3.96728 3.66211,-5.49316 2.13623,-1.83106 5.18798,-1.83106 l 278.32032,0 q 2.74658,0 4.88281,1.83106 2.44141,1.52588 3.96728,5.49316 1.52588,3.66211 2.13624,10.0708 0.91552,6.40869 0.91552,15.56397 z"
       style="font-style:normal;font-variant:normal;font-weight:bold;font-stretch:normal;font-size:625px;font-family:Calibri;-inkscape-font-specification:'Calibri Bold'"
       id="path4216" />
    <path
       d="m 539.40442,738.41309 q 0,3.05175 -1.83106,5.49316 -1.83105,2.13623 -6.40869,3.66211 -4.27246,1.52588 -11.59668,2.13623 -7.32422,0.91553 -18.61572,0.91553 -11.2915,0 -18.61572,-0.91553 -7.32422,-0.61035 -11.90186,-2.13623 -4.27246,-1.52588 -6.10351,-3.66211 -1.83106,-2.44141 -1.83106,-5.49316 l 0,-271.60645 q 0,-3.05176 1.83106,-5.18799 1.83105,-2.4414 6.10351,-3.96728 4.57764,-1.83106 11.90186,-2.74658 7.32422,-0.91553 18.61572,-0.91553 11.2915,0 18.61572,0.91553 7.32422,0.91552 11.59668,2.74658 4.57764,1.52588 6.40869,3.96728 1.83106,2.13623 1.83106,5.18799 l 0,271.60645 z m 5.79834,-364.37989 q 0,23.19336 -9.46045,32.04346 -9.46045,8.8501 -35.09522,8.8501 -25.93994,0 -35.09521,-8.54492 -8.8501,-8.54493 -8.8501,-30.82276 0,-23.19336 9.15528,-32.04346 9.46044,-9.15527 35.40039,-9.15527 25.63476,0 34.79004,8.8501 9.15527,8.54492 9.15527,30.82275 z"
       style="font-style:normal;font-variant:normal;font-weight:bold;font-stretch:normal;font-size:625px;font-family:Calibri;-inkscape-font-specification:'Calibri Bold'"
       id="path4218" />
    <path
       d="m 877.53918,738.41309 q 0,3.05175 -1.83105,5.49316 -1.83105,2.13623 -6.10352,3.66211 -4.27246,1.52588 -11.90185,2.13623 -7.32422,0.91553 -18.31055,0.91553 -11.2915,0 -18.9209,-0.91553 -7.32422,-0.61035 -11.59668,-2.13623 -4.27246,-1.52588 -6.10351,-3.66211 -1.83106,-2.44141 -1.83106,-5.49316 l 0,-155.33448 q 0,-19.83642 -3.05175,-31.12793 -2.74659,-11.2915 -8.23975,-19.22607 -5.49316,-8.23975 -14.34326,-12.51221 -8.54492,-4.57763 -20.1416,-4.57763 -14.64844,0 -29.60205,10.68115 -14.95362,10.68115 -31.12793,31.12793 l 0,180.96924 q 0,3.05175 -1.83106,5.49316 -1.83105,2.13623 -6.40869,3.66211 -4.27246,1.52588 -11.59668,2.13623 -7.32422,0.91553 -18.61572,0.91553 -11.29151,0 -18.61573,-0.91553 -7.32421,-0.61035 -11.90185,-2.13623 -4.27246,-1.52588 -6.10352,-3.66211 -1.83105,-2.44141 -1.83105,-5.49316 l 0,-272.2168 q 0,-3.05176 1.52588,-5.18799 1.52588,-2.44141 5.49316,-3.96728 3.96729,-1.52588 10.0708,-2.13623 6.40869,-0.91553 15.86914,-0.91553 9.76563,0 16.17432,0.91553 6.40869,0.61035 9.76562,2.13623 3.66211,1.52587 5.18799,3.96728 1.52588,2.13623 1.52588,5.18799 l 0,31.4331 q 22.58301,-24.41406 45.77637,-36.62109 23.49853,-12.20703 48.82812,-12.20703 27.771,0 46.6919,9.15527 19.22607,9.15528 30.82275,25.02442 11.90186,15.56396 17.08985,36.62109 5.18798,21.05713 5.18798,50.65918 l 0,168.15186 z"
       style="font-style:normal;font-variant:normal;font-weight:bold;font-stretch:normal;font-size:625px;font-family:Calibri;-inkscape-font-specification:'Calibri Bold'"
       id="path4220" />
  </g>
</svg>
