<svg stroke="currentColor" fill="currentColor"
   xmlns="http://www.w3.org/2000/svg"
   width="1000"
   height="1000"
   viewBox="254.7 149 505.2 505.2">
  <g
     transform="translate(143.21643,-830.1643)">
    <path
       style="fill-opacity:1;fill-rule:evenodd;stroke:none"
       d="m 162.61828,1250.4201 360.74618,0 0,208.7223 -360.74618,0 z" />
    <path
       style="fill:none;stroke-width:31.66810036px;stroke-linecap:round;stroke-linejoin:round;stroke-miterlimit:4;stroke-dasharray:none;stroke-opacity:1"
       d="m 565.57954,1004.4454 -402.96126,0 0,454.697 360.74618,0 0,-397.736 z" />
    <path
       style="fill:#fefefe;fill-opacity:1;fill-rule:evenodd;stroke:none"
       d="m 468.88089,1312.1847 c -10.26779,-2.8422 -20.91862,3.432 -23.6752,14.0187 -2.75911,10.6882 3.42172,21.5685 13.69214,24.4134 10.26765,2.8421 20.82279,-3.432 23.57928,-14.1174 2.75923,-10.5895 -3.32857,-21.4725 -13.59622,-24.3147 z" />
    <path
       style="fill:#fefefe;fill-opacity:1;fill-rule:evenodd;stroke:none"
       d="m 436.26836,1365.1238 c -14.26411,-4.0192 -28.90609,4.7075 -32.71093,19.4122 -3.80221,14.7073 4.65891,29.8041 18.92301,33.7244 14.16841,3.923 28.81039,-4.8037 32.7083,-19.4095 3.80221,-14.7072 -4.6589,-29.8041 -18.92038,-33.7271 z" />
    <path
       style="fill:none;stroke-width:31.47499847px;stroke-linecap:round;stroke-linejoin:round;stroke-miterlimit:4;stroke-dasharray:none;stroke-opacity:1"
       d="m 162.61828,1080.9146 69.97962,0" />
    <path
       style="fill:none;stroke-width:31.47499847px;stroke-linecap:round;stroke-linejoin:round;stroke-miterlimit:4;stroke-dasharray:none;stroke-opacity:1"
       d="m 162.61828,1138.3639 69.97962,0" />
    <path
       style="fill:none;stroke-width:31.47499847px;stroke-linecap:round;stroke-linejoin:round;stroke-miterlimit:4;stroke-dasharray:none;stroke-opacity:1"
       d="m 162.61828,1195.8157 69.97962,0" />
  </g>
</svg>
