<?xml version="1.0" encoding="UTF-8" standalone="no"?>
<!-- Created with Inkscape (http://www.inkscape.org/) -->

<svg stroke="currentColor" fill="currentColor"
   xmlns:dc="http://purl.org/dc/elements/1.1/"
   xmlns:cc="http://creativecommons.org/ns#"
   xmlns:rdf="http://www.w3.org/1999/02/22-rdf-syntax-ns#"
   xmlns:svg="http://www.w3.org/2000/svg"
   xmlns="http://www.w3.org/2000/svg"
   xmlns:sodipodi="http://sodipodi.sourceforge.net/DTD/sodipodi-0.dtd"
   xmlns:inkscape="http://www.inkscape.org/namespaces/inkscape"
   width="1000"
   height="1000"
   id="svg4152"
   version="1.1"
   inkscape:version="0.91 r13725"
   viewBox="0 0 1000 1000"
   sodipodi:docname="science-2.svg">
  <defs
     id="defs5498">
    <marker
       inkscape:isstock="true"
       style="overflow:visible"
       id="marker4233"
       refX="0.0"
       refY="0.0"
       orient="auto"
       inkscape:stockid="TriangleOutL">
      <path
         transform="scale(0.8)"
         style="fill-rule:evenodd;stroke-width:1pt;stroke-opacity:1;fill:#000000;fill-opacity:1"
         d="M 5.77,0.0 L -2.88,5.0 L -2.88,-5.0 L 5.77,0.0 z "
         id="path4235" />
    </marker>
    <marker
       inkscape:isstock="true"
       style="overflow:visible"
       id="marker4755"
       refX="0.0"
       refY="0.0"
       orient="auto"
       inkscape:stockid="TriangleOutL">
      <path
         transform="scale(0.8)"
         style="fill-rule:evenodd;stroke-width:1pt;stroke-opacity:1;fill:#000000;fill-opacity:1"
         d="M 5.77,0.0 L -2.88,5.0 L -2.88,-5.0 L 5.77,0.0 z "
         id="path4757" />
    </marker>
    <marker
       inkscape:stockid="Arrow1Lend"
       orient="auto"
       refY="0.0"
       refX="0.0"
       id="Arrow1Lend"
       style="overflow:visible;"
       inkscape:isstock="true">
      <path
         id="path4164"
         d="M 0.0,0.0 L 5.0,-5.0 L -12.5,0.0 L 5.0,5.0 L 0.0,0.0 z "
         style="fill-rule:evenodd;stroke-width:1pt;stroke-opacity:1;fill:#000000;fill-opacity:1"
         transform="scale(0.8) rotate(180) translate(12.5,0)" />
    </marker>
    <marker
       inkscape:stockid="Arrow2Lend"
       orient="auto"
       refY="0.0"
       refX="0.0"
       id="Arrow2Lend"
       style="overflow:visible;"
       inkscape:isstock="true">
      <path
         id="path4182"
         style="fill-rule:evenodd;stroke-width:0.625;stroke-linejoin:round;stroke-opacity:1;fill:#000000;fill-opacity:1"
         d="M 8.7185878,4.0337352 L -2.2072895,0.016013256 L 8.7185884,-4.0017078 C 6.9730900,-1.6296469 6.9831476,1.6157441 8.7185878,4.0337352 z "
         transform="scale(1.1) rotate(180) translate(1,0)" />
    </marker>
    <pattern
       y="0"
       x="0"
       height="6"
       width="6"
       patternUnits="userSpaceOnUse"
       id="EMFhbasepattern" />
  </defs>
  <sodipodi:namedview
     inkscape:window-height="838"
     inkscape:window-width="1440"
     inkscape:pageshadow="2"
     inkscape:pageopacity="0.0"
     borderopacity="1.0"
     bordercolor="#666666"
     pagecolor="#ffffff"
     id="base"
     showgrid="true"
     showguides="true"
     inkscape:guide-bbox="true"
     inkscape:zoom="0.44577465"
     inkscape:cx="86"
     inkscape:cy="314"
     inkscape:window-x="-8"
     inkscape:window-y="-8"
     inkscape:current-layer="svg4152"
     inkscape:window-maximized="1"
     objecttolerance="20">
    <sodipodi:guide
       orientation="horizontal"
       position="200"
       id="guide5596" />
    <inkscape:grid
       type="xygrid"
       id="grid3430"
       empspacing="50" />
    <sodipodi:guide
       position="550,1000"
       orientation="0,1"
       id="guide4169" />
  </sodipodi:namedview>
  <metadata
     id="metadata5594">
    <rdf:RDF>
      <cc:Work
         rdf:about="">
        <dc:format>image/svg+xml</dc:format>
        <dc:type
           rdf:resource="http://purl.org/dc/dcmitype/StillImage" />
        <dc:title></dc:title>
      </cc:Work>
    </rdf:RDF>
  </metadata>
  <g
     id="g9503"
     transform="translate(-1.459716,-17.946288)">
    <path
       style="fill:none;stroke-width:31.47499847px;stroke-linecap:round;stroke-linejoin:round;stroke-miterlimit:4;stroke-dasharray:none;stroke-opacity:1"
       d="m 559.30555,324.94861 0,-209.2118 -115.05235,0 0,209.2118 -0.28473,0 -135.11422,288.22991 c -0.28472,0.68627 -0.47328,1.27564 -0.758,2.05747 -8.08327,24.50947 -8.27219,53.13671 -0.38087,76.86142 7.60432,22.84421 21.48803,36.66814 37.17561,36.66814 l 313.68066,0 c 15.69035,0 29.5713,-13.62912 37.27408,-36.56939 7.79599,-23.62594 7.60444,-52.35193 -0.37995,-76.76264 -0.19142,-0.68627 -0.4761,-1.27564 -0.66559,-1.86276 L 559.40123,324.94861 Z"
       id="path9445"
       inkscape:connector-curvature="0" />
    <path
       style="fill:#000000;fill-opacity:1;fill-rule:evenodd;stroke:none"
       d="m 352.78281,519.55232 -43.92856,93.6262 c -0.28472,0.68627 -0.47328,1.27564 -0.758,2.05747 -8.08327,24.50947 -8.27219,53.13671 -0.38087,76.86142 7.60432,22.84421 21.48803,36.66814 37.17561,36.66814 l 313.68066,0 c 15.69035,0 29.5713,-13.62912 37.27408,-36.56939 7.79599,-23.62594 7.60444,-52.35193 -0.37995,-76.76264 -0.19142,-0.68627 -0.4761,-1.27564 -0.66559,-1.86276 l -44.12014,-94.01844 z"
       id="path9447"
       inkscape:connector-curvature="0" />
    <path
       style="fill:#fefefe;fill-opacity:1;fill-rule:evenodd;stroke:none"
       d="m 628.14638,581.70917 c -10.27031,-2.84494 -20.82543,3.52793 -23.58193,14.1174 -2.75649,10.58678 3.32857,21.46973 13.59624,24.31185 10.27041,2.84494 20.82556,-3.43198 23.58205,-14.01864 2.75647,-10.58678 -3.32857,-21.56848 -13.59636,-24.41061 z"
       id="path9449"
       inkscape:connector-curvature="0" />
    <path
       style="fill:#fefefe;fill-opacity:1;fill-rule:evenodd;stroke:none"
       d="m 595.53123,634.64825 c -14.26146,-3.92034 -28.90342,4.80364 -32.7082,19.51092 -3.80221,14.60574 4.65894,29.70533 18.92303,33.72441 14.26148,3.92035 28.90343,-4.80363 32.7083,-19.51088 3.80213,-14.70463 -4.65892,-29.80141 -18.92313,-33.72445 z"
       id="path9451"
       inkscape:connector-curvature="0" />
    <path
       style="fill:none;stroke-width:31.47499847px;stroke-linecap:round;stroke-linejoin:round;stroke-miterlimit:4;stroke-dasharray:none;stroke-opacity:1"
       d="m 445.29885,174.75518 69.98235,0"
       id="path9453"
       inkscape:connector-curvature="0" />
    <path
       style="fill:none;stroke-width:31.47499847px;stroke-linecap:round;stroke-linejoin:round;stroke-miterlimit:4;stroke-dasharray:none;stroke-opacity:1"
       d="m 445.29885,232.20523 69.98235,0"
       id="path9455"
       inkscape:connector-curvature="0" />
    <path
       style="fill:none;stroke-width:31.47499847px;stroke-linecap:round;stroke-linejoin:round;stroke-miterlimit:4;stroke-dasharray:none;stroke-opacity:1"
       d="m 445.29885,289.65506 69.98235,0"
       id="path9457"
       inkscape:connector-curvature="0" />
  </g>
</svg>
