<svg stroke="currentColor" fill="currentColor"
   xmlns="http://www.w3.org/2000/svg"
   width="1000"
   height="1000"
   viewBox="159.7 63.7 681.1 681.1">
  <g
     transform="translate(-1.459716,-17.946288)">
    <path
       style="fill:none;stroke-width:31.47499847px;stroke-linecap:round;stroke-linejoin:round;stroke-miterlimit:4;stroke-dasharray:none;stroke-opacity:1"
       d="m 559.30555,324.94861 0,-209.2118 -115.05235,0 0,209.2118 -0.28473,0 -135.11422,288.22991 c -0.28472,0.68627 -0.47328,1.27564 -0.758,2.05747 -8.08327,24.50947 -8.27219,53.13671 -0.38087,76.86142 7.60432,22.84421 21.48803,36.66814 37.17561,36.66814 l 313.68066,0 c 15.69035,0 29.5713,-13.62912 37.27408,-36.56939 7.79599,-23.62594 7.60444,-52.35193 -0.37995,-76.76264 -0.19142,-0.68627 -0.4761,-1.27564 -0.66559,-1.86276 L 559.40123,324.94861 Z" />
    <path
       style="fill-opacity:1;fill-rule:evenodd;stroke:none"
       d="m 352.78281,519.55232 -43.92856,93.6262 c -0.28472,0.68627 -0.47328,1.27564 -0.758,2.05747 -8.08327,24.50947 -8.27219,53.13671 -0.38087,76.86142 7.60432,22.84421 21.48803,36.66814 37.17561,36.66814 l 313.68066,0 c 15.69035,0 29.5713,-13.62912 37.27408,-36.56939 7.79599,-23.62594 7.60444,-52.35193 -0.37995,-76.76264 -0.19142,-0.68627 -0.4761,-1.27564 -0.66559,-1.86276 l -44.12014,-94.01844 z" />
    <path
       style="fill:#fefefe;fill-opacity:1;fill-rule:evenodd;stroke:none"
       d="m 628.14638,581.70917 c -10.27031,-2.84494 -20.82543,3.52793 -23.58193,14.1174 -2.75649,10.58678 3.32857,21.46973 13.59624,24.31185 10.27041,2.84494 20.82556,-3.43198 23.58205,-14.01864 2.75647,-10.58678 -3.32857,-21.56848 -13.59636,-24.41061 z" />
    <path
       style="fill:#fefefe;fill-opacity:1;fill-rule:evenodd;stroke:none"
       d="m 595.53123,634.64825 c -14.26146,-3.92034 -28.90342,4.80364 -32.7082,19.51092 -3.80221,14.60574 4.65894,29.70533 18.92303,33.72441 14.26148,3.92035 28.90343,-4.80363 32.7083,-19.51088 3.80213,-14.70463 -4.65892,-29.80141 -18.92313,-33.72445 z" />
    <path
       style="fill:none;stroke-width:31.47499847px;stroke-linecap:round;stroke-linejoin:round;stroke-miterlimit:4;stroke-dasharray:none;stroke-opacity:1"
       d="m 445.29885,174.75518 69.98235,0" />
    <path
       style="fill:none;stroke-width:31.47499847px;stroke-linecap:round;stroke-linejoin:round;stroke-miterlimit:4;stroke-dasharray:none;stroke-opacity:1"
       d="m 445.29885,232.20523 69.98235,0" />
    <path
       style="fill:none;stroke-width:31.47499847px;stroke-linecap:round;stroke-linejoin:round;stroke-miterlimit:4;stroke-dasharray:none;stroke-opacity:1"
       d="m 445.29885,289.65506 69.98235,0" />
  </g>
</svg>
