<?xml version="1.0" encoding="UTF-8" standalone="no"?>
<!-- Created with Inkscape (http://www.inkscape.org/) -->

<svg stroke="currentColor" fill="currentColor"
   xmlns:dc="http://purl.org/dc/elements/1.1/"
   xmlns:cc="http://creativecommons.org/ns#"
   xmlns:rdf="http://www.w3.org/1999/02/22-rdf-syntax-ns#"
   xmlns:svg="http://www.w3.org/2000/svg"
   xmlns="http://www.w3.org/2000/svg"
   xmlns:sodipodi="http://sodipodi.sourceforge.net/DTD/sodipodi-0.dtd"
   xmlns:inkscape="http://www.inkscape.org/namespaces/inkscape"
   width="1000"
   height="1000"
   id="svg4152"
   version="1.1"
   inkscape:version="0.91 r13725"
   viewBox="0 0 1000 1000"
   sodipodi:docname="round-flask.svg">
  <defs
     id="defs5498">
    <marker
       inkscape:isstock="true"
       style="overflow:visible"
       id="marker4233"
       refX="0.0"
       refY="0.0"
       orient="auto"
       inkscape:stockid="TriangleOutL">
      <path
         transform="scale(0.8)"
         style="fill-rule:evenodd;stroke-width:1pt;stroke-opacity:1;fill:#000000;fill-opacity:1"
         d="M 5.77,0.0 L -2.88,5.0 L -2.88,-5.0 L 5.77,0.0 z "
         id="path4235" />
    </marker>
    <marker
       inkscape:isstock="true"
       style="overflow:visible"
       id="marker4755"
       refX="0.0"
       refY="0.0"
       orient="auto"
       inkscape:stockid="TriangleOutL">
      <path
         transform="scale(0.8)"
         style="fill-rule:evenodd;stroke-width:1pt;stroke-opacity:1;fill:#000000;fill-opacity:1"
         d="M 5.77,0.0 L -2.88,5.0 L -2.88,-5.0 L 5.77,0.0 z "
         id="path4757" />
    </marker>
    <marker
       inkscape:stockid="Arrow1Lend"
       orient="auto"
       refY="0.0"
       refX="0.0"
       id="Arrow1Lend"
       style="overflow:visible;"
       inkscape:isstock="true">
      <path
         id="path4164"
         d="M 0.0,0.0 L 5.0,-5.0 L -12.5,0.0 L 5.0,5.0 L 0.0,0.0 z "
         style="fill-rule:evenodd;stroke-width:1pt;stroke-opacity:1;fill:#000000;fill-opacity:1"
         transform="scale(0.8) rotate(180) translate(12.5,0)" />
    </marker>
    <marker
       inkscape:stockid="Arrow2Lend"
       orient="auto"
       refY="0.0"
       refX="0.0"
       id="Arrow2Lend"
       style="overflow:visible;"
       inkscape:isstock="true">
      <path
         id="path4182"
         style="fill-rule:evenodd;stroke-width:0.625;stroke-linejoin:round;stroke-opacity:1;fill:#000000;fill-opacity:1"
         d="M 8.7185878,4.0337352 L -2.2072895,0.016013256 L 8.7185884,-4.0017078 C 6.9730900,-1.6296469 6.9831476,1.6157441 8.7185878,4.0337352 z "
         transform="scale(1.1) rotate(180) translate(1,0)" />
    </marker>
    <pattern
       y="0"
       x="0"
       height="6"
       width="6"
       patternUnits="userSpaceOnUse"
       id="EMFhbasepattern" />
  </defs>
  <sodipodi:namedview
     inkscape:window-height="838"
     inkscape:window-width="1440"
     inkscape:pageshadow="2"
     inkscape:pageopacity="0.0"
     borderopacity="1.0"
     bordercolor="#666666"
     pagecolor="#ffffff"
     id="base"
     showgrid="true"
     showguides="true"
     inkscape:guide-bbox="true"
     inkscape:zoom="0.5"
     inkscape:cx="357.82213"
     inkscape:cy="459.29481"
     inkscape:window-x="-8"
     inkscape:window-y="-8"
     inkscape:current-layer="svg4152"
     inkscape:window-maximized="1"
     objecttolerance="20">
    <sodipodi:guide
       orientation="horizontal"
       position="200"
       id="guide5596" />
    <inkscape:grid
       type="xygrid"
       id="grid3430"
       empspacing="50" />
    <sodipodi:guide
       position="550,1000"
       orientation="0,1"
       id="guide4169" />
  </sodipodi:namedview>
  <metadata
     id="metadata5594">
    <rdf:RDF>
      <cc:Work
         rdf:about="">
        <dc:format>image/svg+xml</dc:format>
        <dc:type
           rdf:resource="http://purl.org/dc/dcmitype/StillImage" />
        <dc:title></dc:title>
      </cc:Work>
    </rdf:RDF>
  </metadata>
  <path
     inkscape:connector-curvature="0"
     id="path5010"
     d="m 448.32631,388.31173 c -81.75409,23.0712 -141.57836,98.15867 -141.57836,187.2819 0,69.64802 36.66642,130.78826 91.75402,165.1729 l 205.69981,0 c 55.08955,-34.38464 91.75456,-95.52488 91.75456,-165.1729 0,-89.12323 -59.82455,-164.2107 -141.49053,-187.2819 l 0,-195.96303 -106.1395,0 z"
     style="fill:none;stroke-width:28.59636879px;stroke-linecap:round;stroke-linejoin:round;stroke-miterlimit:4;stroke-dasharray:none;stroke-opacity:1" />
  <path
     inkscape:connector-curvature="0"
     id="path5012"
     d="m 308.06373,553.31284 c -0.87719,7.28047 -1.31578,14.73523 -1.31578,22.28079 0,69.64802 36.66642,130.78826 91.75402,165.1729 l 205.69981,0 c 55.08955,-34.38464 91.75456,-95.52488 91.75456,-165.1729 0,-7.54556 -0.43695,-15.00032 -1.22732,-22.28079 z"
     style="fill:#000000;fill-opacity:1;fill-rule:evenodd;stroke:none" />
  <path
     inkscape:connector-curvature="0"
     id="path5014"
     d="m 621.83347,590.67988 c -9.47246,-2.54308 -19.21002,3.07077 -21.75304,12.63155 -2.54546,9.47494 3.07077,19.21003 12.54323,21.75554 9.47493,2.54298 19.29841,-3.07075 21.84141,-12.5457 2.54547,-9.56087 -3.15667,-19.29596 -12.6316,-21.84139 z"
     style="fill:#fefefe;fill-opacity:1;fill-rule:evenodd;stroke:none" />
  <path
     inkscape:connector-curvature="0"
     id="path5016"
     d="m 591.74694,638.04956 c -13.15691,-3.51017 -26.66727,4.20969 -30.17493,17.36656 -3.51015,13.15941 4.29806,26.66722 17.45495,30.17495 13.15935,3.51016 26.66725,-4.2097 30.17493,-17.36659 3.51015,-13.15938 -4.29807,-26.6672 -17.45495,-30.17492 z"
     style="fill:#fefefe;fill-opacity:1;fill-rule:evenodd;stroke:none" />
  <path
     inkscape:connector-curvature="0"
     id="path5018"
     d="m 581.39568,50.945697 c -14.6493,-3.947306 -29.8239,4.824611 -33.77096,19.561324 -3.94706,14.649205 4.82337,29.824519 19.56104,33.771809 14.64932,3.94731 29.82392,-4.82461 33.77098,-19.561323 3.94708,-14.649017 -4.82337,-29.82443 -19.56106,-33.77181 z"
     style="fill:#000000;fill-opacity:1;fill-rule:evenodd;stroke:none" />
  <path
     inkscape:connector-curvature="0"
     id="path5020"
     d="m 552.01116,121.03328 c -10.61633,-2.8948 -21.49236,3.421 -24.38688,14.03489 -2.80712,10.61415 3.50868,21.57872 14.12157,24.38586 10.61387,2.89481 21.49285,-3.421 24.38688,-14.03515 2.80811,-10.61389 -3.50769,-21.57872 -14.12157,-24.3856 z"
     style="fill:#000000;fill-opacity:1;fill-rule:evenodd;stroke:none" />
  <path
     inkscape:connector-curvature="0"
     id="path5022"
     d="m 520.08043,82.875369 c -8.24563,-2.28067 -16.75441,2.631618 -18.94738,10.877252 -2.19298,8.333219 2.71923,16.754089 10.96489,19.035019 8.24563,2.19292 16.75441,-2.71927 18.94738,-10.96491 2.19298,-8.24563 -2.7195,-16.754443 -10.96489,-18.947361 z"
     style="fill:#000000;fill-opacity:1;fill-rule:evenodd;stroke:none" />
  <path
     inkscape:connector-curvature="0"
     id="path5024"
     d="m 502.62424,144.62949 c -5.61402,-1.49121 -11.40329,1.84221 -12.89473,7.45623 -1.57883,5.61402 1.75458,11.40327 7.45621,12.98233 5.61402,1.49118 11.40356,-1.84216 12.89475,-7.54384 1.49119,-5.61401 -1.84222,-11.40353 -7.45623,-12.89472 z"
     style="fill:#000000;fill-opacity:1;fill-rule:evenodd;stroke:none" />
</svg>
