<?xml version="1.0" encoding="UTF-8" standalone="no"?>
<!-- Created with Inkscape (http://www.inkscape.org/) -->

<svg stroke="currentColor" fill="currentColor" width="1000" height="1000" id="svg4152" version="1.1" inkscape:version="1.2.2 (b0a84865, 2022-12-01)" viewBox="0 0 1000 1000" sodipodi:docname="request.svg" xmlns:inkscape="http://www.inkscape.org/namespaces/inkscape" xmlns:sodipodi="http://sodipodi.sourceforge.net/DTD/sodipodi-0.dtd" xmlns="http://www.w3.org/2000/svg" xmlns:svg="http://www.w3.org/2000/svg" xmlns:rdf="http://www.w3.org/1999/02/22-rdf-syntax-ns#" xmlns:cc="http://creativecommons.org/ns#" xmlns:dc="http://purl.org/dc/elements/1.1/">
  <g aria-label="XPS" transform="scale(0.83636075,1.1956563)" id="text2271" style="font-size:398.552px;line-height:1.25;fill:#000000;stroke:none;stroke-width:1.19566">
    <path d="m 172.14494,163.20844 h 97.10813 l 50.59742,87.76707 49.04058,-87.76707 h 96.1351 l -88.7401,138.16989 97.10813,147.12173 h -99.05418 l -56.24098,-91.65918 -56.43559,91.65918 h -98.47037 l 98.47037,-148.67858 z" style="font-weight:bold;font-family:'Arial Black';-inkscape-font-specification:'Arial Black,  Bold'" id="path2415" />
    <path d="M 501.41738,163.20844 H 647.9553 q 47.87294,0 71.61481,22.76884 23.93647,22.76884 23.93647,64.80362 0,43.20242 -26.07713,67.5281 -25.88253,24.32569 -79.20443,24.32569 h -48.26215 v 105.86537 h -88.54549 z m 88.54549,121.62842 h 21.6012 q 25.49332,0 35.80741,-8.75725 10.31409,-8.95185 10.31409,-22.76884 0,-13.42777 -8.95185,-22.76884 -8.95185,-9.34106 -33.66675,-9.34106 h -25.1041 z" style="font-weight:bold;font-family:'Arial Black';-inkscape-font-specification:'Arial Black,  Bold'" id="path2412" />
    <path d="m 774.25426,354.11641 83.87496,-5.25435 q 2.72447,20.43357 11.09251,31.13688 13.62238,17.31988 38.92109,17.31988 18.87673,0 28.99622,-8.75724 10.31409,-8.95186 10.31409,-20.62818 0,-11.09252 -9.73028,-19.84976 -9.73027,-8.75725 -45.14846,-16.54147 -57.99243,-13.03856 -82.70733,-34.63977 -24.9095,-21.60121 -24.9095,-55.07335 0,-21.99042 12.64936,-41.45096 12.84396,-19.65516 38.33727,-30.74767 25.68793,-11.28711 70.25258,-11.28711 54.68413,0 83.29114,20.43357 28.80159,20.23897 34.25059,64.60902 l -83.09656,4.86513 q -3.3083,-19.26594 -14.0116,-28.02318 -10.50869,-8.75725 -29.19082,-8.75725 -15.37383,0 -23.15805,6.61658 -7.78422,6.42199 -7.78422,15.76305 0,6.81119 6.42198,12.26014 6.22738,5.64356 29.58003,10.5087 57.79783,12.45475 82.70733,25.29871 25.10411,12.64935 36.39121,31.52609 11.4817,18.87673 11.4817,42.22938 0,27.43937 -15.1792,50.59742 -15.1792,23.15806 -42.42398,35.22359 -27.24477,11.87094 -68.69574,11.87094 -72.78244,0 -100.80563,-28.02319 -28.02319,-28.02319 -31.72069,-71.2256 z" style="font-weight:bold;font-family:'Arial Black';-inkscape-font-specification:'Arial Black,  Bold'" id="path2409" />
  </g>
  <defs id="defs5498">
    <marker inkscape:isstock="true" style="overflow:visible" id="marker4233" refX="0.0" refY="0.0" orient="auto" inkscape:stockid="TriangleOutL">
      <path transform="scale(0.8)" style="fill-rule:evenodd;stroke-width:1pt;stroke-opacity:1;fill-opacity:1" d="M 5.77,0.0 L -2.88,5.0 L -2.88,-5.0 L 5.77,0.0 z " id="path4235" />
    </marker>
    <marker inkscape:isstock="true" style="overflow:visible" id="marker4755" refX="0.0" refY="0.0" orient="auto" inkscape:stockid="TriangleOutL">
      <path transform="scale(0.8)" style="fill-rule:evenodd;stroke-width:1pt;stroke-opacity:1;fill-opacity:1" d="M 5.77,0.0 L -2.88,5.0 L -2.88,-5.0 L 5.77,0.0 z " id="path4757" />
    </marker>
    <marker inkscape:stockid="Arrow1Lend" orient="auto" refY="0.0" refX="0.0" id="Arrow1Lend" style="overflow:visible;" inkscape:isstock="true">
      <path id="path4164" d="M 0.0,0.0 L 5.0,-5.0 L -12.5,0.0 L 5.0,5.0 L 0.0,0.0 z " style="fill-rule:evenodd;stroke-width:1pt;stroke-opacity:1;fill-opacity:1" transform="scale(0.8) rotate(180) translate(12.5,0)" />
    </marker>
    <marker inkscape:stockid="Arrow2Lend" orient="auto" refY="0.0" refX="0.0" id="Arrow2Lend" style="overflow:visible;" inkscape:isstock="true">
      <path id="path4182" style="fill-rule:evenodd;stroke-width:0.625;stroke-linejoin:round;stroke-opacity:1;fill-opacity:1" d="M 8.7185878,4.0337352 L -2.2072895,0.016013256 L 8.7185884,-4.0017078 C 6.9730900,-1.6296469 6.9831476,1.6157441 8.7185878,4.0337352 z " transform="scale(1.1) rotate(180) translate(1,0)" />
    </marker>
    <pattern y="0" x="0" height="6" width="6" patternUnits="userSpaceOnUse" id="EMFhbasepattern" />
    <pattern y="0" x="0" height="6" width="6" patternUnits="userSpaceOnUse" id="EMFhbasepattern-6" />
    <pattern y="0" x="0" height="6" width="6" patternUnits="userSpaceOnUse" id="EMFhbasepattern-9" />
    <pattern y="0" x="0" height="6" width="6" patternUnits="userSpaceOnUse" id="EMFhbasepattern-0" />
  </defs>
  <sodipodi:namedview inkscape:window-height="1027" inkscape:window-width="1390" inkscape:pageshadow="2" inkscape:pageopacity="0.0" borderopacity="1.0" bordercolor="#666666" pagecolor="#ffffff" id="base" showgrid="true" showguides="true" inkscape:guide-bbox="true" inkscape:zoom="0.5" inkscape:cx="359" inkscape:cy="399" inkscape:window-x="938" inkscape:window-y="69" inkscape:current-layer="text2271" inkscape:window-maximized="0" objecttolerance="20" inkscape:showpageshadow="2" inkscape:pagecheckerboard="0" inkscape:deskcolor="#d1d1d1">
    <sodipodi:guide orientation="horizontal" position="200" id="guide5596" inkscape:locked="false" />
    <inkscape:grid type="xygrid" id="grid3430" empspacing="50" />
    <sodipodi:guide position="550,1000" orientation="0,1" id="guide4169" inkscape:locked="false" />
  </sodipodi:namedview>
  <metadata id="metadata5594">
    <rdf:RDF>
      <cc:Work rdf:about="">
        <dc:format>image/svg+xml</dc:format>
        <dc:type rdf:resource="http://purl.org/dc/dcmitype/StillImage" />
        <dc:title />
      </cc:Work>
    </rdf:RDF>
  </metadata>
  <path inkscape:connector-curvature="0" id="path3584" d="m 973.85235,153.25192 0,449.48908 -49.70116,0.40335 0,-449.49186 z m 0,449.48908 c 0,35.27256 -15.23054,67.33177 -40.08393,90.5815 l -33.86499,-36.07451 c 15.02869,-14.02494 24.24776,-33.26492 24.24776,-54.10324 z m -40.08393,90.5815 c -24.44403,22.64388 -57.91087,36.8707 -94.58532,36.8707 l 0.40376,-49.6955 c 23.64212,0 45.08601,-9.01733 60.31657,-23.24971 z m -94.58532,36.8707 -461.71396,0 0.40098,-49.6955 461.71676,0 z m -461.51319,-24.84784 -0.20069,24.84784 c -13.82694,0 -24.8489,-11.01922 -24.8489,-24.84784 0.20029,-13.82864 11.42234,-24.84766 25.24986,-24.84766 z M 396.50676,721.57981 179.47699,973.27642 141.8027,941.00957 358.83247,689.11109 Z m -235.86662,235.66403 18.83685,16.03258 c -9.01776,10.62104 -24.8489,11.82097 -35.26971,2.80384 -10.22006,-8.81526 -11.42236,-24.64597 -2.40458,-35.07069 z m -24.24832,-5.00761 53.506,-251.70216 48.49606,9.62276 -53.506,251.8985 z m 77.75431,-246.89087 -24.4485,-5.00761 c 2.80552,-13.43043 16.0319,-22.24589 29.65862,-19.44205 13.42656,2.80382 22.04338,15.8307 19.03763,29.45745 z m -0.20069,24.84784 -53.10508,0 0.40099,-49.6955 53.10505,0 z m -53.10508,0 c -36.67274,0 -70.139018,-14.02493 -94.386846,-36.66883 l 34.267676,-36.4727 c 15.43075,14.4287 36.87295,23.44603 60.52014,23.44603 z M 66.453514,693.52437 C 41.804622,670.47653 26.374099,638.41177 26.374099,603.14475 l 49.898813,-0.40335 c 0,20.84387 9.218227,40.28017 24.448218,54.31068 z m -40.079415,-90.37962 0,-449.49187 49.898813,-0.40137 0,449.4891 z m 0,-449.49187 c 0,-35.47046 15.430523,-67.533647 40.279765,-90.579499 L 100.52094,99.14471 C 85.491139,113.17242 76.272912,132.21013 76.272912,153.25192 Z M 66.653864,63.073381 C 90.902036,40.228202 124.36831,26 161.24127,26 l -0.40097,49.898772 c -23.64661,0 -45.08939,8.817245 -60.31938,23.245938 z M 161.24127,26 l 678.34559,0 -0.40376,49.898772 -678.34278,0 z m 678.34559,0 c 36.66883,0 70.13568,14.228202 94.38345,36.873092 L 899.70156,99.34559 C 884.27474,84.716017 862.83083,75.898772 839.1831,75.898772 Z m 94.38345,36.873092 c 24.6515,23.045245 39.88204,55.109038 39.88204,90.378828 l -49.70116,0.40136 c 0,-21.04178 -9.21907,-40.27976 -24.44963,-54.30729 z" style="fill-opacity:1;fill-rule:nonzero;stroke:none" />
</svg>
