<?xml version="1.0" encoding="UTF-8" standalone="no"?>
<!-- Created with Inkscape (http://www.inkscape.org/) -->

<svg stroke="currentColor" fill="currentColor"
   xmlns:dc="http://purl.org/dc/elements/1.1/"
   xmlns:cc="http://creativecommons.org/ns#"
   xmlns:rdf="http://www.w3.org/1999/02/22-rdf-syntax-ns#"
   xmlns:svg="http://www.w3.org/2000/svg"
   xmlns="http://www.w3.org/2000/svg"
   xmlns:sodipodi="http://sodipodi.sourceforge.net/DTD/sodipodi-0.dtd"
   xmlns:inkscape="http://www.inkscape.org/namespaces/inkscape"
   width="1000"
   height="1000"
   id="svg4152"
   version="1.1"
   inkscape:version="0.91 r13725"
   viewBox="0 0 1000 1000"
   sodipodi:docname="electronic-boron.svg">
  <defs
     id="defs5498">
    <marker
       inkscape:isstock="true"
       style="overflow:visible"
       id="marker4233"
       refX="0.0"
       refY="0.0"
       orient="auto"
       inkscape:stockid="TriangleOutL">
      <path
         transform="scale(0.8)"
         style="fill-rule:evenodd;stroke-width:1pt;stroke-opacity:1;fill-opacity:1"
         d="M 5.77,0.0 L -2.88,5.0 L -2.88,-5.0 L 5.77,0.0 z "
         id="path4235" />
    </marker>
    <marker
       inkscape:isstock="true"
       style="overflow:visible"
       id="marker4755"
       refX="0.0"
       refY="0.0"
       orient="auto"
       inkscape:stockid="TriangleOutL">
      <path
         transform="scale(0.8)"
         style="fill-rule:evenodd;stroke-width:1pt;stroke-opacity:1;fill-opacity:1"
         d="M 5.77,0.0 L -2.88,5.0 L -2.88,-5.0 L 5.77,0.0 z "
         id="path4757" />
    </marker>
    <marker
       inkscape:stockid="Arrow1Lend"
       orient="auto"
       refY="0.0"
       refX="0.0"
       id="Arrow1Lend"
       style="overflow:visible;"
       inkscape:isstock="true">
      <path
         id="path4164"
         d="M 0.0,0.0 L 5.0,-5.0 L -12.5,0.0 L 5.0,5.0 L 0.0,0.0 z "
         style="fill-rule:evenodd;stroke-width:1pt;stroke-opacity:1;fill-opacity:1"
         transform="scale(0.8) rotate(180) translate(12.5,0)" />
    </marker>
    <marker
       inkscape:stockid="Arrow2Lend"
       orient="auto"
       refY="0.0"
       refX="0.0"
       id="Arrow2Lend"
       style="overflow:visible;"
       inkscape:isstock="true">
      <path
         id="path4182"
         style="fill-rule:evenodd;stroke-width:0.625;stroke-linejoin:round;stroke-opacity:1;fill-opacity:1"
         d="M 8.7185878,4.0337352 L -2.2072895,0.016013256 L 8.7185884,-4.0017078 C 6.9730900,-1.6296469 6.9831476,1.6157441 8.7185878,4.0337352 z "
         transform="scale(1.1) rotate(180) translate(1,0)" />
    </marker>
    <pattern
       y="0"
       x="0"
       height="6"
       width="6"
       patternUnits="userSpaceOnUse"
       id="EMFhbasepattern" />
  </defs>
  <sodipodi:namedview
     inkscape:window-height="1107"
     inkscape:window-width="2044"
     inkscape:pageshadow="2"
     inkscape:pageopacity="0.0"
     borderopacity="1.0"
     bordercolor="#666666"
     pagecolor="#ffffff"
     id="base"
     showgrid="true"
     showguides="true"
     inkscape:guide-bbox="true"
     inkscape:zoom="0.62225397"
     inkscape:cx="121.53717"
     inkscape:cy="617.15728"
     inkscape:window-x="4"
     inkscape:window-y="1"
     inkscape:current-layer="svg4152"
     inkscape:window-maximized="1"
     objecttolerance="20"
     inkscape:snap-text-baseline="false">
    <sodipodi:guide
       orientation="horizontal"
       position="200"
       id="guide5596"
       inkscape:locked="false" />
    <inkscape:grid
       type="xygrid"
       id="grid3430"
       empspacing="50" />
    <sodipodi:guide
       position="550,1000"
       orientation="0,1"
       id="guide4169"
       inkscape:locked="false" />
  </sodipodi:namedview>
  <metadata
     id="metadata5594">
    <rdf:RDF>
      <cc:Work
         rdf:about="">
        <dc:format>image/svg+xml</dc:format>
        <dc:type
           rdf:resource="http://purl.org/dc/dcmitype/StillImage" />
        <dc:title></dc:title>
      </cc:Work>
    </rdf:RDF>
  </metadata>
  <path
     style="fill-opacity:0;marker-end:"
     d="m 500,100 150,0 0,50 -150,0 z"
     id="rect6365" />
  <path
     style="fill-opacity:0;stroke-width:40;stroke-miterlimit:4;stroke-dasharray:none;stroke-opacity:1;marker-end:"
     d="M 105.11999,32.36395 H 894 V 968 H 105.11999 Z"
     id="rect6391-8"
     inkscape:connector-curvature="0" />
  <g
     style="font-style:normal;font-weight:normal;font-size:40px;line-height:1.25;font-family:sans-serif;letter-spacing:0px;word-spacing:0px;fill-opacity:1;stroke:none"
     id="flowRoot37" />
  <g
     style="font-style:normal;font-weight:normal;font-size:40px;line-height:1.25;font-family:sans-serif;letter-spacing:0px;word-spacing:0px;fill-opacity:1;stroke:none"
     id="flowRoot53" />
  <g
     transform="translate(83.085965,-224.56486)"
     style="font-style:normal;font-weight:normal;font-size:40px;line-height:1.25;font-family:sans-serif;letter-spacing:0px;word-spacing:0px;fill-opacity:1;stroke:none"
     id="flowRoot61">
    <path
       d="m 621.09375,728.4375 q 0,26.95312 -7.42188,48.82812 -7.42187,21.875 -20.70312,38.67188 -12.89063,16.79687 -31.25,28.90625 Q 543.75,856.95312 521.875,864.76562 500,872.57812 475,876.48437 450.39062,880 419.92187,880 l -134.375,0 q -12.89062,0 -21.875,-7.42188 -8.59375,-7.8125 -8.59375,-25 l 0,-440.625 q 0,-17.1875 8.59375,-24.60937 8.98438,-7.8125 21.875,-7.8125 l 126.95313,0 q 46.48437,0 78.51562,7.8125 32.42188,7.8125 54.29688,23.82812 22.26562,15.625 33.98437,39.84375 11.71875,24.21875 11.71875,57.03125 0,18.35938 -4.6875,34.76563 -4.6875,16.01562 -13.67187,29.29687 -8.98438,13.28125 -22.26563,23.4375 -12.89062,10.15625 -29.6875,16.40625 21.48438,3.90625 39.45313,13.67188 18.35937,9.76562 31.64062,25.39062 13.67188,15.23438 21.48438,35.9375 7.8125,20.70313 7.8125,46.48438 z M 488.28125,515.54687 q 0,-15.23437 -4.6875,-27.34375 -4.6875,-12.10937 -14.0625,-19.92187 -9.375,-8.20313 -23.82813,-12.5 -14.0625,-4.29688 -37.89062,-4.29688 l -51.95313,0 0,131.25 57.42188,0 q 22.26562,0 35.54687,-5.07812 13.28125,-5.46875 21.875,-14.45313 8.98438,-9.375 13.28125,-21.48437 4.29688,-12.5 4.29688,-26.17188 z m 26.17187,216.40625 q 0,-17.57812 -5.85937,-31.25 -5.85938,-14.0625 -17.1875,-23.4375 -11.32813,-9.375 -28.90625,-14.45312 -17.57813,-5.07813 -45.70313,-5.07813 l -60.9375,0 0,143.75 74.21875,0 q 21.48438,0 35.9375,-4.29687 14.84375,-4.6875 25.39063,-13.28125 10.9375,-8.98438 16.79687,-21.875 6.25,-13.28125 6.25,-30.07813 z"
       
       id="path4195" />
  </g>
  <g
     style="font-style:normal;font-weight:normal;font-size:40px;line-height:1.25;font-family:sans-serif;letter-spacing:0px;word-spacing:0px;fill-opacity:1;stroke:none"
     id="flowRoot69" />
  <g
     style="font-style:normal;font-weight:normal;font-size:40px;line-height:1.25;font-family:sans-serif;letter-spacing:0px;word-spacing:0px;fill-opacity:1;stroke:none"
     id="text79">
    <path
       d="m 215.60417,838.83854 q 0,2.00521 -0.21484,3.4375 -0.21485,1.36068 -0.64454,2.22005 -0.35807,0.78776 -0.85937,1.14584 Q 213.38412,846 212.73959,846 l -51.13282,0 q -0.57292,0 -1.07422,-0.35807 -0.5013,-0.35808 -0.93099,-1.14584 -0.35807,-0.85937 -0.57291,-2.22005 -0.21485,-1.43229 -0.21485,-3.4375 0,-2.07682 0.14323,-3.4375 0.21485,-1.43229 0.57292,-2.29167 0.42969,-0.85937 0.93099,-1.21744 0.5013,-0.42969 1.14583,-0.42969 l 17.25912,0 0,-60.29948 -14.89584,8.23568 q -1.64713,0.78776 -2.72135,1.0026 -1.00261,0.14323 -1.64714,-0.42969 -0.57291,-0.64453 -0.78776,-2.14844 -0.21484,-1.5039 -0.21484,-4.22526 0,-1.71875 0.0716,-2.79297 0.0716,-1.14583 0.35808,-1.93359 0.28645,-0.78776 0.78776,-1.28906 0.5013,-0.5013 1.36067,-1.07422 l 19.90886,-12.89063 q 0.35807,-0.28645 0.85937,-0.42968 0.57292,-0.21485 1.4323,-0.28646 0.85937,-0.14323 2.22005,-0.14323 1.43229,-0.0716 3.65234,-0.0716 2.72136,0 4.36849,0.14323 1.71875,0.0716 2.57813,0.35808 0.85937,0.21484 1.14583,0.64453 0.28646,0.42969 0.28646,1.07422 l 0,76.55599 15.11068,0 q 0.64453,0 1.14583,0.42969 0.57292,0.35807 0.93099,1.21744 0.42969,0.85938 0.57292,2.29167 0.21484,1.36068 0.21484,3.4375 z"
       
       id="path4199" />
    <path
       d="m 276.47657,825.51823 q 0,5.44271 -2.07682,9.59635 -2.00521,4.15365 -5.72917,6.94662 -3.72396,2.79297 -8.80859,4.15364 -5.08464,1.4323 -11.02865,1.4323 -3.58073,0 -6.875,-0.57292 -3.22266,-0.5013 -5.80078,-1.28906 -2.57813,-0.85938 -4.29688,-1.71875 -1.71875,-0.85938 -2.50651,-1.57552 -0.78776,-0.78777 -1.21745,-2.36329 -0.42968,-1.64713 -0.42968,-4.79817 0,-2.07683 0.14323,-3.29427 0.14322,-1.28907 0.42968,-2.00521 0.28646,-0.78776 0.71615,-1.00261 0.42969,-0.28646 1.07422,-0.28646 0.78776,0 2.29166,0.93099 1.57553,0.85938 3.86719,1.9336 2.29167,1.07422 5.29948,2.00521 3.07943,0.93099 6.94662,0.93099 2.43489,0 4.29687,-0.50131 1.9336,-0.5013 3.29427,-1.43229 1.43229,-0.93099 2.14844,-2.36328 0.71615,-1.43229 0.71615,-3.29427 0,-2.14844 -1.36068,-3.65234 -1.28906,-1.57552 -3.50912,-2.72136 -2.14843,-1.14583 -4.9414,-2.14844 -2.72136,-1.0026 -5.65755,-2.22005 -2.86459,-1.21745 -5.65756,-2.79297 -2.72135,-1.57552 -4.9414,-3.86718 -2.14844,-2.29167 -3.50912,-5.51433 -1.28906,-3.22265 -1.28906,-7.73437 0,-4.58334 1.79036,-8.37891 1.79037,-3.86719 5.15625,-6.58854 3.36589,-2.72136 8.16407,-4.22526 4.86979,-1.50391 10.88541,-1.50391 3.00782,0 5.80079,0.42969 2.86458,0.42969 5.15625,1.07422 2.29166,0.64453 3.86718,1.43229 1.57552,0.71615 2.22006,1.28906 0.71614,0.5013 1.0026,1.07422 0.28646,0.5013 0.42969,1.28906 0.14323,0.71615 0.21484,1.86198 0.14323,1.07422 0.14323,2.72136 0,1.93359 -0.14323,3.15104 -0.0716,1.21745 -0.35807,1.93359 -0.21485,0.71615 -0.64453,1.00261 -0.42969,0.21484 -1.00261,0.21484 -0.64453,0 -2.00521,-0.71614 -1.36067,-0.78777 -3.4375,-1.64714 -2.0052,-0.85938 -4.72656,-1.57552 -2.64974,-0.78776 -6.08724,-0.78776 -2.43489,0 -4.22526,0.5013 -1.79036,0.5013 -2.9362,1.43229 -1.14583,0.93099 -1.71875,2.22005 -0.57291,1.21745 -0.57291,2.64974 0,2.22006 1.36067,3.72396 1.36068,1.50391 3.58073,2.64974 2.22005,1.14584 5.01302,2.14844 2.86459,1.0026 5.72917,2.22005 2.9362,1.14584 5.72917,2.72136 2.86458,1.57552 5.08463,3.86718 2.22006,2.29167 3.58073,5.51433 1.36068,3.15104 1.36068,7.51953 z"
       
       id="path4201" />
    <path
       d="m 349.38022,779.67057 q 0,2.07682 -0.21485,3.58073 -0.14323,1.43229 -0.5013,2.36328 -0.35807,0.93099 -0.93099,1.36068 -0.57292,0.35807 -1.28906,0.35807 l -53.28125,0 q -1.57552,0 -2.72136,-0.28646 -1.14583,-0.28645 -1.86198,-1.07422 -0.71614,-0.85937 -1.07422,-2.43489 -0.28645,-1.57552 -0.28645,-4.08203 0,-2.36328 0.21484,-4.01042 0.21484,-1.71875 0.78776,-3.00781 0.57292,-1.36068 1.43229,-2.57813 0.93099,-1.28906 2.36328,-2.79297 l 16.04167,-17.1875 q 4.79818,-5.01302 7.73438,-9.09505 2.93619,-4.15364 4.58333,-7.51953 1.64713,-3.4375 2.22005,-6.30208 0.64453,-2.86459 0.64453,-5.44271 0,-2.36328 -0.78776,-4.44011 -0.71614,-2.14843 -2.22005,-3.72396 -1.43229,-1.57552 -3.65234,-2.43489 -2.22006,-0.93099 -5.22787,-0.93099 -4.22526,0 -7.51953,1.07422 -3.22266,1.07422 -5.72917,2.43489 -2.43489,1.28907 -4.08203,2.4349 -1.64713,1.07422 -2.57812,1.07422 -0.64454,0 -1.14584,-0.42969 -0.42969,-0.42969 -0.71614,-1.43229 -0.28646,-1.0026 -0.50131,-2.64974 -0.14322,-1.71875 -0.14322,-4.15365 0,-1.64713 0.0716,-2.72135 0.14323,-1.14583 0.35807,-1.93359 0.21485,-0.85938 0.57292,-1.4323 0.35807,-0.64453 1.21745,-1.5039 0.93099,-0.85938 3.29427,-2.14844 2.43489,-1.36068 5.94401,-2.57812 3.50911,-1.28907 7.73437,-2.14844 4.22526,-0.85938 8.8086,-0.85938 7.23307,0 12.60417,1.86198 5.4427,1.79037 9.02343,5.08464 3.58073,3.22265 5.29948,7.73437 1.79037,4.44011 1.79037,9.59636 0,4.51172 -0.85938,8.88021 -0.85937,4.36849 -3.58073,9.45312 -2.72135,5.01302 -7.66276,11.17188 -4.9414,6.08724 -13.10547,14.17968 l -10.8138,11.10027 36.52344,0 q 0.71615,0 1.28906,0.42968 0.64453,0.42969 1.07422,1.36068 0.42969,0.85937 0.64453,2.36328 0.21485,1.43229 0.21485,3.4375 z"
       
       id="path4203" />
    <path
       d="m 457.08856,838.33724 q 0,2.07682 -0.21484,3.58073 -0.14323,1.43229 -0.50131,2.36328 -0.35807,0.93099 -0.93099,1.36068 Q 454.86851,846 454.15236,846 l -53.28125,0 q -1.57552,0 -2.72135,-0.28646 -1.14584,-0.28646 -1.86198,-1.07422 -0.71615,-0.85937 -1.07422,-2.43489 -0.28646,-1.57552 -0.28646,-4.08203 0,-2.36329 0.21484,-4.01042 0.21485,-1.71875 0.78776,-3.00781 0.57292,-1.36068 1.43229,-2.57813 0.93099,-1.28906 2.36329,-2.79297 l 16.04166,-17.1875 q 4.79818,-5.01302 7.73438,-9.09505 2.9362,-4.15365 4.58333,-7.51953 1.64714,-3.4375 2.22005,-6.30209 0.64454,-2.86458 0.64454,-5.4427 0,-2.36329 -0.78776,-4.44011 -0.71615,-2.14844 -2.22006,-3.72396 -1.43229,-1.57552 -3.65234,-2.43489 -2.22005,-0.93099 -5.22787,-0.93099 -4.22526,0 -7.51953,1.07422 -3.22265,1.07421 -5.72916,2.43489 -2.4349,1.28906 -4.08204,2.4349 -1.64713,1.07422 -2.57812,1.07422 -0.64453,0 -1.14583,-0.42969 -0.42969,-0.42969 -0.71615,-1.43229 -0.28646,-1.00261 -0.5013,-2.64974 -0.14323,-1.71875 -0.14323,-4.15365 0,-1.64713 0.0716,-2.72135 0.14323,-1.14584 0.35808,-1.9336 0.21484,-0.85937 0.57291,-1.43229 0.35808,-0.64453 1.21745,-1.5039 0.93099,-0.85938 3.29427,-2.14844 2.4349,-1.36068 5.94401,-2.57813 3.50912,-1.28906 7.73438,-2.14843 4.22526,-0.85938 8.80859,-0.85938 7.23308,0 12.60417,1.86198 5.44271,1.79036 9.02344,5.08464 3.58073,3.22265 5.29948,7.73437 1.79036,4.4401 1.79036,9.59636 0,4.51171 -0.85937,8.8802 -0.85938,4.36849 -3.58073,9.45313 -2.72136,5.01302 -7.66276,11.17187 -4.94141,6.08724 -13.10547,14.17969 l -10.81381,11.10026 36.52344,0 q 0.71615,0 1.28907,0.42969 0.64453,0.42969 1.07421,1.36068 0.42969,0.85937 0.64454,2.36328 0.21484,1.43229 0.21484,3.4375 z"
       
       id="path4205" />
    <path
       d="m 517.10158,825.51823 q 0,5.44271 -2.07682,9.59635 -2.00521,4.15365 -5.72917,6.94662 -3.72395,2.79297 -8.80859,4.15364 -5.08463,1.4323 -11.02865,1.4323 -3.58072,0 -6.875,-0.57292 -3.22265,-0.5013 -5.80078,-1.28906 -2.57812,-0.85938 -4.29687,-1.71875 -1.71875,-0.85938 -2.50651,-1.57552 -0.78776,-0.78777 -1.21745,-2.36329 -0.42969,-1.64713 -0.42969,-4.79817 0,-2.07683 0.14323,-3.29427 0.14323,-1.28907 0.42969,-2.00521 0.28646,-0.78776 0.71614,-1.00261 0.42969,-0.28646 1.07422,-0.28646 0.78776,0 2.29167,0.93099 1.57552,0.85938 3.86719,1.9336 2.29166,1.07422 5.29948,2.00521 3.07942,0.93099 6.94661,0.93099 2.4349,0 4.29688,-0.50131 1.93359,-0.5013 3.29427,-1.43229 1.43229,-0.93099 2.14844,-2.36328 0.71614,-1.43229 0.71614,-3.29427 0,-2.14844 -1.36068,-3.65234 -1.28906,-1.57552 -3.50911,-2.72136 -2.14844,-1.14583 -4.94141,-2.14844 -2.72135,-1.0026 -5.65755,-2.22005 -2.86458,-1.21745 -5.65755,-2.79297 -2.72136,-1.57552 -4.94141,-3.86718 -2.14844,-2.29167 -3.50911,-5.51433 -1.28907,-3.22265 -1.28907,-7.73437 0,-4.58334 1.79037,-8.37891 1.79036,-3.86719 5.15625,-6.58854 3.36589,-2.72136 8.16406,-4.22526 4.86979,-1.50391 10.88542,-1.50391 3.00781,0 5.80078,0.42969 2.86458,0.42969 5.15625,1.07422 2.29167,0.64453 3.86719,1.43229 1.57552,0.71615 2.22005,1.28906 0.71615,0.5013 1.0026,1.07422 0.28646,0.5013 0.42969,1.28906 0.14323,0.71615 0.21485,1.86198 0.14323,1.07422 0.14323,2.72136 0,1.93359 -0.14323,3.15104 -0.0716,1.21745 -0.35808,1.93359 -0.21484,0.71615 -0.64453,1.00261 -0.42969,0.21484 -1.0026,0.21484 -0.64453,0 -2.00521,-0.71614 -1.36068,-0.78777 -3.4375,-1.64714 -2.00521,-0.85938 -4.72656,-1.57552 -2.64974,-0.78776 -6.08724,-0.78776 -2.4349,0 -4.22526,0.5013 -1.79037,0.5013 -2.9362,1.43229 -1.14584,0.93099 -1.71875,2.22005 -0.57292,1.21745 -0.57292,2.64974 0,2.22006 1.36068,3.72396 1.36068,1.50391 3.58073,2.64974 2.22005,1.14584 5.01302,2.14844 2.86458,1.0026 5.72917,2.22005 2.93619,1.14584 5.72916,2.72136 2.86459,1.57552 5.08464,3.86718 2.22005,2.29167 3.58073,5.51433 1.36067,3.15104 1.36067,7.51953 z"
       
       id="path4207" />
    <path
       d="m 590.00523,779.67057 q 0,2.07682 -0.21484,3.58073 -0.14323,1.43229 -0.5013,2.36328 -0.35808,0.93099 -0.93099,1.36068 -0.57292,0.35807 -1.28907,0.35807 l -53.28125,0 q -1.57552,0 -2.72135,-0.28646 -1.14584,-0.28645 -1.86198,-1.07422 -0.71615,-0.85937 -1.07422,-2.43489 -0.28646,-1.57552 -0.28646,-4.08203 0,-2.36328 0.21484,-4.01042 0.21485,-1.71875 0.78776,-3.00781 0.57292,-1.36068 1.4323,-2.57813 0.93099,-1.28906 2.36328,-2.79297 l 16.04167,-17.1875 q 4.79817,-5.01302 7.73437,-9.09505 2.9362,-4.15364 4.58333,-7.51953 1.64714,-3.4375 2.22006,-6.30208 0.64453,-2.86459 0.64453,-5.44271 0,-2.36328 -0.78776,-4.44011 -0.71615,-2.14843 -2.22006,-3.72396 -1.43229,-1.57552 -3.65234,-2.43489 -2.22005,-0.93099 -5.22786,-0.93099 -4.22526,0 -7.51954,1.07422 -3.22265,1.07422 -5.72916,2.43489 -2.4349,1.28907 -4.08203,2.4349 -1.64714,1.07422 -2.57813,1.07422 -0.64453,0 -1.14583,-0.42969 -0.42969,-0.42969 -0.71615,-1.43229 -0.28646,-1.0026 -0.5013,-2.64974 -0.14323,-1.71875 -0.14323,-4.15365 0,-1.64713 0.0716,-2.72135 0.14322,-1.14583 0.35807,-1.93359 0.21484,-0.85938 0.57291,-1.4323 0.35808,-0.64453 1.21745,-1.5039 0.93099,-0.85938 3.29427,-2.14844 2.4349,-1.36068 5.94401,-2.57812 3.50912,-1.28907 7.73438,-2.14844 4.22526,-0.85938 8.80859,-0.85938 7.23308,0 12.60417,1.86198 5.44271,1.79037 9.02344,5.08464 3.58073,3.22265 5.29948,7.73437 1.79036,4.44011 1.79036,9.59636 0,4.51172 -0.85937,8.88021 -0.85938,4.36849 -3.58073,9.45312 -2.72136,5.01302 -7.66276,11.17188 -4.94141,6.08724 -13.10547,14.17968 l -10.8138,11.10027 36.52343,0 q 0.71615,0 1.28907,0.42968 0.64453,0.42969 1.07422,1.36068 0.42968,0.85937 0.64453,2.36328 0.21484,1.43229 0.21484,3.4375 z"
       
       id="path4209" />
    <path
       d="m 697.71357,838.33724 q 0,2.07682 -0.21484,3.58073 -0.14323,1.43229 -0.5013,2.36328 -0.35807,0.93099 -0.93099,1.36068 Q 695.49352,846 694.77738,846 l -53.28126,0 q -1.57552,0 -2.72135,-0.28646 -1.14583,-0.28646 -1.86198,-1.07422 -0.71614,-0.85937 -1.07422,-2.43489 -0.28646,-1.57552 -0.28646,-4.08203 0,-2.36329 0.21485,-4.01042 0.21484,-1.71875 0.78776,-3.00781 0.57291,-1.36068 1.43229,-2.57813 0.93099,-1.28906 2.36328,-2.79297 l 16.04167,-17.1875 q 4.79818,-5.01302 7.73437,-9.09505 2.9362,-4.15365 4.58334,-7.51953 1.64713,-3.4375 2.22005,-6.30209 0.64453,-2.86458 0.64453,-5.4427 0,-2.36329 -0.78776,-4.44011 -0.71615,-2.14844 -2.22005,-3.72396 -1.43229,-1.57552 -3.65235,-2.43489 -2.22005,-0.93099 -5.22786,-0.93099 -4.22526,0 -7.51953,1.07422 -3.22266,1.07421 -5.72917,2.43489 -2.43489,1.28906 -4.08203,2.4349 -1.64714,1.07422 -2.57813,1.07422 -0.64453,0 -1.14583,-0.42969 -0.42969,-0.42969 -0.71614,-1.43229 -0.28646,-1.00261 -0.50131,-2.64974 -0.14323,-1.71875 -0.14323,-4.15365 0,-1.64713 0.0716,-2.72135 0.14323,-1.14584 0.35807,-1.9336 0.21485,-0.85937 0.57292,-1.43229 0.35807,-0.64453 1.21745,-1.5039 0.93099,-0.85938 3.29427,-2.14844 2.43489,-1.36068 5.94401,-2.57813 3.50911,-1.28906 7.73437,-2.14843 4.22526,-0.85938 8.8086,-0.85938 7.23307,0 12.60416,1.86198 5.44271,1.79036 9.02344,5.08464 3.58073,3.22265 5.29948,7.73437 1.79037,4.4401 1.79037,9.59636 0,4.51171 -0.85938,8.8802 -0.85937,4.36849 -3.58073,9.45313 -2.72135,5.01302 -7.66276,11.17187 -4.94141,6.08724 -13.10547,14.17969 l -10.8138,11.10026 36.52344,0 q 0.71614,0 1.28906,0.42969 0.64453,0.42969 1.07422,1.36068 0.42969,0.85937 0.64453,2.36328 0.21484,1.43229 0.21484,3.4375 z"
       
       id="path4211" />
    <path
       d="m 777.06252,810.69401 q 0,8.52213 -1.86198,15.39714 -1.79036,6.80338 -5.29948,11.60156 -3.50911,4.79818 -8.73698,7.3763 -5.22786,2.57813 -11.95963,2.57813 -2.79297,0 -5.15625,-0.57292 -2.29167,-0.5013 -4.51172,-1.57552 -2.14844,-1.14584 -4.29688,-2.79297 -2.14843,-1.64714 -4.4401,-3.86719 l 0,30.07813 q 0,0.71614 -0.42969,1.28906 -0.42968,0.57292 -1.5039,0.93099 -1.00261,0.42969 -2.72136,0.64453 -1.71875,0.21484 -4.36849,0.21484 -2.64974,0 -4.36849,-0.21484 -1.71875,-0.21484 -2.79297,-0.64453 -1.0026,-0.35807 -1.43229,-0.93099 -0.42969,-0.57292 -0.42969,-1.28906 l 0,-89.23178 q 0,-0.71614 0.35808,-1.21744 0.35807,-0.57292 1.21745,-0.93099 0.93099,-0.35808 2.36328,-0.50131 1.5039,-0.21484 3.72396,-0.21484 2.14843,0 3.58072,0.21484 1.50391,0.14323 2.36329,0.50131 0.93099,0.35807 1.28906,0.93099 0.35807,0.5013 0.35807,1.21744 l 0,7.51954 q 2.79297,-2.86459 5.44271,-5.01303 2.72135,-2.22005 5.51432,-3.65234 2.79297,-1.50391 5.72917,-2.22005 3.00781,-0.71615 6.3737,-0.71615 7.01823,0 11.95963,2.79297 4.94141,2.72136 8.02084,7.51953 3.15104,4.79818 4.58333,11.17188 1.43229,6.3737 1.43229,13.60677 z m -18.76302,1.28906 q 0,-4.08203 -0.64453,-7.80599 -0.57292,-3.79557 -2.07682,-6.73177 -1.43229,-2.9362 -3.86719,-4.65495 Q 749.34768,791 745.76695,791 q -1.79037,0 -3.58073,0.57291 -1.71875,0.50131 -3.58073,1.71875 -1.79036,1.21745 -3.72396,3.15105 -1.93359,1.93359 -4.08203,4.79817 l 0,21.05469 q 3.79557,4.79818 7.23307,7.44792 3.4375,2.57812 7.16146,2.57812 3.50912,0 5.94401,-1.79036 2.50651,-1.79037 4.08203,-4.65495 1.57553,-2.9362 2.29167,-6.58854 0.78776,-3.65234 0.78776,-7.30469 z"
       
       id="path4213" />
    <path
       d="m 850.10942,780.17187 q 0,2.00521 -0.21485,3.4375 -0.21484,1.36068 -0.64453,2.22006 -0.35807,0.78776 -0.85937,1.14583 -0.5013,0.35807 -1.14584,0.35807 l -51.13281,0 q -0.57292,0 -1.07422,-0.35807 -0.5013,-0.35807 -0.93099,-1.14583 -0.35807,-0.85938 -0.57291,-2.22006 -0.21485,-1.43229 -0.21485,-3.4375 0,-2.07682 0.14323,-3.4375 0.21484,-1.43229 0.57292,-2.29166 0.42968,-0.85938 0.93099,-1.21745 0.5013,-0.42969 1.14583,-0.42969 l 17.25912,0 0,-60.29948 -14.89584,8.23568 q -1.64713,0.78776 -2.72135,1.0026 -1.00261,0.14323 -1.64714,-0.42969 -0.57291,-0.64453 -0.78776,-2.14843 -0.21484,-1.50391 -0.21484,-4.22526 0,-1.71875 0.0716,-2.79297 0.0716,-1.14584 0.35808,-1.9336 0.28645,-0.78776 0.78776,-1.28906 0.5013,-0.5013 1.36067,-1.07422 l 19.90886,-12.89062 q 0.35807,-0.28646 0.85937,-0.42969 0.57292,-0.21484 1.43229,-0.28646 0.85938,-0.14323 2.22006,-0.14323 1.43229,-0.0716 3.65234,-0.0716 2.72135,0 4.36849,0.14323 1.71875,0.0716 2.57813,0.35807 0.85937,0.21484 1.14583,0.64453 0.28646,0.42969 0.28646,1.07422 l 0,76.55599 15.11067,0 q 0.64454,0 1.14584,0.42969 0.57291,0.35807 0.93099,1.21745 0.42969,0.85937 0.57291,2.29166 0.21485,1.36068 0.21485,3.4375 z"
       
       id="path4215" />
  </g>
</svg>
