<?xml version="1.0" encoding="UTF-8" standalone="no"?>
<!-- Created with Inkscape (http://www.inkscape.org/) -->

<svg stroke="currentColor" fill="currentColor"
   xmlns:dc="http://purl.org/dc/elements/1.1/"
   xmlns:cc="http://creativecommons.org/ns#"
   xmlns:rdf="http://www.w3.org/1999/02/22-rdf-syntax-ns#"
   xmlns:svg="http://www.w3.org/2000/svg"
   xmlns="http://www.w3.org/2000/svg"
   xmlns:sodipodi="http://sodipodi.sourceforge.net/DTD/sodipodi-0.dtd"
   xmlns:inkscape="http://www.inkscape.org/namespaces/inkscape"
   width="1000"
   height="1000"
   id="svg4152"
   version="1.1"
   inkscape:version="0.91 r13725"
   viewBox="0 0 1000 1000"
   sodipodi:docname="electronegativity.svg">
  <defs
     id="defs5498">
    <inkscape:perspective
       sodipodi:type="inkscape:persp3d"
       inkscape:vp_x="0 : 500 : 1"
       inkscape:vp_y="0 : 1000 : 0"
       inkscape:vp_z="1000 : 500 : 1"
       inkscape:persp3d-origin="500 : 333.33333 : 1"
       id="perspective4660" />
    <marker
       inkscape:isstock="true"
       style="overflow:visible"
       id="marker4233"
       refX="0.0"
       refY="0.0"
       orient="auto"
       inkscape:stockid="TriangleOutL">
      <path
         transform="scale(0.8)"
         style="fill-rule:evenodd;stroke-width:1pt;stroke-opacity:1;fill-opacity:1"
         d="M 5.77,0.0 L -2.88,5.0 L -2.88,-5.0 L 5.77,0.0 z "
         id="path4235" />
    </marker>
    <marker
       inkscape:isstock="true"
       style="overflow:visible"
       id="marker4755"
       refX="0.0"
       refY="0.0"
       orient="auto"
       inkscape:stockid="TriangleOutL">
      <path
         transform="scale(0.8)"
         style="fill-rule:evenodd;stroke-width:1pt;stroke-opacity:1;fill-opacity:1"
         d="M 5.77,0.0 L -2.88,5.0 L -2.88,-5.0 L 5.77,0.0 z "
         id="path4757" />
    </marker>
    <marker
       inkscape:stockid="Arrow1Lend"
       orient="auto"
       refY="0.0"
       refX="0.0"
       id="Arrow1Lend"
       style="overflow:visible;"
       inkscape:isstock="true">
      <path
         id="path4164"
         d="M 0.0,0.0 L 5.0,-5.0 L -12.5,0.0 L 5.0,5.0 L 0.0,0.0 z "
         style="fill-rule:evenodd;stroke-width:1pt;stroke-opacity:1;fill-opacity:1"
         transform="scale(0.8) rotate(180) translate(12.5,0)" />
    </marker>
    <marker
       inkscape:stockid="Arrow2Lend"
       orient="auto"
       refY="0.0"
       refX="0.0"
       id="Arrow2Lend"
       style="overflow:visible;"
       inkscape:isstock="true">
      <path
         id="path4182"
         style="fill-rule:evenodd;stroke-width:0.625;stroke-linejoin:round;stroke-opacity:1;fill-opacity:1"
         d="M 8.7185878,4.0337352 L -2.2072895,0.016013256 L 8.7185884,-4.0017078 C 6.9730900,-1.6296469 6.9831476,1.6157441 8.7185878,4.0337352 z "
         transform="scale(1.1) rotate(180) translate(1,0)" />
    </marker>
    <pattern
       y="0"
       x="0"
       height="6"
       width="6"
       patternUnits="userSpaceOnUse"
       id="EMFhbasepattern" />
  </defs>
  <sodipodi:namedview
     inkscape:window-height="1107"
     inkscape:window-width="2044"
     inkscape:pageshadow="2"
     inkscape:pageopacity="0.0"
     borderopacity="1.0"
     bordercolor="#666666"
     pagecolor="#ffffff"
     id="base"
     showgrid="true"
     showguides="true"
     inkscape:guide-bbox="true"
     inkscape:zoom="0.8125"
     inkscape:cx="33.880346"
     inkscape:cy="461.4693"
     inkscape:window-x="4"
     inkscape:window-y="1"
     inkscape:current-layer="flowRoot118"
     inkscape:window-maximized="1"
     objecttolerance="20"
     inkscape:snap-bbox="false">
    <sodipodi:guide
       orientation="horizontal"
       position="200"
       id="guide5596"
       inkscape:locked="false" />
    <inkscape:grid
       type="xygrid"
       id="grid3430"
       empspacing="50" />
    <sodipodi:guide
       position="550,1000"
       orientation="0,1"
       id="guide4169"
       inkscape:locked="false" />
  </sodipodi:namedview>
  <metadata
     id="metadata5594">
    <rdf:RDF>
      <cc:Work
         rdf:about="">
        <dc:format>image/svg+xml</dc:format>
        <dc:type
           rdf:resource="http://purl.org/dc/dcmitype/StillImage" />
        <dc:title />
      </cc:Work>
    </rdf:RDF>
  </metadata>
  <path
     style="fill-opacity:0"
     d="m 499.9,100 h 150 v 50 h -150 z"
     id="rect6365"
     inkscape:connector-curvature="0" />
  <path
     style="fill-opacity:0;stroke-width:40;stroke-miterlimit:4;stroke-dasharray:none;stroke-opacity:1"
     d="M 103.838,31.18198 H 892.71801 V 966.81803 H 103.838 Z"
     id="rect6391"
     inkscape:connector-curvature="0" />
  <g
     style="font-style:normal;font-weight:normal;line-height:0%;font-family:sans-serif;letter-spacing:0px;word-spacing:0px;fill-opacity:1;stroke:none"
     id="text4555"
     transform="translate(-0.1)" />
  <g
     style="font-style:normal;font-weight:normal;line-height:0.01%;font-family:sans-serif;letter-spacing:0px;word-spacing:0px;fill-opacity:1;stroke:none"
     id="flowRoot4529"
     transform="translate(-0.1)" />
  <g
     style="font-style:normal;font-weight:normal;line-height:0.01%;font-family:sans-serif;letter-spacing:0px;word-spacing:0px;fill-opacity:1;stroke:none"
     id="flowRoot74"
     transform="translate(-0.1)" />
  <g
     style="font-style:normal;font-weight:normal;line-height:0.01%;font-family:sans-serif;letter-spacing:0px;word-spacing:0px;fill-opacity:1;stroke:none"
     id="flowRoot90"
     transform="translate(-0.1)" />
  <g
     transform="translate(778.36154,33.230774)"
     style="font-style:normal;font-weight:normal;font-size:693.33331299px;line-height:0.01%;font-family:sans-serif;letter-spacing:0px;word-spacing:0px;fill-opacity:1;stroke:none"
     id="flowRoot110">
    <path
       d="m -156.48438,355.15624 q 0,10.15625 -1.01563,17.26563 -0.67708,6.77083 -2.70833,10.83333 -1.69271,4.0625 -4.0625,6.09375 -2.36979,2.03125 -5.41667,2.03125 h -143.20312 v 117.8125 h 134.40104 q 3.04687,0 5.41667,1.69271 2.36979,1.6927 4.0625,5.7552 2.03125,4.0625 2.70833,10.83334 1.01562,6.77083 1.01562,16.92708 0,10.15625 -1.01562,16.92708 -0.67708,6.77084 -2.70833,11.17188 -1.69271,4.40104 -4.0625,6.43229 -2.3698,1.69271 -5.41667,1.69271 h -134.40104 v 163.17708 q 0,3.72395 -2.03125,6.43229 -2.03125,2.70833 -7.44792,4.73958 -5.07812,1.69271 -13.54166,2.70833 -8.46354,1.01563 -21.66667,1.01563 -12.86458,0 -21.66666,-1.01563 -8.46355,-1.01562 -13.54167,-2.70833 -5.07812,-2.03125 -7.44792,-4.73958 -2.03125,-2.70834 -2.03125,-6.43229 V 346.6927 q 0,-14.89583 7.44792,-21.32812 7.78646,-6.77083 18.95833,-6.77083 h 206.17187 q 3.04688,0 5.41667,2.03124 2.36979,1.69271 4.0625,6.09375 2.03125,4.0625 2.70833,11.17188 1.01563,7.10937 1.01563,17.26562 z"
       id="path70"
       inkscape:connector-curvature="0" />
  </g>
  <g
     transform="translate(947.13079,-183.84615)"
     style="font-style:normal;font-weight:normal;line-height:0.01%;font-family:sans-serif;letter-spacing:0px;word-spacing:0px;fill-opacity:1;stroke:none"
     id="flowRoot118">
    <path
       d="m -289.76562,407.16146 q 0,5.64453 -1.21745,8.63281 -1.10677,2.87761 -3.09896,2.87761 l -12.72786,0 0,25.89844 q 0,1.10677 -0.66407,1.99218 -0.66406,0.77474 -2.32422,1.32813 -1.66015,0.55338 -4.3164,0.77474 -2.65625,0.33203 -6.86198,0.33203 -3.98438,0 -6.7513,-0.33203 -2.65625,-0.22136 -4.31641,-0.77474 -1.54948,-0.55339 -2.21354,-1.32813 -0.55339,-0.88541 -0.55339,-1.99218 l 0,-25.89844 -54.78515,0 q -1.54948,0 -2.76693,-0.33203 -1.21745,-0.44271 -2.10287,-1.77084 -0.77474,-1.4388 -1.21744,-3.98437 -0.33203,-2.65625 -0.33203,-6.97266 0,-3.54166 0.11067,-6.08724 0.22136,-2.65625 0.55339,-4.75911 0.44271,-2.10287 1.10677,-3.98438 0.77474,-1.88151 1.88151,-3.98437 l 44.49219,-78.47006 q 0.55338,-0.99609 1.88151,-1.66015 1.32812,-0.77474 3.65234,-1.21745 2.4349,-0.55339 6.08724,-0.77474 3.65235,-0.22135 8.85417,-0.22135 5.64453,0 9.6289,0.33203 3.98438,0.22135 6.3086,0.88541 2.43489,0.55339 3.54167,1.43881 1.10677,0.88541 1.10677,2.10286 l 0,86.21745 12.72786,0 q 1.77083,0 2.98828,2.76693 1.32813,2.65625 1.32813,8.96484 z m -45.04558,-77.58464 -0.22135,0 -37.74089,65.85287 37.96224,0 z"
       id="path73"
       inkscape:connector-curvature="0" />
    <path
       d="m -238.1901,432.39584 q 0,10.29297 -3.65234,13.83463 -3.54167,3.54167 -12.83854,3.54167 -9.29688,0 -12.83855,-3.43099 -3.54166,-3.54167 -3.54166,-13.28125 0,-10.40365 3.54166,-13.94531 3.65235,-3.54167 13.0599,-3.54167 9.1862,0 12.72787,3.54167 3.54166,3.43099 3.54166,13.28125 z"
       id="path75"
       inkscape:connector-curvature="0" />
    <path
       d="m -115.55988,376.17188 q 0,17.15495 -2.76693,30.98958 -2.76693,13.83464 -9.07552,23.57422 -6.19792,9.73958 -16.26953,14.94141 -9.96094,5.20182 -24.45964,5.20182 -14.72005,0 -24.34896,-4.98047 -9.6289,-5.09114 -15.27344,-14.4987 -5.64453,-9.51823 -7.96875,-23.13151 -2.21354,-13.72396 -2.21354,-30.98958 0,-17.04427 2.76693,-30.87891 2.8776,-13.94531 9.07552,-23.68489 6.30859,-9.73959 16.26953,-14.94141 10.07162,-5.20182 24.45964,-5.20182 14.72005,0 24.34896,5.09114 9.73958,4.98047 15.38411,14.4987 5.64453,9.40755 7.85808,23.13151 2.21354,13.61328 2.21354,30.87891 z m -29.32943,1.4388 q 0,-10.18229 -0.55339,-17.92969 -0.55338,-7.85807 -1.77083,-13.61328 -1.10677,-5.75521 -2.8776,-9.73958 -1.66016,-3.98438 -4.09506,-6.3086 -2.43489,-2.43489 -5.53385,-3.43099 -3.09896,-0.99609 -6.86198,-0.99609 -6.52995,0 -10.84635,3.20964 -4.20573,3.09895 -6.75131,9.40755 -2.43489,6.30859 -3.43099,15.71614 -0.99609,9.40756 -0.99609,21.91407 0,15.27343 1.21745,25.34505 1.21745,9.96094 3.76302,15.9375 2.65625,5.86589 6.7513,8.30078 4.09505,2.32422 9.85026,2.32422 4.31641,0 7.63672,-1.32813 3.32031,-1.4388 5.75521,-4.20572 2.54557,-2.76693 4.20573,-6.97266 1.66015,-4.20573 2.65625,-9.73958 1.10677,-5.53386 1.4388,-12.50652 0.44271,-6.97265 0.44271,-15.38411 z"
       id="path77"
       inkscape:connector-curvature="0" />
  </g>
  <g
     style="font-style:normal;font-weight:normal;line-height:0.01%;font-family:sans-serif;letter-spacing:0px;word-spacing:0px;fill-opacity:1;stroke:none"
     id="flowRoot126"
     transform="translate(-0.1)" />
</svg>
