<?xml version="1.0" encoding="UTF-8" standalone="no"?>
<!-- Created with Inkscape (http://www.inkscape.org/) -->

<svg stroke="currentColor" fill="currentColor"
   xmlns:dc="http://purl.org/dc/elements/1.1/"
   xmlns:cc="http://creativecommons.org/ns#"
   xmlns:rdf="http://www.w3.org/1999/02/22-rdf-syntax-ns#"
   xmlns:svg="http://www.w3.org/2000/svg"
   xmlns="http://www.w3.org/2000/svg"
   xmlns:sodipodi="http://sodipodi.sourceforge.net/DTD/sodipodi-0.dtd"
   xmlns:inkscape="http://www.inkscape.org/namespaces/inkscape"
   width="1000"
   height="1000"
   id="svg4152"
   version="1.1"
   inkscape:version="0.91 r13725"
   viewBox="0 0 1000 1000"
   sodipodi:docname="electronic-lithiumi.svg">
  <defs
     id="defs5498">
    <inkscape:perspective
       sodipodi:type="inkscape:persp3d"
       inkscape:vp_x="0 : 500 : 1"
       inkscape:vp_y="0 : 1000 : 0"
       inkscape:vp_z="1000 : 500 : 1"
       inkscape:persp3d-origin="500 : 333.33333 : 1"
       id="perspective4660" />
    <marker
       inkscape:isstock="true"
       style="overflow:visible"
       id="marker4233"
       refX="0.0"
       refY="0.0"
       orient="auto"
       inkscape:stockid="TriangleOutL">
      <path
         transform="scale(0.8)"
         style="fill-rule:evenodd;stroke:#000000;stroke-width:1pt;stroke-opacity:1;fill:#000000;fill-opacity:1"
         d="M 5.77,0.0 L -2.88,5.0 L -2.88,-5.0 L 5.77,0.0 z "
         id="path4235" />
    </marker>
    <marker
       inkscape:isstock="true"
       style="overflow:visible"
       id="marker4755"
       refX="0.0"
       refY="0.0"
       orient="auto"
       inkscape:stockid="TriangleOutL">
      <path
         transform="scale(0.8)"
         style="fill-rule:evenodd;stroke:#000000;stroke-width:1pt;stroke-opacity:1;fill:#000000;fill-opacity:1"
         d="M 5.77,0.0 L -2.88,5.0 L -2.88,-5.0 L 5.77,0.0 z "
         id="path4757" />
    </marker>
    <marker
       inkscape:stockid="Arrow1Lend"
       orient="auto"
       refY="0.0"
       refX="0.0"
       id="Arrow1Lend"
       style="overflow:visible;"
       inkscape:isstock="true">
      <path
         id="path4164"
         d="M 0.0,0.0 L 5.0,-5.0 L -12.5,0.0 L 5.0,5.0 L 0.0,0.0 z "
         style="fill-rule:evenodd;stroke:#000000;stroke-width:1pt;stroke-opacity:1;fill:#000000;fill-opacity:1"
         transform="scale(0.8) rotate(180) translate(12.5,0)" />
    </marker>
    <marker
       inkscape:stockid="Arrow2Lend"
       orient="auto"
       refY="0.0"
       refX="0.0"
       id="Arrow2Lend"
       style="overflow:visible;"
       inkscape:isstock="true">
      <path
         id="path4182"
         style="fill-rule:evenodd;stroke-width:0.625;stroke-linejoin:round;stroke:#000000;stroke-opacity:1;fill:#000000;fill-opacity:1"
         d="M 8.7185878,4.0337352 L -2.2072895,0.016013256 L 8.7185884,-4.0017078 C 6.9730900,-1.6296469 6.9831476,1.6157441 8.7185878,4.0337352 z "
         transform="scale(1.1) rotate(180) translate(1,0)" />
    </marker>
    <pattern
       y="0"
       x="0"
       height="6"
       width="6"
       patternUnits="userSpaceOnUse"
       id="EMFhbasepattern" />
  </defs>
  <sodipodi:namedview
     inkscape:window-height="1107"
     inkscape:window-width="2044"
     inkscape:pageshadow="2"
     inkscape:pageopacity="0.0"
     borderopacity="1.0"
     bordercolor="#666666"
     pagecolor="#ffffff"
     id="base"
     showgrid="true"
     showguides="true"
     inkscape:guide-bbox="true"
     inkscape:zoom="0.8125"
     inkscape:cx="33.880346"
     inkscape:cy="461.4693"
     inkscape:window-x="4"
     inkscape:window-y="1"
     inkscape:current-layer="flowRoot110"
     inkscape:window-maximized="1"
     objecttolerance="20"
     inkscape:snap-bbox="false">
    <sodipodi:guide
       orientation="horizontal"
       position="200"
       id="guide5596"
       inkscape:locked="false" />
    <inkscape:grid
       type="xygrid"
       id="grid3430"
       empspacing="50" />
    <sodipodi:guide
       position="550,1000"
       orientation="0,1"
       id="guide4169"
       inkscape:locked="false" />
  </sodipodi:namedview>
  <metadata
     id="metadata5594">
    <rdf:RDF>
      <cc:Work
         rdf:about="">
        <dc:format>image/svg+xml</dc:format>
        <dc:type
           rdf:resource="http://purl.org/dc/dcmitype/StillImage" />
        <dc:title></dc:title>
      </cc:Work>
    </rdf:RDF>
  </metadata>
  <path
     style="fill:#000000;fill-opacity:0"
     d="m 500,100 150,0 0,50 -150,0 z"
     id="rect6365" />
  <path
     style="fill:#000000;fill-opacity:0;stroke:#000000;stroke-width:40;stroke-miterlimit:4;stroke-dasharray:none;stroke-opacity:1"
     d="m 115.938,31.18198 788.88001,0 0,935.63605 -788.88001,0 z"
     id="rect6391" />
  <g
     transform="translate(725.07692,-169.38461)"
     style="font-style:normal;font-weight:normal;font-size:693.33331299px;line-height:0.01%;font-family:sans-serif;letter-spacing:0px;word-spacing:0px;fill:#000000;fill-opacity:1;stroke:none"
     id="flowRoot110">
    <path
       d="m -161.56251,788.7604 q 0,10.15625 -1.01562,17.26562 -0.67709,6.77084 -2.3698,11.51042 -1.6927,4.40104 -4.40104,6.43229 -2.36979,2.03125 -5.7552,2.03125 l -200.75521,0 q -11.17187,0 -18.95833,-6.43229 -7.44792,-6.77083 -7.44792,-21.66667 l 0,-397.78644 q 0,-3.38542 2.03125,-6.09375 2.3698,-2.70834 7.44792,-4.40105 5.07812,-1.6927 13.54167,-2.70833 8.80208,-1.01562 21.66666,-1.01562 13.20313,0 21.66667,1.01562 8.46354,1.01563 13.54166,2.70833 5.07813,1.69271 7.10938,4.40105 2.36979,2.70833 2.36979,6.09375 l 0,352.42186 137.78646,0 q 3.38541,0 5.7552,2.03125 2.70834,1.69271 4.40104,6.09375 1.69271,4.0625 2.3698,11.17188 1.01562,6.77083 1.01562,16.92708 z"
       style="font-style:normal;font-variant:normal;font-weight:bold;font-stretch:normal;font-size:693.33331299px;line-height:1.25;font-family:Calibri;-:'Calibri Bold'"
       id="path4226" />
    <path
       d="m -28.177097,814.48956 q 0,3.38542 -2.03125,6.09375 -2.03125,2.3698 -7.109375,4.0625 -4.739583,1.69271 -12.864583,2.3698 -8.125,1.01562 -20.651041,1.01562 -12.526041,0 -20.651041,-1.01562 -8.125,-0.67709 -13.203123,-2.3698 -4.73958,-1.6927 -6.77083,-4.0625 -2.03125,-2.70833 -2.03125,-6.09375 l 0,-301.30207 q 0,-3.38542 2.03125,-5.75521 2.03125,-2.70833 6.77083,-4.40104 5.078123,-2.03125 13.203123,-3.04688 8.125,-1.01562 20.651041,-1.01562 12.526041,0 20.651041,1.01562 8.125,1.01563 12.864583,3.04688 5.078125,1.69271 7.109375,4.40104 2.03125,2.36979 2.03125,5.75521 l 0,301.30207 z m 6.432291,-404.21873 q 0,25.72916 -10.494791,35.54687 -10.494792,9.81771 -38.932291,9.81771 -28.77604,0 -38.932292,-9.47917 -9.81771,-9.47917 -9.81771,-34.19271 0,-25.72916 10.15625,-35.54687 10.494795,-10.15625 39.270836,-10.15625 28.437499,0 38.593749,9.81771 10.156249,9.47916 10.156249,34.19271 z"
       style="font-style:normal;font-variant:normal;font-weight:bold;font-stretch:normal;font-size:693.33331299px;line-height:1.25;font-family:Calibri;-:'Calibri Bold'"
       id="path4228" />
  </g>
  <g
     transform="translate(622.46156,431.23077)"
     style="font-style:normal;font-weight:normal;line-height:0.01%;font-family:sans-serif;letter-spacing:0px;word-spacing:0px;fill:#000000;fill-opacity:1;stroke:none"
     id="flowRoot118">
    <path
       d="m -295.52083,459.9323 q 0,3.09895 -0.33203,5.3125 -0.33203,2.10286 -0.9961,3.43099 -0.55338,1.21744 -1.32812,1.77083 Q -298.95182,471 -299.94791,471 l -79.02344,0 q -0.88542,0 -1.66016,-0.55338 -0.77474,-0.55339 -1.4388,-1.77083 -0.55339,-1.32813 -0.88542,-3.43099 -0.33203,-2.21355 -0.33203,-5.3125 0,-3.20964 0.22135,-5.3125 0.33204,-2.21355 0.88542,-3.54167 0.66406,-1.32813 1.4388,-1.88151 0.77474,-0.66406 1.77084,-0.66406 l 26.67317,0 0,-93.19011 -23.02083,12.72787 q -2.54557,1.21744 -4.20573,1.54947 -1.54948,0.22136 -2.54557,-0.66406 -0.88542,-0.99609 -1.21745,-3.32031 -0.33203,-2.32422 -0.33203,-6.52995 0,-2.65625 0.11068,-4.31641 0.11067,-1.77083 0.55338,-2.98828 0.44271,-1.21744 1.21745,-1.99218 0.77474,-0.77474 2.10286,-1.66016 l 30.76823,-19.92188 q 0.55339,-0.4427 1.32813,-0.66406 0.88542,-0.33203 2.21354,-0.44271 1.32813,-0.22135 3.43099,-0.22135 2.21354,-0.11068 5.64453,-0.11068 4.20573,0 6.7513,0.22136 2.65625,0.11067 3.98438,0.55338 1.32812,0.33203 1.77083,0.9961 0.44271,0.66406 0.44271,1.66015 l 0,118.31381 23.35287,0 q 0.99609,0 1.77083,0.66406 0.88542,0.55338 1.4388,1.88151 0.66406,1.32812 0.88542,3.54167 0.33203,2.10286 0.33203,5.3125 z"
       style="font-style:normal;font-variant:normal;font-weight:bold;font-stretch:normal;font-size:226.66667175px;line-height:1.25;font-family:Calibri;-:'Calibri Bold'"
       id="path4231" />
    <path
       d="m -201.44531,439.34636 q 0,8.41146 -3.20963,14.83073 -3.09896,6.41927 -8.85417,10.73568 -5.75521,4.3164 -13.61328,6.41927 -7.85807,2.21354 -17.04427,2.21354 -5.53385,0 -10.625,-0.88542 -4.98047,-0.77474 -8.96484,-1.99219 -3.98438,-1.32812 -6.64063,-2.65625 -2.65625,-1.32812 -3.8737,-2.43489 -1.21745,-1.21745 -1.88151,-3.65235 -0.66406,-2.54557 -0.66406,-7.41536 0,-3.20964 0.22135,-5.09115 0.22136,-1.99218 0.66407,-3.09896 0.4427,-1.21744 1.10677,-1.54947 0.66406,-0.44271 1.66015,-0.44271 1.21745,0 3.54167,1.4388 2.4349,1.32812 5.97656,2.98828 3.54167,1.66016 8.19011,3.09896 4.75911,1.4388 10.73567,1.4388 3.76302,0 6.64063,-0.77474 2.98828,-0.77474 5.09115,-2.21354 2.21354,-1.4388 3.32031,-3.65234 1.10677,-2.21355 1.10677,-5.09115 0,-3.32031 -2.10287,-5.64453 -1.99218,-2.4349 -5.42317,-4.20573 -3.32032,-1.77083 -7.63672,-3.32031 -4.20573,-1.54948 -8.74349,-3.43099 -4.42709,-1.88151 -8.74349,-4.31641 -4.20573,-2.43489 -7.63672,-5.97656 -3.32031,-3.54167 -5.42318,-8.52214 -1.99219,-4.98047 -1.99219,-11.95312 0,-7.08334 2.76693,-12.94922 2.76693,-5.97656 7.96875,-10.18229 5.20182,-4.20573 12.61719,-6.52995 7.52604,-2.32422 16.82292,-2.32422 4.64843,0 8.96484,0.66406 4.42708,0.66406 7.96875,1.66016 3.54167,0.99609 5.97656,2.21354 2.4349,1.10677 3.43099,1.99219 1.10677,0.77474 1.54948,1.66015 0.44271,0.77474 0.66406,1.99219 0.22136,1.10677 0.33204,2.87761 0.22135,1.66015 0.22135,4.20572 0,2.98829 -0.22135,4.8698 -0.11068,1.88151 -0.55339,2.98828 -0.33203,1.10677 -0.99609,1.54948 -0.66407,0.33203 -1.54948,0.33203 -0.9961,0 -3.09896,-1.10677 -2.10287,-1.21745 -5.3125,-2.54558 -3.09896,-1.32812 -7.30469,-2.43489 -4.09505,-1.21745 -9.40755,-1.21745 -3.76302,0 -6.52995,0.77474 -2.76693,0.77474 -4.53776,2.21354 -1.77083,1.4388 -2.65625,3.43099 -0.88542,1.88151 -0.88542,4.09505 0,3.43099 2.10287,5.75521 2.10286,2.32422 5.53385,4.09505 3.43099,1.77084 7.7474,3.32032 4.42708,1.54948 8.85417,3.43099 4.53776,1.77083 8.85416,4.20573 4.42709,2.43489 7.85808,5.97656 3.43099,3.54167 5.53385,8.52213 2.10286,4.8698 2.10286,11.6211 z"
       style="font-style:normal;font-variant:normal;font-weight:bold;font-stretch:normal;font-size:226.66667175px;line-height:1.25;font-family:Calibri;-:'Calibri Bold'"
       id="path4233" />
    <path
       d="m -125.80859,372.63574 q 0,2.08627 -0.21582,3.59701 -0.14388,1.4388 -0.50358,2.37402 -0.3597,0.93522 -0.93522,1.36686 -0.57552,0.3597 -1.29493,0.3597 l -53.52343,0 q -1.58268,0 -2.73372,-0.28776 -1.15105,-0.28776 -1.87045,-1.0791 -0.7194,-0.86328 -1.0791,-2.44596 -0.28776,-1.58268 -0.28776,-4.10059 0,-2.37402 0.21582,-4.02864 0.21582,-1.72657 0.79134,-3.02149 0.57552,-1.36686 1.4388,-2.58984 0.93523,-1.29492 2.37403,-2.80567 l 16.11458,-17.26562 q 4.81999,-5.03581 7.76953,-9.13639 2.94955,-4.17253 4.60417,-7.55371 1.65462,-3.45313 2.23014,-6.33073 0.64746,-2.87761 0.64746,-5.46745 0,-2.37402 -0.79134,-4.46029 -0.7194,-2.1582 -2.23014,-3.74088 -1.4388,-1.58268 -3.66895,-2.44597 -2.23014,-0.93522 -5.25163,-0.93522 -4.24446,0 -7.55371,1.0791 -3.2373,1.07911 -5.7552,2.44597 -2.44597,1.29492 -4.10059,2.44596 -1.65462,1.0791 -2.58984,1.0791 -0.64746,0 -1.15104,-0.43164 -0.43165,-0.43164 -0.71941,-1.4388 -0.28776,-1.00716 -0.50358,-2.66178 -0.14388,-1.72657 -0.14388,-4.17253 0,-1.65462 0.0719,-2.73372 0.14388,-1.15104 0.3597,-1.94239 0.21582,-0.86328 0.57552,-1.4388 0.35971,-0.64746 1.22299,-1.51074 0.93522,-0.86328 3.30924,-2.1582 2.44596,-1.36686 5.97103,-2.58985 3.52506,-1.29492 7.76953,-2.1582 4.24447,-0.86328 8.84863,-0.86328 7.26595,0 12.66146,1.87044 5.46745,1.7985 9.06445,5.10775 3.59701,3.2373 5.32357,7.76953 1.7985,4.46029 1.7985,9.63997 0,4.53223 -0.86328,8.92058 -0.86328,4.38834 -3.597,9.49609 -2.73373,5.03581 -7.69759,11.22266 -4.96387,6.1149 -13.16504,14.24414 l -10.86296,11.15071 36.68945,0 q 0.71941,0 1.29493,0.43164 0.64746,0.43164 1.0791,1.36686 0.43164,0.86329 0.64746,2.37403 0.21582,1.4388 0.21582,3.45312 z"
       style="font-size:64.99999762%;baseline-shift:super"
       id="path4236" />
    <path
       d="m -13.958331,459.15756 q 0,3.20963 -0.332031,5.53385 -0.221354,2.21354 -0.77474,3.65234 -0.553385,1.43881 -1.438802,2.10287 Q -17.389321,471 -18.496091,471 l -82.343749,0 q -2.4349,0 -4.20573,-0.4427 -1.77084,-0.44271 -2.87761,-1.66016 -1.10677,-1.32812 -1.66015,-3.76302 -0.44271,-2.4349 -0.44271,-6.30859 0,-3.65235 0.33203,-6.19792 0.33203,-2.65625 1.21745,-4.64844 0.88541,-2.10286 2.21354,-3.98437 1.4388,-1.99219 3.65234,-4.31641 l 24.791671,-26.5625 q 7.415364,-7.7474 11.953125,-14.05599 4.53776,-6.41927 7.083333,-11.62109 2.545573,-5.3125 3.43099,-9.73959 0.996094,-4.42708 0.996094,-8.41146 0,-3.65234 -1.217448,-6.86198 -1.106771,-3.32031 -3.43099,-5.7552 -2.213542,-2.4349 -5.644531,-3.76303 -3.43099,-1.4388 -8.079428,-1.4388 -6.529948,0 -11.621094,1.66016 -4.980468,1.66015 -8.854166,3.76302 -3.763021,1.99219 -6.308594,3.76302 -2.545572,1.66016 -3.984372,1.66016 -0.9961,0 -1.77084,-0.66407 -0.66406,-0.66406 -1.10677,-2.21354 -0.44271,-1.54948 -0.77474,-4.09505 -0.22135,-2.65625 -0.22135,-6.41927 0,-2.54557 0.11068,-4.20573 0.22135,-1.77083 0.55338,-2.98828 0.33203,-1.32813 0.88542,-2.21354 0.55338,-0.9961 1.88151,-2.32422 1.4388,-1.32813 5.091144,-3.32031 3.763021,-2.10287 9.186198,-3.98438 5.423178,-1.99219 11.953126,-3.32031 6.529948,-1.32813 13.613281,-1.32813 11.178386,0 19.479167,2.87761 8.411459,2.76692 13.945313,7.85807 5.533854,4.98047 8.190104,11.95313 2.766928,6.86197 2.766928,14.83073 0,6.97265 -1.328125,13.72395 -1.328125,6.75131 -5.533855,14.60938 -4.205729,7.7474 -11.842448,17.26562 -7.636719,9.40756 -20.253907,21.91407 l -16.71224,17.15495 56.445314,0 q 1.106771,0 1.992188,0.66406 0.996093,0.66406 1.660156,2.10286 0.664063,1.32813 0.996094,3.65235 0.332031,2.21354 0.332031,5.3125 z"
       style="font-style:normal;font-variant:normal;font-weight:bold;font-stretch:normal;font-size:226.66667175px;line-height:1.25;font-family:Calibri;-:'Calibri Bold'"
       id="path4238" />
    <path
       d="m 78.789085,439.34636 q 0,8.41146 -3.209636,14.83073 -3.098958,6.41927 -8.854167,10.73568 -5.755208,4.3164 -13.613281,6.41927 -7.858073,2.21354 -17.044271,2.21354 -5.533855,0 -10.625001,-0.88542 -4.980469,-0.77474 -8.964844,-1.99219 -3.984375,-1.32812 -6.6406247,-2.65625 -2.6562501,-1.32812 -3.873698,-2.43489 -1.217448,-1.21745 -1.8815105,-3.65235 -0.6640625,-2.54557 -0.6640625,-7.41536 0,-3.20964 0.2213541,-5.09115 0.2213542,-1.99218 0.6640626,-3.09896 0.4427083,-1.21744 1.1067708,-1.54947 0.6640625,-0.44271 1.6601563,-0.44271 1.217448,0 3.5416669,1.4388 2.434896,1.32812 5.976562,2.98828 3.541667,1.66016 8.190105,3.09896 4.759115,1.4388 10.735677,1.4388 3.763021,0 6.640625,-0.77474 2.988282,-0.77474 5.091146,-2.21354 2.213542,-1.4388 3.320313,-3.65234 1.106771,-2.21355 1.106771,-5.09115 0,-3.32031 -2.102865,-5.64453 -1.992187,-2.4349 -5.423177,-4.20573 -3.320313,-1.77083 -7.636719,-3.32031 -4.205729,-1.54948 -8.74349,-3.43099 -4.427083,-1.88151 -8.74349,-4.31641 -4.205729,-2.43489 -7.636719,-5.97656 -3.3203121,-3.54167 -5.4231767,-8.52214 -1.9921876,-4.98047 -1.9921876,-11.95312 0,-7.08334 2.7669272,-12.94922 2.7669271,-5.97656 7.9687501,-10.18229 5.201823,-4.20573 12.617188,-6.52995 7.526042,-2.32422 16.822917,-2.32422 4.648437,0 8.964844,0.66406 4.427083,0.66406 7.96875,1.66016 3.541667,0.99609 5.976563,2.21354 2.434896,1.10677 3.430989,1.99219 1.106771,0.77474 1.549479,1.66015 0.442709,0.77474 0.664063,1.99219 0.221354,1.10677 0.332031,2.87761 0.221354,1.66015 0.221354,4.20572 0,2.98829 -0.221354,4.8698 -0.110677,1.88151 -0.553385,2.98828 -0.332031,1.10677 -0.996094,1.54948 -0.664062,0.33203 -1.549479,0.33203 -0.996094,0 -3.098959,-1.10677 -2.102864,-1.21745 -5.3125,-2.54558 -3.098958,-1.32812 -7.304687,-2.43489 -4.095053,-1.21745 -9.407553,-1.21745 -3.763021,0 -6.529948,0.77474 -2.766927,0.77474 -4.53776,2.21354 -1.770834,1.4388 -2.65625,3.43099 -0.885417,1.88151 -0.885417,4.09505 0,3.43099 2.102865,5.75521 2.102864,2.32422 5.533854,4.09505 3.43099,1.77084 7.747396,3.32032 4.427083,1.54948 8.854167,3.43099 4.53776,1.77083 8.854167,4.20573 4.427083,2.43489 7.858073,5.97656 3.430989,3.54167 5.533854,8.52213 2.102865,4.8698 2.102865,11.6211 z"
       style="font-style:normal;font-variant:normal;font-weight:bold;font-stretch:normal;font-size:226.66667175px;line-height:1.25;font-family:Calibri;-:'Calibri Bold'"
       id="path4240" />
    <path
       d="m 153.56252,373.13932 q 0,2.01433 -0.21582,3.45313 -0.21582,1.36686 -0.64746,2.23014 -0.3597,0.79134 -0.86328,1.15104 -0.50359,0.3597 -1.15105,0.3597 l -51.365229,0 q -0.57552,0 -1.079101,-0.3597 -0.503581,-0.3597 -0.935222,-1.15104 -0.3597,-0.86328 -0.57552,-2.23014 -0.215821,-1.4388 -0.215821,-3.45313 0,-2.08626 0.143881,-3.45312 0.21582,-1.4388 0.57552,-2.30209 0.431641,-0.86328 0.935222,-1.22298 0.50358,-0.43164 1.151041,-0.43164 l 17.337569,0 0,-60.57356 -14.96355,8.27311 q -1.65462,0.79134 -2.733719,1.00716 -1.007162,0.14388 -1.654623,-0.43164 -0.57552,-0.64746 -0.791341,-2.1582 -0.21582,-1.51075 -0.21582,-4.24447 0,-1.72656 0.07194,-2.80566 0.07194,-1.15105 0.359701,-1.94239 0.28776,-0.79134 0.791341,-1.29492 0.503581,-0.50358 1.366862,-1.0791 L 118.88739,287.5306 q 0.3597,-0.28776 0.86328,-0.43164 0.57552,-0.21582 1.4388,-0.28776 0.86328,-0.14388 2.23015,-0.14388 1.4388,-0.0719 3.66894,-0.0719 2.73372,0 4.38835,0.14388 1.72656,0.0719 2.58984,0.3597 0.86328,0.21582 1.15104,0.64746 0.28776,0.43164 0.28776,1.0791 l 0,76.90397 15.17936,0 q 0.64746,0 1.15105,0.43164 0.57552,0.3597 0.93522,1.22298 0.43164,0.86329 0.57552,2.30209 0.21582,1.36686 0.21582,3.45312 z"
       style="font-size:64.99999762%;baseline-shift:super"
       id="path4242" />
  </g>
  <g
     style="font-style:normal;font-weight:normal;line-height:0.01%;font-family:sans-serif;letter-spacing:0px;word-spacing:0px;fill:#000000;fill-opacity:1;stroke:none"
     id="flowRoot126" />
</svg>
