<?xml version="1.0" encoding="UTF-8" standalone="no"?>
<!-- Created with Inkscape (http://www.inkscape.org/) -->

<svg
   xmlns:dc="http://purl.org/dc/elements/1.1/"
   xmlns:cc="http://creativecommons.org/ns#"
   xmlns:rdf="http://www.w3.org/1999/02/22-rdf-syntax-ns#"
   xmlns:svg="http://www.w3.org/2000/svg"
   xmlns="http://www.w3.org/2000/svg"
   xmlns:sodipodi="http://sodipodi.sourceforge.net/DTD/sodipodi-0.dtd"
   xmlns:inkscape="http://www.inkscape.org/namespaces/inkscape"
   width="1000"
   height="1000"
   id="svg4152"
   version="1.1"
   inkscape:version="0.91 r13725"
   viewBox="0 0 1000 1000"
   sodipodi:docname="isotope-fluor.svg">
  <defs
     id="defs5498">
    <inkscape:perspective
       sodipodi:type="inkscape:persp3d"
       inkscape:vp_x="0 : 500 : 1"
       inkscape:vp_y="0 : 1000 : 0"
       inkscape:vp_z="1000 : 500 : 1"
       inkscape:persp3d-origin="500 : 333.33333 : 1"
       id="perspective4660" />
    <marker
       inkscape:isstock="true"
       style="overflow:visible"
       id="marker4233"
       refX="0.0"
       refY="0.0"
       orient="auto"
       inkscape:stockid="TriangleOutL">
      <path
         transform="scale(0.8)"
         style="fill-rule:evenodd;stroke:#000000;stroke-width:1pt;stroke-opacity:1;fill:#000000;fill-opacity:1"
         d="M 5.77,0.0 L -2.88,5.0 L -2.88,-5.0 L 5.77,0.0 z "
         id="path4235" />
    </marker>
    <marker
       inkscape:isstock="true"
       style="overflow:visible"
       id="marker4755"
       refX="0.0"
       refY="0.0"
       orient="auto"
       inkscape:stockid="TriangleOutL">
      <path
         transform="scale(0.8)"
         style="fill-rule:evenodd;stroke:#000000;stroke-width:1pt;stroke-opacity:1;fill:#000000;fill-opacity:1"
         d="M 5.77,0.0 L -2.88,5.0 L -2.88,-5.0 L 5.77,0.0 z "
         id="path4757" />
    </marker>
    <marker
       inkscape:stockid="Arrow1Lend"
       orient="auto"
       refY="0.0"
       refX="0.0"
       id="Arrow1Lend"
       style="overflow:visible;"
       inkscape:isstock="true">
      <path
         id="path4164"
         d="M 0.0,0.0 L 5.0,-5.0 L -12.5,0.0 L 5.0,5.0 L 0.0,0.0 z "
         style="fill-rule:evenodd;stroke:#000000;stroke-width:1pt;stroke-opacity:1;fill:#000000;fill-opacity:1"
         transform="scale(0.8) rotate(180) translate(12.5,0)" />
    </marker>
    <marker
       inkscape:stockid="Arrow2Lend"
       orient="auto"
       refY="0.0"
       refX="0.0"
       id="Arrow2Lend"
       style="overflow:visible;"
       inkscape:isstock="true">
      <path
         id="path4182"
         style="fill-rule:evenodd;stroke-width:0.625;stroke-linejoin:round;stroke:#000000;stroke-opacity:1;fill:#000000;fill-opacity:1"
         d="M 8.7185878,4.0337352 L -2.2072895,0.016013256 L 8.7185884,-4.0017078 C 6.9730900,-1.6296469 6.9831476,1.6157441 8.7185878,4.0337352 z "
         transform="scale(1.1) rotate(180) translate(1,0)" />
    </marker>
    <pattern
       y="0"
       x="0"
       height="6"
       width="6"
       patternUnits="userSpaceOnUse"
       id="EMFhbasepattern" />
  </defs>
  <sodipodi:namedview
     inkscape:window-height="1107"
     inkscape:window-width="2044"
     inkscape:pageshadow="2"
     inkscape:pageopacity="0.0"
     borderopacity="1.0"
     bordercolor="#666666"
     pagecolor="#ffffff"
     id="base"
     showgrid="true"
     showguides="true"
     inkscape:guide-bbox="true"
     inkscape:zoom="0.8125"
     inkscape:cx="33.880346"
     inkscape:cy="559.93084"
     inkscape:window-x="4"
     inkscape:window-y="1"
     inkscape:current-layer="svg4152"
     inkscape:window-maximized="1"
     objecttolerance="20"
     inkscape:snap-bbox="false">
    <sodipodi:guide
       orientation="horizontal"
       position="200"
       id="guide5596"
       inkscape:locked="false" />
    <inkscape:grid
       type="xygrid"
       id="grid3430"
       empspacing="50" />
    <sodipodi:guide
       position="550,1000"
       orientation="0,1"
       id="guide4169"
       inkscape:locked="false" />
  </sodipodi:namedview>
  <metadata
     id="metadata5594">
    <rdf:RDF>
      <cc:Work
         rdf:about="">
        <dc:format>image/svg+xml</dc:format>
        <dc:type
           rdf:resource="http://purl.org/dc/dcmitype/StillImage" />
        <dc:title></dc:title>
      </cc:Work>
    </rdf:RDF>
  </metadata>
  <path
     style="fill:#000000;fill-opacity:0"
     d="m 500,100 150,0 0,50 -150,0 z"
     id="rect6365" />
  <path
     style="fill:#000000;fill-opacity:0;stroke:#000000;stroke-width:40;stroke-miterlimit:4;stroke-dasharray:none;stroke-opacity:1"
     d="m 115.938,31.18198 788.88001,0 0,935.63605 -788.88001,0 z"
     id="rect6391" />
  <g
     transform="translate(817.07692,-13.38461)"
     style="font-style:normal;font-weight:normal;font-size:693.33331299px;line-height:0.01%;font-family:sans-serif;letter-spacing:0px;word-spacing:0px;fill:#000000;fill-opacity:1;stroke:none"
     id="flowRoot110">
    <path
       d="m -156.48438,424.48958 q 0,10.15624 -1.01563,17.26562 -0.67708,6.77083 -2.70833,10.83333 -1.69271,4.0625 -4.0625,6.09375 -2.36979,2.03125 -5.41667,2.03125 l -143.20312,0 0,117.8125 134.40104,0 q 3.04687,0 5.41667,1.69271 2.36979,1.69271 4.0625,5.75521 2.03125,4.0625 2.70833,10.83333 1.01562,6.77083 1.01562,16.92708 0,10.15625 -1.01562,16.92708 -0.67708,6.77084 -2.70833,11.17188 -1.69271,4.40104 -4.0625,6.43229 -2.3698,1.69271 -5.41667,1.69271 l -134.40104,0 0,163.17708 q 0,3.72396 -2.03125,6.43229 -2.03125,2.70833 -7.44792,4.73958 -5.07812,1.69271 -13.54166,2.70834 -8.46354,1.01562 -21.66667,1.01562 -12.86458,0 -21.66666,-1.01562 -8.46355,-1.01563 -13.54167,-2.70834 -5.07812,-2.03125 -7.44792,-4.73958 -2.03125,-2.70833 -2.03125,-6.43229 l 0,-397.10937 q 0,-14.89583 7.44792,-21.32812 7.78646,-6.77083 18.95833,-6.77083 l 206.17187,0 q 3.04688,0 5.41667,2.03125 2.36979,1.6927 4.0625,6.09375 2.03125,4.0625 2.70833,11.17187 1.01563,7.10938 1.01563,17.26563 z"
        id="path4224" />
  </g>
  <g
     transform="translate(598.30771,-132)"
     style="font-style:normal;font-weight:normal;line-height:0.01%;font-family:sans-serif;letter-spacing:0px;word-spacing:0px;fill:#000000;fill-opacity:1;stroke:none"
     id="flowRoot118">
    <path
       d="m -295.52083,459.9323 q 0,3.09895 -0.33203,5.3125 -0.33203,2.10286 -0.9961,3.43099 -0.55338,1.21744 -1.32812,1.77083 Q -298.95182,471 -299.94791,471 l -79.02344,0 q -0.88542,0 -1.66016,-0.55338 -0.77474,-0.55339 -1.4388,-1.77083 -0.55339,-1.32813 -0.88542,-3.43099 -0.33203,-2.21355 -0.33203,-5.3125 0,-3.20964 0.22135,-5.3125 0.33204,-2.21355 0.88542,-3.54167 0.66406,-1.32813 1.4388,-1.88151 0.77474,-0.66406 1.77084,-0.66406 l 26.67317,0 0,-93.19011 -23.02083,12.72787 q -2.54557,1.21744 -4.20573,1.54947 -1.54948,0.22136 -2.54557,-0.66406 -0.88542,-0.99609 -1.21745,-3.32031 -0.33203,-2.32422 -0.33203,-6.52995 0,-2.65625 0.11068,-4.31641 0.11067,-1.77083 0.55338,-2.98828 0.44271,-1.21744 1.21745,-1.99218 0.77474,-0.77474 2.10286,-1.66016 l 30.76823,-19.92188 q 0.55339,-0.4427 1.32813,-0.66406 0.88542,-0.33203 2.21354,-0.44271 1.32813,-0.22135 3.43099,-0.22135 2.21354,-0.11068 5.64453,-0.11068 4.20573,0 6.7513,0.22136 2.65625,0.11067 3.98438,0.55338 1.32812,0.33203 1.77083,0.9961 0.44271,0.66406 0.44271,1.66015 l 0,118.31381 23.35287,0 q 0.99609,0 1.77083,0.66406 0.88542,0.55338 1.4388,1.88151 0.66406,1.32812 0.88542,3.54167 0.33203,2.10286 0.33203,5.3125 z"
        id="path4227" />
    <path
       d="m -178.7565,392.86198 q 0,8.74349 -0.88542,18.15104 -0.88542,9.29688 -3.43099,18.26172 -2.4349,8.96485 -6.86198,17.04427 -4.3164,8.07943 -11.28906,14.16667 -6.86198,5.97656 -16.82292,9.51823 -9.85026,3.54167 -23.35286,3.54167 -4.75912,0 -9.51823,-0.66406 -4.64844,-0.66407 -8.52214,-1.66016 -3.8737,-0.99609 -6.64062,-2.10287 -2.65625,-1.10677 -3.8737,-2.21354 -1.21745,-1.21745 -1.77084,-3.43099 -0.55338,-2.21354 -0.55338,-6.19791 0,-3.65235 0.11068,-5.86589 0.22135,-2.21354 0.66406,-3.43099 0.55338,-1.21745 1.21745,-1.54948 0.77474,-0.44271 1.77083,-0.44271 1.32813,0 3.76302,0.77474 2.4349,0.77474 5.86589,1.77084 3.54166,0.99609 7.96875,1.77083 4.42708,0.77474 9.85026,0.77474 9.29687,0 15.71614,-3.32031 6.41927,-3.32032 10.40365,-8.96485 3.98438,-5.64453 5.86589,-13.05989 1.88151,-7.41537 2.10286,-15.60547 -5.09115,3.20963 -12.28516,5.64453 -7.19401,2.32422 -16.49088,2.32422 -11.39974,0 -19.36849,-2.98828 -7.96875,-2.98828 -12.94922,-8.63282 -4.98047,-5.64453 -7.30469,-13.72395 -2.21354,-8.07943 -2.21354,-18.26172 0,-10.73568 3.20963,-19.70053 3.20964,-9.07552 9.51823,-15.60546 6.3086,-6.64063 15.71615,-10.29297 9.40755,-3.65235 21.80339,-3.65235 9.96093,0 17.3763,2.32422 7.52604,2.32422 12.83854,6.64063 5.42318,4.3164 8.96484,10.51432 3.65235,6.08724 5.64454,13.61328 2.10286,7.52604 2.8776,16.26953 0.88542,8.74349 0.88542,18.26172 z m -28.88672,-3.98437 q 0,-11.84245 -1.32813,-19.8112 -1.32812,-7.96875 -3.98437,-12.72787 -2.65625,-4.75911 -6.64063,-6.7513 -3.98437,-1.99219 -9.29687,-1.99219 -5.20183,0 -8.96485,1.88151 -3.76302,1.77084 -6.30859,5.09115 -2.4349,3.32031 -3.65234,7.85807 -1.21745,4.53776 -1.21745,9.96094 0,5.86589 0.99609,10.40365 1.10677,4.42708 3.32031,7.41536 2.32422,2.87761 5.97657,4.31641 3.65234,1.4388 8.85416,1.4388 6.41927,0 12.06381,-1.88151 5.7552,-1.99219 10.18229,-5.20182 z"
        id="path4229" />
  </g>
  <g
     style="font-style:normal;font-weight:normal;line-height:0.01%;font-family:sans-serif;letter-spacing:0px;word-spacing:0px;fill:#000000;fill-opacity:1;stroke:none"
     id="flowRoot126" />
</svg>
