<?xml version="1.0" encoding="UTF-8" standalone="no"?>
<!-- Created with Inkscape (http://www.inkscape.org/) -->

<svg
   xmlns:dc="http://purl.org/dc/elements/1.1/"
   xmlns:cc="http://creativecommons.org/ns#"
   xmlns:rdf="http://www.w3.org/1999/02/22-rdf-syntax-ns#"
   xmlns:svg="http://www.w3.org/2000/svg"
   xmlns="http://www.w3.org/2000/svg"
   xmlns:sodipodi="http://sodipodi.sourceforge.net/DTD/sodipodi-0.dtd"
   xmlns:inkscape="http://www.inkscape.org/namespaces/inkscape"
   width="1000"
   height="1000"
   id="svg4152"
   version="1.1"
   inkscape:version="0.91 r13725"
   viewBox="0 0 1000 1000"
   sodipodi:docname="isotope-carbon.svg">
  <defs
     id="defs5498">
    <inkscape:perspective
       sodipodi:type="inkscape:persp3d"
       inkscape:vp_x="0 : 500 : 1"
       inkscape:vp_y="0 : 1000 : 0"
       inkscape:vp_z="1000 : 500 : 1"
       inkscape:persp3d-origin="500 : 333.33333 : 1"
       id="perspective4660" />
    <marker
       inkscape:isstock="true"
       style="overflow:visible"
       id="marker4233"
       refX="0.0"
       refY="0.0"
       orient="auto"
       inkscape:stockid="TriangleOutL">
      <path
         transform="scale(0.8)"
         style="fill-rule:evenodd;stroke:#000000;stroke-width:1pt;stroke-opacity:1;fill:#000000;fill-opacity:1"
         d="M 5.77,0.0 L -2.88,5.0 L -2.88,-5.0 L 5.77,0.0 z "
         id="path4235" />
    </marker>
    <marker
       inkscape:isstock="true"
       style="overflow:visible"
       id="marker4755"
       refX="0.0"
       refY="0.0"
       orient="auto"
       inkscape:stockid="TriangleOutL">
      <path
         transform="scale(0.8)"
         style="fill-rule:evenodd;stroke:#000000;stroke-width:1pt;stroke-opacity:1;fill:#000000;fill-opacity:1"
         d="M 5.77,0.0 L -2.88,5.0 L -2.88,-5.0 L 5.77,0.0 z "
         id="path4757" />
    </marker>
    <marker
       inkscape:stockid="Arrow1Lend"
       orient="auto"
       refY="0.0"
       refX="0.0"
       id="Arrow1Lend"
       style="overflow:visible;"
       inkscape:isstock="true">
      <path
         id="path4164"
         d="M 0.0,0.0 L 5.0,-5.0 L -12.5,0.0 L 5.0,5.0 L 0.0,0.0 z "
         style="fill-rule:evenodd;stroke:#000000;stroke-width:1pt;stroke-opacity:1;fill:#000000;fill-opacity:1"
         transform="scale(0.8) rotate(180) translate(12.5,0)" />
    </marker>
    <marker
       inkscape:stockid="Arrow2Lend"
       orient="auto"
       refY="0.0"
       refX="0.0"
       id="Arrow2Lend"
       style="overflow:visible;"
       inkscape:isstock="true">
      <path
         id="path4182"
         style="fill-rule:evenodd;stroke-width:0.625;stroke-linejoin:round;stroke:#000000;stroke-opacity:1;fill:#000000;fill-opacity:1"
         d="M 8.7185878,4.0337352 L -2.2072895,0.016013256 L 8.7185884,-4.0017078 C 6.9730900,-1.6296469 6.9831476,1.6157441 8.7185878,4.0337352 z "
         transform="scale(1.1) rotate(180) translate(1,0)" />
    </marker>
    <pattern
       y="0"
       x="0"
       height="6"
       width="6"
       patternUnits="userSpaceOnUse"
       id="EMFhbasepattern" />
  </defs>
  <sodipodi:namedview
     inkscape:window-height="1107"
     inkscape:window-width="2044"
     inkscape:pageshadow="2"
     inkscape:pageopacity="0.0"
     borderopacity="1.0"
     bordercolor="#666666"
     pagecolor="#ffffff"
     id="base"
     showgrid="true"
     showguides="true"
     inkscape:guide-bbox="true"
     inkscape:zoom="0.8125"
     inkscape:cx="33.880346"
     inkscape:cy="559.93084"
     inkscape:window-x="4"
     inkscape:window-y="1"
     inkscape:current-layer="svg4152"
     inkscape:window-maximized="1"
     objecttolerance="20"
     inkscape:snap-bbox="false">
    <sodipodi:guide
       orientation="horizontal"
       position="200"
       id="guide5596"
       inkscape:locked="false" />
    <inkscape:grid
       type="xygrid"
       id="grid3430"
       empspacing="50" />
    <sodipodi:guide
       position="550,1000"
       orientation="0,1"
       id="guide4169"
       inkscape:locked="false" />
  </sodipodi:namedview>
  <metadata
     id="metadata5594">
    <rdf:RDF>
      <cc:Work
         rdf:about="">
        <dc:format>image/svg+xml</dc:format>
        <dc:type
           rdf:resource="http://purl.org/dc/dcmitype/StillImage" />
        <dc:title></dc:title>
      </cc:Work>
    </rdf:RDF>
  </metadata>
  <path
     style="fill:#000000;fill-opacity:0"
     d="m 500,100 150,0 0,50 -150,0 z"
     id="rect6365" />
  <path
     style="fill:#000000;fill-opacity:0;stroke:#000000;stroke-width:40;stroke-miterlimit:4;stroke-dasharray:none;stroke-opacity:1"
     d="m 115.938,31.18198 788.88001,0 0,935.63605 -788.88001,0 z"
     id="rect6391" />
  <g
     transform="translate(768.30769,-98.307687)"
     style="font-style:normal;font-weight:normal;font-size:693.33331299px;line-height:0.01%;font-family:sans-serif;letter-spacing:0px;word-spacing:0px;fill:#000000;fill-opacity:1;stroke:none"
     id="flowRoot110">
    <path
       d="m -99.270844,759.64582 q 0,8.46354 -0.677083,14.55729 -0.338543,5.7552 -1.354163,10.15625 -1.01563,4.0625 -2.70834,7.10937 -1.69271,3.04688 -5.41666,7.10938 -3.72396,3.72395 -14.55729,9.8177 -10.4948,6.09375 -26.06771,11.84896 -15.23438,5.41667 -35.20833,9.14063 -19.63542,3.72395 -42.65625,3.72395 -45.02604,0 -81.25,-13.8802 -36.22396,-13.88021 -61.61458,-41.30209 -25.39063,-27.76041 -38.93229,-69.06249 -13.54167,-41.30209 -13.54167,-96.14583 0,-55.85938 14.89583,-99.19271 14.89584,-43.33333 41.64063,-72.78646 26.74479,-29.45312 63.98437,-44.68749 37.57812,-15.23438 82.60416,-15.23438 18.28125,0 35.20834,3.04688 16.92708,3.04687 31.14583,8.125 14.55729,4.73958 26.06771,11.17187 11.51041,6.43229 15.91146,11.17188 4.73958,4.40104 6.43229,7.44791 1.6927,3.04688 2.70833,7.78646 1.01562,4.73958 1.35417,11.17187 0.67708,6.4323 0.67708,15.91146 0,10.15625 -0.67708,17.26563 -0.67709,7.10937 -2.3698,11.51041 -1.6927,4.40105 -4.0625,6.43229 -2.36979,2.03125 -5.41666,2.03125 -5.07813,0 -12.86458,-5.7552 -7.78646,-6.09375 -20.3125,-13.20313 -12.1875,-7.44791 -29.45313,-13.20312 -16.92708,-6.09375 -40.625,-6.09375 -26.0677,0 -46.71875,10.83333 -20.31249,10.49479 -34.86979,30.46875 -14.21875,19.63542 -21.66666,47.73437 -7.44792,28.09896 -7.44792,63.30729 0,38.59375 7.78646,67.03125 8.125,28.09896 22.68229,46.38021 14.89583,18.28125 35.54687,27.42187 20.98959,8.80209 47.05729,8.80209 23.69792,0 40.96355,-5.41667 17.26562,-5.75521 29.45312,-12.52604 12.52604,-6.77084 20.3125,-12.1875 8.125,-5.41667 12.52604,-5.41667 3.38542,0 5.41667,1.35417 2.03125,1.35416 3.38541,5.41666 1.35417,4.0625 2.031253,11.51042 0.677083,7.10938 0.677083,19.29688 z"
       style="font-style:normal;font-variant:normal;font-weight:bold;font-stretch:normal;font-size:693.33331299px;line-height:1.25;font-family:Calibri;-inkscape-font-specification:'Calibri Bold'"
       id="path4224" />
  </g>
  <g
     transform="translate(566.30771,-167.69231)"
     style="font-style:normal;font-weight:normal;line-height:0.01%;font-family:sans-serif;letter-spacing:0px;word-spacing:0px;fill:#000000;fill-opacity:1;stroke:none"
     id="flowRoot118">
    <path
       d="m -295.52083,459.9323 q 0,3.09895 -0.33203,5.3125 -0.33203,2.10286 -0.9961,3.43099 -0.55338,1.21744 -1.32812,1.77083 Q -298.95182,471 -299.94791,471 l -79.02344,0 q -0.88542,0 -1.66016,-0.55338 -0.77474,-0.55339 -1.4388,-1.77083 -0.55339,-1.32813 -0.88542,-3.43099 -0.33203,-2.21355 -0.33203,-5.3125 0,-3.20964 0.22135,-5.3125 0.33204,-2.21355 0.88542,-3.54167 0.66406,-1.32813 1.4388,-1.88151 0.77474,-0.66406 1.77084,-0.66406 l 26.67317,0 0,-93.19011 -23.02083,12.72787 q -2.54557,1.21744 -4.20573,1.54947 -1.54948,0.22136 -2.54557,-0.66406 -0.88542,-0.99609 -1.21745,-3.32031 -0.33203,-2.32422 -0.33203,-6.52995 0,-2.65625 0.11068,-4.31641 0.11067,-1.77083 0.55338,-2.98828 0.44271,-1.21744 1.21745,-1.99218 0.77474,-0.77474 2.10286,-1.66016 l 30.76823,-19.92188 q 0.55339,-0.4427 1.32813,-0.66406 0.88542,-0.33203 2.21354,-0.44271 1.32813,-0.22135 3.43099,-0.22135 2.21354,-0.11068 5.64453,-0.11068 4.20573,0 6.7513,0.22136 2.65625,0.11067 3.98438,0.55338 1.32812,0.33203 1.77083,0.9961 0.44271,0.66406 0.44271,1.66015 l 0,118.31381 23.35287,0 q 0.99609,0 1.77083,0.66406 0.88542,0.55338 1.4388,1.88151 0.66406,1.32812 0.88542,3.54167 0.33203,2.10286 0.33203,5.3125 z"
       style="font-style:normal;font-variant:normal;font-weight:bold;font-stretch:normal;font-size:226.66667175px;line-height:1.25;font-family:Calibri;-inkscape-font-specification:'Calibri Bold'"
       id="path4227" />
    <path
       d="m -179.7526,429.05339 q 0,10.73568 -4.09505,19.03646 -4.09505,8.30078 -11.39974,13.94531 -7.30469,5.64453 -17.48698,8.63281 -10.18229,2.87761 -22.24609,2.87761 -7.30469,0 -13.72396,-1.10677 -6.41927,-0.9961 -11.39974,-2.54558 -4.86979,-1.54948 -8.07943,-3.20963 -3.20963,-1.66016 -4.20573,-2.54557 -0.99609,-0.88542 -1.54948,-1.99219 -0.44271,-1.10677 -0.88541,-2.54557 -0.33203,-1.54948 -0.55339,-3.76303 -0.11068,-2.32421 -0.11068,-5.53385 0,-5.3125 0.88542,-7.30469 0.88542,-2.10286 2.65625,-2.10286 1.10677,0 3.76302,1.54948 2.76693,1.4388 6.97266,3.20963 4.20573,1.66016 9.85026,3.20964 5.64453,1.4388 12.83854,1.4388 6.08724,0 10.73568,-1.4388 4.64844,-1.4388 7.85807,-3.98438 3.32031,-2.65625 4.86979,-6.30859 1.66016,-3.76302 1.66016,-8.30078 0,-4.98047 -1.99219,-8.96485 -1.88151,-3.98437 -5.75521,-6.7513 -3.76302,-2.8776 -9.6289,-4.42708 -5.75521,-1.54948 -13.61328,-1.54948 l -12.39584,0 q -1.4388,0 -2.43489,-0.33203 -0.9961,-0.44271 -1.66016,-1.66016 -0.66406,-1.21745 -0.99609,-3.32031 -0.22136,-2.21354 -0.22136,-5.64453 0,-3.20964 0.22136,-5.20183 0.33203,-2.10286 0.88541,-3.20963 0.66406,-1.10677 1.54948,-1.54948 0.9961,-0.44271 2.32422,-0.44271 l 12.50651,0 q 6.41927,0 11.39974,-1.4388 4.98047,-1.54948 8.30078,-4.31641 3.43099,-2.76692 5.20183,-6.64062 1.77083,-3.98438 1.77083,-8.74349 0,-3.65235 -1.21745,-6.86198 -1.21745,-3.32031 -3.65234,-5.64453 -2.32422,-2.4349 -6.08724,-3.76302 -3.76302,-1.43881 -8.85417,-1.43881 -5.75521,0 -10.84635,1.77084 -5.09115,1.66015 -9.1862,3.76302 -3.98438,1.99219 -6.86198,3.76302 -2.76693,1.77083 -4.09505,1.77083 -0.88542,0 -1.54948,-0.33203 -0.66407,-0.44271 -1.10677,-1.54948 -0.44271,-1.10677 -0.66407,-3.20963 -0.22135,-2.10287 -0.22135,-5.42318 0,-2.76693 0.11068,-4.53776 0.11067,-1.88151 0.4427,-3.09896 0.33204,-1.21745 0.77474,-2.10286 0.55339,-0.88542 1.66016,-1.88151 1.10677,-1.10678 4.53776,-3.20964 3.43099,-2.10286 8.63281,-4.09505 5.20183,-1.99219 11.95313,-3.32031 6.86198,-1.43881 14.83073,-1.43881 10.40364,0 18.3724,2.4349 8.07942,2.43489 13.5026,7.08333 5.53385,4.53776 8.30078,11.28907 2.87761,6.64062 2.87761,15.05208 0,6.52995 -1.66016,12.17448 -1.66016,5.64453 -4.86979,10.07161 -3.20964,4.42709 -8.07943,7.52604 -4.75911,3.09896 -11.06771,4.64844 l 0,0.33203 q 7.52604,0.88542 13.50261,3.8737 5.97656,2.87761 10.07161,7.30469 4.20573,4.42708 6.41927,10.07161 2.21354,5.53386 2.21354,11.95313 z"
       style="font-style:normal;font-variant:normal;font-weight:bold;font-stretch:normal;font-size:226.66667175px;line-height:1.25;font-family:Calibri;-inkscape-font-specification:'Calibri Bold'"
       id="path4229" />
  </g>
  <g
     style="font-style:normal;font-weight:normal;line-height:0.01%;font-family:sans-serif;letter-spacing:0px;word-spacing:0px;fill:#000000;fill-opacity:1;stroke:none"
     id="flowRoot126" />
</svg>
