<?xml version="1.0" encoding="UTF-8" standalone="no"?>
<!-- Created with Inkscape (http://www.inkscape.org/) -->

<svg stroke="currentColor" fill="currentColor"
   xmlns:dc="http://purl.org/dc/elements/1.1/"
   xmlns:cc="http://creativecommons.org/ns#"
   xmlns:rdf="http://www.w3.org/1999/02/22-rdf-syntax-ns#"
   xmlns:svg="http://www.w3.org/2000/svg"
   xmlns="http://www.w3.org/2000/svg"
   xmlns:sodipodi="http://sodipodi.sourceforge.net/DTD/sodipodi-0.dtd"
   xmlns:inkscape="http://www.inkscape.org/namespaces/inkscape"
   width="1000"
   height="1000"
   id="svg4152"
   version="1.1"
   inkscape:version="0.91 r13725"
   viewBox="0 0 1000 1000"
   sodipodi:docname="isotope-hydrogen.svg">
  <defs
     id="defs5498">
    <inkscape:perspective
       sodipodi:type="inkscape:persp3d"
       inkscape:vp_x="0 : 500 : 1"
       inkscape:vp_y="0 : 1000 : 0"
       inkscape:vp_z="1000 : 500 : 1"
       inkscape:persp3d-origin="500 : 333.33333 : 1"
       id="perspective4660" />
    <marker
       inkscape:isstock="true"
       style="overflow:visible"
       id="marker4233"
       refX="0.0"
       refY="0.0"
       orient="auto"
       inkscape:stockid="TriangleOutL">
      <path
         transform="scale(0.8)"
         style="fill-rule:evenodd;stroke-width:1pt;stroke-opacity:1;fill:#000000;fill-opacity:1"
         d="M 5.77,0.0 L -2.88,5.0 L -2.88,-5.0 L 5.77,0.0 z "
         id="path4235" />
    </marker>
    <marker
       inkscape:isstock="true"
       style="overflow:visible"
       id="marker4755"
       refX="0.0"
       refY="0.0"
       orient="auto"
       inkscape:stockid="TriangleOutL">
      <path
         transform="scale(0.8)"
         style="fill-rule:evenodd;stroke-width:1pt;stroke-opacity:1;fill:#000000;fill-opacity:1"
         d="M 5.77,0.0 L -2.88,5.0 L -2.88,-5.0 L 5.77,0.0 z "
         id="path4757" />
    </marker>
    <marker
       inkscape:stockid="Arrow1Lend"
       orient="auto"
       refY="0.0"
       refX="0.0"
       id="Arrow1Lend"
       style="overflow:visible;"
       inkscape:isstock="true">
      <path
         id="path4164"
         d="M 0.0,0.0 L 5.0,-5.0 L -12.5,0.0 L 5.0,5.0 L 0.0,0.0 z "
         style="fill-rule:evenodd;stroke-width:1pt;stroke-opacity:1;fill:#000000;fill-opacity:1"
         transform="scale(0.8) rotate(180) translate(12.5,0)" />
    </marker>
    <marker
       inkscape:stockid="Arrow2Lend"
       orient="auto"
       refY="0.0"
       refX="0.0"
       id="Arrow2Lend"
       style="overflow:visible;"
       inkscape:isstock="true">
      <path
         id="path4182"
         style="fill-rule:evenodd;stroke-width:0.625;stroke-linejoin:round;stroke-opacity:1;fill:#000000;fill-opacity:1"
         d="M 8.7185878,4.0337352 L -2.2072895,0.016013256 L 8.7185884,-4.0017078 C 6.9730900,-1.6296469 6.9831476,1.6157441 8.7185878,4.0337352 z "
         transform="scale(1.1) rotate(180) translate(1,0)" />
    </marker>
    <pattern
       y="0"
       x="0"
       height="6"
       width="6"
       patternUnits="userSpaceOnUse"
       id="EMFhbasepattern" />
  </defs>
  <sodipodi:namedview
     inkscape:window-height="1107"
     inkscape:window-width="2044"
     inkscape:pageshadow="2"
     inkscape:pageopacity="0.0"
     borderopacity="1.0"
     bordercolor="#666666"
     pagecolor="#ffffff"
     id="base"
     showgrid="true"
     showguides="true"
     inkscape:guide-bbox="true"
     inkscape:zoom="0.70710678"
     inkscape:cx="-9.3207945"
     inkscape:cy="559.93084"
     inkscape:window-x="4"
     inkscape:window-y="1"
     inkscape:current-layer="svg4152"
     inkscape:window-maximized="1"
     objecttolerance="20"
     inkscape:snap-bbox="false">
    <sodipodi:guide
       orientation="horizontal"
       position="200"
       id="guide5596"
       inkscape:locked="false" />
    <inkscape:grid
       type="xygrid"
       id="grid3430"
       empspacing="50" />
    <sodipodi:guide
       position="550,1000"
       orientation="0,1"
       id="guide4169"
       inkscape:locked="false" />
  </sodipodi:namedview>
  <metadata
     id="metadata5594">
    <rdf:RDF>
      <cc:Work
         rdf:about="">
        <dc:format>image/svg+xml</dc:format>
        <dc:type
           rdf:resource="http://purl.org/dc/dcmitype/StillImage" />
        <dc:title></dc:title>
      </cc:Work>
    </rdf:RDF>
  </metadata>
  <path
     style="fill:#000000;fill-opacity:0"
     d="m 500,100 150,0 0,50 -150,0 z"
     id="rect6365" />
  <path
     style="fill:#000000;fill-opacity:0;stroke-width:40;stroke-miterlimit:4;stroke-dasharray:none;stroke-opacity:1"
     d="m 115.938,31.18198 788.88001,0 0,935.63605 -788.88001,0 z"
     id="rect6391" />
  <g
     transform="translate(759.5622,-69.953153)"
     style="font-style:normal;font-weight:normal;font-size:693.33331299px;line-height:0.01%;font-family:sans-serif;letter-spacing:0px;word-spacing:0px;fill:#000000;fill-opacity:1;stroke:none"
     id="flowRoot110">
    <path
       d="m -60.338553,813.81248 q 0,3.38542 -2.369792,6.09375 -2.03125,2.70833 -7.109374,4.40104 -5.078125,1.69271 -13.541667,2.70834 -8.463541,1.01562 -21.328124,1.01562 -13.20312,0 -22.00521,-1.01562 -8.46354,-1.01563 -13.54166,-2.70834 -4.73959,-1.69271 -7.10938,-4.40104 -2.03125,-2.70833 -2.03125,-6.09375 l 0,-177.05729 -163.85416,0 0,177.05729 q 0,3.38542 -2.03125,6.09375 -2.03125,2.70833 -7.10938,4.40104 -5.07812,1.69271 -13.54166,2.70834 -8.46354,1.01562 -21.66667,1.01562 -12.86458,0 -21.66666,-1.01562 -8.46355,-1.01563 -13.54167,-2.70834 -5.07812,-1.69271 -7.44792,-4.40104 -2.03125,-2.70833 -2.03125,-6.09375 l 0,-413.6979 q 0,-3.38542 2.03125,-6.09375 2.3698,-2.70834 7.44792,-4.40105 5.07812,-1.6927 13.54167,-2.70833 8.80208,-1.01562 21.66666,-1.01562 13.20313,0 21.66667,1.01562 8.46354,1.01563 13.54166,2.70833 5.07813,1.69271 7.10938,4.40105 2.03125,2.70833 2.03125,6.09375 l 0,160.80728 163.85416,0 0,-160.80728 q 0,-3.38542 2.03125,-6.09375 2.36979,-2.70834 7.10938,-4.40105 5.07812,-1.6927 13.54166,-2.70833 8.80209,-1.01562 22.00521,-1.01562 12.864583,0 21.328124,1.01562 8.463542,1.01563 13.541667,2.70833 5.078124,1.69271 7.109374,4.40105 2.369792,2.70833 2.369792,6.09375 l 0,413.6979 z"
       id="path4224" />
  </g>
  <g
     transform="translate(616.30771,-124)"
     style="font-style:normal;font-weight:normal;line-height:0.01%;font-family:sans-serif;letter-spacing:0px;word-spacing:0px;fill:#000000;fill-opacity:1;stroke:none"
     id="flowRoot118">
    <path
       d="m -295.52083,459.9323 q 0,3.09895 -0.33203,5.3125 -0.33203,2.10286 -0.9961,3.43099 -0.55338,1.21744 -1.32812,1.77083 Q -298.95182,471 -299.94791,471 l -79.02344,0 q -0.88542,0 -1.66016,-0.55338 -0.77474,-0.55339 -1.4388,-1.77083 -0.55339,-1.32813 -0.88542,-3.43099 -0.33203,-2.21355 -0.33203,-5.3125 0,-3.20964 0.22135,-5.3125 0.33204,-2.21355 0.88542,-3.54167 0.66406,-1.32813 1.4388,-1.88151 0.77474,-0.66406 1.77084,-0.66406 l 26.67317,0 0,-93.19011 -23.02083,12.72787 q -2.54557,1.21744 -4.20573,1.54947 -1.54948,0.22136 -2.54557,-0.66406 -0.88542,-0.99609 -1.21745,-3.32031 -0.33203,-2.32422 -0.33203,-6.52995 0,-2.65625 0.11068,-4.31641 0.11067,-1.77083 0.55338,-2.98828 0.44271,-1.21744 1.21745,-1.99218 0.77474,-0.77474 2.10286,-1.66016 l 30.76823,-19.92188 q 0.55339,-0.4427 1.32813,-0.66406 0.88542,-0.33203 2.21354,-0.44271 1.32813,-0.22135 3.43099,-0.22135 2.21354,-0.11068 5.64453,-0.11068 4.20573,0 6.7513,0.22136 2.65625,0.11067 3.98438,0.55338 1.32812,0.33203 1.77083,0.9961 0.44271,0.66406 0.44271,1.66015 l 0,118.31381 23.35287,0 q 0.99609,0 1.77083,0.66406 0.88542,0.55338 1.4388,1.88151 0.66406,1.32812 0.88542,3.54167 0.33203,2.10286 0.33203,5.3125 z"
        id="path4227" />
  </g>
  <g
     style="font-style:normal;font-weight:normal;line-height:0.01%;font-family:sans-serif;letter-spacing:0px;word-spacing:0px;fill:#000000;fill-opacity:1;stroke:none"
     id="flowRoot126" />
</svg>
