<svg stroke="currentColor" fill="currentColor"
   xmlns="http://www.w3.org/2000/svg"
   width="1000"
   height="1000"
   viewBox="0 0 1000 1000">
  <path
     style="fill-opacity:0"
     d="m 500,100 150,0 0,50 -150,0 z" />
  <path
     style="fill-opacity:0;stroke-width:40;stroke-miterlimit:4;stroke-dasharray:none;stroke-opacity:1"
     d="m 115.938,31.18198 788.88001,0 0,935.63605 -788.88001,0 z" />
  <g
     transform="translate(759.5622,-69.953153)"
     style="font-style:normal;font-weight:normal;font-size:693.33331299px;line-height:0.01%;font-family:sans-serif;letter-spacing:0px;word-spacing:0px;fill-opacity:1;stroke:none">
    <path
       d="m -60.338553,813.81248 q 0,3.38542 -2.369792,6.09375 -2.03125,2.70833 -7.109374,4.40104 -5.078125,1.69271 -13.541667,2.70834 -8.463541,1.01562 -21.328124,1.01562 -13.20312,0 -22.00521,-1.01562 -8.46354,-1.01563 -13.54166,-2.70834 -4.73959,-1.69271 -7.10938,-4.40104 -2.03125,-2.70833 -2.03125,-6.09375 l 0,-177.05729 -163.85416,0 0,177.05729 q 0,3.38542 -2.03125,6.09375 -2.03125,2.70833 -7.10938,4.40104 -5.07812,1.69271 -13.54166,2.70834 -8.46354,1.01562 -21.66667,1.01562 -12.86458,0 -21.66666,-1.01562 -8.46355,-1.01563 -13.54167,-2.70834 -5.07812,-1.69271 -7.44792,-4.40104 -2.03125,-2.70833 -2.03125,-6.09375 l 0,-413.6979 q 0,-3.38542 2.03125,-6.09375 2.3698,-2.70834 7.44792,-4.40105 5.07812,-1.6927 13.54167,-2.70833 8.80208,-1.01562 21.66666,-1.01562 13.20313,0 21.66667,1.01562 8.46354,1.01563 13.54166,2.70833 5.07813,1.69271 7.10938,4.40105 2.03125,2.70833 2.03125,6.09375 l 0,160.80728 163.85416,0 0,-160.80728 q 0,-3.38542 2.03125,-6.09375 2.36979,-2.70834 7.10938,-4.40105 5.07812,-1.6927 13.54166,-2.70833 8.80209,-1.01562 22.00521,-1.01562 12.864583,0 21.328124,1.01562 8.463542,1.01563 13.541667,2.70833 5.078124,1.69271 7.109374,4.40105 2.369792,2.70833 2.369792,6.09375 l 0,413.6979 z" />
  </g>
  <g
     transform="translate(616.30771,-124)"
     style="font-style:normal;font-weight:normal;line-height:0.01%;font-family:sans-serif;letter-spacing:0px;word-spacing:0px;fill-opacity:1;stroke:none">
    <path
       d="m -295.52083,459.9323 q 0,3.09895 -0.33203,5.3125 -0.33203,2.10286 -0.9961,3.43099 -0.55338,1.21744 -1.32812,1.77083 Q -298.95182,471 -299.94791,471 l -79.02344,0 q -0.88542,0 -1.66016,-0.55338 -0.77474,-0.55339 -1.4388,-1.77083 -0.55339,-1.32813 -0.88542,-3.43099 -0.33203,-2.21355 -0.33203,-5.3125 0,-3.20964 0.22135,-5.3125 0.33204,-2.21355 0.88542,-3.54167 0.66406,-1.32813 1.4388,-1.88151 0.77474,-0.66406 1.77084,-0.66406 l 26.67317,0 0,-93.19011 -23.02083,12.72787 q -2.54557,1.21744 -4.20573,1.54947 -1.54948,0.22136 -2.54557,-0.66406 -0.88542,-0.99609 -1.21745,-3.32031 -0.33203,-2.32422 -0.33203,-6.52995 0,-2.65625 0.11068,-4.31641 0.11067,-1.77083 0.55338,-2.98828 0.44271,-1.21744 1.21745,-1.99218 0.77474,-0.77474 2.10286,-1.66016 l 30.76823,-19.92188 q 0.55339,-0.4427 1.32813,-0.66406 0.88542,-0.33203 2.21354,-0.44271 1.32813,-0.22135 3.43099,-0.22135 2.21354,-0.11068 5.64453,-0.11068 4.20573,0 6.7513,0.22136 2.65625,0.11067 3.98438,0.55338 1.32812,0.33203 1.77083,0.9961 0.44271,0.66406 0.44271,1.66015 l 0,118.31381 23.35287,0 q 0.99609,0 1.77083,0.66406 0.88542,0.55338 1.4388,1.88151 0.66406,1.32812 0.88542,3.54167 0.33203,2.10286 0.33203,5.3125 z" />
  </g>
  <g
     style="font-style:normal;font-weight:normal;line-height:0.01%;font-family:sans-serif;letter-spacing:0px;word-spacing:0px;fill-opacity:1;stroke:none" />
</svg>
