<?xml version="1.0" encoding="UTF-8" standalone="no"?>
<!-- Created with Inkscape (http://www.inkscape.org/) -->

<svg stroke="currentColor" fill="currentColor"
   xmlns:dc="http://purl.org/dc/elements/1.1/"
   xmlns:cc="http://creativecommons.org/ns#"
   xmlns:rdf="http://www.w3.org/1999/02/22-rdf-syntax-ns#"
   xmlns:svg="http://www.w3.org/2000/svg"
   xmlns="http://www.w3.org/2000/svg"
   xmlns:sodipodi="http://sodipodi.sourceforge.net/DTD/sodipodi-0.dtd"
   xmlns:inkscape="http://www.inkscape.org/namespaces/inkscape"
   width="1000"
   height="1000"
   id="svg4152"
   version="1.1"
   inkscape:version="0.92.1 r15371"
   viewBox="0 0 1000 1000"
   sodipodi:docname="mass.svg">
  <defs
     id="defs5498">
    <inkscape:perspective
       sodipodi:type="inkscape:persp3d"
       inkscape:vp_x="0 : 500 : 1"
       inkscape:vp_y="0 : 1000 : 0"
       inkscape:vp_z="1000 : 500 : 1"
       inkscape:persp3d-origin="500 : 333.33333 : 1"
       id="perspective4660" />
    <marker
       inkscape:isstock="true"
       style="overflow:visible"
       id="marker4233"
       refX="0.0"
       refY="0.0"
       orient="auto"
       inkscape:stockid="TriangleOutL">
      <path
         transform="scale(0.8)"
         style="fill-rule:evenodd;stroke:#000000;stroke-width:1pt;stroke-opacity:1;fill:#000000;fill-opacity:1"
         d="M 5.77,0.0 L -2.88,5.0 L -2.88,-5.0 L 5.77,0.0 z "
         id="path4235" />
    </marker>
    <marker
       inkscape:isstock="true"
       style="overflow:visible"
       id="marker4755"
       refX="0.0"
       refY="0.0"
       orient="auto"
       inkscape:stockid="TriangleOutL">
      <path
         transform="scale(0.8)"
         style="fill-rule:evenodd;stroke:#000000;stroke-width:1pt;stroke-opacity:1;fill:#000000;fill-opacity:1"
         d="M 5.77,0.0 L -2.88,5.0 L -2.88,-5.0 L 5.77,0.0 z "
         id="path4757" />
    </marker>
    <marker
       inkscape:stockid="Arrow1Lend"
       orient="auto"
       refY="0.0"
       refX="0.0"
       id="Arrow1Lend"
       style="overflow:visible;"
       inkscape:isstock="true">
      <path
         id="path4164"
         d="M 0.0,0.0 L 5.0,-5.0 L -12.5,0.0 L 5.0,5.0 L 0.0,0.0 z "
         style="fill-rule:evenodd;stroke:#000000;stroke-width:1pt;stroke-opacity:1;fill:#000000;fill-opacity:1"
         transform="scale(0.8) rotate(180) translate(12.5,0)" />
    </marker>
    <marker
       inkscape:stockid="Arrow2Lend"
       orient="auto"
       refY="0.0"
       refX="0.0"
       id="Arrow2Lend"
       style="overflow:visible;"
       inkscape:isstock="true">
      <path
         id="path4182"
         style="fill-rule:evenodd;stroke-width:0.625;stroke-linejoin:round;stroke:#000000;stroke-opacity:1;fill:#000000;fill-opacity:1"
         d="M 8.7185878,4.0337352 L -2.2072895,0.016013256 L 8.7185884,-4.0017078 C 6.9730900,-1.6296469 6.9831476,1.6157441 8.7185878,4.0337352 z "
         transform="scale(1.1) rotate(180) translate(1,0)" />
    </marker>
    <pattern
       y="0"
       x="0"
       height="6"
       width="6"
       patternUnits="userSpaceOnUse"
       id="EMFhbasepattern" />
  </defs>
  <sodipodi:namedview
     inkscape:window-height="1005"
     inkscape:window-width="1920"
     inkscape:pageshadow="2"
     inkscape:pageopacity="0.0"
     borderopacity="1.0"
     bordercolor="#666666"
     pagecolor="#ffffff"
     id="base"
     showgrid="true"
     showguides="true"
     inkscape:guide-bbox="true"
     inkscape:zoom="0.8125"
     inkscape:cx="323.7265"
     inkscape:cy="559.93084"
     inkscape:window-x="-9"
     inkscape:window-y="-9"
     inkscape:current-layer="svg4152"
     inkscape:window-maximized="1"
     objecttolerance="20"
     inkscape:snap-bbox="false">
    <sodipodi:guide
       orientation="horizontal"
       position="200"
       id="guide5596"
       inkscape:locked="false" />
    <inkscape:grid
       type="xygrid"
       id="grid3430"
       empspacing="50" />
    <sodipodi:guide
       position="550,1000"
       orientation="0,1"
       id="guide4169"
       inkscape:locked="false" />
  </sodipodi:namedview>
  <metadata
     id="metadata5594">
    <rdf:RDF>
      <cc:Work
         rdf:about="">
        <dc:format>image/svg+xml</dc:format>
        <dc:type
           rdf:resource="http://purl.org/dc/dcmitype/StillImage" />
        <dc:title />
      </cc:Work>
    </rdf:RDF>
  </metadata>
  <path
     style="fill:#000000;fill-opacity:0"
     d="m 500,100 150,0 0,50 -150,0 z"
     id="rect6365" />
  <path
     style="fill:#000000;fill-opacity:0;stroke:#000000;stroke-width:50.63881683;stroke-miterlimit:4;stroke-dasharray:none;stroke-opacity:1"
     d="M 129.83295,50 870,50 l 0,850 -740.16705,0 z"
     id="rect6391" />
  <g
     style="font-style:normal;font-weight:normal;font-size:40px;line-height:1.25;font-family:sans-serif;letter-spacing:0px;word-spacing:0px;fill:#000000;fill-opacity:1;stroke:none"
     id="text4555" />
  <g
     style="font-style:normal;font-weight:normal;font-size:40px;line-height:1.25;font-family:sans-serif;letter-spacing:0px;word-spacing:0px;fill:#000000;fill-opacity:1;stroke:none"
     id="flowRoot4529" />
  <g
     style="font-style:normal;font-weight:normal;font-size:40px;line-height:1.25;font-family:sans-serif;letter-spacing:0px;word-spacing:0px;fill:#000000;fill-opacity:1;stroke:none"
     id="flowRoot74" />
  <g
     style="font-style:normal;font-weight:normal;font-size:40px;line-height:1.25;font-family:sans-serif;letter-spacing:0px;word-spacing:0px;fill:#000000;fill-opacity:1;stroke:none"
     id="flowRoot90" />
  <g
     transform="translate(768.76922,-217.6923)"
     style="font-style:normal;font-weight:normal;font-size:506.66665649px;line-height:1.25;font-family:sans-serif;letter-spacing:0px;word-spacing:0px;fill:#000000;fill-opacity:1;stroke:none"
     id="flowRoot110">
    <path
       d="m -112.76041,736.19793 q 0,8.13803 -0.65104,13.9974 -0.32552,5.53386 -1.30208,9.76563 -0.97656,3.90625 -2.60417,6.83593 -1.6276,2.92969 -5.20833,6.83594 -3.58073,3.58073 -13.9974,9.44011 -10.09114,5.85937 -25.0651,11.39323 -14.64844,5.20833 -33.85417,8.78906 -18.88021,3.58073 -41.01563,3.58073 -43.29427,0 -78.125,-13.34636 -34.83073,-13.34635 -59.24479,-39.71354 -24.41407,-26.69271 -37.4349,-66.40625 -13.02083,-39.71354 -13.02083,-92.44792 0,-53.71094 14.32291,-95.37761 14.32292,-41.66667 40.03907,-69.98698 25.71614,-28.32031 61.52344,-42.96875 36.13281,-14.64844 79.42708,-14.64844 17.57813,0 33.85417,2.92969 16.27604,2.92969 29.94792,7.8125 13.99739,4.55729 25.0651,10.74219 11.06771,6.18489 15.29948,10.74218 4.55729,4.23178 6.1849,7.16146 1.6276,2.92969 2.60417,7.48698 0.97656,4.55729 1.30208,10.74219 0.65104,6.1849 0.65104,15.29948 0,9.76563 -0.65104,16.60156 -0.65104,6.83594 -2.27865,11.06771 -1.6276,4.23177 -3.90625,6.1849 -2.27864,1.95312 -5.20833,1.95312 -4.88281,0 -12.36979,-5.53385 -7.48698,-5.85938 -19.53125,-12.69531 -11.71875,-7.16146 -28.32032,-12.69532 -16.27604,-5.85937 -39.0625,-5.85937 -25.0651,0 -44.92187,10.41666 -19.53126,10.09115 -33.52865,29.29688 -13.67188,18.88021 -20.83334,45.89844 -7.16145,27.01823 -7.16145,60.8724 0,37.10937 7.48698,64.45312 7.8125,27.01823 21.80989,44.59636 14.32292,17.57812 34.17969,26.36719 20.18229,8.46354 45.2474,8.46354 22.78646,0 39.38802,-5.20833 16.60156,-5.53386 28.32031,-12.04428 12.04427,-6.51041 19.53125,-11.71875 7.8125,-5.20833 12.04427,-5.20833 3.25521,0 5.20834,1.30208 1.95312,1.30209 3.25521,5.20834 1.30208,3.90625 1.95312,11.06771 0.65104,6.83593 0.65104,18.55468 z"
       
       id="path4347"
       inkscape:connector-curvature="0" />
  </g>
  <g
     transform="translate(637.69233,343.69231)"
     style="font-style:normal;font-weight:normal;font-size:40px;line-height:1.25;font-family:sans-serif;letter-spacing:0px;word-spacing:0px;fill:#000000;fill-opacity:1;stroke:none"
     id="flowRoot118">
    <path
       d="m -296.28906,458.38867 q 0,3.07617 -0.32959,5.27344 -0.32959,2.0874 -0.98877,3.40576 -0.54932,1.2085 -1.31836,1.75781 -0.76904,0.54932 -1.75781,0.54932 h -78.44239 q -0.8789,0 -1.64795,-0.54932 -0.76904,-0.54931 -1.42822,-1.75781 -0.54931,-1.31836 -0.8789,-3.40576 -0.32959,-2.19727 -0.32959,-5.27344 0,-3.18603 0.21972,-5.27344 0.32959,-2.19726 0.87891,-3.51562 0.65918,-1.31836 1.42822,-1.86768 0.76904,-0.65918 1.75781,-0.65918 h 26.47705 v -92.50488 l -22.85156,12.63428 q -2.52685,1.20849 -4.1748,1.53808 -1.53809,0.21973 -2.52686,-0.65918 -0.8789,-0.98876 -1.20849,-3.29589 -0.32959,-2.30713 -0.32959,-6.48194 0,-2.63672 0.10986,-4.28467 0.10986,-1.75781 0.54932,-2.9663 0.43945,-1.2085 1.20849,-1.97754 0.76904,-0.76905 2.0874,-1.64795 l 30.542,-19.77539 q 0.54931,-0.43946 1.31836,-0.65918 0.8789,-0.32959 2.19726,-0.43946 1.31836,-0.21972 3.40576,-0.21972 2.19727,-0.10987 5.60303,-0.10987 4.1748,0 6.70166,0.21973 2.63672,0.10986 3.95508,0.54932 1.31836,0.32959 1.75781,0.98877 0.43945,0.65918 0.43945,1.64795 v 117.44384 h 23.18116 q 0.98877,0 1.75781,0.65918 0.87891,0.54932 1.42822,1.86768 0.65918,1.31836 0.87891,3.51562 0.32959,2.08741 0.32959,5.27344 z"
       
       id="path4350"
       inkscape:connector-curvature="0" />
    <path
       d="m -180.71289,457.61963 q 0,3.18603 -0.32959,5.49316 -0.21973,2.19727 -0.76904,3.62549 -0.54932,1.42822 -1.42823,2.0874 -0.8789,0.54932 -1.97754,0.54932 h -81.73828 q -2.41699,0 -4.1748,-0.43945 -1.75781,-0.43946 -2.85645,-1.64795 -1.09863,-1.31836 -1.64795,-3.73535 -0.43945,-2.417 -0.43945,-6.26221 0,-3.62549 0.32959,-6.15234 0.32959,-2.63672 1.2085,-4.61426 0.8789,-2.0874 2.19726,-3.95508 1.42823,-1.97754 3.62549,-4.28467 L -244.104,411.9165 q 7.36084,-7.69043 11.86523,-13.95263 4.5044,-6.37207 7.03125,-11.53565 2.52686,-5.27343 3.40576,-9.66797 0.98877,-4.39453 0.98877,-8.34961 0,-3.62548 -1.20849,-6.81152 -1.09864,-3.2959 -3.40577,-5.71289 -2.19726,-2.41699 -5.60302,-3.73535 -3.40577,-1.42822 -8.02002,-1.42822 -6.48194,0 -11.53565,1.64795 -4.94385,1.64794 -8.78906,3.73535 -3.73535,1.97754 -6.26221,3.73535 -2.52685,1.64795 -3.95508,1.64795 -0.98876,0 -1.75781,-0.65918 -0.65918,-0.65918 -1.09863,-2.19727 -0.43945,-1.53808 -0.76904,-4.06494 -0.21973,-2.63672 -0.21973,-6.37207 0,-2.52685 0.10986,-4.1748 0.21973,-1.75782 0.54932,-2.96631 0.32959,-1.31836 0.87891,-2.19727 0.54931,-0.98877 1.86767,-2.30713 1.42822,-1.31836 5.05371,-3.2959 3.73535,-2.0874 9.11866,-3.95507 5.3833,-1.97754 11.86523,-3.2959 6.48193,-1.31836 13.51318,-1.31836 11.09619,0 19.33594,2.85644 8.34961,2.74659 13.84277,7.8003 5.49317,4.94384 8.12989,11.86523 2.74658,6.81152 2.74658,14.72168 0,6.92139 -1.31836,13.62305 -1.31836,6.70166 -5.49316,14.50195 -4.17481,7.69043 -11.75538,17.13867 -7.58056,9.33838 -20.10498,21.75293 l -16.58935,17.02881 h 56.03027 q 1.09863,0 1.97754,0.65918 0.98877,0.65918 1.64795,2.0874 0.65918,1.31836 0.98877,3.62549 0.32959,2.19727 0.32959,5.27344 z"
       
       id="path4352"
       inkscape:connector-curvature="0" />
    <path
       d="m -125.12207,453.55469 q 0,10.21728 -3.62549,13.73291 -3.51562,3.51562 -12.74414,3.51562 -9.22851,0 -12.74414,-3.40576 -3.51562,-3.51562 -3.51562,-13.18359 0,-10.32715 3.51562,-13.84278 3.62549,-3.51562 12.96387,-3.51562 9.11865,0 12.63427,3.51562 3.51563,3.40577 3.51563,13.1836 z"
       
       id="path4354"
       inkscape:connector-curvature="0" />
    <path
       d="m -3.8330078,397.74414 q 0,17.02881 -2.746582,30.76172 -2.7465821,13.73291 -9.0087892,23.40088 -6.152344,9.66797 -16.149902,14.83154 -9.887696,5.16358 -24.279785,5.16358 -14.611817,0 -24.169922,-4.94385 -9.558106,-5.05371 -15.161133,-14.39209 -5.603029,-9.44824 -7.910159,-22.96143 -2.19726,-13.62304 -2.19726,-30.76172 0,-16.91894 2.74658,-30.65185 2.856444,-13.84278 9.008788,-23.51074 6.262207,-9.66797 16.149902,-14.83155 9.997559,-5.16357 24.279786,-5.16357 14.611816,0 24.169922,5.05371 9.667968,4.94385 15.270996,14.39209 5.6030269,9.33838 7.8002926,22.96143 2.1972656,13.51318 2.1972656,30.65185 z m -29.1137692,1.42822 q 0,-10.10742 -0.549317,-17.79785 -0.549316,-7.80029 -1.757812,-13.51318 -1.098633,-5.71289 -2.856446,-9.66797 -1.647949,-3.95508 -4.064941,-6.26221 -2.416992,-2.41699 -5.493164,-3.40576 -3.076172,-0.98877 -6.811523,-0.98877 -6.481934,0 -10.766602,3.18604 -4.174805,3.07617 -6.70166,9.33838 -2.416992,6.2622 -3.405762,15.60058 -0.988769,9.33838 -0.988769,21.75293 0,15.16113 1.208496,25.15869 1.208496,9.8877 3.735351,15.82031 2.636719,5.82276 6.70166,8.23975 4.064942,2.30713 9.777832,2.30713 4.284668,0 7.580567,-1.31836 3.295898,-1.42822 5.71289,-4.1748 2.526856,-2.74659 4.174805,-6.92139 1.647949,-4.17481 2.636719,-9.66797 1.098633,-5.49316 1.428223,-12.41455 0.439453,-6.92139 0.439453,-15.271 z"
       
       id="path4356"
       inkscape:connector-curvature="0" />
    <path
       d="m 106.25,458.38867 q 0,3.07617 -0.32959,5.27344 -0.32959,2.0874 -0.98877,3.40576 -0.54932,1.2085 -1.31836,1.75781 -0.76904,0.54932 -1.75781,0.54932 H 23.413086 q -0.878906,0 -1.647949,-0.54932 -0.769043,-0.54931 -1.428223,-1.75781 -0.549316,-1.31836 -0.878906,-3.40576 -0.32959,-2.19727 -0.32959,-5.27344 0,-3.18603 0.219727,-5.27344 0.329589,-2.19726 0.878906,-3.51562 0.659179,-1.31836 1.428222,-1.86768 0.769043,-0.65918 1.757813,-0.65918 h 26.477051 v -92.50488 l -22.851563,12.63428 q -2.526855,1.20849 -4.174804,1.53808 -1.538086,0.21973 -2.526856,-0.65918 -0.878906,-0.98876 -1.208496,-3.29589 -0.32959,-2.30713 -0.32959,-6.48194 0,-2.63672 0.109863,-4.28467 0.109864,-1.75781 0.549317,-2.9663 0.439453,-1.2085 1.208496,-1.97754 0.769043,-0.76905 2.087402,-1.64795 l 30.541992,-19.77539 q 0.549317,-0.43946 1.31836,-0.65918 0.878906,-0.32959 2.197265,-0.43946 1.31836,-0.21972 3.405762,-0.21972 2.197266,-0.10987 5.603027,-0.10987 4.174805,0 6.701661,0.21973 2.636718,0.10986 3.955078,0.54932 1.318359,0.32959 1.757812,0.98877 0.439453,0.65918 0.439453,1.64795 v 117.44384 h 23.181154 q 0.98877,0 1.75781,0.65918 0.87891,0.54932 1.42822,1.86768 0.65918,1.31836 0.87891,3.51562 0.32959,2.08741 0.32959,5.27344 z"
       
       id="path4358"
       inkscape:connector-curvature="0" />
  </g>
  <g
     style="font-style:normal;font-weight:normal;font-size:40px;line-height:1.25;font-family:sans-serif;letter-spacing:0px;word-spacing:0px;fill:#000000;fill-opacity:1;stroke:none"
     id="flowRoot126" />
</svg>
