<?xml version="1.0" encoding="UTF-8" standalone="no"?>
<!-- Created with Inkscape (http://www.inkscape.org/) -->

<svg
   xmlns:dc="http://purl.org/dc/elements/1.1/"
   xmlns:cc="http://creativecommons.org/ns#"
   xmlns:rdf="http://www.w3.org/1999/02/22-rdf-syntax-ns#"
   xmlns:svg="http://www.w3.org/2000/svg"
   xmlns="http://www.w3.org/2000/svg"
   xmlns:sodipodi="http://sodipodi.sourceforge.net/DTD/sodipodi-0.dtd"
   xmlns:inkscape="http://www.inkscape.org/namespaces/inkscape"
   width="1000"
   height="1000"
   id="svg4152"
   version="1.1"
   inkscape:version="0.92.1 r15371"
   viewBox="0 0 1000 1000"
   sodipodi:docname="oxidation-state.svg">
  <defs
     id="defs5498">
    <inkscape:perspective
       sodipodi:type="inkscape:persp3d"
       inkscape:vp_x="0 : 500 : 1"
       inkscape:vp_y="0 : 1000 : 0"
       inkscape:vp_z="1000 : 500 : 1"
       inkscape:persp3d-origin="500 : 333.33333 : 1"
       id="perspective4660" />
    <marker
       inkscape:isstock="true"
       style="overflow:visible"
       id="marker4233"
       refX="0.0"
       refY="0.0"
       orient="auto"
       inkscape:stockid="TriangleOutL">
      <path
         transform="scale(0.8)"
         style="fill-rule:evenodd;stroke:#000000;stroke-width:1pt;stroke-opacity:1;fill:#000000;fill-opacity:1"
         d="M 5.77,0.0 L -2.88,5.0 L -2.88,-5.0 L 5.77,0.0 z "
         id="path4235" />
    </marker>
    <marker
       inkscape:isstock="true"
       style="overflow:visible"
       id="marker4755"
       refX="0.0"
       refY="0.0"
       orient="auto"
       inkscape:stockid="TriangleOutL">
      <path
         transform="scale(0.8)"
         style="fill-rule:evenodd;stroke:#000000;stroke-width:1pt;stroke-opacity:1;fill:#000000;fill-opacity:1"
         d="M 5.77,0.0 L -2.88,5.0 L -2.88,-5.0 L 5.77,0.0 z "
         id="path4757" />
    </marker>
    <marker
       inkscape:stockid="Arrow1Lend"
       orient="auto"
       refY="0.0"
       refX="0.0"
       id="Arrow1Lend"
       style="overflow:visible;"
       inkscape:isstock="true">
      <path
         id="path4164"
         d="M 0.0,0.0 L 5.0,-5.0 L -12.5,0.0 L 5.0,5.0 L 0.0,0.0 z "
         style="fill-rule:evenodd;stroke:#000000;stroke-width:1pt;stroke-opacity:1;fill:#000000;fill-opacity:1"
         transform="scale(0.8) rotate(180) translate(12.5,0)" />
    </marker>
    <marker
       inkscape:stockid="Arrow2Lend"
       orient="auto"
       refY="0.0"
       refX="0.0"
       id="Arrow2Lend"
       style="overflow:visible;"
       inkscape:isstock="true">
      <path
         id="path4182"
         style="fill-rule:evenodd;stroke-width:0.625;stroke-linejoin:round;stroke:#000000;stroke-opacity:1;fill:#000000;fill-opacity:1"
         d="M 8.7185878,4.0337352 L -2.2072895,0.016013256 L 8.7185884,-4.0017078 C 6.9730900,-1.6296469 6.9831476,1.6157441 8.7185878,4.0337352 z "
         transform="scale(1.1) rotate(180) translate(1,0)" />
    </marker>
    <pattern
       y="0"
       x="0"
       height="6"
       width="6"
       patternUnits="userSpaceOnUse"
       id="EMFhbasepattern" />
  </defs>
  <sodipodi:namedview
     inkscape:window-height="1005"
     inkscape:window-width="1920"
     inkscape:pageshadow="2"
     inkscape:pageopacity="0.0"
     borderopacity="1.0"
     bordercolor="#666666"
     pagecolor="#ffffff"
     id="base"
     showgrid="true"
     showguides="true"
     inkscape:guide-bbox="true"
     inkscape:zoom="0.8125"
     inkscape:cx="666.46264"
     inkscape:cy="503.98048"
     inkscape:window-x="-9"
     inkscape:window-y="-9"
     inkscape:current-layer="svg4152"
     inkscape:window-maximized="1"
     objecttolerance="20"
     inkscape:snap-bbox="false">
    <sodipodi:guide
       orientation="horizontal"
       position="200"
       id="guide5596"
       inkscape:locked="false" />
    <inkscape:grid
       type="xygrid"
       id="grid3430"
       empspacing="50" />
    <sodipodi:guide
       position="550,1000"
       orientation="0,1"
       id="guide4169"
       inkscape:locked="false" />
  </sodipodi:namedview>
  <metadata
     id="metadata5594">
    <rdf:RDF>
      <cc:Work
         rdf:about="">
        <dc:format>image/svg+xml</dc:format>
        <dc:type
           rdf:resource="http://purl.org/dc/dcmitype/StillImage" />
        <dc:title></dc:title>
      </cc:Work>
    </rdf:RDF>
  </metadata>
  <path
     style="color:#000000;font-style:normal;font-variant:normal;font-weight:normal;font-stretch:normal;font-size:medium;line-height:normal;font-family:sans-serif;font-variant-ligatures:normal;font-variant-position:normal;font-variant-caps:normal;font-variant-numeric:normal;font-variant-alternates:normal;font-feature-settings:normal;text-indent:0;text-align:start;text-decoration:none;text-decoration-line:none;text-decoration-style:solid;text-decoration-color:#000000;letter-spacing:normal;word-spacing:normal;text-transform:none;writing-mode:lr-tb;direction:ltr;text-orientation:mixed;dominant-baseline:auto;baseline-shift:baseline;text-anchor:start;white-space:normal;shape-padding:0;clip-rule:nonzero;display:inline;overflow:visible;visibility:visible;opacity:1;isolation:auto;mix-blend-mode:normal;color-interpolation:sRGB;color-interpolation-filters:linearRGB;solid-color:#000000;solid-opacity:1;vector-effect:none;fill-opacity:1;fill-rule:nonzero;stroke:none;stroke-width:1;stroke-linecap:butt;stroke-linejoin:miter;stroke-miterlimit:4;stroke-dasharray:none;stroke-dashoffset:0;stroke-opacity:1;color-rendering:auto;image-rendering:auto;shape-rendering:auto;text-rendering:auto;enable-background:accumulate"
     d="m 499.5,99.5 v 0.5 50.5 h 151 v -51 z m 1,1 h 149 v 49 h -149 z"
     id="rect6365"
     inkscape:connector-curvature="0" />
  <path
     style="color:#000000;font-style:normal;font-variant:normal;font-weight:normal;font-stretch:normal;font-size:medium;line-height:normal;font-family:sans-serif;font-variant-ligatures:normal;font-variant-position:normal;font-variant-caps:normal;font-variant-numeric:normal;font-variant-alternates:normal;font-feature-settings:normal;text-indent:0;text-align:start;text-decoration:none;text-decoration-line:none;text-decoration-style:solid;text-decoration-color:#000000;letter-spacing:normal;word-spacing:normal;text-transform:none;writing-mode:lr-tb;direction:ltr;text-orientation:mixed;dominant-baseline:auto;baseline-shift:baseline;text-anchor:start;white-space:normal;shape-padding:0;clip-rule:nonzero;display:inline;overflow:visible;visibility:visible;opacity:1;isolation:auto;mix-blend-mode:normal;color-interpolation:sRGB;color-interpolation-filters:linearRGB;solid-color:#000000;solid-opacity:1;vector-effect:none;fill:#000000;fill-opacity:1;fill-rule:nonzero;stroke:none;stroke-width:40;stroke-linecap:butt;stroke-linejoin:miter;stroke-miterlimit:4;stroke-dasharray:none;stroke-dashoffset:0;stroke-opacity:1;color-rendering:auto;image-rendering:auto;shape-rendering:auto;text-rendering:auto;enable-background:accumulate"
     d="m 95.9375,11.181641 v 20 955.636719 H 924.81836 V 11.181641 Z m 40,40 H 884.81836 V 946.81836 H 135.9375 Z"
     id="rect6391"
     inkscape:connector-curvature="0" />
  <g
     aria-label=" "
     style="font-style:normal;font-weight:normal;line-height:0%;font-family:sans-serif;letter-spacing:0px;word-spacing:0px;fill:#000000;fill-opacity:1;stroke:none"
     id="text4555" />
  <g
     aria-label=" "
     style="font-style:normal;font-weight:normal;line-height:0.01%;font-family:sans-serif;letter-spacing:0px;word-spacing:0px;fill:#000000;fill-opacity:1;stroke:none"
     id="flowRoot4529" />
  <g
     aria-label=" "
     style="font-style:normal;font-weight:normal;line-height:0.01%;font-family:sans-serif;letter-spacing:0px;word-spacing:0px;fill:#000000;fill-opacity:1;stroke:none"
     id="flowRoot74" />
  <g
     aria-label=" "
     style="font-style:normal;font-weight:normal;line-height:0.01%;font-family:sans-serif;letter-spacing:0px;word-spacing:0px;fill:#000000;fill-opacity:1;stroke:none"
     id="flowRoot90" />
  <g
     aria-label="H"
     transform="translate(627.07692,-57.38461)"
     style="font-style:normal;font-weight:normal;font-size:693.33331299px;line-height:0.01%;font-family:sans-serif;letter-spacing:0px;word-spacing:0px;fill:#000000;fill-opacity:1;stroke:none"
     id="flowRoot110">
    <path
       d="m -60.338553,744.47915 q 0,3.38542 -2.369792,6.09375 -2.03125,2.70833 -7.109374,4.40104 -5.078125,1.69271 -13.541667,2.70833 -8.463541,1.01563 -21.328124,1.01563 -13.20312,0 -22.00521,-1.01563 -8.46354,-1.01562 -13.54166,-2.70833 -4.73959,-1.69271 -7.10938,-4.40104 -2.03125,-2.70833 -2.03125,-6.09375 V 567.42186 h -163.85416 v 177.05729 q 0,3.38542 -2.03125,6.09375 -2.03125,2.70833 -7.10938,4.40104 -5.07812,1.69271 -13.54166,2.70833 -8.46354,1.01563 -21.66667,1.01563 -12.86458,0 -21.66666,-1.01563 -8.46355,-1.01562 -13.54167,-2.70833 -5.07812,-1.69271 -7.44792,-4.40104 -2.03125,-2.70833 -2.03125,-6.09375 V 330.78124 q 0,-3.38541 2.03125,-6.09375 2.3698,-2.70833 7.44792,-4.40104 5.07812,-1.6927 13.54167,-2.70833 8.80208,-1.01562 21.66666,-1.01562 13.20313,0 21.66667,1.01562 8.46354,1.01563 13.54166,2.70833 5.07813,1.69271 7.10938,4.40104 2.03125,2.70834 2.03125,6.09375 v 160.80729 h 163.85416 V 330.78124 q 0,-3.38541 2.03125,-6.09375 2.36979,-2.70833 7.10938,-4.40104 5.07812,-1.6927 13.54166,-2.70833 8.80209,-1.01562 22.00521,-1.01562 12.864583,0 21.328124,1.01562 8.463542,1.01563 13.541667,2.70833 5.078124,1.69271 7.109374,4.40104 2.369792,2.70834 2.369792,6.09375 z"
       style="font-style:normal;font-variant:normal;font-weight:bold;font-stretch:normal;font-size:693.33331299px;line-height:1.25;font-family:Calibri;-inkscape-font-specification:'Calibri Bold'"
       id="path133" />
  </g>
  <g
     aria-label="+1"
     transform="translate(1011.0769,-96)"
     style="font-style:normal;font-weight:normal;line-height:0.01%;font-family:sans-serif;letter-spacing:0px;word-spacing:0px;fill:#000000;fill-opacity:1;stroke:none"
     id="flowRoot118">
    <path
       d="m -292.86458,384.69401 q 0,3.09896 -0.33203,5.20183 -0.33203,2.10286 -0.9961,3.43099 -0.66406,1.21744 -1.54948,1.77083 -0.88541,0.55338 -1.88151,0.55338 h -34.42057 v 37.51954 q 0,1.10677 -0.55338,1.99218 -0.55339,0.77474 -1.88152,1.43881 -1.32812,0.55338 -3.54166,0.88541 -2.21354,0.33203 -5.53386,0.33203 -3.32031,0 -5.53385,-0.33203 -2.21354,-0.33203 -3.54167,-0.88541 -1.32812,-0.66407 -1.99218,-1.43881 -0.55339,-0.88541 -0.55339,-1.99218 v -37.51954 h -34.3099 q -0.99609,0 -1.88151,-0.55338 -0.77474,-0.55339 -1.4388,-1.77083 -0.66406,-1.32813 -1.10677,-3.43099 -0.33203,-2.10287 -0.33203,-5.20183 0,-2.98828 0.33203,-5.09114 0.33203,-2.21354 0.88542,-3.43099 0.66406,-1.32813 1.4388,-1.88151 0.77474,-0.55339 1.77083,-0.55339 h 34.64193 v -37.40885 q 0,-1.10677 0.55339,-1.99219 0.66406,-0.99609 1.99218,-1.54948 1.32813,-0.66406 3.54167,-0.99609 2.21354,-0.33203 5.53385,-0.33203 3.32032,0 5.53386,0.33203 2.21354,0.33203 3.54166,0.99609 1.32813,0.55339 1.88152,1.54948 0.55338,0.88542 0.55338,1.99219 v 37.40885 h 34.75261 q 0.88541,0 1.66015,0.55339 0.88542,0.55338 1.4388,1.88151 0.66407,1.21745 0.9961,3.43099 0.33203,2.10286 0.33203,5.09114 z"
       style="font-style:normal;font-variant:normal;font-weight:bold;font-stretch:normal;font-size:226.66667175px;line-height:1.25;font-family:Calibri;-inkscape-font-specification:'Calibri Bold'"
       id="path136" />
    <path
       d="m -182.63021,437.26563 q 0,3.09896 -0.33203,5.3125 -0.33203,2.10286 -0.99609,3.43099 -0.55339,1.21745 -1.32813,1.77083 -0.77474,0.55339 -1.77083,0.55339 h -79.02344 q -0.88542,0 -1.66015,-0.55339 -0.77474,-0.55338 -1.43881,-1.77083 -0.55338,-1.32813 -0.88541,-3.43099 -0.33204,-2.21354 -0.33204,-5.3125 0,-3.20964 0.22136,-5.3125 0.33203,-2.21354 0.88542,-3.54167 0.66406,-1.32812 1.4388,-1.88151 0.77474,-0.66406 1.77083,-0.66406 h 26.67318 v -93.19011 l -23.02083,12.72787 q -2.54558,1.21745 -4.20573,1.54948 -1.54948,0.22135 -2.54558,-0.66407 -0.88541,-0.99609 -1.21745,-3.32031 -0.33203,-2.32422 -0.33203,-6.52995 0,-2.65625 0.11068,-4.3164 0.11068,-1.77084 0.55339,-2.98828 0.4427,-1.21745 1.21744,-1.99219 0.77474,-0.77474 2.10287,-1.66016 l 30.76823,-19.92187 q 0.55338,-0.44271 1.32812,-0.66407 0.88542,-0.33203 2.21355,-0.4427 1.32812,-0.22136 3.43099,-0.22136 2.21354,-0.11068 5.64453,-0.11068 4.20573,0 6.7513,0.22136 2.65625,0.11068 3.98437,0.55338 1.32813,0.33204 1.77084,0.9961 0.44271,0.66406 0.44271,1.66015 v 118.31381 h 23.35286 q 0.99609,0 1.77083,0.66406 0.88542,0.55339 1.43881,1.88151 0.66406,1.32813 0.88541,3.54167 0.33203,2.10286 0.33203,5.3125 z"
       style="font-style:normal;font-variant:normal;font-weight:bold;font-stretch:normal;font-size:226.66667175px;line-height:1.25;font-family:Calibri;-inkscape-font-specification:'Calibri Bold'"
       id="path138" />
  </g>
  <g
     aria-label=" "
     style="font-style:normal;font-weight:normal;line-height:0.01%;font-family:sans-serif;letter-spacing:0px;word-spacing:0px;fill:#000000;fill-opacity:1;stroke:none"
     id="flowRoot126" />
  <g
     aria-label="-1"
     transform="translate(1053.0769,302)"
     style="font-style:normal;font-weight:normal;line-height:0.01%;font-family:sans-serif;letter-spacing:0px;word-spacing:0px;fill:#000000;fill-opacity:1;stroke:none"
     id="flowRoot118-3">
    <path
       d="m -337.13542,392.66276 q 0,6.41927 -1.21744,8.96485 -1.21745,2.54557 -3.8737,2.54557 h -46.04167 q -2.76693,0 -3.98437,-2.54557 -1.21745,-2.65625 -1.21745,-8.96485 0,-6.19791 1.21745,-8.74349 1.21744,-2.54557 3.98437,-2.54557 h 46.04167 q 1.32812,0 2.21354,0.55339 0.99609,0.55338 1.66016,1.88151 0.66406,1.32812 0.88541,3.54166 0.33203,2.21355 0.33203,5.3125 z"
       style="font-style:normal;font-variant:normal;font-weight:bold;font-stretch:normal;font-size:226.66667175px;line-height:1.25;font-family:Calibri;-inkscape-font-specification:'Calibri Bold'"
       id="path142" />
    <path
       d="m -226.01562,437.26563 q 0,3.09896 -0.33203,5.3125 -0.33203,2.10286 -0.9961,3.43099 -0.55338,1.21745 -1.32812,1.77083 -0.77474,0.55339 -1.77083,0.55339 h -79.02344 q -0.88542,0 -1.66016,-0.55339 -0.77474,-0.55338 -1.4388,-1.77083 -0.55339,-1.32813 -0.88542,-3.43099 -0.33203,-2.21354 -0.33203,-5.3125 0,-3.20964 0.22136,-5.3125 0.33203,-2.21354 0.88541,-3.54167 0.66406,-1.32812 1.4388,-1.88151 0.77474,-0.66406 1.77084,-0.66406 h 26.67317 v -93.19011 l -23.02083,12.72787 q -2.54557,1.21745 -4.20573,1.54948 -1.54948,0.22135 -2.54557,-0.66407 -0.88542,-0.99609 -1.21745,-3.32031 -0.33203,-2.32422 -0.33203,-6.52995 0,-2.65625 0.11068,-4.3164 0.11067,-1.77084 0.55338,-2.98828 0.44271,-1.21745 1.21745,-1.99219 0.77474,-0.77474 2.10286,-1.66016 l 30.76823,-19.92187 q 0.55339,-0.44271 1.32813,-0.66407 0.88542,-0.33203 2.21354,-0.4427 1.32813,-0.22136 3.43099,-0.22136 2.21354,-0.11068 5.64453,-0.11068 4.20573,0 6.7513,0.22136 2.65625,0.11068 3.98438,0.55338 1.32812,0.33204 1.77083,0.9961 0.44271,0.66406 0.44271,1.66015 v 118.31381 h 23.35287 q 0.99609,0 1.77083,0.66406 0.88542,0.55339 1.4388,1.88151 0.66406,1.32813 0.88542,3.54167 0.33203,2.10286 0.33203,5.3125 z"
       style="font-style:normal;font-variant:normal;font-weight:bold;font-stretch:normal;font-size:226.66667175px;line-height:1.25;font-family:Calibri;-inkscape-font-specification:'Calibri Bold'"
       id="path144" />
  </g>
  <g
     aria-label="0"
     transform="translate(1115.6049,101.10397)"
     style="font-style:normal;font-weight:normal;line-height:0.01%;font-family:sans-serif;letter-spacing:0px;word-spacing:0px;fill:#000000;fill-opacity:1;stroke:none"
     id="flowRoot118-9-8">
    <path
       d="m -291.3151,376.17188 q 0,17.15495 -2.76693,30.98958 -2.76693,13.83464 -9.07552,23.57422 -6.19792,9.73958 -16.26953,14.94141 -9.96094,5.20182 -24.45964,5.20182 -14.72005,0 -24.34896,-4.98047 -9.6289,-5.09114 -15.27343,-14.4987 -5.64454,-9.51823 -7.96875,-23.13151 -2.21355,-13.72396 -2.21355,-30.98958 0,-17.04427 2.76693,-30.87891 2.87761,-13.94531 9.07552,-23.68489 6.3086,-9.73959 16.26953,-14.94141 10.07162,-5.20182 24.45964,-5.20182 14.72005,0 24.34896,5.09114 9.73958,4.98047 15.38411,14.4987 5.64453,9.40755 7.85808,23.13151 2.21354,13.61328 2.21354,30.87891 z m -29.32943,1.4388 q 0,-10.18229 -0.55338,-17.92969 -0.55339,-7.85807 -1.77084,-13.61328 -1.10677,-5.75521 -2.8776,-9.73958 -1.66016,-3.98438 -4.09505,-6.3086 -2.4349,-2.43489 -5.53386,-3.43099 -3.09896,-0.99609 -6.86198,-0.99609 -6.52995,0 -10.84635,3.20964 -4.20573,3.09895 -6.7513,9.40755 -2.4349,6.30859 -3.43099,15.71614 -0.9961,9.40756 -0.9961,21.91407 0,15.27343 1.21745,25.34505 1.21745,9.96094 3.76302,15.9375 2.65625,5.86589 6.7513,8.30078 4.09505,2.32422 9.85026,2.32422 4.31641,0 7.63672,-1.32813 3.32031,-1.4388 5.75521,-4.20572 2.54557,-2.76693 4.20573,-6.97266 1.66016,-4.20573 2.65625,-9.73958 1.10677,-5.53386 1.4388,-12.50652 0.44271,-6.97265 0.44271,-15.38411 z"
       style="font-style:normal;font-variant:normal;font-weight:bold;font-stretch:normal;font-size:226.66667175px;line-height:1.25;font-family:Calibri;-inkscape-font-specification:'Calibri Bold'"
       id="path147" />
  </g>
  <g
     style="font-style:normal;font-weight:normal;font-size:40px;line-height:1.25;font-family:sans-serif;letter-spacing:0px;word-spacing:0px;fill:#000000;fill-opacity:1;stroke:none"
     id="flowRoot119" />
</svg>
