<?xml version="1.0" encoding="UTF-8" standalone="no"?>
<!-- Created with Inkscape (http://www.inkscape.org/) -->

<svg
   xmlns:dc="http://purl.org/dc/elements/1.1/"
   xmlns:cc="http://creativecommons.org/ns#"
   xmlns:rdf="http://www.w3.org/1999/02/22-rdf-syntax-ns#"
   xmlns:svg="http://www.w3.org/2000/svg"
   xmlns="http://www.w3.org/2000/svg"
   xmlns:sodipodi="http://sodipodi.sourceforge.net/DTD/sodipodi-0.dtd"
   xmlns:inkscape="http://www.inkscape.org/namespaces/inkscape"
   width="1000"
   height="1000"
   id="svg4152"
   version="1.1"
   inkscape:version="0.92.2 5c3e80d, 2017-08-06"
   viewBox="0 0 1000 1000"
   sodipodi:docname="overlay.svg">
  <defs
     id="defs5498">
    <marker
       inkscape:isstock="true"
       style="overflow:visible"
       id="marker4233"
       refX="0.0"
       refY="0.0"
       orient="auto"
       inkscape:stockid="TriangleOutL">
      <path
         transform="scale(0.8)"
         style="fill-rule:evenodd;stroke:#000000;stroke-width:1pt;stroke-opacity:1;fill:#000000;fill-opacity:1"
         d="M 5.77,0.0 L -2.88,5.0 L -2.88,-5.0 L 5.77,0.0 z "
         id="path4235" />
    </marker>
    <marker
       inkscape:isstock="true"
       style="overflow:visible"
       id="marker4755"
       refX="0.0"
       refY="0.0"
       orient="auto"
       inkscape:stockid="TriangleOutL">
      <path
         transform="scale(0.8)"
         style="fill-rule:evenodd;stroke:#000000;stroke-width:1pt;stroke-opacity:1;fill:#000000;fill-opacity:1"
         d="M 5.77,0.0 L -2.88,5.0 L -2.88,-5.0 L 5.77,0.0 z "
         id="path4757" />
    </marker>
    <marker
       inkscape:stockid="Arrow1Lend"
       orient="auto"
       refY="0.0"
       refX="0.0"
       id="Arrow1Lend"
       style="overflow:visible;"
       inkscape:isstock="true">
      <path
         id="path4164"
         d="M 0.0,0.0 L 5.0,-5.0 L -12.5,0.0 L 5.0,5.0 L 0.0,0.0 z "
         style="fill-rule:evenodd;stroke:#000000;stroke-width:1pt;stroke-opacity:1;fill:#000000;fill-opacity:1"
         transform="scale(0.8) rotate(180) translate(12.5,0)" />
    </marker>
    <marker
       inkscape:stockid="Arrow2Lend"
       orient="auto"
       refY="0.0"
       refX="0.0"
       id="Arrow2Lend"
       style="overflow:visible;"
       inkscape:isstock="true">
      <path
         id="path4182"
         style="fill-rule:evenodd;stroke-width:0.625;stroke-linejoin:round;stroke:#000000;stroke-opacity:1;fill:#000000;fill-opacity:1"
         d="M 8.7185878,4.0337352 L -2.2072895,0.016013256 L 8.7185884,-4.0017078 C 6.9730900,-1.6296469 6.9831476,1.6157441 8.7185878,4.0337352 z "
         transform="scale(1.1) rotate(180) translate(1,0)" />
    </marker>
    <pattern
       y="0"
       x="0"
       height="6"
       width="6"
       patternUnits="userSpaceOnUse"
       id="EMFhbasepattern" />
    <pattern
       y="0"
       x="0"
       height="6"
       width="6"
       patternUnits="userSpaceOnUse"
       id="EMFhbasepattern-6" />
    <pattern
       y="0"
       x="0"
       height="6"
       width="6"
       patternUnits="userSpaceOnUse"
       id="EMFhbasepattern-9" />
    <pattern
       y="0"
       x="0"
       height="6"
       width="6"
       patternUnits="userSpaceOnUse"
       id="EMFhbasepattern-0" />
    <pattern
       y="0"
       x="0"
       height="6"
       width="6"
       patternUnits="userSpaceOnUse"
       id="EMFhbasepattern-60" />
    <pattern
       y="0"
       x="0"
       height="6"
       width="6"
       patternUnits="userSpaceOnUse"
       id="EMFhbasepattern-2" />
    <pattern
       y="0"
       x="0"
       height="6"
       width="6"
       patternUnits="userSpaceOnUse"
       id="EMFhbasepattern-06" />
  </defs>
  <sodipodi:namedview
     inkscape:window-height="1107"
     inkscape:window-width="2044"
     inkscape:pageshadow="2"
     inkscape:pageopacity="0.0"
     borderopacity="1.0"
     bordercolor="#666666"
     pagecolor="#ffffff"
     id="base"
     showgrid="true"
     showguides="true"
     inkscape:guide-bbox="true"
     inkscape:zoom="0.5"
     inkscape:cx="-481.17787"
     inkscape:cy="459.29481"
     inkscape:window-x="355"
     inkscape:window-y="67"
     inkscape:current-layer="g972"
     inkscape:window-maximized="0"
     objecttolerance="20">
    <sodipodi:guide
       orientation="horizontal"
       position="200"
       id="guide5596"
       inkscape:locked="false" />
    <inkscape:grid
       type="xygrid"
       id="grid3430"
       empspacing="50" />
    <sodipodi:guide
       position="550,1000"
       orientation="0,1"
       id="guide4169"
       inkscape:locked="false" />
  </sodipodi:namedview>
  <metadata
     id="metadata5594">
    <rdf:RDF>
      <cc:Work
         rdf:about="">
        <dc:format>image/svg+xml</dc:format>
        <dc:type
           rdf:resource="http://purl.org/dc/dcmitype/StillImage" />
        <dc:title />
      </cc:Work>
    </rdf:RDF>
  </metadata>
  <path
     inkscape:connector-curvature="0"
     id="path3850"
     d="m 49.941423,730.47046 883.661647,0"
     style="fill:none;stroke:#040404;stroke-width:39.32278442px;stroke-linecap:round;stroke-linejoin:round;stroke-miterlimit:4;stroke-dasharray:none;stroke-opacity:1" />
  <path
     inkscape:connector-curvature="0"
     id="path3852"
     d="m 947.56842,730.47046 -51.27014,38.95509"
     style="fill:none;stroke:#040404;stroke-width:39.32278442px;stroke-linecap:round;stroke-linejoin:round;stroke-miterlimit:4;stroke-dasharray:none;stroke-opacity:1" />
  <path
     inkscape:connector-curvature="0"
     id="path3854"
     d="m 896.29828,691.70025 51.27014,38.77021"
     style="fill:none;stroke:#040404;stroke-width:39.32278442px;stroke-linecap:round;stroke-linejoin:round;stroke-miterlimit:4;stroke-dasharray:none;stroke-opacity:1" />
  <path
     inkscape:connector-curvature="0"
     id="path3856"
     d="m 448.04395,905.94172 c 0,3.31135 -1.10228,6.80277 -2.94007,10.47415 -2.02126,3.6765 -4.96151,7.353 -9.00403,10.65928 -4.04271,3.30628 -9.00349,6.06232 -15.25147,8.08304 -6.06342,2.20581 -12.86254,3.12627 -20.5801,3.12627 -16.16973,0 -28.8488,-4.77677 -38.0363,-14.15049 -9.00403,-9.55369 -13.59787,-22.23369 -13.59787,-38.21992 0,-10.65416 2.02126,-20.21302 6.24798,-28.48115 4.04216,-8.26813 10.10594,-14.70067 18.00751,-19.29251 7.90104,-4.41188 17.45639,-6.7977 28.48114,-6.7977 6.79912,0 13.04655,1.10047 18.74285,3.1212 5.51265,1.84086 10.47361,4.41182 14.33248,7.53296 4.0427,3.3114 6.98277,6.61768 9.00404,10.10905 2.20491,3.6765 3.12371,6.98262 3.12371,9.92396 0,3.30607 -1.10227,5.87718 -3.4912,8.08304 -2.38911,2.20581 -5.14516,3.30628 -8.4529,3.30628 -2.20491,0 -4.04252,-0.55024 -5.5121,-1.65071 -1.47031,-1.10591 -2.94025,-2.94113 -4.77786,-5.51209 -3.30737,-4.96205 -6.6151,-8.45342 -10.10594,-11.0295 -3.49139,-2.38582 -7.90157,-3.67138 -13.41422,-3.67138 -7.71756,0 -13.965,3.12115 -18.74231,9.18347 -4.77786,6.06744 -7.16642,14.33578 -7.16642,24.80977 0,4.96206 0.73424,9.55368 1.83724,13.78042 1.2863,4.0416 3.12372,7.53281 5.32918,10.47415 2.38838,2.94118 5.14498,5.14698 8.45217,6.6124 3.30792,1.65614 6.79875,2.3911 10.84128,2.3911 5.14498,0 9.73882,-1.28629 13.41422,-3.6765 3.85851,-2.57096 7.16624,-6.24741 9.92247,-11.20947 1.65433,-2.93606 3.49121,-5.327 5.32845,-6.98262 1.8378,-1.65066 4.04271,-2.38598 6.7993,-2.38598 3.12372,0 5.87977,1.10042 7.90103,3.49136 2.20473,2.57096 3.30774,5.14208 3.30774,7.89812 z m 110.25058,-18.92213 0,34.90836 c 0,5.51742 -1.1023,9.73883 -3.67504,12.49999 -2.57242,2.75625 -5.88016,4.0416 -9.92229,4.0416 -4.04254,0 -7.16624,-1.28629 -9.73882,-4.0416 -2.38896,-2.76116 -3.6754,-6.98257 -3.6754,-12.49999 l 0,-41.89114 c 0,-6.61763 -0.18389,-11.75955 -0.73428,-15.43605 -0.36829,-3.6765 -1.65431,-6.61762 -3.67483,-9.00345 -1.83778,-2.39115 -5.14516,-3.49141 -9.37168,-3.49141 -8.63585,0 -14.3327,2.94118 -16.90507,8.81836 -2.75625,5.88236 -4.22619,14.33563 -4.22619,25.53997 l 0,35.46372 c 0,5.51742 -1.28629,9.55886 -3.67503,12.3149 -2.38893,2.94134 -5.69612,4.22669 -9.73883,4.22669 -4.04252,0 -7.35025,-1.28629 -9.73882,-4.22669 -2.5724,-2.75604 -3.85887,-6.79748 -3.85887,-12.3149 l 0,-75.14921 c 0,-4.96185 1.10227,-8.82349 3.49139,-11.39445 2.20473,-2.5709 5.14498,-3.86158 9.00403,-3.86158 3.4912,0 6.43091,1.28994 9.00348,3.6765 2.38894,2.39094 3.49139,5.69722 3.49139,9.92391 l 0,2.57095 c 4.59366,-5.51208 9.55519,-9.55368 14.70014,-12.12464 5.145,-2.57603 11.02475,-3.86159 17.27273,-3.86159 6.61512,0 12.3114,1.47028 17.08874,4.04161 4.77729,2.57602 8.63636,6.61762 11.76007,11.94462 4.4102,-5.51208 9.18749,-9.3686 14.33264,-11.94462 4.96133,-2.57096 10.65767,-4.04161 16.72145,-4.04161 7.16677,0 13.41423,1.47028 18.55625,4.22669 5.33212,2.94118 9.18864,6.98278 11.76467,12.30978 2.20073,4.59675 3.30628,12.12977 3.30628,22.41878 l 0,51.26486 c 0,5.51742 -1.28629,9.73883 -3.6765,12.49999 -2.57096,2.75625 -5.87724,4.0416 -9.92396,4.0416 -4.04161,0 -7.34768,-1.28629 -9.73883,-4.22669 -2.5709,-2.75604 -3.85631,-6.79748 -3.85631,-12.3149 l 0,-44.28224 c 0,-5.51214 -0.18597,-10.10377 -0.73605,-13.59513 -0.55023,-3.3114 -1.83778,-6.24746 -3.85907,-8.45327 -2.20487,-2.39115 -5.32863,-3.49141 -9.73883,-3.49141 -3.49136,0 -6.79874,1.10047 -9.73877,3.12119 -3.12376,2.02072 -5.51266,4.77677 -7.34992,8.26813 -1.83762,4.41182 -2.94008,12.31485 -2.94008,23.52437 z"
     style="fill:#000000;fill-opacity:1;fill-rule:nonzero;stroke:none" />
  <path
     inkscape:connector-curvature="0"
     id="path3858"
     d="m 743.15028,876.72546 0,-67.80154 c -12.67995,9.55368 -21.31851,14.51574 -25.54504,14.51574 -2.2009,0 -4.0416,-0.92009 -5.6921,-2.5709 -1.65615,-1.65615 -2.39115,-3.49142 -2.39115,-5.69744 0,-2.5709 0.7361,-4.41161 2.39115,-5.69717 1.65066,-1.10047 4.40654,-2.75609 8.44814,-4.59168 6.06745,-2.94118 10.84421,-5.8823 14.52071,-9.0035 3.49137,-3.12626 6.79765,-6.61763 9.55369,-10.47414 2.75604,-3.86159 4.59184,-6.24741 5.51208,-7.16787 0.73606,-0.92009 2.38583,-1.47033 4.77698,-1.47033 2.57091,0 4.77676,1.10591 6.24741,3.12627 1.65614,2.02093 2.39094,4.96205 2.39094,8.44819 l 0,85.62848 c 0,9.92391 -3.31135,14.88581 -10.10905,14.88581 -3.12114,0 -5.51208,-0.92009 -7.34767,-2.94118 -1.84091,-2.02072 -2.75609,-5.14186 -2.75609,-9.18858 z"
     style="fill:#000000;fill-opacity:1;fill-rule:nonzero;stroke:none" />
  <path
     inkscape:connector-curvature="0"
     id="path3860"
     d="m 641.87278,852.96552 c -4.41166,0 -7.90303,-4.0416 -7.90303,-9.18859 0,-4.9619 3.49137,-9.18352 7.90303,-9.18352 z m 0,0 48.69412,0 0,-18.37211 -48.69412,0 z m 48.69412,-18.37211 c 4.41167,0 7.90303,4.22162 7.90303,9.18352 0,5.14699 -3.49136,9.18859 -7.90303,9.18859 z"
     style="fill:#040404;fill-opacity:1;fill-rule:nonzero;stroke:none" />
  <g
     id="g972"
     transform="matrix(1,0,0,-1,2.650942,720.9269)">
    <path
       style="fill:none;stroke:#040404;stroke-width:31.97272682px;stroke-linecap:round;stroke-linejoin:round;stroke-miterlimit:4;stroke-dasharray:none;stroke-opacity:1"
       d="m 97.349058,220.9269 c 87.833232,-20.7641 145.038492,71.72191 150.000002,150 11.57643,179.15727 0.30868,263.62597 60.76269,260.31462 89.23731,-10.31462 21.03153,-420.55068 212.2328,-419.50211 86.7258,10.0555 77.00451,359.18749 106.39372,365.4812 20.61079,-6.29371 10.41265,-360.80235 120.61079,-356.29371 35.62741,1.43786 106.87294,-3.12423 138.84545,-1.46992"
       id="path3862"
       inkscape:connector-curvature="0"
       sodipodi:nodetypes="ccccccc" />
    <path
       style="fill:#040404;fill-opacity:1;fill-rule:nonzero;stroke:none"
       d="m 94.041691,91.74966 -0.736068,0.18389 -0.734239,0.18388 -0.734245,0.36829 -0.550221,0.18388 -0.736068,0.36829 -0.550227,0.36776 -0.552044,0.36829 -0.550227,0.36776 -0.736068,0.36829 -0.368026,0.55024 -0.552044,0.36829 -0.55205,0.55206 -0.368026,0.55201 -0.550227,0.55207 -0.368026,0.55206 -0.368026,0.55202 -0.368026,0.55206 -0.183987,0.73423 -0.368026,0.55206 -0.184039,0.55207 -0.368027,0.73422 -0.184039,0.73423 -0.183987,0.55206 v 0.73422 l -0.184039,0.73428 v 0.73422 l -0.184039,0.55207 v 0.73422 l 0.184039,0.73423 v 0.73427 l 0.184039,0.73423 0.183987,0.73427 0.184039,0.73423 0.18404,0.73422 0.183987,0.55207 0.368026,0.73422 0.184039,0.55207 0.368026,0.73422 0.368026,0.55207 0.368026,0.55206 0.55205,0.55201 0.368026,0.55207 0.550227,0.55207 0.552049,0.36776 0.368027,0.55201 0.552049,0.36829 0.550222,0.36777 0.552049,0.55201 0.736063,0.18388 0.55205,0.36829 0.550226,0.36829 0.734245,0.18388 0.552044,0.18388 0.734245,0.36829 h 0.73424 l 0.552049,0.18388 0.736063,0.18388 h 0.734245 0.73424 0.734244 0.736063 0.734245 l 0.552045,-0.18388 0.73607,-0.18388 -6.431454,-27.93018 z"
       id="path3864"
       inkscape:connector-curvature="0" />
    <path
       style="fill:#040404;fill-opacity:1;fill-rule:nonzero;stroke:none"
       d="m 126.74954,89.36092 -1.83779,-0.18389 h -2.38838 l -2.38893,-0.18388 h -2.38893 -2.38857 l -2.20527,0.18388 h -2.38839 l -2.38893,0.18389 -2.38893,0.36776 -2.38856,0.18388 -2.38893,0.36829 -2.38893,0.55201 -2.388383,0.36777 -2.388926,0.55206 6.431449,27.93034 1.83724,-0.36829 1.65433,-0.36776 1.83761,-0.18388 1.65432,-0.36829 1.65432,-0.18388 1.83761,-0.18389 1.65433,-0.18388 h 1.83761 l 1.65432,-0.18388 h 1.83761 1.65432 l 1.65433,0.18388 h 1.8376 l 1.83725,0.18388 z"
       id="path3866"
       inkscape:connector-curvature="0" />
    <path
       style="fill:#040404;fill-opacity:1;fill-rule:nonzero;stroke:none"
       d="m 124.91175,118.02621 h 0.73606 0.73424 0.73607 l 0.55205,-0.18388 h 0.73424 l 0.73606,-0.18389 0.73425,-0.18388 0.55204,-0.18388 0.73425,-0.36829 0.55204,-0.18388 0.73425,-0.36829 0.55205,-0.36829 0.55022,-0.36776 0.55023,-0.36829 0.55204,-0.36776 0.55023,-0.36829 0.55205,-0.55207 0.55205,-0.55206 0.36803,-0.36777 0.36802,-0.55201 0.55023,-0.55024 0.36802,-0.73422 0.36803,-0.55207 0.18404,-0.55206 0.36803,-0.73422 0.36802,-0.55207 0.18404,-0.73422 0.18399,-0.55207 0.18404,-0.73422 0.18398,-0.73428 v -0.73422 l 0.18404,-0.73423 v -0.73427 -0.73423 l -0.18404,-0.73422 v -0.73428 l -0.18398,-0.73422 v -0.55207 l -0.18404,-0.73422 -0.36803,-0.73422 -0.18404,-0.55207 -0.18398,-0.73422 -0.36803,-0.55207 -0.36803,-0.55206 -0.36802,-0.73423 -0.36803,-0.55206 -0.36802,-0.55202 -0.55205,-0.55023 -0.36803,-0.36829 -0.55204,-0.55207 -0.55023,-0.36776 -0.55205,-0.55207 -0.55205,-0.36828 -0.55023,-0.36829 -0.55204,-0.36777 -0.55023,-0.36828 -0.73607,-0.36777 -0.55022,-0.18388 -0.73424,-0.18388 -0.73606,-0.18389 -0.73425,-0.18388 -0.55023,-0.18388 -0.73606,-0.18388 h -0.73424 l -1.83779,28.66534 z"
       id="path3868"
       inkscape:connector-curvature="0" />
    <path
       style="fill:#040404;fill-opacity:1;fill-rule:nonzero;stroke:none"
       d="m 186.83588,110.67613 -0.55022,-0.55201 -0.73425,-0.18388 -0.55022,-0.36829 -0.73607,-0.18388 -0.55205,-0.36829 -0.73424,-0.18388 -0.73424,-0.18388 h -0.73424 l -0.55205,-0.18389 h -0.73606 -0.73425 -0.73424 -0.55205 -0.73424 l -0.73424,0.18389 -0.73606,0.18388 -0.55023,0.18388 -0.73425,0.18388 -0.55022,0.18389 -0.73607,0.18388 -0.55204,0.36829 -0.55023,0.36776 -0.73424,0.36829 -0.55205,0.36829 -0.55205,0.36776 -0.55022,0.55201 -0.55023,0.36829 -0.36802,0.55207 -0.55205,0.55206 -0.55023,0.55201 -0.36802,0.55207 -0.36803,0.55207 -0.36802,0.73422 -0.36803,0.55206 -0.36803,0.73423 -0.18404,0.73422 -0.18403,0.55207 -0.18404,0.73422 -0.18404,0.73428 -0.18404,0.55206 -0.18399,0.73423 v 0.73422 0.73428 0.55201 0.73428 l 0.18399,0.73422 v 0.73422 l 0.18404,0.55207 0.18404,0.73422 0.18404,0.73428 0.18403,0.55201 0.36803,0.73428 0.18404,0.55018 0.36803,0.55207 0.36802,0.73428 0.36803,0.55201 0.36802,0.55206 0.55023,0.55207 0.36803,0.55201 0.55205,0.36777 0.55022,0.55206 0.55022,0.36829 0.55205,0.55207 0.73607,0.36776 15.06727,-24.2553 z"
       id="path3870"
       inkscape:connector-curvature="0" />
    <path
       style="fill:#040404;fill-opacity:1;fill-rule:nonzero;stroke:none"
       d="m 211.64252,129.05116 -1.4703,-1.28628 -1.8378,-1.65432 -2.02126,-1.47033 -1.83725,-1.65431 -1.83761,-1.47033 -2.02144,-1.47028 -1.83706,-1.47033 -2.02145,-1.47027 -2.02126,-1.28629 -2.02126,-1.47033 -2.02126,-1.28629 -1.83779,-1.28629 -2.02126,-1.10225 -15.06727,24.2553 1.4703,0.91826 1.65432,1.10225 1.65433,1.10231 1.83779,1.28629 1.65432,1.10225 1.65433,1.28629 1.65432,1.28628 1.65432,1.10231 1.65432,1.47027 1.65432,1.28629 1.47031,1.28629 1.65432,1.28629 1.47031,1.28629 z"
       id="path3872"
       inkscape:connector-curvature="0" />
    <path
       style="fill:#040404;fill-opacity:1;fill-rule:nonzero;stroke:none"
       d="m 192.89985,150.7341 0.55022,0.55201 0.73607,0.3662 0.55022,0.36828 0.55205,0.36777 0.73425,0.36829 0.55022,0.36619 0.73607,0.18389 0.55204,0.36619 0.73425,0.18389 h 0.73606 l 0.55205,0.18388 0.73424,0.18388 h 0.73607 0.55022 0.73424 0.73606 0.73425 l 0.55023,-0.18388 0.73606,-0.18388 0.73424,-0.18389 0.55023,-0.18388 0.73606,-0.18388 0.55023,-0.18388 0.73424,-0.3662 0.55205,-0.36777 0.55023,-0.36828 0.73606,-0.36829 0.55022,-0.36777 0.55023,-0.55206 0.55023,-0.36829 0.55205,-0.55206 0.36802,-0.55207 0.55023,-0.55201 0.36803,-0.55024 0.36802,-0.73605 0.36803,-0.55207 0.36802,-0.55206 0.36803,-0.73423 0.18399,-0.73605 0.18404,-0.55024 0.18398,-0.73422 0.18404,-0.55206 0.18404,-0.73423 0.18404,-0.73427 v -0.73606 -0.55206 -0.73423 -0.73422 l -0.18404,-0.73428 v -0.55201 l -0.18404,-0.7361 -0.18404,-0.73423 -0.18398,-0.55206 -0.18404,-0.73606 -0.36803,-0.55023 -0.18404,-0.73423 -0.36802,-0.55206 -0.36803,-0.55201 -0.36803,-0.73428 -0.36802,-0.55201 -0.55023,-0.55207 -0.36803,-0.55206 -0.55204,-0.36829 -0.55023,-0.55024 -18.74285,21.68277 z"
       id="path3874"
       inkscape:connector-curvature="0" />
    <path
       style="fill:#040404;fill-opacity:1;fill-rule:nonzero;stroke:none"
       d="m 251.88373,174.43791 -0.36803,-0.55207 -0.36802,-0.55207 -0.55023,-0.55201 -0.55205,-0.55206 -0.55204,-0.36829 -0.55023,-0.55024 -0.55023,-0.36829 -0.55022,-0.36776 -0.55205,-0.3662 -0.73424,-0.36829 -0.55205,-0.18388 -0.73424,-0.36776 -0.55205,-0.18389 -0.73425,-0.18388 -0.55022,-0.18388 -0.73424,-0.18388 h -0.73606 l -0.55023,-0.18389 h -0.73425 -0.73606 -0.73424 l -0.55205,0.18389 h -0.73607 l -0.73424,0.18388 -0.73606,0.18388 -0.55022,0.18388 -0.73425,0.18389 -0.73606,0.36776 -0.55023,0.18388 -0.73424,0.36829 -0.55205,0.3662 -0.55205,0.36776 -0.73606,0.55207 -0.55023,0.36829 -0.55022,0.55206 -0.36803,0.55202 -0.55023,0.55206 -0.36802,0.55207 -0.55205,0.55201 -0.36803,0.55206 -0.36802,0.55207 -0.18404,0.55201 -0.36803,0.73428 -0.18404,0.55018 -0.36803,0.73611 -0.18403,0.55201 -0.18404,0.73428 v 0.73605 l -0.18399,0.73422 v 0.55207 0.73422 l -0.18404,0.73611 0.18404,0.55201 v 0.73428 0.73605 l 0.18399,0.73422 0.18404,0.55024 0.18403,0.73605 0.18404,0.73423 0.36803,0.55206 0.36803,0.73605 0.18404,0.55207 0.36802,0.73422 0.55023,0.55207 23.33615,-16.53741 z"
       id="path3876"
       inkscape:connector-curvature="0" />
    <path
       style="fill:#040404;fill-opacity:1;fill-rule:nonzero;stroke:none"
       d="m 267.87054,200.347 -0.91826,-1.65432 -1.10228,-2.20492 -1.28629,-2.02124 -1.28629,-2.20492 -1.10227,-2.02129 -1.28629,-2.20492 -1.28629,-2.02125 -1.47031,-2.02124 -1.28629,-2.20549 -1.28629,-2.02125 -1.47031,-2.02124 -1.28629,-2.02073 -0.91825,-1.28628 -23.33615,16.5374 0.55204,0.91821 1.28629,1.83784 1.2863,1.8372 1.10227,1.83762 1.28629,1.83778 1.10227,1.83726 1.10228,2.0213 1.10227,1.83757 1.28629,1.83726 1.10228,1.83778 0.91825,2.02129 1.10228,1.83721 0.91826,1.65437 z"
       id="path3878"
       inkscape:connector-curvature="0" />
    <path
       style="fill:#040404;fill-opacity:1;fill-rule:nonzero;stroke:none"
       d="m 242.69678,214.12831 0.36802,0.55024 0.36803,0.73427 0.36803,0.55202 0.55022,0.55206 0.36803,0.55207 0.55205,0.36829 0.55023,0.55201 0.55022,0.36829 0.55205,0.55201 0.55022,0.36829 0.55205,0.36619 0.73425,0.36777 0.55022,0.18388 0.55205,0.36829 0.73424,0.18388 0.55023,0.18388 0.73424,0.18389 0.73606,0.18388 0.55023,0.18388 h 0.73424 0.73607 0.73424 0.55205 0.73606 l 0.73424,-0.18388 h 0.73607 l 0.73424,-0.18388 0.55023,-0.18389 0.73606,-0.18388 0.73424,-0.36776 0.55023,-0.18389 0.73606,-0.36776 0.55023,-0.36829 0.73424,-0.55206 0.55205,-0.36777 0.55023,-0.36829 0.55022,-0.55206 0.55205,-0.55201 0.36803,-0.36829 0.55204,-0.55207 0.36803,-0.55206 0.36803,-0.55202 0.36802,-0.73427 0.36803,-0.55202 0.18404,-0.55023 0.36802,-0.73605 0.18399,-0.55207 0.18404,-0.73422 0.18399,-0.73428 0.18404,-0.55201 0.18403,-0.73428 v -0.73605 -0.55207 -0.73422 -0.73422 -0.73611 l -0.18403,-0.73422 v -0.55207 l -0.18404,-0.73605 -0.18399,-0.73422 -0.18404,-0.55207 -0.36803,-0.73605 -0.18404,-0.73423 -0.36802,-0.55206 -25.17394,13.78152 z"
       id="path3880"
       inkscape:connector-curvature="0" />
    <path
       style="fill:#040404;fill-opacity:1;fill-rule:nonzero;stroke:none"
       d="m 289.73656,257.49328 -0.18399,-0.73427 -0.18404,-0.73605 -0.18398,-0.73423 -0.36803,-0.55024 -0.36803,-0.73422 -0.18404,-0.55206 -0.36802,-0.55207 -0.55205,-0.73422 -0.36803,-0.55207 -0.36802,-0.55201 -0.55205,-0.36829 -0.36803,-0.55201 -0.55205,-0.36829 -0.55205,-0.55207 -0.55022,-0.36828 -0.55023,-0.36777 -0.73424,-0.36829 -0.55023,-0.36776 -0.55022,-0.18388 -0.73607,-0.36777 -0.55022,-0.18388 -0.73424,-0.18388 -0.55023,-0.18388 -0.73607,-0.18389 -0.73424,-0.18388 h -0.73606 -0.73424 -0.55023 -0.73606 -0.73425 l -0.73606,0.18388 -0.73424,0.18389 -0.73425,0.18388 -0.73606,0.18388 -0.73424,0.18388 -0.55023,0.36777 -0.73606,0.18388 -0.55023,0.36776 -0.55023,0.36829 -0.73424,0.36777 -0.55205,0.55206 -0.36802,0.36829 -0.55023,0.55201 -0.55205,0.36777 -0.36802,0.55206 -0.55023,0.55207 -0.36803,0.55024 -0.36802,0.55201 -0.36803,0.55206 -0.36802,0.73606 -0.18404,0.55023 -0.36803,0.55207 -0.18404,0.73422 -0.18399,0.73606 -0.18404,0.55206 -0.18398,0.73422 -0.18404,0.73606 v 0.73427 0.55024 0.73605 0.73423 0.73605 l 0.18404,0.73427 0.18398,0.73606 27.93,-6.24799 z"
       id="path3882"
       inkscape:connector-curvature="0" />
    <path
       style="fill:#040404;fill-opacity:1;fill-rule:nonzero;stroke:none"
       d="m 293.0443,280.095 v 0 l -0.18404,-2.02124 -0.18399,-2.20529 -0.18404,-2.02129 -0.18404,-2.02146 -0.36802,-2.20471 -0.18399,-2.02124 -0.36803,-2.20492 -0.36802,-2.02124 -0.55205,-2.20492 -0.36802,-2.0213 -0.36803,-1.65431 -27.92981,6.24798 0.18399,1.28629 0.36802,1.83778 0.36803,1.65436 0.36803,1.65432 0.18398,1.83757 0.36803,1.65437 0.18404,1.65431 0.18404,1.65432 0.18404,1.65431 0.18404,1.65432 v 1.65432 0 z"
       id="path3884"
       inkscape:connector-curvature="0" />
    <path
       style="fill:#040404;fill-opacity:1;fill-rule:nonzero;stroke:none"
       d="m 293.59562,288.17967 -28.66515,1.83778 -0.55023,-8.08519 28.66515,-1.83726 z"
       id="path3886"
       inkscape:connector-curvature="0" />
    <path
       style="fill:#040404;fill-opacity:1;fill-rule:nonzero;stroke:none"
       d="m 264.93047,290.01745 v 0.73427 l 0.18404,0.73605 0.18398,0.55207 0.18404,0.73422 0.18404,0.73606 0.18399,0.73427 0.18404,0.55019 0.36803,0.7361 0.36802,0.55201 0.36803,0.55024 0.36802,0.55207 0.36803,0.55201 0.36803,0.55206 0.55205,0.55207 0.55022,0.55201 0.36803,0.36829 0.55022,0.55201 0.55023,0.36777 0.55205,0.36829 0.73424,0.36828 0.55023,0.36777 0.55205,0.36829 0.73606,0.18388 0.55023,0.18388 0.73424,0.36829 0.73606,0.18388 h 0.55023 l 0.73424,0.18388 h 0.73424 l 0.73607,0.18388 h 0.73424 0.73606 l 0.73425,-0.18388 h 0.73606 l 0.73424,-0.18388 0.73607,-0.18388 0.55023,-0.18388 0.73424,-0.18389 0.55022,-0.36776 0.73607,-0.36829 0.55205,-0.18388 0.55022,-0.36829 0.73424,-0.36776 0.55023,-0.55207 0.55205,-0.36829 0.36802,-0.36619 0.55023,-0.55207 0.55205,-0.55207 0.36803,-0.55201 0.36802,-0.55206 0.36803,-0.55207 0.36802,-0.55201 0.36803,-0.55207 0.36803,-0.73422 0.18398,-0.55207 0.36803,-0.73605 0.18404,-0.55206 0.18399,-0.73423 0.18404,-0.73605 v -0.73428 l 0.18403,-0.73605 v -0.55206 -0.73423 -0.73605 l -28.66533,1.83778 z"
       id="path3888"
       inkscape:connector-curvature="0" />
    <path
       style="fill:#040404;fill-opacity:1;fill-rule:nonzero;stroke:none"
       d="m 295.98455,345.87781 v -0.73423 -0.73605 l -0.18404,-0.73428 -0.18404,-0.55201 -0.18404,-0.7361 -0.18404,-0.73423 -0.18399,-0.55206 -0.36802,-0.73605 -0.18404,-0.55207 -0.36803,-0.73422 -0.36803,-0.55207 -0.36802,-0.55201 -0.36803,-0.55024 -0.55022,-0.55206 -0.36802,-0.55202 -0.55023,-0.3662 -0.55022,-0.55201 -0.55205,-0.36829 -0.55023,-0.36828 -0.55205,-0.36829 -0.55022,-0.36777 -0.55023,-0.36828 -0.73606,-0.36829 -0.55023,-0.18388 -0.73424,-0.18389 -0.73607,-0.36828 -0.55022,-0.18388 h -0.73424 l -0.73607,-0.18389 h -0.73424 -0.73606 -0.73425 -0.73606 -0.73425 l -0.73424,0.18389 -0.73606,0.18388 -0.55023,0.18388 -0.73424,0.18388 -0.73606,0.18388 -0.55205,0.36829 -0.73424,0.18388 -0.55023,0.36829 -0.55023,0.36777 -0.55205,0.36828 -0.55022,0.36829 -0.55205,0.55201 -0.55205,0.36829 -0.36802,0.55207 -0.55205,0.55023 -0.36803,0.55202 -0.55022,0.55023 -0.36803,0.55207 -0.36803,0.55207 -0.18404,0.55201 -0.36802,0.73605 -0.18404,0.55207 -0.36803,0.73422 -0.18404,0.7361 -0.18404,0.55202 -0.18398,0.73427 v 0.73606 l -0.18404,0.73422 v 0.73428 0.73605 l 28.66514,-0.91826 z"
       id="path3890"
       inkscape:connector-curvature="0" />
    <path
       style="fill:#040404;fill-opacity:1;fill-rule:nonzero;stroke:none"
       d="m 296.71933,374.9106 -0.18403,-5.32914 v -6.43092 l -0.18399,-6.79875 -0.18404,-6.7991 -0.18404,-3.67488 -28.66514,0.91826 0.18404,3.49121 0.18404,6.61512 v 6.79874 l 0.18398,6.43145 v 5.145 z"
       id="path3892"
       inkscape:connector-curvature="0" />
    <path
       style="fill:#040404;fill-opacity:1;fill-rule:nonzero;stroke:none"
       d="m 267.87054,375.27832 0.18403,0.73422 v 0.73422 0.73606 l 0.18399,0.73427 0.18404,0.55024 0.18399,0.73605 0.36802,0.73423 0.18399,0.55206 0.36803,0.73605 0.18404,0.55207 0.36802,0.55024 0.36803,0.55201 0.55205,0.55206 0.36802,0.55207 0.36803,0.55201 0.55023,0.55207 0.55205,0.36776 0.55022,0.55024 0.55205,0.36829 0.55022,0.36829 0.55023,0.36619 0.55023,0.36829 0.73424,0.36829 0.55023,0.18388 0.73606,0.18388 0.55023,0.36829 0.73424,0.18388 h 0.73606 l 0.73424,0.18388 h 0.73607 l 0.73424,0.18389 h 0.73424 0.73607 l 0.73424,-0.18389 h 0.55023 l 0.73606,-0.18388 0.73424,-0.18388 0.73607,-0.18388 0.55022,-0.18389 0.73425,-0.36619 0.55022,-0.18389 0.73607,-0.36776 0.55022,-0.36829 0.55023,-0.36829 0.55204,-0.36828 0.55023,-0.55202 0.55023,-0.36828 0.36802,-0.55024 0.55022,-0.55207 0.36803,-0.55206 0.55023,-0.55201 0.36802,-0.55207 0.36803,-0.55024 0.36803,-0.55201 0.18404,-0.55206 0.36802,-0.73423 0.18404,-0.7361 0.18404,-0.55202 0.18399,-0.73427 0.18404,-0.73605 0.18398,-0.73423 v -0.55024 -0.73605 l 0.18404,-0.73427 -28.84879,0.36828 z"
       id="path3894"
       inkscape:connector-curvature="0" />
    <path
       style="fill:#040404;fill-opacity:1;fill-rule:nonzero;stroke:none"
       d="m 297.087,432.24093 v -0.73428 -0.73605 l -0.18404,-0.73422 v -0.55207 l -0.18404,-0.73605 -0.18404,-0.73422 -0.36802,-0.55207 -0.18399,-0.73605 -0.36803,-0.55207 -0.18404,-0.73422 -0.36802,-0.55024 -0.36803,-0.55206 -0.55022,-0.55202 -0.36803,-0.55023 -0.36803,-0.55207 -0.55204,-0.55206 -0.55205,-0.36777 -0.55205,-0.55201 -0.55023,-0.36777 -0.55022,-0.36829 -0.55023,-0.36828 -0.55204,-0.3662 -0.73425,-0.36777 -0.55023,-0.18388 -0.73606,-0.3662 -0.55023,-0.18388 -0.73424,-0.18388 -0.73606,-0.18388 h -0.73424 l -0.55023,-0.18389 h -0.73606 -0.73425 -0.73606 -0.73424 l -0.73607,0.18389 -0.73424,0.18388 h -0.73424 l -0.73606,0.36829 -0.55023,0.18388 -0.73425,0.18388 -0.55022,0.36829 -0.73606,0.36776 -0.55023,0.36829 -0.55023,0.3662 -0.55022,0.36829 -0.55205,0.36776 -0.55023,0.55207 -0.36802,0.36828 -0.55023,0.55207 -0.36802,0.55201 -0.55023,0.55207 -0.36802,0.55023 -0.36803,0.55202 -0.36802,0.55206 -0.18399,0.73423 -0.36803,0.55206 -0.18398,0.73423 -0.36803,0.55206 -0.18404,0.73423 v 0.7361 l -0.18399,0.73422 -0.18404,0.73606 v 0.73427 0.73605 l 28.66515,-0.36776 z"
       id="path3896"
       inkscape:connector-curvature="0" />
    <path
       style="fill:#040404;fill-opacity:1;fill-rule:nonzero;stroke:none"
       d="m 297.82179,460.53856 -0.18399,-3.67504 -0.18404,-3.8585 v -4.04249 l -0.18398,-4.22673 v -4.22617 l -0.18404,-4.59366 v -3.67504 l -28.66515,0.36829 v 3.67503 l 0.18404,4.59367 v 4.59382 l 0.18399,4.40963 v 4.22674 l 0.18403,4.04254 0.18404,3.49084 z"
       id="path3898"
       inkscape:connector-curvature="0" />
    <path
       style="fill:#040404;fill-opacity:1;fill-rule:nonzero;stroke:none"
       d="m 269.15646,461.64086 v 0.73606 l 0.18399,0.73422 0.18404,0.7361 v 0.73423 l 0.18399,0.73605 0.36802,0.55207 0.18404,0.73422 0.36803,0.55207 0.18404,0.73605 0.36802,0.55206 0.36803,0.55202 0.36803,0.55206 0.55022,0.55024 0.36803,0.55206 0.55023,0.55202 0.36802,0.55206 0.55023,0.36829 0.55022,0.36776 0.55023,0.55207 0.55205,0.36829 0.73424,0.18388 0.55205,0.3662 0.55023,0.36776 0.73606,0.18389 0.55023,0.18388 0.73424,0.36776 h 0.73424 l 0.73606,0.18388 0.73425,0.18389 h 0.55205 0.73606 0.73424 0.73607 l 0.73424,-0.18389 h 0.73607 l 0.73423,-0.18388 0.73607,-0.18388 0.55205,-0.18388 0.73424,-0.36829 0.73424,-0.18388 0.55205,-0.36829 0.55023,-0.36776 0.55204,-0.36829 0.55205,-0.36777 0.55023,-0.36828 0.55023,-0.55207 0.55022,-0.36776 0.55205,-0.55207 0.36803,-0.55201 0.36802,-0.55207 0.55205,-0.55206 0.36803,-0.55024 0.36803,-0.55201 0.18398,-0.73428 0.36803,-0.55201 0.18399,-0.73428 0.36802,-0.55201 0.18404,-0.73428 0.18399,-0.73605 v -0.55024 l 0.18404,-0.73422 v -0.73605 -0.73428 -0.73605 l -28.66515,1.1023 z"
       id="path3900"
       inkscape:connector-curvature="0" />
    <path
       style="fill:#040404;fill-opacity:1;fill-rule:nonzero;stroke:none"
       d="m 308.84708,502.80139 -0.55022,-0.36829 -0.73607,-0.36776 -0.55022,-0.36829 -0.73425,-0.36777 -0.55022,-0.36828 -0.73607,-0.18389 -0.55022,-0.18388 -0.73424,-0.18388 -0.73607,-0.18388 -0.55023,-0.18389 h -0.73424 l -0.73606,-0.18388 h -0.73424 -0.55023 -0.73606 l -0.73425,0.18388 h -0.73424 l -0.55205,0.18389 -0.73424,0.18388 -0.55022,0.18388 -0.73425,0.18388 -0.73606,0.36777 -0.55205,0.18388 -0.55023,0.36777 -0.73606,0.36828 -0.55205,0.36777 -0.55023,0.55206 -0.55022,0.36829 -0.55022,0.55024 -0.55205,0.36776 -0.36803,0.55207 -0.55023,0.55024 -0.36802,0.73422 -0.36803,0.55207 -0.36802,0.55201 -0.36803,0.73605 -0.36803,0.55207 -0.18404,0.73422 -0.18398,0.7361 -0.18404,0.55202 -0.18399,0.73427 -0.18404,0.73606 -0.18399,0.55206 v 0.73423 0.73605 0.73427 0.55202 l 0.18399,0.73605 v 0.73428 l 0.18404,0.73605 0.18399,0.55206 0.18404,0.73423 0.18398,0.55023 0.36803,0.73606 0.18399,0.55206 0.36802,0.73423 0.36803,0.55206 0.36803,0.55201 0.36802,0.55207 0.55023,0.55206 0.36802,0.55202 0.55205,0.55206 0.55023,0.3662 0.55022,0.55207 17.6404,-22.78482 z"
       id="path3902"
       inkscape:connector-curvature="0" />
    <path
       style="fill:#040404;fill-opacity:1;fill-rule:nonzero;stroke:none"
       d="m 313.07326,513.09155 11.94355,-7.71753 -1.10228,0.18388 h -1.10227 -1.10227 -1.10228 -0.91826 l -0.91825,-0.18388 h -0.91826 -0.91826 l -0.73606,-0.18388 -0.73425,-0.18388 h -0.73606 l -0.73424,-0.18389 -0.73607,-0.18388 -0.55204,-0.18388 -0.55023,-0.18388 -0.55023,-0.18389 h -0.55022 l -0.36803,-0.18388 -0.55023,-0.36776 -0.36802,-0.18389 -0.36803,-0.18388 -0.36802,-0.18388 -0.36803,-0.18388 -0.36803,-0.18389 0.55023,0.18389 -17.6404,22.78481 0.55023,0.36829 1.10227,0.73605 1.28629,0.91826 1.28629,0.73611 1.2863,0.73422 1.4703,0.55207 1.28629,0.55201 1.47031,0.55207 1.28629,0.55206 1.4703,0.55201 1.47031,0.36777 1.47031,0.36829 1.28629,0.36828 1.4703,0.18389 1.65433,0.36776 1.4703,0.18388 1.47031,0.18389 1.47031,0.18388 h 1.65432 l 1.47031,0.18388 h 1.4703 1.65432 1.65432 1.65433 l 1.4703,-0.18388 12.12776,-7.71737 z"
       id="path3904"
       inkscape:connector-curvature="0" />
    <path
       style="fill:#040404;fill-opacity:1;fill-rule:nonzero;stroke:none"
       d="m 326.48694,534.03916 h 0.73606 l 0.73424,-0.18389 h 0.73607 l 0.73423,-0.18388 0.73425,-0.18388 0.55205,-0.36829 0.73424,-0.18388 0.55023,-0.36829 0.73606,-0.18388 0.55022,-0.36777 0.55023,-0.36828 0.55023,-0.3662 0.55022,-0.55201 0.55205,-0.3662 0.55205,-0.55201 0.36803,-0.55207 0.55023,-0.36829 0.36802,-0.55206 0.36803,-0.55202 0.36802,-0.7361 0.36803,-0.55201 0.36803,-0.55207 0.18404,-0.73422 0.36802,-0.55207 0.18404,-0.73605 0.18399,-0.55024 0.18404,-0.73422 0.18398,-0.73611 v -0.73422 -0.73605 -0.73428 -0.73605 -0.73422 -0.73428 l -0.18398,-0.73605 -0.18404,-0.55202 -0.18399,-0.73427 -0.18404,-0.73605 -0.36802,-0.55024 -0.18404,-0.73423 -0.36803,-0.55206 -0.36803,-0.55201 -0.36802,-0.73611 -0.36803,-0.55201 -0.55205,-0.55207 -0.36802,-0.36828 -0.55023,-0.55207 -0.36803,-0.55207 -0.55205,-0.36776 -0.55205,-0.55018 -0.55022,-0.36829 -0.55022,-0.36829 -0.73607,-0.36776 -0.55023,-0.18389 -0.55204,-0.36828 -0.73425,-0.18389 -0.73606,-0.18388 -0.55205,-0.18388 -0.73424,-0.18388 -0.73607,-0.18389 h -0.73424 l -0.73606,-0.18388 h -0.73424 -0.73607 l 1.47031,28.66514 z"
       id="path3906"
       inkscape:connector-curvature="0" />
    <path
       style="fill:#040404;fill-opacity:1;fill-rule:nonzero;stroke:none"
       d="m 313.80841,511.8051 -0.36803,0.55201 -0.36802,0.73428 25.54161,13.23003 0.55023,-1.28629 0.36802,-0.55206 z"
       id="path3908"
       inkscape:connector-curvature="0" />
    <path
       style="fill:#040404;fill-opacity:1;fill-rule:nonzero;stroke:none"
       d="m 339.53349,524.48395 0.18404,-0.73422 0.36803,-0.55207 0.18404,-0.73605 0.18403,-0.73422 0.18399,-0.73611 0.18404,-0.55018 v -0.73428 l 0.18399,-0.73605 v -0.73422 -0.55207 -0.73422 l -0.18399,-0.73605 v -0.73428 l -0.18404,-0.55207 -0.18399,-0.73605 -0.18403,-0.73422 -0.36803,-0.55024 -0.18404,-0.73605 -0.36803,-0.55024 -0.18398,-0.55206 -0.36803,-0.55202 -0.36803,-0.73427 -0.55022,-0.55202 -0.36802,-0.55206 -0.55023,-0.36777 -0.36803,-0.55023 -0.55022,-0.55207 -0.55023,-0.3662 -0.55204,-0.36828 -0.73607,-0.55024 -0.55022,-0.36829 -0.73425,-0.36776 -0.55022,-0.18389 -0.73607,-0.36828 -0.73424,-0.18389 -0.55023,-0.18388 -0.73606,-0.18388 -0.73424,-0.18388 h -0.73424 l -0.73607,-0.18389 h -0.55022 -0.73425 l -0.73606,0.18389 h -0.73424 l -0.55205,0.18388 h -0.73606 l -0.73425,0.18388 -0.55205,0.18388 -0.73606,0.36777 -0.55023,0.18388 -0.73424,0.36777 -0.55022,0.36828 -0.55023,0.18389 -0.55205,0.55206 -0.55023,0.36777 -0.55022,0.36828 -0.55205,0.55207 -0.55022,0.36776 -0.36803,0.55024 -0.55023,0.55201 -0.36802,0.55207 -0.36803,0.73428 -0.36802,0.55201 -0.36803,0.73428 25.72508,12.67885 z"
       id="path3910"
       inkscape:connector-curvature="0" />
    <path
       style="fill:#040404;fill-opacity:1;fill-rule:nonzero;stroke:none"
       d="m 323.73089,461.08974 v 0.73605 0.73423 0.73605 l 0.18398,0.73427 v 0.73606 l 0.18404,0.55206 0.18399,0.73423 0.18404,0.73422 0.18399,0.55206 0.36802,0.73423 0.18399,0.55206 0.36803,0.55207 0.36802,0.73605 0.36803,0.55207 0.36802,0.55201 0.55023,0.55207 0.36803,0.55023 0.55204,0.36829 0.55023,0.55024 0.36802,0.36776 0.55022,0.36829 0.73607,0.55201 0.55023,0.36829 0.55204,0.18388 0.73425,0.36829 0.55205,0.36829 0.73424,0.18388 0.55205,0.18388 0.73424,0.18388 0.73607,0.18389 h 0.73423 l 0.73607,0.18388 h 0.73424 0.73607 0.73424 0.73606 l 0.73424,-0.18388 0.55023,-0.18389 0.73424,-0.18388 0.73607,-0.18388 0.55022,-0.18388 0.73425,-0.36829 0.55204,-0.18388 0.73607,-0.36829 0.55023,-0.36829 0.55022,-0.36829 0.55022,-0.36828 0.55023,-0.55202 0.55205,-0.36828 0.36803,-0.55202 0.55022,-0.36776 0.36803,-0.55207 0.36803,-0.55023 0.55022,-0.55202 0.36803,-0.73427 0.18404,-0.55202 0.36802,-0.55206 0.36803,-0.73423 0.18404,-0.7361 0.18399,-0.55201 0.18404,-0.73428 0.18403,-0.73422 0.18399,-0.73606 v -0.73427 l -28.66515,-2.20544 z"
       id="path3912"
       inkscape:connector-curvature="0" />
    <path
       style="fill:#040404;fill-opacity:1;fill-rule:nonzero;stroke:none"
       d="m 325.20101,433.15971 v 0 3.85851 l -0.18399,3.85907 -0.18404,3.67504 -0.18404,3.67483 -0.18404,3.67488 -0.36802,3.67556 -0.18404,3.49084 -0.18399,2.0213 28.66515,2.20523 0.18404,-2.20523 0.18403,-3.67488 0.3662,-3.8585 0.18404,-3.85908 0.18399,-3.8585 0.18404,-3.85903 0.18398,-3.85907 v -4.04197 0 z"
       id="path3914"
       inkscape:connector-curvature="0" />
    <path
       style="fill:#040404;fill-opacity:1;fill-rule:nonzero;stroke:none"
       d="m 353.86615,434.07871 v -0.73605 -0.73428 -0.73605 l -0.18398,-0.73423 v -0.73605 l -0.18404,-0.73427 -0.36803,-0.55202 -0.18404,-0.7361 -0.18399,-0.55201 -0.36802,-0.73428 -0.36803,-0.55201 -0.36802,-0.55207 -0.36803,-0.55206 -0.36803,-0.73606 -0.36802,-0.36828 -0.55205,-0.55207 -0.3662,-0.55201 -0.55205,-0.3662 -0.55023,-0.55201 -0.55204,-0.36829 -0.55205,-0.36777 -0.55023,-0.36828 -0.73424,-0.3662 -0.55205,-0.36777 -0.55022,-0.18388 -0.73607,-0.36776 -0.73424,-0.18389 -0.55023,-0.18388 -0.73606,-0.18388 h -0.73424 l -0.73607,-0.18388 h -0.73424 -0.73606 -0.73424 l -0.73425,0.18388 h -0.73606 l -0.73425,0.18388 -0.55022,0.18388 -0.73607,0.18389 -0.73424,0.18388 -0.55022,0.36829 -0.73607,0.18388 -0.55023,0.36829 -0.55204,0.36776 -0.55023,0.3662 -0.55205,0.36829 -0.55022,0.55023 -0.55023,0.36777 -0.55023,0.55206 -0.36802,0.55202 -0.55023,0.36828 -0.36803,0.55202 -0.36802,0.55206 -0.36803,0.73423 -0.36802,0.55206 -0.36803,0.55207 -0.18404,0.73422 -0.18404,0.55024 -0.36802,0.73605 -0.18399,0.73422 v 0.73428 l -0.18404,0.73605 v 0.73423 l -0.18399,0.73605 28.66514,0.91826 z"
       id="path3916"
       inkscape:connector-curvature="0" />
    <path
       style="fill:#040404;fill-opacity:1;fill-rule:nonzero;stroke:none"
       d="m 326.48694,375.82944 v 0.73423 0.73605 l 0.18398,0.73427 v 0.73423 l 0.18404,0.73605 0.18404,0.73428 0.18399,0.55201 0.36802,0.7361 0.18404,0.55202 0.36803,0.73427 0.36803,0.55202 0.36802,0.55206 0.36803,0.55207 0.36802,0.55201 0.36803,0.55207 0.55023,0.55206 0.55022,0.55201 0.36803,0.36777 0.55023,0.55206 0.55022,0.3662 0.55023,0.36777 0.73606,0.36828 0.55023,0.36829 0.55204,0.18388 0.73425,0.36777 0.73606,0.18388 0.55205,0.18388 0.73424,0.18389 0.73607,0.18388 h 0.73424 l 0.73606,0.18388 h 0.73424 0.73425 0.73606 l 0.73424,-0.18388 h 0.55205 l 0.73606,-0.18388 0.73425,-0.18389 0.73606,-0.18388 0.55205,-0.36829 0.73424,-0.18388 0.55023,-0.36829 0.55205,-0.36776 0.73606,-0.3662 0.55205,-0.36829 0.55023,-0.36828 0.55022,-0.36829 0.36803,-0.55201 0.55022,-0.36777 0.55023,-0.55206 0.36803,-0.55207 0.36802,-0.55201 0.36803,-0.55207 0.36803,-0.73422 0.36802,-0.55024 0.36803,-0.55206 0.18399,-0.73606 0.18403,-0.55023 0.18399,-0.73423 0.18404,-0.73427 0.18404,-0.73606 0.18399,-0.73422 v -0.73605 -0.73428 l -28.66515,-0.55023 z"
       id="path3918"
       inkscape:connector-curvature="0" />
    <path
       style="fill:#040404;fill-opacity:1;fill-rule:nonzero;stroke:none"
       d="m 327.22227,346.98011 v 0.18388 l -0.18404,9.00366 -0.36802,9.00403 -0.18404,9.0035 v 1.65431 l 28.66514,0.55207 v -1.47033 l 0.36803,-9.00402 0.18404,-8.81999 0.36803,-9.00408 v 0 z"
       id="path3920"
       inkscape:connector-curvature="0" />
    <path
       style="fill:#040404;fill-opacity:1;fill-rule:nonzero;stroke:none"
       d="m 356.07107,348.08257 v -0.91826 l -0.18399,-0.55207 v -0.73605 l -0.18404,-0.73428 v -0.73605 l -0.18399,-0.73422 -0.18404,-0.55207 -0.36802,-0.73605 -0.18404,-0.73423 -0.36803,-0.55206 -0.18398,-0.55207 -0.36803,-0.73605 -0.36803,-0.55206 -0.55022,-0.55019 -0.36803,-0.55206 -0.36803,-0.36829 -0.55205,-0.55207 -0.55022,-0.55206 -0.55205,-0.36777 -0.55205,-0.36828 -0.55022,-0.55207 -0.55023,-0.18388 -0.55023,-0.3662 -0.73424,-0.36777 -0.55022,-0.36828 -0.73607,-0.18389 -0.55022,-0.18388 -0.73425,-0.18388 -0.73606,-0.18388 -0.73424,-0.18389 h -0.73607 -0.73424 -0.73606 -0.73424 -0.73425 l -0.73606,0.18389 -0.55023,0.18388 -0.73424,0.18388 -0.73607,0.18388 -0.55022,0.18389 -0.73424,0.18388 -0.55205,0.3662 -0.73606,0.36828 -0.55205,0.36777 -0.55205,0.36829 -0.55023,0.36828 -0.55023,0.36777 -0.55204,0.55206 -0.36803,0.36829 -0.55205,0.55202 -0.36802,0.55206 -0.55023,0.55207 -0.36803,0.55018 -0.36802,0.55207 -0.36803,0.73422 -0.18404,0.55207 -0.36802,0.73422 -0.18404,0.55206 -0.18399,0.73423 -0.18404,0.7361 -0.18404,0.55202 -0.18398,0.73427 v 0.73605 l -0.18404,0.73423 28.84861,1.1023 z"
       id="path3922"
       inkscape:connector-curvature="0" />
    <path
       style="fill:#040404;fill-opacity:1;fill-rule:nonzero;stroke:none"
       d="m 331.08078,288.91499 -0.18404,0.73427 v 0.73605 l 0.18404,0.73423 v 0.7361 0.55202 l 0.18399,0.73427 0.18404,0.73423 0.18398,0.73605 0.18404,0.55206 0.36803,0.73423 0.18404,0.55206 0.36802,0.55207 0.36803,0.73422 0.36803,0.55207 0.36802,0.55201 0.36803,0.55207 0.55022,0.55206 0.36803,0.36829 0.55023,0.55201 0.55022,0.36777 0.55023,0.55023 0.55205,0.36829 0.55205,0.3662 0.55022,0.36829 0.73425,0.36776 0.55022,0.18388 0.73606,0.36829 0.55023,0.18388 0.73425,0.18389 0.73606,0.18388 h 0.73424 l 0.73424,0.18388 h 0.73607 0.73424 0.73606 0.73425 l 0.73606,-0.18388 h 0.55205 l 0.73424,-0.18388 0.73606,-0.18389 0.55023,-0.18388 0.73424,-0.36829 0.55023,-0.18388 0.73606,-0.36776 0.55205,-0.36829 0.55023,-0.3662 0.55023,-0.36829 0.55022,-0.36776 0.55022,-0.55024 0.55205,-0.36829 0.36803,-0.55023 0.55023,-0.55202 0.36802,-0.55206 0.36803,-0.55207 0.36802,-0.55201 0.36803,-0.73428 0.36803,-0.55201 0.18404,-0.55206 0.36802,-0.73423 0.18404,-0.73427 0.18404,-0.55202 0.18399,-0.73427 0.18404,-0.73423 v -0.73605 l -28.48168,-2.75604 z"
       id="path3924"
       inkscape:connector-curvature="0" />
    <path
       style="fill:#040404;fill-opacity:1;fill-rule:nonzero;stroke:none"
       d="m 334.75563,259.69857 -0.55022,4.0427 -0.73425,4.59366 -0.55022,4.59383 -0.55023,4.59382 -0.55205,4.77734 -0.55022,4.59382 -0.18404,2.02125 28.48168,2.75609 0.18398,-1.83726 0.55023,-4.4102 0.55205,-4.4102 0.55205,-4.40984 0.55023,-4.41015 0.55022,-4.22621 0.55205,-4.04249 z"
       id="path3926"
       inkscape:connector-curvature="0" />
    <path
       style="fill:#040404;fill-opacity:1;fill-rule:nonzero;stroke:none"
       d="m 363.05366,263.92473 0.18404,-0.73428 v -0.73605 -0.73422 -0.73428 -0.73422 l -0.18404,-0.73605 v -0.55207 l -0.18404,-0.73422 -0.18404,-0.73423 -0.36803,-0.55206 -0.18398,-0.73423 -0.18404,-0.55206 -0.36803,-0.73605 -0.36802,-0.55207 -0.36803,-0.55207 -0.36803,-0.55023 -0.36802,-0.55202 -0.55205,-0.55206 -0.55023,-0.55207 -0.36803,-0.36776 -0.55205,-0.55201 -0.55204,-0.36829 -0.55023,-0.36829 -0.55023,-0.36829 -0.73606,-0.36828 -0.55023,-0.36777 -0.73424,-0.36829 -0.55022,-0.18388 -0.73607,-0.18388 -0.73424,-0.18388 -0.73606,-0.18389 -0.55023,-0.18388 h -0.73425 l -0.73423,-0.18388 h -0.73607 -0.73424 l -0.73606,0.18388 h -0.73425 l -0.73606,0.18388 -0.55023,0.18389 -0.73424,0.18388 -0.73607,0.18388 -0.55205,0.18388 -0.73424,0.36829 -0.55022,0.36777 -0.55205,0.36828 -0.55205,0.36829 -0.55022,0.36829 -0.55023,0.36829 -0.55205,0.36776 -0.55023,0.55201 -0.55022,0.55207 -0.36803,0.55206 -0.36802,0.55202 -0.55023,0.55023 -0.36803,0.55207 -0.18404,0.55207 -0.36802,0.73605 -0.36803,0.55206 -0.18404,0.73423 -0.18398,0.55206 -0.36803,0.73423 v 0.73422 l -0.18404,0.73605 28.29821,4.22622 z"
       id="path3928"
       inkscape:connector-curvature="0" />
    <path
       style="fill:#040404;fill-opacity:1;fill-rule:nonzero;stroke:none"
       d="m 348.53698,201.44946 -0.18404,0.73422 -0.18399,0.73605 -0.18404,0.55207 -0.18404,0.73422 v 0.73611 0.73422 0.73605 0.73428 0.55201 l 0.18404,0.73428 0.18404,0.73422 v 0.73423 l 0.36803,0.55206 0.18398,0.73605 0.18404,0.55207 0.36803,0.73422 0.36803,0.55207 0.18404,0.55206 0.55022,0.55202 0.36803,0.55206 0.36802,0.55024 0.55023,0.55201 0.36803,0.55207 0.55205,0.36829 0.55022,0.55206 0.55023,0.36777 0.55204,0.36828 0.55023,0.36829 0.73425,0.36777 0.55022,0.36828 0.73606,0.18389 0.73424,0.36619 0.73425,0.18389 0.73606,0.18388 0.55205,0.18388 h 0.73424 l 0.73607,0.18388 h 0.73424 0.73607 0.73424 l 0.55022,-0.18388 h 0.73607 l 0.73424,-0.18388 0.55023,-0.18388 0.73606,-0.18389 0.73424,-0.18388 0.55023,-0.36829 0.55205,-0.18388 0.73606,-0.36829 0.55205,-0.36776 0.55022,-0.36829 0.55023,-0.36776 0.55023,-0.55207 0.55022,-0.36829 0.55205,-0.55206 0.36803,-0.36777 0.55023,-0.55206 0.36802,-0.55202 0.36803,-0.73427 0.36802,-0.55024 0.36803,-0.55201 0.36803,-0.73605 0.18404,-0.73428 0.36802,-0.55201 -27.19556,-9.18754 z"
       id="path3930"
       inkscape:connector-curvature="0" />
    <path
       style="fill:#040404;fill-opacity:1;fill-rule:nonzero;stroke:none"
       d="m 359.92994,173.33545 -0.73606,1.65431 -0.91826,1.83778 -0.91826,2.0213 -0.91826,2.02124 -0.91826,2.02125 -0.91826,2.02072 -0.73424,2.02145 -0.91826,2.20529 -0.73424,2.02124 -0.73606,2.02125 -0.91826,2.02145 -0.73425,2.20476 -0.73606,2.02125 -0.55205,2.02145 27.19575,9.18749 0.55023,-1.83778 0.73424,-1.83705 0.55023,-1.83783 0.73606,-1.83778 0.73424,-1.83705 0.73424,-1.83778 0.55205,-1.83726 0.73424,-1.65431 0.91827,-1.83726 0.73424,-1.83763 0.73606,-1.65431 0.73424,-1.83762 0.91826,-1.65432 0.73424,-1.65431 z"
       id="path3932"
       inkscape:connector-curvature="0" />
    <path
       style="fill:#040404;fill-opacity:1;fill-rule:nonzero;stroke:none"
       d="m 385.83867,185.64664 0.36802,-0.73605 0.18399,-0.55024 0.18404,-0.73422 0.18399,-0.73423 0.18403,-0.7361 0.18399,-0.55202 v -0.73427 l 0.18404,-0.73605 v -0.73423 -0.73605 l -0.18404,-0.55207 v -0.73422 l -0.18399,-0.7361 -0.18403,-0.73423 -0.18399,-0.55206 -0.18404,-0.73606 -0.18399,-0.55206 -0.36802,-0.73422 -0.18399,-0.55207 -0.36803,-0.55201 -0.36802,-0.55207 -0.36803,-0.73605 -0.36803,-0.55207 -0.55022,-0.36828 -0.55023,-0.55207 -0.36802,-0.55201 -0.55023,-0.3662 -0.55205,-0.55207 -0.55022,-0.36619 -0.73425,-0.36829 -0.55204,-0.36777 -0.73425,-0.36828 -0.55205,-0.36777 -0.73606,-0.18388 -0.73424,-0.18388 -0.73424,-0.18389 -0.55023,-0.18388 -0.73606,-0.18388 h -0.73425 l -0.73606,-0.18388 h -0.73424 -0.55205 l -0.73606,0.18388 h -0.73425 l -0.73606,0.18388 -0.55023,0.18388 -0.73424,0.18389 -0.55204,0.18388 -0.73607,0.18388 -0.55023,0.36777 -0.73424,0.18388 -0.55205,0.36776 -0.55023,0.3662 -0.55022,0.36777 -0.55023,0.36828 -0.55204,0.55207 -0.55023,0.36777 -0.55023,0.55206 -0.36802,0.55207 -0.55023,0.55201 -0.36802,0.55024 -0.36803,0.73422 -0.36803,0.55207 -0.36802,0.73422 25.90855,12.3114 z"
       id="path3934"
       inkscape:connector-curvature="0" />
    <path
       style="fill:#040404;fill-opacity:1;fill-rule:nonzero;stroke:none"
       d="m 396.86396,122.98754 -0.55205,0.36828 -0.55022,0.55202 -0.36803,0.55206 -0.55204,0.55207 -0.36803,0.73422 -0.36802,0.55207 -0.36803,0.55201 -0.18398,0.73428 -0.36803,0.55201 -0.18404,0.73427 -0.18404,0.55202 -0.18399,0.73427 -0.18404,0.73423 -0.18398,0.55206 v 0.73423 0.73422 0.73428 0.55201 0.7361 l 0.18398,0.73423 v 0.73422 l 0.18404,0.55207 0.18399,0.73422 0.18404,0.55207 0.36803,0.73605 0.18404,0.73428 0.36802,0.55201 0.36803,0.55206 0.36802,0.73423 0.55023,0.55206 0.36803,0.55207 0.55022,0.55201 0.55023,0.55207 0.36803,0.36828 0.55022,0.55207 0.73606,0.36777 0.55023,0.55201 0.55205,0.18388 0.55205,0.36777 0.73424,0.36619 0.55023,0.18389 0.73606,0.36828 0.73424,0.18389 0.55023,0.18388 h 0.73606 l 0.73425,0.18388 h 0.55204 l 0.73607,0.18388 h 0.73424 0.73606 l 0.55205,-0.18388 h 0.73425 l 0.73606,-0.18388 0.55205,-0.18388 0.73424,-0.18389 0.73606,-0.18388 0.55205,-0.18388 0.73425,-0.36777 0.55022,-0.36828 0.55205,-0.3662 0.73607,-0.36777 0.55022,-0.36828 0.55022,-0.55202 0.55023,-0.36828 -19.47764,-20.94756 z"
       id="path3936"
       inkscape:connector-curvature="0" />
    <path
       style="fill:#040404;fill-opacity:1;fill-rule:nonzero;stroke:none"
       d="m 422.40539,104.2449 -1.65432,0.91826 -2.02126,1.10225 -1.8378,1.28629 -2.02126,1.28629 -1.83779,1.1023 -1.83706,1.28629 -1.83779,1.47028 -1.83725,1.28629 -1.65432,1.28628 -1.83725,1.47033 -1.65432,1.28629 -1.65432,1.47028 -1.65432,1.47033 -1.65433,1.47033 -0.55022,0.55201 19.47764,20.9474 0.18399,-0.3662 1.4703,-1.10225 1.28629,-1.1023 1.2863,-1.10225 1.4703,-1.1023 1.2863,-1.10225 1.4703,-1.10231 1.47031,-1.10225 1.4703,-1.1023 1.47031,-0.91826 1.47031,-1.10225 1.4703,-0.91826 1.65433,-0.91827 1.4703,-0.91826 1.83779,-1.10225 z"
       id="path3938"
       inkscape:connector-curvature="0" />
    <path
       style="fill:#040404;fill-opacity:1;fill-rule:nonzero;stroke:none"
       d="m 437.10554,128.86749 0.55207,-0.36776 0.55201,-0.36829 0.55024,-0.55207 0.55024,-0.36776 0.55023,-0.55201 0.55202,-0.55207 0.36776,-0.36829 0.55207,-0.73427 0.36776,-0.55202 0.36829,-0.55206 0.36777,-0.55207 0.18388,-0.55201 0.36828,-0.73428 0.18389,-0.55201 0.18388,-0.73428 0.18388,-0.73422 0.18388,-0.55206 0.18389,-0.73423 v -0.73422 l 0.18388,-0.55207 v -0.73422 -0.73428 -0.73422 l -0.18388,-0.55207 v -0.73422 l -0.18389,-0.73423 -0.18388,-0.73427 -0.18388,-0.55024 -0.36777,-0.73422 -0.18388,-0.73423 -0.36828,-0.55206 -0.36777,-0.73423 -0.36829,-0.55206 -0.36776,-0.55207 -0.55207,-0.55201 -0.36776,-0.55206 -0.55202,-0.55207 -0.55023,-0.55201 -0.55024,-0.36829 -0.55024,-0.55207 -0.55201,-0.36828 -0.55025,-0.36829 -0.55205,-0.36777 -0.73424,-0.36828 -0.55022,-0.18389 -0.73607,-0.18388 -0.55205,-0.36828 -0.73424,-0.18389 h -0.55023 l -0.73606,-0.18388 -0.73424,-0.18388 h -0.55023 -0.73424 -0.73606 -0.73425 l -0.73606,0.18388 h -0.55023 l -0.73424,0.18388 -0.73606,0.18389 -0.55023,0.18388 -0.73424,0.18388 -0.73607,0.36776 -0.55023,0.36829 -0.73423,0.36777 14.70033,24.62259 z"
       id="path3940"
       inkscape:connector-curvature="0" />
    <path
       style="fill:#040404;fill-opacity:1;fill-rule:nonzero;stroke:none"
       d="m 481.75712,84.39975 -0.73605,0.18388 -0.73428,0.18388 -0.73605,0.18388 -0.55024,0.18389 -0.73422,0.36828 -0.55207,0.18389 -0.73605,0.36776 -0.55201,0.36829 -0.55024,0.36776 -0.55024,0.36829 -0.55206,0.55201 -0.55024,0.36829 -0.55201,0.55207 -0.36777,0.36828 -0.55206,0.55207 -0.36777,0.55201 -0.36828,0.55207 -0.36777,0.55206 -0.36829,0.73423 -0.36828,0.55206 -0.18389,0.55201 -0.36828,0.73428 -0.18389,0.73422 -0.18388,0.55024 -0.18388,0.73423 -0.18388,0.73427 v 0.73423 0.55206 l -0.18389,0.73423 0.18389,0.73422 v 0.73428 0.73422 l 0.18388,0.73422 0.18388,0.73428 0.18388,0.73422 0.18389,0.73428 0.36828,0.55201 0.18389,0.73428 0.36828,0.55201 0.36829,0.55207 0.36777,0.73422 0.36828,0.55207 0.55207,0.55206 0.36829,0.36829 0.55201,0.55201 0.36829,0.55207 0.55023,0.36828 0.55207,0.36829 0.55024,0.55207 0.55023,0.36776 0.73606,0.18388 0.55023,0.36829 0.55202,0.36829 0.73427,0.18388 0.73605,0.18388 0.55024,0.18389 0.73423,0.18388 0.73605,0.18388 h 0.73427 l 0.55019,0.18388 h 0.7361 0.73423 l 0.73605,-0.18388 h 0.73422 l -4.22616,-28.48136 z"
       id="path3942"
       inkscape:connector-curvature="0" />
    <path
       style="fill:#040404;fill-opacity:1;fill-rule:nonzero;stroke:none"
       d="m 512.25952,82.19467 h -0.55024 -2.93972 l -2.94003,0.18388 h -2.94024 l -2.94008,0.18389 -2.75625,0.18388 -2.75605,0.18388 -2.75656,0.36777 -2.7561,0.18388 -2.75656,0.36776 -2.75604,0.36829 -1.65432,0.18388 4.22616,28.48136 1.28629,-0.18388 2.38838,-0.36777 2.38891,-0.18388 2.38896,-0.36829 2.38854,-0.18388 2.38895,-0.18388 2.57237,-0.18388 2.57258,-0.18389 h 2.38896 l 2.75604,-0.18388 h 2.57258 0.55024 z"
       id="path3944"
       inkscape:connector-curvature="0" />
    <path
       style="fill:#040404;fill-opacity:1;fill-rule:nonzero;stroke:none"
       d="m 512.62718,110.85981 h 0.73605 l 0.73427,-0.18389 h 0.73423 l 0.73605,-0.18388 0.73428,-0.18388 0.55018,-0.18388 0.73611,-0.18389 0.73422,-0.36776 0.55024,-0.18388 0.55023,-0.36829 0.73606,-0.36829 0.55023,-0.36776 0.55019,-0.36829 0.55206,-0.55206 0.36777,-0.36777 0.55206,-0.55201 0.55024,-0.36829 0.36777,-0.55201 0.36828,-0.55207 0.55207,-0.55206 0.18388,-0.73423 0.36777,-0.55023 0.36828,-0.55202 0.36777,-0.73427 0.18388,-0.55202 0.18388,-0.73427 0.18388,-0.73423 0.18389,-0.55206 v -0.73423 l 0.18388,-0.73422 v -0.73428 -0.73422 -0.73422 -0.73428 l -0.18388,-0.73422 -0.18389,-0.73428 -0.18388,-0.73422 -0.18388,-0.55207 -0.18388,-0.73422 -0.18389,-0.55207 -0.36828,-0.73422 -0.36777,-0.55207 -0.36828,-0.55201 -0.36829,-0.73428 -0.36777,-0.55201 -0.36828,-0.55207 -0.55024,-0.36776 -0.36777,-0.55207 -0.55201,-0.55201 -0.55024,-0.36829 -0.55206,-0.36776 -0.55024,-0.36829 -0.55018,-0.36829 -0.73428,-0.36776 -0.55024,-0.36829 -0.55018,-0.18388 -0.73611,-0.36829 -0.73422,-0.18388 -0.55207,-0.18388 -0.73605,-0.18389 h -0.73422 l -0.73605,-0.18388 h -0.73428 -0.73605 l 0.36829,28.66514 z"
       id="path3946"
       inkscape:connector-curvature="0" />
    <path
       style="fill:#040404;fill-opacity:1;fill-rule:nonzero;stroke:none"
       d="m 570.14112,83.11346 h -0.73605 -0.73605 l -0.73611,0.18388 -0.73605,0.18388 h -0.73605 l -0.55024,0.18388 -0.73605,0.18389 -0.73605,0.36828 -0.55024,0.18389 -0.55024,0.36776 -0.73605,0.36829 -0.55024,0.36776 -0.55567,0.36829 -0.55023,0.36829 -0.55024,0.36776 -0.55024,0.55202 -0.36985,0.55206 -0.55024,0.36777 -0.36411,0.55206 -0.36985,0.55207 -0.55024,0.73422 -0.36411,0.55207 -0.18597,0.55201 -0.36985,0.73428 -0.18232,0.55201 -0.36985,0.73428 -0.18598,0.55201 -0.18231,0.73427 -0.18597,0.73423 v 0.73422 0.73428 l -0.18597,0.73422 v 0.73423 l 0.18597,0.73427 v 0.73423 l 0.18597,0.73422 v 0.55207 l 0.18231,0.73422 0.36986,0.73428 0.18597,0.55023 0.18232,0.73605 0.36985,0.55024 0.36411,0.55201 0.36985,0.73428 0.36411,0.55201 0.36986,0.55207 0.55023,0.55206 0.36411,0.36777 0.55572,0.55201 0.55024,0.55207 0.55019,0.36776 0.55023,0.36829 0.55024,0.36777 0.55567,0.36828 0.55024,0.36829 0.73605,0.36777 0.55024,0.18388 0.73605,0.18388 0.55023,0.36777 h 0.73606 l 0.7361,0.18388 0.73605,0.18388 h 0.73606 0.73605 l 0.55024,-28.66514 z"
       id="path3948"
       inkscape:connector-curvature="0" />
    <path
       style="fill:#040404;fill-opacity:1;fill-rule:nonzero;stroke:none"
       d="m 598.8072,83.66458 -0.55024,28.66535 -28.66608,-0.55207 0.55024,-28.66513 z"
       id="path3950"
       inkscape:connector-curvature="0" />
    <path
       style="fill:#040404;fill-opacity:1;fill-rule:nonzero;stroke:none"
       d="m 598.25712,112.32993 h 0.7361 0.73605 0.73057 l 0.73611,-0.18389 0.73605,-0.18388 0.55567,-0.18388 0.7361,-0.18388 0.73057,-0.18389 0.55572,-0.36776 0.55019,-0.18388 0.7361,-0.36829 0.55019,-0.36829 0.55023,-0.36776 0.55024,-0.55202 0.55567,-0.36828 0.55024,-0.36829 0.36463,-0.55201 0.55567,-0.55207 0.36411,-0.55206 0.36463,-0.55202 0.36985,-0.55206 0.36411,-0.55207 0.36985,-0.73422 0.36411,-0.55024 0.18597,-0.55201 0.36986,-0.73428 0.18231,-0.73422 0.18598,-0.73428 v -0.55201 l 0.18597,-0.73428 v -0.73422 l 0.18597,-0.73423 v -0.73427 l -0.18597,-0.73423 v -0.73422 l -0.18597,-0.73428 -0.18598,-0.73422 v -0.73422 l -0.3641,-0.55207 -0.18598,-0.73422 -0.18597,-0.55207 -0.36411,-0.73422 -0.36985,-0.55207 -0.36411,-0.55206 -0.36985,-0.55202 -0.36463,-0.55206 -0.55024,-0.55207 -0.36986,-0.55201 -0.55018,-0.55206 -0.55024,-0.36777 -0.55023,-0.36829 -0.55024,-0.55206 -0.55567,-0.36777 -0.55024,-0.36828 -0.55024,-0.18389 -0.73605,-0.36828 -0.55023,-0.36777 -0.73606,-0.18388 -0.73605,-0.18388 -0.55024,-0.18389 -0.73605,-0.18388 h -0.7361 l -0.73606,-0.18388 h -0.73605 l -0.55023,28.66534 z"
       id="path3952"
       inkscape:connector-curvature="0" />
    <path
       style="fill:#040404;fill-opacity:1;fill-rule:nonzero;stroke:none"
       d="m 656.13455,84.76725 h -0.73057 -0.73611 l -0.73605,0.18388 h -0.73605 l -0.55567,0.18388 -0.73062,0.18389 -0.73605,0.18388 -0.55572,0.36829 -0.73606,0.18388 -0.55023,0.36829 -0.55024,0.36776 -0.73605,0.36829 -0.55024,0.36776 -0.55018,0.36829 -0.55573,0.36777 -0.3641,0.55206 -0.55024,0.55207 -0.55024,0.36828 -0.36985,0.55207 -0.36411,0.55201 -0.36986,0.73428 -0.3641,0.55201 -0.36986,0.55207 -0.36463,0.73422 -0.18597,0.55207 -0.18597,0.73422 -0.18232,0.55207 -0.18597,0.73422 -0.18597,0.73428 -0.18597,0.73422 v 0.73422 0.73428 0.73422 0.73423 0.73427 l 0.18597,0.73423 0.18597,0.55206 0.18597,0.73423 0.18232,0.73605 0.18597,0.55024 0.36411,0.73427 0.18597,0.55202 0.36985,0.55206 0.36411,0.73422 0.36986,0.55207 0.55023,0.55207 0.36411,0.55201 0.36986,0.36776 0.55023,0.55207 0.55024,0.55206 0.55018,0.36829 0.55573,0.36777 0.55023,0.36828 0.55019,0.36777 0.7361,0.36829 0.55019,0.36776 0.55023,0.18388 0.73606,0.18389 0.7361,0.18388 0.73605,0.18388 0.55024,0.18388 0.73605,0.18389 h 0.73606 0.73605 l 0.55023,-28.66514 z"
       id="path3954"
       inkscape:connector-curvature="0" />
    <path
       style="fill:#040404;fill-opacity:1;fill-rule:nonzero;stroke:none"
       d="m 684.80078,85.31837 -0.55019,28.66535 -28.66628,-0.55207 0.55024,-28.66513 z"
       id="path3956"
       inkscape:connector-curvature="0" />
    <path
       style="fill:#040404;fill-opacity:1;fill-rule:nonzero;stroke:none"
       d="m 684.25059,113.98372 h 0.73606 0.73605 0.73605 l 0.73605,-0.18388 0.73611,-0.18389 0.73605,-0.18388 0.55024,-0.18388 0.73605,-0.18388 0.55024,-0.36829 0.73605,-0.18388 0.55024,-0.36829 0.55023,-0.36776 0.55567,-0.36829 0.55024,-0.55207 0.55024,-0.36776 0.55018,-0.36829 0.55024,-0.55206 0.36985,-0.55202 0.55024,-0.55206 0.36985,-0.55207 0.36411,-0.55201 0.36986,-0.55207 0.36463,-0.73422 0.18597,-0.55207 0.36411,-0.55206 0.18597,-0.73423 0.18597,-0.73422 0.18232,-0.73428 0.18597,-0.55023 v -0.73423 l 0.18597,-0.73422 v -0.73428 -0.73422 -0.73422 l -0.18597,-0.73428 v -0.73422 l -0.18597,-0.73423 -0.18232,-0.73427 -0.18597,-0.55202 -0.36463,-0.73427 -0.18597,-0.55202 -0.36986,-0.73427 -0.36411,-0.55202 -0.36985,-0.55206 -0.36463,-0.55207 -0.36986,-0.55201 -0.3641,-0.55207 -0.55024,-0.55206 -0.55024,-0.55201 -0.36985,-0.36829 -0.55019,-0.36777 -0.55023,-0.55201 -0.55573,-0.36829 -0.73605,-0.36828 -0.55023,-0.18389 -0.55019,-0.36828 -0.7361,-0.36829 -0.73606,-0.18388 -0.55023,-0.18389 -0.73606,-0.18388 -0.73605,-0.18388 h -0.73605 l -0.7361,-0.18388 h -0.73606 l -0.55023,28.66534 z"
       id="path3958"
       inkscape:connector-curvature="0" />
    <path
       style="fill:#040404;fill-opacity:1;fill-rule:nonzero;stroke:none"
       d="m 742.31838,86.42104 h -0.73605 -0.73605 l -0.73611,0.18389 h -0.73605 l -0.73605,0.18388 -0.73605,0.18388 -0.55024,0.18388 -0.73605,0.36777 -0.55024,0.18388 -0.73605,0.36829 -0.55572,0.36828 -0.55024,0.36777 -0.55019,0.36829 -0.55023,0.36828 -0.55024,0.36777 -0.55567,0.55206 -0.55024,0.55202 -0.36463,0.36829 -0.55018,0.55201 -0.36986,0.55206 -0.36463,0.73423 -0.36985,0.55206 -0.36411,0.55207 -0.18597,0.73422 -0.36986,0.55207 -0.18231,0.73422 -0.18597,0.55207 -0.18598,0.73422 -0.18597,0.73422 V 99.107 l -0.18231,0.73422 v 0.73423 0.73427 0.73423 l 0.18231,0.73422 v 0.73611 l 0.18597,0.55018 0.18598,0.73428 0.18597,0.73422 0.36411,0.55207 0.18597,0.73422 0.36411,0.55207 0.36985,0.55206 0.36411,0.73423 0.36985,0.55206 0.36463,0.55201 0.36986,0.55207 0.55018,0.36829 0.36463,0.55206 0.55567,0.55019 0.55024,0.36828 0.55024,0.36777 0.55023,0.36829 0.73606,0.36776 0.55023,0.36829 0.55567,0.36776 0.73606,0.18389 0.55023,0.18388 0.73606,0.18388 0.7361,0.18388 0.73605,0.18389 0.73605,0.18388 h 0.73062 0.73606 l 0.55567,-28.66514 z"
       id="path3960"
       inkscape:connector-curvature="0" />
    <path
       style="fill:#040404;fill-opacity:1;fill-rule:nonzero;stroke:none"
       d="m 770.97934,86.97217 -0.55024,28.66529 -28.66623,-0.55201 0.55567,-28.66514 z"
       id="path3962"
       inkscape:connector-curvature="0" />
    <path
       style="fill:#040404;fill-opacity:1;fill-rule:nonzero;stroke:none"
       d="m 770.42931,115.63746 h 0.73605 0.73606 0.73605 l 0.55024,-0.18388 0.73605,-0.18388 0.7361,-0.18389 0.73605,-0.18388 0.55024,-0.18388 0.73605,-0.36777 0.55024,-0.18388 0.55567,-0.36776 0.73605,-0.36829 0.55024,-0.36777 0.55024,-0.55206 0.55023,-0.36829 0.36986,-0.36776 0.55018,-0.55207 0.36463,-0.55024 0.55567,-0.55201 0.36463,-0.55206 0.36986,-0.55207 0.36411,-0.55201 0.3641,-0.73428 0.36986,-0.55201 0.18597,-0.55207 0.18232,-0.73422 0.18597,-0.73428 0.18597,-0.73422 0.18597,-0.55207 0.18232,-0.73422 v -0.73428 -0.73422 -0.73423 -0.73427 -0.73423 l -0.18232,-0.73422 -0.18597,-0.73428 -0.18597,-0.73422 -0.18597,-0.55206 -0.18232,-0.73423 -0.36985,-0.55206 -0.18598,-0.73423 -0.3641,-0.55206 -0.36411,-0.55024 -0.36986,-0.55201 -0.55023,-0.55207 -0.36986,-0.55206 -0.55023,-0.55202 -0.36411,-0.55206 -0.55572,-0.36777 -0.55024,-0.36828 -0.55019,-0.55207 -0.55023,-0.36776 -0.55024,-0.36829 -0.73605,-0.18388 -0.55572,-0.36829 -0.73057,-0.36777 -0.55572,-0.18388 -0.73606,-0.18388 -0.73605,-0.18388 -0.55024,-0.18389 h -0.73605 l -0.73605,-0.18388 h -0.7361 l -0.55019,28.66519 z"
       id="path3964"
       inkscape:connector-curvature="0" />
    <path
       style="fill:#040404;fill-opacity:1;fill-rule:nonzero;stroke:none"
       d="m 828.31181,88.07463 h -0.73606 -0.73605 l -0.7361,0.18388 h -0.73606 l -0.73605,0.18388 -0.55023,0.18388 -0.73606,0.18389 -0.73605,0.18388 -0.55024,0.36829 -0.55023,0.36828 -0.73606,0.18389 -0.55023,0.36828 -0.55567,0.55207 -0.55024,0.36776 -0.55024,0.36829 -0.55023,0.55207 -0.36986,0.36776 -0.55018,0.55207 -0.36463,0.55201 -0.36986,0.55207 -0.55023,0.55023 -0.36411,0.55207 -0.18597,0.73422 -0.36986,0.55207 -0.18231,0.73422 -0.36986,0.55207 -0.18597,0.73422 -0.18232,0.73422 -0.18597,0.73428 v 0.55201 0.73428 l -0.18597,0.73422 v 0.73423 l 0.18597,0.7361 v 0.73423 l 0.18597,0.73422 v 0.73428 l 0.18232,0.73422 0.36985,0.55207 0.18598,0.73422 0.18231,0.55206 0.36986,0.73423 0.3641,0.55206 0.36986,0.55202 0.36411,0.55206 0.36985,0.55207 0.55024,0.55023 0.36411,0.55202 0.55572,0.55206 0.55023,0.36777 0.55019,0.55206 0.55024,0.36829 0.55023,0.36777 0.55567,0.36828 0.55024,0.36777 0.7361,0.18388 0.55019,0.36777 0.7361,0.18388 0.55019,0.18388 0.7361,0.18388 0.73606,0.18389 h 0.73605 l 0.73605,0.18388 h 0.73605 l 0.55024,-28.66519 z"
       id="path3966"
       inkscape:connector-curvature="0" />
    <path
       style="fill:#040404;fill-opacity:1;fill-rule:nonzero;stroke:none"
       d="m 857.16318,88.80974 -5.69723,-0.18388 -5.8823,-0.18389 -6.06233,-0.18388 -5.88251,-0.18388 h -5.327 l -0.55024,28.66534 5.327,0.18389 h 5.88252 l 5.87718,0.18388 5.69723,0.18388 5.69722,0.18388 z"
       id="path3968"
       inkscape:connector-curvature="0" />
    <path
       style="fill:#040404;fill-opacity:1;fill-rule:nonzero;stroke:none"
       d="m 856.24272,117.47493 h 0.73605 0.73605 l 0.73611,-0.18389 h 0.73605 l 0.73605,-0.18388 0.73605,-0.18388 0.55024,-0.18388 0.73605,-0.18389 0.55024,-0.36828 0.73605,-0.18388 0.55024,-0.36829 0.55024,-0.36829 0.55023,-0.36776 0.55567,-0.55207 0.55024,-0.36829 0.55024,-0.36776 0.55023,-0.55207 0.36986,-0.55201 0.55018,-0.55024 0.36463,-0.55206 0.36986,-0.55207 0.36411,-0.55201 0.36985,-0.55207 0.36411,-0.73422 0.18597,-0.55207 0.18597,-0.73422 0.36463,-0.73428 0.18598,-0.55201 v -0.73428 l 0.18597,-0.73422 v -0.73422 l 0.18231,-0.73428 v -0.73422 l -0.18231,-0.73423 v -0.73427 l -0.18597,-0.73423 v -0.73422 l -0.18598,-0.55207 -0.18231,-0.73422 -0.36986,-0.55207 -0.18597,-0.73422 -0.36463,-0.55207 -0.36985,-0.73422 -0.36411,-0.55206 -0.36986,-0.55024 -0.36463,-0.55207 -0.3641,-0.55201 -0.55567,-0.55207 -0.36463,-0.36776 -0.55019,-0.55207 -0.55572,-0.36828 -0.55024,-0.55207 -0.55018,-0.36776 -0.55024,-0.36829 -0.7361,-0.36777 -0.55019,-0.18388 -0.7361,-0.36829 -0.55567,-0.18388 -0.73062,-0.18388 -0.73606,-0.18388 -0.55566,-0.18389 -0.73606,-0.18388 h -0.73062 -0.73605 l -0.92009,28.6653 z"
       id="path3970"
       inkscape:connector-curvature="0" />
  </g>
</svg>
