<?xml version="1.0" encoding="UTF-8" standalone="no"?>
<svg stroke="currentColor" fill="currentColor"
   xmlns="http://www.w3.org/2000/svg"
   width="1000"
   height="1000"
   viewBox="0 0 1000 1000">
  <!-- Magnifier glass: outer ring (exact geometry from search-sdf) -->
  <path fill="none"
     stroke-width="46.91" stroke-linecap="round" stroke-linejoin="round" stroke-miterlimit="22.926"
     d="M 419.367,668.216 c -175.831,0 -319.25,-143.418 -319.25,-319.251 c 0,-175.839 143.417,-319.264 319.25,-319.264 c 175.84,0 319.259,143.423 319.259,319.264 c 0,175.833 -143.418,319.251 -319.259,319.251" />
  <!-- Magnifier glass: inner ring (exact geometry from search-dna) -->
  <path fill="none"
     stroke-width="21.586" stroke-linecap="round" stroke-linejoin="round" stroke-miterlimit="22.926"
     d="M 419.367,610.974 c -144.301,0 -262.007,-117.703 -262.007,-262.009 c 0,-144.317 117.706,-262.011 262.007,-262.011 c 144.314,0 262.009,117.694 262.009,262.011 c 0,144.306 -117.693,262.009 -262.009,262.009" />
  <!-- Handle (exact geometry from search-sdf) -->
  <polyline fill="none"
     stroke-width="46.908" stroke-linecap="round" stroke-linejoin="round" stroke-miterlimit="22.926"
     points="897.764,890.229 661.894,574.439 579.326,636.111 815.197,951.902" />
  <path fill="none"
     stroke-width="46.908" stroke-linecap="round" stroke-linejoin="round" stroke-miterlimit="22.926"
     d="M 815.197,951.902 c 21.303,26.598 23.303,26.598 53.354,7.72" />
  <line fill="none"
     stroke-width="46.908" stroke-linecap="round" stroke-linejoin="round" stroke-miterlimit="22.926"
     x1="868.552" y1="959.624" x2="890.037" y2="943.57" />
  <path fill="none"
     stroke-width="46.908" stroke-linecap="round" stroke-linejoin="round" stroke-miterlimit="22.926"
     d="M 890.037,943.57 c 29.463,-22.07 29.463,-23.07 7.728,-53.342" />
  <!-- "MF" text inside the magnifier lens, centered at lens center (419, 349) -->
  <text
     x="419" y="349"
     text-anchor="middle"
     dominant-baseline="central"
     font-family="sans-serif"
     font-weight="bold"
     font-size="220"
     stroke="none">MF</text>
</svg>
