<?xml version="1.0" encoding="UTF-8" standalone="no"?>
<!-- Created with Inkscape (http://www.inkscape.org/) -->

<svg stroke="currentColor" fill="currentColor"
   xmlns:dc="http://purl.org/dc/elements/1.1/"
   xmlns:cc="http://creativecommons.org/ns#"
   xmlns:rdf="http://www.w3.org/1999/02/22-rdf-syntax-ns#"
   xmlns:svg="http://www.w3.org/2000/svg"
   xmlns="http://www.w3.org/2000/svg"
   xmlns:sodipodi="http://sodipodi.sourceforge.net/DTD/sodipodi-0.dtd"
   xmlns:inkscape="http://www.inkscape.org/namespaces/inkscape"
   width="1000"
   height="1000"
   id="svg4152"
   version="1.1"
   inkscape:version="0.92.3 (2405546, 2018-03-11)"
   viewBox="0 0 1000 1000"
   sodipodi:docname="impurities.svg">
  <defs
     id="defs5498">
    <marker
       inkscape:isstock="true"
       style="overflow:visible"
       id="marker4233"
       refX="0.0"
       refY="0.0"
       orient="auto"
       inkscape:stockid="TriangleOutL">
      <path
         transform="scale(0.8)"
         style="fill-rule:evenodd;stroke:#000000;stroke-width:1pt;stroke-opacity:1;fill:#000000;fill-opacity:1"
         d="M 5.77,0.0 L -2.88,5.0 L -2.88,-5.0 L 5.77,0.0 z "
         id="path4235" />
    </marker>
    <marker
       inkscape:isstock="true"
       style="overflow:visible"
       id="marker4755"
       refX="0.0"
       refY="0.0"
       orient="auto"
       inkscape:stockid="TriangleOutL">
      <path
         transform="scale(0.8)"
         style="fill-rule:evenodd;stroke:#000000;stroke-width:1pt;stroke-opacity:1;fill:#000000;fill-opacity:1"
         d="M 5.77,0.0 L -2.88,5.0 L -2.88,-5.0 L 5.77,0.0 z "
         id="path4757" />
    </marker>
    <marker
       inkscape:stockid="Arrow1Lend"
       orient="auto"
       refY="0.0"
       refX="0.0"
       id="Arrow1Lend"
       style="overflow:visible;"
       inkscape:isstock="true">
      <path
         id="path4164"
         d="M 0.0,0.0 L 5.0,-5.0 L -12.5,0.0 L 5.0,5.0 L 0.0,0.0 z "
         style="fill-rule:evenodd;stroke:#000000;stroke-width:1pt;stroke-opacity:1;fill:#000000;fill-opacity:1"
         transform="scale(0.8) rotate(180) translate(12.5,0)" />
    </marker>
    <marker
       inkscape:stockid="Arrow2Lend"
       orient="auto"
       refY="0.0"
       refX="0.0"
       id="Arrow2Lend"
       style="overflow:visible;"
       inkscape:isstock="true">
      <path
         id="path4182"
         style="fill-rule:evenodd;stroke-width:0.625;stroke-linejoin:round;stroke:#000000;stroke-opacity:1;fill:#000000;fill-opacity:1"
         d="M 8.7185878,4.0337352 L -2.2072895,0.016013256 L 8.7185884,-4.0017078 C 6.9730900,-1.6296469 6.9831476,1.6157441 8.7185878,4.0337352 z "
         transform="scale(1.1) rotate(180) translate(1,0)" />
    </marker>
    <pattern
       y="0"
       x="0"
       height="6"
       width="6"
       patternUnits="userSpaceOnUse"
       id="EMFhbasepattern" />
  </defs>
  <sodipodi:namedview
     inkscape:window-height="678"
     inkscape:window-width="1007"
     inkscape:pageshadow="2"
     inkscape:pageopacity="0.0"
     borderopacity="1.0"
     bordercolor="#666666"
     pagecolor="#ffffff"
     id="base"
     showgrid="true"
     showguides="true"
     inkscape:guide-bbox="true"
     inkscape:zoom="0.25"
     inkscape:cx="357.82213"
     inkscape:cy="459.29481"
     inkscape:window-x="195"
     inkscape:window-y="12"
     inkscape:current-layer="svg4152"
     inkscape:window-maximized="0"
     objecttolerance="20"
     inkscape:snap-to-guides="false">
    <sodipodi:guide
       orientation="horizontal"
       position="200"
       id="guide5596"
       inkscape:locked="false" />
    <inkscape:grid
       type="xygrid"
       id="grid3430"
       empspacing="50" />
    <sodipodi:guide
       position="550,1000"
       orientation="0,1"
       id="guide4169"
       inkscape:locked="false" />
  </sodipodi:namedview>
  <metadata
     id="metadata5594">
    <rdf:RDF>
      <cc:Work
         rdf:about="">
        <dc:format>image/svg+xml</dc:format>
        <dc:type
           rdf:resource="http://purl.org/dc/dcmitype/StillImage" />
        <dc:title></dc:title>
      </cc:Work>
    </rdf:RDF>
  </metadata>
  <path
     inkscape:connector-curvature="0"
     id="path3502"
     d="M 42.642626,676.44096 H 932.37208"
     style="fill:none;stroke:#040404;stroke-width:45.69824982px;stroke-linecap:round;stroke-linejoin:round;stroke-miterlimit:4;stroke-dasharray:none;stroke-opacity:1" />
  <path
     inkscape:connector-curvature="0"
     id="path3504"
     d="m 946.43349,676.44096 -51.62221,39.22281"
     style="fill:none;stroke:#040404;stroke-width:45.69824982px;stroke-linecap:round;stroke-linejoin:round;stroke-miterlimit:4;stroke-dasharray:none;stroke-opacity:1" />
  <path
     inkscape:connector-curvature="0"
     id="path3506"
     d="m 894.81128,637.40455 51.62221,39.03641"
     style="fill:none;stroke:#040404;stroke-width:45.69824982px;stroke-linecap:round;stroke-linejoin:round;stroke-miterlimit:4;stroke-dasharray:none;stroke-opacity:1" />
  <g
     style="clip-rule:evenodd;fill-rule:evenodd;image-rendering:optimizeQuality;shape-rendering:geometricPrecision;text-rendering:geometricPrecision"
     id="g4519"
     transform="matrix(91.744545,0,0,91.744545,41.969863,34.793573)">
    <line
       id="_341698584"
       class="fil0 str0"
       x1="0.168097"
       y1="6.75594"
       x2="9.4741602"
       y2="6.75594" />
  </g>
  <g
     style="clip-rule:evenodd;fill-rule:evenodd;image-rendering:optimizeQuality;shape-rendering:geometricPrecision;text-rendering:geometricPrecision"
     id="g4523"
     transform="matrix(91.744545,0,0,91.744545,41.969863,34.793573)">
    <line
       class="fil0 str0"
       x1="9.6222897"
       y1="6.7558899"
       x2="9.0813599"
       y2="7.1655402"
       id="line4521" />
  </g>
  <g
     style="clip-rule:evenodd;fill-rule:evenodd;image-rendering:optimizeQuality;shape-rendering:geometricPrecision;text-rendering:geometricPrecision"
     id="g4527"
     transform="matrix(91.744545,0,0,91.744545,41.969863,34.793573)">
    <line
       class="fil0 str0"
       x1="9.0813799"
       y1="6.3462701"
       x2="9.6223097"
       y2="6.7558699"
       id="line4525" />
  </g>
  <g
     style="clip-rule:evenodd;fill-rule:evenodd;image-rendering:optimizeQuality;shape-rendering:geometricPrecision;text-rendering:geometricPrecision"
     id="g4531"
     transform="matrix(91.744545,0,0,91.744545,41.969863,34.793573)">
    <path
       inkscape:connector-curvature="0"
       class="fil1"
       d="M 2.475,5.74045 H 2.174143 l 1.935e-4,-0.00776 5.806e-4,-0.00766 9.676e-4,-0.00757 0.00132,-0.00743 0.00168,-0.0073 0.00203,-0.00716 0.00236,-0.00703 0.00269,-0.00685 0.00302,-0.00668 0.00331,-0.00652 0.00364,-0.00631 0.00391,-0.00613 0.00418,-0.00592 0.00447,-0.00569 0.00474,-0.00548 0.00497,-0.00524 0.00523,-0.00499 0.00546,-0.00476 0.00569,-0.00447 0.00588,-0.00422 0.00612,-0.00393 0.00629,-0.00362 0.00648,-0.00335 0.00668,-0.00302 0.00683,-0.00271 0.00699,-0.00236 0.00714,-0.00203 0.00728,-0.00168 0.00739,-0.00134 0.00753,-9.676e-4 0.00764,-5.806e-4 0.00774,-1.935e-4 0.00774,1.935e-4 0.00764,5.806e-4 0.00753,9.676e-4 0.00739,0.00134 0.00728,0.00168 0.00714,0.00203 0.00699,0.00236 0.00683,0.00271 0.00668,0.00302 0.00648,0.00335 0.00629,0.00362 0.00612,0.00393 0.00588,0.00422 0.00569,0.00447 0.00546,0.00476 0.00523,0.00499 0.00497,0.00524 0.00474,0.00548 0.00447,0.00569 0.00418,0.00592 0.00391,0.00613 0.00364,0.00631 0.00331,0.00652 0.00302,0.00668 0.00269,0.00685 0.00236,0.00703 0.00203,0.00716 0.00168,0.0073 0.00132,0.00743 9.676e-4,0.00757 5.806e-4,0.00766 z M 2.174143,6.74425 V 5.74045 H 2.475 v 1.0038 z m 0,0 H 2.475 l -1.935e-4,0.00776 -5.806e-4,0.00766 -9.676e-4,0.00757 -0.00132,0.00743 -0.00168,0.0073 -0.00203,0.00716 -0.00236,0.00703 -0.00269,0.00685 -0.00302,0.00668 -0.00331,0.00652 -0.00364,0.00631 -0.00391,0.00613 -0.00418,0.00592 -0.00447,0.00569 -0.00474,0.00548 -0.00497,0.00524 -0.00523,0.00499 -0.00546,0.00476 -0.00569,0.00447 -0.00588,0.00422 -0.00612,0.00393 -0.00629,0.00362 -0.00648,0.00335 -0.00668,0.00302 -0.00683,0.00271 -0.00699,0.00236 -0.00714,0.00203 -0.00728,0.00168 -0.00739,0.00134 -0.00753,9.676e-4 -0.00764,5.806e-4 -0.00774,1.935e-4 -0.00774,-1.935e-4 -0.00764,-5.806e-4 L 2.3016583,6.89346 2.2942683,6.89212 2.2869883,6.89044 2.2798483,6.88841 2.2728583,6.88605 2.2660283,6.88334 2.2593483,6.88032 2.2528683,6.87697 2.2465783,6.87335 2.2404583,6.86942 2.2345783,6.8652 2.2288883,6.86073 2.2234283,6.85597 2.2181983,6.85098 2.2132283,6.84574 2.2084883,6.84026 2.2040183,6.83457 2.1998383,6.82865 2.1959283,6.82252 2.1922883,6.81621 2.1889783,6.80969 2.1859583,6.80301 2.1832683,6.79616 2.1809083,6.78913 2.1788783,6.78197 2.1771983,6.77467 2.1758783,6.76724 2.1749107,6.75967 2.1743301,6.75201 Z"
       id="path4529" />
  </g>
  <g
     style="clip-rule:evenodd;fill-rule:evenodd;image-rendering:optimizeQuality;shape-rendering:geometricPrecision;text-rendering:geometricPrecision"
     id="g4535"
     transform="matrix(91.744545,0,0,91.744545,41.969863,34.793573)">
    <path
       inkscape:connector-curvature="0"
       class="fil1"
       d="M 3.34051,0.149906 H 3.039731 l 1.935e-4,-0.007722 5.806e-4,-0.007606 9.676e-4,-0.007489 0.00132,-0.007393 0.00168,-0.007257 0.00201,-0.007102 0.00238,-0.006967 0.00269,-0.0068121 0.003,-0.006638 0.00333,-0.0064638 0.00362,-0.0062703 0.00391,-0.0060767 0.0042,-0.0058832 0.00447,-0.0056703 0.00472,-0.0054381 0.00497,-0.0052059 0.00523,-0.0049543 0.00546,-0.0047221 0.00569,-0.0044511 0.0059,-0.0041802 0.0061,-0.0038899 0.00629,-0.0036189 0.00648,-0.0033093 0.00668,-0.0029997 0.00681,-0.00269002 0.00699,-0.00236103 0.00714,-0.00201268 0.00728,-0.00168368 0.00741,-0.00131598 0.00753,-9.48281e-4 0.00762,-5.8058e-4 0.00774,-1.93527e-4 0.00774,1.93527e-4 0.00762,5.8058e-4 0.00753,9.48281e-4 0.00741,0.00131598 0.00728,0.00168368 0.00714,0.00201268 0.00699,0.00236103 0.00681,0.00269002 0.00668,0.0029997 0.00648,0.0033093 0.00629,0.0036189 0.0061,0.0038899 0.0059,0.0041802 0.00569,0.0044511 0.00546,0.0047221 0.00523,0.0049543 0.00497,0.0052059 0.00472,0.0054381 0.00447,0.0056703 0.0042,0.0058832 0.00391,0.0060767 0.00362,0.0062703 0.00333,0.0064638 0.003,0.006638 0.00269,0.0068121 0.00238,0.006967 0.00201,0.007102 0.00168,0.007257 0.00132,0.007393 9.677e-4,0.007489 5.806e-4,0.007606 z M 3.039731,6.744256 V 0.149906 H 3.34051 v 6.59435 z m 0,0 H 3.34051 l -1.935e-4,0.00772 -5.806e-4,0.00761 -9.676e-4,0.00749 -0.00132,0.00739 -0.00168,0.00726 -0.00201,0.0071 -0.00238,0.00697 -0.00269,0.00681 -0.003,0.00664 -0.00333,0.00646 -0.00362,0.00627 -0.00391,0.00608 -0.0042,0.00588 -0.00447,0.00567 -0.00472,0.00544 -0.00497,0.00521 -0.00523,0.00495 -0.00546,0.00472 -0.00569,0.00445 -0.0059,0.00418 -0.0061,0.00389 -0.00629,0.00362 -0.00648,0.00331 -0.00668,0.003 -0.00681,0.00269 -0.00699,0.00236 -0.00714,0.00201 -0.00728,0.00168 -0.00741,0.00132 -0.00753,9.483e-4 -0.00762,5.806e-4 -0.00774,1.935e-4 -0.00774,-1.935e-4 -0.00762,-5.806e-4 -0.00753,-9.483e-4 -0.00741,-0.00132 -0.00728,-0.00168 -0.00714,-0.00201 -0.00699,-0.00236 -0.00681,-0.00269 -0.00668,-0.003 -0.00648,-0.00331 -0.00629,-0.00362 -0.0061,-0.00389 -0.0059,-0.00418 -0.00569,-0.00445 -0.00546,-0.00472 -0.00523,-0.00495 -0.00497,-0.00521 -0.00472,-0.00544 -0.00447,-0.00567 -0.0042,-0.00588 -0.00391,-0.00608 -0.00362,-0.00627 -0.00333,-0.00646 -0.003,-0.00664 -0.00269,-0.00681 -0.00238,-0.00697 -0.00201,-0.0071 -0.00168,-0.00726 -0.00132,-0.00739 -9.677e-4,-0.00749 -5.806e-4,-0.00761 z"
       id="path4533" />
  </g>
  <g
     style="clip-rule:evenodd;fill-rule:evenodd;image-rendering:optimizeQuality;shape-rendering:geometricPrecision;text-rendering:geometricPrecision"
     id="g4539"
     transform="matrix(91.744545,0,0,91.744545,41.969863,34.793573)">
    <path
       inkscape:connector-curvature="0"
       class="fil1"
       d="M 1.60827,4.98163 H 1.309774 l 1.935e-4,-0.00869 5.806e-4,-0.00859 9.483e-4,-0.00846 0.00132,-0.00832 0.00166,-0.00819 0.00201,-0.00803 0.00234,-0.00784 0.00267,-0.00768 0.003,-0.00749 0.00329,-0.0073 0.0036,-0.00708 0.00387,-0.00685 0.00416,-0.00664 0.00443,-0.00639 0.0047,-0.00613 0.00493,-0.00586 0.00519,-0.00559 0.00542,-0.00532 0.00563,-0.00501 0.00584,-0.00472 0.00606,-0.00439 0.00625,-0.00406 0.00644,-0.00374 0.0066,-0.00339 0.00677,-0.00304 0.00695,-0.00265 0.00708,-0.00228 0.00722,-0.00188 0.00735,-0.00149 0.00747,-0.00108 0.00757,-6.58e-4 0.00768,-2.128e-4 0.00768,2.128e-4 0.00757,6.58e-4 0.00747,0.00108 0.00735,0.00149 0.00722,0.00188 0.00708,0.00228 0.00695,0.00265 0.00677,0.00304 0.0066,0.00339 0.00644,0.00374 0.00625,0.00406 0.00606,0.00439 0.00584,0.00472 0.00563,0.00501 0.00542,0.00532 0.00519,0.00559 0.00493,0.00586 0.0047,0.00613 0.00443,0.00639 0.00416,0.00664 0.00387,0.00685 0.0036,0.00708 0.00329,0.0073 0.003,0.00749 0.00267,0.00768 0.00234,0.00784 0.00201,0.00803 0.00166,0.00819 0.00132,0.00832 9.483e-4,0.00846 5.805e-4,0.00859 z M 1.309774,6.74425 V 4.98163 H 1.60827 v 1.76262 z m 0,0 H 1.60827 l -1.935e-4,0.00869 -5.806e-4,0.00859 -9.483e-4,0.00846 -0.00132,0.00832 -0.00166,0.00819 -0.00201,0.00803 -0.00234,0.00784 -0.00267,0.00768 -0.003,0.00749 -0.00329,0.0073 -0.0036,0.00708 -0.00387,0.00685 -0.00416,0.00664 -0.00443,0.00639 -0.0047,0.00613 -0.00493,0.00586 -0.00519,0.00559 -0.00542,0.00532 -0.00563,0.00501 -0.00584,0.00472 -0.00606,0.00439 -0.00625,0.00406 -0.00644,0.00374 -0.0066,0.00339 -0.00677,0.00304 -0.00695,0.00265 -0.00708,0.00228 -0.00722,0.00188 -0.00735,0.00149 -0.00747,0.00108 -0.00757,6.58e-4 -0.00768,2.128e-4 -0.00768,-2.128e-4 -0.00757,-6.58e-4 -0.00747,-0.00108 -0.00735,-0.00149 -0.00722,-0.00188 -0.00708,-0.00228 -0.00695,-0.00265 -0.00677,-0.00304 -0.0066,-0.00339 -0.00644,-0.00374 -0.00625,-0.00406 -0.00606,-0.00439 -0.00584,-0.00472 -0.00563,-0.00501 -0.00542,-0.00532 -0.00519,-0.00559 -0.00493,-0.00586 -0.0047,-0.00613 -0.00443,-0.00639 -0.00416,-0.00664 -0.00387,-0.00685 -0.0036,-0.00708 -0.00329,-0.0073 -0.003,-0.00749 L 1.3188776,6.80237 1.3165376,6.79453 1.3145276,6.7865 1.3128676,6.77831 1.3115476,6.76999 1.3105993,6.76153 1.3100188,6.75294 Z"
       id="path4537" />
  </g>
  <g
     style="clip-rule:evenodd;fill-rule:evenodd;image-rendering:optimizeQuality;shape-rendering:geometricPrecision;text-rendering:geometricPrecision"
     id="g4543"
     transform="matrix(91.744545,0,0,91.744545,41.969863,34.793573)">
    <path
       inkscape:connector-curvature="0"
       class="fil1"
       d="M 4.20609,5.74045 H 3.905233 l 1.935e-4,-0.00776 5.806e-4,-0.00766 9.676e-4,-0.00757 0.00132,-0.00743 0.00168,-0.0073 0.00203,-0.00716 0.00236,-0.00703 0.00269,-0.00685 0.00302,-0.00668 0.00331,-0.00652 0.00364,-0.00631 0.00391,-0.00613 0.00418,-0.00592 0.00447,-0.00569 0.00474,-0.00548 0.00497,-0.00524 0.00523,-0.00499 0.00546,-0.00476 0.00569,-0.00447 0.00588,-0.00422 0.00612,-0.00393 0.00629,-0.00362 0.00648,-0.00335 0.00668,-0.00302 0.00683,-0.00271 0.00699,-0.00236 0.00714,-0.00203 0.00728,-0.00168 0.00739,-0.00134 0.00753,-9.676e-4 0.00764,-5.806e-4 0.00774,-1.935e-4 0.00774,1.935e-4 0.00764,5.806e-4 0.00753,9.676e-4 0.00739,0.00134 0.00728,0.00168 0.00714,0.00203 0.00699,0.00236 0.00683,0.00271 0.00668,0.00302 0.00648,0.00335 0.00629,0.00362 0.00612,0.00393 0.00588,0.00422 0.00569,0.00447 0.00546,0.00476 0.00523,0.00499 0.00497,0.00524 0.00474,0.00548 0.00447,0.00569 0.00418,0.00592 0.00391,0.00613 0.00364,0.00631 0.00331,0.00652 0.00302,0.00668 0.00269,0.00685 0.00236,0.00703 0.00203,0.00716 0.00168,0.0073 0.00132,0.00743 9.676e-4,0.00757 5.806e-4,0.00766 z M 3.905233,6.74425 V 5.74045 H 4.20609 v 1.0038 z m 0,0 H 4.20609 l -1.935e-4,0.00776 -5.806e-4,0.00766 -9.676e-4,0.00757 -0.00132,0.00743 -0.00168,0.0073 -0.00203,0.00716 -0.00236,0.00703 -0.00269,0.00685 -0.00302,0.00668 -0.00331,0.00652 -0.00364,0.00631 -0.00391,0.00613 -0.00418,0.00592 -0.00447,0.00569 -0.00474,0.00548 -0.00497,0.00524 -0.00523,0.00499 -0.00546,0.00476 -0.00569,0.00447 -0.00588,0.00422 -0.00612,0.00393 -0.00629,0.00362 -0.00648,0.00335 -0.00668,0.00302 -0.00683,0.00271 -0.00699,0.00236 -0.00714,0.00203 -0.00728,0.00168 -0.00739,0.00134 -0.00753,9.676e-4 -0.00764,5.806e-4 -0.00774,1.935e-4 -0.00774,-1.935e-4 -0.00764,-5.806e-4 L 4.0327483,6.89346 4.0253583,6.89212 4.0180783,6.89044 4.0109383,6.88841 4.0039483,6.88605 3.9971183,6.88334 3.9904383,6.88032 3.9839583,6.87697 3.9776683,6.87335 3.9715483,6.86942 3.9656683,6.8652 3.9599783,6.86073 3.9545183,6.85597 3.9492883,6.85098 3.9443183,6.84574 3.9395783,6.84026 3.9351083,6.83457 3.9309283,6.82865 3.9270183,6.82252 3.9233783,6.81621 3.9200683,6.80969 3.9170483,6.80301 3.9143583,6.79616 3.9119983,6.78913 3.9099683,6.78197 3.9082883,6.77467 3.9069683,6.76724 3.9060007,6.75967 3.9054201,6.75201 Z"
       id="path4541" />
  </g>
  <g
     style="clip-rule:evenodd;fill-rule:evenodd;image-rendering:optimizeQuality;shape-rendering:geometricPrecision;text-rendering:geometricPrecision"
     id="g4547"
     transform="matrix(91.744545,0,0,91.744545,41.969863,34.793573)">
    <path
       inkscape:connector-curvature="0"
       class="fil1"
       d="M 5.93719,5.74045 H 5.636333 l 1.935e-4,-0.00776 5.806e-4,-0.00766 9.676e-4,-0.00757 0.00132,-0.00743 0.00168,-0.0073 0.00203,-0.00716 0.00236,-0.00703 0.00269,-0.00685 0.00302,-0.00668 0.00331,-0.00652 0.00364,-0.00631 0.00391,-0.00613 0.00418,-0.00592 0.00447,-0.00569 0.00474,-0.00548 0.00497,-0.00524 0.00523,-0.00499 0.00546,-0.00476 0.00569,-0.00447 0.00588,-0.00422 0.00612,-0.00393 0.00629,-0.00362 0.00648,-0.00335 0.00668,-0.00302 0.00683,-0.00271 0.00699,-0.00236 0.00714,-0.00203 0.00728,-0.00168 0.00739,-0.00134 0.00753,-9.676e-4 0.00764,-5.806e-4 0.00774,-1.935e-4 0.00774,1.935e-4 0.00764,5.806e-4 0.00753,9.676e-4 0.00739,0.00134 0.00728,0.00168 0.00714,0.00203 0.00699,0.00236 0.00683,0.00271 0.00668,0.00302 0.00648,0.00335 0.00629,0.00362 0.00612,0.00393 0.00588,0.00422 0.00569,0.00447 0.00546,0.00476 0.00523,0.00499 0.00497,0.00524 0.00474,0.00548 0.00447,0.00569 0.00418,0.00592 0.00391,0.00613 0.00364,0.00631 0.00331,0.00652 0.00302,0.00668 0.00269,0.00685 0.00236,0.00703 0.00203,0.00716 0.00168,0.0073 0.00132,0.00743 9.676e-4,0.00757 5.806e-4,0.00766 z M 5.636333,6.74425 V 5.74045 H 5.93719 v 1.0038 z m 0,0 H 5.93719 l -1.935e-4,0.00776 -5.806e-4,0.00766 -9.676e-4,0.00757 -0.00132,0.00743 -0.00168,0.0073 -0.00203,0.00716 -0.00236,0.00703 -0.00269,0.00685 -0.00302,0.00668 -0.00331,0.00652 -0.00364,0.00631 -0.00391,0.00613 -0.00418,0.00592 -0.00447,0.00569 -0.00474,0.00548 -0.00497,0.00524 -0.00523,0.00499 -0.00546,0.00476 -0.00569,0.00447 -0.00588,0.00422 -0.00612,0.00393 -0.00629,0.00362 -0.00648,0.00335 -0.00668,0.00302 -0.00683,0.00271 -0.00699,0.00236 -0.00714,0.00203 -0.00728,0.00168 -0.00739,0.00134 -0.00753,9.676e-4 -0.00764,5.806e-4 -0.00774,1.935e-4 -0.00774,-1.935e-4 -0.00764,-5.806e-4 L 5.7638483,6.89346 5.7564583,6.89212 5.7491783,6.89044 5.7420383,6.88841 5.7350483,6.88605 5.7282183,6.88334 5.7215383,6.88032 5.7150583,6.87697 5.7087683,6.87335 5.7026483,6.86942 5.6967683,6.8652 5.6910783,6.86073 5.6856183,6.85597 5.6803883,6.85098 5.6754183,6.84574 5.6706783,6.84026 5.6662083,6.83457 5.6620283,6.82865 5.6581183,6.82252 5.6544783,6.81621 5.6511683,6.80969 5.6481483,6.80301 5.6454583,6.79616 5.6430983,6.78913 5.6410683,6.78197 5.6393883,6.77467 5.6380683,6.76724 5.6371007,6.75967 5.6365201,6.75201 Z"
       id="path4545" />
  </g>
  <g
     style="clip-rule:evenodd;fill-rule:evenodd;image-rendering:optimizeQuality;shape-rendering:geometricPrecision;text-rendering:geometricPrecision"
     id="g4551"
     transform="matrix(91.744545,0,0,91.744545,41.969863,34.793573)">
    <path
       inkscape:connector-curvature="0"
       class="fil1"
       d="M 6.80274,5.74045 H 6.501883 l 1.935e-4,-0.00776 5.806e-4,-0.00766 9.676e-4,-0.00757 0.00132,-0.00743 0.00168,-0.0073 0.00203,-0.00716 0.00236,-0.00703 0.00269,-0.00685 0.00302,-0.00668 0.00331,-0.00652 0.00364,-0.00631 0.00391,-0.00613 0.00418,-0.00592 0.00447,-0.00569 0.00474,-0.00548 0.00497,-0.00524 0.00523,-0.00499 0.00546,-0.00476 0.00569,-0.00447 0.00588,-0.00422 0.00612,-0.00393 0.00629,-0.00362 0.00648,-0.00335 0.00668,-0.00302 0.00683,-0.00271 0.00699,-0.00236 0.00714,-0.00203 0.00728,-0.00168 0.00739,-0.00134 0.00753,-9.676e-4 0.00764,-5.806e-4 0.00774,-1.935e-4 0.00774,1.935e-4 0.00764,5.806e-4 0.00753,9.676e-4 0.00739,0.00134 0.00728,0.00168 0.00714,0.00203 0.00699,0.00236 0.00683,0.00271 0.00668,0.00302 0.00648,0.00335 0.00629,0.00362 0.00612,0.00393 0.00588,0.00422 0.00569,0.00447 0.00546,0.00476 0.00523,0.00499 0.00497,0.00524 0.00474,0.00548 0.00447,0.00569 0.00418,0.00592 0.00391,0.00613 0.00364,0.00631 0.00331,0.00652 0.00302,0.00668 0.00269,0.00685 0.00236,0.00703 0.00203,0.00716 0.00168,0.0073 0.00132,0.00743 9.676e-4,0.00757 5.806e-4,0.00766 z M 6.501883,6.74425 V 5.74045 H 6.80274 v 1.0038 z m 0,0 H 6.80274 l -1.935e-4,0.00776 -5.806e-4,0.00766 -9.676e-4,0.00757 -0.00132,0.00743 -0.00168,0.0073 -0.00203,0.00716 -0.00236,0.00703 -0.00269,0.00685 -0.00302,0.00668 -0.00331,0.00652 -0.00364,0.00631 -0.00391,0.00613 -0.00418,0.00592 -0.00447,0.00569 -0.00474,0.00548 -0.00497,0.00524 -0.00523,0.00499 -0.00546,0.00476 -0.00569,0.00447 -0.00588,0.00422 -0.00612,0.00393 -0.00629,0.00362 -0.00648,0.00335 -0.00668,0.00302 -0.00683,0.00271 -0.00699,0.00236 -0.00714,0.00203 -0.00728,0.00168 -0.00739,0.00134 -0.00753,9.676e-4 -0.00764,5.806e-4 -0.00774,1.935e-4 -0.00774,-1.935e-4 -0.00764,-5.806e-4 L 6.6293983,6.89346 6.6220083,6.89212 6.6147283,6.89044 6.6075883,6.88841 6.6005983,6.88605 6.5937683,6.88334 6.5870883,6.88032 6.5806083,6.87697 6.5743183,6.87335 6.5681983,6.86942 6.5623183,6.8652 6.5566283,6.86073 6.5511683,6.85597 6.5459383,6.85098 6.5409683,6.84574 6.5362283,6.84026 6.5317583,6.83457 6.5275783,6.82865 6.5236683,6.82252 6.5200283,6.81621 6.5167183,6.80969 6.5136983,6.80301 6.5110083,6.79616 6.5086483,6.78913 6.5066183,6.78197 6.5049383,6.77467 6.5036183,6.76724 6.5026507,6.75967 6.5020701,6.75201 Z"
       id="path4549" />
  </g>
  <g
     style="clip-rule:evenodd;fill-rule:evenodd;image-rendering:optimizeQuality;shape-rendering:geometricPrecision;text-rendering:geometricPrecision"
     id="g4555"
     transform="matrix(91.744545,0,0,91.744545,41.969863,34.793573)">
    <path
       inkscape:connector-curvature="0"
       class="fil1"
       d="M 0.743898,5.74045 H 0.443041 l 1.9353e-4,-0.00776 5.8058e-4,-0.00766 9.6763e-4,-0.00757 0.001316,-0.00743 0.001684,-0.0073 0.002032,-0.00716 0.002361,-0.00703 0.00269,-0.00685 0.003019,-0.00668 0.003309,-0.00652 0.003638,-0.00631 0.003909,-0.00613 0.00418,-0.00592 0.00447,-0.00569 0.004741,-0.00548 0.004974,-0.00524 0.005225,-0.00499 0.005457,-0.00476 0.00569,-0.00447 0.005883,-0.00422 0.006115,-0.00393 0.00629,-0.00362 0.006483,-0.00335 0.006677,-0.00302 0.006831,-0.00271 0.006986,-0.00236 0.007141,-0.00203 0.007277,-0.00168 0.007393,-0.00134 0.007528,-9.676e-4 0.007644,-5.806e-4 0.007741,-1.935e-4 0.007741,1.935e-4 0.007644,5.806e-4 0.007528,9.676e-4 0.007393,0.00134 0.007277,0.00168 0.007141,0.00203 0.006986,0.00236 0.006831,0.00271 0.006677,0.00302 0.006483,0.00335 0.00629,0.00362 0.006115,0.00393 0.005883,0.00422 0.00569,0.00447 0.005457,0.00476 0.005225,0.00499 0.004974,0.00524 0.004741,0.00548 0.00447,0.00569 0.00418,0.00592 0.003909,0.00613 0.003638,0.00631 0.003309,0.00652 0.003019,0.00668 0.00269,0.00685 0.002361,0.00703 0.002032,0.00716 0.001684,0.0073 0.001316,0.00743 9.6763e-4,0.00757 5.8058e-4,0.00766 z m -0.300857,1.0038 v -1.0038 h 0.300857 v 1.0038 z m 0,0 h 0.300857 l -1.9353e-4,0.00776 -5.8058e-4,0.00766 -9.6763e-4,0.00757 -0.001316,0.00743 -0.001684,0.0073 -0.002032,0.00716 -0.002361,0.00703 -0.00269,0.00685 -0.003019,0.00668 -0.003309,0.00652 -0.003638,0.00631 -0.003909,0.00613 -0.00418,0.00592 -0.00447,0.00569 -0.004741,0.00548 -0.004974,0.00524 -0.005225,0.00499 -0.005457,0.00476 -0.00569,0.00447 -0.005883,0.00422 -0.006115,0.00393 -0.00629,0.00362 -0.006483,0.00335 -0.006677,0.00302 -0.006831,0.00271 -0.006986,0.00236 -0.007141,0.00203 -0.007277,0.00168 -0.007393,0.00134 -0.007528,9.676e-4 -0.007644,5.806e-4 -0.007741,1.935e-4 -0.007741,-1.935e-4 -0.007644,-5.806e-4 -0.007528,-9.676e-4 -0.007393,-0.00134 -0.007277,-0.00168 -0.007141,-0.00203 -0.006986,-0.00236 -0.006831,-0.00271 -0.006677,-0.00302 -0.006483,-0.00335 -0.00629,-0.00362 -0.006115,-0.00393 -0.005883,-0.00422 -0.00569,-0.00447 -0.005457,-0.00476 -0.005225,-0.00499 -0.004974,-0.00524 -0.004741,-0.00548 -0.00447,-0.00569 -0.00418,-0.00592 -0.003909,-0.00613 -0.003638,-0.00631 -0.003309,-0.00652 -0.003019,-0.00668 -0.00269,-0.00685 -0.002361,-0.00703 -0.002032,-0.00716 -0.001684,-0.0073 -0.001316,-0.00743 -9.6763e-4,-0.00757 -5.8058e-4,-0.00766 z"
       id="path4553" />
  </g>
  <g
     style="clip-rule:evenodd;fill-rule:evenodd;image-rendering:optimizeQuality;shape-rendering:geometricPrecision;text-rendering:geometricPrecision"
     id="g4559"
     transform="matrix(91.744545,0,0,91.744545,41.969863,34.793573)">
    <path
       inkscape:connector-curvature="0"
       class="fil1"
       d="M 5.07046,4.98163 H 4.771964 l 1.935e-4,-0.00869 5.806e-4,-0.00859 9.483e-4,-0.00846 0.00132,-0.00832 0.00166,-0.00819 0.00201,-0.00803 0.00234,-0.00784 0.00267,-0.00768 0.003,-0.00749 0.00329,-0.0073 0.0036,-0.00708 0.00387,-0.00685 0.00416,-0.00664 0.00443,-0.00639 0.0047,-0.00613 0.00493,-0.00586 0.00519,-0.00559 0.00542,-0.00532 0.00563,-0.00501 0.00584,-0.00472 0.00606,-0.00439 0.00625,-0.00406 0.00644,-0.00374 0.0066,-0.00339 0.00677,-0.00304 0.00695,-0.00265 0.00708,-0.00228 0.00722,-0.00188 0.00735,-0.00149 0.00747,-0.00108 0.00757,-6.58e-4 0.00768,-2.128e-4 0.00768,2.128e-4 0.00757,6.58e-4 0.00747,0.00108 0.00735,0.00149 0.00722,0.00188 0.00708,0.00228 0.00695,0.00265 0.00677,0.00304 0.0066,0.00339 0.00644,0.00374 0.00625,0.00406 0.00606,0.00439 0.00584,0.00472 0.00563,0.00501 0.00542,0.00532 0.00519,0.00559 0.00493,0.00586 0.0047,0.00613 0.00443,0.00639 0.00416,0.00664 0.00387,0.00685 0.0036,0.00708 0.00329,0.0073 0.003,0.00749 0.00267,0.00768 0.00234,0.00784 0.00201,0.00803 0.00166,0.00819 0.00132,0.00832 9.483e-4,0.00846 5.805e-4,0.00859 z M 4.771964,6.74425 V 4.98163 H 5.07046 v 1.76262 z m 0,0 H 5.07046 l -1.935e-4,0.00869 -5.806e-4,0.00859 -9.483e-4,0.00846 -0.00132,0.00832 -0.00166,0.00819 -0.00201,0.00803 -0.00234,0.00784 -0.00267,0.00768 -0.003,0.00749 -0.00329,0.0073 -0.0036,0.00708 -0.00387,0.00685 -0.00416,0.00664 -0.00443,0.00639 -0.0047,0.00613 -0.00493,0.00586 -0.00519,0.00559 -0.00542,0.00532 -0.00563,0.00501 -0.00584,0.00472 -0.00606,0.00439 -0.00625,0.00406 -0.00644,0.00374 -0.0066,0.00339 -0.00677,0.00304 -0.00695,0.00265 -0.00708,0.00228 -0.00722,0.00188 -0.00735,0.00149 -0.00747,0.00108 -0.00757,6.58e-4 -0.00768,2.128e-4 -0.00768,-2.128e-4 -0.00757,-6.58e-4 -0.00747,-0.00108 -0.00735,-0.00149 -0.00722,-0.00188 -0.00708,-0.00228 -0.00695,-0.00265 -0.00677,-0.00304 -0.0066,-0.00339 -0.00644,-0.00374 -0.00625,-0.00406 -0.00606,-0.00439 -0.00584,-0.00472 -0.00563,-0.00501 -0.00542,-0.00532 -0.00519,-0.00559 -0.00493,-0.00586 -0.0047,-0.00613 -0.00443,-0.00639 -0.00416,-0.00664 -0.00387,-0.00685 -0.0036,-0.00708 -0.00329,-0.0073 -0.003,-0.00749 L 4.7810676,6.80237 4.7787276,6.79453 4.7767176,6.7865 4.7750576,6.77831 4.7737376,6.76999 4.7727893,6.76153 4.7722088,6.75294 Z"
       id="path4557" />
  </g>
  <g
     style="clip-rule:evenodd;fill-rule:evenodd;image-rendering:optimizeQuality;shape-rendering:geometricPrecision;text-rendering:geometricPrecision"
     id="g4563"
     transform="matrix(91.744545,0,0,91.744545,41.969863,34.793573)">
    <path
       inkscape:connector-curvature="0"
       class="fil1"
       d="M 7.66711,4.98163 H 7.368614 l 1.935e-4,-0.00869 5.806e-4,-0.00859 9.483e-4,-0.00846 0.00132,-0.00832 0.00166,-0.00819 0.00201,-0.00803 0.00234,-0.00784 0.00267,-0.00768 0.003,-0.00749 0.00329,-0.0073 0.0036,-0.00708 0.00387,-0.00685 0.00416,-0.00664 0.00443,-0.00639 0.0047,-0.00613 0.00493,-0.00586 0.00519,-0.00559 0.00542,-0.00532 0.00563,-0.00501 0.00584,-0.00472 0.00606,-0.00439 0.00625,-0.00406 0.00644,-0.00374 0.0066,-0.00339 0.00677,-0.00304 0.00695,-0.00265 0.00708,-0.00228 0.00722,-0.00188 0.00735,-0.00149 0.00747,-0.00108 0.00757,-6.58e-4 0.00768,-2.128e-4 0.00768,2.128e-4 0.00757,6.58e-4 0.00747,0.00108 0.00735,0.00149 0.00722,0.00188 0.00708,0.00228 0.00695,0.00265 0.00677,0.00304 0.0066,0.00339 0.00644,0.00374 0.00625,0.00406 0.00606,0.00439 0.00584,0.00472 0.00563,0.00501 0.00542,0.00532 0.00519,0.00559 0.00493,0.00586 0.0047,0.00613 0.00443,0.00639 0.00416,0.00664 0.00387,0.00685 0.0036,0.00708 0.00329,0.0073 0.003,0.00749 0.00267,0.00768 0.00234,0.00784 0.00201,0.00803 0.00166,0.00819 0.00132,0.00832 9.483e-4,0.00846 5.805e-4,0.00859 z M 7.368614,6.74425 V 4.98163 H 7.66711 v 1.76262 z m 0,0 H 7.66711 l -1.935e-4,0.00869 -5.806e-4,0.00859 -9.483e-4,0.00846 -0.00132,0.00832 -0.00166,0.00819 -0.00201,0.00803 -0.00234,0.00784 -0.00267,0.00768 -0.003,0.00749 -0.00329,0.0073 -0.0036,0.00708 -0.00387,0.00685 -0.00416,0.00664 -0.00443,0.00639 -0.0047,0.00613 -0.00493,0.00586 -0.00519,0.00559 -0.00542,0.00532 -0.00563,0.00501 -0.00584,0.00472 -0.00606,0.00439 -0.00625,0.00406 -0.00644,0.00374 -0.0066,0.00339 -0.00677,0.00304 -0.00695,0.00265 -0.00708,0.00228 -0.00722,0.00188 -0.00735,0.00149 -0.00747,0.00108 -0.00757,6.58e-4 -0.00768,2.128e-4 -0.00768,-2.128e-4 -0.00757,-6.58e-4 -0.00747,-0.00108 -0.00735,-0.00149 -0.00722,-0.00188 -0.00708,-0.00228 -0.00695,-0.00265 -0.00677,-0.00304 -0.0066,-0.00339 -0.00644,-0.00374 -0.00625,-0.00406 -0.00606,-0.00439 -0.00584,-0.00472 -0.00563,-0.00501 -0.00542,-0.00532 -0.00519,-0.00559 -0.00493,-0.00586 -0.0047,-0.00613 -0.00443,-0.00639 -0.00416,-0.00664 -0.00387,-0.00685 -0.0036,-0.00708 -0.00329,-0.0073 -0.003,-0.00749 L 7.3777176,6.80237 7.3753776,6.79453 7.3733676,6.7865 7.3717076,6.77831 7.3703876,6.76999 7.3694393,6.76153 7.3688588,6.75294 Z"
       id="path4561" />
  </g>
  <path
     style="clip-rule:evenodd;fill-rule:evenodd;stroke-width:91.74454498;image-rendering:optimizeQuality;shape-rendering:geometricPrecision;text-rendering:geometricPrecision"
     inkscape:connector-curvature="0"
     class="fil1"
     d="m 646.43247,807.29365 v 33.59786 c 0,5.30871 -1.20204,9.29125 -3.60428,11.94734 -2.43242,2.65436 -5.59284,3.98245 -9.5451,3.98245 -3.85465,0 -6.95286,-1.32809 -9.32317,-3.98245 -2.37032,-2.65618 -3.57235,-6.63863 -3.57235,-11.94734 v -40.26842 c 0,-6.38294 -0.22019,-11.31348 -0.6624,-14.82188 -0.41193,-3.50841 -1.58195,-6.41671 -3.5084,-8.66087 -1.89801,-2.24426 -4.93054,-3.38235 -9.07106,-3.38235 -8.28095,0 -13.71755,2.84436 -16.34172,8.53481 -2.62243,5.65679 -3.95052,13.81169 -3.95052,24.43093 v 34.16778 c 0,5.2466 -1.2002,9.22905 -3.57226,11.91542 -2.37031,2.68637 -5.49871,4.01437 -9.38713,4.01437 -3.82446,0 -6.95286,-1.32809 -9.38711,-4.01437 -2.43243,-2.68637 -3.66639,-6.66882 -3.66639,-11.91542 v -72.31626 c 0,-4.74237 1.10616,-8.37683 3.28821,-10.84118 2.18031,-2.46618 5.08862,-3.6984 8.65913,-3.6984 3.44629,0 6.32257,1.17002 8.66087,3.47647 2.30636,2.30811 3.47647,5.50055 3.47647,9.57703 v 2.40224 c 4.36246,-5.24659 9.07106,-9.10298 14.06554,-11.56743 4.99274,-2.46618 10.5554,-3.6984 16.68797,-3.6984 6.35276,0 11.82128,1.26415 16.40383,3.79244 4.55062,2.5283 8.31288,6.35276 11.2833,11.4733 4.26658,-5.18274 8.81894,-9.00711 13.71755,-11.50522 4.86668,-2.49637 10.27126,-3.76052 16.1819,-3.76052 6.92268,0 12.86351,1.35828 17.85799,4.07658 4.99448,2.7183 8.72307,6.60661 11.18925,11.6633 2.18031,4.55062 3.25455,11.75734 3.25455,21.58657 v 49.33948 c 0,5.3088 -1.2002,9.29125 -3.60253,11.94734 -2.40224,2.65436 -5.59459,3.98245 -9.54511,3.98245 -3.82446,0 -6.95286,-1.32809 -9.38712,-4.01437 -2.43425,-2.68637 -3.66638,-6.66882 -3.66638,-11.91542 v -42.51084 c 0,-5.4366 -0.22202,-9.76703 -0.69634,-13.05351 -0.47432,-3.25629 -1.70627,-6.00651 -3.72859,-8.25077 -2.05426,-2.21223 -5.12054,-3.3184 -9.26106,-3.3184 -3.35033,0 -6.51075,0.98011 -9.483,2.97216 -3.00234,1.95838 -5.3087,4.61457 -6.98488,7.96315 -1.86424,4.2364 -2.78041,11.78936 -2.78041,22.60035 z m 119.5358,-72.03213 -25.91701,106.73652 c -0.88625,3.53859 -1.64415,6.28882 -2.27618,8.34307 -0.66423,2.02232 -1.64415,3.63446 -2.97041,4.77255 -1.3281,1.13809 -3.25629,1.70801 -5.78459,1.70801 -6.29065,0 -9.45097,-2.7183 -9.45097,-8.1549 0,-1.42222 0.63212,-4.96255 1.86608,-10.65127 l 25.82114,-106.73652 c 1.36002,-5.68871 2.65619,-9.57703 3.88832,-11.6633 1.26414,-2.11819 3.66638,-3.16041 7.23873,-3.16041 3.09647,0 5.46678,0.72661 7.07892,2.21223 1.64415,1.48608 2.46618,3.54033 2.46618,6.13258 0,1.89626 -0.66423,5.40467 -1.96021,10.46131 z m 86.12785,47.75744 -46.30338,51.77191 h 49.52765 c 4.01438,0 7.04874,0.94809 9.07106,2.81243 2.05425,1.89626 3.06629,4.33043 3.06629,7.27066 0,2.84436 -1.01204,5.15072 -3.00234,6.95286 -2.02233,1.80214 -5.0566,2.68637 -9.13501,2.68637 h -68.52198 c -4.80448,0 -8.40875,-1.04222 -10.77907,-3.16041 -2.37031,-2.08618 -3.57051,-4.96256 -3.57051,-8.59702 0,-2.15012 0.82203,-4.33043 2.49637,-6.54276 1.67434,-2.18031 5.12054,-6.19468 10.36713,-12.0734 5.56266,-6.1645 10.61925,-11.75734 15.13969,-16.75191 4.55062,-4.99448 8.755,-9.67116 12.64157,-14.03361 3.88832,-4.36236 7.11268,-8.02701 9.6729,-11.06137 2.56032,-3.03436 4.61457,-5.6266 6.16276,-7.77672 h -37.58031 c -5.18265,0 -9.10299,-0.47432 -11.75734,-1.39021 -2.65435,-0.91653 -3.98245,-3.35033 -3.98245,-7.30085 0,-2.9083 0.98011,-5.21466 3.00234,-6.95286 1.99031,-1.73819 4.86669,-2.59224 8.565,-2.59224 h 58.06246 c 5.37265,0 9.48116,0.78992 12.35753,2.37031 2.87629,1.54828 4.29851,4.39255 4.29851,8.47096 0,1.35828 -0.28441,2.75023 -0.82203,4.20263 -0.5679,1.45416 -1.17002,2.62417 -1.86425,3.57235 -0.66423,0.91653 -1.61214,2.05426 -2.78225,3.38235 -1.16827,1.32626 -2.62242,2.9083 -4.33043,4.74062 z"
     id="path4565" />
  <g
     style="clip-rule:evenodd;fill-rule:evenodd;image-rendering:optimizeQuality;shape-rendering:geometricPrecision;text-rendering:geometricPrecision"
     id="g4569"
     transform="matrix(91.744545,0,0,91.744545,41.969863,34.793573)">
    <path
       inkscape:connector-curvature="0"
       class="fil1"
       d="M 8.53384,5.74045 H 8.232983 l 1.935e-4,-0.00776 5.806e-4,-0.00766 9.676e-4,-0.00757 0.00132,-0.00743 0.00168,-0.0073 0.00203,-0.00716 0.00236,-0.00703 0.00269,-0.00685 0.00302,-0.00668 0.00331,-0.00652 0.00364,-0.00631 0.00391,-0.00613 0.00418,-0.00592 0.00447,-0.00569 0.00474,-0.00548 0.00497,-0.00524 0.00523,-0.00499 0.00546,-0.00476 0.00569,-0.00447 0.00588,-0.00422 0.00612,-0.00393 0.00629,-0.00362 0.00648,-0.00335 0.00668,-0.00302 0.00683,-0.00271 0.00699,-0.00236 0.00714,-0.00203 0.00728,-0.00168 0.00739,-0.00134 0.00753,-9.676e-4 0.00764,-5.806e-4 0.00774,-1.935e-4 0.00774,1.935e-4 0.00764,5.806e-4 0.00753,9.676e-4 0.00739,0.00134 0.00728,0.00168 0.00714,0.00203 0.00699,0.00236 0.00683,0.00271 0.00668,0.00302 0.00648,0.00335 0.00629,0.00362 0.00612,0.00393 0.00588,0.00422 0.00569,0.00447 0.00546,0.00476 0.00523,0.00499 0.00497,0.00524 0.00474,0.00548 0.00447,0.00569 0.00418,0.00592 0.00391,0.00613 0.00364,0.00631 0.00331,0.00652 0.00302,0.00668 0.00269,0.00685 0.00236,0.00703 0.00203,0.00716 0.00168,0.0073 0.00132,0.00743 9.676e-4,0.00757 5.806e-4,0.00766 z M 8.232983,6.74425 V 5.74045 H 8.53384 v 1.0038 z m 0,0 H 8.53384 l -1.935e-4,0.00776 -5.806e-4,0.00766 -9.676e-4,0.00757 -0.00132,0.00743 -0.00168,0.0073 -0.00203,0.00716 -0.00236,0.00703 -0.00269,0.00685 -0.00302,0.00668 -0.00331,0.00652 -0.00364,0.00631 -0.00391,0.00613 -0.00418,0.00592 -0.00447,0.00569 -0.00474,0.00548 -0.00497,0.00524 -0.00523,0.00499 -0.00546,0.00476 -0.00569,0.00447 -0.00588,0.00422 -0.00612,0.00393 -0.00629,0.00362 -0.00648,0.00335 -0.00668,0.00302 -0.00683,0.00271 -0.00699,0.00236 -0.00714,0.00203 -0.00728,0.00168 -0.00739,0.00134 -0.00753,9.676e-4 -0.00764,5.806e-4 -0.00774,1.935e-4 -0.00774,-1.935e-4 -0.00764,-5.806e-4 L 8.3604983,6.89346 8.3531083,6.89212 8.3458283,6.89044 8.3386883,6.88841 8.3316983,6.88605 8.3248683,6.88334 8.3181883,6.88032 8.3117083,6.87697 8.3054183,6.87335 8.2992983,6.86942 8.2934183,6.8652 8.2877283,6.86073 8.2822683,6.85597 8.2770383,6.85098 8.2720683,6.84574 8.2673283,6.84026 8.2628583,6.83457 8.2586783,6.82865 8.2547683,6.82252 8.2511283,6.81621 8.2478183,6.80969 8.2447983,6.80301 8.2421083,6.79616 8.2397483,6.78913 8.2377183,6.78197 8.2360383,6.77467 8.2347183,6.76724 8.2337507,6.75967 8.2331701,6.75201 Z"
       id="path4567" />
  </g>
</svg>
