<?xml version="1.0" encoding="UTF-8" standalone="no"?>
<!-- Created with Inkscape (http://www.inkscape.org/) -->

<svg stroke="currentColor" fill="currentColor"
   xmlns:dc="http://purl.org/dc/elements/1.1/"
   xmlns:cc="http://creativecommons.org/ns#"
   xmlns:rdf="http://www.w3.org/1999/02/22-rdf-syntax-ns#"
   xmlns:svg="http://www.w3.org/2000/svg"
   xmlns="http://www.w3.org/2000/svg"
   xmlns:sodipodi="http://sodipodi.sourceforge.net/DTD/sodipodi-0.dtd"
   xmlns:inkscape="http://www.inkscape.org/namespaces/inkscape"
   width="1000"
   height="1000"
   id="svg4152"
   version="1.1"
   inkscape:version="0.91 r13725"
   viewBox="0 0 1000 1000"
   sodipodi:docname="mass-monoisotopic.svg">
  <defs
     id="defs5498">
    <marker
       inkscape:isstock="true"
       style="overflow:visible"
       id="marker4233"
       refX="0.0"
       refY="0.0"
       orient="auto"
       inkscape:stockid="TriangleOutL">
      <path
         transform="scale(0.8)"
         style="fill-rule:evenodd;stroke:#000000;stroke-width:1pt;stroke-opacity:1;fill:#000000;fill-opacity:1"
         d="M 5.77,0.0 L -2.88,5.0 L -2.88,-5.0 L 5.77,0.0 z "
         id="path4235" />
    </marker>
    <marker
       inkscape:isstock="true"
       style="overflow:visible"
       id="marker4755"
       refX="0.0"
       refY="0.0"
       orient="auto"
       inkscape:stockid="TriangleOutL">
      <path
         transform="scale(0.8)"
         style="fill-rule:evenodd;stroke:#000000;stroke-width:1pt;stroke-opacity:1;fill:#000000;fill-opacity:1"
         d="M 5.77,0.0 L -2.88,5.0 L -2.88,-5.0 L 5.77,0.0 z "
         id="path4757" />
    </marker>
    <marker
       inkscape:stockid="Arrow1Lend"
       orient="auto"
       refY="0.0"
       refX="0.0"
       id="Arrow1Lend"
       style="overflow:visible;"
       inkscape:isstock="true">
      <path
         id="path4164"
         d="M 0.0,0.0 L 5.0,-5.0 L -12.5,0.0 L 5.0,5.0 L 0.0,0.0 z "
         style="fill-rule:evenodd;stroke:#000000;stroke-width:1pt;stroke-opacity:1;fill:#000000;fill-opacity:1"
         transform="scale(0.8) rotate(180) translate(12.5,0)" />
    </marker>
    <marker
       inkscape:stockid="Arrow2Lend"
       orient="auto"
       refY="0.0"
       refX="0.0"
       id="Arrow2Lend"
       style="overflow:visible;"
       inkscape:isstock="true">
      <path
         id="path4182"
         style="fill-rule:evenodd;stroke-width:0.625;stroke-linejoin:round;stroke:#000000;stroke-opacity:1;fill:#000000;fill-opacity:1"
         d="M 8.7185878,4.0337352 L -2.2072895,0.016013256 L 8.7185884,-4.0017078 C 6.9730900,-1.6296469 6.9831476,1.6157441 8.7185878,4.0337352 z "
         transform="scale(1.1) rotate(180) translate(1,0)" />
    </marker>
  </defs>
  <sodipodi:namedview
     inkscape:window-height="1043"
     inkscape:window-width="1920"
     inkscape:pageshadow="2"
     inkscape:pageopacity="0.0"
     borderopacity="1.0"
     bordercolor="#666666"
     pagecolor="#ffffff"
     id="base"
     showgrid="true"
     showguides="true"
     inkscape:guide-bbox="true"
     inkscape:zoom="0.64205296"
     inkscape:cx="236.90557"
     inkscape:cy="513.46311"
     inkscape:window-x="0"
     inkscape:window-y="0"
     inkscape:current-layer="layer1"
     inkscape:window-maximized="1"
     objecttolerance="20">
    <sodipodi:guide
       orientation="horizontal"
       position="200"
       id="guide5596" />
    <inkscape:grid
       type="xygrid"
       id="grid3430"
       empspacing="50" />
  </sodipodi:namedview>
  <metadata
     id="metadata5594">
    <rdf:RDF>
      <cc:Work
         rdf:about="">
        <dc:format>image/svg+xml</dc:format>
        <dc:type
           rdf:resource="http://purl.org/dc/dcmitype/StillImage" />
        <dc:title />
      </cc:Work>
    </rdf:RDF>
  </metadata>
  <g
     inkscape:label="Layer 1"
     inkscape:groupmode="layer"
     id="layer1">
    <path
       style="fill:#000000;fill-opacity:1;fill-rule:evenodd;stroke:#000000;stroke-width:1.1759547px;stroke-linecap:butt;stroke-linejoin:miter;stroke-opacity:1"
       d="m 49.263499,749.72798 0,49.90444 762.034561,0 0,49.90445 138.55174,-71.66782 -138.55174,-78.04551 0,49.90444 z"
       id="path4317"
       inkscape:connector-curvature="0"
       sodipodi:nodetypes="cccccccc" />
    <path
        d="m 100,585 0,30 600,0 0,-30 -600,0 z"
       id="path4171"
       inkscape:connector-curvature="0" />
    <path
         d="m 298.73828,243.76953 0,350 30,0 0,-350 -30,0 z"
       id="path4173"
       inkscape:connector-curvature="0" />
    <path
       d="m 700,585 0,30 150,0 0,-30 -150,0 z"
       id="path4175"
       inkscape:connector-curvature="0" />
    <g
       style="font-style:normal;font-weight:normal;font-size:70px;line-height:125%;font-family:sans-serif;letter-spacing:0px;word-spacing:0px;fill:#000000;fill-opacity:1;stroke:none;stroke-width:1px;stroke-linecap:butt;stroke-linejoin:miter;stroke-opacity:1"
       id="flowRoot4177" />
    <g
       style="font-style:normal;font-weight:normal;font-size:180px;line-height:125%;font-family:sans-serif;letter-spacing:0px;word-spacing:0px;fill:#000000;fill-opacity:1;stroke:none;stroke-width:1px;stroke-linecap:butt;stroke-linejoin:miter;stroke-opacity:1"
       id="flowRoot4185" />
    <g
       transform="translate(376.91595,82.547708)"
       style="font-style:normal;font-weight:normal;font-size:180px;line-height:125%;font-family:sans-serif;letter-spacing:0px;word-spacing:0px;fill:#000000;fill-opacity:1;stroke:none;stroke-width:1px;stroke-linecap:butt;stroke-linejoin:miter;stroke-opacity:1"
       id="flowRoot4193">
      <path
         d="m -261.58203,29.65899 q 0,6.679687 -2.19727,12.041015 -2.10937,5.273438 -5.88867,9.316406 -3.6914,3.955079 -8.78906,6.679688 -5.00977,2.636719 -10.89844,4.042969 l 0,0.527343 q 15.55664,1.933594 23.55469,9.492188 7.99805,7.470703 7.99805,20.214844 0,8.437497 -3.07618,15.644527 -2.98828,7.11914 -9.3164,12.39258 -6.24024,5.27344 -15.82031,8.26172 -9.49219,2.90039 -22.41211,2.90039 -10.3711,0 -19.51172,-1.75781 -9.14063,-1.66992 -17.05078,-5.18555 l 0,-23.11523 q 3.95507,2.10937 8.34961,3.6914 4.39453,1.58204 8.78906,2.72461 4.39453,1.05469 8.61328,1.58203 4.30664,0.52735 8.08594,0.52735 7.55859,0 12.56836,-1.40625 5.00976,-1.40625 7.99804,-3.95508 2.98828,-2.54883 4.21875,-6.064453 1.31836,-3.603516 1.31836,-7.822266 0,-3.955078 -1.66992,-7.11914 -1.58203,-3.251953 -5.27344,-5.449219 -3.60351,-2.285156 -9.49218,-3.515625 -5.88868,-1.230469 -14.50196,-1.230469 l -9.14062,0 0,-19.072265 8.96484,0 q 8.08594,0 13.44727,-1.40625 5.36132,-1.494141 8.52539,-3.955078 3.25195,-2.548829 4.57031,-5.888672 1.31836,-3.339844 1.31836,-7.119141 0,-6.855469 -4.30664,-10.722656 -4.21875,-3.867188 -13.44727,-3.867188 -4.21875,0 -7.91015,0.878907 -3.60352,0.791015 -6.76758,2.109375 -3.07617,1.230468 -5.71289,2.8125 -2.54883,1.49414 -4.65821,2.988281 l -13.71093,-18.105469 q 3.6914,-2.7246093 7.99804,-5.0097655 4.39454,-2.2851563 9.49219,-3.9550781 5.09766,-1.7578125 10.98633,-2.72460941 5.88867,-0.96679687 12.56836,-0.96679687 9.49219,0 17.22656,2.10937498 7.82227,2.0214844 13.35938,5.9765625 5.53711,3.8671874 8.52539,9.5800784 3.07617,5.625 3.07617,12.919922 z"
         
         id="path4226" />
      <path
         d="m -157.25586,65.166802 q 0,15.556641 -2.46094,27.773438 -2.37304,12.2168 -7.73437,20.74219 -5.27344,8.52539 -13.71094,13.00781 -8.34961,4.48242 -20.21484,4.48242 -11.16211,0 -19.42383,-4.48242 -8.26172,-4.48242 -13.71094,-13.00781 -5.44922,-8.52539 -8.17383,-20.74219 -2.63672,-12.216797 -2.63672,-27.773438 0,-15.556641 2.37305,-27.861328 2.46094,-12.304688 7.73438,-20.830078 5.27343,-8.5253908 13.62304,-13.0078126 8.34961,-4.5703125 20.21485,-4.5703125 11.07422,0 19.33593,4.4824218 8.26172,4.4824219 13.79883,13.0078123 5.53711,8.525391 8.26172,20.830078 2.72461,12.304688 2.72461,27.949219 z m -60.99609,0 q 0,21.972656 3.77929,33.046875 3.7793,11.074223 13.09571,11.074223 9.14062,0 13.0957,-10.986332 4.04297,-10.986328 4.04297,-33.134766 0,-22.060547 -4.04297,-33.134766 -3.95508,-11.162109 -13.0957,-11.162109 -4.65821,0 -7.91016,2.8125 -3.16406,2.8125 -5.18555,8.349609 -2.02148,5.53711 -2.90039,13.886719 -0.8789,8.261719 -0.8789,19.248047 z"
         
         id="path4228" />
      <path
         d="m -58.115234,65.166802 q 0,15.556641 -2.460938,27.773438 -2.373047,12.2168 -7.734375,20.74219 -5.273437,8.52539 -13.710937,13.00781 -8.34961,4.48242 -20.214846,4.48242 -11.16211,0 -19.42383,-4.48242 -8.26171,-4.48242 -13.71093,-13.00781 -5.44922,-8.52539 -8.17383,-20.74219 -2.63672,-12.216797 -2.63672,-27.773438 0,-15.556641 2.37305,-27.861328 2.46093,-12.304688 7.73437,-20.830078 5.27344,-8.5253908 13.62305,-13.0078126 8.34961,-4.5703125 20.21484,-4.5703125 11.074221,0 19.335939,4.4824218 8.261719,4.4824219 13.798829,13.0078123 5.537109,8.525391 8.261718,20.830078 2.72461,12.304688 2.72461,27.949219 z m -60.996096,0 q 0,21.972656 3.7793,33.046875 3.7793,11.074223 13.0957,11.074223 9.140627,0 13.095705,-10.986332 4.042969,-10.986328 4.042969,-33.134766 0,-22.060547 -4.042969,-33.134766 -3.955078,-11.162109 -13.095705,-11.162109 -4.6582,0 -7.91015,2.8125 -3.16407,2.8125 -5.18555,8.349609 -2.02149,5.53711 -2.90039,13.886719 -0.87891,8.261719 -0.87891,19.248047 z"
         
         id="path4230" />
      <path
         d="m -42.294922,116.84649 q 0,-4.13086 1.142578,-6.94336 1.230469,-2.90039 3.339844,-4.6582 2.109375,-1.75782 4.921875,-2.54883 2.8125,-0.79102 6.064453,-0.79102 3.076172,0 5.800781,0.79102 2.8125,0.79101 4.921875,2.54883 2.109375,1.75781 3.339844,4.6582 1.230469,2.8125 1.230469,6.94336 0,3.95508 -1.230469,6.76758 -1.230469,2.8125 -3.339844,4.6582 -2.109375,1.8457 -4.921875,2.63672 -2.724609,0.87891 -5.800781,0.87891 -3.251953,0 -6.064453,-0.87891 -2.8125,-0.79102 -4.921875,-2.63672 -2.109375,-1.8457 -3.339844,-4.6582 -1.142578,-2.8125 -1.142578,-6.76758 z"
         
         id="path4232" />
      <path
         d="m 70.556641,129.41485 -27.158204,0 0,-74.35547 q 0,-2.285156 0,-5.449219 0.08789,-3.251953 0.175782,-6.679687 0.175781,-3.515625 0.263672,-7.03125 0.175781,-3.515625 0.263671,-6.416016 -0.439453,0.527344 -1.49414,1.582032 -1.054688,1.054687 -2.373047,2.373046 -1.318359,1.230469 -2.724609,2.548829 -1.40625,1.318359 -2.72461,2.373046 L 20.019531,50.225396 6.8359375,33.87774 48.232422,0.91875524 l 22.324219,0 0,128.49609476 z"
         
         id="path4234" />
      <path
         d="m 191.31836,129.41485 -86.2207,0 0,-18.89649 30.23437,-32.607417 q 5.71289,-6.152344 10.37109,-11.337891 4.65821,-5.185547 7.99805,-10.107422 3.33985,-4.921875 5.18555,-10.019531 1.8457,-5.097656 1.8457,-10.986328 0,-6.503906 -3.95508,-10.107422 -3.86718,-3.603516 -10.45898,-3.603516 -6.94336,0 -13.35938,3.427735 -6.41601,3.427734 -13.44726,9.755859 L 104.74609,17.442193 q 3.95508,-3.603516 8.26172,-6.855469 4.30664,-3.3398438 9.49219,-5.8886719 5.18555,-2.5488281 11.42578,-4.04296873 6.24024,-1.58203125 13.97461,-1.58203125 9.22852,0 16.52344,2.54882808 7.38281,2.5488282 12.56836,7.2949219 5.18554,4.6582029 7.91015,11.3378909 2.8125,6.679687 2.8125,15.029297 0,7.558593 -2.63672,14.501953 -2.63671,6.855468 -7.20703,13.535156 -4.57031,6.591797 -10.63476,13.183594 -5.97656,6.503906 -12.83203,13.271484 l -15.46875,15.556643 0,1.23047 52.38281,0 0,22.85156 z"
         
         id="path4236" />
      <path
         d="m 285.44922,29.65899 q 0,6.679687 -2.19727,12.041015 -2.10937,5.273438 -5.88867,9.316406 -3.69141,3.955079 -8.78906,6.679688 -5.00977,2.636719 -10.89844,4.042969 l 0,0.527343 q 15.55664,1.933594 23.55469,9.492188 7.99805,7.470703 7.99805,20.214844 0,8.437497 -3.07618,15.644527 -2.98828,7.11914 -9.3164,12.39258 -6.24024,5.27344 -15.82032,8.26172 -9.49218,2.90039 -22.4121,2.90039 -10.3711,0 -19.51172,-1.75781 -9.14063,-1.66992 -17.05078,-5.18555 l 0,-23.11523 q 3.95507,2.10937 8.3496,3.6914 4.39454,1.58204 8.78907,2.72461 4.39453,1.05469 8.61328,1.58203 4.30664,0.52735 8.08594,0.52735 7.55859,0 12.56836,-1.40625 5.00976,-1.40625 7.99804,-3.95508 2.98828,-2.54883 4.21875,-6.064453 1.31836,-3.603516 1.31836,-7.822266 0,-3.955078 -1.66992,-7.11914 -1.58203,-3.251953 -5.27344,-5.449219 -3.60351,-2.285156 -9.49219,-3.515625 -5.88867,-1.230469 -14.50195,-1.230469 l -9.14062,0 0,-19.072265 8.96484,0 q 8.08594,0 13.44727,-1.40625 5.36132,-1.494141 8.52539,-3.955078 3.25195,-2.548829 4.57031,-5.888672 1.31836,-3.339844 1.31836,-7.119141 0,-6.855469 -4.30664,-10.722656 -4.21875,-3.867188 -13.44727,-3.867188 -4.21875,0 -7.91015,0.878907 -3.60352,0.791015 -6.76758,2.109375 -3.07617,1.230468 -5.71289,2.8125 -2.54883,1.49414 -4.65821,2.988281 L 202.2168,11.729302 q 3.6914,-2.7246093 7.99804,-5.0097655 4.39453,-2.2851563 9.49219,-3.9550781 5.09766,-1.7578125 10.98633,-2.72460941 5.88867,-0.96679687 12.56836,-0.96679687 9.49219,0 17.22656,2.10937498 7.82227,2.0214844 13.35938,5.9765625 5.53711,3.8671874 8.52539,9.5800784 3.07617,5.625 3.07617,12.919922 z"
         
         id="path4238" />
    </g>
    <g
       transform="translate(806.78703,823.91957)"
       style="font-style:normal;font-weight:normal;font-size:180px;line-height:125%;font-family:sans-serif;letter-spacing:0px;word-spacing:0px;fill:#000000;fill-opacity:1;stroke:none;stroke-width:1px;stroke-linecap:butt;stroke-linejoin:miter;stroke-opacity:1"
       id="flowRoot4201">
      <path
         d="m -251.5625,129.41485 -26.80664,0 0,-57.392579 q 0,-10.634766 -3.16406,-15.908203 -3.16407,-5.361328 -9.93164,-5.361328 -5.09766,0 -8.52539,2.109375 -3.33985,2.109375 -5.36133,6.240234 -2.02149,4.130859 -2.90039,10.195312 -0.87891,6.064454 -0.87891,13.886719 l 0,46.23047 -26.80664,0 0,-98.26172 20.47852,0 3.60351,12.56836 1.49414,0 q 2.10938,-3.779297 5.00977,-6.503907 2.98828,-2.724609 6.5039,-4.482422 3.51563,-1.757812 7.47071,-2.548828 3.95508,-0.878906 7.99804,-0.878906 10.10743,0 17.13868,3.515625 7.11914,3.427734 10.89843,10.898438 l 2.19727,0 q 2.10937,-3.779297 5.09766,-6.503907 2.98828,-2.724609 6.59179,-4.482422 3.60352,-1.757812 7.5586,-2.548828 4.04296,-0.878906 8.08593,-0.878906 15.82032,0 23.81836,8.613281 8.08594,8.525391 8.08594,27.421875 l 0,64.072267 -26.89453,0 0,-57.392579 q 0,-10.634766 -3.16406,-15.908203 -3.16407,-5.361328 -9.93164,-5.361328 -9.58008,0 -13.62305,7.646484 -4.04297,7.558594 -4.04297,21.708984 l 0,49.306642 z"
         
         id="path4241" />
      <path
         d="M -107.07031,0.91875524 -154.9707,129.41485 l -24.34571,0 47.90039,-128.49609476 24.34571,0 z"
         
         id="path4243" />
      <path
         d="m -28.935547,129.41485 -72.246093,0 0,-15.82031 40.166015,-61.962894 -37.441406,0 0,-20.478516 67.851562,0 0,17.402344 -38.847656,60.380856 40.517578,0 0,20.47852 z"
         
         id="path4245" />
    </g>
    <path
        d="m 734.83984,433.78516 0,177.11718 30,0 0,-177.11718 -30,0 z"
       id="path4221"
       inkscape:connector-curvature="0" />
  </g>
</svg>
