<?xml version="1.0" encoding="UTF-8" standalone="no"?>
<!-- Created with Inkscape (http://www.inkscape.org/) -->

<svg stroke="currentColor" fill="currentColor"
   xmlns:dc="http://purl.org/dc/elements/1.1/"
   xmlns:cc="http://creativecommons.org/ns#"
   xmlns:rdf="http://www.w3.org/1999/02/22-rdf-syntax-ns#"
   xmlns:svg="http://www.w3.org/2000/svg"
   xmlns="http://www.w3.org/2000/svg"
   xmlns:sodipodi="http://sodipodi.sourceforge.net/DTD/sodipodi-0.dtd"
   xmlns:inkscape="http://www.inkscape.org/namespaces/inkscape"
   width="1000"
   height="1000"
   id="svg4152"
   version="1.1"
   inkscape:version="0.92.3 (2405546, 2018-03-11)"
   viewBox="0 0 1000 1000"
   sodipodi:docname="request-protein.svg">
  <defs
     id="defs5498">
    <marker
       inkscape:isstock="true"
       style="overflow:visible"
       id="marker4233"
       refX="0.0"
       refY="0.0"
       orient="auto"
       inkscape:stockid="TriangleOutL">
      <path
         transform="scale(0.8)"
         style="fill-rule:evenodd;stroke:#000000;stroke-width:1pt;stroke-opacity:1;fill:#000000;fill-opacity:1"
         d="M 5.77,0.0 L -2.88,5.0 L -2.88,-5.0 L 5.77,0.0 z "
         id="path4235" />
    </marker>
    <marker
       inkscape:isstock="true"
       style="overflow:visible"
       id="marker4755"
       refX="0.0"
       refY="0.0"
       orient="auto"
       inkscape:stockid="TriangleOutL">
      <path
         transform="scale(0.8)"
         style="fill-rule:evenodd;stroke:#000000;stroke-width:1pt;stroke-opacity:1;fill:#000000;fill-opacity:1"
         d="M 5.77,0.0 L -2.88,5.0 L -2.88,-5.0 L 5.77,0.0 z "
         id="path4757" />
    </marker>
    <marker
       inkscape:stockid="Arrow1Lend"
       orient="auto"
       refY="0.0"
       refX="0.0"
       id="Arrow1Lend"
       style="overflow:visible;"
       inkscape:isstock="true">
      <path
         id="path4164"
         d="M 0.0,0.0 L 5.0,-5.0 L -12.5,0.0 L 5.0,5.0 L 0.0,0.0 z "
         style="fill-rule:evenodd;stroke:#000000;stroke-width:1pt;stroke-opacity:1;fill:#000000;fill-opacity:1"
         transform="scale(0.8) rotate(180) translate(12.5,0)" />
    </marker>
    <marker
       inkscape:stockid="Arrow2Lend"
       orient="auto"
       refY="0.0"
       refX="0.0"
       id="Arrow2Lend"
       style="overflow:visible;"
       inkscape:isstock="true">
      <path
         id="path4182"
         style="fill-rule:evenodd;stroke-width:0.625;stroke-linejoin:round;stroke:#000000;stroke-opacity:1;fill:#000000;fill-opacity:1"
         d="M 8.7185878,4.0337352 L -2.2072895,0.016013256 L 8.7185884,-4.0017078 C 6.9730900,-1.6296469 6.9831476,1.6157441 8.7185878,4.0337352 z "
         transform="scale(1.1) rotate(180) translate(1,0)" />
    </marker>
    <pattern
       y="0"
       x="0"
       height="6"
       width="6"
       patternUnits="userSpaceOnUse"
       id="EMFhbasepattern" />
    <pattern
       y="0"
       x="0"
       height="6"
       width="6"
       patternUnits="userSpaceOnUse"
       id="EMFhbasepattern-6" />
  </defs>
  <sodipodi:namedview
     inkscape:window-height="504"
     inkscape:window-width="716"
     inkscape:pageshadow="2"
     inkscape:pageopacity="0.0"
     borderopacity="1.0"
     bordercolor="#666666"
     pagecolor="#ffffff"
     id="base"
     showgrid="true"
     showguides="true"
     inkscape:guide-bbox="true"
     inkscape:zoom="0.25"
     inkscape:cx="1007.8221"
     inkscape:cy="459.29481"
     inkscape:window-x="300"
     inkscape:window-y="56"
     inkscape:current-layer="svg4152"
     inkscape:window-maximized="0"
     objecttolerance="20">
    <sodipodi:guide
       orientation="horizontal"
       position="200"
       id="guide5596"
       inkscape:locked="false" />
    <inkscape:grid
       type="xygrid"
       id="grid3430"
       empspacing="50" />
    <sodipodi:guide
       position="550,1000"
       orientation="0,1"
       id="guide4169"
       inkscape:locked="false" />
  </sodipodi:namedview>
  <metadata
     id="metadata5594">
    <rdf:RDF>
      <cc:Work
         rdf:about="">
        <dc:format>image/svg+xml</dc:format>
        <dc:type
           rdf:resource="http://purl.org/dc/dcmitype/StillImage" />
        <dc:title></dc:title>
      </cc:Work>
    </rdf:RDF>
  </metadata>
  <path
     inkscape:connector-curvature="0"
     id="path3584"
     d="m 973.85235,153.25192 0,449.48908 -49.70116,0.40335 0,-449.49186 z m 0,449.48908 c 0,35.27256 -15.23054,67.33177 -40.08393,90.5815 l -33.86499,-36.07451 c 15.02869,-14.02494 24.24776,-33.26492 24.24776,-54.10324 z m -40.08393,90.5815 c -24.44403,22.64388 -57.91087,36.8707 -94.58532,36.8707 l 0.40376,-49.6955 c 23.64212,0 45.08601,-9.01733 60.31657,-23.24971 z m -94.58532,36.8707 -461.71396,0 0.40098,-49.6955 461.71676,0 z m -461.51319,-24.84784 -0.20069,24.84784 c -13.82694,0 -24.8489,-11.01922 -24.8489,-24.84784 0.20029,-13.82864 11.42234,-24.84766 25.24986,-24.84766 z M 396.50676,721.57981 179.47699,973.27642 141.8027,941.00957 358.83247,689.11109 Z m -235.86662,235.66403 18.83685,16.03258 c -9.01776,10.62104 -24.8489,11.82097 -35.26971,2.80384 -10.22006,-8.81526 -11.42236,-24.64597 -2.40458,-35.07069 z m -24.24832,-5.00761 53.506,-251.70216 48.49606,9.62276 -53.506,251.8985 z m 77.75431,-246.89087 -24.4485,-5.00761 c 2.80552,-13.43043 16.0319,-22.24589 29.65862,-19.44205 13.42656,2.80382 22.04338,15.8307 19.03763,29.45745 z m -0.20069,24.84784 -53.10508,0 0.40099,-49.6955 53.10505,0 z m -53.10508,0 c -36.67274,0 -70.139018,-14.02493 -94.386846,-36.66883 l 34.267676,-36.4727 c 15.43075,14.4287 36.87295,23.44603 60.52014,23.44603 z M 66.453514,693.52437 C 41.804622,670.47653 26.374099,638.41177 26.374099,603.14475 l 49.898813,-0.40335 c 0,20.84387 9.218227,40.28017 24.448218,54.31068 z m -40.079415,-90.37962 0,-449.49187 49.898813,-0.40137 0,449.4891 z m 0,-449.49187 c 0,-35.47046 15.430523,-67.533647 40.279765,-90.579499 L 100.52094,99.14471 C 85.491139,113.17242 76.272912,132.21013 76.272912,153.25192 Z M 66.653864,63.073381 C 90.902036,40.228202 124.36831,26 161.24127,26 l -0.40097,49.898772 c -23.64661,0 -45.08939,8.817245 -60.31938,23.245938 z M 161.24127,26 l 678.34559,0 -0.40376,49.898772 -678.34278,0 z m 678.34559,0 c 36.66883,0 70.13568,14.228202 94.38345,36.873092 L 899.70156,99.34559 C 884.27474,84.716017 862.83083,75.898772 839.1831,75.898772 Z m 94.38345,36.873092 c 24.6515,23.045245 39.88204,55.109038 39.88204,90.378828 l -49.70116,0.40136 c 0,-21.04178 -9.21907,-40.27976 -24.44963,-54.30729 z"
     style="fill:#000000;fill-opacity:1;fill-rule:nonzero;stroke:none" />
  <g
     style="clip-rule:evenodd;fill-rule:evenodd;image-rendering:optimizeQuality;shape-rendering:geometricPrecision;text-rendering:geometricPrecision;fill:#000000;fill-opacity:1"
     id="g5179"
     transform="matrix(45.352077,0,0,46.1966,11.084234,23.480663)">
    <path
       class="fil0"
       d="m 15.4893,11.8515 0.456427,0.586643 -0.0136,0.01293 -0.01405,0.01199 -0.01441,0.01105 -0.01477,0.01016 -0.01508,0.0092 -0.01535,0.0083 -0.01562,0.0074 -0.01589,0.0065 -0.01602,0.0055 -0.0162,0.0047 -0.01638,0.0038 -0.01642,0.0029 -0.01651,0.002 -0.01656,10e-4 -0.0166,1.79e-4 -0.01656,-7.61e-4 -0.01647,-0.0016 -0.01642,-0.0025 -0.01633,-0.0034 -0.01615,-0.0043 -0.01602,-0.0051 -0.0158,-0.0061 -0.01553,-0.0069 -0.0153,-0.0078 -0.01499,-0.0087 -0.01468,-0.0095 -0.01432,-0.01047 -0.01396,-0.01128 -0.01351,-0.01217 -0.01307,-0.01307 -0.01257,-0.01387 -0.01208,-0.01477 -0.01141,-0.01544 -0.01056,-0.01589 -0.0098,-0.01633 -0.0089,-0.01669 -0.0081,-0.01709 -0.0073,-0.01741 -0.0065,-0.01768 -0.0057,-0.01794 -0.0049,-0.01817 -0.0041,-0.01839 -0.0033,-0.01848 -0.0026,-0.01861 -0.0017,-0.01871 -9.4e-4,-0.01875 -1.34e-4,-0.01879 6.26e-4,-0.01875 0.0015,-0.01866 0.0022,-0.01862 0.003,-0.01848 0.0038,-0.0183 0.0046,-0.01812 0.0054,-0.01785 0.0061,-0.01763 0.0069,-0.01732 0.0077,-0.017 0.0084,-0.0166 0.0092,-0.01624 0.01,-0.01575 0.01074,-0.0153 0.01154,-0.01481 0.01226,-0.01423 z m 0.697975,0.345632 -0.241548,0.241011 L 15.4893,11.8515 15.730848,11.610489 Z m 1.6145,-7.58251 0.398344,-0.63855 v 0 l 0.146459,0.138002 0.12592,0.160779 0.105247,0.178946 0.08587,0.193937 0.06806,0.2066 0.052,0.217966 0.03714,0.228482 0.02336,0.238282 0.01038,0.247455 -0.002,0.256091 -0.01387,0.264056 -0.02542,0.27135 -0.0366,0.277928 -0.04757,0.283701 -0.05831,0.288623 -0.06882,0.29274 -0.07916,0.295917 -0.08936,0.298199 -0.09939,0.299676 -0.109229,0.300078 -0.118984,0.299541 -0.128516,0.298154 -0.138092,0.295738 -0.147399,0.292292 -0.156707,0.287996 -0.165746,0.282537 -0.174874,0.276228 -0.183824,0.268844 -0.192729,0.260432 -0.201499,0.251035 -0.210314,0.240564 -0.218906,0.228885 -0.456427,-0.586643 0.195727,-0.204631 0.189014,-0.216221 0.182258,-0.22705 0.175187,-0.236805 0.167894,-0.245576 0.160286,-0.253227 0.1525,-0.259895 0.144446,-0.265444 0.136123,-0.270008 0.127621,-0.273364 0.11894,-0.27578 0.110035,-0.277078 0.100906,-0.277168 0.0916,-0.276228 0.08211,-0.274214 0.07254,-0.270948 0.06265,-0.266518 0.05276,-0.261058 0.04264,-0.254167 0.0324,-0.246247 0.02219,-0.236984 0.0119,-0.226379 0.0017,-0.214386 -0.0084,-0.201007 -0.01817,-0.186195 -0.02756,-0.169773 -0.03616,-0.152187 -0.04381,-0.133214 -0.05016,-0.113659 -0.05513,-0.094194 -0.05934,-0.076026 -0.06377,-0.060231 v 0 z m -4.78443,4.56821 -0.669068,0.192863 v 0 L 12.2893,9.03418 12.26505,8.694813 12.27405,8.360189 12.31396,8.032054 12.38265,7.711884 12.47752,7.400887 12.596192,7.099735 12.736475,6.808875 12.896224,6.52853 13.07347,6.259193 13.266289,6.000864 13.473067,5.753856 13.691974,5.518617 13.92135,5.295281 14.159722,5.084295 14.405432,4.886107 14.656914,4.701075 14.912691,4.529781 15.1712,4.372627 15.43105,4.230195 15.690721,4.102977 15.948826,3.991645 16.204112,3.896735 16.455326,3.819053 16.70117,3.75927 l 0.239714,-0.040899 0.232599,-0.020808 0.224768,8.055e-4 0.216534,0.024656 0.207316,0.051639 0.196577,0.082873 0.181452,0.118537 -0.398344,0.63855 -0.07486,-0.048462 -0.09769,-0.04081 -0.12149,-0.029981 -0.143685,-0.016154 -0.163374,-4.475e-4 -0.180333,0.016243 -0.194608,0.033292 -0.206556,0.050207 -0.216042,0.066853 -0.223425,0.083097 -0.22884,0.098713 -0.232196,0.113704 -0.233628,0.128113 -0.23327,0.141761 -0.230988,0.154738 -0.226961,0.166954 -0.221188,0.178409 -0.213581,0.189059 -0.204408,0.198904 -0.1934,0.207853 -0.180736,0.215863 -0.166506,0.222978 -0.150755,0.229064 -0.133527,0.234165 -0.114957,0.238237 -0.09522,0.241459 -0.07455,0.243875 -0.05276,0.24571 -0.03025,0.2475 -0.0068,0.249424 0.0179,0.252019 0.04421,0.255868 z m -0.09719,4.50807 0.0048,-0.781833 v 0 l 0.188478,-0.006 0.155454,-0.01938 0.122877,-0.02976 0.09137,-0.03607 0.0626,-0.03741 0.0396,-0.03513 0.0247,-0.03289 0.01723,-0.03593 0.01307,-0.04703 0.0078,-0.06386 -1.35e-4,-0.08256 -0.01029,-0.100101 -0.02139,-0.115225 -0.03258,-0.127844 -0.04318,-0.138181 -0.0528,-0.146325 -0.0613,-0.152814 -0.06851,-0.157691 -0.07459,-0.161316 -0.07911,-0.163687 -0.08256,-0.164851 -0.08462,-0.165074 -0.08542,-0.164358 -0.08493,-0.162658 -0.08323,-0.160331 -0.08032,-0.157244 -0.07616,-0.153485 -0.07092,-0.1495018 -0.06457,-0.14543 -0.05705,-0.14185 -0.04837,-0.139747 -0.03781,-0.139702 0.669068,-0.192863 0.01991,0.072939 0.03244,0.09321 0.04417,0.109632 0.05455,0.122788 0.0635,0.133751 0.07097,0.142924 0.07692,0.1506218 0.08162,0.157109 0.08493,0.162658 0.08677,0.167043 0.08739,0.170534 0.08677,0.173263 0.08475,0.175232 0.08149,0.17644 0.07701,0.177201 0.07115,0.177514 0.06399,0.177559 0.05535,0.17747 0.0452,0.177783 0.03293,0.178678 0.01808,0.180289 -3.14e-4,0.182437 -0.02354,0.184047 -0.052,0.181989 -0.08408,0.172324 -0.115539,0.152993 -0.142074,0.126502 -0.163016,0.09809 -0.18096,0.07169 -0.19859,0.04837 -0.217832,0.02734 -0.239132,0.0077 v 0 z m -0.850565,-9.63978 0.667726,0.198769 v 0 l -0.04833,0.155275 -0.06658,0.164224 -0.08529,0.190625 -0.102965,0.220069 -0.118582,0.248797 -0.131737,0.27578 -0.142298,0.300347 -0.150084,0.322184 -0.155051,0.34147 -0.157244,0.357758 -0.156528,0.371272 -0.152993,0.381698 -0.146594,0.389261 -0.137376,0.393691 -0.125338,0.394899 -0.110393,0.392975 -0.09285,0.387605 -0.07263,0.37879 -0.04994,0.366305 -0.02506,0.350196 0.0015,0.330283 0.02935,0.30697 0.05795,0.281016 0.08703,0.253988 0.117642,0.227856 0.151561,0.204094 0.191386,0.182034 0.23855,0.15957 0.292516,0.133841 0.351896,0.103144 0.414991,0.06708 0.481173,0.02609 -0.0048,0.781833 -0.539882,-0.0294 -0.484887,-0.07853 -0.432532,-0.126949 -0.382101,-0.174919 -0.332163,-0.222307 -0.281061,-0.267234 -0.228348,-0.306925 -0.175545,-0.339098 -0.1250698,-0.363352 -0.07898,-0.381072 -0.037946,-0.394049 -0.0021,-0.404027 0.029355,-0.411769 0.05683,-0.4175858 0.08068,-0.42139 0.1012638,-0.423135 0.118805,-0.422777 0.133214,-0.419958 0.144714,-0.414812 0.153306,-0.40707 0.158989,-0.396823 0.161897,-0.383801 0.161718,-0.36814 0.15881,-0.349614 0.152858,-0.328269 0.143998,-0.304016 0.132185,-0.276675 0.117239,-0.246023 0.09903,-0.211567 0.07706,-0.1721 0.05048,-0.123862 0.01763,-0.052534 v 0 z M 3.1124279,4.867276 2.5907589,4.355183 v 0 l 0.276586,-0.328627 0.303345,-0.301197 0.326927,-0.274348 0.347779,-0.248574 0.366081,-0.223783 0.381877,-0.199978 0.395436,-0.176977 0.406578,-0.154961 0.415528,-0.133617 0.422329,-0.113033 0.426759,-0.093031 0.428997,-0.073744 0.429041,-0.05504 0.426893,-0.036827 0.422463,-0.019197 0.415841,-0.00201 0.407115,0.014633 0.396107,0.030921 0.383085,0.046761 0.3678711,0.062289 0.350643,0.077548 0.331581,0.092717 0.310639,0.107976 0.287952,0.123638 0.263743,0.140239 0.237834,0.158631 0.210046,0.180065 0.178857,0.205884 0.14109,0.236492 0.09214,0.26786 0.03088,0.290144 -0.03548,0.293858 -0.667726,-0.198769 0.01284,-0.10377 -0.0098,-0.089674 L 12.040016,3.764607 11.976786,3.659942 11.876596,3.545343 11.73761,3.426672 11.56117,3.309299 11.35005,3.197161 11.107293,3.093033 10.836211,2.998839 10.539623,2.915966 10.220572,2.845399 9.8817868,2.788032 9.5259978,2.744582 9.1558448,2.71572 8.7739678,2.701982 l -0.39114,0.00192 -0.397763,0.018033 -0.401835,0.03468 -0.403535,0.051728 -0.402595,0.06918 -0.399195,0.087034 -0.393243,0.105247 -0.38492,0.123772 -0.374002,0.142432 -0.360622,0.161405 -0.344826,0.180468 -0.326614,0.19962 -0.306164,0.218772 -0.283522,0.237834 -0.258866,0.256897 -0.232644,0.276273 v 0 z m 3.16402,2.50851 0.09406,0.774583 v 0 L 6.1220239,8.181513 5.8761799,8.197622 5.6338709,8.199232 5.3954099,8.187105 5.1614239,8.161688 4.9324949,8.123563 4.7091589,8.073535 4.4917739,8.012007 4.2808329,7.93956 4.0769619,7.856821 3.8805639,7.764327 3.6920859,7.662436 3.5120659,7.551775 3.3409059,7.432791 3.1791429,7.305842 3.0272689,7.171241 2.8858209,7.029391 2.7553369,6.88056 2.6365319,6.725017 2.5299879,6.562806 2.4366439,6.394286 2.3573959,6.219501 2.2934069,6.038899 2.2459299,5.852972 2.2164409,5.662526 2.2062829,5.468903 l 0.010426,-0.194966 0.031905,-0.194071 0.053742,-0.191028 0.075355,-0.185569 0.096431,-0.17832 0.116613,-0.169773 0.521669,0.512093 -0.071149,0.103546 -0.054905,0.101533 -0.040542,0.099743 -0.027699,0.098669 -0.016154,0.098669 -0.00533,0.099743 0.00541,0.10198 0.016333,0.104799 0.027609,0.107887 0.039199,0.110527 0.051236,0.112675 0.063094,0.113928 0.075131,0.114241 0.086766,0.11357 0.098177,0.111959 0.10914,0.109453 0.119655,0.105963 0.129724,0.101801 0.139121,0.096789 0.14807,0.090972 0.156438,0.084528 0.164179,0.077369 0.171473,0.069583 0.178096,0.06117 0.184271,0.052131 0.189865,0.0426 0.194832,0.032397 0.199351,0.021658 0.203379,0.010426 0.206869,-0.00143 0.209867,-0.013693 0.212507,-0.02667 v 0 z M 16.958848,7.521619 16.383839,7.95433 v -4.47e-5 l -0.03217,-0.038751 -0.07795,-0.060275 -0.127039,-0.068017 -0.171831,-0.066361 -0.211299,-0.060052 -0.246292,-0.051863 -0.277123,-0.042868 -0.304508,-0.03374 -0.328717,-0.024969 -0.350062,-0.016422 -0.368498,-0.00841 -0.384338,-8.95e-4 -0.397539,0.00609 -0.408144,0.012485 -0.416199,0.018347 -0.421747,0.023493 -0.42479,0.028281 -0.425372,0.032263 -0.423493,0.035798 -0.419107,0.038707 -0.4123063,0.040944 -0.402953,0.042734 -0.391319,0.043808 -0.377134,0.0443 -0.360488,0.044211 -0.34147,0.043584 -0.319946,0.042242 -0.296006,0.040407 -0.269605,0.037946 -0.240788,0.034948 -0.209509,0.031144 -0.17559,0.026983 -0.09406,-0.774583 0.178454,-0.027341 0.211925,-0.031592 0.243204,-0.035216 0.272111,-0.038304 0.298602,-0.040765 0.322631,-0.0426 0.344244,-0.043942 0.363531,-0.044569 0.380356,-0.044748 0.39472,-0.044166 0.406802,-0.043092 0.4164233,-0.041392 0.423582,-0.039065 0.428415,-0.036246 0.430831,-0.032711 0.430876,-0.028639 0.428549,-0.02394 0.423895,-0.018615 0.416825,-0.012753 0.407562,-0.00626 0.395883,9.845e-4 0.382101,0.00868 0.366081,0.017228 0.347958,0.026401 0.328046,0.036425 0.306388,0.047433 0.283343,0.059738 0.259447,0.073923 0.235373,0.09133 0.211702,0.114465 0.187493,0.148249 0.155051,0.19698 v -4.47e-5 z M 5.7879479,10.332809 5.4067869,9.680924 v 0 l 0.271664,-0.169549 0.307193,-0.136167 0.340307,-0.110035 0.371899,-0.088869 0.401343,-0.071015 0.428281,-0.055621 0.452221,-0.042421 0.472939,-0.031055 0.490346,-0.021524 0.504307,-0.013693 0.514599,-0.00747 0.5212661,-0.00295 0.524309,-4.48e-5 0.523549,0.0013 0.518984,9.397e-4 0.510617,-9.844e-4 0.4984,-0.00443 0.482246,-0.00949 0.462065,-0.016154 0.437812,-0.024253 0.409129,-0.033785 0.37615,-0.044613 0.338159,-0.056472 0.294664,-0.068643 0.24486,-0.080099 0.187806,-0.08775 0.123996,-0.086229 0.06113,-0.068375 0.01973,-0.043808 0.003,-0.05589 -0.02788,-0.115136 -0.08806,-0.182302 0.575009,-0.432711 0.151426,0.317262 0.07594,0.329209 -0.02126,0.336458 -0.125159,0.299855 -0.196801,0.229735 -0.239356,0.169549 -0.273453,0.128918 -0.306791,0.100682 -0.33968,0.079382 -0.371541,0.06211 -0.401119,0.047656 -0.428191,0.035395 -0.452131,0.025059 -0.472894,0.016512 -0.490121,0.00967 -0.50377,0.00452 -0.513928,9.845e-4 -0.520327,-9.397e-4 -0.522922,-0.0013 -0.521803,4.48e-5 -0.5168815,0.00295 -0.508155,0.00738 -0.495358,0.013424 -0.478711,0.020987 -0.457904,0.03007 -0.432979,0.040541 -0.403669,0.0524 -0.369661,0.065287 -0.33082,0.078935 -0.286341,0.0924 -0.236044,0.104128 -0.180468,0.111914 v 0 z m 1.15601,-2.79812 0.293187,-0.70782 v 0 l 1.06012,0.587448 0.899385,0.548249 0.748406,0.511019 0.6078091,0.476608 0.477995,0.446538 0.358564,0.423851 0.247366,0.413693 0.134556,0.419644 0.0033,0.424209 -0.134467,0.382146 -0.234747,0.299989 -0.297617,0.226021 -0.345274,0.17201 -0.386263,0.130708 -0.4215238,0.09594 -0.450118,0.06488 -0.471149,0.03598 -0.484439,0.0087 -0.489361,-0.01741 -0.485826,-0.04242 -0.474058,-0.06667 -0.453876,-0.09039 -0.425775,-0.113838 -0.390469,-0.137913 -0.348898,-0.164493 -0.302182,-0.197651 -0.249469,-0.247187 -0.174919,-0.325182 -0.041526,-0.397807 0.118268,-0.383041 0.237074,-0.3294779 0.33874,-0.300123 0.381161,0.6518849 -0.245307,0.216087 -0.118134,0.160958 -0.026625,0.07974 0.00546,0.03544 0.045329,0.07665 0.125517,0.121266 0.209106,0.13563 0.280166,0.131648 0.337845,0.119118 0.383175,0.102383 0.417362,0.08305 0.440944,0.06202 0.454234,0.03965 0.457501,0.01624 0.45052,-0.0081 0.433382,-0.03302 0.405638,-0.05835 0.3668418,-0.08332 0.316188,-0.106544 0.252825,-0.125115 0.177425,-0.132767 0.09898,-0.122519 0.03924,-0.105873 -0.0014,-0.1312 -0.06717,-0.205124 -0.169862,-0.282314 -0.292606,-0.3451837 -0.42582,-0.397584 -0.5669093,-0.44439 -0.715919,-0.488735 -0.873073,-0.53223 -1.03882,-0.575635 v 0 z m -2.14078,-3.39949 0.644099,0.281463 -0.02752,0.094194 -0.01772,0.09039 -0.00908,0.088064 -0.00112,0.086721 0.00644,0.086408 0.013872,0.0869 0.021255,0.087795 0.028683,0.088959 0.036067,0.090032 0.043271,0.090748 0.050252,0.091196 0.056785,0.091151 0.062915,0.090748 0.068598,0.089943 0.07352,0.088645 0.077906,0.087034 0.081709,0.0852 0.084797,0.082918 0.087348,0.080546 0.089048,0.077772 0.090211,0.074953 0.090614,0.071775 0.09039,0.068419 0.08954,0.065018 0.087885,0.061304 0.085692,0.057456 0.082739,0.053563 0.079159,0.049357 0.074908,0.045106 0.069896,0.040631 0.064213,0.036067 0.05759,0.031189 -0.293187,0.70782 L 6.8770549,7.498483 6.8040709,7.457494 6.7254939,7.411762 6.6418159,7.361376 6.5535289,7.306291 6.4613929,7.246732 6.3658569,7.182653 6.2675909,7.114099 6.1672219,7.041205 6.0652869,6.964015 5.9624119,6.882485 5.8592239,6.796793 5.7563039,6.70685 5.6542789,6.612701 5.5536409,6.514301 5.4551059,6.41156 5.3593009,6.304568 5.2668969,6.193012 5.1785199,6.077026 5.0947519,5.956207 5.0164879,5.830511 4.9444889,5.699669 4.8796499,5.563457 4.8229989,5.421786 4.7756109,5.274566 4.7387839,5.121976 4.7138149,4.964464 4.7018229,4.802611 4.7041029,4.637402 4.7214199,4.470314 4.7543539,4.302331 Z m 0.644099,0.281463 -0.644099,-0.281463 0.0068,-0.01857 0.00756,-0.017989 0.00828,-0.017362 0.00895,-0.016736 0.00962,-0.016064 0.010247,-0.015393 0.010829,-0.014722 0.011411,-0.014051 0.011948,-0.013335 0.012485,-0.012619 0.012977,-0.011858 0.01338,-0.011142 0.013872,-0.010381 0.014274,-0.00962 0.014633,-0.00877 0.014946,-0.00801 0.015304,-0.0072 0.015617,-0.00635 0.015841,-0.0055 0.016109,-0.00465 0.016288,-0.00376 0.016467,-0.00291 0.016646,-0.00197 0.01678,-0.00107 0.016825,-1.342e-4 0.016915,8.055e-4 0.016959,0.00175 0.016959,0.00273 0.016959,0.00371 0.016915,0.00474 0.016825,0.00573 0.016736,0.00676 0.016422,0.0077 0.015841,0.00855 0.015348,0.0094 0.014767,0.010113 0.014185,0.010874 0.013603,0.01159 0.013022,0.012306 0.012395,0.012887 0.011769,0.013559 0.011142,0.014095 0.010471,0.014677 0.00984,0.015214 0.00917,0.015662 0.00846,0.016154 0.00779,0.016601 0.00707,0.016959 0.00635,0.017317 0.00559,0.017631 0.00488,0.017989 0.00412,0.018212 0.00331,0.018436 0.00255,0.018705 0.00175,0.018794 9.844e-4,0.018973 8.95e-5,0.019107 -7.159e-4,0.019152 -0.00152,0.019197 -0.00242,0.019242 -0.00331,0.019197 -0.00416,0.019107 -0.00506,0.019107 z"
       id="path5177"
       inkscape:connector-curvature="0"
       style="fill:#000000;fill-rule:nonzero;fill-opacity:1" />
  </g>
</svg>
