<?xml version="1.0" encoding="UTF-8" standalone="no"?>
<svg stroke="currentColor" fill="currentColor"
   xmlns="http://www.w3.org/2000/svg"
   width="1000"
   height="1000"
   viewBox="0 0 1000 1000">
  <!-- Speech bubble border -->
  <path
     d="m 973.85235,153.25192 0,449.48908 -49.70116,0.40335 0,-449.49186 z m 0,449.48908 c 0,35.27256 -15.23054,67.33177 -40.08393,90.5815 l -33.86499,-36.07451 c 15.02869,-14.02494 24.24776,-33.26492 24.24776,-54.10324 z m -40.08393,90.5815 c -24.44403,22.64388 -57.91087,36.8707 -94.58532,36.8707 l 0.40376,-49.6955 c 23.64212,0 45.08601,-9.01733 60.31657,-23.24971 z m -94.58532,36.8707 -461.71396,0 0.40098,-49.6955 461.71676,0 z m -461.51319,-24.84784 -0.20069,24.84784 c -13.82694,0 -24.8489,-11.01922 -24.8489,-24.84784 0.20029,-13.82864 11.42234,-24.84766 25.24986,-24.84766 z M 396.50676,721.57981 179.47699,973.27642 141.8027,941.00957 358.83247,689.11109 Z m -235.86662,235.66403 18.83685,16.03258 c -9.01776,10.62104 -24.8489,11.82097 -35.26971,2.80384 -10.22006,-8.81526 -11.42236,-24.64597 -2.40458,-35.07069 z m -24.24832,-5.00761 53.506,-251.70216 48.49606,9.62276 -53.506,251.8985 z m 77.75431,-246.89087 -24.4485,-5.00761 c 2.80552,-13.43043 16.0319,-22.24589 29.65862,-19.44205 13.42656,2.80382 22.04338,15.8307 19.03763,29.45745 z m -0.20069,24.84784 -53.10508,0 0.40099,-49.6955 53.10505,0 z m -53.10508,0 c -36.67274,0 -70.139018,-14.02493 -94.386846,-36.66883 l 34.267676,-36.4727 c 15.43075,14.4287 36.87295,23.44603 60.52014,23.44603 z M 66.453514,693.52437 C 41.804622,670.47653 26.374099,638.41177 26.374099,603.14475 l 49.898813,-0.40335 c 0,20.84387 9.218227,40.28017 24.448218,54.31068 z m -40.079415,-90.37962 0,-449.49187 49.898813,-0.40137 0,449.4891 z m 0,-449.49187 c 0,-35.47046 15.430523,-67.533647 40.279765,-90.579499 L 100.52094,99.14471 C 85.491139,113.17242 76.272912,132.21013 76.272912,153.25192 Z M 66.653864,63.073381 C 90.902036,40.228202 124.36831,26 161.24127,26 l -0.40097,49.898772 c -23.64661,0 -45.08939,8.817245 -60.31938,23.245938 z M 161.24127,26 l 678.34559,0 -0.40376,49.898772 -678.34278,0 z m 678.34559,0 c 36.66883,0 70.13568,14.228202 94.38345,36.873092 L 899.70156,99.34559 C 884.27474,84.716017 862.83083,75.898772 839.1831,75.898772 Z m 94.38345,36.873092 c 24.6515,23.045245 39.88204,55.109038 39.88204,90.378828 l -49.70116,0.40136 c 0,-21.04178 -9.21907,-40.27976 -24.44963,-54.30729 z"
     style="fill-opacity:1;fill-rule:nonzero;stroke:none" />
  <!-- Zinc finger inside the speech bubble, scaled to fit -->
  <g transform="translate(220,80) scale(0.58)">
    <!-- Beta hairpin -->
    <path fill="none" stroke-linecap="round" stroke-linejoin="round" stroke-width="72"
      d="M 80,950 L 80,300 C 80,160 320,160 320,300 L 320,620"/>
    <!-- Connecting loop -->
    <path fill="none" stroke-linecap="round" stroke-linejoin="round" stroke-width="72"
      d="M 320,620 C 340,800 580,810 620,660"/>
    <!-- Alpha helix -->
    <path fill="none" stroke-linecap="round" stroke-linejoin="round" stroke-width="72"
      d="M 620,660
         C 820,560 820,500 650,420
         C 520,360 520,300 700,220
         C 880,140 860,80 720,50"/>
    <!-- Zinc atom -->
    <circle cx="400" cy="420" r="80" fill="none" stroke-width="56"/>
    <text x="400" y="450"
       text-anchor="middle"
       font-family="sans-serif"
       font-weight="bold"
       font-size="88"
       stroke="none">Zn</text>
  </g>
</svg>
