<?xml version="1.0" encoding="UTF-8" standalone="no"?>
<!-- Created with Inkscape (http://www.inkscape.org/) -->

<svg stroke="currentColor" fill="currentColor"
   xmlns:dc="http://purl.org/dc/elements/1.1/"
   xmlns:cc="http://creativecommons.org/ns#"
   xmlns:rdf="http://www.w3.org/1999/02/22-rdf-syntax-ns#"
   xmlns:svg="http://www.w3.org/2000/svg"
   xmlns="http://www.w3.org/2000/svg"
   xmlns:sodipodi="http://sodipodi.sourceforge.net/DTD/sodipodi-0.dtd"
   xmlns:inkscape="http://www.inkscape.org/namespaces/inkscape"
   width="1000"
   height="1000"
   id="svg4152"
   version="1.1"
   inkscape:version="0.92.2 (5c3e80d, 2017-08-06)"
   viewBox="0 0 1000 1000"
   sodipodi:docname="request.svg">
  <defs
     id="defs5498">
    <marker
       inkscape:isstock="true"
       style="overflow:visible"
       id="marker4233"
       refX="0.0"
       refY="0.0"
       orient="auto"
       inkscape:stockid="TriangleOutL">
      <path
         transform="scale(0.8)"
         style="fill-rule:evenodd;stroke:#000000;stroke-width:1pt;stroke-opacity:1;fill:#000000;fill-opacity:1"
         d="M 5.77,0.0 L -2.88,5.0 L -2.88,-5.0 L 5.77,0.0 z "
         id="path4235" />
    </marker>
    <marker
       inkscape:isstock="true"
       style="overflow:visible"
       id="marker4755"
       refX="0.0"
       refY="0.0"
       orient="auto"
       inkscape:stockid="TriangleOutL">
      <path
         transform="scale(0.8)"
         style="fill-rule:evenodd;stroke:#000000;stroke-width:1pt;stroke-opacity:1;fill:#000000;fill-opacity:1"
         d="M 5.77,0.0 L -2.88,5.0 L -2.88,-5.0 L 5.77,0.0 z "
         id="path4757" />
    </marker>
    <marker
       inkscape:stockid="Arrow1Lend"
       orient="auto"
       refY="0.0"
       refX="0.0"
       id="Arrow1Lend"
       style="overflow:visible;"
       inkscape:isstock="true">
      <path
         id="path4164"
         d="M 0.0,0.0 L 5.0,-5.0 L -12.5,0.0 L 5.0,5.0 L 0.0,0.0 z "
         style="fill-rule:evenodd;stroke:#000000;stroke-width:1pt;stroke-opacity:1;fill:#000000;fill-opacity:1"
         transform="scale(0.8) rotate(180) translate(12.5,0)" />
    </marker>
    <marker
       inkscape:stockid="Arrow2Lend"
       orient="auto"
       refY="0.0"
       refX="0.0"
       id="Arrow2Lend"
       style="overflow:visible;"
       inkscape:isstock="true">
      <path
         id="path4182"
         style="fill-rule:evenodd;stroke-width:0.625;stroke-linejoin:round;stroke:#000000;stroke-opacity:1;fill:#000000;fill-opacity:1"
         d="M 8.7185878,4.0337352 L -2.2072895,0.016013256 L 8.7185884,-4.0017078 C 6.9730900,-1.6296469 6.9831476,1.6157441 8.7185878,4.0337352 z "
         transform="scale(1.1) rotate(180) translate(1,0)" />
    </marker>
    <pattern
       y="0"
       x="0"
       height="6"
       width="6"
       patternUnits="userSpaceOnUse"
       id="EMFhbasepattern" />
    <pattern
       y="0"
       x="0"
       height="6"
       width="6"
       patternUnits="userSpaceOnUse"
       id="EMFhbasepattern-6" />
  </defs>
  <sodipodi:namedview
     inkscape:window-height="1016"
     inkscape:window-width="1920"
     inkscape:pageshadow="2"
     inkscape:pageopacity="0.0"
     borderopacity="1.0"
     bordercolor="#666666"
     pagecolor="#ffffff"
     id="base"
     showgrid="true"
     showguides="true"
     inkscape:guide-bbox="true"
     inkscape:zoom="0.5"
     inkscape:cx="-1.17787"
     inkscape:cy="459.29481"
     inkscape:window-x="0"
     inkscape:window-y="27"
     inkscape:current-layer="svg4152"
     inkscape:window-maximized="1"
     objecttolerance="20">
    <sodipodi:guide
       orientation="horizontal"
       position="200"
       id="guide5596"
       inkscape:locked="false" />
    <inkscape:grid
       type="xygrid"
       id="grid3430"
       empspacing="50" />
    <sodipodi:guide
       position="550,1000"
       orientation="0,1"
       id="guide4169"
       inkscape:locked="false" />
  </sodipodi:namedview>
  <metadata
     id="metadata5594">
    <rdf:RDF>
      <cc:Work
         rdf:about="">
        <dc:format>image/svg+xml</dc:format>
        <dc:type
           rdf:resource="http://purl.org/dc/dcmitype/StillImage" />
        <dc:title />
      </cc:Work>
    </rdf:RDF>
  </metadata>
  <path
     inkscape:connector-curvature="0"
     id="path3578"
     d="m 160.43936,546.8316 c -13.62675,0.20069 -24.8489,11.2221 -25.04967,25.04914 0,13.62734 11.02198,24.84884 24.64928,24.64695 z m 0,0 679.74754,0 -0.20191,49.69609 -679.94604,0 z m 679.54565,49.69609 c 13.62675,0 24.84778,-11.01961 25.04965,-24.84724 0,-13.62675 -11.01915,-24.84885 -24.84776,-24.84885 z"
     style="fill:#000000;fill-opacity:1;fill-rule:nonzero;stroke:none" />
  <path
     inkscape:connector-curvature="0"
     id="path3580"
     d="m 469.0504,568.27376 c 0,13.62675 11.02198,24.64816 24.64928,24.64816 13.82693,-0.20268 25.04965,-11.42179 25.04965,-25.04914 z m 0,0 0,-438.86926 49.69893,-0.40136 0,438.86865 z m 49.69893,-439.26963 c 0,-13.82742 -11.02194,-24.84944 -24.84946,-24.64875 -13.62675,0 -24.84947,11.22229 -24.84947,25.04912 z"
     style="fill:#000000;fill-opacity:1;fill-rule:nonzero;stroke:none" />
  <path
     inkscape:connector-curvature="0"
     id="path3582"
     d="m 663.43733,568.27376 c 0,13.62675 11.01917,24.64816 24.84779,24.64816 13.62674,-0.20268 24.8478,-11.42179 24.8478,-25.04914 z m 0,0 0,-181.35912 49.69559,-0.40137 0,181.35912 z m 49.69559,-181.76009 c 0,-13.82744 -11.01917,-24.84885 -24.8478,-24.64856 -13.62673,0 -24.84779,11.2221 -24.84779,25.04953 z"
     style="fill:#000000;fill-opacity:1;fill-rule:nonzero;stroke:none" />
  <path
     inkscape:connector-curvature="0"
     id="path3584"
     d="m 973.85235,153.25192 0,449.48908 -49.70116,0.40335 0,-449.49186 z m 0,449.48908 c 0,35.27256 -15.23054,67.33177 -40.08393,90.5815 l -33.86499,-36.07451 c 15.02869,-14.02494 24.24776,-33.26492 24.24776,-54.10324 z m -40.08393,90.5815 c -24.44403,22.64388 -57.91087,36.8707 -94.58532,36.8707 l 0.40376,-49.6955 c 23.64212,0 45.08601,-9.01733 60.31657,-23.24971 z m -94.58532,36.8707 -461.71396,0 0.40098,-49.6955 461.71676,0 z m -461.51319,-24.84784 -0.20069,24.84784 c -13.82694,0 -24.8489,-11.01922 -24.8489,-24.84784 0.20029,-13.82864 11.42234,-24.84766 25.24986,-24.84766 z M 396.50676,721.57981 179.47699,973.27642 141.8027,941.00957 358.83247,689.11109 Z m -235.86662,235.66403 18.83685,16.03258 c -9.01776,10.62104 -24.8489,11.82097 -35.26971,2.80384 -10.22006,-8.81526 -11.42236,-24.64597 -2.40458,-35.07069 z m -24.24832,-5.00761 53.506,-251.70216 48.49606,9.62276 -53.506,251.8985 z m 77.75431,-246.89087 -24.4485,-5.00761 c 2.80552,-13.43043 16.0319,-22.24589 29.65862,-19.44205 13.42656,2.80382 22.04338,15.8307 19.03763,29.45745 z m -0.20069,24.84784 -53.10508,0 0.40099,-49.6955 53.10505,0 z m -53.10508,0 c -36.67274,0 -70.139018,-14.02493 -94.386846,-36.66883 l 34.267676,-36.4727 c 15.43075,14.4287 36.87295,23.44603 60.52014,23.44603 z M 66.453514,693.52437 C 41.804622,670.47653 26.374099,638.41177 26.374099,603.14475 l 49.898813,-0.40335 c 0,20.84387 9.218227,40.28017 24.448218,54.31068 z m -40.079415,-90.37962 0,-449.49187 49.898813,-0.40137 0,449.4891 z m 0,-449.49187 c 0,-35.47046 15.430523,-67.533647 40.279765,-90.579499 L 100.52094,99.14471 C 85.491139,113.17242 76.272912,132.21013 76.272912,153.25192 Z M 66.653864,63.073381 C 90.902036,40.228202 124.36831,26 161.24127,26 l -0.40097,49.898772 c -23.64661,0 -45.08939,8.817245 -60.31938,23.245938 z M 161.24127,26 l 678.34559,0 -0.40376,49.898772 -678.34278,0 z m 678.34559,0 c 36.66883,0 70.13568,14.228202 94.38345,36.873092 L 899.70156,99.34559 C 884.27474,84.716017 862.83083,75.898772 839.1831,75.898772 Z m 94.38345,36.873092 c 24.6515,23.045245 39.88204,55.109038 39.88204,90.378828 l -49.70116,0.40136 c 0,-21.04178 -9.21907,-40.27976 -24.44963,-54.30729 z"
     style="fill:#000000;fill-opacity:1;fill-rule:nonzero;stroke:none" />
</svg>
