<?xml version="1.0" encoding="UTF-8" standalone="no"?>
<!-- Created with Inkscape (http://www.inkscape.org/) -->

<svg stroke="currentColor" fill="currentColor"
   xmlns:dc="http://purl.org/dc/elements/1.1/"
   xmlns:cc="http://creativecommons.org/ns#"
   xmlns:rdf="http://www.w3.org/1999/02/22-rdf-syntax-ns#"
   xmlns:svg="http://www.w3.org/2000/svg"
   xmlns="http://www.w3.org/2000/svg"
   xmlns:sodipodi="http://sodipodi.sourceforge.net/DTD/sodipodi-0.dtd"
   xmlns:inkscape="http://www.inkscape.org/namespaces/inkscape"
   width="1000"
   height="1000"
   id="svg4152"
   version="1.1"
   inkscape:version="0.92.3 (2405546, 2018-03-11)"
   viewBox="0 0 1000 1000"
   sodipodi:docname="mass-sum.svg">
  <defs
     id="defs5498">
    <marker
       inkscape:isstock="true"
       style="overflow:visible"
       id="marker4233"
       refX="0.0"
       refY="0.0"
       orient="auto"
       inkscape:stockid="TriangleOutL">
      <path
         transform="scale(0.8)"
         style="fill-rule:evenodd;stroke-width:1pt;stroke-opacity:1;fill-opacity:1"
         d="M 5.77,0.0 L -2.88,5.0 L -2.88,-5.0 L 5.77,0.0 z "
         id="path4235" />
    </marker>
    <marker
       inkscape:isstock="true"
       style="overflow:visible"
       id="marker4755"
       refX="0.0"
       refY="0.0"
       orient="auto"
       inkscape:stockid="TriangleOutL">
      <path
         transform="scale(0.8)"
         style="fill-rule:evenodd;stroke-width:1pt;stroke-opacity:1;fill-opacity:1"
         d="M 5.77,0.0 L -2.88,5.0 L -2.88,-5.0 L 5.77,0.0 z "
         id="path4757" />
    </marker>
    <marker
       inkscape:stockid="Arrow1Lend"
       orient="auto"
       refY="0.0"
       refX="0.0"
       id="Arrow1Lend"
       style="overflow:visible;"
       inkscape:isstock="true">
      <path
         id="path4164"
         d="M 0.0,0.0 L 5.0,-5.0 L -12.5,0.0 L 5.0,5.0 L 0.0,0.0 z "
         style="fill-rule:evenodd;stroke-width:1pt;stroke-opacity:1;fill-opacity:1"
         transform="scale(0.8) rotate(180) translate(12.5,0)" />
    </marker>
    <marker
       inkscape:stockid="Arrow2Lend"
       orient="auto"
       refY="0.0"
       refX="0.0"
       id="Arrow2Lend"
       style="overflow:visible;"
       inkscape:isstock="true">
      <path
         id="path4182"
         style="fill-rule:evenodd;stroke-width:0.625;stroke-linejoin:round;stroke-opacity:1;fill-opacity:1"
         d="M 8.7185878,4.0337352 L -2.2072895,0.016013256 L 8.7185884,-4.0017078 C 6.9730900,-1.6296469 6.9831476,1.6157441 8.7185878,4.0337352 z "
         transform="scale(1.1) rotate(180) translate(1,0)" />
    </marker>
  </defs>
  <sodipodi:namedview
     inkscape:window-height="706"
     inkscape:window-width="1366"
     inkscape:pageshadow="2"
     inkscape:pageopacity="0.0"
     borderopacity="1.0"
     bordercolor="#666666"
     pagecolor="#ffffff"
     id="base"
     showgrid="true"
     showguides="true"
     inkscape:guide-bbox="true"
     inkscape:zoom="0.25"
     inkscape:cx="357.82213"
     inkscape:cy="459.29481"
     inkscape:window-x="-8"
     inkscape:window-y="-8"
     inkscape:current-layer="svg4152"
     inkscape:window-maximized="1"
     objecttolerance="20">
    <sodipodi:guide
       orientation="horizontal"
       position="200"
       id="guide5596"
       inkscape:locked="false" />
    <inkscape:grid
       type="xygrid"
       id="grid3430"
       empspacing="50" />
    <sodipodi:guide
       position="550,1000"
       orientation="0,1"
       id="guide4169"
       inkscape:locked="false" />
  </sodipodi:namedview>
  <metadata
     id="metadata5594">
    <rdf:RDF>
      <cc:Work
         rdf:about="">
        <dc:format>image/svg+xml</dc:format>
        <dc:type
           rdf:resource="http://purl.org/dc/dcmitype/StillImage" />
        <dc:title></dc:title>
      </cc:Work>
    </rdf:RDF>
  </metadata>
  <g
     style="clip-rule:evenodd;fill:#c8c8c8;fill-opacity:1;fill-rule:evenodd;image-rendering:optimizeQuality;shape-rendering:geometricPrecision;text-rendering:geometricPrecision;stroke-opacity:1"
     id="g102"
     transform="matrix(21.808985,0,0,21.808985,83.119712,17.527585)">
    <path
       id="line100"
       d="M 0.65088099,30.818001 H 36.684399"
       style="fill:#c8c8c8;fill-opacity:1;fill-rule:nonzero;stroke-width:1.30183995;stroke-linecap:round;stroke-linejoin:round;stroke-opacity:1"
       inkscape:connector-curvature="0" />
  </g>
  <g
     style="clip-rule:evenodd;fill:#80afaf;fill-opacity:1;fill-rule:evenodd;image-rendering:optimizeQuality;shape-rendering:geometricPrecision;text-rendering:geometricPrecision"
     id="g106"
     transform="matrix(21.808985,0,0,21.808985,83.119712,17.527585)">
    <path
       id="line104"
       d="m 37.257999,30.817801 -2.094497,1.586198"
       style="fill:#80afaf;fill-opacity:1;fill-rule:nonzero;stroke:#201e1e;stroke-width:1.30183995;stroke-linecap:round;stroke-linejoin:round"
       inkscape:connector-curvature="0" />
  </g>
  <g
     style="clip-rule:evenodd;fill:#c8c8c8;fill-opacity:1;fill-rule:evenodd;image-rendering:optimizeQuality;shape-rendering:geometricPrecision;text-rendering:geometricPrecision;stroke-opacity:1"
     id="g110"
     transform="matrix(21.808985,0,0,21.808985,83.119712,17.527585)">
    <path
       id="line108"
       d="m 35.163601,29.231701 2.094398,1.585998"
       style="fill:#c8c8c8;fill-opacity:1;fill-rule:nonzero;stroke-width:1.30183995;stroke-linecap:round;stroke-linejoin:round;stroke-opacity:1"
       inkscape:connector-curvature="0" />
  </g>
  <g
     style="clip-rule:evenodd;fill-opacity:1;fill-rule:evenodd;image-rendering:optimizeQuality;shape-rendering:geometricPrecision;text-rendering:geometricPrecision;stroke:none"
     id="g114"
     transform="matrix(21.808985,0,0,21.808985,83.119712,17.527585)">
    <path
       style="fill-opacity:1;stroke:none"
       id="path112"
       d="M 10.5653,18.149 H 9.40037 l 7.493e-4,-0.03005 0.00225,-0.02967 0.00375,-0.0293 0.0051,-0.02877 0.00652,-0.02825 0.00787,-0.02773 0.00914,-0.0272 0.010416,-0.02653 0.01169,-0.02585 0.012814,-0.02525 0.014088,-0.02443 0.015137,-0.02375 0.016186,-0.02293 0.01731,-0.02203 0.018359,-0.02121 0.019258,-0.02031 0.020232,-0.01933 0.021131,-0.01843 0.022031,-0.01731 0.02278,-0.01634 0.023679,-0.01521 0.024354,-0.01401 0.025103,-0.01296 0.025852,-0.01169 0.026452,-0.01049 0.027051,-0.0091 0.027651,-0.0079 0.028175,-0.0065 0.028625,-0.0052 0.02915,-0.0037 0.029599,-0.0022 0.029974,-7.49e-4 0.029974,7.49e-4 0.0296,0.0022 0.02915,0.0037 0.02862,0.0052 0.02817,0.0065 0.02765,0.0079 0.02705,0.0091 0.02645,0.01049 0.02585,0.01169 0.0251,0.01296 0.02435,0.01401 0.02368,0.01521 0.02278,0.01634 0.02203,0.01731 0.02113,0.01843 0.02023,0.01933 0.01926,0.02031 0.01836,0.02121 0.01731,0.02203 0.01619,0.02293 0.01514,0.02375 0.01409,0.02443 0.01281,0.02525 0.01169,0.02585 0.01042,0.02653 0.0091,0.0272 0.0079,0.02773 0.0065,0.02825 0.0051,0.02877 0.0037,0.0293 0.0022,0.02967 7.49e-4,0.03005 z M 9.40037,22.03578 V 18.149 h 1.16493 v 3.88678 z m 0,0 h 1.16493 l -7.49e-4,0.03005 -0.0022,0.02967 -0.0037,0.0293 -0.0051,0.02877 -0.0065,0.02825 -0.0079,0.02773 -0.0091,0.0272 -0.01042,0.02653 -0.01169,0.02585 -0.01281,0.02525 -0.01409,0.02443 -0.01514,0.02375 -0.01619,0.02293 -0.01731,0.02203 -0.01836,0.02121 -0.01926,0.02031 -0.02023,0.01933 -0.02113,0.01843 -0.02203,0.01731 -0.02278,0.01634 -0.02368,0.01521 -0.02435,0.01401 -0.0251,0.01296 -0.02585,0.01169 -0.02645,0.01049 -0.02705,0.0091 -0.02765,0.0079 -0.02818,0.0065 -0.02862,0.0052 -0.02915,0.0037 -0.0296,0.0022 -0.029974,7.49e-4 L 9.952983,22.61941 9.923384,22.61721 9.894234,22.61351 9.865609,22.60831 9.837434,22.60181 9.809783,22.59391 9.782732,22.58481 9.75628,22.57432 9.730428,22.56263 9.705325,22.54967 9.680971,22.53566 9.657292,22.52045 9.634512,22.50411 9.612481,22.4868 9.59135,22.46837 9.571118,22.44904 9.55186,22.42873 9.533501,22.40752 9.516191,22.38549 9.500005,22.36256 9.484868,22.33881 9.47078,22.31438 9.457966,22.28913 9.446276,22.26328 9.43586,22.23675 9.42672,22.20955 9.41885,22.18182 9.41233,22.15357 9.40723,22.1248 9.40348,22.0955 9.40123,22.06583 9.4004807,22.03578 Z"
       class="fil1"
       inkscape:connector-curvature="0" />
  </g>
  <path
     style="clip-rule:evenodd;fill-opacity:1;fill-rule:evenodd;stroke-width:21.80898476;image-rendering:optimizeQuality;shape-rendering:geometricPrecision;text-rendering:geometricPrecision;stroke:none"
     id="path116"
     d="m 639.49309,830.16962 v 30.92492 c 0,4.8864 -1.10637,8.55201 -3.31752,10.99684 -2.23891,2.44319 -5.14788,3.66561 -8.7857,3.66561 -3.54795,0 -6.39972,-1.2224 -8.58142,-3.66561 -2.18173,-2.44483 -3.2881,-6.11044 -3.2881,-10.99684 v -37.0648 c 0,-5.87512 -0.20283,-10.41342 -0.60956,-13.64268 -0.37904,-3.22928 -1.45619,-5.90615 -3.22928,-7.97186 -1.7469,-2.06574 -4.5383,-3.11323 -8.34937,-3.11323 -7.62214,0 -12.62619,2.61806 -15.0416,7.85581 -2.41377,5.2067 -3.63619,12.71281 -3.63619,22.48725 v 31.44943 c 0,4.8292 -1.10484,8.49482 -3.28809,10.96743 -2.18173,2.47262 -5.06126,3.69503 -8.64027,3.69503 -3.52016,0 -6.39971,-1.22239 -8.64026,-3.69503 -2.23891,-2.47261 -3.37472,-6.13823 -3.37472,-10.96743 v -66.56277 c 0,-4.36507 1.01826,-7.71037 3.02663,-9.9787 2.00686,-2.26997 4.68374,-3.40414 7.97022,-3.40414 3.17208,0 5.81956,1.07692 7.97186,3.19985 2.12289,2.12442 3.19986,5.0629 3.19986,8.81513 v 2.21113 c 4.01534,-4.82921 8.34938,-8.37878 12.94649,-10.64711 4.5955,-2.26996 9.7156,-3.40414 15.36029,-3.40414 5.84734,0 10.88081,1.16351 15.09879,3.49075 4.18857,2.32717 7.65153,5.84734 10.38564,10.5605 3.9271,-4.77037 8.1173,-8.29054 12.62618,-10.58992 4.47948,-2.29775 9.45411,-3.46133 14.89451,-3.46133 6.37193,0 11.84012,1.25031 16.43726,3.75224 4.59714,2.50203 8.02904,6.08102 10.29901,10.73536 2.00686,4.18857 2.99557,10.82197 2.99557,19.86916 v 45.41416 c 0,4.88639 -1.10462,8.552 -3.31588,10.99683 -2.21113,2.4432 -5.14951,3.66561 -8.78571,3.66561 -3.52016,0 -6.39971,-1.22239 -8.64026,-3.69503 -2.24054,-2.47261 -3.37472,-6.13822 -3.37472,-10.96743 V 821.9658 c 0,-5.00407 -0.205,-8.98999 -0.64053,-12.01498 -0.4364,-2.99721 -1.57046,-5.52867 -3.43193,-7.59435 -1.89084,-2.0363 -4.71316,-3.05441 -8.52423,-3.05441 -3.08382,0 -5.99279,0.90202 -8.72851,2.73572 -2.7635,1.80251 -4.88639,4.24741 -6.42911,7.32958 -1.71593,3.89932 -2.55922,10.85139 -2.55922,20.80233 z m 110.02568,-66.30127 -23.85511,98.24424 c -0.81544,3.25706 -1.51332,5.7885 -2.09519,7.67931 -0.6113,1.8614 -1.51332,3.3453 -2.73408,4.39286 -1.22239,1.04748 -2.99721,1.57221 -5.32438,1.57221 -5.79013,0 -8.6991,-2.50204 -8.6991,-7.50609 0,-1.30898 0.58186,-4.56772 1.71767,-9.80384 l 23.76678,-98.24424 c 1.25183,-5.23612 2.44483,-8.81513 3.57901,-10.73536 1.16351,-1.94973 3.37472,-2.90895 6.66282,-2.90895 2.85012,0 5.03183,0.66844 6.51574,2.0363 1.51332,1.36786 2.26996,3.25868 2.26996,5.64469 0,1.74537 -0.61109,4.97465 -1.80426,9.62897 z m 79.27566,43.95797 -42.61956,47.65307 h 45.58732 c 3.69503,0 6.48796,0.87279 8.34938,2.58863 1.89083,1.74538 2.82234,3.98592 2.82234,6.69224 0,2.61806 -0.93146,4.74095 -2.7635,6.39972 -1.8614,1.65879 -4.65435,2.47262 -8.4082,2.47262 h -63.07049 c -4.42227,0 -7.73979,-0.95938 -9.92152,-2.90895 -2.18173,-1.92028 -3.28646,-4.56772 -3.28646,-7.91302 0,-1.97917 0.75655,-3.98592 2.29775,-6.0222 1.54102,-2.00687 4.71316,-5.7019 9.54237,-11.11288 5.1201,-5.67411 9.77442,-10.82197 13.93522,-15.41911 4.18857,-4.59713 8.05847,-8.90173 11.63584,-12.91709 3.579,-4.01534 6.54679,-7.38842 8.90336,-10.18135 2.35659,-2.79292 4.24741,-5.17893 5.67248,-7.15799 H 772.8804 c -4.77037,0 -8.37877,-0.4364 -10.82197,-1.27953 -2.4432,-0.84336 -3.66561,-3.08382 -3.66561,-6.72003 0,-2.6769 0.90202,-4.79978 2.7635,-6.39971 1.83196,-1.59991 4.47948,-2.38599 7.8836,-2.38599 h 53.44314 c 4.94523,0 8.72686,0.72733 11.37434,2.18172 2.64748,1.425 3.9565,4.04313 3.9565,7.797 0,1.25009 -0.26149,2.53146 -0.75655,3.86826 -0.52298,1.33842 -1.07693,2.41541 -1.71593,3.2881 -0.61131,0.84335 -1.48389,1.89084 -2.56086,3.11323 -1.0754,1.22087 -2.41377,2.6769 -3.98592,4.36343 z"
     class="fil1"
     inkscape:connector-curvature="0" />
  <g
     style="clip-rule:evenodd;fill:#c8c8c8;fill-opacity:1;fill-rule:evenodd;image-rendering:optimizeQuality;shape-rendering:geometricPrecision;text-rendering:geometricPrecision;stroke-opacity:1"
     id="g120"
     transform="matrix(21.808985,0,0,21.808985,83.119712,17.527585)">
    <path
       id="line118"
       d="M 0.65088099,22.035801 H 36.684399"
       style="fill:#c8c8c8;fill-opacity:1;fill-rule:nonzero;stroke-width:1.30183995;stroke-linecap:round;stroke-linejoin:round;stroke-opacity:1"
       inkscape:connector-curvature="0" />
  </g>
  <g
     style="clip-rule:evenodd;fill:#c8c8c8;fill-opacity:1;fill-rule:evenodd;image-rendering:optimizeQuality;shape-rendering:geometricPrecision;text-rendering:geometricPrecision;stroke-opacity:1"
     id="g124"
     transform="matrix(21.808985,0,0,21.808985,83.119712,17.527585)">
    <path
       id="line122"
       d="M 0.65088099,13.2535 H 36.684399"
       style="fill:#c8c8c8;fill-opacity:1;fill-rule:nonzero;stroke-width:1.30183995;stroke-linecap:round;stroke-linejoin:round;stroke-opacity:1"
       inkscape:connector-curvature="0" />
  </g>
  <g
     style="clip-rule:evenodd;fill:#c8c8c8;fill-opacity:1;fill-rule:evenodd;image-rendering:optimizeQuality;shape-rendering:geometricPrecision;text-rendering:geometricPrecision;stroke-opacity:1"
     id="g128"
     transform="matrix(21.808985,0,0,21.808985,83.119712,17.527585)">
    <path
       id="line126"
       d="M 0.65088099,4.4712701 H 36.684399"
       style="fill:#c8c8c8;fill-opacity:1;fill-rule:nonzero;stroke-width:1.30183995;stroke-linecap:round;stroke-linejoin:round;stroke-opacity:1"
       inkscape:connector-curvature="0" />
  </g>
  <g
     style="clip-rule:evenodd;fill-opacity:1;fill-rule:evenodd;image-rendering:optimizeQuality;shape-rendering:geometricPrecision;text-rendering:geometricPrecision;stroke:none"
     id="g132"
     transform="matrix(21.808985,0,0,21.808985,83.119712,17.527585)">
    <path
       style="fill-opacity:1;stroke:none"
       id="path130"
       d="m 23.7357,18.149 h -1.16493 l 7.49e-4,-0.03005 0.0022,-0.02967 0.0037,-0.0293 0.0051,-0.02877 0.0065,-0.02825 0.0079,-0.02773 0.0091,-0.0272 0.01042,-0.02653 0.01169,-0.02585 0.01281,-0.02525 0.01409,-0.02443 0.01514,-0.02375 0.01619,-0.02293 0.01731,-0.02203 0.01836,-0.02121 0.01926,-0.02031 0.02023,-0.01933 0.02113,-0.01843 0.02203,-0.01731 0.02278,-0.01634 0.02368,-0.01521 0.02435,-0.01401 0.0251,-0.01296 0.02585,-0.01169 0.02645,-0.01049 0.02705,-0.0091 0.02765,-0.0079 0.02818,-0.0065 0.02862,-0.0052 0.02915,-0.0037 0.0296,-0.0022 0.02997,-7.49e-4 0.02997,7.49e-4 0.0296,0.0022 0.02915,0.0037 0.02862,0.0052 0.02818,0.0065 0.02765,0.0079 0.02705,0.0091 0.02645,0.01049 0.02585,0.01169 0.0251,0.01296 0.02435,0.01401 0.02368,0.01521 0.02278,0.01634 0.02203,0.01731 0.02113,0.01843 0.02023,0.01933 0.01926,0.02031 0.01836,0.02121 0.01731,0.02203 0.01619,0.02293 0.01514,0.02375 0.01409,0.02443 0.01281,0.02525 0.01169,0.02585 0.01042,0.02653 0.0091,0.0272 0.0079,0.02773 0.0065,0.02825 0.0051,0.02877 0.0037,0.0293 0.0022,0.02967 7.49e-4,0.03005 z m -1.16493,3.88678 V 18.149 h 1.16493 v 3.88678 z m 0,0 h 1.16493 l -7.49e-4,0.03005 -0.0022,0.02967 -0.0037,0.0293 -0.0051,0.02877 -0.0065,0.02825 -0.0079,0.02773 -0.0091,0.0272 -0.01042,0.02653 -0.01169,0.02585 -0.01281,0.02525 -0.01409,0.02443 -0.01514,0.02375 -0.01619,0.02293 -0.01731,0.02203 -0.01836,0.02121 -0.01926,0.02031 -0.02023,0.01933 -0.02113,0.01843 -0.02203,0.01731 -0.02278,0.01634 -0.02368,0.01521 -0.02435,0.01401 -0.0251,0.01296 -0.02585,0.01169 -0.02645,0.01049 -0.02705,0.0091 -0.02765,0.0079 -0.02818,0.0065 -0.02863,0.0052 -0.02915,0.0037 -0.0296,0.0022 -0.02997,7.49e-4 -0.02997,-7.49e-4 -0.0296,-0.0022 -0.02915,-0.0037 -0.02862,-0.0052 -0.02818,-0.0065 -0.02765,-0.0079 -0.02705,-0.0091 -0.02645,-0.01049 -0.02585,-0.01169 -0.0251,-0.01296 -0.02435,-0.01401 -0.02368,-0.01521 -0.02278,-0.01634 -0.02203,-0.01731 -0.02113,-0.01843 -0.02023,-0.01933 -0.01926,-0.02031 -0.01836,-0.02121 -0.01731,-0.02203 -0.01619,-0.02293 -0.01514,-0.02375 -0.01409,-0.02443 -0.01281,-0.02525 -0.01169,-0.02585 -0.01042,-0.02653 -0.0091,-0.0272 -0.0079,-0.02773 -0.0065,-0.02825 -0.0051,-0.02877 -0.0037,-0.0293 -0.0022,-0.02967 -7.49e-4,-0.03005 z"
       class="fil1"
       inkscape:connector-curvature="0" />
  </g>
  <g
     style="clip-rule:evenodd;fill-opacity:1;fill-rule:evenodd;image-rendering:optimizeQuality;shape-rendering:geometricPrecision;text-rendering:geometricPrecision;stroke:none"
     id="g136"
     transform="matrix(21.808985,0,0,21.808985,83.119712,17.527585)">
    <path
       style="fill-opacity:1;stroke:none"
       id="path134"
       d="m 23.7357,9.36674 h -1.16493 l 7.49e-4,-0.030049 0.0022,-0.029674 0.0037,-0.029299 0.0051,-0.028775 0.0065,-0.02825 0.0079,-0.027726 0.0091,-0.027201 0.01042,-0.026527 0.01169,-0.025852 0.01281,-0.025253 0.01409,-0.024429 0.01514,-0.023754 0.01619,-0.02293 0.01731,-0.022031 0.01836,-0.021207 0.01926,-0.020307 0.02023,-0.019333 0.02113,-0.018434 0.02203,-0.01731 0.02278,-0.016336 0.02368,-0.015212 0.02435,-0.014013 0.0251,-0.012964 0.02585,-0.01169 0.02645,-0.010491 0.02705,-0.00914 0.02765,-0.00787 0.02818,-0.00652 0.02862,-0.00517 0.02915,-0.00375 0.0296,-0.00225 0.02997,-7.493e-4 0.02997,7.493e-4 0.0296,0.00225 0.02915,0.00375 0.02862,0.00517 0.02818,0.00652 0.02765,0.00787 0.02705,0.00914 0.02645,0.010491 0.02585,0.01169 0.0251,0.012964 0.02435,0.014013 0.02368,0.015212 0.02278,0.016336 0.02203,0.01731 0.02113,0.018434 0.02023,0.019333 0.01926,0.020307 0.01836,0.021207 0.01731,0.022031 0.01619,0.02293 0.01514,0.023754 0.01409,0.024429 0.01281,0.025253 0.01169,0.025852 0.01042,0.026527 0.0091,0.027201 0.0079,0.027726 0.0065,0.02825 0.0051,0.028775 0.0037,0.029299 0.0022,0.029674 7.49e-4,0.030049 z m -1.16493,3.88678 V 9.36674 h 1.16493 v 3.88678 z m 0,0 h 1.16493 l -7.49e-4,0.03005 -0.0022,0.02967 -0.0037,0.0293 -0.0051,0.02877 -0.0065,0.02825 -0.0079,0.02773 -0.0091,0.0272 -0.01042,0.02653 -0.01169,0.02585 -0.01281,0.02525 -0.01409,0.02443 -0.01514,0.02375 -0.01619,0.02293 -0.01731,0.02203 -0.01836,0.02121 -0.01926,0.02031 -0.02023,0.01933 -0.02113,0.01843 -0.02203,0.01731 -0.02278,0.01634 -0.02368,0.01521 -0.02435,0.01401 -0.0251,0.01296 -0.02585,0.01169 -0.02645,0.01049 -0.02705,0.0091 -0.02765,0.0079 -0.02818,0.0065 -0.02863,0.0052 -0.02915,0.0037 -0.0296,0.0022 -0.02997,7.49e-4 -0.02997,-7.49e-4 -0.0296,-0.0022 -0.02915,-0.0037 -0.02862,-0.0052 -0.02818,-0.0065 -0.02765,-0.0079 -0.02705,-0.0091 -0.02645,-0.01049 -0.02585,-0.01169 -0.0251,-0.01296 -0.02435,-0.01401 -0.02368,-0.01521 -0.02278,-0.01634 -0.02203,-0.01731 -0.02113,-0.01843 -0.02023,-0.01933 -0.01926,-0.02031 -0.01836,-0.02121 -0.01731,-0.02203 -0.01619,-0.02293 -0.01514,-0.02375 -0.01409,-0.02443 -0.01281,-0.02525 -0.01169,-0.02585 -0.01042,-0.02653 -0.0091,-0.0272 -0.0079,-0.02773 -0.0065,-0.02825 -0.0051,-0.02877 -0.0037,-0.0293 -0.0022,-0.02967 -7.49e-4,-0.03005 z"
       class="fil1"
       inkscape:connector-curvature="0" />
  </g>
  <g
     style="clip-rule:evenodd;fill-opacity:1;fill-rule:evenodd;image-rendering:optimizeQuality;shape-rendering:geometricPrecision;text-rendering:geometricPrecision;stroke:none"
     id="g140"
     transform="matrix(21.808985,0,0,21.808985,83.119712,17.527585)">
    <path
       style="fill-opacity:1;stroke:none"
       id="path138"
       d="M 10.5653,0.584489 H 9.40037 l 7.493e-4,-0.0300487 0.00225,-0.0296741 0.00375,-0.0292994 0.0051,-0.0287749 0.00652,-0.0282503 0.00787,-0.0277258 0.00914,-0.0272012 0.010416,-0.0265268 0.01169,-0.0258524 0.012814,-0.0252529 0.014088,-0.0244287 0.015137,-0.0237542 0.016186,-0.02293 0.01731,-0.0220308 0.018359,-0.0212065 0.019258,-0.0203073 0.020232,-0.0193331 0.021131,-0.0184339 0.022031,-0.0173099 0.02278,-0.0163357 0.023679,-0.0152117 0.024354,-0.0140128 0.025103,-0.0129637 0.025852,-0.0116898 0.026452,-0.0104908 0.027051,-0.009142 0.027651,-0.0078681 0.028175,-0.0065193 0.028625,-0.00517048 0.02915,-0.00374673 0.029599,-0.00224804 0.029974,-7.49345e-4 0.029974,7.49345e-4 0.0296,0.00224804 0.02915,0.00374673 0.02862,0.00517048 0.02817,0.0065193 0.02765,0.0078681 0.02705,0.009142 0.02645,0.0104908 0.02585,0.0116898 0.0251,0.0129637 0.02435,0.0140128 0.02368,0.0152117 0.02278,0.0163357 0.02203,0.0173099 0.02113,0.0184339 0.02023,0.0193331 0.01926,0.0203073 0.01836,0.0212065 0.01731,0.0220308 0.01619,0.02293 0.01514,0.0237542 0.01409,0.0244287 0.01281,0.0252529 0.01169,0.0258524 0.01042,0.0265268 0.0091,0.0272012 0.0079,0.0277258 0.0065,0.0282503 0.0051,0.0287749 0.0037,0.0292994 0.0022,0.0296741 7.49e-4,0.0300487 z m -1.16493,3.88678 v -3.88678 h 1.16493 v 3.88678 z m 0,0 h 1.16493 l -7.49e-4,0.030049 -0.0022,0.029674 -0.0037,0.029299 -0.0051,0.028775 -0.0065,0.02825 -0.0079,0.027726 -0.0091,0.027201 -0.01042,0.026527 -0.01169,0.025852 -0.01281,0.025253 -0.01409,0.024429 -0.01514,0.023754 -0.01619,0.02293 -0.01731,0.022031 -0.01836,0.021207 -0.01926,0.020307 -0.02023,0.019333 -0.02113,0.018434 -0.02203,0.01731 -0.02278,0.016336 -0.02368,0.015212 -0.02435,0.014013 -0.0251,0.012964 -0.02585,0.01169 -0.02645,0.010491 -0.02705,0.00914 -0.02765,0.00787 -0.02818,0.00652 -0.02862,0.00517 -0.02915,0.00375 -0.0296,0.00225 L 9.982957,5.0557653 9.952983,5.055016 9.923384,5.052766 9.894234,5.049016 9.865609,5.043846 9.837434,5.037326 9.809783,5.029456 9.782732,5.020316 9.75628,5.009825 9.730428,4.998135 9.705325,4.985171 9.680971,4.971158 9.657292,4.955946 9.634512,4.93961 9.612481,4.9223 9.59135,4.903866 9.571118,4.884533 9.55186,4.864226 9.533501,4.843019 9.516191,4.820988 9.500005,4.798058 9.484868,4.774304 9.47078,4.749875 9.457966,4.724622 9.446276,4.69877 9.43586,4.672243 9.42672,4.645042 9.41885,4.617316 9.41233,4.589066 9.40723,4.560291 9.40348,4.530992 9.40123,4.501318 9.4004807,4.471269 Z"
       class="fil1"
       inkscape:connector-curvature="0" />
  </g>
  <g
     style="clip-rule:evenodd;fill-opacity:1;fill-rule:evenodd;image-rendering:optimizeQuality;shape-rendering:geometricPrecision;text-rendering:geometricPrecision;stroke:none"
     id="g144"
     transform="matrix(21.808985,0,0,21.808985,83.119712,17.527585)">
    <path
       style="fill-opacity:1;stroke:none"
       id="path142"
       d="m 17.2413,6.90634 h -1.16493 l 7.49e-4,-0.030049 0.0022,-0.029674 0.0037,-0.029299 0.0051,-0.028775 0.0065,-0.02825 0.0079,-0.027726 0.0091,-0.027201 0.01042,-0.026527 0.01169,-0.025852 0.01281,-0.025253 0.01409,-0.024429 0.01514,-0.023754 0.01619,-0.02293 0.01731,-0.022031 0.01836,-0.021206 0.01926,-0.020307 0.02023,-0.019333 0.02113,-0.018434 0.02203,-0.01731 0.02278,-0.016336 0.02368,-0.015212 0.02435,-0.014013 0.0251,-0.012964 0.02585,-0.01169 0.02645,-0.010491 0.02705,-0.00914 0.02765,-0.00787 0.02818,-0.00652 0.02863,-0.00517 0.02915,-0.00375 0.0296,-0.00225 0.02997,-7.493e-4 0.02997,7.493e-4 0.0296,0.00225 0.02915,0.00375 0.02863,0.00517 0.02818,0.00652 0.02765,0.00787 0.02705,0.00914 0.02645,0.010491 0.02585,0.01169 0.0251,0.012964 0.02435,0.014013 0.02368,0.015212 0.02278,0.016336 0.02203,0.01731 0.02113,0.018434 0.02023,0.019333 0.01926,0.020307 0.01836,0.021206 0.01731,0.022031 0.01619,0.02293 0.01514,0.023754 0.01409,0.024429 0.01281,0.025253 0.01169,0.025852 0.01042,0.026527 0.0091,0.027201 0.0079,0.027726 0.0065,0.02825 0.0051,0.028775 0.0037,0.029299 0.0022,0.029674 7.49e-4,0.030049 z m -1.16493,3.88678 V 6.90634 h 1.16493 v 3.88678 z m 0,0 h 1.16493 l -7.49e-4,0.03005 -0.0022,0.02967 -0.0037,0.0293 -0.0051,0.02877 -0.0065,0.02825 -0.0079,0.02773 -0.0091,0.0272 -0.01042,0.02653 -0.01169,0.02585 -0.01281,0.02525 -0.01409,0.02443 -0.01514,0.02375 -0.01619,0.02293 -0.01731,0.02203 -0.01836,0.02121 -0.01926,0.02031 -0.02023,0.01933 -0.02113,0.01843 -0.02203,0.01731 -0.02278,0.01634 -0.02368,0.01521 -0.02435,0.01401 -0.0251,0.01296 -0.02585,0.01169 -0.02645,0.01049 -0.02705,0.0091 -0.02765,0.0079 -0.02818,0.0065 -0.02863,0.0052 -0.02915,0.0037 -0.0296,0.0022 -0.02997,7.49e-4 -0.02997,-7.49e-4 -0.0296,-0.0022 -0.02915,-0.0037 -0.02863,-0.0052 -0.02817,-0.0065 -0.02765,-0.0079 -0.02705,-0.0091 -0.02645,-0.01049 -0.02585,-0.01169 -0.0251,-0.01296 -0.02435,-0.01401 -0.02368,-0.01521 -0.02278,-0.01634 -0.02203,-0.01731 -0.02113,-0.01843 -0.02023,-0.01933 -0.01926,-0.02031 -0.01836,-0.02121 -0.01731,-0.02203 -0.01619,-0.02293 -0.01514,-0.02375 -0.01409,-0.02443 -0.01281,-0.02525 -0.01169,-0.02585 -0.01042,-0.02653 -0.0091,-0.0272 -0.0079,-0.02773 -0.0065,-0.02825 -0.0051,-0.02877 -0.0037,-0.0293 -0.0022,-0.02967 -7.49e-4,-0.03005 z"
       class="fil1"
       inkscape:connector-curvature="0" />
  </g>
  <g
     style="clip-rule:evenodd;fill-opacity:1;fill-rule:evenodd;image-rendering:optimizeQuality;shape-rendering:geometricPrecision;text-rendering:geometricPrecision;stroke:none"
     id="g148"
     transform="matrix(21.808985,0,0,21.808985,83.119712,17.527585)">
    <path
       style="fill-opacity:1;stroke:none"
       id="path146"
       d="M 18.6023,9.43223 V 8.2673 l 0.03005,7.493e-4 0.02967,0.00225 0.0293,0.00375 0.02877,0.0051 0.02825,0.00652 0.02773,0.00787 0.0272,0.00914 0.02653,0.010416 0.02585,0.01169 0.02525,0.012814 0.02443,0.014088 0.02375,0.015137 0.02293,0.016186 0.02203,0.01731 0.02121,0.018359 0.02031,0.019258 0.01933,0.020232 0.01843,0.021131 0.01731,0.022031 0.01634,0.02278 0.01521,0.023679 0.01401,0.024354 0.01296,0.025103 0.01169,0.025852 0.01049,0.026452 0.0091,0.027051 0.0079,0.027651 0.0065,0.028175 0.0052,0.028625 0.0037,0.02915 0.0022,0.029599 7.49e-4,0.029974 -7.49e-4,0.029974 -0.0022,0.029599 -0.0037,0.029149 -0.0052,0.028625 -0.0065,0.028175 -0.0079,0.027651 -0.0091,0.027051 -0.01049,0.026452 -0.01169,0.025852 -0.01296,0.025103 -0.01401,0.024354 -0.01521,0.023679 -0.01634,0.02278 -0.01731,0.022031 -0.01843,0.021132 -0.01933,0.020232 -0.02031,0.019258 -0.02121,0.018359 -0.02203,0.01731 -0.02293,0.016186 -0.02375,0.015137 -0.02443,0.014088 -0.02525,0.012814 -0.02585,0.01169 -0.02653,0.010416 -0.0272,0.00914 -0.02773,0.00787 -0.02825,0.00652 -0.02877,0.0051 -0.0293,0.00375 -0.02967,0.00225 -0.03005,7.493e-4 z M 14.71552,8.2673 h 3.88678 v 1.16493 h -3.88678 z m 0,0 v 1.16493 l -0.03005,-7.493e-4 -0.02967,-0.00225 -0.0293,-0.00375 -0.02877,-0.0051 -0.02825,-0.00652 -0.02773,-0.00787 -0.0272,-0.00914 -0.02653,-0.010416 -0.02585,-0.01169 -0.02525,-0.012814 -0.02443,-0.014088 -0.02375,-0.015137 -0.02293,-0.016186 -0.02203,-0.01731 -0.02121,-0.018359 -0.02031,-0.019258 -0.01933,-0.020232 -0.01843,-0.021132 -0.01731,-0.022031 -0.01634,-0.02278 -0.01521,-0.023679 -0.01401,-0.024354 -0.01296,-0.025103 -0.01169,-0.025852 -0.01049,-0.026452 -0.0091,-0.027051 -0.0079,-0.027651 -0.0065,-0.028175 -0.0052,-0.028625 -0.0037,-0.029149 -0.0022,-0.029599 -7.49e-4,-0.029974 7.49e-4,-0.029974 0.0022,-0.029599 0.0037,-0.02915 0.0052,-0.028625 0.0065,-0.028175 0.0079,-0.027651 0.0091,-0.027051 0.01049,-0.026452 0.01169,-0.025852 0.01296,-0.025103 0.01401,-0.024354 0.01521,-0.023679 0.01634,-0.02278 0.01731,-0.022031 0.01843,-0.021131 0.01933,-0.020232 0.02031,-0.019258 0.02121,-0.018359 0.02203,-0.01731 0.02293,-0.016186 0.02375,-0.015137 0.02443,-0.014088 0.02525,-0.012814 0.02585,-0.01169 0.02653,-0.010416 0.0272,-0.00914 0.02773,-0.00787 0.02825,-0.00652 0.02877,-0.0051 0.0293,-0.00375 0.02967,-0.00225 0.03005,-7.493e-4 z"
       class="fil1"
       inkscape:connector-curvature="0" />
  </g>
  <g
     style="clip-rule:evenodd;fill-opacity:1;fill-rule:evenodd;image-rendering:optimizeQuality;shape-rendering:geometricPrecision;text-rendering:geometricPrecision;stroke:none"
     id="g152"
     transform="matrix(21.808985,0,0,21.808985,83.119712,17.527585)">
    <path
       style="fill-opacity:1;stroke:none"
       id="path150"
       d="m 18.6023,17.3381 v -1.16493 l 0.03005,7.49e-4 0.02967,0.0022 0.0293,0.0037 0.02877,0.0051 0.02825,0.0065 0.02773,0.0079 0.0272,0.0091 0.02653,0.01042 0.02585,0.01169 0.02525,0.01281 0.02443,0.01409 0.02375,0.01514 0.02293,0.01619 0.02203,0.01731 0.02121,0.01836 0.02031,0.01926 0.01933,0.02023 0.01843,0.02113 0.01731,0.02203 0.01634,0.02278 0.01521,0.02368 0.01401,0.02435 0.01296,0.0251 0.01169,0.02585 0.01049,0.02645 0.0091,0.02705 0.0079,0.02765 0.0065,0.02818 0.0052,0.02862 0.0037,0.02915 0.0022,0.0296 7.49e-4,0.02997 -7.49e-4,0.02997 -0.0022,0.0296 -0.0037,0.02915 -0.0052,0.02862 -0.0065,0.02818 -0.0079,0.02765 -0.0091,0.02705 -0.01049,0.02645 -0.01169,0.02585 -0.01296,0.0251 -0.01401,0.02435 -0.01521,0.02368 -0.01634,0.02278 -0.01731,0.02203 -0.01843,0.02113 -0.01933,0.02023 -0.02031,0.01926 -0.02121,0.01836 -0.02203,0.01731 -0.02293,0.01619 -0.02375,0.01514 -0.02443,0.01409 -0.02525,0.01281 -0.02585,0.01169 -0.02653,0.01042 -0.0272,0.0091 -0.02773,0.0079 -0.02825,0.0065 -0.02877,0.0051 -0.0293,0.0037 -0.02967,0.0022 -0.03005,7.49e-4 z m -3.88678,-1.16493 h 3.88678 v 1.16493 h -3.88678 z m 0,0 v 1.16493 l -0.03005,-7.49e-4 -0.02967,-0.0022 -0.0293,-0.0037 -0.02877,-0.0051 -0.02825,-0.0065 -0.02773,-0.0079 -0.0272,-0.0091 -0.02653,-0.01042 -0.02585,-0.01169 -0.02525,-0.01281 -0.02443,-0.01409 -0.02375,-0.01514 -0.02293,-0.01619 -0.02203,-0.01731 -0.02121,-0.01836 -0.02031,-0.01926 -0.01933,-0.02023 -0.01843,-0.02113 -0.01731,-0.02203 -0.01634,-0.02278 -0.01521,-0.02368 -0.01401,-0.02435 -0.01296,-0.0251 -0.01169,-0.02585 -0.01049,-0.02645 -0.0091,-0.02705 -0.0079,-0.02765 -0.0065,-0.02818 -0.0052,-0.02862 -0.0037,-0.02915 -0.0022,-0.0296 -7.49e-4,-0.02997 7.49e-4,-0.02997 0.0022,-0.0296 0.0037,-0.02915 0.0052,-0.02862 0.0065,-0.02818 0.0079,-0.02765 0.0091,-0.02705 0.01049,-0.02645 0.01169,-0.02585 0.01296,-0.0251 0.01401,-0.02435 0.01521,-0.02368 0.01634,-0.02278 0.01731,-0.02203 0.01843,-0.02113 0.01933,-0.02023 0.02031,-0.01926 0.02121,-0.01836 0.02203,-0.01731 0.02293,-0.01619 0.02375,-0.01514 0.02443,-0.01409 0.02525,-0.01281 0.02585,-0.01169 0.02653,-0.01042 0.0272,-0.0091 0.02773,-0.0079 0.02825,-0.0065 0.02877,-0.0051 0.0293,-0.0037 0.02967,-0.0022 0.03005,-7.49e-4 z"
       class="fil1"
       inkscape:connector-curvature="0" />
  </g>
  <g
     style="clip-rule:evenodd;fill-opacity:1;fill-rule:evenodd;image-rendering:optimizeQuality;shape-rendering:geometricPrecision;text-rendering:geometricPrecision;stroke:none"
     id="g156"
     transform="matrix(21.808985,0,0,21.808985,83.119712,17.527585)">
    <path
       style="fill-opacity:1;stroke:none"
       id="path154"
       d="m 18.6023,19.2803 v -1.16493 l 0.03005,7.49e-4 0.02967,0.0022 0.0293,0.0037 0.02877,0.0051 0.02825,0.0065 0.02773,0.0079 0.0272,0.0091 0.02653,0.01042 0.02585,0.01169 0.02525,0.01281 0.02443,0.01409 0.02375,0.01514 0.02293,0.01619 0.02203,0.01731 0.02121,0.01836 0.02031,0.01926 0.01933,0.02023 0.01843,0.02113 0.01731,0.02203 0.01634,0.02278 0.01521,0.02368 0.01401,0.02435 0.01296,0.0251 0.01169,0.02585 0.01049,0.02645 0.0091,0.02705 0.0079,0.02765 0.0065,0.02818 0.0052,0.02863 0.0037,0.02915 0.0022,0.0296 7.49e-4,0.02997 -7.49e-4,0.02997 -0.0022,0.0296 -0.0037,0.02915 -0.0052,0.02862 -0.0065,0.02818 -0.0079,0.02765 -0.0091,0.02705 -0.01049,0.02645 -0.01169,0.02585 -0.01296,0.0251 -0.01401,0.02435 -0.01521,0.02368 -0.01634,0.02278 -0.01731,0.02203 -0.01843,0.02113 -0.01933,0.02023 -0.02031,0.01926 -0.02121,0.01836 -0.02203,0.01731 -0.02293,0.01619 -0.02375,0.01514 -0.02443,0.01409 -0.02525,0.01281 -0.02585,0.01169 -0.02653,0.01042 -0.0272,0.0091 -0.02773,0.0079 -0.02825,0.0065 -0.02877,0.0051 -0.0293,0.0037 -0.02967,0.0022 -0.03005,7.49e-4 z m -3.88678,-1.16493 h 3.88678 v 1.16493 h -3.88678 z m 0,0 v 1.16493 l -0.03005,-7.49e-4 -0.02967,-0.0022 -0.0293,-0.0037 -0.02877,-0.0051 -0.02825,-0.0065 -0.02773,-0.0079 -0.0272,-0.0091 -0.02653,-0.01042 -0.02585,-0.01169 -0.02525,-0.01281 -0.02443,-0.01409 -0.02375,-0.01514 -0.02293,-0.01619 -0.02203,-0.01731 -0.02121,-0.01836 -0.02031,-0.01926 -0.01933,-0.02023 -0.01843,-0.02113 -0.01731,-0.02203 -0.01634,-0.02278 -0.01521,-0.02368 -0.01401,-0.02435 -0.01296,-0.0251 -0.01169,-0.02585 -0.01049,-0.02645 -0.0091,-0.02705 -0.0079,-0.02765 -0.0065,-0.02818 -0.0052,-0.02862 -0.0037,-0.02915 -0.0022,-0.0296 -7.49e-4,-0.02997 7.49e-4,-0.02997 0.0022,-0.0296 0.0037,-0.02915 0.0052,-0.02862 0.0065,-0.02818 0.0079,-0.02765 0.0091,-0.02705 0.01049,-0.02645 0.01169,-0.02585 0.01296,-0.0251 0.01401,-0.02435 0.01521,-0.02368 0.01634,-0.02278 0.01731,-0.02203 0.01843,-0.02113 0.01933,-0.02023 0.02031,-0.01926 0.02121,-0.01836 0.02203,-0.01731 0.02293,-0.01619 0.02375,-0.01514 0.02443,-0.01409 0.02525,-0.01281 0.02585,-0.01169 0.02653,-0.01042 0.0272,-0.0091 0.02773,-0.0079 0.02825,-0.0065 0.02877,-0.0051 0.0293,-0.0037 0.02967,-0.0022 0.03005,-7.49e-4 z"
       class="fil1"
       inkscape:connector-curvature="0" />
  </g>
</svg>
