<svg stroke="currentColor" fill="currentColor"
   xmlns="http://www.w3.org/2000/svg"
   width="1000"
   height="1000"
   viewBox="139.8 39.2 718.6 718.6">
  <path
     d="m 323.67252,162.97015 350.85749,0 c 44.02147,0 79.98506,35.96407 79.98506,79.98649 l 0,398.9701 c 0,44.02135 -35.96359,79.98494 -79.98506,79.98494 l -350.85749,0 c -43.90234,0 -79.98641,-35.96359 -79.98641,-79.98494 l 0,-398.9701 c 0,-44.02242 35.96398,-79.98649 79.98641,-79.98649 z"
     style="fill:none;stroke-width:39.21135712px;stroke-linecap:round;stroke-linejoin:round;stroke-miterlimit:4;stroke-dasharray:none;stroke-opacity:1" />
  <path
     d="m 385.85742,221.90745 c 22.13159,0 40.05317,-32.83646 40.05317,-73.37088 0,-40.53438 -17.92158,-73.37084 -40.05317,-73.37084 -22.13149,0 -40.05344,32.83646 -40.05344,73.37084"
     style="fill:none;stroke-width:39.21135712px;stroke-linecap:round;stroke-linejoin:round;stroke-miterlimit:4;stroke-dasharray:none;stroke-opacity:1" />
  <path
     d="m 612.34678,221.90745 c 22.13017,0 40.05305,-32.83646 40.05305,-73.37088 0,-40.53438 -17.92288,-73.37084 -40.05305,-73.37084 -22.01249,0 -39.93536,32.83646 -39.93536,73.37084"
     style="fill:none;stroke-width:39.21135712px;stroke-linecap:round;stroke-linejoin:round;stroke-miterlimit:4;stroke-dasharray:none;stroke-opacity:1" />
  <path
     d="m 318.13976,438.77329 85.51914,0 42.57912,73.73137 91.65368,-158.52922 47.6296,84.79785 94.54218,0"
     style="fill:none;stroke-width:34.03931046px;stroke-linecap:round;stroke-linejoin:round;stroke-miterlimit:4;stroke-dasharray:none;stroke-opacity:1" />
</svg>
