<svg stroke="currentColor" fill="currentColor"
   xmlns="http://www.w3.org/2000/svg"
   width="1000"
   height="1000"
   viewBox="155.6 62.8 687.4 687.4">
  <g
     transform="translate(1015.2579,342.70022)">
    <path
       style="fill-opacity:1;fill-rule:nonzero;stroke:none"
       d="m -794.81466,323.21623 c 0,10.72378 8.69902,19.54345 19.4234,19.54345 10.84382,0 19.5425,-8.81967 19.5425,-19.54345 z m 0,0 0,-541.82746 38.9659,0 0,541.82746 z m 38.9659,-541.82746 c 0,-10.72438 -8.69868,-19.5425 -19.5425,-19.5425 -10.72438,0 -19.4234,8.81812 -19.4234,19.5425 z" />
    <path
       style="fill:none;stroke-width:38.84660721px;stroke-linecap:round;stroke-linejoin:round;stroke-miterlimit:4;stroke-dasharray:none;stroke-opacity:1"
       d="m -775.39126,-245.54151 50.04792,66.01528" />
    <path
       style="fill:none;stroke-width:38.84660721px;stroke-linecap:round;stroke-linejoin:round;stroke-miterlimit:4;stroke-dasharray:none;stroke-opacity:1"
       d="m -825.31997,-179.52623 49.92871,-66.01528" />
    <path
       style="fill-opacity:1;fill-rule:nonzero;stroke:none"
       d="m -775.39126,303.67266 c -10.72438,0 -19.4234,8.81979 -19.4234,19.54357 0,10.84382 8.69902,19.54345 19.4234,19.54345 z m 0,0 541.82805,0 0,39.08702 -541.82805,0 z m 541.82805,39.08702 c 10.84383,0 19.54027,-8.69963 19.54027,-19.54345 0,-10.72378 -8.69644,-19.54357 -19.54027,-19.54357 z" />
    <path
       style="fill:none;stroke-width:38.84660721px;stroke-linecap:round;stroke-linejoin:round;stroke-miterlimit:4;stroke-dasharray:none;stroke-opacity:1"
       d="m -206.63376,323.21623 -65.8963,49.92742" />
    <path
       style="fill:none;stroke-width:38.84660721px;stroke-linecap:round;stroke-linejoin:round;stroke-miterlimit:4;stroke-dasharray:none;stroke-opacity:1"
       d="m -272.53006,273.28882 65.8963,49.92741" />
    <path
       style="fill-opacity:1;fill-rule:nonzero;stroke:none"
       d="m -741.78777,310.58511 c -1.66831,6.31556 -8.22228,10.12691 -14.53772,8.45967 -6.31556,-1.78729 -10.00957,-8.33962 -8.34126,-14.65518 z m 0,0 52.78845,-194.59131 -22.879,-6.31555 -52.78843,194.71135 z m 41.34913,-197.80918 11.43932,3.21787 c 1.66817,-6.4356 -2.02572,-12.98793 -8.34126,-14.65517 -6.31555,-1.787268 -12.86955,2.02406 -14.53774,8.33962 z m 9.4136,7.26927 136.67806,-179.337358 -18.82757,-14.418742 -136.67769,179.33772 z m 127.26444,-186.606276 9.41362,7.268918 c 4.0514,-5.243211 2.97906,-12.631463 -2.1447,-16.682879 -5.24319,-4.051416 -12.63109,-2.978955 -16.68287,2.264137 z m -8.22216,8.460359 116.53877,114.752429 16.56579,-17.03993 -116.54114,-114.633454 z m 124.76164,106.172737 -8.22287,8.579692 c 4.6482,4.646323 12.15425,4.529576 16.80245,-0.238672 4.52827,-4.64725 4.40824,-12.154246 -0.2363,-16.801496 z m 8.22288,8.579692 113.79978,-109.390241 -16.44575,-17.159028 -113.67973,109.509339 z m 105.57691,-117.969933 8.22287,8.699026 c 4.6449,-4.647256 4.88497,-12.154485 0.35682,-16.920836 -4.52827,-4.766707 -12.0342,-4.885803 -16.80257,-0.357999 z m -9.77019,6.792413 30.1473,43.255403 19.4234,-13.584357 -30.14718,-43.255519 z m 49.5707,29.671046 c 3.69461,5.362531 2.38089,12.750429 -2.98107,16.5634168 -5.36185,3.6940083 -12.631,2.3832335 -16.44233,-2.9790598 z" />
    <path
       style="fill-opacity:1;fill-rule:nonzero;stroke:none"
       d="m -762.16432,119.92518 c -3.9323,5.24509 -11.3202,6.31556 -16.56342,2.38418 -5.2431,-3.93137 -6.31556,-11.44074 -2.38311,-16.68254 z m 0,0 71.13928,-94.851234 -18.94665,-14.299281 -71.13916,94.852155 z m 61.72568,-102.001053 9.4136,7.149819 c 3.93232,-5.243099 2.97908,-12.630997 -2.26414,-16.682396 -5.24286,-3.9324432 -12.75007,-2.8599846 -16.68251,2.383115 z m -9.17552,7.507353 136.43961,168.37621 18.35106,-15.01529 -136.43963,-168.37515 z m 145.61515,160.86684 -9.17554,7.50937 c 4.17088,5.12175 11.55878,5.83869 16.68287,1.66724 5.12376,-4.05142 5.83871,-11.55735 1.66819,-16.68253 z m 11.43966,3.21788 87.46521,-313.51298 -22.76119,-6.43489 -87.583,313.51226 z m 76.14465,-316.73048 11.32056,3.2175 c 1.7874,-6.43489 -1.90732,-12.98887 -8.22287,-14.77615 -6.1954,-1.78728 -12.75103,1.90661 -14.53832,8.34126 z m -10.60705,5.3623 108.55799,211.273134 20.97059,-10.843827 -108.43452,-211.273137 z m 119.04157,205.791267 -10.60363,5.481867 c 3.09768,5.838712 10.24693,8.222871 15.96889,5.125188 5.83869,-2.981078 8.10283,-10.130327 5.12175,-16.08904 z m -0.59314,11.917473 64.70263,3.097684 1.074,-23.714898 -64.70593,-3.097802 z m 65.77639,-20.617214 c 6.55563,0.36036 11.55735,5.838688 11.32058,12.394343 -0.35682,6.552331 -5.83871,11.677376 -12.39434,11.320555 z" />
    <path
       style="fill-opacity:1;fill-rule:nonzero;stroke:none"
       d="m -297.31542,166.28133 c 5.59862,3.33448 7.50595,10.60375 4.17147,16.20567 -3.3379,5.71866 -10.487,7.62597 -16.20567,4.28819 z m 0,0 -106.05375,-62.56182 -12.0342,20.37712 106.05375,62.67856 z m -112.01249,-52.31159 5.95874,-10.36698 c -5.60192,-3.33778 -12.87119,-1.43044 -16.20567,4.2882 -3.33778,5.60191 -1.43045,12.98782 4.17147,16.32572 z m -9.17659,-7.50923 -145.60646,141.40043 18.34978,15.01516 145.60974,-141.52048 z m -136.43317,148.90966 -9.17329,-7.50923 c -4.17145,5.12505 -3.33778,12.63109 1.66724,16.68252 5.12519,4.17147 12.63112,3.45783 16.80257,-1.66736 z m -0.2363,-11.91747 -93.90561,4.21377 0.7148,23.7149 93.78417,-4.09703 z m -93.5482,16.0112 -0.35801,-11.79743 c -6.55387,0.12064 -11.67809,5.60192 -11.55865,12.2743 0.23867,6.55563 5.71961,11.6774 12.27358,11.4406 z m 8.46036,-8.22288 -42.89799,-44.56556 -17.04005,16.56247 43.01709,44.56889 z m -51.3587,-36.22266 8.46071,-8.3429 c -4.52827,-4.76494 -12.03527,-4.88499 -16.80197,-0.23629 -4.64727,4.52829 -4.76625,12.15424 -0.23867,16.79926 z m -9.77101,-6.79229 -77.33574,113.79637 19.5425,13.34803 77.33573,-113.67973 z m -57.79324,127.1444 c -3.69389,5.48189 -11.08215,6.91246 -16.44446,3.09771 -5.48116,-3.6946 -6.79193,-11.08048 -3.09804,-16.44574 z" />
  </g>
</svg>
