<svg stroke="currentColor" fill="currentColor"
   xmlns="http://www.w3.org/2000/svg"
   width="1000"
   height="1000"
   viewBox="155.5 62.8 687.4 687.4">
  <g
     transform="matrix(2.3748502,0,0,2.3748502,1485.6411,-1771.974)">
    <path
       style="fill-opacity:1;fill-rule:nonzero;stroke:none"
       d="m -517.39457,924.98686 c -2.65934,0.60249 -4.36546,3.31244 -3.76327,5.97163 0.60209,2.70846 3.26143,4.41442 5.97088,3.81343 z m 0,0 48.87181,-11.18903 2.1575,9.78356 -48.8217,11.19053 z m 49.92544,-6.32237 -1.10388,-4.86666 c 2.70959,-0.60249 5.36894,1.05323 5.97098,3.76318 0.65234,2.70944 -1.05373,5.41939 -3.76323,6.02038 z m 3.31168,-3.71243 38.58615,34.72182 -6.62447,7.42586 -38.58505,-34.67108 z m 35.27392,38.43525 3.31223,-3.71343 c 2.05701,1.80697 2.25776,5.0179 0.4,7.07511 -1.85622,2.05672 -4.96626,2.20697 -7.02467,0.40299 z m -4.66636,-1.75622 33.51755,-90.26749 9.33297,3.51143 -33.5184,90.2675 z m 38.18475,-88.51078 -4.6672,-1.75671 c 0.95338,-2.5597 3.81352,-3.91343 6.42232,-2.91094 2.55965,0.95373 3.91457,3.81392 2.91065,6.42237 z m 4.31477,-2.5597 36.77869,62.46904 -8.58038,5.06865 -36.77869,-62.41979 z m 32.51447,65.02874 4.26422,-2.5597 c 1.40547,2.35871 0.65288,5.47014 -1.75512,6.87462 -2.3589,1.40547 -5.41979,0.60199 -6.82526,-1.75672 z m -3.71382,-3.36119 39.43942,-43.85564 7.37566,6.67362 -39.43803,43.85415 z m 46.81508,-37.18202 c 1.85622,-2.00646 1.70597,-5.16666 -0.35124,-7.02436 -2.05696,-1.85622 -5.16845,-1.70597 -7.02466,0.35323 z" />
    <path
       style="fill-opacity:1;fill-rule:nonzero;stroke:none"
       d="m -532.79882,1026.4941 c 0,4.5662 3.66298,8.2294 8.22894,8.2294 4.51597,0 8.17879,-3.6632 8.17879,-8.2294 z m 0,0 0,-228.15178 16.40773,0 0,228.15178 z m 16.40773,-228.15178 c 0,-4.51691 -3.66282,-8.17859 -8.17879,-8.17859 -4.56596,0 -8.22894,3.66168 -8.22894,8.17859 z" />
    <path
       style="fill:none;stroke-width:16.35749817px;stroke-linecap:round;stroke-linejoin:round;stroke-miterlimit:4;stroke-dasharray:none;stroke-opacity:1"
       d="M -524.56988,787.05229 -503.54593,814.8" />
    <path
       style="fill:none;stroke-width:16.35749817px;stroke-linecap:round;stroke-linejoin:round;stroke-miterlimit:4;stroke-dasharray:none;stroke-opacity:1"
       d="m -545.59372,814.8 21.02384,-27.74771" />
    <path
       style="fill-opacity:1;fill-rule:nonzero;stroke:none"
       d="m -524.56988,1018.3155 c -4.56596,0 -8.22894,3.6632 -8.22894,8.1786 0,4.5662 3.66298,8.2294 8.22894,8.2294 z m 0,0 228.15222,0 0,16.408 -228.15222,0 z m 228.15222,16.408 c 4.51557,0 8.17879,-3.6632 8.17879,-8.2294 0,-4.5154 -3.66322,-8.1786 -8.17879,-8.1786 z" />
    <path
       style="fill:none;stroke-width:16.35749817px;stroke-linecap:round;stroke-linejoin:round;stroke-miterlimit:4;stroke-dasharray:none;stroke-opacity:1"
       d="m -285.12877,1026.4941 -27.74761,21.0741" />
    <path
       style="fill:none;stroke-width:16.35749817px;stroke-linecap:round;stroke-linejoin:round;stroke-miterlimit:4;stroke-dasharray:none;stroke-opacity:1"
       d="m -312.87638,1005.4708 27.74761,21.0233" />
    <path
       style="fill-opacity:1;fill-rule:evenodd;stroke:none"
       d="m -468.97446,905.01675 c 7.62686,0 13.79854,6.17213 13.79854,13.74873 0,7.62685 -6.17168,13.79799 -13.79854,13.79799 -7.62675,0 -13.79838,-6.17114 -13.79838,-13.79799 0,-7.5766 6.17163,-13.74873 13.79838,-13.74873 z" />
    <path
       style="fill-opacity:1;fill-rule:evenodd;stroke:none"
       d="m -430.64005,937.68137 c 7.627,0 13.79938,6.17213 13.79938,13.79948 0,7.5761 -6.17238,13.79798 -13.79938,13.79798 -7.62645,0 -13.79813,-6.22188 -13.79813,-13.79798 0,-7.62735 6.17168,-13.79948 13.79813,-13.79948 z" />
    <path
       style="fill-opacity:1;fill-rule:evenodd;stroke:none"
       d="m -395.41568,850.32481 c 7.627,0 13.79798,6.17213 13.79798,13.79799 0,7.62685 -6.17098,13.79898 -13.79798,13.79898 -7.57646,0 -13.74883,-6.17213 -13.74883,-13.79898 0,-7.62586 6.17237,-13.79799 13.74883,-13.79799 z" />
    <path
       style="fill-opacity:1;fill-rule:evenodd;stroke:none"
       d="m -357.73277,911.03863 c 7.57646,0 13.74744,6.17113 13.74744,13.79799 0,7.5766 -6.17098,13.74873 -13.74744,13.74873 -7.627,0 -13.79938,-6.17213 -13.79938,-13.74873 0,-7.62686 6.17238,-13.79799 13.79938,-13.79799 z" />
    <path
       style="fill-opacity:1;fill-rule:evenodd;stroke:none"
       d="m -319.74941,867.13423 c 7.62701,0 13.79799,6.17114 13.79799,13.79799 0,7.62735 -6.17098,13.79798 -13.79799,13.79798 -7.627,0 -13.79937,-6.17063 -13.79937,-13.79798 0,-7.62685 6.17237,-13.79799 13.79937,-13.79799 z" />
  </g>
</svg>
