<?xml version="1.0" encoding="UTF-8" standalone="no"?>
<!-- Created with Inkscape (http://www.inkscape.org/) -->

<svg stroke="currentColor" fill="currentColor"
   xmlns:dc="http://purl.org/dc/elements/1.1/"
   xmlns:cc="http://creativecommons.org/ns#"
   xmlns:rdf="http://www.w3.org/1999/02/22-rdf-syntax-ns#"
   xmlns:svg="http://www.w3.org/2000/svg"
   xmlns="http://www.w3.org/2000/svg"
   xmlns:sodipodi="http://sodipodi.sourceforge.net/DTD/sodipodi-0.dtd"
   xmlns:inkscape="http://www.inkscape.org/namespaces/inkscape"
   width="1000"
   height="1000"
   id="svg4152"
   version="1.1"
   inkscape:version="0.91 r13725"
   viewBox="0 0 1000 1000"
   sodipodi:docname="toxic.svg">
  <defs
     id="defs5498">
    <marker
       inkscape:isstock="true"
       style="overflow:visible"
       id="marker4233"
       refX="0.0"
       refY="0.0"
       orient="auto"
       inkscape:stockid="TriangleOutL">
      <path
         transform="scale(0.8)"
         style="fill-rule:evenodd;stroke-width:1pt;stroke-opacity:1;fill:#000000;fill-opacity:1"
         d="M 5.77,0.0 L -2.88,5.0 L -2.88,-5.0 L 5.77,0.0 z "
         id="path4235" />
    </marker>
    <marker
       inkscape:isstock="true"
       style="overflow:visible"
       id="marker4755"
       refX="0.0"
       refY="0.0"
       orient="auto"
       inkscape:stockid="TriangleOutL">
      <path
         transform="scale(0.8)"
         style="fill-rule:evenodd;stroke-width:1pt;stroke-opacity:1;fill:#000000;fill-opacity:1"
         d="M 5.77,0.0 L -2.88,5.0 L -2.88,-5.0 L 5.77,0.0 z "
         id="path4757" />
    </marker>
    <marker
       inkscape:stockid="Arrow1Lend"
       orient="auto"
       refY="0.0"
       refX="0.0"
       id="Arrow1Lend"
       style="overflow:visible;"
       inkscape:isstock="true">
      <path
         id="path4164"
         d="M 0.0,0.0 L 5.0,-5.0 L -12.5,0.0 L 5.0,5.0 L 0.0,0.0 z "
         style="fill-rule:evenodd;stroke-width:1pt;stroke-opacity:1;fill:#000000;fill-opacity:1"
         transform="scale(0.8) rotate(180) translate(12.5,0)" />
    </marker>
    <marker
       inkscape:stockid="Arrow2Lend"
       orient="auto"
       refY="0.0"
       refX="0.0"
       id="Arrow2Lend"
       style="overflow:visible;"
       inkscape:isstock="true">
      <path
         id="path4182"
         style="fill-rule:evenodd;stroke-width:0.625;stroke-linejoin:round;stroke-opacity:1;fill:#000000;fill-opacity:1"
         d="M 8.7185878,4.0337352 L -2.2072895,0.016013256 L 8.7185884,-4.0017078 C 6.9730900,-1.6296469 6.9831476,1.6157441 8.7185878,4.0337352 z "
         transform="scale(1.1) rotate(180) translate(1,0)" />
    </marker>
    <pattern
       y="0"
       x="0"
       height="6"
       width="6"
       patternUnits="userSpaceOnUse"
       id="EMFhbasepattern" />
    <pattern
       y="0"
       x="0"
       height="6"
       width="6"
       patternUnits="userSpaceOnUse"
       id="EMFhbasepattern-0" />
  </defs>
  <sodipodi:namedview
     inkscape:window-height="838"
     inkscape:window-width="1440"
     inkscape:pageshadow="2"
     inkscape:pageopacity="0.0"
     borderopacity="1.0"
     bordercolor="#666666"
     pagecolor="#ffffff"
     id="base"
     showgrid="true"
     showguides="true"
     inkscape:guide-bbox="true"
     inkscape:zoom="0.5"
     inkscape:cx="357.82213"
     inkscape:cy="459.29481"
     inkscape:window-x="-8"
     inkscape:window-y="-8"
     inkscape:current-layer="svg4152"
     inkscape:window-maximized="1"
     objecttolerance="20">
    <sodipodi:guide
       orientation="horizontal"
       position="200"
       id="guide5596" />
    <inkscape:grid
       type="xygrid"
       id="grid3430"
       empspacing="50" />
    <sodipodi:guide
       position="550,1000"
       orientation="0,1"
       id="guide4169" />
  </sodipodi:namedview>
  <metadata
     id="metadata5594">
    <rdf:RDF>
      <cc:Work
         rdf:about="">
        <dc:format>image/svg+xml</dc:format>
        <dc:type
           rdf:resource="http://purl.org/dc/dcmitype/StillImage" />
        <dc:title></dc:title>
      </cc:Work>
    </rdf:RDF>
  </metadata>
  <path
     inkscape:connector-curvature="0"
     id="path4592"
     d="m 336.03389,221.15122 103.77958,0 0,-97.18453 129.38537,0 0,97.18453 103.58533,0 c 32.00715,0 58.19439,26.18763 58.19439,58.19421 l 0,427.33784 c 0,32.19989 -26.18724,58.39097 -58.19439,58.39097 l -336.75028,0 c -32.00696,0 -58.19439,-26.19108 -58.19439,-58.39097 l 0,-427.33784 c 0,-32.00658 26.18743,-58.19421 58.19439,-58.19421 z"
     style="fill:#000000;fill-opacity:1;fill-rule:evenodd;stroke:none" />
  <path
     inkscape:connector-curvature="0"
     id="path4594"
     d="m 420.0272,156.94342 168.95733,0 0,-75.846303 -168.95733,0 z"
     style="fill:none;stroke-width:58.19422531px;stroke-linecap:round;stroke-linejoin:round;stroke-miterlimit:4;stroke-dasharray:none;stroke-opacity:1" />
  <path
     inkscape:connector-curvature="0"
     id="path4596"
     d="m 420.0272,156.94342 168.95733,0 0,-75.846303 -168.95733,0 z"
     style="fill:#fefefe;fill-opacity:1;fill-rule:evenodd;stroke:none" />
  <path
     inkscape:connector-curvature="0"
     id="path4598"
     d="m 649.70086,393.40618 c 0,-60.32818 -64.9839,-109.21117 -145.29164,-109.21117 -80.11445,0 -145.09776,48.88299 -145.09776,109.21117 0,32.20084 18.62186,61.10368 48.1071,81.08383 -0.38852,2.32747 -0.58086,4.6557 -0.58086,7.17704 0,20.9501 13.77228,38.79627 32.58859,45.19782 0.58086,13.5784 11.83296,24.4414 25.60581,24.4414 l 78.95004,0 c 13.77228,0 24.82954,-10.863 25.41135,-24.4414 19.01,-6.40155 32.58859,-24.24772 32.58859,-45.19782 0,-2.52134 -0.19425,-4.84957 -0.58278,-7.17704 29.67912,-19.98015 48.30156,-48.88299 48.30156,-81.08383 z m -53.34482,259.54357 c -0.77704,2.13879 -1.3579,4.07658 -1.74642,6.20998 l -48.88357,-21.33824 55.47881,-24.0523 0,0.38468 c 5.23751,11.83352 18.81612,17.26704 30.64906,12.02894 11.83237,-5.04289 17.26434,-18.81401 12.02663,-30.4575 -2.7158,-6.20441 -7.75963,-10.66682 -13.5786,-12.80079 5.43141,-7.17705 7.17706,-17.07047 3.29762,-25.99337 -5.81954,-13.19084 -20.9501,-19.20425 -33.94668,-13.38471 -13.19046,5.62527 -19.20426,20.75564 -13.38472,33.94668 0.77704,1.93952 1.93991,3.68575 3.29761,5.4314 l -83.02336,36.0822 -2.13397,0.96552 -1.93991,-0.96552 -83.02393,-36.0822 c 1.3579,-1.74642 2.32805,-3.49188 3.29762,-5.4314 5.62566,-13.19104 -0.38853,-28.32141 -13.38434,-33.94668 -12.99658,-5.81954 -28.32141,0.19425 -33.94668,13.38471 -3.87944,8.9229 -2.32804,18.81632 3.29761,25.99337 -6.01321,2.13397 -11.05725,6.59638 -13.77285,12.80079 -5.04326,11.64349 0.38851,25.41461 12.02721,30.4575 11.83294,5.2381 25.60521,-0.19619 30.64849,-12.02894 l 0.19425,-0.38468 55.28416,24.0523 -48.8828,21.33824 c -0.19426,-2.1334 -0.77704,-4.07119 -1.74642,-6.20998 -5.62528,-12.99505 -20.75584,-19.00943 -33.94668,-13.3803 -12.99678,5.81896 -19.01019,20.94721 -13.38434,33.94226 3.87943,9.11945 12.41477,14.743 21.53192,15.51927 -2.7156,5.62894 -2.91006,12.41419 -0.19426,18.62398 5.23752,11.83333 18.81612,17.26165 30.64907,12.02875 11.83295,-5.04808 17.07047,-18.81939 12.02662,-30.65273 l -0.19425,-0.19234 75.45855,-32.98172 75.65243,32.98172 -0.19426,0.19234 c -5.23715,11.83334 0.19426,25.60465 12.02721,30.65273 11.63849,5.2329 25.41154,-0.19618 30.4548,-12.02875 2.7158,-6.20979 2.52192,-12.99504 0,-18.62398 9.11715,-0.77704 17.45804,-6.39982 21.33766,-15.51927 5.81953,-12.99505 -0.19426,-28.1233 -13.38433,-33.94226 -12.99659,-5.62913 -28.12716,0.38467 -33.94669,13.3803 z M 441.17155,437.24571 c -24.2477,0 -43.8401,-19.78569 -43.8401,-44.03341 0,-24.24771 19.5924,-43.8401 43.8401,-43.8401 24.24714,0 43.83954,19.59239 43.83954,43.8401 0,24.24772 -19.5924,44.03341 -43.83954,44.03341 z m 126.66921,0 c -24.24772,0 -44.03341,-19.78569 -44.03341,-44.03341 0,-24.24771 19.78569,-43.8401 44.03341,-43.8401 24.24752,0 43.83953,19.59239 43.83953,43.8401 0,24.24772 -19.59201,44.03341 -43.83953,44.03341 z"
     style="fill:#fefefe;fill-opacity:1;fill-rule:evenodd;stroke:none" />
</svg>
