<svg stroke="currentColor" fill="currentColor"
   xmlns="http://www.w3.org/2000/svg"
   width="1000"
   height="1000"
   viewBox="0 0 1000 1000">
  <path
     d="M 49.941423,850.47046 H 933.60307"
     style="fill:none;stroke-width:39.32278442px;stroke-linecap:round;stroke-linejoin:round;stroke-miterlimit:4;stroke-dasharray:none;stroke-opacity:1" />
  <path
     d="m 947.56842,850.47046 -51.27014,38.95509"
     style="fill:none;stroke-width:39.32278442px;stroke-linecap:round;stroke-linejoin:round;stroke-miterlimit:4;stroke-dasharray:none;stroke-opacity:1" />
  <path
     d="m 896.29828,811.70025 51.27014,38.77021"
     style="fill:none;stroke-width:39.32278442px;stroke-linecap:round;stroke-linejoin:round;stroke-miterlimit:4;stroke-dasharray:none;stroke-opacity:1" />
  <g
     transform="matrix(1,0,0,-1,0,849.50088)">
    <path
       style="fill:none;stroke-width:31.97272682px;stroke-linecap:round;stroke-linejoin:round;stroke-miterlimit:4;stroke-dasharray:none;stroke-opacity:1"
       d="m 97.349058,220.9269 c 87.833232,-20.7641 119.622092,79.19703 124.583602,157.47512 11.57643,179.15727 25.72508,256.15085 86.17909,252.8395 158.21027,1.10591 12.67889,-436.77484 212.2328,-419.50211 95.91957,8.2687 107.44538,74.99159 112.22235,153.82133 4.96185,83.97416 7.32405,167.60616 17.4331,233.94014 37.84954,-109.5158 -34.65633,-379.12511 139.54181,-382.61647 35.64885,-0.73428 64.68019,0.91826 96.6527,2.57257" />
    <path
       d="m 100,99.50088 c 87.83323,-20.7641 150,50 150,100 0,0 0,50 50,50 100,0 23.44158,-176.46022 222.99549,-159.18749 C 600,99.50088 643.22303,92.67114 648,171.50088 c 0,50 2,-22 2,78 0,-100 -32.00539,-150.55113 142.19275,-154.04249 35.64885,-0.73428 64.68019,0.91826 96.6527,2.57257"
       style="fill:none;stroke-width:31.97272682px;stroke-linecap:round;stroke-linejoin:round;stroke-miterlimit:4;stroke-dasharray:none;stroke-opacity:1" />
  </g>
</svg>
