<svg stroke="currentColor" fill="currentColor"
   xmlns="http://www.w3.org/2000/svg"
   viewBox="0 0 1000 1000"
   height="1000"
   width="1000">
  <path
     style="fill:none;stroke-width:39.32278442px;stroke-linecap:round;stroke-linejoin:round;stroke-miterlimit:4;stroke-dasharray:none;stroke-opacity:1"
     d="M 49.941423,850.47046 H 933.60307" />
  <path
     style="fill:none;stroke-width:39.32278442px;stroke-linecap:round;stroke-linejoin:round;stroke-miterlimit:4;stroke-dasharray:none;stroke-opacity:1"
     d="m 947.56842,850.47046 -51.27014,38.95509" />
  <path
     style="fill:none;stroke-width:39.32278442px;stroke-linecap:round;stroke-linejoin:round;stroke-miterlimit:4;stroke-dasharray:none;stroke-opacity:1"
     d="m 896.29828,811.70025 51.27014,38.77021" />
  <g
     transform="matrix(1,0,0,-1,0,849.50088)">
    <path
       d="M 94.491915,500.9269 C 285.48808,498.6944 182.21291,791.20315 300,790.92945 426.78206,791.9926 352.85714,505.21516 520.34455,503.16798 628.76256,504.50298 600,640.92945 650,640.92945 c 50,0 -8.94204,-134.8394 139.54181,-132.61647 35.65271,0.51396 56.10876,-1.93888 88.08127,-0.28457"
       style="fill:none;stroke-width:31.9727px;stroke-linecap:round;stroke-linejoin:round;stroke-miterlimit:4;stroke-dasharray:none;stroke-opacity:1" />
    <path
       style="fill:none;stroke-width:31.9727px;stroke-linecap:round;stroke-linejoin:round;stroke-miterlimit:4;stroke-dasharray:none;stroke-opacity:1"
       d="M 94.491915,120.9269 C 300,99.50088 200,249.50088 300,249.50088 c 100,0 52.85714,-124.28572 220.34455,-126.3329 C 628.76256,124.50298 600,349.50088 650,349.50088 c 50,0 -8.94204,-223.41083 139.54181,-221.1879 35.65271,0.51396 56.10876,-1.93888 88.08127,-0.28457" />
    <rect
       transform="scale(1,-1)"
       y="-357.50089"
       x="330"
       height="50"
       width="250"
       style="fill-rule:evenodd" />
    <rect
       transform="scale(1,-1)"
       y="-457.50089"
       x="430"
       height="250"
       width="50" />
  </g>
</svg>
