<?xml version="1.0" encoding="UTF-8" standalone="no"?>
<!-- Generator: Adobe Illustrator 15.0.0, SVG Export Plug-In . SVG Version: 6.00 Build 0)  -->

<svg
   xmlns:dc="http://purl.org/dc/elements/1.1/"
   xmlns:cc="http://creativecommons.org/ns#"
   xmlns:rdf="http://www.w3.org/1999/02/22-rdf-syntax-ns#"
   xmlns:svg="http://www.w3.org/2000/svg"
   xmlns="http://www.w3.org/2000/svg"
   xmlns:sodipodi="http://sodipodi.sourceforge.net/DTD/sodipodi-0.dtd"
   xmlns:inkscape="http://www.inkscape.org/namespaces/inkscape"
   version="1.1"
   id="svg4152"
   sodipodi:docname="search-request.svg"
   inkscape:version="0.92.2 (5c3e80d, 2017-08-06)"
   x="0px"
   y="0px"
   width="1000px"
   height="1000px"
   viewBox="0 0 1000 1000"
   enable-background="new 0 0 1000 1000"
   xml:space="preserve"><metadata
     id="metadata25"><rdf:RDF><cc:Work
         rdf:about=""><dc:format>image/svg+xml</dc:format><dc:type
           rdf:resource="http://purl.org/dc/dcmitype/StillImage" /></cc:Work></rdf:RDF></metadata><defs
     id="defs23" /><sodipodi:namedview
     pagecolor="#ffffff"
     bordercolor="#666666"
     borderopacity="1"
     objecttolerance="10"
     gridtolerance="10"
     guidetolerance="10"
     inkscape:pageopacity="0"
     inkscape:pageshadow="2"
     inkscape:window-width="1920"
     inkscape:window-height="1016"
     id="namedview21"
     showgrid="false"
     inkscape:zoom="0.244"
     inkscape:cx="508.19672"
     inkscape:cy="500"
     inkscape:window-x="0"
     inkscape:window-y="27"
     inkscape:window-maximized="1"
     inkscape:current-layer="svg4152" /><g
     id="g14"><path
       style="fill:none;stroke:#000002;stroke-width:46.91009903;stroke-linecap:round;stroke-linejoin:round;stroke-miterlimit:22.92560005"
       inkscape:connector-curvature="0"
       id="path2"
       d="m 419.367,668.216 c -175.831,0 -319.25,-143.418 -319.25,-319.251 0,-175.839 143.417,-319.264 319.25,-319.264 175.84,0 319.259,143.423 319.259,319.264 0,175.833 -143.418,319.251 -319.259,319.251"
       stroke-miterlimit="22.9256" /><polyline
       style="fill:none;stroke:#000002;stroke-width:46.90850067;stroke-linecap:round;stroke-linejoin:round;stroke-miterlimit:22.92560005"
       id="polyline4"
       points="    897.765,890.229 661.895,574.439 579.326,636.111 815.197,951.902   "
       stroke-miterlimit="22.9256" /><path
       style="fill:none;stroke:#000002;stroke-width:46.90850067;stroke-linecap:round;stroke-linejoin:round;stroke-miterlimit:22.92560005"
       inkscape:connector-curvature="0"
       id="path6"
       d="m 815.197,951.902 c 12.543,16.792 36.556,20.275 53.355,7.72"
       stroke-miterlimit="22.9256" /><line
       style="fill:none;stroke:#000002;stroke-width:46.90850067;stroke-linecap:round;stroke-linejoin:round;stroke-miterlimit:22.92560005"
       id="line8"
       y2="943.57001"
       x2="890.03699"
       y1="959.62402"
       x1="868.55298"
       stroke-miterlimit="22.9256" /><path
       style="fill:none;stroke:#000002;stroke-width:46.90850067;stroke-linecap:round;stroke-linejoin:round;stroke-miterlimit:22.92560005"
       inkscape:connector-curvature="0"
       id="path10"
       d="m 890.037,943.57 c 16.795,-12.541 20.277,-36.542 7.728,-53.342"
       stroke-miterlimit="22.9256" /><path
       style="fill:none;stroke:#000002;stroke-width:21.58580017;stroke-linecap:round;stroke-linejoin:round;stroke-miterlimit:22.92560005"
       inkscape:connector-curvature="0"
       id="path12"
       d="m 419.367,610.974 c -144.301,0 -262.007,-117.703 -262.007,-262.009 0,-144.317 117.706,-262.011 262.007,-262.011 144.314,0 262.009,117.694 262.009,262.011 10e-4,144.306 -117.693,262.009 -262.009,262.009"
       stroke-miterlimit="22.9256" /></g><path
     inkscape:connector-curvature="0"
     id="path3584"
     d="m 586.09978,254.11588 v 150.06911 l -16.5936,0.13466 V 254.24962 Z m 0,150.06911 c 0,11.7763 -5.0849,22.47978 -13.3827,30.24207 l -11.3063,-12.04404 c 5.0175,-4.68246 8.0954,-11.10603 8.0954,-18.06323 z m -13.3827,30.24207 c -8.161,7.56003 -19.3344,12.30988 -31.5788,12.30988 l 0.1348,-16.59164 c 7.8933,0 15.0527,-3.01057 20.1377,-7.76228 z m -31.5788,12.30988 H 386.98766 l 0.13388,-16.59164 h 154.15154 z m -154.08356,-8.29584 -0.0673,8.29584 c -4.61632,0 -8.29616,-3.67895 -8.29616,-8.29584 0.0665,-4.61692 3.81347,-8.2958 8.42996,-8.2958 z m 6.28897,5.42012 -72.4588,84.03294 -12.57819,-10.77281 72.45882,-84.10033 z m -78.74777,78.6802 6.28897,5.35274 c -3.01077,3.546 -8.29618,3.94661 -11.7754,0.9361 -3.41208,-2.94312 -3.81347,-8.22845 -0.80279,-11.70891 z m -8.09573,-1.67187 17.86384,-84.03479 16.1912,3.21272 -17.86383,84.10033 z m 25.95956,-82.42845 -8.16254,-1.67188 c 0.93667,-4.48396 5.35247,-7.42714 9.90199,-6.49104 4.48271,0.93611 7.35951,5.28534 6.35603,9.83484 z m -0.0673,8.29584 h -17.72996 l 0.13388,-16.59164 h 17.72996 z m -17.72996,0 c -12.24377,0 -23.417,-4.68244 -31.51256,-12.24247 l 11.44082,-12.177 c 5.15178,4.81726 12.31059,7.82783 20.20562,7.82783 z m -31.51256,-12.24247 c -8.22944,-7.69489 -13.38113,-18.40023 -13.38113,-30.17468 l 16.65949,-0.13466 c 0,6.95905 3.07767,13.44817 8.16246,18.13248 z M 269.7688,404.31979 V 254.24975 l 16.65949,-0.13401 v 150.06912 z m 0,-150.07004 c 0,-11.84238 5.15169,-22.54718 13.44803,-30.24141 l 11.30703,12.04299 c -5.0179,4.68337 -8.09557,11.03942 -8.09557,18.06455 z m 13.44803,-30.24141 c 8.09564,-7.62723 19.26887,-12.37754 31.57954,-12.37754 l -0.13388,16.6595 c -7.89478,0 -15.05384,2.94378 -20.13863,7.76103 z m 31.57954,-12.37754 h 226.47651 l -0.1348,16.6595 H 314.66249 Z m 226.47651,0 c 12.2424,0 23.4159,4.75031 31.5114,12.31067 l -11.4412,12.17693 c -5.1505,-4.88432 -12.3099,-7.8281 -20.205,-7.8281 z m 31.5114,12.31067 c 8.2303,7.69403 13.3153,18.39903 13.3153,30.17441 l -16.5936,0.134 c 0,-7.02513 -3.0779,-13.44804 -8.1629,-18.13135 z"
     style="fill:#000000;fill-opacity:1;fill-rule:nonzero;stroke:none;stroke-width:0.33386597" /></svg>