<?xml version="1.0" encoding="UTF-8" standalone="no"?>
<svg stroke="currentColor" fill="currentColor"
   xmlns:dc="http://purl.org/dc/elements/1.1/"
   xmlns:cc="http://creativecommons.org/ns#"
   xmlns:rdf="http://www.w3.org/1999/02/22-rdf-syntax-ns#"
   xmlns:svg="http://www.w3.org/2000/svg"
   xmlns="http://www.w3.org/2000/svg"
   xmlns:sodipodi="http://sodipodi.sourceforge.net/DTD/sodipodi-0.dtd"
   xmlns:inkscape="http://www.inkscape.org/namespaces/inkscape"
   width="1000"
   height="1000"
   id="svg4152"
   version="1.1"
   inkscape:version="1.0.1 (c497b03c, 2020-09-10)"
   viewBox="0 0 1000 1000"
   sodipodi:docname="concentration.svg">
  <defs
     id="defs5498">
    <inkscape:perspective
       sodipodi:type="inkscape:persp3d"
       inkscape:vp_x="0 : 500 : 1"
       inkscape:vp_y="0 : 1000 : 0"
       inkscape:vp_z="1000 : 500 : 1"
       inkscape:persp3d-origin="500 : 333.33333 : 1"
       id="perspective4660" />
    <marker
       inkscape:isstock="true"
       style="overflow:visible"
       id="marker4233"
       refX="0.0"
       refY="0.0"
       orient="auto"
       inkscape:stockid="TriangleOutL">
      <path
         transform="scale(0.8)"
         style="fill-rule:evenodd;stroke-width:1pt;stroke-opacity:1;fill:#000000;fill-opacity:1"
         d="M 5.77,0.0 L -2.88,5.0 L -2.88,-5.0 L 5.77,0.0 z "
         id="path4235" />
    </marker>
    <marker
       inkscape:isstock="true"
       style="overflow:visible"
       id="marker4755"
       refX="0.0"
       refY="0.0"
       orient="auto"
       inkscape:stockid="TriangleOutL">
      <path
         transform="scale(0.8)"
         style="fill-rule:evenodd;stroke-width:1pt;stroke-opacity:1;fill:#000000;fill-opacity:1"
         d="M 5.77,0.0 L -2.88,5.0 L -2.88,-5.0 L 5.77,0.0 z "
         id="path4757" />
    </marker>
    <marker
       inkscape:stockid="Arrow1Lend"
       orient="auto"
       refY="0.0"
       refX="0.0"
       id="Arrow1Lend"
       style="overflow:visible;"
       inkscape:isstock="true">
      <path
         id="path4164"
         d="M 0.0,0.0 L 5.0,-5.0 L -12.5,0.0 L 5.0,5.0 L 0.0,0.0 z "
         style="fill-rule:evenodd;stroke-width:1pt;stroke-opacity:1;fill:#000000;fill-opacity:1"
         transform="scale(0.8) rotate(180) translate(12.5,0)" />
    </marker>
    <marker
       inkscape:stockid="Arrow2Lend"
       orient="auto"
       refY="0.0"
       refX="0.0"
       id="Arrow2Lend"
       style="overflow:visible;"
       inkscape:isstock="true">
      <path
         id="path4182"
         style="fill-rule:evenodd;stroke-width:0.625;stroke-linejoin:round;stroke-opacity:1;fill:#000000;fill-opacity:1"
         d="M 8.7185878,4.0337352 L -2.2072895,0.016013256 L 8.7185884,-4.0017078 C 6.9730900,-1.6296469 6.9831476,1.6157441 8.7185878,4.0337352 z "
         transform="scale(1.1) rotate(180) translate(1,0)" />
    </marker>
    <pattern
       y="0"
       x="0"
       height="6"
       width="6"
       patternUnits="userSpaceOnUse"
       id="EMFhbasepattern" />
  </defs>
  <sodipodi:namedview
     inkscape:window-height="1035"
     inkscape:window-width="2271"
     inkscape:pageshadow="2"
     inkscape:pageopacity="0.0"
     borderopacity="1.0"
     bordercolor="#666666"
     pagecolor="#ffffff"
     id="base"
     showgrid="true"
     showguides="true"
     inkscape:guide-bbox="true"
     inkscape:zoom="0.8125"
     inkscape:cx="154.35256"
     inkscape:cy="520.77514"
     inkscape:window-x="0"
     inkscape:window-y="23"
     inkscape:current-layer="svg4152"
     inkscape:window-maximized="0"
     objecttolerance="20"
     inkscape:snap-bbox="false"
     inkscape:document-rotation="0">
    <sodipodi:guide
       orientation="horizontal"
       position="200"
       id="guide5596"
       inkscape:locked="false" />
    <inkscape:grid
       type="xygrid"
       id="grid3430"
       empspacing="50" />
    <sodipodi:guide
       position="550,1000"
       orientation="0,1"
       id="guide4169"
       inkscape:locked="false" />
  </sodipodi:namedview>
  <metadata
     id="metadata5594">
    <rdf:RDF>
      <cc:Work
         rdf:about="">
        <dc:format>image/svg+xml</dc:format>
        <dc:type
           rdf:resource="http://purl.org/dc/dcmitype/StillImage" />
        <dc:title />
      </cc:Work>
    </rdf:RDF>
  </metadata>
  <path
     style="fill:#000000;fill-opacity:0"
     d="m 500,100 150,0 0,50 -150,0 z"
     id="rect6365" />
  <g
     transform="translate(671.53846,-97.999995)"
     id="flowRoot110">
    <path
       d="m -299.47917,734.58331 q 0,13.02083 -2.34375,18.22917 -2.34375,5.20833 -6.77084,5.20833 l -80.46874,0 q -4.42709,0 -8.07292,-1.30208 -3.64583,-1.30209 -6.25,-3.90625 -2.60417,-2.60417 -4.16666,-6.77084 -1.5625,-4.16666 -1.5625,-9.89583 l 0,-413.02082 q 0,-5.46875 1.5625,-9.63541 1.56249,-4.16667 4.16666,-6.77084 2.60417,-2.86458 6.25,-3.90625 3.64583,-1.30208 8.07292,-1.30208 l 80.46874,0 q 2.08334,0 3.90625,1.30208 1.82292,1.04167 2.86459,3.90625 1.30208,2.60417 1.82291,7.03125 0.52084,4.42709 0.52084,11.19792 0,13.28125 -2.34375,18.48958 -2.34375,4.94792 -6.77084,4.94792 l -39.32291,0 0,362.7604 39.32291,0 q 2.08334,0 3.90625,1.04167 1.82292,1.04167 2.86459,3.90625 1.30208,2.86458 1.82291,7.29166 0.52084,4.42709 0.52084,11.19792 z"
       id="path4223" />
    <path
       d="m 97.395808,736.14581 q 0,5.72917 -1.822917,9.89583 -1.5625,4.16667 -4.166666,6.77084 -2.604167,2.60416 -6.25,3.90625 -3.645833,1.30208 -8.072916,1.30208 l -80.7291639,0 q -4.4270832,0 -6.7708331,-5.20833 -2.34375,-5.20834 -2.34375,-18.22917 0,-6.77083 0.520833,-11.19792 0.78125,-4.42708 1.822917,-7.29166 1.3020833,-2.86458 2.8645833,-3.90625 1.8229166,-1.04167 3.9062498,-1.04167 l 39.5833319,0 0,-362.7604 -39.5833319,0 q -4.4270832,0 -6.7708331,-4.94792 -2.34375,-5.20833 -2.34375,-18.48958 0,-6.77083 0.520833,-11.19792 0.78125,-4.42708 1.822917,-7.03125 1.3020833,-2.86458 2.8645833,-3.90625 1.8229166,-1.30208 3.9062498,-1.30208 l 80.7291639,0 q 4.427083,0 8.072916,1.30208 3.645833,1.04167 6.25,3.90625 2.604166,2.60417 4.166666,6.77084 1.822917,4.16666 1.822917,9.63541 l 0,413.02082 z"
       id="path4225" />
  </g>
  <g
     transform="translate(694.46156,425.23077)"
     style="font-style:normal;font-weight:normal;line-height:0.01%;font-family:sans-serif;letter-spacing:0px;word-spacing:0px;fill:#000000;fill-opacity:1;stroke:none"
     id="flowRoot118">
    <path
       d="m -255.15625,434.0125 q 0,0.9375 -0.5625,1.6875 -0.5625,0.65625 -1.875,1.125 -1.3125,0.46875 -3.5625,0.65625 -2.25,0.28125 -5.71875,0.28125 -3.5625,0 -5.8125,-0.28125 -2.25,-0.1875 -3.65625,-0.65625 -1.3125,-0.46875 -1.875,-1.125 -0.46875,-0.75 -0.46875,-1.6875 l 0,-49.59375 q 0,-4.21875 -0.84375,-7.6875 -0.75,-3.46875 -2.4375,-5.90625 -1.59375,-2.53125 -4.125,-3.84375 -2.4375,-1.40625 -5.90625,-1.40625 -4.21875,0 -8.53125,3.28125 -4.3125,3.28125 -9.375,9.5625 l 0,55.59375 q 0,0.9375 -0.5625,1.6875 -0.5625,0.65625 -1.96875,1.125 -1.3125,0.46875 -3.5625,0.65625 -2.25,0.28125 -5.625,0.28125 -3.46875,0 -5.71875,-0.28125 -2.25,-0.1875 -3.65625,-0.65625 -1.3125,-0.46875 -1.875,-1.125 -0.5625,-0.75 -0.5625,-1.6875 l 0,-49.59375 q 0,-4.21875 -0.84375,-7.6875 -0.75,-3.46875 -2.34375,-5.90625 -1.59375,-2.53125 -4.125,-3.84375 -2.53125,-1.40625 -5.90625,-1.40625 -4.3125,0 -8.625,3.28125 -4.3125,3.28125 -9.28125,9.5625 l 0,55.59375 q 0,0.9375 -0.5625,1.6875 -0.5625,0.65625 -1.96875,1.125 -1.3125,0.46875 -3.5625,0.65625 -2.25,0.28125 -5.71875,0.28125 -3.46875,0 -5.71875,-0.28125 -2.25,-0.1875 -3.65625,-0.65625 -1.3125,-0.46875 -1.875,-1.125 -0.5625,-0.75 -0.5625,-1.6875 l 0,-83.625 q 0,-0.9375 0.46875,-1.59375 0.46875,-0.75 1.6875,-1.21875 1.21875,-0.46875 3.09375,-0.65625 1.96875,-0.28125 4.875,-0.28125 3,0 4.96875,0.28125 1.96875,0.1875 3,0.65625 1.125,0.46875 1.59375,1.21875 0.46875,0.65625 0.46875,1.59375 l 0,9.65625 q 6.9375,-7.5 13.78125,-11.25 6.9375,-3.75 14.4375,-3.75 5.15625,0 9.28125,1.125 4.125,1.03125 7.3125,3.09375 3.28125,1.96875 5.625,4.78125 2.34375,2.8125 3.9375,6.28125 3.75,-4.03125 7.3125,-6.9375 3.65625,-2.90625 7.125,-4.6875 3.5625,-1.875 7.03125,-2.71875 3.5625,-0.9375 7.21875,-0.9375 8.34375,0 14.0625,2.8125 5.71875,2.8125 9.1875,7.6875 3.5625,4.78125 5.0625,11.25 1.5,6.46875 1.5,13.6875 l 0,53.53125 z"
       id="path4228" />
    <path
       d="m -147.625,391.35625 q 0,10.6875 -2.8125,19.5 -2.8125,8.8125 -8.53125,15.1875 -5.71875,6.375 -14.34375,9.84375 -8.625,3.46875 -20.15625,3.46875 -11.15625,0 -19.40625,-3.09375 -8.25,-3.09375 -13.6875,-9 -5.4375,-5.90625 -8.0625,-14.53125 -2.625,-8.625 -2.625,-19.6875 0,-10.6875 2.8125,-19.5 2.90625,-8.90625 8.625,-15.1875 5.71875,-6.375 14.25,-9.84375 8.625,-3.46875 20.15625,-3.46875 11.25,0 19.5,3.09375 8.25,3 13.59375,8.90625 5.4375,5.90625 8.0625,14.53125 2.625,8.625 2.625,19.78125 z m -24.28125,0.9375 q 0,-6.1875 -1.03125,-11.34375 -0.9375,-5.25 -3.28125,-9.09375 -2.34375,-3.84375 -6.28125,-6 -3.84375,-2.15625 -9.75,-2.15625 -5.25,0 -9.1875,1.96875 -3.9375,1.875 -6.46875,5.625 -2.53125,3.65625 -3.84375,8.90625 -1.21875,5.15625 -1.21875,11.8125 0,6.1875 1.03125,11.4375 1.03125,5.15625 3.28125,9 2.34375,3.84375 6.28125,6 3.9375,2.0625 9.75,2.0625 5.34375,0 9.28125,-1.875 3.9375,-1.96875 6.46875,-5.625 2.53125,-3.65625 3.75,-8.8125 1.21875,-5.25 1.21875,-11.90625 z"
       id="path4230" />
    <path
       d="m -105.4375,434.0125 q 0,0.9375 -0.5625,1.6875 -0.5625,0.65625 -1.96875,1.125 -1.3125,0.46875 -3.5625,0.65625 -2.25,0.28125 -5.71875,0.28125 -3.46875,0 -5.71875,-0.28125 -2.25,-0.1875 -3.65625,-0.65625 -1.3125,-0.46875 -1.875,-1.125 -0.5625,-0.75 -0.5625,-1.6875 l 0,-123.28125 q 0,-0.9375 0.5625,-1.6875 0.5625,-0.75 1.875,-1.21875 1.40625,-0.5625 3.65625,-0.84375 2.25,-0.28125 5.71875,-0.28125 3.46875,0 5.71875,0.28125 2.25,0.28125 3.5625,0.84375 1.40625,0.46875 1.96875,1.21875 0.5625,0.75 0.5625,1.6875 l 0,123.28125 z"
       id="path4232" />
    <path
       d="m -70.375,461.48125 q -0.46875,1.21875 -1.21875,1.96875 -0.75,0.75 -2.15625,1.21875 -1.3125,0.46875 -3.375,0.65625 -1.96875,0.28125 -5.0625,0.28125 -3.84375,0 -6.28125,-0.375 -2.4375,-0.375 -3.75,-1.125 -1.21875,-0.75 -1.40625,-1.96875 -0.1875,-1.125 0.375,-2.71875 L -37.1875,302.0125 q 0.375,-1.21875 1.125,-1.96875 0.75,-0.84375 2.0625,-1.3125 1.3125,-0.46875 3.375,-0.65625 2.15625,-0.28125 5.15625,-0.28125 3.9375,0 6.28125,0.375 2.4375,0.375 3.65625,1.125 1.21875,0.75 1.40625,1.96875 0.1875,1.125 -0.28125,2.71875 l -55.96875,157.5 z"
       id="path4234" />
    <path
       d="m 23.9375,434.0125 q 0,0.9375 -0.5625,1.6875 -0.5625,0.65625 -1.96875,1.125 -1.3125,0.46875 -3.5625,0.65625 -2.25,0.28125 -5.71875,0.28125 -3.46875,0 -5.71875,-0.28125 Q 4.15625,437.29375 2.75,436.825 1.4375,436.35625 0.875,435.7 0.3125,434.95 0.3125,434.0125 l 0,-123.28125 q 0,-0.9375 0.5625,-1.6875 0.5625,-0.75 1.875,-1.21875 1.40625,-0.5625 3.65625,-0.84375 2.25,-0.28125 5.71875,-0.28125 3.46875,0 5.71875,0.28125 2.25,0.28125 3.5625,0.84375 1.40625,0.46875 1.96875,1.21875 0.5625,0.75 0.5625,1.6875 l 0,123.28125 z"
       id="path4236" />
  </g>
  <g
     style="font-style:normal;font-weight:normal;line-height:0.01%;font-family:sans-serif;letter-spacing:0px;word-spacing:0px;fill:#000000;fill-opacity:1;stroke:none"
     id="flowRoot126" />
</svg>
