<?xml version="1.0" encoding="UTF-8" standalone="no"?>
<svg stroke="currentColor" fill="currentColor"
   xmlns="http://www.w3.org/2000/svg"
   width="1000"
   height="1000"
   viewBox="0 0 1000 1000">
  <!-- ".mol" text -->
  <text
     x="500" y="240"
     text-anchor="middle"
     font-family="sans-serif"
     font-weight="bold"
     font-size="280"
     stroke="none">.mol</text>
  <!-- Wrench silhouette (from reference model, scaled and positioned) -->
  <!-- Original viewBox 0 0 480 480, scaled 1.3x, translated to fit below text -->
  <path
     stroke="none"
     transform="translate(160, 300) scale(1.3)"
     d="M478.409,116.617c-0.368-4.271-3.181-7.94-7.2-9.403c-4.029-1.472-8.539-0.47-11.57,2.556l-62.015,62.011l-68.749-21.768l-21.768-68.748l62.016-62.016c3.035-3.032,4.025-7.543,2.563-11.565c-1.477-4.03-5.137-6.837-9.417-7.207c-37.663-3.245-74.566,10.202-101.247,36.887c-36.542,36.545-46.219,89.911-29.083,135.399c-1.873,1.578-3.721,3.25-5.544,5.053L19.386,373.152c-0.073,0.071-0.145,0.149-0.224,0.219c-24.345,24.346-24.345,63.959,0,88.309c24.349,24.344,63.672,24.048,88.013-0.298c0.105-0.098,0.201-0.196,0.297-0.305l193.632-208.621c1.765-1.773,3.404-3.628,4.949-5.532c45.5,17.167,98.9,7.513,135.474-29.056C468.202,191.181,481.658,154.275,478.409,116.617z M75.98,435.38c-8.971,8.969-23.5,8.963-32.47,0c-8.967-8.961-8.967-23.502,0-32.466c8.97-8.963,23.499-8.963,32.47,0C84.947,411.878,84.947,426.419,75.98,435.38z" />
</svg>
