<svg stroke="currentColor" fill="currentColor" width="1000" height="1000" viewBox="0 0 1000 1000" xmlns="http://www.w3.org/2000/svg">
  <path d="m 510.48242,36.392578 a 27.526903,27.526903 0 0 0 -13.18164,3.439453 l -372.125,205.880859 a 27.526903,27.526903 0 0 0 -14.19922,24.01367 L 109.875,706.25977 a 27.526903,27.526903 0 0 0 13.00195,23.45117 L 493.35156,959.8125 A 27.526903,27.526903 0 0 0 521.22461,960.5 L 893.35156,754.06836 a 27.526903,27.526903 0 0 0 14.17188,-23.99805 L 908.625,294.08789 A 27.526903,27.526903 0 0 0 895.62305,270.63672 L 525.14844,40.535156 a 27.526903,27.526903 0 0 0 -14.66602,-4.142578 z m -0.66015,59.423828 343.71679,213.482424 -1.02148,404.4707 -343.85742,190.75 -343.69922,-213.47265 1.02148,-405 z" />
  <text font-family="Helvetica" font-size="822.844px" style="line-height:0%;stroke-width:1.49608" x="237.15724" y="835.70166" transform="scale(1.0692784,0.93521012)">?</text>
</svg>
