<?xml version="1.0" encoding="UTF-8" standalone="no"?>
<svg stroke="currentColor" fill="currentColor" width="1000" height="1000" id="svg4152" version="1.1" inkscape:version="1.2.2 (b0a84865, 2022-12-01)" viewBox="0 0 1000 1000" sodipodi:docname="isomers.svg" xmlns:inkscape="http://www.inkscape.org/namespaces/inkscape" xmlns:sodipodi="http://sodipodi.sourceforge.net/DTD/sodipodi-0.dtd" xmlns="http://www.w3.org/2000/svg" xmlns:svg="http://www.w3.org/2000/svg" xmlns:rdf="http://www.w3.org/1999/02/22-rdf-syntax-ns#" xmlns:cc="http://creativecommons.org/ns#" xmlns:dc="http://purl.org/dc/elements/1.1/">
  <metadata id="metadata852">
    <rdf:RDF>
      <cc:Work rdf:about="">
        <dc:format>image/svg+xml</dc:format>
        <dc:type rdf:resource="http://purl.org/dc/dcmitype/StillImage" />
      </cc:Work>
    </rdf:RDF>
  </metadata>
  <defs id="defs5498">
    <marker inkscape:isstock="true" style="overflow:visible" id="marker4233" refX="0.0" refY="0.0" orient="auto" inkscape:stockid="TriangleOutL">
      <path transform="scale(0.8)" style="fill-rule:evenodd;stroke-width:1pt;stroke-opacity:1;fill-opacity:1" d="M 5.77,0.0 L -2.88,5.0 L -2.88,-5.0 L 5.77,0.0 z " id="path4235" />
    </marker>
    <marker inkscape:isstock="true" style="overflow:visible" id="marker4755" refX="0.0" refY="0.0" orient="auto" inkscape:stockid="TriangleOutL">
      <path transform="scale(0.8)" style="fill-rule:evenodd;stroke-width:1pt;stroke-opacity:1;fill-opacity:1" d="M 5.77,0.0 L -2.88,5.0 L -2.88,-5.0 L 5.77,0.0 z " id="path4757" />
    </marker>
    <marker inkscape:stockid="Arrow1Lend" orient="auto" refY="0.0" refX="0.0" id="Arrow1Lend" style="overflow:visible;" inkscape:isstock="true">
      <path id="path4164" d="M 0.0,0.0 L 5.0,-5.0 L -12.5,0.0 L 5.0,5.0 L 0.0,0.0 z " style="fill-rule:evenodd;stroke-width:1pt;stroke-opacity:1;fill-opacity:1" transform="scale(0.8) rotate(180) translate(12.5,0)" />
    </marker>
    <marker inkscape:stockid="Arrow2Lend" orient="auto" refY="0.0" refX="0.0" id="Arrow2Lend" style="overflow:visible;" inkscape:isstock="true">
      <path id="path4182" style="fill-rule:evenodd;stroke-width:0.625;stroke-linejoin:round;stroke-opacity:1;fill-opacity:1" d="M 8.7185878,4.0337352 L -2.2072895,0.016013256 L 8.7185884,-4.0017078 C 6.9730900,-1.6296469 6.9831476,1.6157441 8.7185878,4.0337352 z " transform="scale(1.1) rotate(180) translate(1,0)" />
    </marker>
    <pattern y="0" x="0" height="6" width="6" patternUnits="userSpaceOnUse" id="EMFhbasepattern" />
  </defs>
  <sodipodi:namedview inkscape:window-height="1027" inkscape:window-width="1920" inkscape:pageshadow="2" inkscape:pageopacity="0.0" borderopacity="1.0" bordercolor="#666666" pagecolor="#ffffff" id="base" showgrid="true" showguides="true" inkscape:guide-bbox="true" inkscape:zoom="0.5" inkscape:cx="127" inkscape:cy="461" inkscape:window-x="654" inkscape:window-y="25" inkscape:current-layer="svg4152" inkscape:window-maximized="0" objecttolerance="20" inkscape:document-rotation="0" inkscape:showpageshadow="2" inkscape:pagecheckerboard="0" inkscape:deskcolor="#d1d1d1">
    <sodipodi:guide orientation="horizontal" position="200" id="guide5596" inkscape:locked="false" />
    <inkscape:grid type="xygrid" id="grid3430" empspacing="50" />
    <sodipodi:guide position="550,1000" orientation="0,1" id="guide4169" inkscape:locked="false" />
  </sodipodi:namedview>
  <path d="m 510.48242,36.392578 a 27.526903,27.526903 0 0 0 -13.18164,3.439453 l -372.125,205.880859 a 27.526903,27.526903 0 0 0 -14.19922,24.01367 L 109.875,706.25977 a 27.526903,27.526903 0 0 0 13.00195,23.45117 L 493.35156,959.8125 A 27.526903,27.526903 0 0 0 521.22461,960.5 L 893.35156,754.06836 a 27.526903,27.526903 0 0 0 14.17188,-23.99805 L 908.625,294.08789 A 27.526903,27.526903 0 0 0 895.62305,270.63672 L 525.14844,40.535156 a 27.526903,27.526903 0 0 0 -14.66602,-4.142578 z m -0.66015,59.423828 343.71679,213.482424 -1.02148,404.4707 -343.85742,190.75 -343.69922,-213.47265 1.02148,-405 z" id="path1495" />
  <text font-family="Helvetica" font-size="822.844px" id="text9056" style="line-height:0%;stroke-width:1.49608" x="237.15724" y="835.70166" transform="scale(1.0692784,0.93521012)">?</text>
</svg>
