<?xml version="1.0" encoding="UTF-8" standalone="no"?>
<!-- Created with Inkscape (http://www.inkscape.org/) -->

<svg
   xmlns:dc="http://purl.org/dc/elements/1.1/"
   xmlns:cc="http://creativecommons.org/ns#"
   xmlns:rdf="http://www.w3.org/1999/02/22-rdf-syntax-ns#"
   xmlns:svg="http://www.w3.org/2000/svg"
   xmlns="http://www.w3.org/2000/svg"
   xmlns:sodipodi="http://sodipodi.sourceforge.net/DTD/sodipodi-0.dtd"
   xmlns:inkscape="http://www.inkscape.org/namespaces/inkscape"
   width="1000"
   height="1000"
   id="svg4152"
   version="1.1"
   inkscape:version="0.91 r13725"
   viewBox="0 0 1000 1000"
   sodipodi:docname="iupac-structure-name.svg">
  <defs
     id="defs5498">
    <marker
       inkscape:isstock="true"
       style="overflow:visible"
       id="marker4233"
       refX="0.0"
       refY="0.0"
       orient="auto"
       inkscape:stockid="TriangleOutL">
      <path
         transform="scale(0.8)"
         style="fill-rule:evenodd;stroke:#000000;stroke-width:1pt;stroke-opacity:1;fill:#000000;fill-opacity:1"
         d="M 5.77,0.0 L -2.88,5.0 L -2.88,-5.0 L 5.77,0.0 z "
         id="path4235" />
    </marker>
    <marker
       inkscape:isstock="true"
       style="overflow:visible"
       id="marker4755"
       refX="0.0"
       refY="0.0"
       orient="auto"
       inkscape:stockid="TriangleOutL">
      <path
         transform="scale(0.8)"
         style="fill-rule:evenodd;stroke:#000000;stroke-width:1pt;stroke-opacity:1;fill:#000000;fill-opacity:1"
         d="M 5.77,0.0 L -2.88,5.0 L -2.88,-5.0 L 5.77,0.0 z "
         id="path4757" />
    </marker>
    <marker
       inkscape:stockid="Arrow1Lend"
       orient="auto"
       refY="0.0"
       refX="0.0"
       id="Arrow1Lend"
       style="overflow:visible;"
       inkscape:isstock="true">
      <path
         id="path4164"
         d="M 0.0,0.0 L 5.0,-5.0 L -12.5,0.0 L 5.0,5.0 L 0.0,0.0 z "
         style="fill-rule:evenodd;stroke:#000000;stroke-width:1pt;stroke-opacity:1;fill:#000000;fill-opacity:1"
         transform="scale(0.8) rotate(180) translate(12.5,0)" />
    </marker>
    <marker
       inkscape:stockid="Arrow2Lend"
       orient="auto"
       refY="0.0"
       refX="0.0"
       id="Arrow2Lend"
       style="overflow:visible;"
       inkscape:isstock="true">
      <path
         id="path4182"
         style="fill-rule:evenodd;stroke-width:0.625;stroke-linejoin:round;stroke:#000000;stroke-opacity:1;fill:#000000;fill-opacity:1"
         d="M 8.7185878,4.0337352 L -2.2072895,0.016013256 L 8.7185884,-4.0017078 C 6.9730900,-1.6296469 6.9831476,1.6157441 8.7185878,4.0337352 z "
         transform="scale(1.1) rotate(180) translate(1,0)" />
    </marker>
    <pattern
       y="0"
       x="0"
       height="6"
       width="6"
       patternUnits="userSpaceOnUse"
       id="EMFhbasepattern" />
  </defs>
  <sodipodi:namedview
     inkscape:window-height="838"
     inkscape:window-width="1440"
     inkscape:pageshadow="2"
     inkscape:pageopacity="0.0"
     borderopacity="1.0"
     bordercolor="#666666"
     pagecolor="#ffffff"
     id="base"
     showgrid="true"
     showguides="true"
     inkscape:guide-bbox="true"
     inkscape:zoom="0.5"
     inkscape:cx="357.82213"
     inkscape:cy="459.29481"
     inkscape:window-x="-8"
     inkscape:window-y="-8"
     inkscape:current-layer="svg4152"
     inkscape:window-maximized="1"
     objecttolerance="20">
    <sodipodi:guide
       orientation="horizontal"
       position="200"
       id="guide5596" />
    <inkscape:grid
       type="xygrid"
       id="grid3430"
       empspacing="50" />
    <sodipodi:guide
       position="550,1000"
       orientation="0,1"
       id="guide4169" />
  </sodipodi:namedview>
  <metadata
     id="metadata5594">
    <rdf:RDF>
      <cc:Work
         rdf:about="">
        <dc:format>image/svg+xml</dc:format>
        <dc:type
           rdf:resource="http://purl.org/dc/dcmitype/StillImage" />
        <dc:title></dc:title>
      </cc:Work>
    </rdf:RDF>
  </metadata>
  <path
     inkscape:connector-curvature="0"
     id="path5087"
     d="m 182.96457,456.40439 c 0,4.1849 -0.91544,7.32327 -2.877,9.28501 -1.83086,2.09251 -4.44619,3.00765 -7.71555,3.00765 l -75.063366,0 c 0,5.36188 0.653508,10.0696 1.830729,14.38523 1.307927,4.18456 3.269357,7.84615 6.015777,10.85385 2.74604,3.00805 6.14597,5.36171 10.46146,6.80024 4.31562,1.56918 9.41571,2.48477 15.43149,2.48477 6.14635,0 11.37701,-0.52411 15.9543,-1.43852 4.70746,-0.78448 8.63072,-1.83073 12.03104,-2.87699 3.26935,-1.04636 6.14596,-1.96145 8.36944,-2.8771 2.09214,-0.91548 3.92287,-1.30741 5.36137,-1.30741 0.78447,0 1.56958,0.13117 1.96182,0.52242 0.65351,0.26178 1.04639,0.78448 1.43863,1.70013 0.39159,0.78448 0.65351,1.96146 0.78447,3.53053 0.13094,1.43863 0.26194,3.40042 0.26194,5.75409 0,1.96185 -0.13094,3.66164 -0.26194,5.1001 0,1.43864 -0.13095,2.6155 -0.3916,3.66175 -0.13094,1.04637 -0.39159,1.83074 -0.78446,2.61533 -0.39289,0.65348 -0.78447,1.30792 -1.4385,1.96179 -0.65351,0.65354 -2.2231,1.56924 -4.96952,2.61533 -2.61533,1.04642 -6.01565,2.22311 -10.20018,3.26937 -4.18492,1.04642 -8.89238,1.96145 -14.12357,2.74604 -5.36175,0.78448 -11.11548,1.17737 -17.13125,1.17737 -10.98478,0 -20.66216,-1.43852 -28.900512,-4.18496 -8.108049,-2.74599 -15.039,-6.93095 -20.531451,-12.55393 C 72.854848,507.01305 68.801021,499.95149 66.054728,491.45136 63.438495,482.82061 62,472.75101 62,461.24317 c 0,-10.85409 1.438495,-20.79308 4.315489,-29.55477 2.876995,-8.76185 6.930952,-16.21574 12.423409,-22.3621 5.36175,-6.1463 12.031039,-10.85419 19.746589,-13.99245 7.846513,-3.26937 16.608193,-4.83883 26.285173,-4.83883 10.33127,0 19.22366,1.43852 26.54685,4.57717 7.3237,3.00771 13.33897,7.19261 17.91625,12.55399 4.70785,5.36176 8.23835,11.76978 10.46145,19.22367 2.22309,7.32316 3.26936,15.30037 3.26936,23.9315 z m -33.73907,-9.93855 c 0.26194,-9.80805 -1.56959,-17.52348 -5.88507,-23.01597 -4.18453,-5.62337 -10.59255,-8.36942 -19.35436,-8.36942 -4.4462,0 -8.23836,0.78448 -11.50772,2.48478 -3.26936,1.56907 -6.01578,3.92285 -8.10817,6.66929 -2.2231,2.74599 -3.7923,6.1463 -4.969134,9.93849 -1.177351,3.79269 -1.830859,7.84666 -2.092392,12.29283 z m 133.25726,62.90161 c 0,4.05396 -0.13117,7.06167 -0.65348,9.28478 -0.52411,2.22306 -1.17737,3.66158 -2.0924,4.57712 -0.78448,0.91548 -1.96145,1.69979 -3.66158,2.35383 -1.56922,0.65348 -3.40008,1.30781 -5.62318,1.83074 -2.22335,0.52411 -4.57715,0.91542 -7.06191,1.17731 -2.48476,0.26177 -5.10009,0.39182 -7.58485,0.39182 -6.93095,0 -12.94634,-0.91543 -18.04643,-2.61572 -5.10009,-1.83085 -9.15405,-4.44618 -12.55437,-8.10776 -3.26935,-3.66158 -5.75373,-8.23847 -7.32318,-13.73118 -1.5692,-5.49249 -2.3538,-12.03117 -2.3538,-19.61566 l 0,-63.16344 -14.77746,0 c -1.70017,0 -3.0077,-1.04637 -3.92326,-3.13865 -0.91543,-2.22306 -1.4385,-5.7537 -1.4385,-10.8538 0,-2.61572 0.13094,-4.9695 0.39289,-6.80023 0.26194,-1.83091 0.52253,-3.26937 1.04639,-4.31563 0.39159,-1.04642 1.04639,-1.83073 1.70015,-2.35366 0.65351,-0.39295 1.4385,-0.65354 2.48477,-0.65354 l 14.51579,0 0,-27.46226 c 0,-0.91542 0.26195,-1.70001 0.78447,-2.48461 0.52254,-0.78448 1.4385,-1.3078 2.74604,-1.8309 1.30792,-0.52242 3.13865,-0.91542 5.36175,-1.17731 2.35419,-0.13117 5.10009,-0.26177 8.36945,-0.26177 3.40032,0 6.27705,0.13116 8.50054,0.26177 2.22309,0.26177 4.05382,0.65348 5.36136,1.17731 1.30792,0.52242 2.2231,1.04642 2.74643,1.8309 0.52253,0.78443 0.78446,1.56919 0.78446,2.48461 l 0,27.46226 26.80849,0 c 0.91543,0 1.69979,0.26177 2.48439,0.65354 0.65348,0.52242 1.17736,1.30741 1.70018,2.35366 0.39182,1.04637 0.78443,2.48472 1.04637,4.31563 0.26177,1.83073 0.26177,4.18451 0.26177,6.80023 0,5.1001 -0.39181,8.63074 -1.30797,10.8538 -0.91542,2.09257 -2.22306,3.13865 -4.05379,3.13865 l -26.93922,0 0,57.93228 c 0,6.66968 1.04639,11.76973 3.26936,15.0391 2.09239,3.39992 5.88469,5.1001 11.24644,5.1001 1.83086,0 3.53064,-0.13116 4.96913,-0.52411 1.4385,-0.26177 2.87699,-0.65353 3.92326,-1.04642 1.17735,-0.39182 2.09252,-0.78448 3.0077,-1.17737 0.65348,-0.26177 1.43847,-0.39182 2.09251,-0.39182 0.52411,0 1.04643,0.13117 1.56947,0.39182 0.52242,0.39295 0.91542,1.04642 1.17737,1.96157 0.26177,1.04642 0.52242,2.35406 0.78442,3.9233 0.26177,1.70013 0.26177,3.79252 0.26177,6.40796 z m 142.80371,12.16177 c 0,0.91543 -0.26177,1.70013 -0.78448,2.35406 -0.65353,0.65348 -1.56958,1.30752 -2.74644,1.6999 -1.30752,0.52412 -3.13826,0.91543 -5.36176,1.04637 -2.22306,0.26178 -5.10005,0.39182 -8.36942,0.39182 -3.39992,0 -6.27708,-0.13117 -8.50014,-0.39182 -2.22311,-0.13117 -4.05385,-0.52242 -5.36177,-1.04637 -1.17736,-0.39181 -2.22311,-1.04642 -2.74604,-1.6999 -0.52355,-0.65354 -0.78448,-1.43852 -0.78448,-2.35406 l 0,-70.35566 c 0,-5.88469 -0.39294,-10.59253 -1.30792,-13.99284 -0.91542,-3.39992 -2.09239,-6.40763 -3.79213,-8.76169 -1.70018,-2.48438 -3.79258,-4.31523 -6.40802,-5.75375 -2.61533,-1.30792 -5.75398,-1.96179 -9.28462,-1.96179 -4.31562,0 -8.76185,1.56958 -13.33897,4.83878 -4.44623,3.26897 -9.15407,7.97687 -14.12357,14.12317 l 0,81.86378 c 0,0.91543 -0.13116,1.70013 -0.78448,2.35406 -0.52242,0.65348 -1.43852,1.30752 -2.74627,1.6999 -1.43824,0.52412 -3.13842,0.91543 -5.36154,1.04637 -2.22306,0.26178 -4.9695,0.39182 -8.50036,0.39182 -3.40009,0 -6.14636,-0.13117 -8.36947,-0.39182 -2.22312,-0.13117 -3.92297,-0.52242 -5.23077,-1.04637 -1.43852,-0.39181 -2.35383,-1.04642 -2.87699,-1.6999 -0.52242,-0.65354 -0.91548,-1.43852 -0.91548,-2.35406 l 0,-181.51237 c 0,-1.04643 0.39182,-1.83074 0.91548,-2.6155 0.52411,-0.65348 1.43847,-1.30764 2.87699,-1.83074 1.3078,-0.52242 3.00765,-0.78447 5.23077,-1.17736 2.22311,-0.26178 4.96938,-0.39295 8.36947,-0.39295 3.53086,0 6.2773,0.13117 8.50036,0.39295 2.22312,0.39182 3.9233,0.65353 5.36154,1.17736 1.30775,0.52243 2.22334,1.17737 2.74627,1.83074 0.65354,0.78448 0.78448,1.56935 0.78448,2.6155 l 0,68.00171 c 6.01576,-5.88487 12.16212,-10.33104 18.43903,-13.20803 6.14652,-2.87699 12.55415,-4.31551 19.35438,-4.31551 8.36942,0 15.43098,1.3078 21.18507,4.18496 5.75415,2.74599 10.33127,6.53857 13.9929,11.24641 3.53059,4.83844 6.01536,10.33087 7.58455,16.73889 1.56946,6.40762 2.35406,14.12317 2.35406,23.27763 z m 139.01175,0.39182 c 0,1.30792 -0.39182,2.35406 -1.30651,3.00771 -0.91801,0.78442 -2.35665,1.30791 -4.44978,1.56941 -1.96145,0.39294 -4.83782,0.52242 -8.76067,0.52242 -4.05458,0 -7.06268,-0.13117 -9.02413,-0.52242 -1.82967,-0.26178 -3.13607,-0.78443 -3.92285,-1.56941 -0.78319,-0.65354 -1.17478,-1.69979 -1.17478,-3.00771 l 0,-9.80794 c -5.10123,5.36171 -10.8538,9.67733 -17.39316,12.68493 -6.40763,3.00771 -13.73017,4.57729 -21.57964,4.57729 -6.53565,0 -12.5518,-0.91543 -18.04451,-2.6155 -5.49282,-1.70013 -10.20251,-4.18491 -14.25349,-7.58483 -3.92285,-3.26937 -7.06269,-7.45427 -9.2876,-12.42338 -2.22126,-4.96938 -3.2678,-10.85408 -3.2678,-17.39282 0,-7.19261 1.43813,-13.46952 4.18632,-18.70074 2.87637,-5.36131 7.05908,-9.67694 12.55179,-13.20786 5.62461,-3.40003 12.55556,-5.88481 20.79285,-7.58499 8.24095,-1.69974 17.91654,-2.48472 28.90208,-2.48472 l 11.90045,0 0,-7.45377 c 0,-3.92325 -0.26347,-7.32334 -1.17866,-10.20033 -0.65478,-2.87698 -1.96151,-5.23065 -3.79123,-7.1925 -1.82967,-1.96139 -4.18637,-3.40003 -7.19442,-4.31556 -3.00799,-0.91548 -6.66738,-1.30758 -11.11355,-1.30758 -5.75634,0 -10.9857,0.52242 -15.56361,1.8309 -4.44617,1.30752 -8.50081,2.74599 -12.02846,4.31546 -3.53126,1.56918 -6.41123,3.0077 -8.76428,4.31562 -2.35299,1.30752 -4.31444,1.83073 -5.75268,1.83073 -1.04637,0 -1.96146,-0.26177 -2.74813,-0.91542 -0.65089,-0.65354 -1.30645,-1.56907 -1.82978,-2.74604 -0.52411,-1.17737 -0.91418,-2.61573 -1.17866,-4.44657 -0.39182,-1.69979 -0.39182,-3.66158 -0.39182,-5.75398 0,-2.87677 0.1323,-5.10011 0.65478,-6.80001 0.39181,-1.56947 1.30651,-3.13865 2.6165,-4.44617 1.30651,-1.30781 3.53143,-2.87699 6.66749,-4.44646 3.27157,-1.56918 7.06269,-3.13843 11.37713,-4.44617 4.3145,-1.43864 9.15587,-2.48478 14.12542,-3.40009 5.09746,-0.91542 10.46221,-1.30781 15.8233,-1.30781 9.67542,0 17.91654,0.91543 24.84749,2.74633 6.79917,1.96157 12.42001,4.83856 16.86618,8.7618 4.44983,3.92324 7.58607,9.02335 9.67919,15.16971 1.96146,6.14596 3.00799,13.46963 3.00799,21.83871 z m -34.13143,-52.70145 -13.21045,0 c -5.62084,0 -10.33048,0.39294 -14.38146,1.17736 -3.92662,0.91543 -7.06268,2.09212 -9.67919,3.7923 -2.48478,1.56902 -4.18271,3.66158 -5.36109,6.01564 -1.17866,2.35378 -1.70159,4.96911 -1.70159,7.97721 0,5.23077 1.5698,9.28462 4.84137,12.1616 3.26785,3.00771 7.84575,4.44618 13.59844,4.44618 4.83765,0 9.41556,-1.17731 13.47031,-3.66158 4.05463,-2.48478 8.23734,-6.14636 12.42366,-10.9848 z m 186.48024,52.30918 c 0,0.91543 -0.25952,1.70019 -0.78318,2.35406 -0.65478,0.65354 -1.56987,1.30758 -2.87621,1.69979 -1.17866,0.52411 -3.0081,0.91542 -5.23301,1.04637 -2.35299,0.26177 -5.10123,0.39294 -8.36903,0.39294 -3.39969,0 -6.27589,-0.13117 -8.50081,-0.39294 -2.22126,-0.13117 -4.05475,-0.52243 -5.36109,-1.04637 -1.17866,-0.39294 -2.22132,-1.04637 -2.74464,-1.69979 -0.52411,-0.65348 -0.78707,-1.43847 -0.78707,-2.35406 l 0,-70.3556 c 0,-5.8847 -0.39125,-10.59259 -1.30634,-13.9929 -0.91542,-3.39992 -2.09318,-6.40763 -3.79478,-8.76169 -1.69793,-2.48433 -3.79111,-4.31523 -6.40762,-5.7537 -2.61285,-1.30791 -5.75258,-1.96184 -9.28394,-1.96184 -4.31445,0 -8.76068,1.56958 -13.33858,4.83883 -4.44623,3.26898 -9.15227,7.97682 -14.12165,14.12317 l 0,81.86373 c 0,0.91543 -0.26347,1.70019 -0.78707,2.35406 -0.52355,0.65354 -1.43819,1.30758 -2.87632,1.6999 -1.30639,0.52412 -3.0081,0.91543 -5.22936,1.04643 -2.22491,0.26177 -4.96938,0.39182 -8.50081,0.39182 -3.39952,0 -6.14777,-0.13117 -8.36908,-0.39182 -2.22486,-0.13117 -4.05458,-0.52243 -5.36469,-1.04643 -1.3064,-0.39181 -2.22132,-1.04636 -2.74464,-1.6999 -0.65478,-0.65348 -0.91413,-1.43847 -0.91413,-2.35406 l 0,-123.18766 c 0,-0.91542 0.25952,-1.70013 0.78318,-2.35417 0.39576,-0.78448 1.17867,-1.30741 2.48478,-1.83074 1.17861,-0.39294 2.74824,-0.78448 4.57791,-1.04636 1.96145,-0.13117 4.31444,-0.26178 7.19441,-0.26178 2.87637,0 5.36115,0.13117 7.19082,0.26178 1.96145,0.26177 3.53131,0.65348 4.57796,1.04636 1.04636,0.52355 1.82966,1.04643 2.22126,1.83074 0.52411,0.65353 0.65483,1.43863 0.65483,2.35417 l 0,14.25417 c 6.93095,-7.32322 13.86184,-12.94659 20.79268,-16.60834 7.06269,-3.66158 14.38523,-5.49232 22.09925,-5.49232 8.3692,0 15.43188,1.30781 21.18805,4.18491 5.75257,2.74604 10.33048,6.40763 13.86191,11.24646 3.52765,4.70784 6.14416,10.20032 7.71396,16.60789 1.57003,6.40803 2.35305,13.99291 2.35305,22.88526 z m 158.62842,-62.90172 c 0,10.59254 -1.43807,20.13921 -4.18631,28.77006 -2.74464,8.63097 -6.93095,16.08525 -12.55179,22.36232 -5.62456,6.27691 -12.55551,11.11547 -21.05632,14.51578 -8.50081,3.39992 -18.43981,5.10011 -29.68526,5.10011 -10.98554,0 -20.52922,-1.56947 -28.63856,-4.57718 -8.10922,-3.00771 -14.7767,-7.45388 -20.13779,-13.20797 -5.36459,-5.8847 -9.2876,-12.94665 -11.90034,-21.44679 -2.61651,-8.36941 -3.79489,-18.04669 -3.79489,-29.03161 0,-10.46181 1.43824,-20.0082 4.18648,-28.76989 2.74447,-8.63114 7.06257,-16.08502 12.55539,-22.3621 5.75258,-6.14635 12.68353,-10.98474 21.18434,-14.38505 8.36919,-3.39998 18.17634,-5.10011 29.55347,-5.10011 11.11732,0 20.66112,1.43847 28.77034,4.44618 8.10933,3.00799 14.77682,7.45416 20.00967,13.20825 5.36109,5.75415 9.284,12.94625 11.90045,21.44679 2.48478,8.36941 3.79112,18.17735 3.79112,29.03121 z m -35.70124,1.43847 c 0,-6.01525 -0.52411,-11.63868 -1.56986,-16.73889 -0.91542,-5.10011 -2.48478,-9.54628 -4.83776,-13.33858 -2.35305,-3.79253 -5.36098,-6.80024 -9.15587,-8.89275 -3.79112,-2.092 -8.62889,-3.13831 -14.51319,-3.13831 -5.10129,0 -9.54746,0.91548 -13.47037,2.87705 -3.92285,1.83084 -7.06268,4.57689 -9.5474,8.23847 -2.48478,3.66158 -4.3145,7.97721 -5.62084,13.07731 -1.17866,5.10005 -1.83344,10.98492 -1.83344,17.52349 0,6.01564 0.52411,11.63878 1.56998,16.73889 0.91542,5.1001 2.6165,9.54628 4.83765,13.33897 2.35676,3.7923 5.36109,6.66929 9.2876,8.76169 3.79123,2.09251 8.62888,3.13876 14.2535,3.13876 5.22935,0 9.80726,-1.04637 13.73011,-2.8771 3.92291,-1.83073 7.06274,-4.57717 9.54746,-8.23876 2.48467,-3.53103 4.31444,-7.84654 5.49271,-13.07731 1.17478,-4.9695 1.82972,-10.85419 1.82972,-17.39293 z m 97.94796,61.46325 c 0,0.91543 -0.25952,1.70019 -0.78319,2.35406 -0.52411,0.65354 -1.43807,1.30758 -2.8762,1.6999 -1.31011,0.52412 -3.0081,0.91543 -5.23301,1.04643 -2.22126,0.26177 -4.9695,0.39182 -8.50076,0.39182 -3.39969,0 -6.14416,-0.13117 -8.36919,-0.39182 -2.22115,-0.13117 -4.05464,-0.52243 -5.36098,-1.04643 -1.3064,-0.39181 -2.22132,-1.04636 -2.74464,-1.6999 -0.65477,-0.65348 -0.91801,-1.43847 -0.91801,-2.35406 l 0,-181.51237 c 0,-1.04637 0.26346,-1.83074 0.91801,-2.61544 0.52411,-0.65354 1.43824,-1.3077 2.74464,-1.83074 1.30634,-0.52242 3.13983,-0.78448 5.36098,-1.17737 2.22503,-0.26177 4.9695,-0.39294 8.36919,-0.39294 3.53126,0 6.2795,0.13117 8.50076,0.39294 2.22491,0.39182 3.9229,0.65348 5.23301,1.17737 1.43813,0.52242 2.35299,1.17731 2.8762,1.83074 0.52412,0.78442 0.78319,1.56929 0.78319,2.61544 z"
     style="fill:#000000;fill-opacity:1;fill-rule:nonzero;stroke:none" />
</svg>
