<?xml version="1.0" encoding="UTF-8" standalone="no"?>
<!-- Created with Inkscape (http://www.inkscape.org/) -->

<svg stroke="currentColor" fill="currentColor"
   xmlns:dc="http://purl.org/dc/elements/1.1/"
   xmlns:cc="http://creativecommons.org/ns#"
   xmlns:rdf="http://www.w3.org/1999/02/22-rdf-syntax-ns#"
   xmlns:svg="http://www.w3.org/2000/svg"
   xmlns="http://www.w3.org/2000/svg"
   xmlns:sodipodi="http://sodipodi.sourceforge.net/DTD/sodipodi-0.dtd"
   xmlns:inkscape="http://www.inkscape.org/namespaces/inkscape"
   width="1000"
   height="1000"
   id="svg4152"
   version="1.1"
   inkscape:version="0.91 r13725"
   viewBox="0 0 1000 1000"
   sodipodi:docname="iupac-name-structure.svg">
  <defs
     id="defs5498">
    <marker
       inkscape:isstock="true"
       style="overflow:visible"
       id="marker4233"
       refX="0.0"
       refY="0.0"
       orient="auto"
       inkscape:stockid="TriangleOutL">
      <path
         transform="scale(0.8)"
         style="fill-rule:evenodd;stroke-width:1pt;stroke-opacity:1;fill-opacity:1"
         d="M 5.77,0.0 L -2.88,5.0 L -2.88,-5.0 L 5.77,0.0 z "
         id="path4235" />
    </marker>
    <marker
       inkscape:isstock="true"
       style="overflow:visible"
       id="marker4755"
       refX="0.0"
       refY="0.0"
       orient="auto"
       inkscape:stockid="TriangleOutL">
      <path
         transform="scale(0.8)"
         style="fill-rule:evenodd;stroke-width:1pt;stroke-opacity:1;fill-opacity:1"
         d="M 5.77,0.0 L -2.88,5.0 L -2.88,-5.0 L 5.77,0.0 z "
         id="path4757" />
    </marker>
    <marker
       inkscape:stockid="Arrow1Lend"
       orient="auto"
       refY="0.0"
       refX="0.0"
       id="Arrow1Lend"
       style="overflow:visible;"
       inkscape:isstock="true">
      <path
         id="path4164"
         d="M 0.0,0.0 L 5.0,-5.0 L -12.5,0.0 L 5.0,5.0 L 0.0,0.0 z "
         style="fill-rule:evenodd;stroke-width:1pt;stroke-opacity:1;fill-opacity:1"
         transform="scale(0.8) rotate(180) translate(12.5,0)" />
    </marker>
    <marker
       inkscape:stockid="Arrow2Lend"
       orient="auto"
       refY="0.0"
       refX="0.0"
       id="Arrow2Lend"
       style="overflow:visible;"
       inkscape:isstock="true">
      <path
         id="path4182"
         style="fill-rule:evenodd;stroke-width:0.625;stroke-linejoin:round;stroke-opacity:1;fill-opacity:1"
         d="M 8.7185878,4.0337352 L -2.2072895,0.016013256 L 8.7185884,-4.0017078 C 6.9730900,-1.6296469 6.9831476,1.6157441 8.7185878,4.0337352 z "
         transform="scale(1.1) rotate(180) translate(1,0)" />
    </marker>
    <pattern
       y="0"
       x="0"
       height="6"
       width="6"
       patternUnits="userSpaceOnUse"
       id="EMFhbasepattern" />
    <pattern
       y="0"
       x="0"
       height="6"
       width="6"
       patternUnits="userSpaceOnUse"
       id="EMFhbasepattern-7" />
    <pattern
       y="0"
       x="0"
       height="6"
       width="6"
       patternUnits="userSpaceOnUse"
       id="EMFhbasepattern-79" />
  </defs>
  <sodipodi:namedview
     inkscape:window-height="838"
     inkscape:window-width="1440"
     inkscape:pageshadow="2"
     inkscape:pageopacity="0.0"
     borderopacity="1.0"
     bordercolor="#666666"
     pagecolor="#ffffff"
     id="base"
     showgrid="true"
     showguides="true"
     inkscape:guide-bbox="true"
     inkscape:zoom="0.5"
     inkscape:cx="357.82213"
     inkscape:cy="459.29481"
     inkscape:window-x="-8"
     inkscape:window-y="-8"
     inkscape:current-layer="svg4152"
     inkscape:window-maximized="1"
     objecttolerance="20">
    <sodipodi:guide
       orientation="horizontal"
       position="200"
       id="guide5596" />
    <inkscape:grid
       type="xygrid"
       id="grid3430"
       empspacing="50" />
    <sodipodi:guide
       position="550,1000"
       orientation="0,1"
       id="guide4169" />
  </sodipodi:namedview>
  <metadata
     id="metadata5594">
    <rdf:RDF>
      <cc:Work
         rdf:about="">
        <dc:format>image/svg+xml</dc:format>
        <dc:type
           rdf:resource="http://purl.org/dc/dcmitype/StillImage" />
        <dc:title></dc:title>
      </cc:Work>
    </rdf:RDF>
  </metadata>
  <path
     inkscape:connector-curvature="0"
     id="path4898"
     d="m 602.47463,401.93497 c 6.06418,3.5005 13.83425,1.45149 17.4179,-4.61092 3.58618,-6.14756 1.53826,-13.9173 -4.52507,-17.41815 z m 0,0 -208.16428,-120.21982 12.89258,-22.02898 208.16453,120.21973 z m -195.2717,-142.2488 c -6.06164,-3.50068 -13.83163,-1.36616 -17.4179,4.69608 -3.58636,6.06223 -1.53632,13.83213 4.52532,17.3329 z"
     style="fill-opacity:1;fill-rule:nonzero;stroke:none" />
  <path
     inkscape:connector-curvature="0"
     id="path4900"
     d="m 88.382248,436.77118 c -6.062231,3.5861 -8.196757,11.35609 -4.696077,17.41815 3.500766,6.06232 11.270584,8.1116 17.332819,4.61083 z m 0,0 306.014112,-176.99959 12.6369,21.94356 -306.01427,177.08501 z M 407.03326,281.71515 c 6.14766,-3.58619 8.19524,-11.35601 4.78099,-17.41824 -3.50034,-6.06223 -11.27024,-8.11142 -17.41789,-4.52532 z"
     style="fill-opacity:1;fill-rule:nonzero;stroke:none" />
  <path
     inkscape:connector-curvature="0"
     id="path4902"
     d="m 779.98666,458.03178 c 0,12.55116 -1.45022,23.90724 -4.43956,33.9826 -2.98849,10.07468 -7.42804,18.61397 -13.23401,25.70059 -5.89232,7.08661 -13.32036,12.46487 -22.19863,16.3069 -8.88166,3.7583 -19.21268,5.72232 -30.99394,5.72232 -11.69828,0 -21.77364,-1.79436 -30.31327,-5.2947 -8.53709,-3.50026 -15.54015,-8.45328 -21.0879,-15.11219 -5.55029,-6.66137 -9.65036,-14.94262 -12.38064,-24.76163 -2.73367,-9.819 -4.10007,-21.0895 -4.10007,-33.897 0,-12.20996 1.45276,-23.3097 4.44125,-33.29956 2.98679,-10.07536 7.34253,-18.52812 13.32036,-25.52974 5.88978,-7.00128 13.31783,-12.38056 22.19864,-16.22275 8.7953,-3.75696 19.21014,-5.63538 30.99394,-5.63538 11.4426,0 21.43161,1.70784 29.88489,5.1231 8.45158,3.50076 15.54014,8.45285 21.17424,15.1127 5.63666,6.57458 9.8197,14.68601 12.55082,24.41976 2.73366,9.73367 4.18388,20.83358 4.18388,33.38498 z m -21.7711,1.45149 c 0,-8.79445 -0.7704,-16.99137 -2.30613,-24.50502 -1.53573,-7.59914 -4.10007,-14.08839 -7.77007,-19.72351 -3.6717,-5.55013 -8.53878,-9.90461 -14.60042,-12.97843 -6.06164,-3.07375 -13.57605,-4.69608 -22.54067,-4.69608 -8.96715,0 -16.47902,1.70785 -22.5432,5.03776 -6.06164,3.41527 -11.01423,7.85525 -14.77059,13.49046 -3.84185,5.55003 -6.57467,12.12437 -8.19759,19.55293 -1.62209,7.51355 -2.47461,15.36887 -2.47461,23.5658 0,9.13589 0.85252,17.5034 2.30528,25.18805 1.53658,7.6844 4.09754,14.2595 7.68372,19.80979 3.58619,5.63394 8.45328,9.90359 14.43111,12.97623 6.06164,3.07501 13.65984,4.61133 22.79633,4.61133 8.96462,0 16.56537,-1.70835 22.71252,-5.03657 6.14798,-3.33069 11.10058,-7.85601 14.94244,-13.57596 3.67001,-5.72232 6.40366,-12.38107 7.94024,-19.80953 1.62208,-7.59915 2.39164,-15.53972 2.39164,-23.90725 z m 166.15578,74.79664 c 0,0.5977 -0.16931,1.19464 -0.51639,1.7059 -0.25406,0.51388 -0.85338,0.8554 -1.62209,1.11107 -0.85337,0.34203 -1.87867,0.51135 -3.24504,0.76956 -1.28093,0.16932 -2.90302,0.25568 -4.86705,0.25568 -2.04711,0 -3.67007,-0.0864 -5.03644,-0.25568 -1.19453,-0.25821 -2.30527,-0.42753 -3.07233,-0.76956 -0.77037,-0.25567 -1.36724,-0.5977 -1.7084,-1.11107 -0.33863,-0.51134 -0.42328,-1.10862 -0.42328,-1.7059 l 0,-68.81983 -70.61135,0 0,68.81983 c 0,0.5977 -0.16932,1.19464 -0.51642,1.7059 -0.33864,0.51388 -0.85337,0.8554 -1.70844,1.11107 -0.7704,0.34203 -1.79224,0.51135 -3.15865,0.76956 -1.2809,0.16932 -2.98934,0.25568 -4.9509,0.25568 -1.96411,0 -3.5862,-0.0864 -4.9526,-0.25568 -1.2809,-0.25821 -2.39164,-0.42753 -3.15865,-0.76956 -0.85591,-0.25567 -1.45277,-0.5977 -1.70844,-1.11107 -0.33863,-0.51134 -0.51642,-1.10862 -0.51642,-1.7059 l 0,-148.90939 c 0,-0.5977 0.16931,-1.19539 0.51642,-1.70768 0.25398,-0.42667 0.85253,-0.85395 1.70844,-1.11005 0.77039,-0.25652 1.87775,-0.51219 3.15865,-0.6832 1.3664,-0.17102 2.98849,-0.34119 4.9526,-0.34119 1.96156,0 3.67,0.17102 4.9509,0.34119 1.36641,0.17101 2.39164,0.42668 3.15865,0.6832 0.85507,0.25567 1.36641,0.6832 1.70844,1.11005 0.33863,0.5122 0.51642,1.10981 0.51642,1.70768 l 0,62.15888 70.61135,0 0,-62.15888 c 0,-0.5977 0.0846,-1.19539 0.42328,-1.70768 0.33863,-0.42667 0.9389,-0.85395 1.7084,-1.11005 0.77046,-0.25652 1.8778,-0.51219 3.07233,-0.6832 1.36637,-0.17102 2.98933,-0.34119 5.03644,-0.34119 1.96403,0 3.58612,0.17102 4.86705,0.34119 1.36637,0.17101 2.39167,0.42668 3.24504,0.6832 0.77037,0.25567 1.36637,0.6832 1.62209,1.11005 0.33862,0.5122 0.51639,1.10981 0.51639,1.70768 z"
     style="fill:none;stroke-width:2.56150007px;stroke-linecap:round;stroke-linejoin:round;stroke-miterlimit:4;stroke-dasharray:none;stroke-opacity:1" />
  <path
     inkscape:connector-curvature="0"
     id="path4904"
     d="m 779.98666,458.03178 c 0,12.55116 -1.45022,23.90724 -4.43956,33.9826 -2.98849,10.07468 -7.42804,18.61397 -13.23401,25.70059 -5.89232,7.08661 -13.32036,12.46487 -22.19863,16.3069 -8.88166,3.7583 -19.21268,5.72232 -30.99394,5.72232 -11.69828,0 -21.77364,-1.79436 -30.31327,-5.2947 -8.53709,-3.50026 -15.54015,-8.45328 -21.0879,-15.11219 -5.55029,-6.66137 -9.65036,-14.94262 -12.38064,-24.76163 -2.73367,-9.819 -4.10007,-21.0895 -4.10007,-33.897 0,-12.20996 1.45276,-23.3097 4.44125,-33.29956 2.98679,-10.07536 7.34253,-18.52812 13.32036,-25.52974 5.88978,-7.00128 13.31783,-12.38056 22.19864,-16.22275 8.7953,-3.75696 19.21014,-5.63538 30.99394,-5.63538 11.4426,0 21.43161,1.70784 29.88489,5.1231 8.45158,3.50076 15.54014,8.45285 21.17424,15.1127 5.63666,6.57458 9.8197,14.68601 12.55082,24.41976 2.73366,9.73367 4.18388,20.83358 4.18388,33.38498 z m -21.7711,1.45149 c 0,-8.79445 -0.7704,-16.99137 -2.30613,-24.50502 -1.53573,-7.59914 -4.10007,-14.08839 -7.77007,-19.72351 -3.6717,-5.55013 -8.53878,-9.90461 -14.60042,-12.97843 -6.06164,-3.07375 -13.57605,-4.69608 -22.54067,-4.69608 -8.96715,0 -16.47902,1.70785 -22.5432,5.03776 -6.06164,3.41527 -11.01423,7.85525 -14.77059,13.49046 -3.84185,5.55003 -6.57467,12.12437 -8.19759,19.55293 -1.62209,7.51355 -2.47461,15.36887 -2.47461,23.5658 0,9.13589 0.85252,17.5034 2.30528,25.18805 1.53658,7.6844 4.09754,14.2595 7.68372,19.80979 3.58619,5.63394 8.45328,9.90359 14.43111,12.97623 6.06164,3.07501 13.65984,4.61133 22.79633,4.61133 8.96462,0 16.56537,-1.70835 22.71252,-5.03657 6.14798,-3.33069 11.10058,-7.85601 14.94244,-13.57596 3.67001,-5.72232 6.40366,-12.38107 7.94024,-19.80953 1.62208,-7.59915 2.39164,-15.53972 2.39164,-23.90725 z m 166.15578,74.79664 c 0,0.5977 -0.16931,1.19464 -0.51639,1.7059 -0.25406,0.51388 -0.85338,0.8554 -1.62209,1.11107 -0.85337,0.34203 -1.87867,0.51135 -3.24504,0.76956 -1.28093,0.16932 -2.90302,0.25568 -4.86705,0.25568 -2.04711,0 -3.67007,-0.0864 -5.03644,-0.25568 -1.19453,-0.25821 -2.30527,-0.42753 -3.07233,-0.76956 -0.77037,-0.25567 -1.36724,-0.5977 -1.7084,-1.11107 -0.33863,-0.51134 -0.42328,-1.10862 -0.42328,-1.7059 l 0,-68.81983 -70.61135,0 0,68.81983 c 0,0.5977 -0.16932,1.19464 -0.51642,1.7059 -0.33864,0.51388 -0.85337,0.8554 -1.70844,1.11107 -0.7704,0.34203 -1.79224,0.51135 -3.15865,0.76956 -1.2809,0.16932 -2.98934,0.25568 -4.9509,0.25568 -1.96411,0 -3.5862,-0.0864 -4.9526,-0.25568 -1.2809,-0.25821 -2.39164,-0.42753 -3.15865,-0.76956 -0.85591,-0.25567 -1.45277,-0.5977 -1.70844,-1.11107 -0.33863,-0.51134 -0.51642,-1.10862 -0.51642,-1.7059 l 0,-148.90939 c 0,-0.5977 0.16931,-1.19539 0.51642,-1.70768 0.25398,-0.42667 0.85253,-0.85395 1.70844,-1.11005 0.77039,-0.25652 1.87775,-0.51219 3.15865,-0.6832 1.3664,-0.17102 2.98849,-0.34119 4.9526,-0.34119 1.96156,0 3.67,0.17102 4.9509,0.34119 1.36641,0.17101 2.39164,0.42668 3.15865,0.6832 0.85507,0.25567 1.36641,0.6832 1.70844,1.11005 0.33863,0.5122 0.51642,1.10981 0.51642,1.70768 l 0,62.15888 70.61135,0 0,-62.15888 c 0,-0.5977 0.0846,-1.19539 0.42328,-1.70768 0.33863,-0.42667 0.9389,-0.85395 1.7084,-1.11005 0.77046,-0.25652 1.8778,-0.51219 3.07233,-0.6832 1.36637,-0.17102 2.98933,-0.34119 5.03644,-0.34119 1.96403,0 3.58612,0.17102 4.86705,0.34119 1.36637,0.17101 2.39167,0.42668 3.24504,0.6832 0.77037,0.25567 1.36637,0.6832 1.62209,1.11005 0.33862,0.5122 0.51639,1.10981 0.51639,1.70768 z"
     style="fill-opacity:1;fill-rule:nonzero;stroke:none" />
</svg>
