<?xml version="1.0" encoding="UTF-8" standalone="no"?>
<!-- Created with Inkscape (http://www.inkscape.org/) -->

<svg
   xmlns:dc="http://purl.org/dc/elements/1.1/"
   xmlns:cc="http://creativecommons.org/ns#"
   xmlns:rdf="http://www.w3.org/1999/02/22-rdf-syntax-ns#"
   xmlns:svg="http://www.w3.org/2000/svg"
   xmlns="http://www.w3.org/2000/svg"
   xmlns:sodipodi="http://sodipodi.sourceforge.net/DTD/sodipodi-0.dtd"
   xmlns:inkscape="http://www.inkscape.org/namespaces/inkscape"
   width="1000"
   height="1000"
   id="svg4152"
   version="1.1"
   inkscape:version="0.91 r13725"
   viewBox="0 0 1000 1000"
   sodipodi:docname="mineral-formula-name.svg">
  <defs
     id="defs5498">
    <marker
       inkscape:isstock="true"
       style="overflow:visible"
       id="marker4233"
       refX="0.0"
       refY="0.0"
       orient="auto"
       inkscape:stockid="TriangleOutL">
      <path
         transform="scale(0.8)"
         style="fill-rule:evenodd;stroke:#000000;stroke-width:1pt;stroke-opacity:1;fill:#000000;fill-opacity:1"
         d="M 5.77,0.0 L -2.88,5.0 L -2.88,-5.0 L 5.77,0.0 z "
         id="path4235" />
    </marker>
    <marker
       inkscape:isstock="true"
       style="overflow:visible"
       id="marker4755"
       refX="0.0"
       refY="0.0"
       orient="auto"
       inkscape:stockid="TriangleOutL">
      <path
         transform="scale(0.8)"
         style="fill-rule:evenodd;stroke:#000000;stroke-width:1pt;stroke-opacity:1;fill:#000000;fill-opacity:1"
         d="M 5.77,0.0 L -2.88,5.0 L -2.88,-5.0 L 5.77,0.0 z "
         id="path4757" />
    </marker>
    <marker
       inkscape:stockid="Arrow1Lend"
       orient="auto"
       refY="0.0"
       refX="0.0"
       id="Arrow1Lend"
       style="overflow:visible;"
       inkscape:isstock="true">
      <path
         id="path4164"
         d="M 0.0,0.0 L 5.0,-5.0 L -12.5,0.0 L 5.0,5.0 L 0.0,0.0 z "
         style="fill-rule:evenodd;stroke:#000000;stroke-width:1pt;stroke-opacity:1;fill:#000000;fill-opacity:1"
         transform="scale(0.8) rotate(180) translate(12.5,0)" />
    </marker>
    <marker
       inkscape:stockid="Arrow2Lend"
       orient="auto"
       refY="0.0"
       refX="0.0"
       id="Arrow2Lend"
       style="overflow:visible;"
       inkscape:isstock="true">
      <path
         id="path4182"
         style="fill-rule:evenodd;stroke-width:0.625;stroke-linejoin:round;stroke:#000000;stroke-opacity:1;fill:#000000;fill-opacity:1"
         d="M 8.7185878,4.0337352 L -2.2072895,0.016013256 L 8.7185884,-4.0017078 C 6.9730900,-1.6296469 6.9831476,1.6157441 8.7185878,4.0337352 z "
         transform="scale(1.1) rotate(180) translate(1,0)" />
    </marker>
    <pattern
       y="0"
       x="0"
       height="6"
       width="6"
       patternUnits="userSpaceOnUse"
       id="EMFhbasepattern" />
  </defs>
  <sodipodi:namedview
     inkscape:window-height="1107"
     inkscape:window-width="2044"
     inkscape:pageshadow="2"
     inkscape:pageopacity="0.0"
     borderopacity="1.0"
     bordercolor="#666666"
     pagecolor="#ffffff"
     id="base"
     showgrid="true"
     showguides="true"
     inkscape:guide-bbox="true"
     inkscape:zoom="0.5"
     inkscape:cx="-113.17787"
     inkscape:cy="619.29481"
     inkscape:window-x="4"
     inkscape:window-y="1"
     inkscape:current-layer="svg4152"
     inkscape:window-maximized="1"
     objecttolerance="20">
    <sodipodi:guide
       orientation="horizontal"
       position="200"
       id="guide5596"
       inkscape:locked="false" />
    <inkscape:grid
       type="xygrid"
       id="grid3430"
       empspacing="50" />
    <sodipodi:guide
       position="550,1000"
       orientation="0,1"
       id="guide4169"
       inkscape:locked="false" />
  </sodipodi:namedview>
  <metadata
     id="metadata5594">
    <rdf:RDF>
      <cc:Work
         rdf:about="">
        <dc:format>image/svg+xml</dc:format>
        <dc:type
           rdf:resource="http://purl.org/dc/dcmitype/StillImage" />
        <dc:title></dc:title>
      </cc:Work>
    </rdf:RDF>
  </metadata>
  <g
     transform="translate(1036,80)"
     style="font-style:normal;font-weight:normal;font-size:40px;line-height:1.25;font-family:sans-serif;letter-spacing:0px;word-spacing:0px;fill:#000000;fill-opacity:1;stroke:none"
     id="flowRoot50">
    <path
       d="m -668.5791,647.47314 q 0,3.35694 -1.83106,6.10352 -1.52588,2.44141 -6.40869,4.27246 -4.57763,1.52588 -12.81738,2.44141 -8.23975,0.91552 -20.75195,0.91552 -19.83643,0 -28.68653,-1.52587 -8.54492,-1.52588 -12.5122,-4.57764 -3.66211,-3.05176 -5.79834,-7.32422 l -119.32373,-187.37793 0,187.37793 q 0,3.35693 -1.83106,5.79834 -1.83105,2.44141 -6.40869,4.27246 -4.57764,1.52588 -12.20703,2.44141 -7.6294,0.91552 -19.53125,0.91552 -11.59668,0 -19.53125,-0.91552 -7.6294,-0.91553 -12.20703,-2.44141 -4.57764,-1.83105 -6.71387,-4.27246 -1.83105,-2.44141 -1.83105,-5.79834 l 0,-372.00928 q 0,-3.35693 1.83105,-5.79834 2.13623,-2.4414 6.71387,-3.96728 4.57763,-1.52588 12.20703,-2.44141 7.93457,-0.91553 19.53125,-0.91553 11.90185,0 19.53125,0.91553 7.62939,0.91553 12.20703,2.44141 4.57764,1.52588 6.40869,3.96728 1.83106,2.44141 1.83106,5.79834 l 0,168.15186 115.66162,-167.84668 q 2.13623,-3.96729 5.18799,-6.40869 3.05175,-2.74658 7.93457,-4.27246 4.88281,-1.52588 12.5122,-2.13623 7.6294,-0.61036 19.53125,-0.61036 12.20703,0 20.1416,0.91553 7.93457,0.91553 12.51221,2.74658 4.88281,1.52588 6.71387,3.96729 1.83105,2.44141 1.83105,5.49316 0,5.18799 -2.74658,10.68116 -2.74658,5.49316 -10.37598,17.39501 l -108.3374,141.90674 118.10303,178.52784 q 6.71387,12.5122 7.93457,16.78466 1.52588,3.96729 1.52588,6.40869 z"
       id="path4173" />
    <path
       d="m -329.22363,540.9668 q 0,21.05713 -5.79834,38.14697 -5.79834,17.08984 -16.17432,30.2124 -10.0708,13.12256 -24.41406,22.58301 -14.03809,9.46045 -31.12793,15.56396 -17.08984,6.10352 -36.62109,9.15528 -19.22608,2.74658 -43.02979,2.74658 l -104.98047,0 q -10.0708,0 -17.08984,-5.79834 -6.71387,-6.10352 -6.71387,-19.53125 l 0,-344.23828 q 0,-13.42774 6.71387,-19.22608 7.01904,-6.10351 17.08984,-6.10351 l 99.18213,0 q 36.31592,0 61.34033,6.10351 25.32959,6.10352 42.41944,18.61573 17.39502,12.20703 26.55029,31.12793 9.15527,18.9209 9.15527,44.55566 0,14.34326 -3.66211,27.16065 -3.66211,12.5122 -10.68115,22.88818 -7.01904,10.37598 -17.39502,18.31055 -10.0708,7.93457 -23.19336,12.81738 16.78467,3.05176 30.82276,10.68115 14.34326,7.6294 24.71923,19.83643 10.68116,11.90185 16.78467,28.07617 6.10352,16.17432 6.10352,36.31592 z M -432.9834,374.646 q 0,-11.90186 -3.66211,-21.36231 -3.66211,-9.46045 -10.98633,-15.56396 -7.32421,-6.40869 -18.61572,-9.76563 -10.98633,-3.35693 -29.60205,-3.35693 l -40.58838,0 0,102.53906 44.86084,0 q 17.39502,0 27.771,-3.96728 10.37597,-4.27247 17.08984,-11.29151 7.01904,-7.32422 10.37598,-16.78467 3.35693,-9.76562 3.35693,-20.44677 z m 20.44678,169.06738 q 0,-13.73291 -4.57764,-24.41406 -4.57763,-10.98633 -13.42773,-18.31055 -8.8501,-7.32422 -22.58301,-11.2915 -13.73291,-3.96729 -35.70557,-3.96729 l -47.60742,0 0,112.30469 57.9834,0 q 16.78467,0 28.07617,-3.35694 11.59668,-3.66211 19.83643,-10.37597 8.54492,-7.01905 13.12256,-17.08985 4.88281,-10.37597 4.88281,-23.49853 z"
       id="path4175" />
    <path
       d="m -94.543457,402.11182 q 0,10.98632 -0.610352,18.00537 -0.610351,7.01904 -1.831054,10.98633 -1.220703,3.96728 -3.356937,5.49316 -1.83105,1.52588 -4.88281,1.52588 -2.44141,0 -5.49316,-0.91553 -3.05176,-1.2207 -7.01905,-2.44141 -3.66211,-1.2207 -8.23974,-2.13623 -4.57764,-1.2207 -10.0708,-1.2207 -6.40869,0 -12.81739,2.74658 -6.40869,2.44141 -13.42773,7.93457 -6.71387,5.49317 -14.34326,14.64844 -7.32422,9.15527 -15.86914,22.58301 l 0,169.67773 q 0,3.05176 -1.83106,5.49317 -1.83105,2.13623 -6.40869,3.66211 -4.27246,1.52588 -11.59668,2.13623 -7.32422,0.91552 -18.61572,0.91552 -11.29151,0 -18.61572,-0.91552 -7.32422,-0.61035 -11.90186,-2.13623 -4.27246,-1.52588 -6.10351,-3.66211 -1.83106,-2.44141 -1.83106,-5.49317 l 0,-272.21679 q 0,-3.05176 1.52588,-5.18799 1.52588,-2.44141 5.49316,-3.96729 3.96729,-1.52588 10.0708,-2.13623 6.4087,-0.91552 15.86914,-0.91552 9.76563,0 16.17432,0.91552 6.40869,0.61035 9.76563,2.13623 3.66211,1.52588 5.18798,3.96729 1.52588,2.13623 1.52588,5.18799 l 0,33.87451 q 10.68116,-15.25879 20.1416,-25.02442 9.46045,-10.0708 18.00538,-15.86914 8.54492,-5.79834 17.08984,-7.93457 8.54492,-2.4414 17.08984,-2.4414 3.96729,0 8.54493,0.61035 4.57763,0.30517 9.46044,1.52588 4.88282,0.91552 8.54493,2.4414 3.66211,1.22071 5.187985,2.74659 1.831054,1.52587 2.441406,3.35693 0.915527,1.83105 1.525879,5.18799 0.610351,3.05176 0.915527,9.46045 0.305176,6.40869 0.305176,17.39502 z"
       id="path4177" />
  </g>
</svg>
