<?xml version="1.0" encoding="UTF-8" standalone="no"?>
<!-- Created with Inkscape (http://www.inkscape.org/) -->

<svg
   stroke="currentColor"
   fill="currentColor"
   width="1000.7296"
   height="999.64148"
   id="svg4152"
   version="1.1"
   inkscape:version="1.2.2 (b0a84865, 2022-12-01)"
   viewBox="0 0 1000.7296 999.64147"
   sodipodi:docname="gnps.svg"
   xml:space="preserve"
   xmlns:inkscape="http://www.inkscape.org/namespaces/inkscape"
   xmlns:sodipodi="http://sodipodi.sourceforge.net/DTD/sodipodi-0.dtd"
   xmlns="http://www.w3.org/2000/svg"
   xmlns:svg="http://www.w3.org/2000/svg"
   xmlns:rdf="http://www.w3.org/1999/02/22-rdf-syntax-ns#"
   xmlns:cc="http://creativecommons.org/ns#"
   xmlns:dc="http://purl.org/dc/elements/1.1/"><defs
     id="defs5498"><marker
       inkscape:isstock="true"
       style="overflow:visible"
       id="marker4233"
       refX="0"
       refY="0"
       orient="auto"
       inkscape:stockid="TriangleOutL"><path
         transform="scale(0.8)"
         style="fill-opacity:1;fill-rule:evenodd;stroke-width:1pt;stroke-opacity:1"
         d="M 5.77,0 -2.88,5 V -5 Z"
         id="path4235" /></marker><marker
       inkscape:isstock="true"
       style="overflow:visible"
       id="marker4755"
       refX="0"
       refY="0"
       orient="auto"
       inkscape:stockid="TriangleOutL"><path
         transform="scale(0.8)"
         style="fill-opacity:1;fill-rule:evenodd;stroke-width:1pt;stroke-opacity:1"
         d="M 5.77,0 -2.88,5 V -5 Z"
         id="path4757" /></marker><marker
       inkscape:stockid="Arrow1Lend"
       orient="auto"
       refY="0"
       refX="0"
       id="Arrow1Lend"
       style="overflow:visible"
       inkscape:isstock="true"><path
         id="path4164"
         d="M 0,0 5,-5 -12.5,0 5,5 Z"
         style="fill-opacity:1;fill-rule:evenodd;stroke-width:1pt;stroke-opacity:1"
         transform="matrix(-0.8,0,0,-0.8,-10,0)" /></marker><marker
       inkscape:stockid="Arrow2Lend"
       orient="auto"
       refY="0"
       refX="0"
       id="Arrow2Lend"
       style="overflow:visible"
       inkscape:isstock="true"><path
         id="path4182"
         style="fill-opacity:1;fill-rule:evenodd;stroke-width:0.625;stroke-linejoin:round;stroke-opacity:1"
         d="M 8.7185878,4.0337352 -2.2072895,0.01601326 8.7185884,-4.0017078 c -1.7454984,2.3720609 -1.7354408,5.6174519 -6e-7,8.035443 z"
         transform="matrix(-1.1,0,0,-1.1,-1.1,0)" /></marker><pattern
       y="0"
       x="0"
       height="6"
       width="6"
       patternUnits="userSpaceOnUse"
       id="EMFhbasepattern" /></defs><sodipodi:namedview
     inkscape:window-height="1027"
     inkscape:window-width="1390"
     inkscape:pageshadow="2"
     inkscape:pageopacity="0.0"
     borderopacity="1.0"
     bordercolor="#666666"
     pagecolor="#ffffff"
     id="base"
     showgrid="true"
     showguides="true"
     inkscape:guide-bbox="true"
     inkscape:zoom="0.5"
     inkscape:cx="458"
     inkscape:cy="405"
     inkscape:window-x="0"
     inkscape:window-y="25"
     inkscape:current-layer="g214"
     inkscape:window-maximized="0"
     objecttolerance="20"
     inkscape:showpageshadow="2"
     inkscape:pagecheckerboard="0"
     inkscape:deskcolor="#d1d1d1"><sodipodi:guide
       orientation="horizontal"
       position="8.3638234e-06,199.64147"
       id="guide5596"
       inkscape:locked="false" /><inkscape:grid
       type="xygrid"
       id="grid3430"
       empspacing="50"
       originx="8.3638235e-06"
       originy="6.913415e-07" /><sodipodi:guide
       position="550,999.64146"
       orientation="0,1"
       id="guide4169"
       inkscape:locked="false" /></sodipodi:namedview><metadata
     id="metadata5594"><rdf:RDF><cc:Work
         rdf:about=""><dc:format>image/svg+xml</dc:format><dc:type
           rdf:resource="http://purl.org/dc/dcmitype/StillImage" /></cc:Work></rdf:RDF></metadata><g
     id="g214"
     transform="translate(380,-238)"><g
       id="g216"
       transform="matrix(2.2147552,0,0,2.2146009,-301.0882,-421.08398)"><path
         style="fill:#305678"
         d="m 186.27643,748.2665 c 2.35204,-0.21124 5.95204,-0.20827 8,0.007 2.04796,0.21487 0.12357,0.38771 -4.27643,0.38408 -4.4,-0.004 -6.07561,-0.17944 -3.72357,-0.39069 z M 168.75,747.31067 c 0.9625,-0.25152 2.5375,-0.25152 3.5,0 0.9625,0.25153 0.175,0.45733 -1.75,0.45733 -1.925,0 -2.7125,-0.2058 -1.75,-0.45733 z m 39,0 c 0.9625,-0.25152 2.5375,-0.25152 3.5,0 0.9625,0.25153 0.175,0.45733 -1.75,0.45733 -1.925,0 -2.7125,-0.2058 -1.75,-0.45733 z m -47.5,-0.97295 c 0.6875,-0.27741 1.8125,-0.27741 2.5,0 0.6875,0.27741 0.125,0.50439 -1.25,0.50439 -1.375,0 -1.9375,-0.22698 -1.25,-0.50439 z m 57.51903,-0.0307 c 0.97297,-0.25354 2.32297,-0.23687 3,0.0371 0.67703,0.27393 -0.11903,0.48137 -1.76903,0.46099 -1.65,-0.0204 -2.20394,-0.2445 -1.23097,-0.49804 z M 153.3125,745.3169 c 0.72187,-0.28887 1.58437,-0.25335 1.91667,0.0789 0.33229,0.33229 -0.25834,0.56864 -1.3125,0.52522 -1.16495,-0.048 -1.4019,-0.28494 -0.60417,-0.60416 z m 72,0 c 0.72187,-0.28887 1.58438,-0.25335 1.91667,0.0789 0.33229,0.33229 -0.25834,0.56864 -1.3125,0.52522 -1.16495,-0.048 -1.4019,-0.28494 -0.60417,-0.60416 z m 6,-1 c 0.72187,-0.28887 1.58438,-0.25335 1.91667,0.0789 0.33229,0.33229 -0.25834,0.56864 -1.3125,0.52522 -1.16495,-0.048 -1.4019,-0.28494 -0.60417,-0.60416 z m -93,-2 c 0.72187,-0.28887 1.58437,-0.25335 1.91667,0.0789 0.33229,0.33229 -0.25834,0.56864 -1.3125,0.52522 -1.16495,-0.048 -1.4019,-0.28494 -0.60417,-0.60416 z m 102,0 c 0.72187,-0.28887 1.58438,-0.25335 1.91667,0.0789 0.33229,0.33229 -0.25834,0.56864 -1.3125,0.52522 -1.16495,-0.048 -1.4019,-0.28494 -0.60417,-0.60416 z m -53.04459,-6.04162 c 1.79735,-0.22256 4.49735,-0.21797 6,0.0102 1.50265,0.22818 0.0321,0.41027 -3.26791,0.40466 -3.3,-0.006 -4.52944,-0.1923 -2.73209,-0.41486 z m -17.00625,-0.98253 c 1.24391,-0.23919 3.04391,-0.23011 4,0.0202 0.95609,0.25029 -0.0617,0.446 -2.26166,0.4349 -2.2,-0.0111 -2.98225,-0.21589 -1.73834,-0.45508 z m 36.48834,0.0179 c 0.9625,-0.25152 2.5375,-0.25152 3.5,0 0.9625,0.25153 0.175,0.45733 -1.75,0.45733 -1.925,0 -2.7125,-0.2058 -1.75,-0.45733 z m -45.5,-0.97295 c 0.6875,-0.27741 1.8125,-0.27741 2.5,0 0.6875,0.27741 0.125,0.50439 -1.25,0.50439 -1.375,0 -1.9375,-0.22698 -1.25,-0.50439 z m 55,0 c 0.6875,-0.27741 1.8125,-0.27741 2.5,0 0.6875,0.27741 0.125,0.50439 -1.25,0.50439 -1.375,0 -1.9375,-0.22698 -1.25,-0.50439 z m -62,-1 c 0.6875,-0.27741 1.8125,-0.27741 2.5,0 0.6875,0.27741 0.125,0.50439 -1.25,0.50439 -1.375,0 -1.9375,-0.22698 -1.25,-0.50439 z m 69,0 c 0.6875,-0.27741 1.8125,-0.27741 2.5,0 0.6875,0.27741 0.125,0.50439 -1.25,0.50439 -1.375,0 -1.9375,-0.22698 -1.25,-0.50439 z m -73.9375,-1.02083 c 0.72187,-0.28887 1.58437,-0.25335 1.91667,0.0789 0.33229,0.33229 -0.25834,0.56864 -1.3125,0.52522 -1.16495,-0.048 -1.4019,-0.28494 -0.60417,-0.60416 z m 80,0 c 0.72187,-0.28887 1.58438,-0.25335 1.91667,0.0789 0.33229,0.33229 -0.25834,0.56864 -1.3125,0.52522 -1.16495,-0.048 -1.4019,-0.28494 -0.60417,-0.60416 z m -85,-1 c 0.72187,-0.28887 1.58437,-0.25335 1.91667,0.0789 0.33229,0.33229 -0.25834,0.56864 -1.3125,0.52522 -1.16495,-0.048 -1.4019,-0.28494 -0.60417,-0.60416 z m 90,0 c 0.72187,-0.28887 1.58438,-0.25335 1.91667,0.0789 0.33229,0.33229 -0.25834,0.56864 -1.3125,0.52522 -1.16495,-0.048 -1.4019,-0.28494 -0.60417,-0.60416 z M 275.5,718 c 0.825,-0.53316 1.95,-0.96937 2.5,-0.96937 0.55,0 0.325,0.43621 -0.5,0.96937 -0.825,0.53316 -1.95,0.96937 -2.5,0.96937 -0.55,0 -0.325,-0.43621 0.5,-0.96937 z m 45,-11.37756 c 0,-0.20765 0.7875,-0.99515 1.75,-1.75 1.58606,-1.24387 1.62143,-1.2085 0.37756,0.37756 -1.30637,1.66575 -2.12756,2.19548 -2.12756,1.37244 z M 53.37244,702.25 c -1.24387,-1.58606 -1.2085,-1.62143 0.37756,-0.37756 0.9625,0.75485 1.75,1.54235 1.75,1.75 0,0.82304 -0.82119,0.29331 -2.12756,-1.37244 z M 324.5,703.62244 c 0,-0.20765 0.7875,-0.99515 1.75,-1.75 1.58606,-1.24387 1.62143,-1.2085 0.37756,0.37756 -1.30637,1.66575 -2.12756,2.19548 -2.12756,1.37244 z M 330,699 c 0.99549,-1.1 2.03498,-2 2.30998,-2 0.275,0 -0.31449,0.9 -1.30998,2 -0.99549,1.1 -2.03498,2 -2.30998,2 -0.275,0 0.31449,-0.9 1.30998,-2 z M 48.372445,698.25 c -1.243871,-1.58606 -1.208501,-1.62143 0.377555,-0.37756 0.9625,0.75485 1.75,1.54235 1.75,1.75 0,0.82304 -0.82119,0.29331 -2.127555,-1.37244 z M 312.5,697.62244 c 0,-0.20765 0.7875,-0.99515 1.75,-1.75 1.58606,-1.24387 1.62143,-1.2085 0.37756,0.37756 -1.30637,1.66575 -2.12756,2.19548 -2.12756,1.37244 z M 42.424314,693.25 40,690.5 l 2.75,2.42431 C 45.320289,695.1902 45.958588,696 45.174314,696 c -0.179127,0 -1.416627,-1.2375 -2.75,-2.75 z M 336,694 c 0.99549,-1.1 2.03498,-2 2.30998,-2 0.275,0 -0.31449,0.9 -1.30998,2 -0.99549,1.1 -2.03498,2 -2.30998,2 -0.275,0 0.31449,-0.9 1.30998,-2 z M 61.37244,693.25 c -1.24387,-1.58606 -1.2085,-1.62143 0.37756,-0.37756 0.9625,0.75485 1.75,1.54235 1.75,1.75 0,0.82304 -0.82119,0.29331 -2.12756,-1.37244 z M 316.5,694.62244 c 0,-0.20765 0.7875,-0.99515 1.75,-1.75 1.58606,-1.24387 1.62143,-1.2085 0.37756,0.37756 -1.30637,1.66575 -2.12756,2.19548 -2.12756,1.37244 z m -205.27632,-4.14967 c -4.78167,-1.75537 -11.85687,-6.80907 -14.45774,-10.32693 -5.475,-7.40535 -6.75133,-11.30409 -6.75877,-20.64584 -0.006,-7.64274 0.38686,-9.82944 2.60563,-14.5 3.1655,-6.66344 8.67489,-12.31446 15.3872,-15.78275 3.98341,-2.05825 6.83057,-2.67001 14.00349,-3.00889 l 9.0035,-0.42536 20.83081,-38.47386 c 11.45694,-21.16063 20.68037,-38.58253 20.4965,-38.71534 -0.18386,-0.13281 -1.9093,-1.2901 -3.8343,-2.57175 -18.44298,-12.27917 -27.13183,-33.19704 -23.70385,-57.06553 l 0.79616,-5.54348 -27.04302,-11.85455 -27.04301,-11.85455 -5.50049,5.20215 c -23.46412,22.19138 -60.385859,11.21498 -68.153382,-20.26119 -4.40661,-17.85682 5.470244,-37.51947 22.957102,-45.70255 20.26208,-9.48178 43.97836,-0.33248 54.00551,20.83432 2.90666,6.1358 3.18305,7.5706 3.16287,16.41901 l -0.0221,9.69569 26.32493,11.55431 C 138.75943,463.80056 151.04728,469 151.58705,469 c 0.53977,0 3.71491,-2.92213 7.05586,-6.49362 6.93313,-7.41153 14.47778,-12.3367 23.85709,-15.57395 5.21812,-1.80103 8.47212,-2.21505 16.5,-2.09936 5.5,0.0793 11.08784,0.26174 12.41742,0.40552 2.23136,0.24129 2.86633,-0.85098 8.24997,-14.19167 l 5.83255,-14.45307 -5.02088,-4.99463 c -2.76148,-2.74705 -6.24708,-7.49317 -7.74578,-10.54693 -2.38555,-4.86082 -2.72542,-6.73801 -2.72909,-15.07332 -0.004,-8.74703 0.263,-10.06377 3.28256,-16.19736 5.13229,-10.42516 14.23719,-17.30663 26.32985,-19.90004 15.19935,-3.25967 32.0105,5.78062 39.27139,21.11843 2.66679,5.63331 3.06879,7.5667 3.01487,14.5 -0.15779,20.29179 -14.55945,35.43672 -34.56897,36.35306 l -7.70954,0.35306 -5.56217,13.90093 c -3.0592,7.64551 -5.56218,14.53743 -5.56218,15.31538 0,0.77795 1.54832,2.37136 3.44071,3.54092 9.15555,5.65845 19.30639,21.17984 21.65346,33.10978 l 1.17292,5.96182 23.97847,-0.26747 23.97846,-0.26748 1.86669,-5 c 2.66067,-7.12676 7.01476,-11.8969 14.08341,-15.42915 18.7578,-9.37338 40.92853,2.88091 42.58674,23.5387 0.73931,9.21026 -1.88225,16.54366 -8.22348,23.00385 -14.57569,14.84915 -37.6818,11.23657 -47.75094,-7.46575 l -1.71356,-3.18275 -24.68477,0.26755 -24.68476,0.26755 -1.71098,6.25234 c -0.94105,3.43879 -3.38332,8.96173 -5.42728,12.27321 -2.04396,3.31147 -3.56977,6.43652 -3.39069,6.94454 0.4292,1.21759 37.81095,46.90282 38.95821,47.61187 0.48745,0.30126 3.69452,-0.5734 7.12683,-1.94369 29.08855,-11.6131 60.78363,9.36823 60.72869,40.20082 -0.0318,17.83764 -9.54128,32.7912 -25.7296,40.45946 -6.38507,3.02454 -7.394,3.20145 -18.25853,3.20145 -10.38762,0 -12.0539,-0.2596 -17.22629,-2.68382 -24.40716,-11.43925 -33.79238,-39.40236 -20.89478,-62.25564 3.1077,-5.50655 3.1447,-5.7142 1.40637,-7.8929 -10.63709,-13.3318 -36.61733,-44.75481 -37.40565,-45.24202 -0.56056,-0.34644 -3.57529,0.72615 -6.69942,2.38354 -9.35773,4.96439 -15.86047,6.37933 -27.93819,6.07911 l -10.71432,-0.26634 -3.58011,6.43904 c -1.96907,3.54147 -11.54477,21.18661 -21.27935,39.21142 l -17.69924,32.7724 3.92725,5.2276 c 5.55808,7.39842 7.46415,13.94063 6.90015,23.68336 -0.3907,6.7491 -0.94966,8.70726 -3.87647,13.58021 -6.62004,11.02191 -16.40303,16.51795 -29.18068,16.39358 -3.9816,-0.0388 -8.93861,-0.6943 -11.01559,-1.45677 z m 206.61567,-35.49586 c 16.50556,-5.09805 27.16586,-23.38928 23.65833,-40.59362 -2.39027,-11.72424 -9.03487,-20.16405 -19.87767,-25.24812 C 316.78396,586.86759 314.67481,586.5 306.5,586.5 c -8.36534,0 -10.17646,0.33219 -15.16366,2.78131 -21.74644,10.67922 -27.05263,38.51027 -10.7204,56.22865 9.52352,10.33179 23.17911,13.80479 37.22341,9.46695 z M 70.10217,463.60473 c 10.97599,-5.11078 17.69195,-15.67096 17.69195,-27.81885 0,-21.78517 -22.77226,-36.60696 -42.38927,-27.58992 -7.667501,3.5244 -11.342195,6.99045 -14.846822,14.00383 -2.609252,5.22157 -3.056594,7.23355 -3.048259,13.70993 0.01165,9.05228 2.590991,15.47542 8.60806,21.43602 6.60353,6.54156 11.470765,8.44523 21.882171,8.55854 5.3843,0.0586 8.17765,-0.47217 12.10217,-2.29955 z m 183.62257,-52.65034 c 8.8212,-2.44986 16.94406,-12.27537 18.30027,-22.13625 1.49002,-10.83373 -6.09139,-23.57401 -16.36754,-27.50508 -14.05253,-5.37569 -30.12433,2.03893 -34.77595,16.04366 -6.70031,20.17272 12.0644,39.36847 32.84322,33.59767 z M 320.5,691.62244 c 0,-0.20765 0.7875,-0.99515 1.75,-1.75 1.58606,-1.24387 1.62143,-1.2085 0.37756,0.37756 -1.30637,1.66575 -2.12756,2.19548 -2.12756,1.37244 z M 56.37244,689.25 c -1.24387,-1.58606 -1.2085,-1.62143 0.37756,-0.37756 0.9625,0.75485 1.75,1.54235 1.75,1.75 0,0.82304 -0.82119,0.29331 -2.12756,-1.37244 z M 349,682 c 3.8205,-3.85 7.17136,-7 7.44636,-7 0.275,0 -2.62586,3.15 -6.44636,7 -3.8205,3.85 -7.17136,7 -7.44636,7 -0.275,0 2.62586,-3.15 6.44636,-7 z M 30.46584,682.25 25,676.5 l 5.75,5.46584 C 36.091932,687.04378 36.958093,688 36.21584,688 c -0.156288,0 -2.743788,-2.5875 -5.75,-5.75 z M 327.5,685.5 c 1.29175,-1.375 2.57363,-2.5 2.84863,-2.5 0.275,0 -0.55688,1.125 -1.84863,2.5 -1.29175,1.375 -2.57363,2.5 -2.84863,2.5 -0.275,0 0.55688,-1.125 1.84863,-2.5 z M 50.42431,684.25 48,681.5 l 2.75,2.42431 C 53.32029,686.1902 53.95859,687 53.17431,687 c -0.17912,0 -1.41662,-1.2375 -2.75,-2.75 z M 340,674 c 3.8205,-3.85 7.17136,-7 7.44636,-7 0.275,0 -2.62586,3.15 -6.44636,7 -3.8205,3.85 -7.17136,7 -7.44636,7 -0.275,0 2.62586,-3.15 6.44636,-7 z M 38.968697,673.75 33,667.5 l 6.25,5.9687 c 3.4375,3.28278 6.25,6.09528 6.25,6.25 0,0.7389 -0.986894,-0.16298 -6.531303,-5.9687 z M 19.424314,670.25 17,667.5 l 2.75,2.42431 C 22.320289,672.1902 22.958588,673 22.174314,673 c -0.179127,0 -1.416627,-1.2375 -2.75,-2.75 z M 360.5,669.5 c 1.29175,-1.375 2.57363,-2.5 2.84863,-2.5 0.275,0 -0.55688,1.125 -1.84863,2.5 -1.29175,1.375 -2.57363,2.5 -2.84863,2.5 -0.275,0 0.55688,-1.125 1.84863,-2.5 z M 14.372445,664.25 c -1.243871,-1.58606 -1.208501,-1.62143 0.377555,-0.37756 0.9625,0.75485 1.75,1.54235 1.75,1.75 0,0.82304 -0.821186,0.29331 -2.127555,-1.37244 z m 14.051869,-2 L 26,659.5 l 2.75,2.42431 C 31.320289,664.1902 31.958588,665 31.174314,665 c -0.179127,0 -1.416627,-1.2375 -2.75,-2.75 z M 364.5,664.62244 c 0,-0.20765 0.7875,-0.99515 1.75,-1.75 1.58606,-1.24387 1.62143,-1.2085 0.37756,0.37756 -1.30637,1.66575 -2.12756,2.19548 -2.12756,1.37244 z M 351.5,661.5 c 1.29175,-1.375 2.57363,-2.5 2.84863,-2.5 0.275,0 -0.55688,1.125 -1.84863,2.5 -1.29175,1.375 -2.57363,2.5 -2.84863,2.5 -0.275,0 0.55688,-1.125 1.84863,-2.5 z M 10.372445,659.25 c -1.243871,-1.58606 -1.208501,-1.62143 0.377555,-0.37756 0.9625,0.75485 1.75,1.54235 1.75,1.75 0,0.82304 -0.821186,0.29331 -2.127555,-1.37244 z M 367.5,660.62244 c 0,-0.20765 0.7875,-0.99515 1.75,-1.75 1.58606,-1.24387 1.62143,-1.2085 0.37756,0.37756 -1.30637,1.66575 -2.12756,2.19548 -2.12756,1.37244 z M 23.372445,656.25 c -1.243871,-1.58606 -1.208501,-1.62143 0.377555,-0.37756 0.9625,0.75485 1.75,1.54235 1.75,1.75 0,0.82304 -0.821186,0.29331 -2.127555,-1.37244 z M 355.5,656.62244 c 0,-0.20765 0.7875,-0.99515 1.75,-1.75 1.58606,-1.24387 1.62143,-1.2085 0.37756,0.37756 -1.30637,1.66575 -2.12756,2.19548 -2.12756,1.37244 z m 15,0 c 0,-0.20765 0.7875,-0.99515 1.75,-1.75 1.58606,-1.24387 1.62143,-1.2085 0.37756,0.37756 -1.30637,1.66575 -2.12756,2.19548 -2.12756,1.37244 z M 19.372445,651.25 c -1.243871,-1.58606 -1.208501,-1.62143 0.377555,-0.37756 0.9625,0.75485 1.75,1.54235 1.75,1.75 0,0.82304 -0.821186,0.29331 -2.127555,-1.37244 z M 361.5,648.62244 c 0,-0.20765 0.7875,-0.99515 1.75,-1.75 1.58606,-1.24387 1.62143,-1.2085 0.37756,0.37756 -1.30637,1.66575 -2.12756,2.19548 -2.12756,1.37244 z M -8.5,630 c -0.588702,-1.1 -0.845368,-2 -0.570368,-2 0.275,0 0.981666,0.9 1.570368,2 0.588702,1.1 0.845368,2 0.570368,2 -0.275,0 -0.981666,-0.9 -1.570368,-2 z m -6.376461,-12.53866 c -0.964979,-2.51469 -0.680311,-3.16355 0.498534,-1.13634 0.58369,1.00375 0.850598,2.03566 0.593129,2.29313 -0.257468,0.25747 -0.748717,-0.26309 -1.091663,-1.15679 z m -15.544592,-47.04467 c 0.04798,-1.16495 0.284941,-1.4019 0.604167,-0.60417 0.288871,0.72187 0.253344,1.58438 -0.07895,1.91667 -0.332292,0.33229 -0.568641,-0.25834 -0.52522,-1.3125 z m 428.000003,-1 c 0.048,-1.16495 0.28494,-1.4019 0.60416,-0.60417 0.28887,0.72187 0.25335,1.58438 -0.0789,1.91667 -0.33229,0.33229 -0.56864,-0.25834 -0.52522,-1.3125 z m -416.000003,-1 c 0.04798,-1.16495 0.284941,-1.4019 0.604167,-0.60417 0.288871,0.72187 0.253344,1.58438 -0.07895,1.91667 -0.332292,0.33229 -0.568641,-0.25834 -0.52522,-1.3125 z m -13,-3 c 0.04798,-1.16495 0.284941,-1.4019 0.604167,-0.60417 0.288871,0.72187 0.253344,1.58438 -0.07895,1.91667 -0.332292,0.33229 -0.568641,-0.25834 -0.52522,-1.3125 z m 430.000003,-1 c 0.048,-1.16495 0.28494,-1.4019 0.60416,-0.60417 0.28887,0.72187 0.25335,1.58438 -0.0789,1.91667 -0.33229,0.33229 -0.56864,-0.25834 -0.52522,-1.3125 z m -418.000003,-1 c 0.04798,-1.16495 0.284941,-1.4019 0.604167,-0.60417 0.288871,0.72187 0.253344,1.58438 -0.07895,1.91667 -0.332292,0.33229 -0.568641,-0.25834 -0.52522,-1.3125 z m 431.000003,-3 c 0.048,-1.16495 0.28494,-1.4019 0.60416,-0.60417 0.28887,0.72187 0.25335,1.58438 -0.0789,1.91667 -0.33229,0.33229 -0.56864,-0.25834 -0.52522,-1.3125 z m -444.000003,-1 c 0.04798,-1.16495 0.284941,-1.4019 0.604167,-0.60417 0.288871,0.72187 0.253344,1.58438 -0.07895,1.91667 -0.332292,0.33229 -0.568641,-0.25834 -0.52522,-1.3125 z m 432.000003,0 c 0.048,-1.16495 0.28494,-1.4019 0.60416,-0.60417 0.28887,0.72187 0.25335,1.58438 -0.0789,1.91667 -0.33229,0.33229 -0.56864,-0.25834 -0.52522,-1.3125 z m -420.000003,-1 c 0.04798,-1.16495 0.284941,-1.4019 0.604167,-0.60417 0.288871,0.72187 0.253344,1.58438 -0.07895,1.91667 -0.332292,0.33229 -0.568641,-0.25834 -0.52522,-1.3125 z M 412.65789,554 c 0,-1.375 0.22698,-1.9375 0.50439,-1.25 0.27741,0.6875 0.27741,1.8125 0,2.5 -0.27741,0.6875 -0.50439,0.125 -0.50439,-1.25 z m -445.999995,-1 c 0,-1.375 0.226973,-1.9375 0.504386,-1.25 0.277412,0.6875 0.277412,1.8125 0,2.5 -0.277413,0.6875 -0.504386,0.125 -0.504386,-1.25 z m 433.999995,0 c 0,-1.375 0.22698,-1.9375 0.50439,-1.25 0.27741,0.6875 0.27741,1.8125 0,2.5 -0.27741,0.6875 -0.50439,0.125 -0.50439,-1.25 z m -421.962941,-1.5 c 0.02038,-1.65 0.244498,-2.20394 0.498042,-1.23097 0.253543,0.97297 0.236869,2.32297 -0.03705,3 -0.273927,0.67703 -0.481372,-0.11903 -0.460992,-1.76903 z M 413.732,545 c 0,-1.925 0.2058,-2.7125 0.45733,-1.75 0.25152,0.9625 0.25152,2.5375 0,3.5 -0.25153,0.9625 -0.45733,0.175 -0.45733,-1.75 z m -447.999997,-1 c 0,-1.925 0.205795,-2.7125 0.457323,-1.75 0.251527,0.9625 0.251527,2.5375 0,3.5 -0.251528,0.9625 -0.457323,0.175 -0.457323,-1.75 z M 401.732,544 c 0,-1.925 0.2058,-2.7125 0.45733,-1.75 0.25152,0.9625 0.25152,2.5375 0,3.5 -0.25153,0.9625 -0.45733,0.175 -0.45733,-1.75 z m -423.999997,-2 c 0,-1.925 0.205795,-2.7125 0.457323,-1.75 0.251527,0.9625 0.251527,2.5375 0,3.5 -0.251528,0.9625 -0.457323,0.175 -0.457323,-1.75 z M 414.88854,523.5 c 0.002,-7.15 0.16103,-9.94379 0.35396,-6.20841 0.19293,3.73537 0.19149,9.58537 -0.003,13 -0.19468,3.41462 -0.35253,0.35841 -0.35078,-6.79159 z M 402.87817,523 c 0,-6.325 0.16237,-8.9125 0.36082,-5.75 0.19845,3.1625 0.19845,8.3375 0,11.5 -0.19845,3.1625 -0.36082,0.575 -0.36082,-5.75 z m -438.008205,0 c 0,-5.775 0.165274,-8.1375 0.367277,-5.25 0.202002,2.8875 0.202002,7.6125 0,10.5 -0.202003,2.8875 -0.367277,0.525 -0.367277,-5.25 z m 11.979449,0 c 0,-4.675 0.172256,-6.5875 0.382791,-4.25 0.210535,2.3375 0.210535,6.1625 0,8.5 -0.210535,2.3375 -0.382791,0.425 -0.382791,-4.25 z m 0.882589,-19 c 0,-1.925 0.205795,-2.7125 0.457323,-1.75 0.251527,0.9625 0.251527,2.5375 0,3.5 -0.251528,0.9625 -0.457323,0.175 -0.457323,-1.75 z m -12,-1 c 0,-1.925 0.205795,-2.7125 0.457323,-1.75 0.251527,0.9625 0.251527,2.5375 0,3.5 -0.251528,0.9625 -0.457323,0.175 -0.457323,-1.75 z m 435.962947,-0.5 c 0.0204,-1.65 0.2445,-2.20394 0.49804,-1.23097 0.25354,0.97297 0.23687,2.32297 -0.0371,3 -0.27393,0.67703 -0.48137,-0.11903 -0.46099,-1.76903 z m 12,-1 c 0.0204,-1.65 0.2445,-2.20394 0.49804,-1.23097 0.25354,0.97297 0.23687,2.32297 -0.0371,3 -0.27393,0.67703 -0.48137,-0.11903 -0.46099,-1.76903 z M -21.342105,495 c 0,-1.375 0.226973,-1.9375 0.504386,-1.25 0.277412,0.6875 0.277412,1.8125 0,2.5 -0.277413,0.6875 -0.504386,0.125 -0.504386,-1.25 z m -12,-1 c 0,-1.375 0.226973,-1.9375 0.504386,-1.25 0.277412,0.6875 0.277412,1.8125 0,2.5 -0.277413,0.6875 -0.504386,0.125 -0.504386,-1.25 z m 433.999995,0 c 0,-1.375 0.22698,-1.9375 0.50439,-1.25 0.27741,0.6875 0.27741,1.8125 0,2.5 -0.27741,0.6875 -0.50439,0.125 -0.50439,-1.25 z m 12,-1 c 0,-1.375 0.22698,-1.9375 0.50439,-1.25 0.27741,0.6875 0.27741,1.8125 0,2.5 -0.27741,0.6875 -0.50439,0.125 -0.50439,-1.25 z m -433.078943,-4.58333 c 0.04798,-1.16495 0.284941,-1.4019 0.604167,-0.60417 0.288871,0.72187 0.253344,1.58437 -0.07895,1.91667 -0.332292,0.33229 -0.568641,-0.25834 -0.52522,-1.3125 z M -32.342105,487 c 0,-1.375 0.226973,-1.9375 0.504386,-1.25 0.277412,0.6875 0.277412,1.8125 0,2.5 -0.277413,0.6875 -0.504386,0.125 -0.504386,-1.25 z m 431.921055,0.41667 c 0.048,-1.16495 0.28494,-1.4019 0.60416,-0.60417 0.28887,0.72187 0.25335,1.58437 -0.0789,1.91667 -0.33229,0.33229 -0.56864,-0.25834 -0.52522,-1.3125 z M 411.65789,486 c 0,-1.375 0.22698,-1.9375 0.50439,-1.25 0.27741,0.6875 0.27741,1.8125 0,2.5 -0.27741,0.6875 -0.50439,0.125 -0.50439,-1.25 z m -431.078943,-3.58333 c 0.04798,-1.16495 0.284941,-1.4019 0.604167,-0.60417 0.288871,0.72187 0.253344,1.58437 -0.07895,1.91667 -0.332292,0.33229 -0.568641,-0.25834 -0.52522,-1.3125 z m -12,-1 c 0.04798,-1.16495 0.284941,-1.4019 0.604167,-0.60417 0.288871,0.72187 0.253344,1.58437 -0.07895,1.91667 -0.332292,0.33229 -0.568641,-0.25834 -0.52522,-1.3125 z m 430.000003,0 c 0.048,-1.16495 0.28494,-1.4019 0.60416,-0.60417 0.28887,0.72187 0.25335,1.58437 -0.0789,1.91667 -0.33229,0.33229 -0.56864,-0.25834 -0.52522,-1.3125 z m 12,-1 c 0.048,-1.16495 0.28494,-1.4019 0.60416,-0.60417 0.28887,0.72187 0.25335,1.58437 -0.0789,1.91667 -0.33229,0.33229 -0.56864,-0.25834 -0.52522,-1.3125 z m -429.000003,-3 c 0.04798,-1.16495 0.284941,-1.4019 0.604167,-0.60417 0.288871,0.72187 0.253344,1.58437 -0.07895,1.91667 -0.332292,0.33229 -0.568641,-0.25834 -0.52522,-1.3125 z m 428.000003,-2 c 0.048,-1.16495 0.28494,-1.4019 0.60416,-0.60417 0.28887,0.72187 0.25335,1.58437 -0.0789,1.91667 -0.33229,0.33229 -0.56864,-0.25834 -0.52522,-1.3125 z m -26.45541,-40.95533 c -0.96498,-2.51469 -0.68031,-3.16355 0.49853,-1.13634 0.58369,1.00375 0.8506,2.03566 0.59313,2.29313 -0.25747,0.25747 -0.74872,-0.26309 -1.09166,-1.15679 z M -1.5,429.05902 c 0,-0.51754 0.444846,-1.21592 0.988546,-1.55194 0.56686,-0.35034 0.734507,0.0511 0.393011,0.94098 C -0.783234,430.18048 -1.5,430.49745 -1.5,429.05902 Z m 392.70548,-5.58697 C 389.72942,420.46242 388.73426,418 388.99402,418 c 0.67311,0 5.71707,10.12224 5.26782,10.57149 -0.20494,0.20494 -1.5803,-2.08981 -3.05636,-5.09944 z M 377.5,423 c -0.5887,-1.1 -0.84537,-2 -0.57037,-2 0.275,0 0.98167,0.9 1.57037,2 0.5887,1.1 0.84537,2 0.57037,2 -0.275,0 -0.98167,-0.9 -1.57037,-2 z m -16.12756,-25.75 c -1.24387,-1.58606 -1.2085,-1.62143 0.37756,-0.37756 1.66575,1.30637 2.19548,2.12756 1.37244,2.12756 -0.20765,0 -0.99515,-0.7875 -1.75,-1.75 z m -3,-4 c -1.24387,-1.58606 -1.2085,-1.62143 0.37756,-0.37756 0.9625,0.75485 1.75,1.54235 1.75,1.75 0,0.82304 -0.82119,0.29331 -2.12756,-1.37244 z M 5.5,393.62244 c 0,-0.20765 0.7875,-0.99515 1.75,-1.75 1.586056,-1.24387 1.621426,-1.2085 0.377555,0.37756 C 6.321186,393.91575 5.5,394.44548 5.5,393.62244 Z m 15,0 c 0,-0.20765 0.7875,-0.99515 1.75,-1.75 1.586056,-1.24387 1.621426,-1.2085 0.377555,0.37756 C 21.321186,393.91575 20.5,394.44548 20.5,393.62244 Z M 370.37244,389.25 c -1.24387,-1.58606 -1.2085,-1.62143 0.37756,-0.37756 0.9625,0.75485 1.75,1.54235 1.75,1.75 0,0.82304 -0.82119,0.29331 -2.12756,-1.37244 z M 25,388 c 0.995486,-1.1 2.034975,-2 2.309975,-2 0.275,0 -0.314489,0.9 -1.309975,2 -0.995486,1.1 -2.034975,2 -2.309975,2 -0.275,0 0.314489,-0.9 1.309975,-2 z m 329.37244,0.25 c -1.24387,-1.58606 -1.2085,-1.62143 0.37756,-0.37756 1.66575,1.30637 2.19548,2.12756 1.37244,2.12756 -0.20765,0 -0.99515,-0.7875 -1.75,-1.75 z m 13,-3 c -1.24387,-1.58606 -1.2085,-1.62143 0.37756,-0.37756 1.66575,1.30637 2.19548,2.12756 1.37244,2.12756 -0.20765,0 -0.99515,-0.7875 -1.75,-1.75 z M 11.5,385.62244 c 0,-0.20765 0.7875,-0.99515 1.75,-1.75 1.586056,-1.24387 1.621426,-1.2085 0.377555,0.37756 C 12.321186,385.91575 11.5,386.44548 11.5,385.62244 Z M 32.458208,379.75 C 36.602173,375.33481 37.5,374.54091 37.5,375.29179 c 0,0.16049 -2.1375,2.29799 -4.75,4.75 L 28,384.5 Z m 315.478882,1 L 345,377.5 l 3.25,2.93709 c 3.02946,2.73778 3.70965,3.56291 2.93709,3.56291 -0.1721,0 -1.6346,-1.4625 -3.25,-3.25 z m 14.9679,-1 L 361,377.5 l 2.25,1.90499 c 2.11444,1.79022 2.70524,2.59501 1.90499,2.59501 -0.18976,0 -1.20226,-1.0125 -2.25,-2.25 z M 17,379 c 0.995486,-1.1 2.034975,-2 2.309975,-2 0.275,0 -0.314489,0.9 -1.309975,2 -0.995486,1.1 -2.034975,2 -2.309975,2 -0.275,0 0.314489,-0.9 1.309975,-2 z M 356.44617,372.25 353,368.5 l 3.75,3.44617 c 2.0625,1.89539 3.75,3.58289 3.75,3.75 0,0.76362 -0.84622,0.0442 -4.05383,-3.44617 z M 25,370 c 2.708649,-2.75 5.149816,-5 5.424816,-5 0.275,0 -1.716167,2.25 -4.424816,5 -2.708649,2.75 -5.149816,5 -5.424816,5 -0.275,0 1.716167,-2.25 4.424816,-5 z m 21,-4 c 2.148243,-2.2 4.1309,-4 4.4059,-4 0.275,0 -1.257657,1.8 -3.4059,4 -2.148243,2.2 -4.130896,4 -4.405896,4 -0.275,0 1.257653,-1.8 3.405896,-4 z M 331.44617,364.25 328,360.5 l 3.75,3.44617 c 2.0625,1.89539 3.75,3.58289 3.75,3.75 0,0.76362 -0.84622,0.0442 -4.05383,-3.44617 z M 36,359 c 2.708649,-2.75 5.149816,-5 5.424816,-5 0.275,0 -1.716167,2.25 -4.424816,5 -2.708649,2.75 -5.149816,5 -5.424816,5 -0.275,0 1.716167,-2.25 4.424816,-5 z m 18,0 c 0.99549,-1.1 2.03498,-2 2.30998,-2 0.275,0 -0.31449,0.9 -1.30998,2 -0.99549,1.1 -2.03498,2 -2.30998,2 -0.275,0 0.31449,-0.9 1.30998,-2 z M 323.90499,357.75 322,355.5 l 2.25,1.90499 c 2.11444,1.79022 2.70524,2.59501 1.90499,2.59501 -0.18976,0 -1.20226,-1.0125 -2.25,-2.25 z m 16.54118,-1.5 L 337,352.5 l 3.75,3.44617 c 2.0625,1.89539 3.75,3.58289 3.75,3.75 0,0.76362 -0.84622,0.0442 -4.05383,-3.44617 z M 58.5,355.62244 c 0,-0.20765 0.7875,-0.99515 1.75,-1.75 1.58606,-1.24387 1.62143,-1.2085 0.37756,0.37756 C 59.32119,355.91575 58.5,356.44548 58.5,355.62244 Z M 319.37244,354.25 c -1.24387,-1.58606 -1.2085,-1.62143 0.37756,-0.37756 1.66575,1.30637 2.19548,2.12756 1.37244,2.12756 -0.20765,0 -0.99515,-0.7875 -1.75,-1.75 z M 62.5,352.62244 c 0,-0.20765 0.7875,-0.99515 1.75,-1.75 1.58606,-1.24387 1.62143,-1.2085 0.37756,0.37756 C 63.32119,352.91575 62.5,353.44548 62.5,352.62244 Z M 46,350 c 0.995486,-1.1 2.034975,-2 2.309975,-2 0.275,0 -0.314489,0.9 -1.309975,2 -0.995486,1.1 -2.034975,2 -2.309975,2 -0.275,0 0.314489,-0.9 1.309975,-2 z m 286.37244,-0.75 c -1.24387,-1.58606 -1.2085,-1.62143 0.37756,-0.37756 1.66575,1.30637 2.19548,2.12756 1.37244,2.12756 -0.20765,0 -0.99515,-0.7875 -1.75,-1.75 z M 50.5,346.62244 c 0,-0.20765 0.7875,-0.99515 1.75,-1.75 1.58606,-1.24387 1.62143,-1.2085 0.37756,0.37756 C 51.32119,346.91575 50.5,347.44548 50.5,346.62244 Z M 327.37244,345.25 c -1.24387,-1.58606 -1.2085,-1.62143 0.37756,-0.37756 1.66575,1.30637 2.19548,2.12756 1.37244,2.12756 -0.20765,0 -0.99515,-0.7875 -1.75,-1.75 z M 54.5,343.62244 c 0,-0.20765 0.7875,-0.99515 1.75,-1.75 1.58606,-1.24387 1.62143,-1.2085 0.37756,0.37756 -1.30637,1.66575 -2.12756,2.19548 -2.12756,1.37244 z m 31,-6.05207 c 0,-0.275 0.9,-0.98167 2,-1.57037 1.1,-0.5887 2,-0.84537 2,-0.57037 0,0.275 -0.9,0.98167 -2,1.57037 -1.1,0.5887 -2,0.84537 -2,0.57037 z m 60.8125,-23.25348 c 0.72187,-0.28888 1.58437,-0.25335 1.91667,0.079 0.33229,0.33229 -0.25834,0.56864 -1.3125,0.52522 -1.16495,-0.048 -1.4019,-0.28494 -0.60417,-0.60417 z m 86,0 c 0.72187,-0.28888 1.58438,-0.25335 1.91667,0.079 0.33229,0.33229 -0.25834,0.56864 -1.3125,0.52522 -1.16495,-0.048 -1.4019,-0.28494 -0.60417,-0.60417 z m -81,-1 c 0.72187,-0.28888 1.58437,-0.25335 1.91667,0.079 0.33229,0.33229 -0.25834,0.56864 -1.3125,0.52522 -1.16495,-0.048 -1.4019,-0.28494 -0.60417,-0.60417 z m 76,0 c 0.72187,-0.28888 1.58438,-0.25335 1.91667,0.079 0.33229,0.33229 -0.25834,0.56864 -1.3125,0.52522 -1.16495,-0.048 -1.4019,-0.28494 -0.60417,-0.60417 z M 157.25,312.33772 c 0.6875,-0.27741 1.8125,-0.27741 2.5,0 0.6875,0.27741 0.125,0.50438 -1.25,0.50438 -1.375,0 -1.9375,-0.22697 -1.25,-0.50438 z m 63,0 c 0.6875,-0.27741 1.8125,-0.27741 2.5,0 0.6875,0.27741 0.125,0.50438 -1.25,0.50438 -1.375,0 -1.9375,-0.22697 -1.25,-0.50438 z m -55.48097,-1.03071 c 0.97297,-0.25354 2.32297,-0.23687 3,0.0371 0.67703,0.27392 -0.11903,0.48137 -1.76903,0.46099 -1.65,-0.0204 -2.20394,-0.2445 -1.23097,-0.49805 z m 48,0 c 0.97297,-0.25354 2.32297,-0.23687 3,0.0371 0.67703,0.27392 -0.11903,0.48137 -1.76903,0.46099 -1.65,-0.0204 -2.20394,-0.2445 -1.23097,-0.49805 z M 176.25,310.2766 c 1.7875,-0.22182 4.7125,-0.22182 6.5,0 1.7875,0.22183 0.325,0.40333 -3.25,0.40333 -3.575,0 -5.0375,-0.1815 -3.25,-0.40333 z m 21,0 c 1.7875,-0.22182 4.7125,-0.22182 6.5,0 1.7875,0.22183 0.325,0.40333 -3.25,0.40333 -3.575,0 -5.0375,-0.1815 -3.25,-0.40333 z m -56.9375,-6.95971 c 0.72187,-0.28888 1.58437,-0.25335 1.91667,0.079 0.33229,0.33229 -0.25834,0.56864 -1.3125,0.52522 -1.16495,-0.048 -1.4019,-0.28494 -0.60417,-0.60417 z m 98,0 c 0.72187,-0.28888 1.58438,-0.25335 1.91667,0.079 0.33229,0.33229 -0.25834,0.56864 -1.3125,0.52522 -1.16495,-0.048 -1.4019,-0.28494 -0.60417,-0.60417 z m -93,-1 c 0.72187,-0.28888 1.58437,-0.25335 1.91667,0.079 0.33229,0.33229 -0.25834,0.56864 -1.3125,0.52522 -1.16495,-0.048 -1.4019,-0.28494 -0.60417,-0.60417 z m 5,-1 c 0.72187,-0.28888 1.58437,-0.25335 1.91667,0.079 0.33229,0.33229 -0.25834,0.56864 -1.3125,0.52522 -1.16495,-0.048 -1.4019,-0.28494 -0.60417,-0.60417 z m 78,0 c 0.72187,-0.28888 1.58438,-0.25335 1.91667,0.079 0.33229,0.33229 -0.25834,0.56864 -1.3125,0.52522 -1.16495,-0.048 -1.4019,-0.28494 -0.60417,-0.60417 z M 156.25,300.33772 c 0.6875,-0.27741 1.8125,-0.27741 2.5,0 0.6875,0.27741 0.125,0.50439 -1.25,0.50439 -1.375,0 -1.9375,-0.22698 -1.25,-0.50439 z m 66.0625,-0.0208 c 0.72187,-0.28887 1.58438,-0.25335 1.91667,0.0789 0.33229,0.33229 -0.25834,0.56864 -1.3125,0.52522 -1.16495,-0.048 -1.4019,-0.28494 -0.60417,-0.60416 z m -58.54347,-1.00988 c 0.97297,-0.25354 2.32297,-0.23687 3,0.0371 0.67703,0.27393 -0.11903,0.48137 -1.76903,0.46099 -1.65,-0.0204 -2.20394,-0.2445 -1.23097,-0.49804 z m 50,0 c 0.97297,-0.25354 2.32297,-0.23687 3,0.0371 0.67703,0.27393 -0.11903,0.48137 -1.76903,0.46099 -1.65,-0.0204 -2.20394,-0.2445 -1.23097,-0.49804 z M 174.75,298.28375 c 1.5125,-0.22913 3.9875,-0.22913 5.5,0 1.5125,0.22912 0.275,0.41659 -2.75,0.41659 -3.025,0 -4.2625,-0.18747 -2.75,-0.41659 z m 25,0 c 1.5125,-0.22913 3.9875,-0.22913 5.5,0 1.5125,0.22912 0.275,0.41659 -2.75,0.41659 -3.025,0 -4.2625,-0.18747 -2.75,-0.41659 z"
         id="path220" /><path
         style="fill:#343434"
         d="M 163.16081,746.47209 C 73.34575,735.60887 -1.869991,671.05238 -26.369732,583.80102 -32.335685,562.55437 -33.930924,549.99753 -33.966941,524 c -0.0348,-25.12003 1.090673,-35.4262 6.014755,-55.07818 C -15.054684,417.44795 16.390178,371.32739 59.84622,340.14681 89.82678,318.63517 124.00515,305.36234 163.5,299.8939 c 10.92465,-1.51262 41.8786,-1.4978 53.5,0.0256 34.44638,4.51548 69.09079,17.26779 96.30119,35.44766 34.94968,23.35065 59.6614,51.50419 78.2362,89.13283 17.03307,34.50543 23.79276,65.95258 22.672,105.47377 -0.74867,26.40023 -3.93713,44.08918 -12.27591,68.10441 -16.81549,48.4277 -52.6357,91.84478 -98.13535,118.94821 -41.17234,24.52571 -92.48668,35.26957 -140.63732,29.4457 z M 216,734.88991 c 80.44743,-9.25798 150.3799,-66.56617 176.39567,-144.55256 23.07812,-69.18031 8.4046,-147.38416 -38.05872,-202.83735 -34.09102,-40.68706 -78.07551,-65.85322 -131.3799,-75.17029 -14.05389,-2.45648 -51.86021,-2.45648 -65.9141,0 C 117.68568,319.20896 82.72882,335.09625 54,359.16095 -14.076917,416.18558 -39.869408,506.89085 -11.92458,591 5.911673,644.68407 44.999924,689.41233 96,714.49693 c 37.58215,18.48494 77.55362,25.27775 120,20.39298 z"
         id="path218" /></g></g></svg>
