<?xml version="1.0" encoding="UTF-8" standalone="no"?>
<!-- Created with Inkscape (http://www.inkscape.org/) -->

<svg
   stroke="currentColor"
   fill="currentColor"
   width="999.98999"
   height="1000.0659"
   id="svg4152"
   version="1.1"
   inkscape:version="1.2.2 (b0a84865, 2022-12-01)"
   viewBox="0 0 999.98999 1000.0659"
   sodipodi:docname="cristal copy.svg"
   xmlns:inkscape="http://www.inkscape.org/namespaces/inkscape"
   xmlns:sodipodi="http://sodipodi.sourceforge.net/DTD/sodipodi-0.dtd"
   xmlns="http://www.w3.org/2000/svg"
   xmlns:svg="http://www.w3.org/2000/svg"
   xmlns:rdf="http://www.w3.org/1999/02/22-rdf-syntax-ns#"
   xmlns:cc="http://creativecommons.org/ns#"
   xmlns:dc="http://purl.org/dc/elements/1.1/">
  <defs
     id="defs5498">
    <marker
       inkscape:isstock="true"
       style="overflow:visible"
       id="marker4233"
       refX="0"
       refY="0"
       orient="auto"
       inkscape:stockid="TriangleOutL">
      <path
         transform="scale(0.8)"
         style="fill-opacity:1;fill-rule:evenodd;stroke-width:1pt;stroke-opacity:1"
         d="M 5.77,0 -2.88,5 V -5 Z"
         id="path4235" />
    </marker>
    <marker
       inkscape:isstock="true"
       style="overflow:visible"
       id="marker4755"
       refX="0"
       refY="0"
       orient="auto"
       inkscape:stockid="TriangleOutL">
      <path
         transform="scale(0.8)"
         style="fill-opacity:1;fill-rule:evenodd;stroke-width:1pt;stroke-opacity:1"
         d="M 5.77,0 -2.88,5 V -5 Z"
         id="path4757" />
    </marker>
    <marker
       inkscape:stockid="Arrow1Lend"
       orient="auto"
       refY="0"
       refX="0"
       id="Arrow1Lend"
       style="overflow:visible"
       inkscape:isstock="true">
      <path
         id="path4164"
         d="M 0,0 5,-5 -12.5,0 5,5 Z"
         style="fill-opacity:1;fill-rule:evenodd;stroke-width:1pt;stroke-opacity:1"
         transform="matrix(-0.8,0,0,-0.8,-10,0)" />
    </marker>
    <marker
       inkscape:stockid="Arrow2Lend"
       orient="auto"
       refY="0"
       refX="0"
       id="Arrow2Lend"
       style="overflow:visible"
       inkscape:isstock="true">
      <path
         id="path4182"
         style="fill-opacity:1;fill-rule:evenodd;stroke-width:0.625;stroke-linejoin:round;stroke-opacity:1"
         d="M 8.7185878,4.0337352 -2.2072895,0.01601326 8.7185884,-4.0017078 c -1.7454984,2.3720609 -1.7354408,5.6174519 -6e-7,8.035443 z"
         transform="matrix(-1.1,0,0,-1.1,-1.1,0)" />
    </marker>
    <pattern
       y="0"
       x="0"
       height="6"
       width="6"
       patternUnits="userSpaceOnUse"
       id="EMFhbasepattern" />
  </defs>
  <sodipodi:namedview
     inkscape:window-height="1041"
     inkscape:window-width="1710"
     inkscape:pageshadow="2"
     inkscape:pageopacity="0.0"
     borderopacity="1.0"
     bordercolor="#666666"
     pagecolor="#ffffff"
     id="base"
     showgrid="true"
     showguides="true"
     inkscape:guide-bbox="true"
     inkscape:zoom="0.5"
     inkscape:cx="354"
     inkscape:cy="463"
     inkscape:window-x="0"
     inkscape:window-y="43"
     inkscape:current-layer="g214"
     inkscape:window-maximized="0"
     objecttolerance="20"
     inkscape:showpageshadow="2"
     inkscape:pagecheckerboard="0"
     inkscape:deskcolor="#d1d1d1">
    <sodipodi:guide
       orientation="horizontal"
       position="-4.3751212,199.64978"
       id="guide5596"
       inkscape:locked="false" />
    <inkscape:grid
       type="xygrid"
       id="grid3430"
       empspacing="50"
       originx="-4.3751213"
       originy="0.41613885" />
    <sodipodi:guide
       position="545.62487,999.64977"
       orientation="0,1"
       id="guide4169"
       inkscape:locked="false" />
  </sodipodi:namedview>
  <metadata
     id="metadata5594">
    <rdf:RDF>
      <cc:Work
         rdf:about="">
        <dc:format>image/svg+xml</dc:format>
        <dc:type
           rdf:resource="http://purl.org/dc/dcmitype/StillImage" />
      </cc:Work>
    </rdf:RDF>
  </metadata>
  <g
     id="g214"
     transform="translate(375.62488,-237.58386)">
    <g
       id="g2882"
       transform="matrix(1.0522952,0,0,1.059973,7.021108,-29.093527)">
      <path
         style="fill:#b75189;stroke-width:2.16216"
         d="m 10.694704,1146.4205 c 0,-1.958 0.731051,-2.9822 1.624569,-2.276 0.893499,0.7061 1.129542,2.3081 0.524494,3.5599 -1.546119,3.199 -2.149063,2.8388 -2.149063,-1.2839 z M -196.8021,1065.1807 c 1.38025,-0.7063 3.02939,-0.6195 3.66475,0.1929 0.63536,0.8124 -0.49394,1.3903 -2.50956,1.2841 -2.22742,-0.1173 -2.6805,-0.6966 -1.15519,-1.4771 z m 613.76673,0 c 1.38025,-0.7063 3.0294,-0.6195 3.66476,0.1929 0.63535,0.8124 -0.49396,1.3903 -2.50956,1.2841 -2.22744,-0.1173 -2.6805,-0.6966 -1.1552,-1.4771 z M 198.39388,986.07604 c -31.86191,-3.01626 -52.58126,-11.1699 -52.58126,-20.69218 0,-1.60027 -1.80893,-5.00296 -4.01985,-7.56149 -2.21092,-2.55856 -5.27954,-7.76684 -6.81916,-11.57401 -7.41724,-18.34127 -43.0547,-18.51807 -48.489078,-0.24058 -1.068318,3.59305 -4.074303,8.67723 -6.68,11.29814 -2.605679,2.62097 -4.73761,6.75254 -4.73761,9.18127 0,9.65863 -19.50545,14.36169 -67.7825052,16.34337 -39.6831548,1.62893 -56.8921228,-0.80058 -88.3954498,-12.47939 -76.423557,-28.33146 -153.950737,-112.79269 -232.690997,-253.50293 -8.015,-14.32293 -14.57273,-27.64782 -14.57273,-29.61083 0,-5.40484 56.8744,-36.57054 98.94837,-54.22118 11.66896,-4.89528 11.61824,-4.62462 6.29145,-33.57623 -8.07451,-43.88577 -20.13881,-154.97018 -17.70964,-163.06495 1.25503,-4.18214 17.81161,-2.66093 65.43349,6.01201 47.84155,8.71294 82.154226,18.83229 120.458891,35.5252 18.403442,8.02009 35.232237,15.17168 37.397304,15.89239 3.388643,1.12802 4.715029,-1.16247 9.5301914,-16.45748 7.56527721,-24.03052 28.7617786,-73.3412 45.6057746,-106.09534 25.658833,-49.89516 67.861129,-118.5819 72.858699,-118.5819 7.31878,0 64.60631,98.29871 91.69155,157.33196 11.17629,24.35914 29.06329,70.94761 33.70115,87.77806 1.38961,5.04279 3.45371,9.16871 4.5869,9.16871 1.13317,0 10.64006,-4.80734 21.1264,-10.68299 38.17482,-21.38989 84.03834,-38.07068 135.03972,-49.11463 34.5374,-7.47881 82.86883,-14.54937 86.67772,-12.68036 3.91096,1.91908 3.73755,13.92648 -0.89088,61.68956 -4.26594,44.02252 -7.45497,67.61717 -14.76797,109.26372 -3.05109,17.37558 -4.35572,29.60626 -3.29002,30.84367 0.97128,1.12777 12.09101,6.73973 24.71052,12.47103 36.68583,16.66129 74.49005,38.0619 75.19464,42.56699 1.49859,9.58183 -55.59262,103.98763 -92.15571,152.38836 -61.18677,80.99653 -121.5671,126.94198 -185.48825,141.14433 -17.90397,3.97802 -53.8981,4.48322 -88.18166,1.2377 z m 81.01656,-3.76445 c 66.78696,-12.66824 128.53256,-58.52472 191.7873,-142.43428 39.13547,-51.9145 94.84331,-145.28809 89.34893,-149.76044 -5.279,-4.29702 -45.19346,-25.24196 -70.56579,-37.02905 -14.19694,-6.59542 -26.91057,-13.36141 -28.25252,-15.03555 -1.97555,-2.46457 -1.52977,-7.901 2.34229,-28.56518 10.15543,-54.19692 22.62038,-166.55252 18.96576,-170.9518 -2.17423,-2.61722 -57.5222,5.52351 -91.52589,13.46187 -52.57297,12.27347 -89.9661,26.13106 -129.65773,48.05008 -12.85573,7.09936 -23.26099,11.53491 -24.15682,10.29753 -0.86555,-1.19548 -5.54658,-14.27631 -10.40232,-29.06849 -10.6109,-32.32435 -27.04744,-70.72135 -46.5744,-108.80137 -15.32537,-29.88642 -48.18615,-86.22476 -61.88153,-106.09316 l -8.24445,-11.96054 -8.09432,11.43244 C 89.615679,284.04998 55.531969,342.39758 40.056405,372.74851 22.121147,407.92339 6.8121989,443.23274 -3.3397323,472.83956 c -4.3576864,12.70866 -8.6272467,24.03487 -9.4879157,25.16934 -0.860669,1.13447 -11.987495,-3.00822 -24.726272,-9.20601 -27.400688,-13.33123 -70.99759,-28.16717 -108.22046,-36.82721 -34.48222,-8.02241 -89.36856,-16.0384 -91.57734,-13.37459 -3.52073,4.24602 7.36032,106.17439 17.16055,160.75155 5.38958,30.0144 5.02832,32.87413 -4.53353,35.88851 -8.67504,2.73479 -70.10141,32.59186 -85.4297,41.5242 -7.91795,4.61406 -14.39627,9.8768 -14.39627,11.69497 0,1.81816 6.12886,14.25853 13.6197,27.64523 99.35471,177.55455 194.80447,262.25756 297.087758,263.63846 20.3171126,0.2743 67.043021,-3.91983 68.806692,-6.17611 0.365048,-0.467 -12.81608,-0.95418 -29.291377,-1.08264 -30.4710705,-0.23766 -52.281625,-4.39739 -75.844187,-14.46533 -34.675411,-14.81631 -83.920856,-54.46113 -75.710116,-60.95008 0.95595,-0.75547 2.30572,-6.65115 2.9995,-13.10149 2.08333,-19.36966 3.04677,-19.90269 15.69195,-8.68147 21.604631,19.17174 41.543217,32.2835 83.787308,55.09915 28.3737479,15.3244 86.033729,29.4798 89.645144,22.00768 0.788451,-1.63135 -1.133404,-3.15399 -4.983977,-3.94871 -42.184226,-8.70631 -65.8290252,-16.88584 -89.069006,-30.812 -43.906425,-26.31015 -83.593209,-74.9636 -107.964969,-132.3581 -10.27635,-24.20036 -13.96734,-38.71745 -9.844,-38.71745 1.49266,0 2.71394,-2.20049 2.71394,-4.88998 0,-2.7043 1.2747,-4.88997 2.85187,-4.88997 1.56853,0 3.92654,-2.20049 5.24004,-4.88998 1.3135,-2.68949 3.1031,-4.88997 3.97689,-4.88997 2.59371,0 6.08785,-5.58316 8.79841,-14.05868 1.40008,-4.37783 3.93973,-7.94807 5.65539,-7.95037 2.90121,-0.004 69.079695,-83.16814 69.079695,-86.81012 0,-0.91108 1.680879,-4.389 3.735296,-7.72876 l 3.735316,-6.07225 -0.01721,31.35898 c -0.02581,44.67256 4.30153,72.59132 20.135717,129.9097 10.2810327,37.21646 19.90483764,62.1936 35.037935,90.93585 20.515105,38.96428 55.263518,87.22995 59.187706,82.21195 0.562753,-0.71961 -5.584914,-10.43464 -13.661492,-21.58899 C 8.6930392,845.17435 -16.176693,778.23183 -19.80698,700.10269 c -1.91956,-41.31154 4.442887,-92.03892 16.1633079,-128.86888 l 5.096826,-16.01618 66.9216061,0.31254 c 36.80688,0.17188 84.74033,0.83135 106.51876,1.4654 26.39057,0.76834 40.00853,0.30167 40.83059,-1.39921 3.34432,-6.91949 13.85994,28.12325 20.02029,66.7165 11.0573,69.27159 4.33979,132.88161 -20.7723,196.6987 -12.00726,30.51392 -28.14103,59.47287 -51.0943,91.71047 -9.91614,13.92709 -18.0374,26.18587 -18.04726,27.24174 -0.0744,7.96633 37.5912,-41.42895 54.01929,-70.84181 21.52394,-38.53651 40.1578,-91.88685 53.63854,-153.57184 5.66239,-25.90992 5.88155,-28.73044 5.98431,-77.01711 0.0587,-27.56724 -0.50681,-55.07335 -1.2566,-61.1247 -0.98126,-7.91936 -0.85281,-9.42019 0.45841,-5.35599 2.62794,8.14553 24.65725,38.96594 28.85467,40.36954 1.95409,0.65345 4.33201,3.7701 5.28424,6.92589 0.95224,3.1558 8.27618,13.61912 16.27541,23.25183 7.99924,9.63272 14.54408,18.70974 14.54408,20.17115 0,1.46142 0.65678,2.65714 1.45954,2.65714 0.80275,0 5.31996,4.98937 10.03824,11.08751 19.61514,25.35149 23.99199,30.42587 26.26512,30.45093 1.31454,0.0147 2.39006,2.22684 2.39006,4.91633 0,2.71665 1.2747,4.88998 2.86807,4.88998 1.57744,0 2.86807,1.17882 2.86807,2.61963 0,3.3076 4.8405,9.60531 7.38275,9.60531 1.05589,0 2.46595,2.20048 3.1335,4.88997 0.66755,2.68949 2.87658,4.88998 4.90897,4.88998 2.42053,0 3.69524,1.68682 3.69524,4.88997 0,2.68949 1.23057,4.88998 2.73459,4.88998 3.74673,0 1.31621,10.27863 -7.72547,32.67095 -25.42884,62.97606 -68.05979,114.97782 -116.02604,141.52995 -22.67912,12.55423 -53.91897,22.59174 -81.65995,26.23773 -28.19086,3.70511 -31.04912,4.46303 -29.43386,7.80503 3.10579,6.42599 57.36706,-1.96797 89.36107,-13.82369 22.83553,-8.46195 71.83165,-36.68369 95.3218,-54.90528 7.04086,-5.46169 13.70912,-9.93034 14.81835,-9.93034 1.10922,0 2.01677,2.78513 2.01677,6.18919 0,3.40409 1.29063,6.82252 2.86807,7.59656 1.74507,0.8563 2.86807,4.55645 2.86807,9.44995 0,9.37657 -6.05835,17.1743 -24.43247,31.44706 -47.01906,36.52379 -99.13736,52.50685 -150.00843,46.00294 -12.69732,-1.62338 -23.41812,-2.52692 -23.82403,-2.0079 -1.12878,1.4434 27.07491,6.43831 37.25317,6.59758 4.95226,0.0775 12.4458,1.05122 16.6523,2.16381 12.69573,3.35797 38.46332,2.81267 59.98405,-1.26941 z m 46.13449,-24.26071 c 0,-1.36328 20.66941,-13.51807 22.70446,-13.35152 1.58746,0.12983 -8.3875,6.98829 -16.35622,11.24587 -3.49153,1.86548 -6.34824,2.81303 -6.34824,2.10565 z m -425.90822,-9.69332 c -5.52103,-3.28688 -10.03824,-6.59162 -10.03824,-7.34392 0,-1.54873 9.89794,3.47846 18.298528,9.29389 8.77434,6.07418 2.881415,4.68306 -8.260288,-1.94997 z M -137.7339,814.40587 c -7.65958,-13.28213 -10.90855,-19.92523 -10.90855,-22.3045 0,-2.17834 7.01832,9.43829 14.21409,23.52699 4.78515,9.36888 2.26478,8.43677 -3.30554,-1.22249 z m 517.89839,1.22249 c 7.35566,-14.40173 14.2141,-25.6833 14.2141,-23.381 0,2.84276 -15.01213,30.10472 -16.57754,30.10472 -0.58887,0 0.47467,-3.02567 2.36344,-6.72372 z M 244.63572,605.59861 c -3.46951,-27.58098 -3.16482,-36.92272 0.49292,-15.11335 2.56247,15.27868 4.84572,41.15777 3.63126,41.15777 -0.46638,0 -2.32227,-11.72 -4.12418,-26.04442 z m -271.600921,9.75665 c 1.158585,-16.94646 5.954264,-44.48934 6.103996,-35.05697 0.05335,3.36186 -1.529923,16.01467 -3.518451,28.11736 -3.335985,20.30362 -3.535889,20.84014 -2.585545,6.93961 z"
         id="path2888" />
      <path
         style="fill:#a43271;stroke-width:2.16216"
         d="m 219.42639,983.581 c -4.2065,-1.11259 -11.70004,-2.08631 -16.6523,-2.16381 -10.17826,-0.15917 -38.38195,-5.15418 -37.25317,-6.59758 0.40591,-0.51902 11.12671,0.38452 23.82403,2.0079 50.87107,6.50391 102.98937,-9.47915 150.00843,-46.00294 18.37412,-14.27276 24.43247,-22.07049 24.43247,-31.44706 0,-4.8935 -1.123,-8.59365 -2.86807,-9.44995 -1.57744,-0.77404 -2.86807,-4.19247 -2.86807,-7.59656 0,-3.40406 -0.90755,-6.18919 -2.01677,-6.18919 -1.10923,0 -7.77749,4.46865 -14.81835,9.93034 -23.49015,18.22159 -72.48627,46.44333 -95.3218,54.90528 -31.99401,11.85572 -86.25528,20.24968 -89.36107,13.82369 -1.61526,-3.342 1.243,-4.09992 29.43386,-7.80503 27.74098,-3.64599 58.98083,-13.6835 81.65995,-26.23773 47.96625,-26.55213 90.5972,-78.55389 116.02604,-141.52995 9.04168,-22.39232 11.4722,-32.67095 7.72547,-32.67095 -1.50402,0 -2.73459,-2.20049 -2.73459,-4.88998 0,-3.20315 -1.27471,-4.88997 -3.69524,-4.88997 -2.03239,0 -4.24142,-2.20049 -4.90897,-4.88998 -0.66755,-2.68949 -2.07761,-4.88997 -3.1335,-4.88997 -2.54225,0 -7.38275,-6.29771 -7.38275,-9.60531 0,-1.44081 -1.29063,-2.61963 -2.86807,-2.61963 -1.59337,0 -2.86807,-2.17333 -2.86807,-4.88998 0,-2.68949 -1.07552,-4.90183 -2.39006,-4.91633 -2.27313,-0.0249 -6.64998,-5.09944 -26.26512,-30.45093 -4.71828,-6.09814 -9.23549,-11.08751 -10.03824,-11.08751 -0.80276,0 -1.45954,-1.19572 -1.45954,-2.65714 0,-1.46141 -6.54484,-10.53843 -14.54408,-20.17115 -7.99923,-9.63271 -15.32317,-20.09603 -16.27541,-23.25183 -0.95223,-3.15579 -3.33015,-6.27244 -5.28424,-6.92589 -4.19742,-1.4036 -26.22673,-32.22401 -28.85467,-40.36954 -1.31122,-4.0642 -1.43967,-2.56337 -0.45841,5.35599 0.74979,6.05135 1.31528,33.55746 1.2566,61.1247 -0.10268,48.28667 -0.32192,51.10719 -5.98431,77.01711 -13.48074,61.68499 -32.1146,115.03533 -53.63854,153.57184 -16.42809,29.41286 -54.09365,78.80814 -54.01929,70.84181 0.01,-1.05587 8.13112,-13.31465 18.04726,-27.24174 65.32275,-91.74509 88.44614,-184.54196 71.8666,-288.40917 -6.16035,-38.59325 -16.67597,-73.63599 -20.02029,-66.7165 -0.82206,1.70088 -14.44002,2.16755 -40.83059,1.39921 -21.77843,-0.63405 -69.71188,-1.29349 -106.518759,-1.4654 l -66.9216061,-0.31254 -5.096826,16.01618 c -11.7204209,36.82996 -18.0828679,87.55734 -16.1633079,128.86888 3.630287,78.12914 28.5000192,145.07166 80.655316,217.10218 8.076577,11.15435 14.224244,20.86938 13.661491,21.58899 -3.924187,5.018 -38.6726,-43.24767 -59.187706,-82.21195 C 0.18902486,827.83966 -9.4347801,802.86252 -19.715813,765.64606 -35.55,708.32768 -39.877342,680.40892 -39.85153,635.73636 l 0.01721,-31.35898 -3.735316,6.07225 c -2.053499,3.33976 -3.734378,6.81768 -3.734378,7.72876 0,3.64198 -66.178486,86.80623 -69.079696,86.81012 -1.71566,0.002 -4.25531,3.57254 -5.65539,7.95037 -2.71056,8.47552 -6.2047,14.05868 -8.79841,14.05868 -0.87379,0 -2.66339,2.20048 -3.97689,4.88997 -1.3135,2.68949 -3.67151,4.88998 -5.24004,4.88998 -1.57717,0 -2.85187,2.18567 -2.85187,4.88997 0,2.68949 -1.22128,4.88998 -2.71394,4.88998 -6.82346,0 10.03094,44.5801 29.42792,77.83726 13.84902,23.74489 40.939195,56.9822 58.733822,72.06139 31.967649,27.08937 62.1815683,40.32083 118.716234,51.9889 3.850573,0.79472 5.772428,2.31736 4.983977,3.94871 -3.611415,7.47212 -61.2713961,-6.68328 -89.645144,-22.00768 -42.244091,-22.81565 -62.182677,-35.92741 -83.787309,-55.09915 -12.64518,-11.22122 -13.60862,-10.68819 -15.69195,8.68147 -0.69378,6.45034 -2.04355,12.34602 -2.9995,13.10149 -8.21074,6.48895 41.034706,46.13377 75.710117,60.95008 23.562562,10.06794 45.3731165,14.22775 75.844187,14.46533 16.475297,0.12836 29.656425,0.61564 29.291377,1.08264 -1.763671,2.25628 -48.4895794,6.45041 -68.806692,6.17611 -48.186444,-0.65056 -95.149239,-20.04073 -140.176409,-57.8766 -35.89151,-30.15927 -66.47881,-64.78719 -98.7016,-111.74027 -30.18768,-43.98765 -71.82945,-114.52169 -71.82945,-121.66682 0,-1.81817 6.47832,-7.08091 14.39627,-11.69497 15.32829,-8.93234 76.75466,-38.78941 85.4297,-41.5242 9.56185,-3.01438 9.92311,-5.87411 4.53353,-35.88851 -9.80023,-54.57716 -20.68128,-156.50553 -17.16055,-160.75155 2.20878,-2.66381 57.09512,5.35218 91.57734,13.37459 37.22287,8.66004 80.819773,23.49598 108.220461,36.82721 12.738777,6.19779 23.865603,10.34048 24.726272,9.20601 0.860669,-1.13447 5.1302293,-12.46068 9.4879157,-25.16934 C 6.8121989,443.23274 22.121147,407.92339 40.056405,372.74851 55.531969,342.39758 89.615679,284.04998 102.49895,265.85365 l 8.09432,-11.43244 8.24445,11.96054 c 13.69538,19.8684 46.55616,76.20674 61.88153,106.09316 19.52696,38.08002 35.9635,76.47702 46.5744,108.80137 4.85574,14.79218 9.53677,27.87301 10.40232,29.06849 0.89583,1.23738 11.30109,-3.19817 24.15682,-10.29753 39.69163,-21.91902 77.08476,-35.77661 129.65773,-48.05008 34.00369,-7.93836 89.35166,-16.07909 91.52589,-13.46187 3.65462,4.39928 -8.81033,116.75488 -18.96576,170.9518 -3.87206,20.66418 -4.31784,26.10061 -2.34229,28.56518 1.34195,1.67414 14.05558,8.44013 28.25252,15.03555 25.37233,11.78709 65.28679,32.73203 70.56579,37.02905 5.49438,4.47235 -50.21346,97.84594 -89.34893,149.76044 -50.7594,67.33408 -98.34248,108.4243 -150.43292,129.90597 -33.8643,13.96535 -77.99002,19.97327 -101.33843,13.79772 z m 124.41707,-34.90565 c 3.08113,-2.13295 5.06379,-3.92215 4.40593,-3.97599 -2.03505,-0.16655 -22.70446,11.98824 -22.70446,13.35152 0,1.47932 10.07553,-3.68303 18.29853,-9.37553 z m -435.946462,1.63218 c -8.400588,-5.81543 -18.298528,-10.84262 -18.298528,-9.29389 0,1.6901 19.352352,13.34805 21.988528,13.24599 1.051625,-0.0406 -0.608872,-1.81914 -3.69,-3.9521 z M -134.42836,815.62836 c -7.19577,-14.0887 -14.21409,-25.70533 -14.21409,-23.52699 0,3.63699 14.57746,30.25071 16.5696,30.25071 0.59325,0 -0.46673,-3.02567 -2.35551,-6.72372 z m 521.05352,-7.12173 c 4.26438,-7.61502 7.75343,-14.93167 7.75343,-16.25927 0,-2.3023 -6.85844,8.97927 -14.2141,23.381 -6.28663,12.30868 -1.40992,6.93296 6.46067,-7.12173 z M 248.45583,617.54883 c -1.37981,-16.88101 -5.1838,-40.44027 -6.29935,-39.01382 -0.99885,1.27726 5.44576,53.10802 6.60342,53.10802 0.46637,0 0.32955,-6.34239 -0.30407,-14.0942 z M -20.861205,580.29829 c -0.149713,-9.43237 -4.945411,18.11051 -6.103996,35.05697 -0.950344,13.90053 -0.75044,13.36401 2.585545,-6.93961 1.988528,-12.10269 3.571836,-24.7555 3.518451,-28.11736 z"
         id="path2886" />
      <path
         style="fill:#32ae41;stroke-width:2.16216"
         d="m -20.535373,1190.1688 c -21.867935,-6.04 -38.708126,-13.4125 -58.317399,-25.531 -19.722486,-12.1885 -27.464898,-18.2839 -25.809618,-20.3195 0.52417,-0.6446 9.557227,0.9761 20.07348,3.6014 15.867247,3.9611 25.529962,4.6465 56.791682,4.0282 26.531511,-0.5247 38.363844,-1.6321 40.01348,-3.7451 2.861645,-3.6654 3.837075,-3.1264 -55.696176,-30.7756 -24.713193,-11.4777 -55.675755,-24.8482 -68.805696,-29.7123 -89.70155,-33.2309 -159.27547,-32.396 -227.19084,2.7263 -11.88987,6.1489 -22.13794,10.5148 -22.77349,9.7021 -3.90168,-4.9892 31.08903,-37.8955 57.77576,-54.3341 11.56788,-7.1256 29.63671,-15.9989 40.15297,-19.7185 18.53671,-6.5564 20.57983,-6.7626 66.9216,-6.7537 44.91455,0.01 49.30218,0.417 72.65775,6.7647 32.624031,8.8668 75.570837,24.5952 120.4588872,44.1158 19.9808798,8.6891 54.2000768,23.5608 76.0426768,33.0482 l 39.713786,17.2499 39.63612,-17.3032 c 124.81967,-54.4901 171.77826,-72.0731 218.16229,-81.6877 15.82184,-3.2796 27.987,-3.8628 60.22945,-2.8877 51.43264,1.5556 62.43539,4.7226 101.58853,29.2409 20.6864,12.9543 54.4933,44.001 54.4933,50.0443 0,4.4696 -1.21455,4.0694 -23.23061,-7.6542 -76.99868,-41.0018 -163.67619,-34.9639 -278.87264,19.426 -13.14531,6.2065 -30.91621,14.503 -39.49088,18.4366 -44.536,20.4305 -43.69204,22.7906 8.51182,23.8026 31.30629,0.6069 40.74029,-0.068 55.83566,-3.9966 9.99044,-2.5999 18.59329,-4.2138 19.11746,-3.5866 2.8883,3.4559 -29.99327,25.0367 -53.14633,34.8808 -28.93423,12.3022 -42.72362,14.7594 -82.82509,14.7594 -29.23923,0 -41.11698,-1.0504 -58.36975,-5.1618 l -21.66048,-5.1619 -21.538774,5.1843 c -17.703632,4.2612 -28.347915,5.1457 -59.779713,4.9675 -25.0402292,-0.1421 -42.531147,-1.4018 -50.669216,-3.6495 z"
         id="path2884" />
    </g>
  </g>
</svg>
