<svg id="Layer_1" data-name="Layer 1" xmlns="http://www.w3.org/2000/svg" viewBox="0 0 120 120"><defs><style>.cls-1{fill:#ea580c;fill-rule:evenodd;}</style></defs><path class="cls-1" d="M24.1,10.06V78.23A13.36,13.36,0,0,0,28,87.7h0a13.39,13.39,0,0,0,22.85-9.47V55.42h-.06A31.61,31.61,0,0,1,60.1,33l0,0a31.64,31.64,0,0,1,44.79,0l0,0a31.61,31.61,0,0,1,9.31,22.4v18.7H95.9V55.42A13.36,13.36,0,0,0,92,46h0a13.44,13.44,0,0,0-18.93,0l0,0a13.26,13.26,0,0,0-3.82,8.19V78.23a31.7,31.7,0,0,1-54.12,22.42l0,0a31.61,31.61,0,0,1-9.31-22.4V10.06Z"/></svg>