<?xml version="1.0" encoding="UTF-8" standalone="no"?>
<!-- Created with Inkscape (http://www.inkscape.org/) -->

<svg
   stroke="currentColor"
   fill="currentColor"
   width="999.97321"
   height="1000.0139"
   id="svg4152"
   version="1.1"
   inkscape:version="1.2.2 (b0a84865, 2022-12-01)"
   viewBox="0 0 999.97319 1000.0139"
   sodipodi:docname="npass.svg"
   xml:space="preserve"
   xmlns:inkscape="http://www.inkscape.org/namespaces/inkscape"
   xmlns:sodipodi="http://sodipodi.sourceforge.net/DTD/sodipodi-0.dtd"
   xmlns="http://www.w3.org/2000/svg"
   xmlns:svg="http://www.w3.org/2000/svg"
   xmlns:rdf="http://www.w3.org/1999/02/22-rdf-syntax-ns#"
   xmlns:cc="http://creativecommons.org/ns#"
   xmlns:dc="http://purl.org/dc/elements/1.1/"><defs
     id="defs5498"><marker
       inkscape:isstock="true"
       style="overflow:visible"
       id="marker4233"
       refX="0"
       refY="0"
       orient="auto"
       inkscape:stockid="TriangleOutL"><path
         transform="scale(0.8)"
         style="fill-opacity:1;fill-rule:evenodd;stroke-width:1pt;stroke-opacity:1"
         d="M 5.77,0 -2.88,5 V -5 Z"
         id="path4235" /></marker><marker
       inkscape:isstock="true"
       style="overflow:visible"
       id="marker4755"
       refX="0"
       refY="0"
       orient="auto"
       inkscape:stockid="TriangleOutL"><path
         transform="scale(0.8)"
         style="fill-opacity:1;fill-rule:evenodd;stroke-width:1pt;stroke-opacity:1"
         d="M 5.77,0 -2.88,5 V -5 Z"
         id="path4757" /></marker><marker
       inkscape:stockid="Arrow1Lend"
       orient="auto"
       refY="0"
       refX="0"
       id="Arrow1Lend"
       style="overflow:visible"
       inkscape:isstock="true"><path
         id="path4164"
         d="M 0,0 5,-5 -12.5,0 5,5 Z"
         style="fill-opacity:1;fill-rule:evenodd;stroke-width:1pt;stroke-opacity:1"
         transform="matrix(-0.8,0,0,-0.8,-10,0)" /></marker><marker
       inkscape:stockid="Arrow2Lend"
       orient="auto"
       refY="0"
       refX="0"
       id="Arrow2Lend"
       style="overflow:visible"
       inkscape:isstock="true"><path
         id="path4182"
         style="fill-opacity:1;fill-rule:evenodd;stroke-width:0.625;stroke-linejoin:round;stroke-opacity:1"
         d="M 8.7185878,4.0337352 -2.2072895,0.01601326 8.7185884,-4.0017078 c -1.7454984,2.3720609 -1.7354408,5.6174519 -6e-7,8.035443 z"
         transform="matrix(-1.1,0,0,-1.1,-1.1,0)" /></marker><pattern
       y="0"
       x="0"
       height="6"
       width="6"
       patternUnits="userSpaceOnUse"
       id="EMFhbasepattern" /></defs><sodipodi:namedview
     inkscape:window-height="1027"
     inkscape:window-width="1710"
     inkscape:pageshadow="2"
     inkscape:pageopacity="0.0"
     borderopacity="1.0"
     bordercolor="#666666"
     pagecolor="#ffffff"
     id="base"
     showgrid="true"
     showguides="true"
     inkscape:guide-bbox="true"
     inkscape:zoom="0.5"
     inkscape:cx="360"
     inkscape:cy="461"
     inkscape:window-x="0"
     inkscape:window-y="25"
     inkscape:current-layer="g214"
     inkscape:window-maximized="0"
     objecttolerance="20"
     inkscape:showpageshadow="2"
     inkscape:pagecheckerboard="0"
     inkscape:deskcolor="#d1d1d1"><sodipodi:guide
       orientation="horizontal"
       position="0.73082123,204.46107"
       id="guide5596"
       inkscape:locked="false" /><inkscape:grid
       type="xygrid"
       id="grid3430"
       empspacing="50"
       originx="0.73082115"
       originy="-4.4471567" /><sodipodi:guide
       position="550.73081,1004.461"
       orientation="0,1"
       id="guide4169"
       inkscape:locked="false" /></sodipodi:namedview><metadata
     id="metadata5594"><rdf:RDF><cc:Work
         rdf:about=""><dc:format>image/svg+xml</dc:format><dc:type
           rdf:resource="http://purl.org/dc/dcmitype/StillImage" /></cc:Work></rdf:RDF></metadata><g
     id="g214"
     transform="translate(380.73083,-242.44715)"><g
       id="g300"
       transform="matrix(8.5849349,0,0,7.1348019,1533.5747,-2970.9128)"><path
         style="fill:#fefefe;stroke-width:0.64"
         d="m -207.76655,586.19858 c -0.70858,-0.78116 -1.79156,-2.21228 -2.40663,-3.18028 -0.78525,-1.23582 -1.65291,-1.76 -2.91327,-1.76 -1.60109,0 -1.912,-0.36291 -2.87853,-3.36 -0.59596,-1.848 -1.55511,-3.73437 -2.13143,-4.19195 -0.9355,-0.74273 -1.03541,-3.00753 -0.93167,-21.12 0.0639,-11.15842 0.45052,-28.06405 0.85912,-37.56805 0.45172,-10.50687 0.5637,-23.44551 0.2857,-33.00982 -0.25147,-8.65141 -0.25866,-16.35541 -0.016,-17.12 0.24268,-0.7646 0.96423,-1.39018 1.60345,-1.39018 1.19044,0 1.92689,-1.65779 1.94278,-4.37333 0.005,-0.88118 0.32616,-1.38753 0.78307,-1.23523 0.43306,0.14436 1.10771,2.59134 1.53074,5.55208 0.7493,5.24417 1.59751,7.26854 2.46047,5.87224 0.2365,-0.38267 0.989,-0.69576 1.67223,-0.69576 0.89037,0 1.24223,-0.4425 1.24223,-1.56223 0,-1.90124 1.0196,-2.65061 2.23453,-1.64231 0.59719,0.49562 1.26207,0.54216 1.98286,0.13878 0.59643,-0.33377 1.61601,-0.46785 2.26573,-0.29794 1.27149,0.3325 1.51624,-0.10707 2.13602,-3.8363 0.24773,-1.49065 0.75161,-2.4 1.32986,-2.4 0.73374,0 0.93308,1.05094 0.9408,4.96 0.005,2.728 0.26432,5.36197 0.57541,5.85326 0.68038,1.07453 2.61479,0.47921 2.61479,-0.8047 0,-1.46918 1.96547,-1.8044 3.77018,-0.64303 2.22039,1.42888 9.78303,9.27747 13.17625,13.67447 3.68265,4.77203 6.77391,9.91737 13.45771,22.4 3.10988,5.808 7.07306,12.864 8.80707,15.68 3.9519,6.41782 13.45744,20.11366 13.97819,20.14018 0.51344,0.0261 1.25796,-27.37546 1.59811,-58.81712 0.15017,-13.88031 0.41241,-25.37631 0.58276,-25.54666 0.70625,-0.70625 1.20602,0.79193 1.46679,4.39707 0.15223,2.10459 0.53017,3.82653 0.83986,3.82653 0.3097,0 0.56308,-0.288 0.56308,-0.64 0,-0.352 0.41165,-0.64 0.91478,-0.64 0.78142,0 0.8621,2.96234 0.55344,20.32 -0.19874,11.176 -0.18639,20.16 0.0274,19.96444 0.21383,-0.19556 0.81858,-5.25013 1.34388,-11.23239 0.5253,-5.98225 1.8293,-17.44216 2.89777,-25.46645 1.06847,-8.0243 1.94268,-14.84972 1.94268,-15.16761 0,-0.3179 0.45542,-0.57799 1.01204,-0.57799 0.86618,0 0.98539,0.89939 0.82705,6.24 l -0.185,6.24 1.73264,0.20248 c 1.37747,0.16097 1.86471,-0.14488 2.3769,-1.49202 0.65803,-1.73077 2.13953,-1.89257 2.35698,-0.25743 0.0663,0.49884 0.30307,2.56297 0.52606,4.58697 0.22299,2.024 0.65834,3.68 0.96744,3.68 0.30911,0 0.64839,-1.6532 0.75395,-3.67378 0.15141,-2.89796 0.42846,-3.71879 1.31194,-3.88693 1.0524,-0.20028 1.1207,1.44094 1.13151,27.19378 0.006,15.07381 0.29512,33.31093 0.64176,40.52693 0.34665,7.216 1.05716,21.86648 1.57891,32.55663 0.52176,10.69013 0.78332,19.70413 0.58126,20.03107 -0.61229,0.99071 -2.17344,-0.7813 -2.17344,-2.467 0,-1.37348 -0.24818,-1.53826 -2.05076,-1.36164 -1.86921,0.18315 -2.13833,-0.0267 -3.04,-2.37045 -0.54408,-1.41426 -1.50136,-3.28626 -2.12728,-4.16 -1.40994,-1.96816 -2.05963,-1.17533 -2.64347,3.22584 -0.55603,4.19154 -1.64247,4.97904 -4.52378,3.27903 l -2.24663,-1.32554 -0.98048,1.89603 c -1.29701,2.50816 -4.22878,2.67157 -5.31115,0.29603 -0.40096,-0.88 -1.24492,-1.6 -1.87549,-1.6 -0.73724,0 -2.15313,-1.65629 -3.96655,-4.64 -5.02619,-8.26984 -13.40363,-20.30652 -25.27848,-36.32 -6.39515,-8.624 -14.49143,-19.712 -17.99174,-24.64 -5.19103,-7.30833 -6.38977,-8.66506 -6.50294,-7.36 -0.0763,0.88 -0.57856,13.12 -1.11611,27.2 -0.53754,14.08 -1.14289,27.472 -1.34522,29.76 -0.43898,4.96426 -1.47287,9.26038 -2.08198,8.65129 -0.24087,-0.24085 -0.48897,-8.98193 -0.55135,-19.4246 -0.0624,-10.44268 -0.3885,-20.42669 -0.72472,-22.18669 -0.33623,-1.76 -0.64519,-2.72899 -0.68659,-2.1533 -0.0414,0.57568 -0.96905,8.06368 -2.06145,16.64 -1.8128,14.23226 -1.95557,16.67225 -1.63574,27.95472 0.26714,9.42361 0.16879,12.30222 -0.41383,12.11233 -0.42034,-0.137 -1.02853,-1.59564 -1.35152,-3.24142 -0.87445,-4.45563 -1.65274,-3.62216 -1.65274,1.7699 0,2.61922 -0.24614,4.91435 -0.54697,5.10027 -0.30083,0.18593 -1.12672,-0.30107 -1.8353,-1.08222 z m -1.21773,-10.78028 c 0.22,-1.1 0.4,-5.672 0.4,-10.16 0,-8.50129 -0.4092,-12.16 -1.36,-12.16 -0.308,0 -0.56,5.472 -0.56,12.16 0,11.27979 0.55461,14.98694 1.52,10.16 z m 92.6068,-40.24 c -0.71492,-33.85646 -1.20741,-43.60188 -2.02144,-40 -0.62097,2.74768 -0.60709,64.27442 0.0159,70.4 0.28638,2.816 0.90913,5.984 1.38387,7.04 l 0.86316,1.92 0.22725,-3.2 c 0.12499,-1.76 -0.0859,-18.032 -0.46874,-36.16 z m -22.05776,36.32 c -0.62245,-3.1504 -8.71387,-14.12851 -9.69228,-13.15009 -0.43193,0.43193 8.83792,15.22241 9.54324,15.22669 0.308,0.002 0.37507,-0.9326 0.14904,-2.0766 z m 10.20119,-3.42391 c -0.22452,-1.19685 -0.68318,-2.17609 -1.01923,-2.17609 -0.86836,0 -0.75768,3.65855 0.161,5.32207 0.70684,1.27993 0.79288,1.298 1.01924,0.21402 0.13598,-0.65116 0.0635,-2.16316 -0.16101,-3.36 z m 4.3983,-8.10737 c 0.52642,-9.89635 -0.29023,-29.75288 -0.99318,-24.14872 -0.72736,5.79875 -1.42814,30.34538 -0.92371,32.35518 0.81444,3.24498 1.45322,0.51028 1.91689,-8.20646 z m -89.98923,1.77128 c 0.0224,-2.33122 -0.1186,-2.85249 -0.5193,-1.92 -0.30252,0.704 -0.5362,3.008 -0.5193,5.12 0.0245,3.05469 0.13066,3.44734 0.5193,1.92 0.26871,-1.056 0.50239,-3.36 0.5193,-5.12 z m 75.0007,-8.3343 c 0,-1.54906 -4.92559,-7.75344 -5.61113,-7.0679 -0.407,0.407 4.45784,8.6822 5.10411,8.6822 0.27886,0 0.50702,-0.72643 0.50702,-1.6143 z m 9.99394,-29.15892 c 0.0801,-30.78446 -0.60158,-29.59849 -1.50197,2.61322 -0.56704,20.28548 -0.40587,26.42458 0.68417,26.0614 0.54877,-0.18283 0.76325,-7.70335 0.8178,-28.67462 z m -23.44834,13.97322 c -0.0151,-0.83898 -2.42255,-4.44316 -13.29703,-19.90687 -3.62529,-5.15522 -6.87542,-9.37313 -7.22252,-9.37313 -0.93995,0 0.1059,1.74838 8.18386,13.68117 10.91301,16.12074 12.37844,17.97382 12.33569,15.59883 z m -60.84889,-11.80223 c 0.0348,-1.82722 -0.22471,-3.50022 -0.57671,-3.71777 -0.41419,-0.25598 -0.60821,2.15816 -0.54989,6.84223 0.0771,6.19591 0.16016,6.73107 0.57671,3.71777 0.26762,-1.936 0.51507,-5.015 0.54989,-6.84223 z m 13.1126,-7.89337 c 1.79367,-22.65759 1.78801,-22.45874 0.73892,-25.95944 -0.53651,-1.79027 -1.59717,-3.80627 -2.35702,-4.48 l -1.38154,-1.22496 0.41517,4.09388 c 0.22834,2.25164 0.43342,12.90764 0.45573,23.68 0.0225,10.87941 0.27412,19.01018 0.56596,18.29052 0.28896,-0.71257 0.99221,-7.19257 1.56278,-14.4 z m 42.56402,0.8156 c -4.25714,-7.04112 -7.61333,-11.42267 -7.61333,-9.93929 0,1.04252 7.64332,12.33929 8.34867,12.33929 0.3969,0 0.0693,-1.06908 -0.73534,-2.4 z m -37.11884,-8 c -0.0568,-4.02031 -0.14101,-4.34084 -0.63081,-2.4 -0.51337,2.03427 -0.2058,7.04 0.43257,7.04 0.14506,0 0.23427,-2.088 0.19824,-4.64 z m 70.37726,-24.45757 c 0.36655,-11.25166 0.53155,-20.59246 0.36668,-20.75733 -1.19282,-1.19283 -1.58893,3.21219 -1.95308,21.71984 -0.28238,14.35178 -0.20335,20.57718 0.2556,20.13506 0.40289,-0.38812 0.92665,-8.69144 1.3308,-21.09757 z m -66.10001,11.91763 c -1.00392,-1.94137 -2.29384,-3.191 -2.28935,-2.21783 0.004,0.88866 2.60871,4.84001 2.95929,4.48942 0.18299,-0.18298 -0.11849,-1.2052 -0.66994,-2.27159 z m 17.79458,-7.94006 c -3.2449,-5.53235 -10.98553,-15.55412 -11.56566,-14.974 -0.43588,0.43589 10.63137,15.774 11.38176,15.774 0.35922,0 0.44197,-0.36 0.1839,-0.8 z m -28.01723,-9.28 c 1.20811,-1.59149 1.08661,-2.98451 -0.37575,-4.30792 -1.15761,-1.04763 -1.30141,-1.05575 -1.67032,-0.0944 -0.44177,1.15124 0.20366,5.5223 0.81542,5.5223 0.20925,0 0.76304,-0.504 1.23065,-1.12 z m -8.03247,-6.77938 c -0.81599,-0.81599 -0.92354,2.14825 -0.19662,5.41938 0.44635,2.00859 0.49378,1.91807 0.67662,-1.29138 0.10813,-1.89827 -0.10787,-3.75587 -0.48,-4.128 z m 91.28689,-2.80844 c -0.16226,-0.6227 -0.3057,-0.26818 -0.31874,0.78782 -0.0131,1.056 0.11972,1.56548 0.29503,1.13218 0.17531,-0.4333 0.18598,-1.2973 0.0238,-1.92 z"
         id="path322" /><path
         style="fill:#dff2ec;stroke-width:0.64"
         d="m -118.80997,559.4983 c 0,-1.584 0.12481,-2.232 0.27736,-1.44 0.15255,0.792 0.15255,2.088 0,2.88 -0.15255,0.792 -0.27736,0.144 -0.27736,-1.44 z m -5.05491,-8.64 c 0.001,-3.872 0.10686,-5.37348 0.23425,-3.33663 0.12739,2.03685 0.12621,5.20485 -0.003,7.04 -0.12884,1.83515 -0.23307,0.16863 -0.23162,-3.70337 z m 7.61491,0.96 c 0,-1.584 0.12481,-2.232 0.27736,-1.44 0.15255,0.792 0.15255,2.088 0,2.88 -0.15255,0.792 -0.27736,0.144 -0.27736,-1.44 z m -9.67326,-1.92 c 0,-0.88 0.14527,-1.24 0.32281,-0.8 0.17754,0.44 0.17754,1.16 0,1.6 -0.17754,0.44 -0.32281,0.08 -0.32281,-0.8 z m -93.41628,-5.44 c 0.013,-1.056 0.15648,-1.41052 0.31874,-0.78782 0.16227,0.6227 0.1516,1.4867 -0.0237,1.92 -0.17531,0.4333 -0.30808,-0.0762 -0.29503,-1.13218 z m 22.32576,0.58667 c 0.0307,-0.74557 0.18236,-0.89722 0.38666,-0.38667 0.18488,0.462 0.16214,1.014 -0.0505,1.22667 -0.21266,0.21266 -0.36393,-0.16534 -0.33614,-0.84 z m 83.2,-24.96 c 0.0307,-0.74557 0.18236,-0.89722 0.38666,-0.38667 0.18488,0.462 0.16214,1.014 -0.0505,1.22667 -0.21267,0.21266 -0.36393,-0.16534 -0.33614,-0.84 z m -78.66948,-0.90667 c 0,-0.88 0.14527,-1.24 0.32281,-0.8 0.17754,0.44 0.17754,1.16 0,1.6 -0.17754,0.44 -0.32281,0.08 -0.32281,-0.8 z m 75.56743,-1.92 c 0,-1.232 0.13171,-1.736 0.29269,-1.12 0.16097,0.616 0.16097,1.624 0,2.24 -0.16098,0.616 -0.29269,0.112 -0.29269,-1.12 z m -78.42043,-3.68 c -0.19357,-0.968 -0.11505,-2.768 0.17449,-4 0.46739,-1.98873 0.53379,-1.79131 0.59195,1.76 0.0702,4.28651 -0.19955,5.07489 -0.76644,2.24 z m 56.56248,-0.53333 c 0.0307,-0.74557 0.18236,-0.89722 0.38666,-0.38667 0.18488,0.462 0.16214,1.014 -0.0505,1.22667 -0.21267,0.21266 -0.36393,-0.16534 -0.33614,-0.84 z m 19.89052,-14.34667 c 0,-0.88 0.14527,-1.24 0.32281,-0.8 0.17754,0.44 0.17754,1.16 0,1.6 -0.17754,0.44 -0.32281,0.08 -0.32281,-0.8 z m -79.95257,-1.28 c 0,-1.232 0.13171,-1.736 0.29269,-1.12 0.16098,0.616 0.16098,1.624 0,2.24 -0.16098,0.616 -0.29269,0.112 -0.29269,-1.12 z m 74.21629,-5.44 c 0.0131,-1.056 0.15648,-1.41052 0.31874,-0.78782 0.16227,0.6227 0.1516,1.4867 -0.0237,1.92 -0.17528,0.4333 -0.30805,-0.0762 -0.295,-1.13218 z m -1.24337,-7.68 c 0.007,-1.408 0.13816,-1.90864 0.29125,-1.11254 0.15308,0.79611 0.14727,1.94811 -0.0129,2.56 -0.16017,0.6119 -0.28543,-0.0395 -0.27832,-1.44746 z m -7.10035,-9.28 c 0,-0.88 0.14527,-1.24 0.32281,-0.8 0.17754,0.44 0.17754,1.16 0,1.6 -0.17754,0.44 -0.32281,0.08 -0.32281,-0.8 z m -5.05965,-9.28 c 0.007,-1.408 0.13816,-1.90864 0.29125,-1.11254 0.15308,0.79611 0.14727,1.94811 -0.0129,2.56 -0.16019,0.6119 -0.28544,-0.0395 -0.27834,-1.44746 z"
         id="path320" /><path
         style="fill:#c0e6d9;stroke-width:0.64"
         d="m -116.2758,556.9383 c 0,-1.232 0.13171,-1.736 0.29269,-1.12 0.16097,0.616 0.16097,1.624 0,2.24 -0.16098,0.616 -0.29269,0.112 -0.29269,-1.12 z m -2.52543,-3.52 c 0.005,-1.76 0.1291,-2.40404 0.2762,-1.4312 0.14711,0.97284 0.14318,2.41284 -0.009,3.2 -0.15191,0.78716 -0.27227,-0.009 -0.26747,-1.7688 z m -78.13828,0.64 c 0.013,-1.056 0.15648,-1.41052 0.31874,-0.78782 0.16227,0.6227 0.1516,1.4867 -0.0237,1.92 -0.17531,0.4333 -0.30808,-0.0762 -0.29503,-1.13218 z m 71.06371,-0.32 c 0,-1.232 0.13171,-1.736 0.29269,-1.12 0.16097,0.616 0.16097,1.624 0,2.24 -0.16098,0.616 -0.29269,0.112 -0.29269,-1.12 z m -93.48743,-12.8 c 0,-0.88 0.14527,-1.24 0.32281,-0.8 0.17754,0.44 0.17754,1.16 0,1.6 -0.17754,0.44 -0.32281,0.08 -0.32281,-0.8 z m 26.82948,-18.93333 c 0.0307,-0.74557 0.18236,-0.89722 0.38666,-0.38667 0.18488,0.462 0.16214,1.014 -0.0505,1.22667 -0.21266,0.21266 -0.36393,-0.16534 -0.33614,-0.84 z m 75.52,-1.28 c 0.0307,-0.74557 0.18236,-0.89722 0.38666,-0.38667 0.18488,0.462 0.16214,1.014 -0.0505,1.22667 -0.21267,0.21266 -0.36393,-0.16534 -0.33614,-0.84 z m -101.76,-1.28 c 0.0307,-0.74557 0.18236,-0.89722 0.38666,-0.38667 0.18488,0.462 0.16214,1.014 -0.0505,1.22667 -0.21267,0.21266 -0.36393,-0.16534 -0.33614,-0.84 z m 104.96,-1.92 c 0.0307,-0.74557 0.18236,-0.89722 0.38666,-0.38667 0.18488,0.462 0.16214,1.014 -0.0505,1.22667 -0.21267,0.21266 -0.36393,-0.16534 -0.33614,-0.84 z m -12.02748,-13.38667 c 0.005,-1.76 0.1291,-2.40404 0.2762,-1.4312 0.14711,0.97284 0.14318,2.41284 -0.009,3.2 -0.15195,0.78716 -0.2723,-0.009 -0.2675,-1.7688 z m 6.98172,-1.92 c 0.0131,-1.056 0.15648,-1.41052 0.31874,-0.78782 0.16227,0.6227 0.1516,1.4867 -0.0237,1.92 -0.17528,0.4333 -0.30805,-0.0762 -0.295,-1.13218 z m -7.01629,-13.12 c 0,-1.232 0.13171,-1.736 0.29269,-1.12 0.16097,0.616 0.16097,1.624 0,2.24 -0.16098,0.616 -0.29269,0.112 -0.29269,-1.12 z m 1.25629,-0.96 c 0.0131,-1.056 0.15648,-1.41052 0.31874,-0.78782 0.16227,0.6227 0.1516,1.4867 -0.0237,1.92 -0.17528,0.4333 -0.30805,-0.0762 -0.295,-1.13218 z m -8.39424,-10.29333 c 0.0307,-0.74557 0.18236,-0.89722 0.38666,-0.38667 0.18488,0.462 0.16214,1.014 -0.0505,1.22667 -0.21267,0.21266 -0.36393,-0.16534 -0.33614,-0.84 z m -5.12,-8.32 c 0.0307,-0.74557 0.18236,-0.89722 0.38666,-0.38667 0.18488,0.462 0.16214,1.014 -0.0505,1.22667 -0.21267,0.21266 -0.36393,-0.16534 -0.33614,-0.84 z m 24.43087,-5.06667 c 0.007,-1.408 0.13816,-1.90864 0.29125,-1.11254 0.15308,0.79611 0.14727,1.94811 -0.0129,2.56 -0.16019,0.6119 -0.28544,-0.0395 -0.27834,-1.44746 z m -81.95663,-3.2 c 0.013,-1.056 0.15648,-1.41052 0.31874,-0.78782 0.16227,0.6227 0.1516,1.4867 -0.0237,1.92 -0.17531,0.4333 -0.30808,-0.0762 -0.29503,-1.13218 z m 75.22456,-1.03942 c 0.43414,-0.43738 0.95055,-0.63403 1.1476,-0.43698 0.19705,0.19705 -0.15815,0.55491 -0.78933,0.79525 -0.91212,0.34732 -0.98564,0.27381 -0.35827,-0.35827 z"
         id="path318" /><path
         style="fill:#a1dac7;stroke-width:0.64"
         d="m -125.80911,560.7783 c 0,-2.64 0.11297,-3.72 0.25105,-2.4 0.13807,1.32 0.13807,3.48 0,4.8 -0.13808,1.32 -0.25105,0.24 -0.25105,-2.4 z m 9.53331,0.64 c 0,-1.232 0.13171,-1.736 0.29269,-1.12 0.16097,0.616 0.16097,1.624 0,2.24 -0.16098,0.616 -0.29269,0.112 -0.29269,-1.12 z m -77.53795,-7.41333 c 0.0307,-0.74557 0.18236,-0.89722 0.38666,-0.38667 0.18488,0.462 0.16214,1.014 -0.0505,1.22667 -0.21266,0.21266 -0.36393,-0.16534 -0.33614,-0.84 z m -3.12576,-3.78667 c 0.013,-1.056 0.15648,-1.41052 0.31874,-0.78782 0.16227,0.6227 0.1516,1.4867 -0.0237,1.92 -0.17531,0.4333 -0.30808,-0.0762 -0.29503,-1.13218 z m 78.15355,-3.84 c 0.004,-2.112 0.12307,-2.89884 0.26551,-1.74854 0.14244,1.15031 0.1395,2.87831 -0.007,3.84 -0.14604,0.9617 -0.26257,0.0206 -0.25898,-2.09146 z m -100.55355,-8.96 c 0.013,-1.056 0.15648,-1.41052 0.31874,-0.78782 0.16227,0.6227 0.1516,1.4867 -0.0237,1.92 -0.17531,0.4333 -0.30808,-0.0762 -0.29503,-1.13218 z m 5.68576,-12.21333 c 0.0307,-0.74557 0.18236,-0.89722 0.38666,-0.38667 0.18488,0.462 0.16214,1.014 -0.0505,1.22667 -0.21266,0.21266 -0.36393,-0.16534 -0.33614,-0.84 z m 96.71424,-1.22667 c 0.013,-1.056 0.15648,-1.41052 0.31874,-0.78782 0.16227,0.6227 0.1516,1.4867 -0.0237,1.92 -0.17532,0.4333 -0.30808,-0.0762 -0.29503,-1.13218 z m 3.17628,-9.28 c 0,-0.88 0.14527,-1.24 0.32281,-0.8 0.17754,0.44 0.17754,1.16 0,1.6 -0.17754,0.44 -0.32281,0.08 -0.32281,-0.8 z m -5.05965,-8 c 0.007,-1.408 0.13816,-1.90864 0.29125,-1.11254 0.15308,0.79611 0.14727,1.94811 -0.0129,2.56 -0.16019,0.6119 -0.28544,-0.0395 -0.27834,-1.44746 z m 1.16913,-3.25333 c 0.0307,-0.74557 0.18236,-0.89722 0.38666,-0.38667 0.18488,0.462 0.16214,1.014 -0.0505,1.22667 -0.21267,0.21266 -0.36393,-0.16534 -0.33614,-0.84 z m -8.15536,-7.30667 c 0,-2.64 0.11297,-3.72 0.25105,-2.4 0.13807,1.32 0.13807,3.48 0,4.8 -0.13808,1.32 -0.25105,0.24 -0.25105,-2.4 z m 1.16588,-11.52 c 0,-0.88 0.14527,-1.24 0.32281,-0.8 0.17754,0.44 0.17754,1.16 0,1.6 -0.17754,0.44 -0.32281,0.08 -0.32281,-0.8 z m -8.32,-3.84 c 0,-0.88 0.14527,-1.24 0.32281,-0.8 0.17754,0.44 0.17754,1.16 0,1.6 -0.17754,0.44 -0.32281,0.08 -0.32281,-0.8 z m -5.17052,-8.69333 c 0.0307,-0.74557 0.18236,-0.89722 0.38666,-0.38667 0.18488,0.462 0.16214,1.014 -0.0505,1.22667 -0.21267,0.21266 -0.36393,-0.16534 -0.33614,-0.84 z m 24.43087,-2.50667 c 0.007,-1.408 0.13816,-1.90864 0.29125,-1.11254 0.15308,0.79611 0.14727,1.94811 -0.0129,2.56 -0.16019,0.6119 -0.28544,-0.0395 -0.27834,-1.44746 z m -81.92,-3.84 c 0.007,-1.408 0.13816,-1.90864 0.29125,-1.11254 0.15308,0.79611 0.14727,1.94811 -0.0129,2.56 -0.16019,0.6119 -0.28544,-0.0395 -0.27833,-1.44746 z"
         id="path316" /><path
         style="fill:#92d4be;stroke-width:0.64"
         d="m -184.00509,472.2983 -1.21919,-1.44 1.44,1.21919 c 0.792,0.67056 1.44,1.31856 1.44,1.44 0,0.51216 -0.51507,0.13405 -1.66081,-1.21919 z"
         id="path314" /><path
         style="fill:#83cfb5;stroke-width:0.64"
         d="m -205.28323,585.0983 c 0,-0.88 0.14527,-1.24 0.32281,-0.8 0.17754,0.44 0.17754,1.16 0,1.6 -0.17754,0.44 -0.32281,0.08 -0.32281,-0.8 z m 89.00743,-19.2 c 0,-1.232 0.13171,-1.736 0.29269,-1.12 0.16097,0.616 0.16097,1.624 0,2.24 -0.16098,0.616 -0.29269,0.112 -0.29269,-1.12 z m -81.37795,-1.01333 c 0.0307,-0.74557 0.18236,-0.89722 0.38666,-0.38667 0.18488,0.462 0.16214,1.014 -0.0505,1.22667 -0.21266,0.21266 -0.36393,-0.16534 -0.33614,-0.84 z m -11.52,-3.84 c 0.0307,-0.74557 0.18236,-0.89722 0.38666,-0.38667 0.18488,0.462 0.16214,1.014 -0.0505,1.22667 -0.21266,0.21266 -0.36393,-0.16534 -0.33614,-0.84 z m 90.42322,-24.26667 c 0.002,-3.52 0.10914,-4.87835 0.23883,-3.01855 0.12969,1.8598 0.12833,4.7398 -0.003,6.4 -0.13119,1.6602 -0.2373,0.13855 -0.23563,-3.38145 z m -20.56527,0.96 c 0,-1.232 0.13171,-1.736 0.29269,-1.12 0.16097,0.616 0.16097,1.624 0,2.24 -0.16098,0.616 -0.29269,0.112 -0.29269,-1.12 z m -80.02371,-3.52 c 0.013,-1.056 0.15648,-1.41052 0.31874,-0.78782 0.16227,0.6227 0.1516,1.4867 -0.0237,1.92 -0.17531,0.4333 -0.30808,-0.0762 -0.29503,-1.13218 z m 17.15523,-5.44 c 0,-1.87733 0.1442,-3.26913 0.32044,-3.09289 0.49534,0.49533 0.58314,5.60264 0.10454,6.08124 -0.23374,0.23374 -0.42498,-1.11102 -0.42498,-2.98835 z m 85.26848,-0.64 c 0,-1.232 0.13171,-1.736 0.29269,-1.12 0.16097,0.616 0.16097,1.624 0,2.24 -0.16098,0.616 -0.29269,0.112 -0.29269,-1.12 z m -1.83473,-12.48 c 0.002,-3.52 0.10914,-4.87835 0.23883,-3.01855 0.12969,1.8598 0.12833,4.7398 -0.003,6.4 -0.13136,1.6602 -0.23747,0.13855 -0.23581,-3.38145 z m 4.93678,-3.89333 c 0.0307,-0.74557 0.18236,-0.89722 0.38666,-0.38667 0.18488,0.462 0.16214,1.014 -0.0505,1.22667 -0.21267,0.21266 -0.36393,-0.16534 -0.33614,-0.84 z m -3.84,-6.4 c 0.0307,-0.74557 0.18236,-0.89722 0.38666,-0.38667 0.18488,0.462 0.16214,1.014 -0.0505,1.22667 -0.21267,0.21266 -0.36393,-0.16534 -0.33614,-0.84 z m -15.28576,-21.06667 c 0.0131,-1.056 0.15648,-1.41052 0.31874,-0.78782 0.16227,0.6227 0.1516,1.4867 -0.0237,1.92 -0.17528,0.4333 -0.30805,-0.0762 -0.295,-1.13218 z m 19.23663,-9.6 c 0.007,-1.408 0.13816,-1.90864 0.29125,-1.11254 0.15308,0.79611 0.14727,1.94811 -0.0129,2.56 -0.16017,0.6119 -0.28543,-0.0395 -0.27832,-1.44746 z m -104.91655,-3.52 c 0,-2.288 0.11615,-3.224 0.25812,-2.08 0.14197,1.144 0.14197,3.016 0,4.16 -0.14197,1.144 -0.25812,0.208 -0.25812,-2.08 z m 94.03655,-16.96 c 0.007,-1.408 0.13816,-1.90864 0.29125,-1.11254 0.15308,0.79611 0.14727,1.94811 -0.0129,2.56 -0.16017,0.6119 -0.28543,-0.0395 -0.27832,-1.44746 z"
         id="path312" /><path
         style="fill:#73c9ac;stroke-width:0.64"
         d="m -143.38592,547.4983 c -0.79608,-1.01508 -0.77344,-1.03772 0.24164,-0.24164 0.616,0.48311 1.12,0.98711 1.12,1.12 0,0.52675 -0.52556,0.18772 -1.36164,-0.87836 z"
         id="path310" /><path
         style="fill:#64c3a3;stroke-width:0.64"
         d="m -205.22288,580.9383 c 0.007,-1.408 0.13816,-1.90864 0.29125,-1.11254 0.15308,0.7961 0.14727,1.9481 -0.0129,2.56 -0.16019,0.6119 -0.28544,-0.0395 -0.27833,-1.44746 z m -5.10709,-9.28 c 0,-1.584 0.12481,-2.232 0.27736,-1.44 0.15255,0.792 0.15255,2.088 0,2.88 -0.15255,0.792 -0.27736,0.144 -0.27736,-1.44 z m 94.05417,-1.92 c 0,-1.232 0.13171,-1.736 0.29269,-1.12 0.16097,0.616 0.16097,1.624 0,2.24 -0.16098,0.616 -0.29269,0.112 -0.29269,-1.12 z m -92.74363,-3.2 c 0,-2.288 0.11615,-3.224 0.25812,-2.08 0.14197,1.144 0.14197,3.016 0,4.16 -0.14197,1.144 -0.25812,0.208 -0.25812,-2.08 z m 15.84568,-25.33333 c 0.0307,-0.74557 0.18236,-0.89722 0.38666,-0.38667 0.18488,0.462 0.16214,1.014 -0.0505,1.22667 -0.21266,0.21266 -0.36393,-0.16534 -0.33614,-0.84 z m 53.91948,-10.18667 c 0.003,-2.464 0.11851,-3.39357 0.25706,-2.06573 0.13854,1.32785 0.13622,3.34385 -0.005,4.48 -0.14138,1.13616 -0.25474,0.0497 -0.2519,-2.41427 z m 22.35139,1.92 c 0.007,-1.408 0.13816,-1.90864 0.29125,-1.11254 0.15308,0.7961 0.14727,1.9481 -0.0129,2.56 -0.16019,0.6119 -0.28544,-0.0395 -0.27834,-1.44746 z m -102.51087,-1.97333 c 0.0307,-0.74557 0.18236,-0.89722 0.38666,-0.38667 0.18488,0.462 0.16214,1.014 -0.0505,1.22667 -0.21267,0.21266 -0.36393,-0.16534 -0.33614,-0.84 z m 89.01052,-0.90667 c 0,-0.88 0.14527,-1.24 0.32281,-0.8 0.17754,0.44 0.17754,1.16 0,1.6 -0.17754,0.44 -0.32281,0.08 -0.32281,-0.8 z m 11.62379,-3.84 c 0,-2.288 0.11616,-3.224 0.25814,-2.08 0.14196,1.144 0.14196,3.016 0,4.16 -0.14198,1.144 -0.25814,0.208 -0.25814,-2.08 z m -83.20652,-4.8 c 0.004,-2.112 0.12307,-2.89884 0.26551,-1.74854 0.14244,1.15031 0.1395,2.87831 -0.007,3.84 -0.14603,0.9617 -0.26257,0.0205 -0.25898,-2.09146 z m 88.27016,-13.12 c 0,-1.232 0.13171,-1.736 0.29269,-1.12 0.16097,0.616 0.16097,1.624 0,2.24 -0.16098,0.616 -0.29269,0.112 -0.29269,-1.12 z m -11.61795,-6.13333 c 0.0307,-0.74557 0.18236,-0.89722 0.38666,-0.38667 0.18488,0.462 0.16214,1.014 -0.0505,1.22667 -0.21267,0.21266 -0.36393,-0.16534 -0.33614,-0.84 z m -7.58205,-13.70667 c 0,-1.232 0.13171,-1.736 0.29269,-1.12 0.16097,0.616 0.16097,1.624 0,2.24 -0.16098,0.616 -0.29269,0.112 -0.29269,-1.12 z m 19.21292,-8.64 c 0.007,-1.408 0.13816,-1.90864 0.29125,-1.11254 0.15308,0.79611 0.14727,1.94811 -0.0129,2.56 -0.16017,0.6119 -0.28543,-0.0395 -0.27832,-1.44746 z m -105.02035,-2.88 c 0,-0.88 0.14527,-1.24 0.32281,-0.8 0.17754,0.44 0.17754,1.16 0,1.6 -0.17754,0.44 -0.32281,0.08 -0.32281,-0.8 z m 94.02948,-19.57333 c 0.0307,-0.74557 0.18236,-0.89722 0.38666,-0.38667 0.18488,0.462 0.16214,1.014 -0.0505,1.22667 -0.21267,0.21266 -0.36393,-0.16534 -0.33614,-0.84 z"
         id="path308" /><path
         style="fill:#45b791;stroke-width:0.64"
         d="m -210.27711,563.0183 c -0.002,-3.168 0.10627,-4.54469 0.2405,-3.05931 0.13422,1.48538 0.13582,4.07738 0.004,5.76 -0.13228,1.68262 -0.24209,0.46731 -0.24405,-2.70069 z m 93.3376,-25.6 c 0.013,-1.056 0.15648,-1.41052 0.31874,-0.78782 0.16227,0.6227 0.1516,1.4867 -0.0237,1.92 -0.17532,0.4333 -0.30808,-0.0762 -0.29503,-1.13218 z m -13.46372,-4.16 c 0,-0.88 0.14527,-1.24 0.32281,-0.8 0.17754,0.44 0.17754,1.16 0,1.6 -0.17754,0.44 -0.32281,0.08 -0.32281,-0.8 z m -89.01052,-4.85333 c 0.0307,-0.74557 0.18236,-0.89722 0.38666,-0.38667 0.18488,0.462 0.16214,1.014 -0.0505,1.22667 -0.21267,0.21266 -0.36393,-0.16534 -0.33614,-0.84 z m 80.13252,-5.06667 c 0.005,-1.76 0.1291,-2.40404 0.2762,-1.4312 0.14711,0.97284 0.14318,2.41284 -0.009,3.2 -0.15191,0.78716 -0.27227,-0.009 -0.26747,-1.7688 z m -62.66102,-13.12 c 0,-4.048 0.10391,-5.704 0.23092,-3.68 0.12701,2.024 0.12701,5.336 0,7.36 -0.12701,2.024 -0.23092,0.368 -0.23092,-3.68 z m 72.94159,-1.28 c 0,-2.992 0.11025,-4.216 0.24499,-2.72 0.13474,1.496 0.13474,3.944 0,5.44 -0.13474,1.496 -0.24499,0.272 -0.24499,-2.72 z m -89.77309,2.18667 c 0.0307,-0.74557 0.18236,-0.89722 0.38666,-0.38667 0.18488,0.462 0.16214,1.014 -0.0505,1.22667 -0.21267,0.21266 -0.36393,-0.16534 -0.33614,-0.84 z m 101.12,-1.28 c 0.0307,-0.74557 0.18236,-0.89722 0.38666,-0.38667 0.18488,0.462 0.16214,1.014 -0.0505,1.22667 -0.21267,0.21266 -0.36393,-0.16534 -0.33614,-0.84 z m 3.96378,-6.66667 c 0,-1.584 0.12481,-2.232 0.27736,-1.44 0.15255,0.792 0.15255,2.088 0,2.88 -0.15255,0.792 -0.27736,0.144 -0.27736,-1.44 z m -11.64378,-3.57333 c 0.0307,-0.74557 0.18236,-0.89722 0.38666,-0.38667 0.18488,0.462 0.16214,1.014 -0.0505,1.22667 -0.21267,0.21266 -0.36393,-0.16534 -0.33614,-0.84 z m -7.73053,-4.10667 c 0,-2.58133 0.19129,-4.50205 0.42508,-4.26825 0.45509,0.45509 0.32656,8.20995 -0.14388,8.68038 -0.15466,0.15466 -0.2812,-1.8308 -0.2812,-4.41213 z m 19.3614,-10.56 c 0.007,-1.408 0.13816,-1.90864 0.29125,-1.11254 0.15308,0.79611 0.14727,1.94811 -0.0129,2.56 -0.16017,0.6119 -0.28543,-0.0395 -0.27832,-1.44746 z m -105.07087,-5.81333 c 0.0307,-0.74557 0.18236,-0.89722 0.38666,-0.38667 0.18488,0.462 0.16214,1.014 -0.0505,1.22667 -0.21267,0.21266 -0.36393,-0.16534 -0.33614,-0.84 z m 80.64,-0.64 c 0.0307,-0.74557 0.18236,-0.89722 0.38666,-0.38667 0.18488,0.462 0.16214,1.014 -0.0505,1.22667 -0.21267,0.21266 -0.36393,-0.16534 -0.33614,-0.84 z m 12.8,-4.48 c 0.0307,-0.74557 0.18236,-0.89722 0.38666,-0.38667 0.18488,0.462 0.16214,1.014 -0.0505,1.22667 -0.21267,0.21266 -0.36393,-0.16534 -0.33614,-0.84 z m -10.24,-14.08 c 0.0307,-0.74557 0.18236,-0.89722 0.38666,-0.38667 0.18488,0.462 0.16214,1.014 -0.0505,1.22667 -0.21267,0.21266 -0.36393,-0.16534 -0.33614,-0.84 z"
         id="path306" /><path
         style="fill:#26ab7e;stroke-width:0.64"
         d="m -110.53951,580.9383 c 0.0131,-1.056 0.15648,-1.41052 0.31874,-0.78782 0.16227,0.6227 0.1516,1.4867 -0.0237,1.92 -0.17532,0.4333 -0.30808,-0.0762 -0.29503,-1.13218 z m -91.45299,-12.48 c 0,-1.936 0.11998,-2.728 0.26662,-1.76 0.14664,0.968 0.14664,2.552 0,3.52 -0.14664,0.968 -0.26662,0.176 -0.26662,-1.76 z m -17.89238,-4.8 c 0.002,-2.816 0.11484,-3.88839 0.25004,-2.38308 0.13519,1.5053 0.13329,3.8093 -0.004,5.12 -0.13752,1.31069 -0.24814,0.0791 -0.24581,-2.73692 z m 26.71113,-17.97333 c 0.0307,-0.74557 0.18236,-0.89722 0.38666,-0.38667 0.18488,0.462 0.16214,1.014 -0.0505,1.22667 -0.21266,0.21266 -0.36393,-0.16534 -0.33614,-0.84 z m 64.14125,-2.82667 c 0,-1.936 0.11998,-2.728 0.26662,-1.76 0.14664,0.968 0.14664,2.552 0,3.52 -0.14664,0.968 -0.26662,0.176 -0.26662,-1.76 z m 12.09299,-1.6 c 0.013,-1.056 0.15648,-1.41052 0.31874,-0.78782 0.16227,0.6227 0.1516,1.4867 -0.0237,1.92 -0.17532,0.4333 -0.30808,-0.0762 -0.29503,-1.13218 z m -80.71424,-0.69333 c 0.0307,-0.74557 0.18236,-0.89722 0.38666,-0.38667 0.18488,0.462 0.16214,1.014 -0.0505,1.22667 -0.21266,0.21266 -0.36393,-0.16534 -0.33614,-0.84 z m 67.25052,-4.10667 c 0,-0.88 0.14527,-1.24 0.32281,-0.8 0.17754,0.44 0.17754,1.16 0,1.6 -0.17754,0.44 -0.32281,0.08 -0.32281,-0.8 z m 1.05729,-12.64 c -0.1122,-3.784 -0.005,-7.456 0.23826,-8.16 0.24325,-0.704 0.46052,2.392 0.48283,6.88 0.0223,4.488 -0.0849,8.16 -0.23825,8.16 -0.15336,0 -0.37063,-3.096 -0.48284,-6.88 z m -90.06781,2.02667 c 0.0307,-0.74557 0.18236,-0.89722 0.38666,-0.38667 0.18488,0.462 0.16214,1.014 -0.0505,1.22667 -0.21267,0.21266 -0.36393,-0.16534 -0.33614,-0.84 z m 5.12,0 c 0.0307,-0.74557 0.18236,-0.89722 0.38666,-0.38667 0.18488,0.462 0.16214,1.014 -0.0505,1.22667 -0.21266,0.21266 -0.36393,-0.16534 -0.33614,-0.84 z m 74.93052,-7.30667 c 0,-0.88 0.14527,-1.24 0.32281,-0.8 0.17754,0.44 0.17754,1.16 0,1.6 -0.17754,0.44 -0.32281,0.08 -0.32281,-0.8 z m -52.36165,-9.28 c 0.002,-2.816 0.11484,-3.88839 0.25004,-2.38308 0.13519,1.5053 0.13329,3.8093 -0.004,5.12 -0.13752,1.31069 -0.24814,0.0791 -0.24581,-2.73692 z m -10.26108,-10.24 c 0.004,-2.112 0.12307,-2.89884 0.26551,-1.74854 0.14244,1.15031 0.1395,2.87831 -0.007,3.84 -0.14603,0.9617 -0.26258,0.0205 -0.25898,-2.09146 z m 88.35543,-5.12 c 0.002,-3.52 0.10914,-4.87835 0.23883,-3.01855 0.12969,1.8598 0.12833,4.7398 -0.003,6.4 -0.13119,1.6602 -0.2373,0.13855 -0.23563,-3.38145 z m -11.70322,3.78667 c 0.0307,-0.74557 0.18236,-0.89722 0.38666,-0.38667 0.18488,0.462 0.16214,1.014 -0.0505,1.22667 -0.21267,0.21266 -0.36393,-0.16534 -0.33614,-0.84 z m -92.65221,-5.06667 c 0.004,-2.112 0.12307,-2.89884 0.26551,-1.74854 0.14244,1.15031 0.1395,2.87831 -0.007,3.84 -0.14603,0.9617 -0.26258,0.0205 -0.25898,-2.09146 z m 79.85221,-11.57333 c 0.0307,-0.74557 0.18236,-0.89722 0.38666,-0.38667 0.18488,0.462 0.16214,1.014 -0.0505,1.22667 -0.21267,0.21266 -0.36393,-0.16534 -0.33614,-0.84 z m 12.75927,-3.9089 c -0.005,-0.77123 0.2782,-1.58022 0.6302,-1.79777 0.81484,-0.5036 0.81484,0.97913 0,2.24 -0.50438,0.78046 -0.62223,0.69776 -0.6302,-0.44223 z m 8.45868,-11.71777 c 0,-1.232 0.13171,-1.736 0.29269,-1.12 0.16097,0.616 0.16097,1.624 0,2.24 -0.16098,0.616 -0.29269,0.112 -0.29269,-1.12 z"
         id="path304" /><path
         style="fill:#079f6c;stroke-width:0.64"
         d="m -222.66428,520.4583 v -69.76 h 47.68 c 26.224,0 47.68,0.23694 47.68,0.52653 0,0.28959 -0.74449,6.12159 -1.65443,12.96 -0.90993,6.83841 -2.05344,15.74547 -2.54112,19.79347 l -0.8867,7.36 0.29812,-14.56 0.29811,-14.56 h -1.59699 c -1.3399,0 -1.59699,-0.30239 -1.59699,-1.87834 0,-2.74229 -1.08946,-5.16166 -2.32433,-5.16166 -0.99168,0 -1.04788,1.46725 -0.71701,18.72 0.19746,10.296 0.11093,21.312 -0.19229,24.48 -0.30322,3.168 -0.75297,13.45302 -0.99945,22.85559 -0.24647,9.40258 -0.67407,16.95596 -0.9502,16.7853 -1.50871,-0.93243 -15.99735,-23.86441 -20.79973,-32.92089 -9.8688,-18.61086 -13.68271,-24.16122 -22.57195,-32.84878 -6.14484,-6.00543 -8.04744,-6.77576 -9.35784,-3.78882 -1.17357,2.67505 -1.92617,1.04523 -2.11272,-4.57522 -0.17772,-5.35462 -0.24496,-5.58106 -1.6,-5.38835 -1.08824,0.15477 -1.57646,0.86542 -2.11677,3.08117 l -0.70229,2.88 h -3.77771 c -3.60986,0 -3.78643,0.0753 -3.97393,1.69483 -0.2147,1.85445 -2.60138,2.9938 -3.43774,1.64111 -0.26387,-0.42677 -0.66801,-2.68569 -0.8981,-5.01984 -0.23008,-2.33414 -0.64343,-4.60811 -0.91854,-5.05326 -0.92645,-1.49903 -2.46143,-0.13231 -2.66864,2.37611 -0.1516,1.83532 -0.51417,2.48901 -1.48076,2.66976 -0.704,0.13165 -1.50958,0.56605 -1.79017,0.96533 -0.2806,0.39928 -0.32707,8.78996 -0.10328,18.64596 0.22777,10.03107 0.10457,24.82281 -0.27985,33.6 -0.37771,8.624 -0.76324,25.13191 -0.85672,36.68425 -0.15477,19.12493 -0.0736,21.05823 0.90682,21.60763 0.59225,0.33186 1.53629,2.18394 2.09788,4.11575 0.96236,3.31039 1.13966,3.51353 3.0832,3.5326 1.74727,0.0172 2.32708,0.45686 3.7975,2.88 1.3226,2.17956 2.12179,2.85977 3.36,2.85977 1.54235,0 1.62845,-0.18634 1.70034,-3.68 0.057,-2.76894 0.17683,-3.20467 0.48412,-1.76 0.28081,1.32017 0.84273,1.98202 1.79866,2.11853 l 1.39027,0.19854 -0.34188,-12.99854 c -0.30532,-11.60874 -0.16359,-14.32684 1.32562,-25.4221 0.91712,-6.83296 1.71176,-13.45696 1.76588,-14.72 0.0541,-1.26303 0.34169,1.44757 0.63906,6.02357 0.29738,4.576 0.36662,14.03203 0.15387,21.01339 l -0.38681,12.69339 1.48405,-0.21339 c 1.10486,-0.15887 1.6124,-0.78572 1.98643,-2.45339 0.27631,-1.232 0.93805,-12.176 1.47053,-24.32 0.53248,-12.144 1.18107,-25.76191 1.44131,-30.26201 l 0.47317,-8.18201 6.0308,8.50201 c 3.31694,4.6761 11.3706,15.70201 17.89701,24.50201 11.15104,15.0357 21.15308,29.48968 25.21646,36.4404 0.98134,1.67867 2.33593,3.19639 3.01019,3.37271 0.67426,0.17632 1.67798,1.01051 2.23049,1.85374 1.43429,2.18901 5.08663,2.15829 6.24499,-0.0525 0.79014,-1.50805 0.92003,-1.53938 2.65359,-0.64 3.47605,1.8034 4.13237,1.28566 5.21853,-4.11675 0.78862,-3.92247 1.22826,-3.77657 3.68346,1.22242 1.19065,2.42427 1.68694,2.86176 3.13628,2.76475 1.42688,-0.0955 1.75576,0.17855 1.92,1.6 0.15473,1.33905 0.58773,1.76001 1.97421,1.91931 l 1.77602,0.20405 -0.36099,-5.96405 c -1.77765,-29.36951 -2.87104,-62.69856 -2.87104,-87.51618 v -28.2079 h -1.58781 c -1.1289,0 -1.67661,0.41618 -1.89508,1.44 -0.169,0.792 -0.42908,2.016 -0.57795,2.72 -0.14888,0.704 -0.30409,0.0796 -0.34492,-1.38766 -0.0408,-1.46721 -0.24905,-3.12321 -0.46271,-3.68 -0.59303,-1.54541 -2.51771,-1.20628 -3.33508,0.58766 -0.82446,1.80949 -3.74896,2.37022 -3.06492,0.58766 0.21366,-0.55679 0.38847,-3.29279 0.38847,-6.08 v -5.06766 h 8.64 8.64 v 69.76 69.76 h -57.92 -57.92 z m 13.05907,44.48 c 8.3e-4,-5.632 0.0987,-7.85032 0.21757,-4.92961 0.11886,2.92071 0.1182,7.52871 -0.001,10.24 -0.11967,2.71129 -0.21691,0.32161 -0.2161,-5.31039 z m 92.18695,5.28 c -0.27679,-0.792 -0.56294,-17.424 -0.63586,-36.96 -0.0848,-22.71358 0.0427,-31.94343 0.35372,-25.6 0.64622,13.18128 1.53024,64 1.11332,64 -0.18035,0 -0.55438,-0.648 -0.83118,-1.44 z m -24.81501,-3.2317 c -1.75429,-2.89376 -1.95593,-3.4484 -0.74466,-2.0483 1.79857,2.07895 3.74841,5.41857 3.37921,5.78778 -0.12585,0.12585 -1.3114,-1.55691 -2.63455,-3.73948 z m 17.03197,-8.7683 c -0.0132,-5.808 0.18292,-12.576 0.43582,-15.04 0.35735,-3.48179 0.4636,-2.19837 0.47685,5.76 0.009,5.632 -0.18674,12.4 -0.43582,15.04 -0.35775,3.79187 -0.4579,2.58212 -0.47685,-5.76 z m -16.05254,-7.08289 c -0.79676,-1.38441 -1.31955,-2.51711 -1.16175,-2.51711 0.44105,0 3.13027,4.51438 2.85387,4.79078 -0.1339,0.13389 -0.89535,-0.88926 -1.69212,-2.27367 z m 11.24178,-1.51861 c -0.24815,-1.38683 -0.24913,-9.01883 -0.002,-16.96 l 0.449,-14.4385 0.42894,8.48 c 0.49939,9.87272 -0.15338,26.95567 -0.87576,22.9185 z m -84.17082,-20.5185 c 0.007,-1.408 0.13816,-1.90864 0.29125,-1.11254 0.15308,0.7961 0.14727,1.9481 -0.0129,2.56 -0.16019,0.6119 -0.28544,-0.0395 -0.27833,-1.44746 z m 12.5614,-21.12 c -0.17883,-10.208 -0.25586,-18.65876 -0.17117,-18.77948 0.0847,-0.12071 0.67922,0.74329 1.32118,1.92 0.98802,1.81106 1.13809,3.36751 0.97763,10.13948 -0.10426,4.4 -0.55247,11.888 -0.99603,16.64 l -0.80645,8.64 z m 76.49153,-20.8 c 0,-5.104 0.0994,-7.192 0.22088,-4.64 0.12147,2.552 0.12147,6.728 0,9.28 -0.12149,2.552 -0.22088,0.464 -0.22088,-4.64 z m -77.05433,-8.13714 c 0,-1.60058 0.0814,-1.65572 1.03573,-0.70142 0.56965,0.56965 0.84065,1.35137 0.60223,1.73714 -0.78542,1.27084 -1.63796,0.73176 -1.63796,-1.03572 z m 77.63832,-8.18286 c 0.004,-2.112 0.12307,-2.89884 0.26551,-1.74854 0.14244,1.15031 0.1395,2.87831 -0.007,3.84 -0.14604,0.9617 -0.26257,0.0205 -0.25898,-2.09146 z"
         id="path302" /></g></g></svg>
