<?xml version="1.0" encoding="UTF-8" standalone="no"?>
<!-- Created with Inkscape (http://www.inkscape.org/) -->

<svg
   stroke="currentColor"
   fill="currentColor"
   width="1002.1508"
   height="1000.0835"
   id="svg4152"
   version="1.1"
   inkscape:version="1.2.2 (b0a84865, 2022-12-01)"
   viewBox="0 0 1002.1508 1000.0835"
   sodipodi:docname="pubchemColor.svg"
   xml:space="preserve"
   xmlns:inkscape="http://www.inkscape.org/namespaces/inkscape"
   xmlns:sodipodi="http://sodipodi.sourceforge.net/DTD/sodipodi-0.dtd"
   xmlns="http://www.w3.org/2000/svg"
   xmlns:svg="http://www.w3.org/2000/svg"
   xmlns:rdf="http://www.w3.org/1999/02/22-rdf-syntax-ns#"
   xmlns:cc="http://creativecommons.org/ns#"
   xmlns:dc="http://purl.org/dc/elements/1.1/"><defs
     id="defs5498"><marker
       inkscape:isstock="true"
       style="overflow:visible"
       id="marker4233"
       refX="0"
       refY="0"
       orient="auto"
       inkscape:stockid="TriangleOutL"><path
         transform="scale(0.8)"
         style="fill-opacity:1;fill-rule:evenodd;stroke-width:1pt;stroke-opacity:1"
         d="M 5.77,0 -2.88,5 V -5 Z"
         id="path4235" /></marker><marker
       inkscape:isstock="true"
       style="overflow:visible"
       id="marker4755"
       refX="0"
       refY="0"
       orient="auto"
       inkscape:stockid="TriangleOutL"><path
         transform="scale(0.8)"
         style="fill-opacity:1;fill-rule:evenodd;stroke-width:1pt;stroke-opacity:1"
         d="M 5.77,0 -2.88,5 V -5 Z"
         id="path4757" /></marker><marker
       inkscape:stockid="Arrow1Lend"
       orient="auto"
       refY="0"
       refX="0"
       id="Arrow1Lend"
       style="overflow:visible"
       inkscape:isstock="true"><path
         id="path4164"
         d="M 0,0 5,-5 -12.5,0 5,5 Z"
         style="fill-opacity:1;fill-rule:evenodd;stroke-width:1pt;stroke-opacity:1"
         transform="matrix(-0.8,0,0,-0.8,-10,0)" /></marker><marker
       inkscape:stockid="Arrow2Lend"
       orient="auto"
       refY="0"
       refX="0"
       id="Arrow2Lend"
       style="overflow:visible"
       inkscape:isstock="true"><path
         id="path4182"
         style="fill-opacity:1;fill-rule:evenodd;stroke-width:0.625;stroke-linejoin:round;stroke-opacity:1"
         d="M 8.7185878,4.0337352 -2.2072895,0.01601326 8.7185884,-4.0017078 c -1.7454984,2.3720609 -1.7354408,5.6174519 -6e-7,8.035443 z"
         transform="matrix(-1.1,0,0,-1.1,-1.1,0)" /></marker><pattern
       y="0"
       x="0"
       height="6"
       width="6"
       patternUnits="userSpaceOnUse"
       id="EMFhbasepattern" /></defs><sodipodi:namedview
     inkscape:window-height="1027"
     inkscape:window-width="1710"
     inkscape:pageshadow="2"
     inkscape:pageopacity="0.0"
     borderopacity="1.0"
     bordercolor="#666666"
     pagecolor="#ffffff"
     id="base"
     showgrid="true"
     showguides="false"
     inkscape:guide-bbox="true"
     inkscape:zoom="0.5"
     inkscape:cx="360"
     inkscape:cy="461"
     inkscape:window-x="0"
     inkscape:window-y="25"
     inkscape:current-layer="g214"
     inkscape:window-maximized="0"
     objecttolerance="20"
     inkscape:showpageshadow="2"
     inkscape:pagecheckerboard="0"
     inkscape:deskcolor="#d1d1d1"><sodipodi:guide
       orientation="horizontal"
       position="0.74427377,204.54182"
       id="guide5596"
       inkscape:locked="false" /><inkscape:grid
       type="xygrid"
       id="grid3430"
       empspacing="50"
       originx="0.7442737"
       originy="-4.4583262" /><sodipodi:guide
       position="550.74427,1004.5418"
       orientation="0,1"
       id="guide4169"
       inkscape:locked="false" /></sodipodi:namedview><metadata
     id="metadata5594"><rdf:RDF><cc:Work
         rdf:about=""><dc:format>image/svg+xml</dc:format><dc:type
           rdf:resource="http://purl.org/dc/dcmitype/StillImage" /></cc:Work></rdf:RDF></metadata><g
     id="g214"
     transform="translate(380.74428,-242.45832)"><g
       id="g459"
       transform="matrix(3.0779757,0,0,2.6460449,-607.76334,-874.06163)"><path
         style="fill:#0471bd"
         d="m 230.9155,798.04015 c -1.56211,-0.69065 -3.13711,-1.6666 -3.5,-2.16878 -0.36288,-0.50218 -2.45979,-1.90488 -4.65979,-3.11709 -2.2,-1.21222 -5.6875,-3.13387 -7.75,-4.27033 -2.0625,-1.13646 -3.75,-2.45466 -3.75,-2.92933 0,-0.47468 -0.80633,-1.07391 -1.79184,-1.33162 -2.32882,-0.609 -33.60493,-19.84 -34.04149,-20.93138 -0.18334,-0.45832 -0.7258,-0.83331 -1.20547,-0.83331 -0.47967,0 -5.95467,-3.16935 -12.16667,-7.043 -13.69163,-8.53777 -12.94752,-8.07641 -24.74185,-15.34035 -5.25398,-3.23584 -10.77196,-6.72334 -12.26219,-7.75 -1.49023,-1.02666 -3.10798,-1.86665 -3.59501,-1.86665 -0.48703,0 -1.6896,-0.88851 -2.67238,-1.97447 -0.98278,-1.08596 -2.74002,-2.26319 -3.90499,-2.61607 -1.16496,-0.35287 -3.55059,-1.71436 -5.30139,-3.02553 -1.7508,-1.31116 -3.56302,-2.38393 -4.02714,-2.38393 -0.46412,0 -2.32192,-1.35 -4.12844,-3 -1.806519,-1.65 -3.693846,-3 -4.194062,-3 -1.982318,0 -16.660664,-9.36878 -19.717081,-12.58486 l -3.25,-3.41978 v -90.75428 c 0,-55.54897 0.37573,-92.06438 0.96858,-94.13152 1.144165,-3.98948 4.550183,-6.64919 15.53142,-12.12828 2.2,-1.09769 5.8,-3.02589 8,-4.28489 2.200003,-1.25899 6.925003,-3.91136 10.500003,-5.89413 3.575,-1.98278 10.1,-5.67108 14.5,-8.19622 4.4,-2.52514 8.49364,-4.59451 9.09699,-4.5986 0.60334,-0.004 2.1347,-0.90744 3.40301,-2.00744 1.26831,-1.1 2.93098,-2 3.69482,-2 0.76385,0 2.23475,-0.7875 3.26867,-1.75 1.03393,-0.9625 6.52761,-4.15809 12.20819,-7.10132 5.68057,-2.94322 11.67832,-6.18049 13.32832,-7.19393 1.65,-1.01344 4.125,-2.47014 5.5,-3.23712 1.375,-0.76698 4.525,-2.52482 7,-3.90633 2.475,-1.3815 7.65,-4.21021 11.5,-6.28601 3.85,-2.0758 7.45,-4.1066 8,-4.51288 0.55,-0.40628 4.6,-2.67333 9,-5.03788 9.53377,-5.12344 14.68043,-7.94184 19.78042,-10.8321 2.07923,-1.17833 4.80201,-2.14243 6.05063,-2.14243 2.61004,0 7.64958,2.13786 7.66115,3.25 0.004,0.4125 0.66911,0.75 1.47738,0.75 0.80827,0 2.94577,0.8292 4.75,1.84267 4.81917,2.70701 46.19439,28.44325 46.78042,29.09838 0.64643,0.72265 4.07573,2.87523 6,3.76622 2.06901,0.95801 34.02843,20.74778 42.84793,26.53211 1.45864,0.95666 3.66457,2.26639 4.90207,2.91051 1.2375,0.64413 2.25,1.54891 2.25,2.01063 0,0.46171 0.58634,0.83948 1.30298,0.83948 1.24518,0 18.65748,10.50715 19.69702,11.88582 0.275,0.36472 2.6375,1.77634 5.25,3.13693 2.6125,1.3606 4.75,2.81209 4.75,3.22553 0,0.41345 0.5586,0.75172 1.24134,0.75172 2.03456,0 11.75866,7.12998 11.75866,8.62178 0,0.75802 0.46755,1.37822 1.039,1.37822 0.71328,0 0.9484,29.13411 0.75,92.93479 l -0.289,92.9348 -2.93709,3.0652 c -1.6154,1.68587 -3.73054,3.06521 -4.70031,3.06521 -0.96977,0 -2.12308,0.56605 -2.56291,1.25789 -0.43983,0.69184 -3.27469,2.5738 -6.29969,4.18213 -3.025,1.60833 -7.75,4.21374 -10.5,5.7898 -2.75,1.57607 -6.35,3.53155 -8,4.34551 -1.65,0.81397 -4.8,2.60028 -7,3.9696 -2.2,1.36931 -4.9,2.88482 -6,3.36779 -1.1,0.48298 -4.925,2.55136 -8.5,4.5964 -7.41442,4.24134 -22.57052,12.7361 -28.5,15.97382 -7.28034,3.97533 -13.95614,7.73787 -17.25,9.72224 -1.7875,1.07686 -3.25689,1.58374 -3.26531,1.12638 -0.008,-0.45736 -0.34592,-0.3338 -0.75,0.27458 -0.70147,1.05611 -9.17437,6.02559 -23.23469,13.62746 -15.84227,8.56531 -18.55559,10.08601 -19.45,10.90088 -0.5225,0.47604 -1.985,0.86552 -3.25,0.86552 -1.265,0 -2.3,0.41704 -2.3,0.92676 0,1.17618 -5.78806,4.09966 -7.90364,3.99202 -0.878,-0.0447 -2.87445,-0.64629 -4.43657,-1.33694 z m 20.84021,-31.80682 c 5.5,-3.01504 14.05,-7.64568 19,-10.2903 4.95,-2.64463 10.67856,-5.86058 12.73013,-7.14656 2.05157,-1.28599 4.37584,-2.33816 5.16505,-2.33816 0.7892,0 2.48565,-0.93045 3.76987,-2.06767 1.28422,-1.13722 5.48495,-3.76603 9.33495,-5.84181 8.55835,-4.61434 14.93492,-8.11134 28.17319,-15.45056 5.59525,-3.10198 10.60265,-5.63996 11.12755,-5.63996 0.5249,0 1.4404,-0.58562 2.03443,-1.30139 0.59403,-0.71576 4.36163,-3.00045 8.37244,-5.07709 4.01082,-2.07664 10.66739,-5.75122 14.79239,-8.16574 4.125,-2.41452 8.0625,-4.40483 8.75,-4.42291 0.98967,-0.026 1.25,-17.28327 1.25,-82.86389 v -82.83102 l -2.5,-1.33796 c -1.375,-0.73588 -2.5,-1.71192 -2.5,-2.16898 0,-0.45706 -0.51323,-0.83102 -1.1405,-0.83102 -0.93078,0 -9.9369,-5.42803 -34.8595,-21.00999 -0.825,-0.5158 -6.45,-3.94577 -12.5,-7.62215 -6.05,-3.67638 -12.125,-7.44704 -13.5,-8.37925 -1.375,-0.93221 -8.575,-5.46137 -16,-10.0648 -7.425,-4.60343 -13.95,-8.73665 -14.5,-9.18494 -0.55,-0.44828 -4.24827,-2.72939 -8.21838,-5.06914 -3.97011,-2.33974 -8.36104,-5.2476 -9.75761,-6.4619 -1.39657,-1.21431 -2.96169,-2.20783 -3.47804,-2.20783 -0.83678,0 -3.30254,-1.41234 -16.93096,-9.69774 -1.98826,-1.20876 -4.43875,-1.95444 -5.44555,-1.65705 -1.0068,0.29738 -6.12699,2.97386 -11.3782,5.94774 -5.25121,2.97388 -10.16497,5.40705 -10.91946,5.40705 -0.75449,0 -1.3718,0.3643 -1.3718,0.80956 0,0.8059 -25.19051,15.19044 -26.60181,15.19044 -0.40739,0 -1.45114,0.61377 -2.31945,1.36393 -0.86831,0.75017 -5.17874,3.28377 -9.57874,5.63024 -4.4,2.34647 -8.4275,4.6577 -8.95,5.13607 -0.5225,0.47837 -1.7049,0.86976 -2.62756,0.86976 -0.92265,0 -2.23775,0.675 -2.92244,1.5 -0.68469,0.825 -2.08979,1.5 -3.12244,1.5 -1.03266,0 -1.87756,0.4395 -1.87756,0.97666 0,0.53716 -1.6875,1.82775 -3.75,2.86797 -2.0625,1.04022 -13.55528,7.35072 -25.53952,14.02334 -11.98424,6.67262 -22.24055,12.13203 -22.79182,12.13203 -0.55126,0 -1.878315,0.81614 -2.949012,1.81365 -1.897616,1.7679 -1.947302,3.85529 -1.969679,82.75 -0.01263,44.51499 -0.01778,81.46523 -0.01146,82.11164 0.0063,0.64641 7.773991,6.00192 17.261491,11.90115 9.4875,5.89922 17.475,11.04719 17.75,11.43993 0.275,0.39274 1.5125,1.03004 2.75,1.41624 1.2375,0.38619 2.25,1.12184 2.25,1.63478 0,0.51293 0.4749,0.93261 1.05533,0.93261 0.58044,0 4.51794,2.1875 8.75,4.86111 7.40709,4.67943 34.55141,21.56831 38.01262,23.65102 3.69177,2.22144 7.7514,5.02822 9.00348,6.2249 0.72678,0.69464 1.74421,1.26297 2.26094,1.26297 1.28491,0 17.33552,10.07611 17.75096,11.14354 0.18334,0.47105 0.75478,0.85646 1.26988,0.85646 0.51509,0 2.84009,1.22268 5.16666,2.71706 2.32657,1.49439 5.80513,3.5729 7.73013,4.61893 1.925,1.04603 4.625,2.71398 6,3.70656 2.40599,1.73683 2.61281,1.73719 5.5,0.01 1.65,-0.98734 7.5,-4.26202 13,-7.27706 z"
         id="path463" /><path
         style="fill:#595f6a"
         d="m 243.25571,795.42693 c 0,-0.53274 0.675,-0.96862 1.5,-0.96862 0.825,0 1.5,0.17686 1.5,0.39301 0,0.21616 -0.675,0.65203 -1.5,0.96862 -0.825,0.31658 -1.5,0.13972 -1.5,-0.39301 z m -50,-45.96862 c -0.90129,-0.58246 -1.02463,-0.97549 -0.30902,-0.98469 0.65504,-0.008 1.4691,0.43469 1.80902,0.98469 0.7673,1.24153 0.42112,1.24153 -1.5,0 z m 95,-3.39301 c 0,-0.21616 0.675,-0.65203 1.5,-0.96862 0.825,-0.31658 1.5,-0.13972 1.5,0.39301 0,0.53274 -0.675,0.96862 -1.5,0.96862 -0.825,0 -1.5,-0.17686 -1.5,-0.39301 z m -69.78085,-28.18356 c -38.68562,-8.47366 -65.64578,-36.84645 -74.86235,-78.78492 -2.11057,-9.60381 -2.91005,-34.89225 -1.44997,-45.86411 5.3907,-40.50871 28.03202,-72.31858 60.38461,-84.83725 24.10605,-9.32771 52.32168,-9.32353 76.44648,0.0113 26.45891,10.23802 45.93738,34.83314 49.7366,62.80153 l 0.71316,5.25 h -21.52288 -21.52288 l -1.56177,-5.37228 c -1.96458,-6.75794 -8.20552,-16.18831 -13.56204,-20.49293 -7.62523,-6.12779 -21.57659,-11.16078 -30.81733,-11.11743 -2.03543,0.01 -6.84293,0.68295 -10.68334,1.49643 -20.15897,4.27013 -34.16187,19.057 -40.70716,42.98621 -3.03267,11.08726 -3.30606,42.22175 -0.46539,53 3.13907,11.91046 9.1644,23.19448 16.07549,30.10557 10.19603,10.19603 20.6771,14.37069 36.07962,14.37069 15.28784,0 24.01603,-3.38382 32.40552,-12.56326 7.71008,-8.43606 10.95369,-15.50692 14.52474,-31.663 l 0.60784,-2.75 h 21.55291 21.5529 l -0.65612,5.75 c -2.51809,22.06736 -14.84221,46.80365 -29.4592,59.12888 -10.7543,9.06816 -24.38748,15.66844 -38.29937,18.54202 -9.59901,1.98273 -35.46295,1.9842 -44.51007,0.003 z m 121.78085,-0.81644 c 0,-0.21616 0.69837,-0.661 1.55194,-0.98855 0.88992,-0.34149 1.29132,-0.17385 0.94098,0.39301 -0.58726,0.95021 -2.49292,1.40545 -2.49292,0.59554 z M 97.255707,715.45831 c -1.281897,-0.82843 -1.245547,-0.9716 0.25,-0.98469 0.9625,-0.008 1.75,0.43469 1.75,0.98469 0,1.21961 -0.112787,1.21961 -2,0 z m 290.733333,-0.12409 c 0.67834,-0.68342 1.48524,-0.99067 1.79313,-0.68278 0.30789,0.30789 -0.24711,0.86705 -1.23333,1.24258 -1.4252,0.54268 -1.54006,0.42782 -0.5598,-0.5598 z m 5.26667,-2.25347 c 0,-0.20765 0.7875,-0.99515 1.75,-1.75 1.58606,-1.24387 1.62143,-1.2085 0.37756,0.37756 -1.30637,1.66575 -2.12756,2.19548 -2.12756,1.37244 z m 4.19495,-9.12244 c 0.0204,-1.65 0.2445,-2.20394 0.49804,-1.23097 0.25354,0.97297 0.23687,2.32297 -0.0371,3 -0.27393,0.67703 -0.48137,-0.11903 -0.46099,-1.76903 z M 76.762786,702.46976 c -0.350339,-0.56686 0.05106,-0.7345 0.940983,-0.39301 1.732417,0.66479 2.049387,1.38156 0.610955,1.38156 -0.517541,0 -1.215913,-0.44485 -1.551938,-0.98855 z M 153.25571,491.45831 c 0,-0.55 0.47656,-1 1.05902,-1 0.58246,0 0.7809,0.45 0.44098,1 -0.33992,0.55 -0.81648,1 -1.05902,1 -0.24254,0 -0.44098,-0.45 -0.44098,-1 z m 5.73333,-3.12409 c 0.67834,-0.68342 1.48524,-0.99067 1.79313,-0.68278 0.30789,0.30788 -0.24711,0.86705 -1.23333,1.24258 -1.4252,0.54268 -1.54006,0.42782 -0.5598,-0.5598 z m -25,-11 c 0.67833,-0.68342 1.48524,-0.99067 1.79313,-0.68278 0.30789,0.30788 -0.24711,0.86705 -1.23334,1.24258 -1.42519,0.54268 -1.54006,0.42782 -0.55979,-0.5598 z m 29.26667,-16.26892 c 0,-0.21616 0.69837,-0.661 1.55194,-0.98855 0.88992,-0.34149 1.29132,-0.17385 0.94098,0.39301 -0.58726,0.95021 -2.49292,1.40545 -2.49292,0.59554 z m 94,-1.60699 c -1.2819,-0.82843 -1.24555,-0.9716 0.25,-0.98469 0.9625,-0.008 1.75,0.43469 1.75,0.98469 0,1.21961 -0.11279,1.21961 -2,0 z m -14,-34 c 0,-0.55 -0.64844,-1 -1.44098,-1 -0.79254,0 -1.71592,-0.44485 -2.05194,-0.98855 -0.74301,-1.20222 2.18203,-0.22746 4.96543,1.65471 1.72349,1.16545 1.75505,1.33384 0.25,1.33384 -0.94738,0 -1.72251,-0.45 -1.72251,-1 z"
         id="path461" /></g></g></svg>
