<?xml version="1.0" encoding="UTF-8" standalone="no"?>
<!-- Created with Inkscape (http://www.inkscape.org/) -->

<svg
   stroke="currentColor"
   fill="currentColor"
   width="1002.1508"
   height="1000.0835"
   id="svg4152"
   version="1.1"
   inkscape:version="1.2.2 (b0a84865, 2022-12-01)"
   viewBox="0 0 1002.1508 1000.0835"
   sodipodi:docname="cristal copy.svg"
   xml:space="preserve"
   xmlns:inkscape="http://www.inkscape.org/namespaces/inkscape"
   xmlns:sodipodi="http://sodipodi.sourceforge.net/DTD/sodipodi-0.dtd"
   xmlns="http://www.w3.org/2000/svg"
   xmlns:svg="http://www.w3.org/2000/svg"
   xmlns:rdf="http://www.w3.org/1999/02/22-rdf-syntax-ns#"
   xmlns:cc="http://creativecommons.org/ns#"
   xmlns:dc="http://purl.org/dc/elements/1.1/"><defs
     id="defs5498"><marker
       inkscape:isstock="true"
       style="overflow:visible"
       id="marker4233"
       refX="0"
       refY="0"
       orient="auto"
       inkscape:stockid="TriangleOutL"><path
         transform="scale(0.8)"
         style="fill-opacity:1;fill-rule:evenodd;stroke-width:1pt;stroke-opacity:1"
         d="M 5.77,0 -2.88,5 V -5 Z"
         id="path4235" /></marker><marker
       inkscape:isstock="true"
       style="overflow:visible"
       id="marker4755"
       refX="0"
       refY="0"
       orient="auto"
       inkscape:stockid="TriangleOutL"><path
         transform="scale(0.8)"
         style="fill-opacity:1;fill-rule:evenodd;stroke-width:1pt;stroke-opacity:1"
         d="M 5.77,0 -2.88,5 V -5 Z"
         id="path4757" /></marker><marker
       inkscape:stockid="Arrow1Lend"
       orient="auto"
       refY="0"
       refX="0"
       id="Arrow1Lend"
       style="overflow:visible"
       inkscape:isstock="true"><path
         id="path4164"
         d="M 0,0 5,-5 -12.5,0 5,5 Z"
         style="fill-opacity:1;fill-rule:evenodd;stroke-width:1pt;stroke-opacity:1"
         transform="matrix(-0.8,0,0,-0.8,-10,0)" /></marker><marker
       inkscape:stockid="Arrow2Lend"
       orient="auto"
       refY="0"
       refX="0"
       id="Arrow2Lend"
       style="overflow:visible"
       inkscape:isstock="true"><path
         id="path4182"
         style="fill-opacity:1;fill-rule:evenodd;stroke-width:0.625;stroke-linejoin:round;stroke-opacity:1"
         d="M 8.7185878,4.0337352 -2.2072895,0.01601326 8.7185884,-4.0017078 c -1.7454984,2.3720609 -1.7354408,5.6174519 -6e-7,8.035443 z"
         transform="matrix(-1.1,0,0,-1.1,-1.1,0)" /></marker><pattern
       y="0"
       x="0"
       height="6"
       width="6"
       patternUnits="userSpaceOnUse"
       id="EMFhbasepattern" /></defs><sodipodi:namedview
     inkscape:window-height="1041"
     inkscape:window-width="1710"
     inkscape:pageshadow="2"
     inkscape:pageopacity="0.0"
     borderopacity="1.0"
     bordercolor="#666666"
     pagecolor="#ffffff"
     id="base"
     showgrid="true"
     showguides="false"
     inkscape:guide-bbox="true"
     inkscape:zoom="0.5"
     inkscape:cx="360"
     inkscape:cy="459"
     inkscape:window-x="0"
     inkscape:window-y="43"
     inkscape:current-layer="g214"
     inkscape:window-maximized="0"
     objecttolerance="20"
     inkscape:showpageshadow="2"
     inkscape:pagecheckerboard="0"
     inkscape:deskcolor="#d1d1d1"><sodipodi:guide
       orientation="horizontal"
       position="0.74427377,204.54182"
       id="guide5596"
       inkscape:locked="false" /><inkscape:grid
       type="xygrid"
       id="grid3430"
       empspacing="50"
       originx="0.7442737"
       originy="-4.4583262" /><sodipodi:guide
       position="550.74427,1004.5418"
       orientation="0,1"
       id="guide4169"
       inkscape:locked="false" /></sodipodi:namedview><metadata
     id="metadata5594"><rdf:RDF><cc:Work
         rdf:about=""><dc:format>image/svg+xml</dc:format><dc:type
           rdf:resource="http://purl.org/dc/dcmitype/StillImage" /></cc:Work></rdf:RDF></metadata><g
     id="g214"
     transform="translate(380.74428,-242.45832)"><g
       id="g4060"
       transform="matrix(1.0473601,0,0,1.0010888,-9.2221882,3.235054)"><path
         style="fill:#a7a7a7;stroke-width:3.99298"
         d="M 539.446,1200.5099 C 450.8013,1132.8697 355.17053,1076.4828 282.82159,1049.1962 186.80061,1012.9816 96.029996,1009.992 32.210853,1040.942 c -31.79448178,15.4192 -59.97431,39.2362 -78.73498,66.545 -13.031412,18.9691 -19.96482,25.5963 -26.778967,25.5963 -10.605739,0 -14.533078,-6.0794 -21.449469,-33.2031 -7.348267,-28.8174 -28.031797,-63.2508 -50.978687,-84.8681 -36.63972,-34.51656 -104.44708,-57.71004 -168.71852,-57.71004 -16.27896,0 -29.97008,-1.95512 -32.82513,-4.6875 -7.70595,-7.37484 -7.02991,-656.72507 0.69011,-662.85681 6.93543,-5.50858 48.18088,2.16408 90.88766,16.90733 15.95093,5.50659 30.09052,10.01198 31.42131,10.01198 1.33077,0 2.94529,-16.78305 3.58781,-37.29566 l 1.16821,-37.29567 24.95886,11.94625 c 42.25387,20.22429 77.83427,62.39703 98.40765,116.64062 11.631527,30.66759 21.474176,89.53003 21.507388,128.62165 0.01306,15.57617 1.401612,28.30677 3.085285,28.29022 1.683674,-0.0164 7.476772,-7.48725 12.873547,-16.60156 36.640935,-61.88079 97.665107,-107.80549 168.06507,-126.48 33.8593,-8.98162 121.53224,-8.92331 154.77567,0.10293 12.74314,3.46002 16.27253,5.23384 8.16326,4.10274 -7.85714,-1.09593 -28.06122,-3.87976 -44.89795,-6.18629 -121.31931,-16.61996 -234.283719,38.57106 -287.848788,140.6343 l -10.1104,19.26443 0.06249,286.54209 c 0.03429,157.59813 1.54056,288.77069 3.347078,291.49449 2.286433,3.4475 7.262833,-0.9232 16.375767,-14.3826 7.200155,-10.6342 22.610502,-27.5259 34.245213,-37.537 69.482555,-59.7866 167.15157,-68.93008 288.82659,-27.0393 79.92682,27.5175 193.75274,95.231 293.77147,174.7607 12.28862,9.7712 23.76821,16.9229 25.51021,15.8925 1.74204,-1.0304 3.1673,-156.3391 3.1673,-345.13062 V 543.7641 L 538.64347,508.11259 C 475.05024,467.7153 377.85738,420.0784 323.33734,402.5851 c -20.20408,-6.48268 -30.30612,-10.6936 -22.44898,-9.3576 46.75886,7.95071 162.10327,62.07827 242.85715,113.96533 l 53.06122,34.0936 1.04237,346.25372 c 0.85016,282.39755 0.0571,346.61545 -4.29951,348.21545 -2.93804,1.079 -27.28466,-14.7816 -54.10359,-35.2457 z M -81.521074,1013.9427 C -89.09207,940.49757 -135.95047,865.61851 -192.34086,836.85417 c -13.34911,-6.80926 -25.38456,-15.15742 -26.74543,-18.55141 -1.36088,-3.39402 -2.47433,-115.67398 -2.47433,-249.51102 V 325.45162 l -19.5734,-8.05844 c -25.5774,-10.53031 -77.22487,-24.15362 -91.56905,-24.15362 h -11.30653 v 327.7103 327.71033 l 37.75511,2.81976 c 117.96745,8.81051 177.46086,48.31164 217.625163,144.49395 4.654829,11.1471 10.162004,-52.4073 7.108253,-82.0312 z m 65.650425,-27.0138 c -1.219404,-3.04118 -1.436963,-10.51188 -0.483461,-16.60157 1.457881,-9.31097 1.830918,-8.74211 2.3452,3.57629 l 0.611559,14.64844 h 54.826979 c 48.732449,0 55.049551,-0.75988 56.828939,-6.83594 1.101102,-3.75976 8.878613,-53.85676 17.283383,-111.32668 8.40478,-57.46988 16.10368,-103.70383 17.10862,-102.74203 2.60379,2.49188 -27.36837,205.43375 -31.90392,216.02184 -3.643226,8.505 -5.552736,8.78906 -59.082573,8.78906 -43.9387915,0 -55.773689,-1.13738 -57.534726,-5.52941 z m 260.644479,0.82289 c -2.39726,-2.7825 -24.90004,-54.25485 -50.00616,-114.38297 -25.10616,-60.12817 -47.60445,-112.82332 -49.99625,-117.10039 -4.32604,-7.7359 -4.36518,-7.73617 -7.50249,-0.0512 -2.99273,7.33097 -3.1684,7.28843 -3.44061,-0.83313 -0.34285,-10.22879 5.96882,-15.03687 10.65555,-8.11719 1.83882,2.71485 25.47029,57.67516 52.51445,122.13403 l 49.17123,117.19793 20.5791,1.15886 c 13.28408,0.74805 22.04535,-0.63664 24.71535,-3.90625 2.27498,-2.78582 26.66449,-56.92058 54.19898,-120.29949 27.53449,-63.37891 51.75995,-116.9775 53.8344,-119.10797 2.47294,-2.53972 4.82535,-2.24203 6.83155,0.86457 3.638,5.63348 22.77262,153.09149 20.18674,155.56621 -0.98184,0.93965 -6.23127,-31.75043 -11.66543,-72.64461 -5.43412,-40.89421 -11.52147,-74.39078 -13.52743,-74.43679 -2.00592,-0.0461 -26.83555,53.19527 -55.1769,118.31398 l -51.52975,118.39777 -22.74184,1.15286 c -14.94322,0.75754 -24.23653,-0.582 -27.10049,-3.90625 z m 193.39217,1.64105 c -1.08878,-1.68601 -2.97972,-14.43016 -4.20209,-28.32031 l -2.22249,-25.25485 4.98164,25.39063 4.98163,25.39062 h 55.10204 55.10204 l -0.29061,-9.76562 c -0.16,-5.37109 -1.4291,-21.19141 -2.82045,-35.15625 -2.28706,-22.95414 -1.95265,-22.22547 3.48478,7.59355 3.30804,18.14129 5.09408,35.27997 3.96898,38.08594 -1.54833,3.86137 -15.91156,5.10176 -59.07576,5.10176 -31.36653,0 -57.9209,-1.37945 -59.00971,-3.06547 z M -13.154147,955.34893 c -0.776498,-7.5591 29.884502,-179.12554 31.290494,-175.08878 1.350081,3.87621 -25.9109186,166.83886 -29.289502,175.08878 -1.066486,2.60418 -1.733482,2.60418 -2.000992,0 z M 428.44828,920.19268 c 0.0453,-8.59375 0.88119,-11.64941 1.85747,-6.79039 0.97629,4.85903 0.93923,11.89028 -0.0824,15.625 -1.02159,3.73473 -1.82041,-0.24101 -1.7751,-8.83461 z m 89.0191,-170.16351 c -14.2071,-90.24449 -25.02636,-164.85108 -24.04277,-165.79241 0.98359,-0.94133 13.41232,72.12491 27.61943,162.36944 14.2071,90.24449 25.02636,164.85109 24.04277,165.79242 -0.98359,0.94133 -13.41232,-72.12492 -27.61943,-162.36945 z m -251.89653,26.80488 c -2.20224,-2.7934 -21.97469,-50.78199 -43.93881,-106.64137 -21.96413,-55.85937 -42.54686,-105.51757 -45.73943,-110.35156 -5.53417,-8.37949 -8.27906,-8.78906 -58.90335,-8.78906 -51.250448,0 -53.227142,0.30594 -56.79004,8.78906 -2.264367,5.39139 -3.791388,6.44844 -3.950081,2.73438 -0.559511,-13.09401 8.678081,-15.43069 60.761671,-15.36987 28.17347,0.0328 53.87233,1.66315 57.10861,3.62279 3.23625,1.95964 25.27707,52.23039 48.9796,111.71278 23.70249,59.48238 44.9322,108.38922 47.1771,108.68188 2.2449,0.29257 24.73383,-48.57637 49.97539,-108.59782 25.24159,-60.02145 48.20077,-110.53164 51.0204,-112.24486 2.81968,-1.71323 28.41384,-3.14188 56.87592,-3.17477 56.94617,-0.0658 65.07678,2.81451 64.02143,22.68014 l -0.55584,10.46316 -1.87608,-9.76562 c -3.53996,-18.42686 -7.06375,-19.53125 -62.31836,-19.53125 -36.68829,0 -53.30188,1.44186 -56.2616,4.88281 -2.30996,2.68555 -23.91612,52.34375 -48.01367,110.35156 -24.09759,58.00782 -46.00869,107.75422 -48.69131,110.54762 -4.00245,4.16766 -5.59591,4.16766 -8.88155,0 z M 20.05142,763.94268 c 0.08318,-6.44531 0.997951,-8.60914 2.032825,-4.80847 1.034869,3.80066 0.966812,9.0741 -0.151225,11.71875 -1.118069,2.64465 -1.964783,-0.46496 -1.8816,-6.91028 z m 3.529127,-15.625 c -0.776498,-7.5591 29.88451,-179.12553 31.29051,-175.08879 1.350082,3.87621 -25.910939,166.83887 -29.289518,175.08879 -1.066486,2.60418 -1.733482,2.60418 -2.000992,0 z"
         id="path4068" /><path
         style="fill:#5e90bb;stroke-width:3.99298"
         d="m 566.0884,1216.2594 c -71.92347,-57.1898 -164.86473,-117.0623 -230.89514,-148.7419 -94.04457,-45.1202 -192.89392,-62.5343 -260.006162,-45.8049 -50.833523,12.6715 -99.452739,45.2392 -125.941959,84.3624 -9.112935,13.4594 -14.089335,17.8301 -16.375768,14.3826 -1.806518,-2.7238 -3.312702,-133.89636 -3.347077,-291.49449 l -0.0625,-286.54209 10.1104,-19.26442 c 34.396081,-65.53852 97.742253,-115.85901 169.481436,-134.63148 32.01894,-8.37861 112.12408,-9.53001 148.97959,-2.14138 82.30502,16.50016 187.53927,62.28541 282.67731,122.9871 l 54.05738,34.49066 v 343.20849 c 0,188.76471 -1.42526,344.05151 -3.1673,345.08191 -1.742,1.0304 -13.22159,-6.1213 -25.51021,-15.8925 z m 23.598,-331.88031 -1.04293,-338.54794 -44.89796,-28.839 C 451.83959,457.95882 363.94081,417.57407 284.56183,397.9112 226.56767,383.54555 156.80526,381.375 113.13326,392.57747 48.444241,409.17111 -12.069372,452.88678 -45.989437,507.52937 l -16.440535,26.48442 1.046923,287.541 1.046922,287.54101 18.367347,-21.9594 c 21.116478,-25.2462 58.754478,-51.2468 90.788286,-62.7172 117.636164,-42.1221 276.771144,9.0769 472.998244,152.1793 26.10298,19.0361 49.74625,37.2476 52.54057,40.4698 2.79433,3.2224 7.62094,5.8588 10.72584,5.8588 4.77045,0 5.48359,-52.4595 4.60224,-338.54801 z M -23.718159,991.48175 c -2.953478,-7.58481 74.487542,-436.3622 79.948196,-442.65915 6.549551,-7.55265 119.127553,-8.18268 125.120813,-0.70023 2.15106,2.68555 21.90502,50.58594 43.89768,106.44531 21.99265,55.85938 41.30742,103.95399 42.92175,106.87688 1.78061,3.22406 20.94943,-37.75418 48.73478,-104.18293 25.81579,-61.72018 48.48763,-110.48448 51.96,-111.7597 12.79261,-4.69805 118.62975,-2.4407 122.86122,2.62044 5.62016,6.72213 72.48629,433.465 69.20261,441.65446 -2.31502,5.77359 -10.19391,6.58773 -63.75318,6.58773 -33.61143,0 -62.08763,-1.51125 -63.28045,-3.35832 -2.09384,-3.24231 -30.96608,-211.01914 -30.96608,-222.845 0,-13.25453 -9.8862,6.62902 -56.14539,112.92207 l -48.45049,111.32812 -27.08077,1.1504 c -24.50074,1.04078 -27.63372,0.29648 -32.884,-7.8125 C 235.17677,982.81972 212.68734,930.87206 188.392,872.31003 164.09665,813.748 143.02791,767.16597 141.57257,768.7944 c -1.45535,1.62844 -9.6209,50.42172 -18.14568,108.42953 -8.52473,58.00782 -17.14791,108.54493 -19.16265,112.30469 -3.24229,6.05067 -10.694367,6.83594 -64.872081,6.83594 -45.2320449,0 -61.705269,-1.27453 -63.110318,-4.88281 z m 124.464809,-7.8125 c 2.07069,-4.83399 10.43355,-55.3711 18.58408,-112.30469 8.15053,-56.93359 16.21122,-107.90547 17.91265,-113.27086 2.988,-9.4225 3.24331,-9.48738 7.48515,-1.90199 2.41538,4.31926 24.93298,57.04894 50.03914,117.17711 25.10612,60.12812 47.6089,111.60047 50.00616,114.38297 2.86396,3.32425 12.15727,4.66379 27.10049,3.90625 l 22.74184,-1.15286 51.85322,-119.14062 c 28.51923,-65.52734 53.34886,-119.14063 55.1769,-119.14063 1.82804,0 10.25229,51.85547 18.72057,115.23438 8.46825,63.37891 16.21674,117.43164 17.21882,120.11719 2.66261,7.13562 115.7842,6.96761 118.64861,-0.17617 1.11567,-2.78247 -12.71747,-98.28793 -30.74033,-212.2343 C 507.47106,661.21858 492.7251,566.06211 492.7251,563.70615 c 0,-2.35595 -2.88629,-7.04583 -6.414,-10.42195 -5.16376,-4.94187 -16.5011,-6.12673 -58.16327,-6.07857 -28.46208,0.0328 -54.05624,1.46154 -56.87592,3.17477 -2.81963,1.71322 -25.77881,52.22341 -51.0204,112.24486 -25.24156,60.02145 -47.73049,109.12098 -49.97539,109.11 -2.2449,-0.0117 -23.47461,-48.91781 -47.1771,-108.68187 -23.70253,-59.7641 -45.74335,-110.26533 -48.9796,-112.22497 -3.23628,-1.95964 -29.07759,-3.5899 -57.42518,-3.62279 -38.833101,-0.0451 -52.690367,1.26555 -56.202571,5.31566 -6.100979,7.03534 -80.097147,425.09304 -76.728477,433.4944 2.224326,5.54746 10.2692853,6.44262 57.900885,6.44262 53.529837,0 55.439347,-0.28398 59.082573,-8.78906 z m -182.420067,51.75785 c 0,-9.668 0.795984,-13.6231 1.768854,-8.7891 0.972869,4.834 0.972869,12.7441 0,17.5781 -0.97287,4.834 -1.768854,0.8789 -1.768854,-8.789 z m -60.683163,-24.4141 -7.77547,-8.7891 9.18368,7.4414 c 8.63039,6.993 11.0418,10.1368 7.77546,10.1368 -0.77452,0 -4.90717,-3.9551 -9.18367,-8.7891 z m -161.602,-60.28559 c 2.94643,-1.1284 6.46684,-0.98965 7.82313,0.3082 1.35629,1.29801 -1.05442,2.22125 -5.35714,2.05165 -4.75487,-0.1875 -5.72204,-1.11305 -2.46599,-2.36 z m 84.27095,-126.49773 c -1.47973,-2.29137 -1.81504,-5.00391 -0.74513,-6.02785 1.06991,-1.02395 3.03293,0.85082 4.36225,4.16613 2.75994,6.88324 0.40755,8.09398 -3.61712,1.86172 z"
         id="path4066" /><path
         style="fill:#3877ac;stroke-width:3.99298"
         d="m 574.35832,1217.0683 c -2.79432,-3.2222 -26.43759,-21.4337 -52.54057,-40.4698 -196.2271,-143.1024 -355.36208,-194.3014 -472.998244,-152.1793 -32.033808,11.4704 -69.671808,37.471 -90.788286,62.7172 l -18.367347,21.9594 -1.046922,-287.54101 -1.046923,-287.541 16.440535,-26.48442 c 33.920065,-54.64259 94.433678,-98.35826 159.122697,-114.9519 43.672,-11.20247 113.43441,-9.03192 171.42857,5.33373 79.37898,19.66287 167.27776,60.04762 259.18368,119.08095 l 44.89796,28.839 1.04293,338.54794 c 0.88135,286.08851 0.16821,338.54801 -4.60224,338.54801 -3.1049,0 -7.93151,-2.6364 -10.72584,-5.8588 z M 104.26424,989.52862 c 2.01474,-3.75976 10.63792,-54.29687 19.16265,-112.30469 8.52478,-58.00781 16.69033,-106.80109 18.14568,-108.42953 1.45534,-1.62843 22.52408,44.9536 46.81943,103.51563 24.29534,58.56203 46.78477,110.50969 49.97653,115.4393 5.25028,8.10894 8.38326,8.85328 32.884,7.8125 l 27.08077,-1.1504 48.45049,-111.32812 c 46.25919,-106.29305 56.14539,-126.1766 56.14539,-112.92207 0,11.82586 28.87224,219.60269 30.96608,222.845 1.19282,1.84707 29.66902,3.35832 63.28045,3.35832 53.55927,0 61.43816,-0.81414 63.75318,-6.58773 3.28368,-8.18946 -63.58245,-434.93233 -69.20261,-441.65446 -4.23147,-5.06114 -110.06861,-7.31849 -122.86122,-2.62044 -3.47237,1.27522 -26.14421,50.03952 -51.96,111.7597 -27.78535,66.42875 -46.95417,107.40699 -48.73478,104.18293 -1.61433,-2.92289 -20.9291,-51.0175 -42.92175,-106.87688 -21.99266,-55.85937 -41.74662,-103.75976 -43.89768,-106.44531 -5.99326,-7.48245 -118.571262,-6.85242 -125.120813,0.70023 -5.460654,6.29695 -82.901674,435.07434 -79.948196,442.65915 1.405049,3.60828 17.8782731,4.88281 63.110318,4.88281 54.177714,0 61.629791,-0.78527 64.872081,-6.83594 z M -88.907555,1094.0208 c -1.387425,-2.1484 -0.577453,-3.9062 1.79993,-3.9062 2.377384,0 4.322519,1.7578 4.322519,3.9062 0,2.1484 -0.809968,3.9063 -1.799931,3.9063 -0.989963,0 -2.935094,-1.7579 -4.322518,-3.9063 z m -39.296145,-69.3359 c -5.07702,-6.1956 -4.93266,-6.3337 1.54104,-1.4749 3.92857,2.9487 7.14286,6.0248 7.14286,6.836 0,3.215 -3.35178,1.1457 -8.6839,-5.3611 z m -163.50998,-73.95749 c 2.94643,-1.1284 6.46684,-0.98965 7.82313,0.3082 1.35629,1.29801 -1.05442,2.22125 -5.35714,2.05165 -4.75487,-0.1875 -5.72204,-1.11305 -2.46599,-2.36 z m 155.34672,-62.76129 c -5.07703,-6.19554 -4.93266,-6.33371 1.54104,-1.47484 3.92857,2.94863 7.14285,6.0248 7.14285,6.83594 0,3.215 -3.35178,1.14574 -8.68389,-5.3611 z m -20.19646,-23.4375 -9.89516,-10.74219 11.22449,9.46997 c 10.49098,8.85113 13.09628,12.01441 9.89516,12.01441 -0.73113,0 -5.78215,-4.83398 -11.22449,-10.74219 z"
         id="path4064" /><path
         style="fill:#292525;stroke-width:3.99298"
         d="M -100.78769,1064.456 C -132.18767,997.19401 -202.71895,957.0146 -301.15245,950.31464 l -40.81633,-2.77821 -1.04416,-324.0007 c -0.60476,-187.65707 0.49763,-325.47625 2.61968,-327.50712 4.59905,-4.40143 68.22389,10.53782 97.37377,22.86358 l 21.39828,9.04806 1.0507,249.01978 1.05071,249.0198 20.40816,9.85711 c 26.98715,13.03481 66.21291,51.40778 82.40704,80.61551 22.06242,39.79176 33.919494,86.31305 33.919494,133.08345 0,22.3183 -1.377551,40.5314 -3.061225,40.4737 -1.683673,-0.058 -8.407286,-11.5569 -14.941359,-25.5536 z"
         id="path4062" /></g></g></svg>
