<?xml version="1.0" encoding="UTF-8" standalone="no"?>
<svg
   width="1000"
   height="1000"
   stroke-miterlimit="10"
   style="fill-rule:evenodd;shape-rendering:geometricPrecision"
   version="1.1"
   id="svg11"
   sodipodi:docname="wikipedia.svg"
   inkscape:version="1.1 (c4e8f9e, 2021-05-24)"
   xmlns:inkscape="http://www.inkscape.org/namespaces/inkscape"
   xmlns:sodipodi="http://sodipodi.sourceforge.net/DTD/sodipodi-0.dtd"
   xmlns="http://www.w3.org/2000/svg"
   xmlns:svg="http://www.w3.org/2000/svg">
  <defs
     id="defs15" />
  <sodipodi:namedview
     id="namedview13"
     pagecolor="#ffffff"
     bordercolor="#666666"
     borderopacity="1.0"
     inkscape:pageshadow="2"
     inkscape:pageopacity="0.0"
     inkscape:pagecheckerboard="0"
     showgrid="false"
     inkscape:zoom="0.5"
     inkscape:cx="63"
     inkscape:cy="439"
     inkscape:window-width="2639"
     inkscape:window-height="1027"
     inkscape:window-x="2844"
     inkscape:window-y="25"
     inkscape:window-maximized="0"
     inkscape:current-layer="svg11" />
  <path
     d="m 959.38333,225.81445 c 0,3.32555 -1.05444,6.32666 -3.08222,9.08444 -2.10889,2.67666 -4.29889,4.05556 -6.81333,4.05556 -20.19667,1.94666 -36.82445,8.43555 -49.64,19.54777 C 886.95111,269.53333 873.73,290.70333 860.02222,321.85 L 650.75555,793.43 c -1.37888,4.38 -5.1911,6.57 -11.51777,6.57 -4.94778,0 -8.76,-2.19 -11.51778,-6.57 L 510.35222,547.98778 375.38333,793.43 c -2.75778,4.38 -6.57,6.57 -11.51778,6.57 -6.00222,0 -9.97666,-2.19 -11.92333,-6.57 L 146.32555,321.85 C 133.51,292.56889 119.96444,272.12889 105.68889,260.53 91.494445,248.93111 71.622222,241.71222 46.234445,238.95445 c -2.19,0 -4.29889,-1.13556 -6.164445,-3.48778 -1.946667,-2.27112 -2.92,-4.94778 -2.92,-7.94889 C 37.15,219.81222 39.34,216 43.72,216 c 18.331111,0 37.473333,0.81111 57.50778,2.43333 18.57444,1.70334 36.09444,2.51445 52.47889,2.51445 16.70888,0 36.41888,-0.81111 59.13,-2.51445 C 236.60222,216.81111 257.69111,216 276.02222,216 c 4.38,0 6.57,3.81222 6.57,11.51778 0,7.62444 -1.37889,11.43667 -4.05555,11.43667 -18.33112,1.37888 -32.76889,6.08333 -43.31334,13.9511 -10.54444,7.9489 -15.81666,18.33112 -15.81666,31.22778 0,6.57 2.19,14.76222 6.57,24.57667 L 395.90445,692.44667 492.34555,510.27111 402.47445,321.85 c -16.14112,-33.58 -29.44334,-55.31778 -39.82556,-65.05111 -10.38222,-9.65222 -26.11778,-15.65444 -47.20667,-17.84444 -1.94667,0 -3.73111,-1.13556 -5.51555,-3.48778 -1.78445,-2.27112 -2.67667,-4.94778 -2.67667,-7.94889 0,-7.70556 1.86555,-11.51778 5.75889,-11.51778 18.33111,0 35.12111,0.81111 50.45111,2.43333 14.76222,1.70334 30.49778,2.51445 47.20667,2.51445 16.38444,0 33.74222,-0.81111 52.07333,-2.51445 C 481.63889,216.81111 500.21333,216 518.54445,216 c 4.38,0 6.57,3.81222 6.57,11.51778 0,7.62444 -1.29778,11.43667 -4.05556,11.43667 -36.66222,2.51444 -54.99334,12.89666 -54.99334,31.22777 0,8.19223 4.21778,20.92667 12.73445,38.12223 l 59.45445,120.69333 59.13,-110.39223 c 8.19222,-15.57333 12.32888,-28.71333 12.32888,-39.42 0,-25.14444 -18.33111,-38.52777 -54.99333,-40.2311 -3.32555,0 -4.94778,-3.81223 -4.94778,-11.43667 0,-2.75778 0.81111,-5.35333 2.43333,-7.78667 1.70334,-2.51444 3.32556,-3.73111 4.94778,-3.73111 13.14,0 29.28112,0.81111 48.42334,2.43333 18.33111,1.70334 33.41778,2.51445 45.17888,2.51445 8.43556,0 20.92667,-0.73 37.31112,-2.10889 C 708.83111,216.97333 726.27,216 740.22111,216 c 3.24444,0 4.86667,3.24445 4.86667,9.81445 0,8.76 -3.00111,13.14 -9.00333,13.14 -21.33223,2.19 -38.52778,8.1111 -51.50556,17.68222 -12.97778,9.57111 -29.2,31.30888 -48.58556,65.21333 l -78.84,145.75667 106.74222,217.45888 157.5989,-366.46 c 5.43444,-13.38333 8.19222,-25.71222 8.19222,-36.90555 0,-26.84778 -18.33112,-41.04222 -54.99334,-42.74555 -3.32555,0 -4.94778,-3.81223 -4.94778,-11.43667 0,-7.70556 2.43334,-11.51778 7.38112,-11.51778 13.38333,0 29.28111,0.81111 47.61222,2.43333 16.95222,1.70334 31.22778,2.51445 42.66444,2.51445 12.08556,0 26.03667,-0.81111 41.85334,-2.51445 C 925.72222,216.81111 940.48445,216 953.62445,216 c 3.81222,0 5.75888,3.24445 5.75888,9.81445 z"
     id="path9"
     style="stroke-width:8.11111" />
</svg>
