<?xml version="1.0" encoding="UTF-8" standalone="no"?>
<svg stroke="currentColor" fill="currentColor"
   xmlns:dc="http://purl.org/dc/elements/1.1/"
   xmlns:cc="http://creativecommons.org/ns#"
   xmlns:rdf="http://www.w3.org/1999/02/22-rdf-syntax-ns#"
   xmlns:svg="http://www.w3.org/2000/svg"
   xmlns="http://www.w3.org/2000/svg"
   xmlns:sodipodi="http://sodipodi.sourceforge.net/DTD/sodipodi-0.dtd"
   xmlns:inkscape="http://www.inkscape.org/namespaces/inkscape"
   width="1000"
   height="1000"
   id="svg4152"
   version="1.1"
   inkscape:version="1.0.1 (c497b03c, 2020-09-10)"
   viewBox="0 0 1000 1000"
   sodipodi:docname="assignment.svg">
  <defs
     id="defs5498">
    <marker
       inkscape:isstock="true"
       style="overflow:visible"
       id="marker4233"
       refX="0.0"
       refY="0.0"
       orient="auto"
       inkscape:stockid="TriangleOutL">
      <path
         transform="scale(0.8)"
         style="fill-rule:evenodd;stroke-width:1pt;stroke-opacity:1;fill-opacity:1"
         d="M 5.77,0.0 L -2.88,5.0 L -2.88,-5.0 L 5.77,0.0 z "
         id="path4235" />
    </marker>
    <marker
       inkscape:isstock="true"
       style="overflow:visible"
       id="marker4755"
       refX="0.0"
       refY="0.0"
       orient="auto"
       inkscape:stockid="TriangleOutL">
      <path
         transform="scale(0.8)"
         style="fill-rule:evenodd;stroke-width:1pt;stroke-opacity:1;fill-opacity:1"
         d="M 5.77,0.0 L -2.88,5.0 L -2.88,-5.0 L 5.77,0.0 z "
         id="path4757" />
    </marker>
    <marker
       inkscape:stockid="Arrow1Lend"
       orient="auto"
       refY="0.0"
       refX="0.0"
       id="Arrow1Lend"
       style="overflow:visible;"
       inkscape:isstock="true">
      <path
         id="path4164"
         d="M 0.0,0.0 L 5.0,-5.0 L -12.5,0.0 L 5.0,5.0 L 0.0,0.0 z "
         style="fill-rule:evenodd;stroke-width:1pt;stroke-opacity:1;fill-opacity:1"
         transform="scale(0.8) rotate(180) translate(12.5,0)" />
    </marker>
    <marker
       inkscape:stockid="Arrow2Lend"
       orient="auto"
       refY="0.0"
       refX="0.0"
       id="Arrow2Lend"
       style="overflow:visible;"
       inkscape:isstock="true">
      <path
         id="path4182"
         style="fill-rule:evenodd;stroke-width:0.625;stroke-linejoin:round;stroke-opacity:1;fill-opacity:1"
         d="M 8.7185878,4.0337352 L -2.2072895,0.016013256 L 8.7185884,-4.0017078 C 6.9730900,-1.6296469 6.9831476,1.6157441 8.7185878,4.0337352 z "
         transform="scale(1.1) rotate(180) translate(1,0)" />
    </marker>
    <pattern
       y="0"
       x="0"
       height="6"
       width="6"
       patternUnits="userSpaceOnUse"
       id="EMFhbasepattern" />
  </defs>
  <sodipodi:namedview
     inkscape:window-height="1035"
     inkscape:window-width="1251"
     inkscape:pageshadow="2"
     inkscape:pageopacity="0.0"
     borderopacity="1.0"
     bordercolor="#666666"
     pagecolor="#ffffff"
     id="base"
     showgrid="false"
     showguides="false"
     inkscape:guide-bbox="true"
     inkscape:zoom="0.43074198"
     inkscape:cx="352.84223"
     inkscape:cy="622.21679"
     inkscape:window-x="217"
     inkscape:window-y="36"
     inkscape:current-layer="g6050"
     inkscape:window-maximized="0"
     objecttolerance="20"
     inkscape:document-rotation="0">
    <sodipodi:guide
       orientation="horizontal"
       position="200"
       id="guide5596"
       inkscape:locked="false" />
    <inkscape:grid
       type="xygrid"
       id="grid3430"
       empspacing="50" />
    <sodipodi:guide
       position="550,1000"
       orientation="0,1"
       id="guide4169"
       inkscape:locked="false" />
  </sodipodi:namedview>
  <metadata
     id="metadata5594">
    <rdf:RDF>
      <cc:Work
         rdf:about="">
        <dc:format>image/svg+xml</dc:format>
        <dc:type
           rdf:resource="http://purl.org/dc/dcmitype/StillImage" />
        <dc:title />
      </cc:Work>
    </rdf:RDF>
  </metadata>
  <g
     id="g6050"
     transform="matrix(2.3748502,0,0,2.3748502,1485.6411,-1771.974)">
    <path
       style="fill-opacity:1;fill-rule:nonzero;stroke:none;stroke-width:1.09445548"
       d="m -578.8184,1087.6507 c 0,5.4696 3.66298,9.8575 8.22894,9.8575 4.51597,0 8.17879,-4.3879 8.17879,-9.8575 z m 0,0 V 814.36302 h 16.40773 v 273.28768 z m 16.40773,-273.28768 c 0,-5.4105 -3.66282,-9.79658 -8.17879,-9.79658 -4.56596,0 -8.22894,4.38608 -8.22894,9.79658 z"
       id="path5963"
       inkscape:connector-curvature="0" />
    <path
       style="fill:none;stroke-width:16.35749817px;stroke-linecap:round;stroke-linejoin:round;stroke-miterlimit:4;stroke-dasharray:none;stroke-opacity:1"
       d="m -570.58946,801.455 21.02395,27.74771"
       id="path5965"
       inkscape:connector-curvature="0" />
    <path
       style="fill:none;stroke-width:16.35749817px;stroke-linecap:round;stroke-linejoin:round;stroke-miterlimit:4;stroke-dasharray:none;stroke-opacity:1"
       d="M -591.6133,829.20271 -570.58946,801.455"
       id="path5967"
       inkscape:connector-curvature="0" />
    <path
       style="fill-opacity:1;fill-rule:nonzero;stroke:none;stroke-width:1.16462314"
       d="m -562.41067,1087.6507 c -6.19303,0 -11.1613,3.6632 -11.1613,8.1786 0,4.5662 4.96827,8.2294 11.1613,8.2294 z m 0,0 h 309.45356 v 16.408 h -309.45356 z m 309.45356,16.408 c 6.12468,0 11.09328,-3.6632 11.09328,-8.2294 0,-4.5154 -4.9686,-8.1786 -11.09328,-8.1786 z"
       id="path5969"
       inkscape:connector-curvature="0" />
    <path
       style="fill:none;stroke-width:16.35749817px;stroke-linecap:round;stroke-linejoin:round;stroke-miterlimit:4;stroke-dasharray:none;stroke-opacity:1"
       d="m -238.75373,1095.8293 -27.74761,21.0741"
       id="path5971"
       inkscape:connector-curvature="0" />
    <path
       style="fill:none;stroke-width:16.35749817px;stroke-linecap:round;stroke-linejoin:round;stroke-miterlimit:4;stroke-dasharray:none;stroke-opacity:1"
       d="m -266.50134,1074.806 27.74761,21.0233"
       id="path5973"
       inkscape:connector-curvature="0" />
    <path
       style="fill:none;stroke-width:12.6324;stroke-linecap:butt;stroke-linejoin:miter;stroke-miterlimit:4;stroke-dasharray:none;stroke-opacity:1"
       d="m -546.38961,870.17558 c 35.19241,0.97757 60.60916,9.77567 63.54186,56.69889 2.9327,46.92322 18.57377,55.72133 65.497,56.6989 46.92322,0.97756 72.33996,24.43913 79.18293,43.01283 6.84297,18.5738 28.34945,22.4841 47.90079,24.4392 19.55134,1.9551 18.57377,1.9551 18.57377,1.9551"
       id="path857"
       inkscape:connector-curvature="0" />
    <flowRoot
       xml:space="preserve"
       id="flowRoot859"
       transform="matrix(0.42107919,0,0,0.42107919,-534.65881,975.86965)"><flowRegion
   id="flowRegion861"><rect
     id="rect863"
     width="659.32745"
     height="269.30276"
     x="232.15755"
     y="-434.73361" /><flowPara
     id="flowPara865">TGATGA</flowPara></flowRegion>  </flowRoot>
  </g>
</svg>
