<?xml version="1.0" encoding="UTF-8" standalone="no"?>
<!-- Created with Inkscape (http://www.inkscape.org/) -->

<svg stroke="currentColor" fill="currentColor"
   xmlns:dc="http://purl.org/dc/elements/1.1/"
   xmlns:cc="http://creativecommons.org/ns#"
   xmlns:rdf="http://www.w3.org/1999/02/22-rdf-syntax-ns#"
   xmlns:svg="http://www.w3.org/2000/svg"
   xmlns="http://www.w3.org/2000/svg"
   xmlns:sodipodi="http://sodipodi.sourceforge.net/DTD/sodipodi-0.dtd"
   xmlns:inkscape="http://www.inkscape.org/namespaces/inkscape"
   width="1000"
   height="1000"
   id="svg4152"
   version="1.1"
   inkscape:version="0.91 r13725"
   viewBox="0 0 1000 1000"
   sodipodi:docname="EA-request.svg">
  <defs
     id="defs5498">
    <marker
       inkscape:isstock="true"
       style="overflow:visible"
       id="marker4233"
       refX="0.0"
       refY="0.0"
       orient="auto"
       inkscape:stockid="TriangleOutL">
      <path
         transform="scale(0.8)"
         style="fill-rule:evenodd;stroke-width:1pt;stroke-opacity:1;fill:#000000;fill-opacity:1"
         d="M 5.77,0.0 L -2.88,5.0 L -2.88,-5.0 L 5.77,0.0 z "
         id="path4235" />
    </marker>
    <marker
       inkscape:isstock="true"
       style="overflow:visible"
       id="marker4755"
       refX="0.0"
       refY="0.0"
       orient="auto"
       inkscape:stockid="TriangleOutL">
      <path
         transform="scale(0.8)"
         style="fill-rule:evenodd;stroke-width:1pt;stroke-opacity:1;fill:#000000;fill-opacity:1"
         d="M 5.77,0.0 L -2.88,5.0 L -2.88,-5.0 L 5.77,0.0 z "
         id="path4757" />
    </marker>
    <marker
       inkscape:stockid="Arrow1Lend"
       orient="auto"
       refY="0.0"
       refX="0.0"
       id="Arrow1Lend"
       style="overflow:visible;"
       inkscape:isstock="true">
      <path
         id="path4164"
         d="M 0.0,0.0 L 5.0,-5.0 L -12.5,0.0 L 5.0,5.0 L 0.0,0.0 z "
         style="fill-rule:evenodd;stroke-width:1pt;stroke-opacity:1;fill:#000000;fill-opacity:1"
         transform="scale(0.8) rotate(180) translate(12.5,0)" />
    </marker>
    <marker
       inkscape:stockid="Arrow2Lend"
       orient="auto"
       refY="0.0"
       refX="0.0"
       id="Arrow2Lend"
       style="overflow:visible;"
       inkscape:isstock="true">
      <path
         id="path4182"
         style="fill-rule:evenodd;stroke-width:0.625;stroke-linejoin:round;stroke-opacity:1;fill:#000000;fill-opacity:1"
         d="M 8.7185878,4.0337352 L -2.2072895,0.016013256 L 8.7185884,-4.0017078 C 6.9730900,-1.6296469 6.9831476,1.6157441 8.7185878,4.0337352 z "
         transform="scale(1.1) rotate(180) translate(1,0)" />
    </marker>
    <pattern
       y="0"
       x="0"
       height="6"
       width="6"
       patternUnits="userSpaceOnUse"
       id="EMFhbasepattern" />
    <pattern
       y="0"
       x="0"
       height="6"
       width="6"
       patternUnits="userSpaceOnUse"
       id="EMFhbasepattern-6" />
    <pattern
       y="0"
       x="0"
       height="6"
       width="6"
       patternUnits="userSpaceOnUse"
       id="EMFhbasepattern-9" />
  </defs>
  <sodipodi:namedview
     inkscape:window-height="838"
     inkscape:window-width="1440"
     inkscape:pageshadow="2"
     inkscape:pageopacity="0.0"
     borderopacity="1.0"
     bordercolor="#666666"
     pagecolor="#ffffff"
     id="base"
     showgrid="true"
     showguides="true"
     inkscape:guide-bbox="true"
     inkscape:zoom="0.5"
     inkscape:cx="357.82213"
     inkscape:cy="459.29481"
     inkscape:window-x="-8"
     inkscape:window-y="-8"
     inkscape:current-layer="svg4152"
     inkscape:window-maximized="1"
     objecttolerance="20">
    <sodipodi:guide
       orientation="horizontal"
       position="200"
       id="guide5596" />
    <inkscape:grid
       type="xygrid"
       id="grid3430"
       empspacing="50" />
    <sodipodi:guide
       position="550,1000"
       orientation="0,1"
       id="guide4169" />
  </sodipodi:namedview>
  <metadata
     id="metadata5594">
    <rdf:RDF>
      <cc:Work
         rdf:about="">
        <dc:format>image/svg+xml</dc:format>
        <dc:type
           rdf:resource="http://purl.org/dc/dcmitype/StillImage" />
        <dc:title></dc:title>
      </cc:Work>
    </rdf:RDF>
  </metadata>
  <path
     inkscape:connector-curvature="0"
     id="path3584"
     d="m 973.85235,153.25192 0,449.48908 -49.70116,0.40335 0,-449.49186 z m 0,449.48908 c 0,35.27256 -15.23054,67.33177 -40.08393,90.5815 l -33.86499,-36.07451 c 15.02869,-14.02494 24.24776,-33.26492 24.24776,-54.10324 z m -40.08393,90.5815 c -24.44403,22.64388 -57.91087,36.8707 -94.58532,36.8707 l 0.40376,-49.6955 c 23.64212,0 45.08601,-9.01733 60.31657,-23.24971 z m -94.58532,36.8707 -461.71396,0 0.40098,-49.6955 461.71676,0 z m -461.51319,-24.84784 -0.20069,24.84784 c -13.82694,0 -24.8489,-11.01922 -24.8489,-24.84784 0.20029,-13.82864 11.42234,-24.84766 25.24986,-24.84766 z M 396.50676,721.57981 179.47699,973.27642 141.8027,941.00957 358.83247,689.11109 Z m -235.86662,235.66403 18.83685,16.03258 c -9.01776,10.62104 -24.8489,11.82097 -35.26971,2.80384 -10.22006,-8.81526 -11.42236,-24.64597 -2.40458,-35.07069 z m -24.24832,-5.00761 53.506,-251.70216 48.49606,9.62276 -53.506,251.8985 z m 77.75431,-246.89087 -24.4485,-5.00761 c 2.80552,-13.43043 16.0319,-22.24589 29.65862,-19.44205 13.42656,2.80382 22.04338,15.8307 19.03763,29.45745 z m -0.20069,24.84784 -53.10508,0 0.40099,-49.6955 53.10505,0 z m -53.10508,0 c -36.67274,0 -70.139018,-14.02493 -94.386846,-36.66883 l 34.267676,-36.4727 c 15.43075,14.4287 36.87295,23.44603 60.52014,23.44603 z M 66.453514,693.52437 C 41.804622,670.47653 26.374099,638.41177 26.374099,603.14475 l 49.898813,-0.40335 c 0,20.84387 9.218227,40.28017 24.448218,54.31068 z m -40.079415,-90.37962 0,-449.49187 49.898813,-0.40137 0,449.4891 z m 0,-449.49187 c 0,-35.47046 15.430523,-67.533647 40.279765,-90.579499 L 100.52094,99.14471 C 85.491139,113.17242 76.272912,132.21013 76.272912,153.25192 Z M 66.653864,63.073381 C 90.902036,40.228202 124.36831,26 161.24127,26 l -0.40097,49.898772 c -23.64661,0 -45.08939,8.817245 -60.31938,23.245938 z M 161.24127,26 l 678.34559,0 -0.40376,49.898772 -678.34278,0 z m 678.34559,0 c 36.66883,0 70.13568,14.228202 94.38345,36.873092 L 899.70156,99.34559 C 884.27474,84.716017 862.83083,75.898772 839.1831,75.898772 Z m 94.38345,36.873092 c 24.6515,23.045245 39.88204,55.109038 39.88204,90.378828 l -49.70116,0.40136 c 0,-21.04178 -9.21907,-40.27976 -24.44963,-54.30729 z"
     style="fill:#000000;fill-opacity:1;fill-rule:nonzero;stroke:none" />
  <path
     inkscape:connector-curvature="0"
     id="path3600"
     d="m 336.3313,208.88627 c -9.92229,11.00089 -14.88365,25.66938 -14.88365,40.55326 l -53.71113,0.43096 c 0.21602,-27.82593 9.92252,-55.43669 29.33613,-76.79171 z m -14.88365,40.55326 c -0.21603,14.88344 4.96136,29.55193 14.88365,40.7682 l -39.90563,36.02308 C 277.22764,305.0916 267.73652,277.26566 267.73652,249.87049 Z m 14.88365,40.7682 c 1.29397,1.50998 2.58901,2.80438 3.88298,3.88298 l -36.23888,39.69026 c -2.58858,-2.37279 -5.17695,-4.74557 -7.54973,-7.55016 z m 3.88298,3.88298 c 8.62811,7.76553 19.19804,11.86411 29.55194,11.86411 l -0.64805,53.49552 c -23.2964,0 -46.37698,-8.62874 -65.14362,-25.66937 z m 29.55194,11.86411 c 10.35369,0 20.7076,-3.88298 29.33634,-11.64852 l 35.59148,39.47467 c -18.98244,17.25664 -42.27841,25.66937 -65.57502,25.66937 z m 29.33634,-11.64852 c 1.29398,-1.07795 2.58816,-2.37277 3.66697,-3.66696 l 39.47467,35.80769 c -2.373,2.58837 -4.96179,5.17653 -7.55016,7.33394 z m 3.66697,-3.66696 c 10.13831,-11.00089 15.09946,-25.66939 15.09946,-40.55261 l 53.49531,-0.43204 c 0,27.61055 -9.7067,55.43648 -29.1201,76.79192 z m 15.09946,-40.55261 c 0,-14.88409 -4.96115,-29.76796 -15.09946,-40.98487 l 39.90563,-36.02308 c 19.19782,21.35502 28.68914,48.96578 28.68914,76.57634 z m -15.09946,-40.98487 c -1.29397,-1.29397 -2.58837,-2.58837 -3.66697,-3.66697 l 36.02308,-39.90584 c 2.80375,2.37278 5.17652,4.96137 7.54952,7.54973 z m -3.66697,-3.66697 C 390.25822,197.45376 379.90453,193.571 369.33461,193.571 l 0.86408,-53.49531 c 23.08037,0 46.16139,8.41252 64.92781,25.45336 z M 369.33461,193.571 c -10.13832,0 -20.49222,3.66696 -29.12033,11.43271 L 304.4068,165.52905 c 18.98223,-17.04084 42.27905,-25.66916 65.79103,-25.45336 z m -29.12033,11.43271 c -1.29397,1.29397 -2.5888,2.58837 -3.88298,3.88256 l -39.25865,-35.80749 c 2.37279,-2.80416 4.74557,-5.17695 7.33415,-7.54973 z"
     style="fill:#000000;fill-opacity:1;fill-rule:nonzero;stroke:none" />
  <path
     inkscape:connector-curvature="0"
     id="path3602"
     d="m 388.10104,589.82547 c -5.82372,13.5899 0.64805,29.33635 14.23689,34.94512 13.80527,5.60814 29.33634,-1.07794 35.16049,-14.66849 z m 0,0 180.97902,-433.14033 49.39675,20.06082 L 437.49842,610.1021 Z M 618.47681,176.74596 c 5.82436,-13.58969 -0.64806,-29.33635 -14.2369,-34.7291 -13.58904,-5.60835 -29.3357,0.86193 -35.15985,14.66828 z"
     style="fill:#000000;fill-opacity:1;fill-rule:nonzero;stroke:none" />
  <path
     inkscape:connector-curvature="0"
     id="path3604"
     d="m 603.80895,476.1479 c -9.92272,11.00089 -14.88387,25.66938 -15.09946,40.55326 l -53.49596,0.21601 c 0.21602,-27.61056 9.92294,-55.2211 29.33635,-76.57654 z m -15.09946,40.55326 c 0,14.88322 5.17674,29.55172 15.09946,40.7682 l -39.90627,36.02308 c -19.19782,-21.13921 -28.68915,-48.96515 -28.68915,-76.57591 z m 15.09946,40.7682 c 1.29397,1.50998 2.58837,2.5888 3.88256,3.88298 l -36.23867,39.69026 c -2.58902,-2.373 -5.17717,-4.96115 -7.55016,-7.55016 z m 3.88256,3.88298 c 8.62853,7.76553 19.19781,11.86411 29.55171,11.86411 l -0.64805,53.49531 c -23.2966,0 -46.37698,-8.62853 -65.14341,-25.66916 z m 29.55171,11.86411 c 10.35434,0 20.70824,-3.88298 29.33636,-11.64852 l 35.59146,39.47467 c -18.9818,17.25664 -42.27841,25.66916 -65.5748,25.66916 z m 29.33636,-11.64852 c 1.29397,-1.07795 2.58879,-2.37277 3.66696,-3.66696 l 39.47466,35.80769 c -2.37278,2.58816 -4.96115,5.17653 -7.55016,7.33394 z m 3.66696,-3.66696 c 9.92272,-11.00089 15.09946,-25.66939 15.09946,-40.55283 l 53.49596,-0.43204 c 0,27.61055 -9.70735,55.4367 -29.12076,76.79192 z M 685.346,517.34814 c 0,-14.88387 -4.96114,-29.76774 -15.09946,-40.98486 l 39.90627,-36.02308 c 19.19782,21.35523 28.68915,48.96577 28.68915,76.57633 z m -15.09946,-40.98486 c -1.29398,-1.29397 -2.58837,-2.58816 -3.66696,-3.66697 l 36.02308,-39.90563 c 2.80438,2.37278 5.17716,4.96115 7.55015,7.54952 z m -3.66696,-3.66697 c -8.84413,-7.98092 -19.19804,-11.86347 -29.76732,-11.86347 l 0.86193,-53.71154 c 23.08037,0.21602 46.16139,8.62811 64.92782,25.66938 z m -29.76732,-11.86347 c -10.13831,-0.21601 -20.49222,3.66697 -29.12075,11.4325 l -35.80707,-39.47466 c 18.98181,-17.04127 42.27841,-25.66938 65.7904,-25.66938 z m -29.12075,11.4325 c -1.29397,1.29397 -2.58837,2.58837 -3.88256,3.88256 l -39.25907,-35.8077 c 2.37277,-2.80374 4.74555,-5.17674 7.33456,-7.54952 z"
     style="fill:#000000;fill-opacity:1;fill-rule:nonzero;stroke:none" />
</svg>
