<svg stroke="currentColor" fill="currentColor"
   xmlns="http://www.w3.org/2000/svg"
   width="1000"
   height="1000"
   viewBox="34.1 40.1 931.7 931.7">
  <g
     transform="matrix(2.3748502,0,0,2.3748502,1485.6411,-1771.974)">
    <path
       style="fill-opacity:1;fill-rule:nonzero;stroke:none;stroke-width:1.09445548"
       d="m -578.8184,1087.6507 c 0,5.4696 3.66298,9.8575 8.22894,9.8575 4.51597,0 8.17879,-4.3879 8.17879,-9.8575 z m 0,0 V 814.36302 h 16.40773 v 273.28768 z m 16.40773,-273.28768 c 0,-5.4105 -3.66282,-9.79658 -8.17879,-9.79658 -4.56596,0 -8.22894,4.38608 -8.22894,9.79658 z" />
    <path
       style="fill:none;stroke-width:16.35749817px;stroke-linecap:round;stroke-linejoin:round;stroke-miterlimit:4;stroke-dasharray:none;stroke-opacity:1"
       d="m -570.58946,801.455 21.02395,27.74771" />
    <path
       style="fill:none;stroke-width:16.35749817px;stroke-linecap:round;stroke-linejoin:round;stroke-miterlimit:4;stroke-dasharray:none;stroke-opacity:1"
       d="M -591.6133,829.20271 -570.58946,801.455" />
    <path
       style="fill-opacity:1;fill-rule:nonzero;stroke:none;stroke-width:1.16462314"
       d="m -562.41067,1087.6507 c -6.19303,0 -11.1613,3.6632 -11.1613,8.1786 0,4.5662 4.96827,8.2294 11.1613,8.2294 z m 0,0 h 309.45356 v 16.408 h -309.45356 z m 309.45356,16.408 c 6.12468,0 11.09328,-3.6632 11.09328,-8.2294 0,-4.5154 -4.9686,-8.1786 -11.09328,-8.1786 z" />
    <path
       style="fill:none;stroke-width:16.35749817px;stroke-linecap:round;stroke-linejoin:round;stroke-miterlimit:4;stroke-dasharray:none;stroke-opacity:1"
       d="m -238.75373,1095.8293 -27.74761,21.0741" />
    <path
       style="fill:none;stroke-width:16.35749817px;stroke-linecap:round;stroke-linejoin:round;stroke-miterlimit:4;stroke-dasharray:none;stroke-opacity:1"
       d="m -266.50134,1074.806 27.74761,21.0233" />
    <path
       style="fill:none;stroke-width:12.63237572;stroke-linecap:butt;stroke-linejoin:miter;stroke-miterlimit:4;stroke-dasharray:none;stroke-opacity:1"
       d="m -536.61394,975.61742 c 35.19241,0.97757 24.76316,-84.73295 52.3837,-83.49987 23.32074,1.04112 19.94888,92.81072 66.87949,92.29798 68.69742,-0.75055 49.87452,43.10277 79.18293,43.01287 16.52039,-0.09 17.56345,-43.96287 37.1865,-42.95712 27.82821,1.42629 51.4846,2.09968 62.46779,1.26385" />
    </g>
</svg>
