<?xml version="1.0" encoding="UTF-8" standalone="no"?>
<!-- Created with Inkscape (http://www.inkscape.org/) -->

<svg stroke="currentColor" fill="currentColor"
   xmlns:dc="http://purl.org/dc/elements/1.1/"
   xmlns:cc="http://creativecommons.org/ns#"
   xmlns:rdf="http://www.w3.org/1999/02/22-rdf-syntax-ns#"
   xmlns:svg="http://www.w3.org/2000/svg"
   xmlns="http://www.w3.org/2000/svg"
   xmlns:sodipodi="http://sodipodi.sourceforge.net/DTD/sodipodi-0.dtd"
   xmlns:inkscape="http://www.inkscape.org/namespaces/inkscape"
   width="1000"
   height="1000"
   id="svg4152"
   version="1.1"
   inkscape:version="0.92.2 5c3e80d, 2017-08-06"
   viewBox="0 0 1000 1000"
   sodipodi:docname="assignment.svg">
  <defs
     id="defs5498">
    <marker
       inkscape:isstock="true"
       style="overflow:visible"
       id="marker4233"
       refX="0.0"
       refY="0.0"
       orient="auto"
       inkscape:stockid="TriangleOutL">
      <path
         transform="scale(0.8)"
         style="fill-rule:evenodd;stroke-width:1pt;stroke-opacity:1;fill-opacity:1"
         d="M 5.77,0.0 L -2.88,5.0 L -2.88,-5.0 L 5.77,0.0 z "
         id="path4235" />
    </marker>
    <marker
       inkscape:isstock="true"
       style="overflow:visible"
       id="marker4755"
       refX="0.0"
       refY="0.0"
       orient="auto"
       inkscape:stockid="TriangleOutL">
      <path
         transform="scale(0.8)"
         style="fill-rule:evenodd;stroke-width:1pt;stroke-opacity:1;fill-opacity:1"
         d="M 5.77,0.0 L -2.88,5.0 L -2.88,-5.0 L 5.77,0.0 z "
         id="path4757" />
    </marker>
    <marker
       inkscape:stockid="Arrow1Lend"
       orient="auto"
       refY="0.0"
       refX="0.0"
       id="Arrow1Lend"
       style="overflow:visible;"
       inkscape:isstock="true">
      <path
         id="path4164"
         d="M 0.0,0.0 L 5.0,-5.0 L -12.5,0.0 L 5.0,5.0 L 0.0,0.0 z "
         style="fill-rule:evenodd;stroke-width:1pt;stroke-opacity:1;fill-opacity:1"
         transform="scale(0.8) rotate(180) translate(12.5,0)" />
    </marker>
    <marker
       inkscape:stockid="Arrow2Lend"
       orient="auto"
       refY="0.0"
       refX="0.0"
       id="Arrow2Lend"
       style="overflow:visible;"
       inkscape:isstock="true">
      <path
         id="path4182"
         style="fill-rule:evenodd;stroke-width:0.625;stroke-linejoin:round;stroke-opacity:1;fill-opacity:1"
         d="M 8.7185878,4.0337352 L -2.2072895,0.016013256 L 8.7185884,-4.0017078 C 6.9730900,-1.6296469 6.9831476,1.6157441 8.7185878,4.0337352 z "
         transform="scale(1.1) rotate(180) translate(1,0)" />
    </marker>
    <pattern
       y="0"
       x="0"
       height="6"
       width="6"
       patternUnits="userSpaceOnUse"
       id="EMFhbasepattern" />
    <filter
       inkscape:collect="always"
       style="color-interpolation-filters:sRGB"
       id="filter907"
       x="-0.039596961"
       width="1.0791939"
       y="-0.12377968"
       height="1.2475594">
      <feGaussianBlur
         inkscape:collect="always"
         stdDeviation="1.5270996"
         id="feGaussianBlur909" />
    </filter>
  </defs>
  <sodipodi:namedview
     inkscape:window-height="1035"
     inkscape:window-width="3840"
     inkscape:pageshadow="2"
     inkscape:pageopacity="0.0"
     borderopacity="1.0"
     bordercolor="#666666"
     pagecolor="#ffffff"
     id="base"
     showgrid="false"
     showguides="false"
     inkscape:guide-bbox="true"
     inkscape:zoom="1.2183223"
     inkscape:cx="-270.01591"
     inkscape:cy="632.46663"
     inkscape:window-x="0"
     inkscape:window-y="1"
     inkscape:current-layer="g6050"
     inkscape:window-maximized="1"
     objecttolerance="20">
    <sodipodi:guide
       orientation="horizontal"
       position="200"
       id="guide5596"
       inkscape:locked="false" />
    <inkscape:grid
       type="xygrid"
       id="grid3430"
       empspacing="50" />
    <sodipodi:guide
       position="550,1000"
       orientation="0,1"
       id="guide4169"
       inkscape:locked="false" />
  </sodipodi:namedview>
  <metadata
     id="metadata5594">
    <rdf:RDF>
      <cc:Work
         rdf:about="">
        <dc:format>image/svg+xml</dc:format>
        <dc:type
           rdf:resource="http://purl.org/dc/dcmitype/StillImage" />
        <dc:title />
      </cc:Work>
    </rdf:RDF>
  </metadata>
  <g
     id="g6050"
     transform="matrix(2.3748502,0,0,2.3748502,1485.6411,-1771.974)">
    <path
       style="fill-opacity:1;fill-rule:nonzero;stroke:none;stroke-width:1.09445548"
       d="m -578.8184,1087.6507 c 0,5.4696 3.66298,9.8575 8.22894,9.8575 4.51597,0 8.17879,-4.3879 8.17879,-9.8575 z m 0,0 V 814.36302 h 16.40773 v 273.28768 z m 16.40773,-273.28768 c 0,-5.4105 -3.66282,-9.79658 -8.17879,-9.79658 -4.56596,0 -8.22894,4.38608 -8.22894,9.79658 z"
       id="path5963"
       inkscape:connector-curvature="0" />
    <path
       style="fill:none;stroke-width:16.35749817px;stroke-linecap:round;stroke-linejoin:round;stroke-miterlimit:4;stroke-dasharray:none;stroke-opacity:1"
       d="m -570.58946,801.455 21.02395,27.74771"
       id="path5965"
       inkscape:connector-curvature="0" />
    <path
       style="fill:none;stroke-width:16.35749817px;stroke-linecap:round;stroke-linejoin:round;stroke-miterlimit:4;stroke-dasharray:none;stroke-opacity:1"
       d="M -591.6133,829.20271 -570.58946,801.455"
       id="path5967"
       inkscape:connector-curvature="0" />
    <path
       style="fill-opacity:1;fill-rule:nonzero;stroke:none;stroke-width:1.16462314"
       d="m -562.41067,1087.6507 c -6.19303,0 -11.1613,3.6632 -11.1613,8.1786 0,4.5662 4.96827,8.2294 11.1613,8.2294 z m 0,0 h 309.45356 v 16.408 h -309.45356 z m 309.45356,16.408 c 6.12468,0 11.09328,-3.6632 11.09328,-8.2294 0,-4.5154 -4.9686,-8.1786 -11.09328,-8.1786 z"
       id="path5969"
       inkscape:connector-curvature="0" />
    <path
       style="fill:none;stroke-width:16.35749817px;stroke-linecap:round;stroke-linejoin:round;stroke-miterlimit:4;stroke-dasharray:none;stroke-opacity:1"
       d="m -238.75373,1095.8293 -27.74761,21.0741"
       id="path5971"
       inkscape:connector-curvature="0" />
    <path
       style="fill:none;stroke-width:16.35749817px;stroke-linecap:round;stroke-linejoin:round;stroke-miterlimit:4;stroke-dasharray:none;stroke-opacity:1"
       d="m -266.50134,1074.806 27.74761,21.0233"
       id="path5973"
       inkscape:connector-curvature="0" />
    <path
       style="fill:none;stroke-width:12.63237572;stroke-linecap:butt;stroke-linejoin:miter;stroke-miterlimit:4;stroke-dasharray:none;stroke-opacity:1"
       d="m -536.61394,975.61742 c 35.19241,0.97757 24.76316,-84.73295 52.3837,-83.49987 23.32074,1.04112 19.94888,92.81072 66.87949,92.29798 68.69742,-0.75055 49.87452,43.10277 79.18293,43.01287 16.52039,-0.09 17.56345,-43.96287 37.1865,-42.95712 27.82821,1.42629 51.4846,2.09968 62.46779,1.26385"
       id="path857"
       inkscape:connector-curvature="0"
       sodipodi:nodetypes="csscsc" />
    <flowRoot
       xml:space="preserve"
       id="flowRoot859"
       transform="matrix(0.42107919,0,0,0.42107919,-534.65881,975.86965)"><flowRegion
         id="flowRegion861"
         ><rect
           id="rect863"
           width="659.32745"
           height="269.30276"
           x="232.15755"
           y="-434.73361"
           /></flowRegion><flowPara
         id="flowPara865"
         >TGATGA</flowPara></flowRoot>  </g>
</svg>
