<?xml version="1.0" encoding="UTF-8" standalone="no"?>
<!-- Generator: Adobe Illustrator 15.0.0, SVG Export Plug-In . SVG Version: 6.00 Build 0)  -->

<svg stroke="currentColor" fill="currentColor"
   xmlns:dc="http://purl.org/dc/elements/1.1/"
   xmlns:cc="http://creativecommons.org/ns#"
   xmlns:rdf="http://www.w3.org/1999/02/22-rdf-syntax-ns#"
   xmlns:svg="http://www.w3.org/2000/svg"
   xmlns="http://www.w3.org/2000/svg"
   xmlns:sodipodi="http://sodipodi.sourceforge.net/DTD/sodipodi-0.dtd"
   xmlns:inkscape="http://www.inkscape.org/namespaces/inkscape"
   version="1.1"
   id="svg4152"
   sodipodi:docname="3d-model-text.svg"
   inkscape:version="0.91 r13725"
   x="0px"
   y="0px"
   width="1000px"
   height="1000px"
   viewBox="0 0 1000 1000"
   enable-background="new 0 0 1000 1000"
   xml:space="preserve"><metadata
     id="metadata9"><rdf:RDF><cc:Work
         rdf:about=""><dc:format>image/svg+xml</dc:format><dc:type
           rdf:resource="http://purl.org/dc/dcmitype/StillImage" /></cc:Work></rdf:RDF></metadata><defs
     id="defs7" /><sodipodi:namedview
     pagecolor="#ffffff"
     bordercolor="#666666"
     borderopacity="1"
     objecttolerance="10"
     gridtolerance="10"
     guidetolerance="10"
     inkscape:pageopacity="0"
     inkscape:pageshadow="2"
     inkscape:window-width="1868"
     inkscape:window-height="1113"
     id="namedview5"
     showgrid="false"
     inkscape:zoom="0.947"
     inkscape:cx="500"
     inkscape:cy="500"
     inkscape:window-x="0"
     inkscape:window-y="0"
     inkscape:window-maximized="0"
     inkscape:current-layer="svg4152" /><path
     d="m 404.51403,595.7029 c 0,27.632 -5.257,52.182 -15.784,73.675 -10.526,21.339 -25.287,39.323 -44.146,53.941 -18.859,14.464 -41.364,25.573 -67.674,33.174 -26.316,7.602 -54.964,11.264 -86.104,11.264 -18.853,0 -36.54,-1.319 -53.062,-3.949 -16.521,-2.782 -31.139,-6.138 -43.853996,-10.085 -12.716,-4.093 -23.242,-8.184 -31.568,-12.43 -8.189,-4.378 -13.596,-7.602 -16.225,-9.943 -2.64,-2.189 -4.537,-4.818 -5.709,-7.602 -1.314,-2.914 -2.486,-6.28 -3.509,-10.087 -1.023,-3.938 -1.749,-8.767 -2.188,-14.618 -0.44,-5.841 -0.583,-12.857 -0.583,-21.194 0,-13.74 1.166,-23.243 3.36,-28.5 2.338,-5.269 5.847,-7.887 10.378,-7.887 2.777,0 7.749,1.891 14.761,5.841 7.018,3.794 15.938,7.897 26.75,12.429 10.822996,4.376 23.537996,8.48 38.156996,12.418 14.47,3.805 31.134,5.698 49.696,5.698 15.641,0 29.533,-1.894 41.517,-5.545 11.984,-3.663 22.213,-8.921 30.551,-15.652 8.48,-6.721 14.761,-14.761 18.853,-24.407 4.097,-9.504 6.291,-20.173 6.291,-31.867 0,-12.858 -2.634,-24.407 -7.6,-34.637 -4.972,-10.383 -12.429,-19.15 -22.219,-26.464 -9.801,-7.162 -22.225,-12.859 -37.277,-16.808 -14.916,-4.092 -32.603,-5.996 -52.918,-5.996 l -47.947,0 c -3.651,0 -6.868996,-0.583 -9.349996,-1.605 -2.64,-0.88 -4.829,-3.068 -6.434,-6.137 -1.755,-3.223 -2.926,-7.458 -3.658,-13.013 -0.731,-5.698 -1.023,-12.869 -1.023,-21.636 0,-8.326 0.292,-15.058 1.023,-20.459 0.731,-5.268 1.903,-9.36 3.36,-12.144 1.612,-2.915 3.657,-4.818 5.995,-5.984 2.486,-1.176 5.411996,-1.759 8.771996,-1.759 l 48.381,0 c 16.664,0 31.282,-1.903 44.151,-5.698 12.858,-3.949 23.682,-9.361 32.305,-16.521 8.767,-7.16 15.345,-15.785 20.024,-25.868 4.527,-10.234 6.726,-21.35 6.726,-33.626 0,-9.502 -1.462,-18.418 -4.68,-26.75 -3.069,-8.475 -7.75,-15.79 -13.887,-21.922 -6.138,-6.138 -14.036,-10.966 -23.825,-14.48 -9.646,-3.652 -21.053,-5.406 -34.208,-5.406 -14.91,0 -28.797,2.194 -41.952,6.583 -13.155,4.532 -24.847,9.354 -35.374,14.618 -10.383996,5.264 -19.292996,10.229 -26.458996,14.761 -7.309,4.538 -12.721,6.864 -16.076,6.864 -2.343,0 -4.389,-0.583 -5.995,-1.457 -1.759,-1.028 -3.217,-2.92 -4.388,-5.846 -1.023,-2.783 -1.903,-7.018 -2.486,-12.429 -0.583,-5.407 -0.88,-12.419 -0.88,-20.899 0,-7.155 0.154,-13.155 0.44,-17.83 0.297,-4.681 0.88,-8.635 1.76,-11.847 0.726,-3.063 1.897,-5.846 3.212,-8.034 1.171,-2.338 3.366,-4.818 6.138,-7.601 2.926,-2.628 8.778,-6.726 17.544,-12.132 8.921,-5.417 20.03,-10.675 33.471996,-15.79 13.452,-5.263 28.802,-9.503 46.483,-13.155 17.543,-3.503 36.551,-5.269 57.158,-5.269 26.756,0 50.581,3.068 71.337,9.366 20.612,6.281 38.003,15.344 52.181,27.185 14.178,11.835 24.854,26.454 32.163,43.707 7.16,17.247 10.812,36.694 10.812,58.467 0,16.812 -2.046,32.448 -6.43,47.066 -4.24,14.622 -10.521,27.633 -18.71,39.041 -8.332,11.396 -18.709,21.042 -31.133,29.082 -12.43,8.041 -26.75,14.036 -42.975,17.984 l 0,1.309 c 19.293,2.2 36.837,7.16 52.181,14.772 15.498,7.601 28.505,17.093 39.175,28.5 10.675,11.396 19.001,24.266 24.704,38.74 5.708,14.321 8.479,29.82 8.479,46.483 l 0,0 z m 558.54,-122.94 0,0 c 0,50.73 -6.721,94.287 -20.019,130.398 -13.305,36.101 -32.306,65.633 -57.158,88.435 -24.854,22.802 -54.959,39.609 -90.482,50.278 -35.665,10.682 -77.914,16.081 -127.026,16.081 l -132.29,0 c -9.504,0 -17.396,-2.782 -23.825,-8.326 -6.435,-5.555 -9.651,-14.618 -9.651,-27.19 l 0,-483.114 c 0,-12.578 3.217,-21.636 9.651,-27.191 6.429,-5.555 14.321,-8.332 23.825,-8.332 l 142.079,0 c 49.409,0 91.362,5.846 125.713,17.395 34.351,11.544 63.444,28.654 86.978,51.307 23.533,22.659 41.512,50.719 53.793,84.196 12.276,33.333 18.412,72.065 18.412,116.063 l 0,0 z m -116.494,3.805 0,0 c 0,-26.311 -3.075,-50.575 -9.213,-73.233 -6.143,-22.519 -16.081,-42.103 -29.676,-58.613 -13.448,-16.526 -30.838,-29.54 -52.188,-38.746 -21.19,-9.349 -49.112,-14.034 -83.755,-14.034 l -56.861,0 0,376.997 58.615,0 c 30.843,0 56.867,-4.093 77.91,-11.99 21.194,-8.041 38.739,-20.172 52.917,-36.254 14.179,-16.081 24.705,-36.244 31.723,-60.222 7.019,-23.979 10.528,-51.895 10.528,-83.905 z"
     id="path3"
     inkscape:connector-curvature="0"
     style="fill:#000002" /></svg>