<?xml version="1.0" encoding="UTF-8" standalone="no"?>
<svg stroke="currentColor" fill="currentColor"
   xmlns:dc="http://purl.org/dc/elements/1.1/"
   xmlns:cc="http://creativecommons.org/ns#"
   xmlns:rdf="http://www.w3.org/1999/02/22-rdf-syntax-ns#"
   xmlns:svg="http://www.w3.org/2000/svg"
   xmlns="http://www.w3.org/2000/svg"
   xmlns:sodipodi="http://sodipodi.sourceforge.net/DTD/sodipodi-0.dtd"
   xmlns:inkscape="http://www.inkscape.org/namespaces/inkscape"
   width="1000"
   height="1000"
   id="svg4152"
   version="1.1"
   inkscape:version="1.0.1 (c497b03c, 2020-09-10)"
   viewBox="0 0 1000 1000"
   sodipodi:docname="abundance.svg">
  <defs
     id="defs5498">
    <marker
       inkscape:isstock="true"
       style="overflow:visible"
       id="marker4233"
       refX="0.0"
       refY="0.0"
       orient="auto"
       inkscape:stockid="TriangleOutL">
      <path
         transform="scale(0.8)"
         style="fill-rule:evenodd;stroke-width:1pt;stroke-opacity:1;fill-opacity:1"
         d="M 5.77,0.0 L -2.88,5.0 L -2.88,-5.0 L 5.77,0.0 z "
         id="path4235" />
    </marker>
    <marker
       inkscape:isstock="true"
       style="overflow:visible"
       id="marker4755"
       refX="0.0"
       refY="0.0"
       orient="auto"
       inkscape:stockid="TriangleOutL">
      <path
         transform="scale(0.8)"
         style="fill-rule:evenodd;stroke-width:1pt;stroke-opacity:1;fill-opacity:1"
         d="M 5.77,0.0 L -2.88,5.0 L -2.88,-5.0 L 5.77,0.0 z "
         id="path4757" />
    </marker>
    <marker
       inkscape:stockid="Arrow1Lend"
       orient="auto"
       refY="0.0"
       refX="0.0"
       id="Arrow1Lend"
       style="overflow:visible;"
       inkscape:isstock="true">
      <path
         id="path4164"
         d="M 0.0,0.0 L 5.0,-5.0 L -12.5,0.0 L 5.0,5.0 L 0.0,0.0 z "
         style="fill-rule:evenodd;stroke-width:1pt;stroke-opacity:1;fill-opacity:1"
         transform="scale(0.8) rotate(180) translate(12.5,0)" />
    </marker>
    <marker
       inkscape:stockid="Arrow2Lend"
       orient="auto"
       refY="0.0"
       refX="0.0"
       id="Arrow2Lend"
       style="overflow:visible;"
       inkscape:isstock="true">
      <path
         id="path4182"
         style="fill-rule:evenodd;stroke-width:0.625;stroke-linejoin:round;stroke-opacity:1;fill-opacity:1"
         d="M 8.7185878,4.0337352 L -2.2072895,0.016013256 L 8.7185884,-4.0017078 C 6.9730900,-1.6296469 6.9831476,1.6157441 8.7185878,4.0337352 z "
         transform="scale(1.1) rotate(180) translate(1,0)" />
    </marker>
    <pattern
       y="0"
       x="0"
       height="6"
       width="6"
       patternUnits="userSpaceOnUse"
       id="EMFhbasepattern" />
  </defs>
  <sodipodi:namedview
     inkscape:window-height="1035"
     inkscape:window-width="2257"
     inkscape:pageshadow="2"
     inkscape:pageopacity="0.0"
     borderopacity="1.0"
     bordercolor="#666666"
     pagecolor="#ffffff"
     id="base"
     showgrid="true"
     showguides="true"
     inkscape:guide-bbox="true"
     inkscape:zoom="0.70710678"
     inkscape:cx="401.95312"
     inkscape:cy="557.10887"
     inkscape:window-x="0"
     inkscape:window-y="23"
     inkscape:current-layer="svg4152"
     inkscape:window-maximized="0"
     objecttolerance="20"
     inkscape:document-rotation="0">
    <sodipodi:guide
       orientation="horizontal"
       position="200"
       id="guide5596"
       inkscape:locked="false" />
    <inkscape:grid
       type="xygrid"
       id="grid3430"
       empspacing="50" />
    <sodipodi:guide
       position="550,1000"
       orientation="0,1"
       id="guide4169"
       inkscape:locked="false" />
  </sodipodi:namedview>
  <metadata
     id="metadata5594">
    <rdf:RDF>
      <cc:Work
         rdf:about="">
        <dc:format>image/svg+xml</dc:format>
        <dc:type
           rdf:resource="http://purl.org/dc/dcmitype/StillImage" />
        <dc:title />
      </cc:Work>
    </rdf:RDF>
  </metadata>
  <g
     id="flowRoot26"
     style="font-style:normal;font-weight:normal;font-size:40px;line-height:1.25;font-family:sans-serif;letter-spacing:0px;word-spacing:0px;fill-opacity:1;stroke:none" />
  <g
     id="flowRoot34"
     style="font-style:normal;font-weight:normal;font-size:40px;line-height:1.25;font-family:sans-serif;letter-spacing:0px;word-spacing:0px;fill-opacity:1;stroke:none" />
  <g
     aria-label="32S"
     transform="scale(0.91884395,1.0883241)"
     id="text54"
     style="font-style:normal;font-weight:normal;font-size:36.7538px;line-height:1.25;font-family:sans-serif;letter-spacing:0px;word-spacing:0px;fill-opacity:1;stroke:none;stroke-width:0.918845">
    <path
       d="m 332.87321,245.55487 q 7.62112,6.53239 12.13159,15.24225 4.51046,8.70986 4.51046,23.17445 0,16.33099 -6.53239,30.48451 -6.37687,14.15352 -19.75272,24.26318 -13.06479,9.79859 -30.79558,15.08672 -17.57525,5.1326 -42.77163,5.1326 -28.77364,0 -49.45956,-4.51046 -20.53038,-4.51047 -33.43964,-10.10966 V 293.4591 h 6.06579 q 13.37586,8.08773 31.88431,13.99799 18.66399,5.91026 34.06178,5.91026 9.02092,0 19.59718,-1.3998 10.57626,-1.55533 17.88632,-6.53239 5.75473,-3.88833 9.17646,-9.332 3.42173,-5.59919 3.42173,-16.01992 0,-10.10966 -4.666,-15.55332 -4.66599,-5.59919 -12.28712,-7.93219 -7.62113,-2.48853 -18.35292,-2.64407 -10.73179,-0.31106 -19.90825,-0.31106 H 220.8893 v -41.37184 h 13.22032 q 12.13159,0 21.46358,-0.77766 9.33199,-0.77767 15.86439,-3.57727 6.84346,-2.95513 10.26519,-7.77666 3.42173,-4.97706 3.42173,-14.46459 0,-6.99899 -3.57726,-11.19839 -3.57727,-4.35493 -9.02093,-6.84346 -6.06579,-2.7996 -14.30905,-3.73279 -8.24326,-0.9332 -14.15353,-0.9332 -14.62012,0 -31.72877,5.13259 -17.10865,4.97706 -33.12857,14.46459 h -5.75473 v -50.23723 q 12.75372,-5.13259 34.6839,-9.79859 21.93019,-4.82153 44.4825,-4.82153 21.93018,0 38.4167,3.88833 16.48652,3.7328 27.21832,10.10966 12.75372,7.62113 18.97505,18.50845 6.22133,10.88733 6.22133,25.50745 0,19.28612 -11.97606,34.52837 -11.97606,15.08672 -31.57324,19.28612 v 2.17746 q 7.93219,1.08874 16.79758,4.35493 8.8654,3.2662 16.17546,9.48753 z"
       style="font-size:318.532px;baseline-shift:super;stroke-width:0.918845"
       id="path166" />
    <path
       d="M 582.03742,354.11705 H 400.21909 v -38.26117 q 20.84145,-15.08672 41.6829,-32.03984 20.99699,-16.95312 33.59518,-29.24024 18.81952,-18.19739 26.75171,-31.72878 7.93219,-13.53139 7.93219,-26.75171 0,-15.86439 -10.26519,-24.41871 -10.10966,-8.70986 -29.24024,-8.70986 -14.30906,0 -30.17345,5.91026 -15.70885,5.91026 -29.24024,15.08672 h -4.97706 v -51.48149 q 11.04286,-4.82153 32.50644,-9.64306 21.61912,-4.82153 43.23823,-4.82153 43.5493,0 66.41268,18.35292 22.86338,18.19738 22.86338,51.63702 0,21.93019 -11.04285,41.6829 -10.88733,19.75272 -33.43964,40.7497 -14.15353,13.06479 -28.46258,24.10765 -14.30906,10.88733 -20.37485,15.24226 h 104.05172 z"
       style="font-size:318.532px;baseline-shift:super;stroke-width:0.918845"
       id="path168" />
    <path
       d="m 928.59052,438.15314 q 0,52.6422 -44.74587,85.66321 -44.50658,32.78173 -121.07705,32.78173 -44.2673,0 -77.28832,-7.65704 -32.78173,-7.89633 -61.49565,-19.86047 v -85.42393 h 10.04987 q 28.47464,22.73186 63.6492,34.93528 35.41384,12.20342 67.95629,12.20342 8.3749,0 22.01401,-1.4357 13.63912,-1.43569 22.25329,-4.78565 10.52844,-4.30709 17.22836,-10.76772 6.9392,-6.46064 6.9392,-19.14262 0,-11.72485 -10.04988,-20.09975 -9.81059,-8.61418 -28.95321,-13.16055 -20.09974,-4.78565 -42.59232,-8.85346 -22.25329,-4.30709 -41.87447,-10.76772 -44.98515,-14.59625 -64.84562,-39.48165 -19.62118,-25.12468 -19.62118,-62.2135 0,-49.77081 44.50658,-81.11684 44.74587,-31.58532 114.85571,-31.58532 35.17455,0 69.39198,6.9392 34.45671,6.69991 59.5814,16.98907 v 82.07397 h -9.81059 q -21.53545,-17.22835 -52.88148,-28.71392 -31.10676,-11.72486 -63.6492,-11.72486 -11.48557,0 -22.97114,1.67498 -11.24629,1.4357 -21.77473,5.74279 -9.33203,3.58924 -16.03194,11.007 -6.69992,7.17848 -6.69992,16.51051 0,14.11768 10.76772,21.77473 10.76773,7.41776 40.67806,13.63911 19.62119,4.06781 37.56739,7.89633 18.18549,3.82852 39.00308,10.52844 40.91735,13.39983 60.29925,36.61025 19.62118,22.97114 19.62118,59.82068 z"
       
       id="path170" />
  </g>
  <g
     aria-label="94.93 %"
     id="text58"
     style="font-style:normal;font-weight:normal;font-size:40px;line-height:1.25;font-family:sans-serif;letter-spacing:0px;word-spacing:0px;fill-opacity:1;stroke:none">
    <path
       d="m 331.13504,828.15344 q 0,10.95703 -2.8125,20.39063 -2.8125,9.43359 -8.55469,15.8789 -6.21093,6.97266 -15.41015,10.48828 -9.19922,3.45704 -21.44532,3.45704 -4.33593,0 -9.375,-0.52735 -5.03906,-0.52734 -6.62109,-0.9375 v -17.16797 h 2.34375 q 1.75781,0.82032 4.98047,1.75782 3.28125,0.9375 8.90625,0.9375 4.57031,0 8.96484,-1.11329 4.39453,-1.17187 7.5586,-3.63281 3.45703,-2.63672 5.68359,-6.5625 2.22656,-3.98437 2.98828,-9.55078 -5.09765,2.92969 -9.49219,4.51172 -4.33593,1.52344 -10.83984,1.52344 -4.92187,0 -9.43359,-1.17188 -4.45313,-1.23047 -8.14453,-3.75 -4.86329,-3.45703 -7.79297,-9.08203 -2.8711,-5.68359 -2.8711,-14.29687 0,-14.00391 9.72657,-22.79297 9.78515,-8.84766 25.60546,-8.84766 8.14454,0 14.41407,2.16797 6.32812,2.10937 10.89843,6.50391 5.33204,5.03906 8.02735,12.83203 2.69531,7.79297 2.69531,18.98437 z m -22.44141,-3.28125 q 0,-7.14844 -1.40625,-11.71875 -1.34765,-4.6289 -3.75,-7.14844 -1.69921,-1.875 -3.92578,-2.69531 -2.22656,-0.82031 -4.6875,-0.82031 -2.28515,0 -4.39453,0.82031 -2.05078,0.76172 -3.98437,2.69531 -1.81641,1.875 -2.98828,4.92188 -1.11329,3.04687 -1.11329,7.26562 0,4.10157 1.23047,6.91407 1.23047,2.7539 3.39844,4.39453 2.05078,1.58203 4.80469,2.22656 2.8125,0.64453 6.09375,0.64453 2.63672,0 5.74219,-0.64453 3.10546,-0.70312 4.80468,-1.40625 0,-0.64453 0.0586,-1.81641 0.11718,-1.23046 0.11718,-3.63281 z"
       
       id="path153" />
    <path
       d="m 419.55301,856.57141 h -11.89453 v 20.33203 h -21.50391 v -20.33203 h -42.24609 v -16.52344 l 40.83984,-50.625 h 22.91016 v 51.21094 h 11.89453 z m -33.39844,-15.9375 v -31.52344 l -25.37109,31.52344 z"
       
       id="path155" />
    <path
       d="m 456.93582,876.66907 h -21.91406 v -23.02735 h 21.91406 z"
       
       id="path157" />
    <path
       d="m 545.11942,828.15344 q 0,10.95703 -2.8125,20.39063 -2.8125,9.43359 -8.55469,15.8789 -6.21094,6.97266 -15.41016,10.48828 -9.19922,3.45704 -21.44531,3.45704 -4.33594,0 -9.375,-0.52735 -5.03906,-0.52734 -6.62109,-0.9375 v -17.16797 h 2.34375 q 1.75781,0.82032 4.98046,1.75782 3.28125,0.9375 8.90625,0.9375 4.57032,0 8.96485,-1.11329 4.39453,-1.17187 7.55859,-3.63281 3.45703,-2.63672 5.6836,-6.5625 2.22656,-3.98437 2.98828,-9.55078 -5.09766,2.92969 -9.49219,4.51172 -4.33594,1.52344 -10.83984,1.52344 -4.92188,0 -9.4336,-1.17188 -4.45312,-1.23047 -8.14453,-3.75 -4.86328,-3.45703 -7.79297,-9.08203 -2.87109,-5.68359 -2.87109,-14.29687 0,-14.00391 9.72656,-22.79297 9.78516,-8.84766 25.60547,-8.84766 8.14453,0 14.41406,2.16797 6.32813,2.10937 10.89844,6.50391 5.33203,5.03906 8.02734,12.83203 2.69532,7.79297 2.69532,18.98437 z m -22.44141,-3.28125 q 0,-7.14844 -1.40625,-11.71875 -1.34766,-4.6289 -3.75,-7.14844 -1.69922,-1.875 -3.92578,-2.69531 -2.22656,-0.82031 -4.6875,-0.82031 -2.28516,0 -4.39453,0.82031 -2.05078,0.76172 -3.98438,2.69531 -1.8164,1.875 -2.98828,4.92188 -1.11328,3.04687 -1.11328,7.26562 0,4.10157 1.23047,6.91407 1.23047,2.7539 3.39844,4.39453 2.05078,1.58203 4.80468,2.22656 2.8125,0.64453 6.09375,0.64453 2.63672,0 5.74219,-0.64453 3.10547,-0.70312 4.80469,-1.40625 0,-0.64453 0.0586,-1.81641 0.11719,-1.23046 0.11719,-3.63281 z"
       
       id="path159" />
    <path
       d="m 623.75223,835.77063 q 2.87109,2.46094 4.57031,5.74219 1.69922,3.28125 1.69922,8.73047 0,6.15234 -2.46094,11.48437 -2.40234,5.33203 -7.4414,9.14063 -4.92188,3.6914 -11.60157,5.68359 -6.62109,1.93359 -16.11328,1.93359 -10.83984,0 -18.63281,-1.69922 -7.73438,-1.69921 -12.59766,-3.80859 V 853.8175 h 2.28516 q 5.03906,3.04688 12.01172,5.27344 7.03125,2.22656 12.83203,2.22656 3.39844,0 7.38281,-0.52734 3.98438,-0.58594 6.73828,-2.46094 2.16797,-1.46484 3.45703,-3.51562 1.28907,-2.10938 1.28907,-6.03516 0,-3.80859 -1.75782,-5.85937 -1.75781,-2.10938 -4.6289,-2.98828 -2.8711,-0.9375 -6.91406,-0.9961 -4.04297,-0.11719 -7.5,-0.11719 h -4.80469 v -15.58593 h 4.98047 q 4.57031,0 8.08593,-0.29297 3.51563,-0.29297 5.97657,-1.34766 2.57812,-1.11328 3.86718,-2.92969 1.28907,-1.875 1.28907,-5.44921 0,-2.63672 -1.34766,-4.21875 -1.34766,-1.64063 -3.39844,-2.57813 -2.28515,-1.05469 -5.39062,-1.40625 -3.10547,-0.35156 -5.33203,-0.35156 -5.50782,0 -11.95313,1.93359 -6.44531,1.875 -12.48047,5.44922 h -2.16797 v -18.92578 q 4.80469,-1.93359 13.06641,-3.69141 8.26172,-1.8164 16.75781,-1.8164 8.26172,0 14.47266,1.46484 6.21094,1.40625 10.25391,3.80859 4.80468,2.8711 7.14843,6.97266 2.34375,4.10156 2.34375,9.60938 0,7.26562 -4.51172,13.00781 -4.51171,5.68359 -11.89453,7.26562 v 0.82032 q 2.98828,0.41015 6.32813,1.64062 3.33984,1.23047 6.09375,3.57422 z"
        id="path161" />
    <path
       d="m 740.76395,815.96594 q 0,14.58985 -6.73828,21.6211 -6.73829,7.03125 -19.62891,7.03125 -13.30078,0 -20.03906,-7.08985 -6.67969,-7.14844 -6.67969,-21.32812 0,-14.47266 6.85547,-21.44532 6.85547,-7.03125 19.86328,-7.03125 13.125,0 19.74609,7.03125 6.6211,6.97266 6.6211,21.21094 z m 45.70312,-26.54297 -45.70312,87.2461 h -15.76172 l 45.70312,-87.2461 z m 37.08985,60.41016 q 0,14.58984 -6.73829,21.62109 -6.73828,7.03125 -19.6289,7.03125 -13.30078,0 -20.03906,-7.08984 -6.67969,-7.14844 -6.67969,-21.32813 0,-14.47265 6.85547,-21.44531 6.85547,-7.03125 19.86328,-7.03125 13.125,0 19.74609,7.03125 6.6211,6.97266 6.6211,21.21094 z M 723.47879,816.14172 q 0,-9.375 -2.16797,-12.65625 -2.16797,-3.28125 -7.08984,-3.28125 -4.92188,0 -7.08985,3.28125 -2.16796,3.28125 -2.16796,12.71485 0,9.43359 2.16796,12.71484 2.16797,3.28125 7.08985,3.28125 4.92187,0 7.08984,-3.28125 2.16797,-3.28125 2.16797,-12.77344 z m 82.79297,33.86719 q 0,-9.375 -2.16797,-12.65625 -2.16797,-3.28125 -7.08984,-3.28125 -4.92188,0 -7.08985,3.28125 -2.16797,3.28125 -2.16797,12.71484 0,9.4336 2.16797,12.71485 2.16797,3.28125 7.08985,3.28125 4.92187,0 7.08984,-3.28125 2.16797,-3.28125 2.16797,-12.77344 z"
       
       id="path163" />
  </g>
  <path
     style="fill-opacity:0;stroke-width:40;stroke-miterlimit:4;stroke-dasharray:none;stroke-opacity:1"
     d="M 103.11999,30 H 892 V 965.63605 H 103.11999 Z"
     id="rect6391-8"
     inkscape:connector-curvature="0" />
</svg>
