<svg stroke="currentColor" fill="currentColor"
   xmlns="http://www.w3.org/2000/svg"
   width="1000"
   height="1000"
   viewBox="170.2 75 654.5 654.5">
  <path
     d="m 498.03542,147.60101 c -151.63497,0 -274.55216,122.9168 -274.55216,274.675 0,151.63657 122.91719,274.55105 274.55216,274.55105 151.63374,0 274.67636,-122.91448 274.67636,-274.55105 0,-151.7582 -123.04262,-274.675 -274.67636,-274.675 z"
     style="fill:none;stroke-width:40.18309784;stroke-linecap:round;stroke-linejoin:round;stroke-miterlimit:4;stroke-dasharray:none;stroke-opacity:1" />
  <path
     d="m 321.39648,107.74246 c -54.7125,0 -99.15087,44.43837 -99.15087,99.15075 0,54.7121 44.43837,99.15048 99.15087,99.15048 54.71198,0 99.15036,-44.43838 99.15036,-99.15048 0,-54.71238 -44.43838,-99.15075 -99.15036,-99.15075 z"
     style="fill:none;stroke-width:41.37429047;stroke-linecap:round;stroke-linejoin:round;stroke-miterlimit:4;stroke-dasharray:none;stroke-opacity:1" />
  <path
     d="m 321.39648,125.31978 c -45.05733,0 -81.57355,36.51622 -81.57355,81.57343 0,45.05707 36.51622,81.57318 81.57355,81.57318 45.05695,0 81.57306,-36.51611 81.57306,-81.57318 0,-45.05721 -36.51611,-81.57343 -81.57306,-81.57343 z"
     style="fill:#fefefe;fill-opacity:1;fill-rule:evenodd;stroke:none;stroke-width:0.64154911;stroke-miterlimit:4;stroke-dasharray:none" />
  <path
     d="m 498.03542,294.9032 c -70.30909,0 -127.37319,56.94036 -127.37319,127.37281 0,70.30898 57.0641,127.25119 127.37319,127.25119 70.30972,0 127.37306,-56.94221 127.37306,-127.25119 0,-70.43245 -57.06334,-127.37281 -127.37306,-127.37281 z"
     style="fill:none;stroke-width:32.24177551;stroke-linecap:round;stroke-linejoin:round;stroke-miterlimit:4;stroke-dasharray:none;stroke-opacity:1" />
  <path
     d="m 269.65454,206.89321 103.48339,0"
     style="fill:none;stroke-width:35.02123642;stroke-linecap:round;stroke-linejoin:round;stroke-miterlimit:4;stroke-dasharray:none;stroke-opacity:1" />
  <path
     d="m 446.29386,422.27601 103.48167,0"
     style="fill:none;stroke-width:35.02123642;stroke-linecap:round;stroke-linejoin:round;stroke-miterlimit:4;stroke-dasharray:none;stroke-opacity:1" />
  <path
     d="m 498.03542,370.41121 0,103.6076"
     style="fill:none;stroke-width:35.02123642;stroke-linecap:round;stroke-linejoin:round;stroke-miterlimit:4;stroke-dasharray:none;stroke-opacity:1" />
</svg>
