<?xml version="1.0" encoding="utf-8"?>
<!-- Generator: Adobe Illustrator 15.0.0, SVG Export Plug-In . SVG Version: 6.00 Build 0)  -->
<!DOCTYPE svg PUBLIC "-//W3C//DTD SVG 1.1//EN" "http://www.w3.org/Graphics/SVG/1.1/DTD/svg11.dtd">
<svg stroke="currentColor" fill="currentColor" version="1.1"
	 id="svg4152" sodipodi:docname="icons.svg" inkscape:version="0.91 r13725" xmlns:dc="http://purl.org/dc/elements/1.1/" xmlns:cc="http://creativecommons.org/ns#" xmlns:rdf="http://www.w3.org/1999/02/22-rdf-syntax-ns#" xmlns:svg="http://www.w3.org/2000/svg" xmlns:sodipodi="http://sodipodi.sourceforge.net/DTD/sodipodi-0.dtd" xmlns:inkscape="http://www.inkscape.org/namespaces/inkscape"
	 xmlns="http://www.w3.org/2000/svg" xmlns:xlink="http://www.w3.org/1999/xlink" x="0px" y="0px" width="1000px" height="1000px"
	 viewBox="0 0 1000 1000" enable-background="new 0 0 1000 1000" xml:space="preserve">
<g>
	
		<path fill-rule="evenodd" clip-rule="evenodd" fill="none" stroke="#000002" stroke-width="65.8106" stroke-linecap="round" stroke-linejoin="round" stroke-miterlimit="22.9256" d="
		M499.757,948.085c246.683,0,447.882-201.198,447.882-447.892c0-246.688-201.199-447.886-447.882-447.886
		c-246.688,0-447.89,201.198-447.89,447.886C51.867,746.887,253.069,948.085,499.757,948.085z"/>
	<path fill-rule="evenodd" clip-rule="evenodd" fill="none" stroke="#000002" stroke-width="35.6102" stroke-miterlimit="10" d="
		M499.751,660.4c88.232,0,160.204-71.969,160.204-160.208c0-88.237-71.972-160.204-160.204-160.204s-160.196,71.967-160.196,160.204
		C339.555,588.432,411.52,660.4,499.751,660.4z"/>
	<path fill-rule="evenodd" clip-rule="evenodd" fill="#000002" d="M166.143,278.772c47.393,0,86.063-38.66,86.063-86.065
		c0-47.403-38.67-86.066-86.063-86.066c-47.413,0-86.069,38.663-86.069,86.066C80.074,240.112,118.73,278.772,166.143,278.772z"/>
	<g>
		<path d="M580.458,584.001c0,2.319-0.404,4.389-1.212,6.204c-0.805,1.816-1.891,3.328-3.254,4.538
			c-1.362,1.21-2.977,2.094-4.841,2.646s-3.755,0.831-5.675,0.831h-16.943c-3.532,0-6.58-0.351-9.153-1.057s-4.938-1.993-7.107-3.86
			c-2.17-1.863-4.257-4.385-6.273-7.564c-2.016-3.174-4.291-7.285-6.816-12.327l-48.704-91.521
			c-2.824-5.446-5.697-11.32-8.618-17.624c-2.928-6.302-5.55-12.429-7.873-18.379h-0.3c0.404,7.261,0.703,14.498,0.912,21.707
			c0.195,7.212,0.298,14.647,0.298,22.311v102.417c0,1.009-0.277,1.916-0.828,2.724c-0.555,0.807-1.516,1.488-2.878,2.041
			c-1.364,0.553-3.2,0.98-5.522,1.282c-2.323,0.304-5.292,0.456-8.923,0.456c-3.527,0-6.455-0.152-8.771-0.456
			c-2.323-0.302-4.139-0.729-5.453-1.282c-1.308-0.553-2.211-1.234-2.719-2.041c-0.508-0.808-0.758-1.715-0.758-2.724V416.387
			c0-4.74,1.391-8.293,4.159-10.666c2.775-2.367,6.176-3.553,10.21-3.553h21.33c3.833,0,7.06,0.33,9.682,0.984
			c2.622,0.657,4.973,1.738,7.032,3.25c2.073,1.514,4.013,3.606,5.829,6.278c1.814,2.675,3.679,5.977,5.591,9.91l38.126,71.552
			c2.211,4.337,4.409,8.6,6.58,12.785c2.168,4.185,4.255,8.371,6.271,12.557c2.018,4.186,3.986,8.296,5.9,12.331
			c1.918,4.032,3.782,8.067,5.604,12.101h0.146c-0.3-7.059-0.528-14.421-0.675-22.086c-0.154-7.665-0.237-14.978-0.237-21.939
			v-91.822c0-1.008,0.307-1.915,0.912-2.723c0.604-0.807,1.612-1.512,3.024-2.118c1.413-0.605,3.282-1.033,5.599-1.287
			c2.316-0.25,5.294-0.379,8.924-0.379c3.429,0,6.302,0.129,8.625,0.379c2.322,0.254,4.104,0.682,5.369,1.287
			c1.258,0.605,2.143,1.311,2.643,2.118c0.508,0.808,0.766,1.714,0.766,2.723V584.001z"/>
	</g>
</g>
</svg>
