<svg stroke="currentColor" fill="currentColor"
   xmlns="http://www.w3.org/2000/svg"
   width="1000"
   height="1000"
   viewBox="163.9 67.9 662.1 662.1">
  <g
     transform="matrix(1.5048184,0,0,1.5048184,-164.0697,-169.78059)">
    <path
       style="fill:none;stroke-width:35.63959885px;stroke-linecap:round;stroke-linejoin:round;stroke-miterlimit:4;stroke-dasharray:none;stroke-opacity:1"
       d="m 327.62874,186.94777 c 49.74228,-28.75231 139.38806,33.56235 200.28174,139.05973 60.89378,105.49771 69.96741,214.27488 20.3346,242.91836 C 498.50192,597.56934 408.85647,535.36319 347.9628,429.86548 287.06934,324.36777 277.99571,215.59061 327.62874,186.94777 Z" />
    <path
       style="fill:none;stroke-width:35.63959885px;stroke-linecap:round;stroke-linejoin:round;stroke-miterlimit:4;stroke-dasharray:none;stroke-opacity:1"
       d="M 628.92584,267.62875 C 657.56933,317.37104 595.36317,407.01682 489.86546,467.91049 384.36775,528.80428 275.59059,537.8779 246.94776,488.2451 218.19544,438.50194 280.5101,348.85649 386.00748,287.96281 491.50519,227.06935 600.28236,217.99573 628.92584,267.62875 Z" />
    <path
       style="fill:none;stroke-width:35;stroke-linecap:round;stroke-linejoin:round;stroke-miterlimit:4;stroke-dasharray:none;stroke-opacity:1"
       d="m 437.93647,338.79872 c -21.6461,0 -39.13776,17.49167 -39.13776,39.13777 0,21.6461 17.49166,39.13809 39.13776,39.13809 21.64611,0 39.1381,-17.49199 39.1381,-39.13809 0,-21.6461 -17.49199,-39.13777 -39.1381,-39.13777 z" />
  </g>
</svg>
