<svg stroke="currentColor" fill="currentColor"
   xmlns="http://www.w3.org/2000/svg"
   width="1000"
   height="1000"
   viewBox="0 0 1000 1000">
  <rect
     style="fill-opacity:0"
     width="150"
     height="50"
     x="352"
     y="-84" />
  <path
     d="m 499.31798,174.77991 c -180.08548,0 -326.06502,145.9797 -326.06502,326.21239 0,180.0881 145.97954,326.06506 326.06502,326.06506 180.08399,0 326.21243,-145.97696 326.21243,-326.06506 0,-180.23269 -146.12844,-326.21239 -326.21243,-326.21239 z"
     style="fill:none;stroke-width:40;stroke-linecap:round;stroke-linejoin:round;stroke-miterlimit:4;stroke-dasharray:none;stroke-opacity:1" />
  <path
     d="m 329.39648,129.74246 c -54.7125,0 -99.15087,44.43837 -99.15087,99.15075 0,54.7121 44.43837,99.15048 99.15087,99.15048 54.71198,0 99.15036,-44.43838 99.15036,-99.15048 0,-54.71238 -44.43838,-99.15075 -99.15036,-99.15075 z"
     style="fill:none;stroke-width:39.974;stroke-linecap:round;stroke-linejoin:round;stroke-miterlimit:4;stroke-dasharray:none;stroke-opacity:1" />
  <path
     d="m 329.39648,147.31978 c -45.05733,0 -81.57355,36.51622 -81.57355,81.57343 0,45.05707 36.51622,81.57318 81.57355,81.57318 45.05695,0 81.57306,-36.51611 81.57306,-81.57318 0,-45.05721 -36.51611,-81.57343 -81.57306,-81.57343 z"
     style="fill:#fefefe;fill-opacity:1;fill-rule:evenodd;stroke:none;stroke-width:0.64154911;stroke-miterlimit:4;stroke-dasharray:none" />
  <path
     d="M 275.65454,224.89321 H 379.13793"
     style="fill:none;stroke-width:30.021;stroke-linecap:round;stroke-linejoin:round;stroke-miterlimit:4;stroke-dasharray:none;stroke-opacity:1" />
  <circle
     cx="500.09833"
     cy="501.1543"
     r="25" />
</svg>
