<svg stroke="currentColor" fill="currentColor"
   xmlns="http://www.w3.org/2000/svg"
   width="1000"
   height="1000"
   viewBox="109.9 -4.7 813.9 813.9">
  <path
     d="m 490.25288,62.56236 c -187.6027,0 -339.69052,152.08782 -339.69052,339.69052 0,187.48013 152.08782,339.56967 339.69052,339.56967 187.48013,0 339.56967,-152.08954 339.56967,-339.56967 0,-187.6027 -152.08954,-339.69052 -339.56967,-339.69052 z"
     style="fill:none;stroke-width:37.12472534px;stroke-linecap:round;stroke-linejoin:round;stroke-miterlimit:4;stroke-dasharray:none;stroke-opacity:1" />
  <path
     d="m 490.25288,195.59249 c -114.21954,0 -206.66027,92.44085 -206.66027,206.66039 0,114.09833 92.44073,206.66102 206.66027,206.66102 114.09833,0 206.66102,-92.56269 206.66102,-206.66102 0,-114.21954 -92.56269,-206.66039 -206.66102,-206.66039 z"
     style="fill:none;stroke-width:37.12472534px;stroke-linecap:round;stroke-linejoin:round;stroke-miterlimit:4;stroke-dasharray:none;stroke-opacity:1" />
  <path
     d="m 490.25288,326.2718 c -41.95039,0 -75.98108,34.03069 -75.98108,75.98108 0,41.95273 34.03069,75.85778 75.98108,75.85778 41.95273,0 75.85778,-33.90505 75.85778,-75.85778 0,-41.95039 -33.90505,-75.98108 -75.85778,-75.98108 z"
     style="fill:none;stroke-width:37.12472534px;stroke-linecap:round;stroke-linejoin:round;stroke-miterlimit:4;stroke-dasharray:none;stroke-opacity:1" />
  <path
     d="m 490.25288,326.2718 c -41.95039,0 -75.98108,34.03069 -75.98108,75.98108 0,41.95273 34.03069,75.85778 75.98108,75.85778 41.95273,0 75.85778,-33.90505 75.85778,-75.85778 0,-41.95039 -33.90505,-75.98108 -75.85778,-75.98108 z"
     style="fill-opacity:1;fill-rule:evenodd;stroke:none" />
  <path
     d="m 490.25288,148.32046 c 27.47445,0 49.8723,22.27502 49.8723,49.87094 0,27.47212 -22.39785,49.87095 -49.8723,49.87095 -27.5953,0 -49.87033,-22.39883 -49.87033,-49.87095 0,-27.59592 22.27503,-49.87094 49.87033,-49.87094 z"
     style="fill-opacity:1;fill-rule:evenodd;stroke:none" />
  <path
     d="m 490.25288,556.31974 c 27.47445,0 49.8723,22.40128 49.8723,49.87229 0,27.59568 -22.39785,49.87242 -49.8723,49.87242 -27.5953,0 -49.87033,-22.27674 -49.87033,-49.87242 0,-27.47101 22.27503,-49.87229 49.87033,-49.87229 z"
     style="fill-opacity:1;fill-rule:evenodd;stroke:none" />
  <path
     d="m 833.16073,352.38255 c 27.59912,0 49.87242,22.27503 49.87242,49.87033 0,27.47445 -22.2733,49.8723 -49.87242,49.8723 -27.59567,0 -49.86885,-22.39785 -49.86885,-49.8723 0,-27.5953 22.27318,-49.87033 49.86885,-49.87033 z"
     style="fill-opacity:1;fill-rule:evenodd;stroke:none" />
</svg>
