<?xml version="1.0" encoding="UTF-8" standalone="no"?>
<!-- Created with Inkscape (http://www.inkscape.org/) -->

<svg
   xmlns:dc="http://purl.org/dc/elements/1.1/"
   xmlns:cc="http://creativecommons.org/ns#"
   xmlns:rdf="http://www.w3.org/1999/02/22-rdf-syntax-ns#"
   xmlns:svg="http://www.w3.org/2000/svg"
   xmlns="http://www.w3.org/2000/svg"
   xmlns:sodipodi="http://sodipodi.sourceforge.net/DTD/sodipodi-0.dtd"
   xmlns:inkscape="http://www.inkscape.org/namespaces/inkscape"
   width="1000"
   height="1000"
   id="svg4152"
   version="1.1"
   inkscape:version="0.91 r13725"
   viewBox="0 0 1000 1000"
   sodipodi:docname="structure-conformers.svg">
  <defs
     id="defs5498">
    <marker
       inkscape:isstock="true"
       style="overflow:visible"
       id="marker4233"
       refX="0.0"
       refY="0.0"
       orient="auto"
       inkscape:stockid="TriangleOutL">
      <path
         transform="scale(0.8)"
         style="fill-rule:evenodd;stroke:#000000;stroke-width:1pt;stroke-opacity:1;fill:#000000;fill-opacity:1"
         d="M 5.77,0.0 L -2.88,5.0 L -2.88,-5.0 L 5.77,0.0 z "
         id="path4235" />
    </marker>
    <marker
       inkscape:isstock="true"
       style="overflow:visible"
       id="marker4755"
       refX="0.0"
       refY="0.0"
       orient="auto"
       inkscape:stockid="TriangleOutL">
      <path
         transform="scale(0.8)"
         style="fill-rule:evenodd;stroke:#000000;stroke-width:1pt;stroke-opacity:1;fill:#000000;fill-opacity:1"
         d="M 5.77,0.0 L -2.88,5.0 L -2.88,-5.0 L 5.77,0.0 z "
         id="path4757" />
    </marker>
    <marker
       inkscape:stockid="Arrow1Lend"
       orient="auto"
       refY="0.0"
       refX="0.0"
       id="Arrow1Lend"
       style="overflow:visible;"
       inkscape:isstock="true">
      <path
         id="path4164"
         d="M 0.0,0.0 L 5.0,-5.0 L -12.5,0.0 L 5.0,5.0 L 0.0,0.0 z "
         style="fill-rule:evenodd;stroke:#000000;stroke-width:1pt;stroke-opacity:1;fill:#000000;fill-opacity:1"
         transform="scale(0.8) rotate(180) translate(12.5,0)" />
    </marker>
    <marker
       inkscape:stockid="Arrow2Lend"
       orient="auto"
       refY="0.0"
       refX="0.0"
       id="Arrow2Lend"
       style="overflow:visible;"
       inkscape:isstock="true">
      <path
         id="path4182"
         style="fill-rule:evenodd;stroke-width:0.625;stroke-linejoin:round;stroke:#000000;stroke-opacity:1;fill:#000000;fill-opacity:1"
         d="M 8.7185878,4.0337352 L -2.2072895,0.016013256 L 8.7185884,-4.0017078 C 6.9730900,-1.6296469 6.9831476,1.6157441 8.7185878,4.0337352 z "
         transform="scale(1.1) rotate(180) translate(1,0)" />
    </marker>
  </defs>
  <sodipodi:namedview
     inkscape:window-height="1043"
     inkscape:window-width="1920"
     inkscape:pageshadow="2"
     inkscape:pageopacity="0.0"
     borderopacity="1.0"
     bordercolor="#666666"
     pagecolor="#ffffff"
     id="base"
     showgrid="true"
     showguides="true"
     inkscape:guide-bbox="true"
     inkscape:zoom="0.64205296"
     inkscape:cx="47.55033"
     inkscape:cy="391.9778"
     inkscape:window-x="0"
     inkscape:window-y="0"
     inkscape:current-layer="layer1"
     inkscape:window-maximized="1"
     objecttolerance="20">
    <sodipodi:guide
       orientation="horizontal"
       position="200"
       id="guide5596" />
    <inkscape:grid
       type="xygrid"
       id="grid3430"
       empspacing="50" />
  </sodipodi:namedview>
  <metadata
     id="metadata5594">
    <rdf:RDF>
      <cc:Work
         rdf:about="">
        <dc:format>image/svg+xml</dc:format>
        <dc:type
           rdf:resource="http://purl.org/dc/dcmitype/StillImage" />
        <dc:title />
      </cc:Work>
    </rdf:RDF>
  </metadata>
  <g
     inkscape:label="Layer 1"
     inkscape:groupmode="layer"
     id="layer1">
    <path
        d="m 607.91211,83.935547 a 15.0015,15.0015 0 0 0 -10.67578,4.017578 l -157.97852,147.367185 -234.69336,0 L 57.541016,91.320312 A 15.0015,15.0015 0 0 0 34.238281,109.8457 L 185.63477,358.12891 a 15.0015,15.0015 0 0 0 12.80859,7.1914 l 251.39648,0 a 15.0015,15.0015 0 0 0 12.70899,-7.0332 L 620.17578,106.89062 A 15.0015,15.0015 0 0 0 607.91211,83.935547 Z m -74.07617,104.185543 -92.29492,147.19922 -234.67579,0 -84.41406,-138.43164 65.4961,64.14649 a 15.0015,15.0015 0 0 0 10.49609,4.28515 l 246.72461,0 a 15.0015,15.0015 0 0 0 10.23047,-4.03125 l 78.4375,-73.16797 z"
       id="path4175"
       inkscape:connector-curvature="0" />
    <path
        d="m 950.01758,341.56641 a 15.0015,15.0015 0 0 0 -10.70508,3.99218 l -148.67969,138.08203 -236.05664,1.51954 a 15.0015,15.0015 0 0 0 -12.4707,6.81054 L 389.15039,726.69531 a 15.0015,15.0015 0 0 0 22.52344,19.40625 l 144.14453,-127.93359 241.03125,-4.56836 a 15.0015,15.0015 0 0 0 12.39648,-6.98438 L 962.20117,364.5625 a 15.0015,15.0015 0 0 0 -12.18359,-22.99609 z m -74.75977,104.42382 -87.05664,137.76758 -238.48633,4.51953 a 15.0015,15.0015 0 0 0 -9.67187,3.7793 l -64.86524,57.57031 87.65821,-134.51953 233.82617,-1.50586 a 15.0015,15.0015 0 0 0 10.11133,-4.00781 l 68.48437,-63.60352 z"
       id="path4177"
       inkscape:connector-curvature="0" />
  </g>
</svg>
