<svg stroke="currentColor" fill="currentColor"
   xmlns="http://www.w3.org/2000/svg"
   width="1000"
   height="1000"
   viewBox="0 0 1000 1000">
  <g>
    <path
        d="m 607.91211,83.935547 a 15.0015,15.0015 0 0 0 -10.67578,4.017578 l -157.97852,147.367185 -234.69336,0 L 57.541016,91.320312 A 15.0015,15.0015 0 0 0 34.238281,109.8457 L 185.63477,358.12891 a 15.0015,15.0015 0 0 0 12.80859,7.1914 l 251.39648,0 a 15.0015,15.0015 0 0 0 12.70899,-7.0332 L 620.17578,106.89062 A 15.0015,15.0015 0 0 0 607.91211,83.935547 Z m -74.07617,104.185543 -92.29492,147.19922 -234.67579,0 -84.41406,-138.43164 65.4961,64.14649 a 15.0015,15.0015 0 0 0 10.49609,4.28515 l 246.72461,0 a 15.0015,15.0015 0 0 0 10.23047,-4.03125 l 78.4375,-73.16797 z" />
    <path
        d="m 950.01758,341.56641 a 15.0015,15.0015 0 0 0 -10.70508,3.99218 l -148.67969,138.08203 -236.05664,1.51954 a 15.0015,15.0015 0 0 0 -12.4707,6.81054 L 389.15039,726.69531 a 15.0015,15.0015 0 0 0 22.52344,19.40625 l 144.14453,-127.93359 241.03125,-4.56836 a 15.0015,15.0015 0 0 0 12.39648,-6.98438 L 962.20117,364.5625 a 15.0015,15.0015 0 0 0 -12.18359,-22.99609 z m -74.75977,104.42382 -87.05664,137.76758 -238.48633,4.51953 a 15.0015,15.0015 0 0 0 -9.67187,3.7793 l -64.86524,57.57031 87.65821,-134.51953 233.82617,-1.50586 a 15.0015,15.0015 0 0 0 10.11133,-4.00781 l 68.48437,-63.60352 z" />
  </g>
</svg>
