<?xml version="1.0" encoding="utf-8"?>
<!-- Generator: Adobe Illustrator 15.0.0, SVG Export Plug-In . SVG Version: 6.00 Build 0)  -->
<!DOCTYPE svg PUBLIC "-//W3C//DTD SVG 1.1//EN" "http://www.w3.org/Graphics/SVG/1.1/DTD/svg11.dtd">
<svg version="1.1"
	 id="svg4152" sodipodi:docname="icons.svg" inkscape:version="0.91 r13725" xmlns:dc="http://purl.org/dc/elements/1.1/" xmlns:cc="http://creativecommons.org/ns#" xmlns:rdf="http://www.w3.org/1999/02/22-rdf-syntax-ns#" xmlns:svg="http://www.w3.org/2000/svg" xmlns:sodipodi="http://sodipodi.sourceforge.net/DTD/sodipodi-0.dtd" xmlns:inkscape="http://www.inkscape.org/namespaces/inkscape"
	 xmlns="http://www.w3.org/2000/svg" xmlns:xlink="http://www.w3.org/1999/xlink" x="0px" y="0px" width="1000px" height="1000px"
	 viewBox="0 0 1000 1000" enable-background="new 0 0 1000 1000" xml:space="preserve">
<g>
	<path d="M252.565,300.988c0,1.382-0.436,2.695-1.39,3.79c-0.939,1.164-2.477,2.111-4.59,2.77c-2.12,0.731-4.96,1.313-8.531,1.748
		c-3.577,0.443-8.026,0.66-13.486,0.66c-5.544,0-10.139-0.216-13.78-0.66c-3.578-0.434-6.497-1.017-8.533-1.748
		c-2.048-0.659-3.579-1.606-4.448-2.77c-0.954-1.095-1.388-2.408-1.388-3.79V189.2H93.022v111.788c0,1.382-0.436,2.695-1.312,3.79
		c-0.876,1.164-2.329,2.111-4.517,2.77c-2.114,0.731-4.96,1.313-8.533,1.748c-3.571,0.443-8.089,0.66-13.633,0.66
		c-5.396,0-9.922-0.216-13.563-0.66c-3.642-0.434-6.561-1.017-8.679-1.748c-2.113-0.659-3.643-1.606-4.59-2.77
		c-0.955-1.095-1.39-2.408-1.39-3.79V39.873c0-1.39,0.435-2.702,1.39-3.789c0.948-1.173,2.478-2.12,4.59-2.779
		c2.118-0.723,5.037-1.305,8.679-1.747c3.641-0.436,8.167-0.653,13.563-0.653c5.542,0,10.062,0.218,13.633,0.653
		c3.573,0.442,6.419,1.024,8.533,1.747c2.188,0.659,3.641,1.606,4.517,2.779c0.878,1.086,1.312,2.398,1.312,3.789v101.501h103.396
		V39.873c0-1.39,0.436-2.702,1.388-3.789c0.869-1.173,2.399-2.12,4.448-2.779c2.036-0.723,4.955-1.305,8.533-1.747
		c3.641-0.436,8.236-0.653,13.78-0.653c5.459,0,9.909,0.218,13.486,0.653c3.572,0.442,6.413,1.024,8.531,1.747
		c2.111,0.659,3.65,1.606,4.59,2.779c0.953,1.086,1.39,2.398,1.39,3.789V300.988z"/>
	<path d="M967.05,165.071c0,25.301-3.361,47.033-9.989,65.037c-6.639,18.011-16.118,32.747-28.517,44.119
		c-12.391,11.374-27.414,19.759-45.131,25.085c-17.796,5.318-38.868,8.021-63.367,8.021h-65.99c-4.736,0-8.674-1.39-11.888-4.16
		c-3.2-2.772-4.812-7.292-4.812-13.563V48.622c0-6.272,1.612-10.792,4.812-13.563c3.214-2.772,7.151-4.154,11.888-4.154h70.881
		c24.644,0,45.565,2.912,62.704,8.68c17.13,5.753,31.644,14.285,43.389,25.588c11.738,11.305,20.706,25.302,26.831,42.001
		C963.976,123.798,967.05,143.122,967.05,165.071L967.05,165.071z M908.932,166.965c0-13.12-1.529-25.231-4.597-36.527
		c-3.057-11.226-8.018-21.002-14.804-29.238c-6.699-8.244-15.381-14.735-26.033-19.324c-10.565-4.666-24.492-7.001-41.774-7.001
		h-28.362v188.052H822.6c15.389,0,28.362-2.042,38.865-5.978c10.568-4.014,19.325-10.062,26.397-18.083
		c7.074-8.027,12.321-18.083,15.822-30.047C907.186,196.861,908.932,182.935,908.932,166.965z"/>
	<g>
		
			<line fill="none" stroke="#000000" stroke-width="37.0882" stroke-linecap="round" stroke-linejoin="round" stroke-miterlimit="22.9256" x1="508.229" y1="777.649" x2="508.229" y2="926.634"/>
		
			<line fill="none" stroke="#000000" stroke-width="37.086" stroke-linecap="round" stroke-linejoin="round" stroke-miterlimit="22.9256" x1="572.738" y1="814.893" x2="443.717" y2="889.39"/>
		
			<line fill="none" stroke="#000000" stroke-width="37.0839" stroke-linecap="round" stroke-linejoin="round" stroke-miterlimit="22.9256" x1="572.738" y1="889.39" x2="443.717" y2="814.893"/>
	</g>
	<polygon points="472.871,641.211 210.263,386.17 313.792,312.945 520.852,633.637 965.282,855.85 942.555,898.778 508.224,676.563 
		73.902,893.727 51.174,853.324 	"/>
	<polygon points="538.127,585.561 572.719,550.962 607.318,585.561 572.719,620.152 	"/>
	
		<rect x="612.05" y="497.254" transform="matrix(0.7071 -0.7071 0.7071 0.7071 -182.4829 602.8436)" width="48.927" height="48.924"/>
	
		<rect x="675.966" y="433.443" transform="matrix(0.7071 -0.7071 0.7071 0.7071 -118.636 629.4039)" width="48.932" height="48.928"/>
	<polygon points="729.665,394.022 764.257,359.421 798.857,394.022 764.257,428.613 	"/>
</g>
</svg>
