<?xml version="1.0" encoding="UTF-8" standalone="no"?>
<!-- Created with Inkscape (http://www.inkscape.org/) -->

<svg
   xmlns:osb="http://www.openswatchbook.org/uri/2009/osb"
   xmlns:dc="http://purl.org/dc/elements/1.1/"
   xmlns:cc="http://creativecommons.org/ns#"
   xmlns:rdf="http://www.w3.org/1999/02/22-rdf-syntax-ns#"
   xmlns:svg="http://www.w3.org/2000/svg"
   xmlns="http://www.w3.org/2000/svg"
   xmlns:sodipodi="http://sodipodi.sourceforge.net/DTD/sodipodi-0.dtd"
   xmlns:inkscape="http://www.inkscape.org/namespaces/inkscape"
   width="1000"
   height="1000"
   id="svg4152"
   version="1.1"
   inkscape:version="0.91 r13725"
   viewBox="0 0 1000 1000"
   sodipodi:docname="lcao.svg">
  <defs
     id="defs5498">
    <linearGradient
       id="linearGradient900"
       osb:paint="solid">
      <stop
         style="stop-color:#000000;stop-opacity:1;"
         offset="0"
         id="stop898" />
    </linearGradient>
    <linearGradient
       id="linearGradient14369"
       osb:paint="solid">
      <stop
         style="stop-color:#ffffff;stop-opacity:1;"
         offset="0"
         id="stop14367" />
    </linearGradient>
    <linearGradient
       id="linearGradient14361"
       osb:paint="solid">
      <stop
         style="stop-color:#000000;stop-opacity:1;"
         offset="0"
         id="stop14359" />
    </linearGradient>
    <marker
       inkscape:isstock="true"
       style="overflow:visible"
       id="marker4233"
       refX="0.0"
       refY="0.0"
       orient="auto"
       inkscape:stockid="TriangleOutL">
      <path
         transform="scale(0.8)"
         style="fill-rule:evenodd;stroke:#000000;stroke-width:1pt;stroke-opacity:1;fill:#000000;fill-opacity:1"
         d="M 5.77,0.0 L -2.88,5.0 L -2.88,-5.0 L 5.77,0.0 z "
         id="path4235" />
    </marker>
    <marker
       inkscape:isstock="true"
       style="overflow:visible"
       id="marker4755"
       refX="0.0"
       refY="0.0"
       orient="auto"
       inkscape:stockid="TriangleOutL">
      <path
         transform="scale(0.8)"
         style="fill-rule:evenodd;stroke:#000000;stroke-width:1pt;stroke-opacity:1;fill:#000000;fill-opacity:1"
         d="M 5.77,0.0 L -2.88,5.0 L -2.88,-5.0 L 5.77,0.0 z "
         id="path4757" />
    </marker>
    <marker
       inkscape:stockid="Arrow1Lend"
       orient="auto"
       refY="0.0"
       refX="0.0"
       id="Arrow1Lend"
       style="overflow:visible;"
       inkscape:isstock="true">
      <path
         id="path4164"
         d="M 0.0,0.0 L 5.0,-5.0 L -12.5,0.0 L 5.0,5.0 L 0.0,0.0 z "
         style="fill-rule:evenodd;stroke:#000000;stroke-width:1pt;stroke-opacity:1;fill:#000000;fill-opacity:1"
         transform="scale(0.8) rotate(180) translate(12.5,0)" />
    </marker>
    <marker
       inkscape:stockid="Arrow2Lend"
       orient="auto"
       refY="0.0"
       refX="0.0"
       id="Arrow2Lend"
       style="overflow:visible;"
       inkscape:isstock="true">
      <path
         id="path4182"
         style="fill-rule:evenodd;stroke-width:0.625;stroke-linejoin:round;stroke:#000000;stroke-opacity:1;fill:#000000;fill-opacity:1"
         d="M 8.7185878,4.0337352 L -2.2072895,0.016013256 L 8.7185884,-4.0017078 C 6.9730900,-1.6296469 6.9831476,1.6157441 8.7185878,4.0337352 z "
         transform="scale(1.1) rotate(180) translate(1,0)" />
    </marker>
    <pattern
       y="0"
       x="0"
       height="6"
       width="6"
       patternUnits="userSpaceOnUse"
       id="EMFhbasepattern" />
    <marker
       inkscape:isstock="true"
       style="overflow:visible"
       id="marker4233-8"
       refX="0"
       refY="0"
       orient="auto"
       inkscape:stockid="TriangleOutL">
      <path
         inkscape:connector-curvature="0"
         transform="scale(0.8)"
         style="fill:#000000;fill-opacity:1;fill-rule:evenodd;stroke:#000000;stroke-width:1.00000003pt;stroke-opacity:1"
         d="M 5.77,0 -2.88,5 V -5 Z"
         id="path4235-6" />
    </marker>
    <marker
       inkscape:isstock="true"
       style="overflow:visible"
       id="marker4755-8"
       refX="0"
       refY="0"
       orient="auto"
       inkscape:stockid="TriangleOutL">
      <path
         inkscape:connector-curvature="0"
         transform="scale(0.8)"
         style="fill:#000000;fill-opacity:1;fill-rule:evenodd;stroke:#000000;stroke-width:1.00000003pt;stroke-opacity:1"
         d="M 5.77,0 -2.88,5 V -5 Z"
         id="path4757-9" />
    </marker>
  </defs>
  <sodipodi:namedview
     inkscape:window-height="1107"
     inkscape:window-width="2044"
     inkscape:pageshadow="2"
     inkscape:pageopacity="0.0"
     borderopacity="1.0"
     bordercolor="#666666"
     pagecolor="#ffffff"
     id="base"
     showgrid="true"
     showguides="false"
     inkscape:guide-bbox="true"
     inkscape:zoom="0.81200091"
     inkscape:cx="294.95773"
     inkscape:cy="516.50618"
     inkscape:window-x="4"
     inkscape:window-y="1"
     inkscape:current-layer="svg4152"
     inkscape:window-maximized="1"
     objecttolerance="20"
     inkscape:snap-text-baseline="false"
     inkscape:snap-intersection-paths="true">
    <sodipodi:guide
       orientation="horizontal"
       position="200"
       id="guide5596"
       inkscape:locked="false" />
    <inkscape:grid
       type="xygrid"
       id="grid3430"
       empspacing="50" />
    <sodipodi:guide
       position="550,1000"
       orientation="0,1"
       id="guide4169"
       inkscape:locked="false" />
  </sodipodi:namedview>
  <metadata
     id="metadata5594">
    <rdf:RDF>
      <cc:Work
         rdf:about="">
        <dc:format>image/svg+xml</dc:format>
        <dc:type
           rdf:resource="http://purl.org/dc/dcmitype/StillImage" />
        <dc:title></dc:title>
      </cc:Work>
    </rdf:RDF>
  </metadata>
  <g
     style="font-style:normal;font-weight:normal;font-size:40px;line-height:1.25;font-family:sans-serif;letter-spacing:0px;word-spacing:0px;fill:#000000;fill-opacity:1;stroke:none"
     id="flowRoot37" />
  <g
     style="font-style:normal;font-weight:normal;font-size:40px;line-height:1.25;font-family:sans-serif;letter-spacing:0px;word-spacing:0px;fill:#000000;fill-opacity:1;stroke:none"
     id="flowRoot53" />
  <g
     style="font-style:normal;font-weight:normal;font-size:40px;line-height:1.25;font-family:sans-serif;letter-spacing:0px;word-spacing:0px;fill:#000000;fill-opacity:1;stroke:none"
     id="flowRoot69" />
  <path
     style="fill:none;fill-opacity:1;fill-rule:evenodd;stroke:#000000;stroke-width:40;stroke-miterlimit:4;stroke-dasharray:none;stroke-opacity:1"
     d="M 467.49104,268.61298 A 199.63927,198.4494 0 0 1 267.85178,467.06238 199.63927,198.4494 0 0 1 68.212509,268.61298 199.63927,198.4494 0 0 1 267.85178,70.163574 199.63927,198.4494 0 0 1 467.49104,268.61298 Z"
     id="path41" />
  <g
     style="font-style:normal;font-weight:normal;font-size:40px;line-height:1.25;font-family:sans-serif;letter-spacing:0px;word-spacing:0px;fill:#000000;fill-opacity:1;stroke:none"
     id="text948">
    <path
       d="m 273.22453,323.33975 q 0,3.41797 -0.36621,5.85938 -0.36621,2.31933 -1.09863,3.78418 -0.61035,1.34277 -1.46484,1.95312 -0.8545,0.61035 -1.95313,0.61035 l -87.1582,0 q -0.97657,0 -1.83106,-0.61035 -0.85449,-0.61035 -1.58691,-1.95312 -0.61035,-1.46485 -0.97656,-3.78418 -0.36621,-2.44141 -0.36621,-5.85938 0,-3.54004 0.24414,-5.85937 0.36621,-2.44141 0.97656,-3.90625 0.73242,-1.46485 1.58691,-2.0752 0.85449,-0.73242 1.95313,-0.73242 l 29.41894,0 0,-102.7832 -25.39062,14.03808 q -2.80762,1.34278 -4.63867,1.70899 -1.70899,0.24414 -2.80762,-0.73242 -0.97656,-1.09864 -1.34277,-3.66211 -0.36622,-2.56348 -0.36622,-7.20215 0,-2.92969 0.12207,-4.76074 0.12207,-1.95313 0.61036,-3.2959 0.48828,-1.34278 1.34277,-2.19727 0.85449,-0.85449 2.31934,-1.83105 l 33.93554,-21.97266 q 0.61035,-0.48828 1.46485,-0.73242 0.97656,-0.36621 2.4414,-0.48828 1.46485,-0.24414 3.78418,-0.24414 2.44141,-0.12207 6.22559,-0.12207 4.63867,0 7.44629,0.24414 2.92968,0.12207 4.39453,0.61035 1.46484,0.36621 1.95312,1.09863 0.48828,0.73242 0.48828,1.83106 l 0,130.49316 25.75684,0 q 1.09863,0 1.95313,0.73242 0.97656,0.61035 1.58691,2.0752 0.73242,1.46484 0.97656,3.90625 0.36621,2.31933 0.36621,5.85937 z"
        id="path4275" />
    <path
       d="m 376.9843,300.63467 q 0,9.27735 -3.54004,16.35743 -3.41797,7.08007 -9.76563,11.84082 -6.34765,4.76074 -15.01464,7.08007 -8.667,2.44141 -18.79883,2.44141 -6.10352,0 -11.71875,-0.97656 -5.49317,-0.85449 -9.8877,-2.19727 -4.39453,-1.46484 -7.32422,-2.92968 -2.92968,-1.46485 -4.27246,-2.68555 -1.34277,-1.34278 -2.07519,-4.02832 -0.73242,-2.80762 -0.73242,-8.17871 0,-3.54004 0.24414,-5.61524 0.24414,-2.19726 0.73242,-3.41797 0.48828,-1.34277 1.2207,-1.70898 0.73242,-0.48828 1.83106,-0.48828 1.34277,0 3.90625,1.58691 2.68554,1.46485 6.59179,3.2959 3.90625,1.83106 9.03321,3.41797 5.24902,1.58691 11.84082,1.58691 4.15039,0 7.32422,-0.85449 3.29589,-0.85449 5.61523,-2.4414 2.44141,-1.58692 3.66211,-4.02833 1.2207,-2.4414 1.2207,-5.61523 0,-3.66211 -2.31933,-6.22559 -2.19727,-2.68554 -5.98145,-4.63867 -3.66211,-1.95312 -8.42285,-3.66211 -4.63867,-1.70898 -9.64356,-3.78418 -4.88281,-2.07519 -9.64355,-4.76074 -4.63867,-2.68555 -8.42285,-6.5918 -3.66211,-3.90625 -5.98145,-9.39941 -2.19726,-5.49316 -2.19726,-13.18359 0,-7.8125 3.05176,-14.28223 3.05175,-6.5918 8.78906,-11.23047 5.7373,-4.63867 13.91601,-7.20215 8.30078,-2.56347 18.55469,-2.56347 5.12695,0 9.8877,0.73242 4.88281,0.73242 8.78906,1.83105 3.90625,1.09864 6.5918,2.44141 2.68554,1.2207 3.78418,2.19726 1.2207,0.8545 1.70898,1.83106 0.48828,0.85449 0.73242,2.19727 0.24414,1.2207 0.36621,3.17382 0.24414,1.83106 0.24414,4.63868 0,3.29589 -0.24414,5.37109 -0.12207,2.07519 -0.61035,3.2959 -0.36621,1.2207 -1.09863,1.70898 -0.73242,0.36621 -1.70899,0.36621 -1.09863,0 -3.41797,-1.2207 -2.31933,-1.34277 -5.85937,-2.80762 -3.41797,-1.46484 -8.05664,-2.68554 -4.5166,-1.34278 -10.37598,-1.34278 -4.15039,0 -7.20215,0.85449 -3.05175,0.8545 -5.00488,2.44141 -1.95312,1.58691 -2.92969,3.78418 -0.97656,2.0752 -0.97656,4.5166 0,3.78418 2.31934,6.34766 2.31933,2.56347 6.10351,4.5166 3.78418,1.95312 8.54492,3.66211 4.88282,1.70898 9.76563,3.78418 5.00488,1.95312 9.76562,4.63867 4.88282,2.68555 8.667,6.5918 3.78418,3.90625 6.10351,9.39941 2.31934,5.3711 2.31934,12.81738 z"
      id="path4277" />
  </g>
  <path
     transform="matrix(0.999879,0.01555606,0,1,0,0)"
     style="fill:none;fill-opacity:1;fill-rule:evenodd;stroke:#000000;stroke-width:40.00241852;stroke-miterlimit:4;stroke-dasharray:none;stroke-opacity:1"
     d="M 843.14621,722.01038 A 342.22382,167.45543 0 0 1 500.92239,889.46581 342.22382,167.45543 0 0 1 158.69858,722.01038 342.22382,167.45543 0 0 1 500.92239,554.55495 342.22382,167.45543 0 0 1 843.14621,722.01038 Z"
     id="path996" />
  <g
     style="font-style:normal;font-weight:normal;font-size:40px;line-height:1.25;font-family:sans-serif;letter-spacing:0px;word-spacing:0px;fill:#000000;fill-opacity:1;stroke:none"
     id="text1000">
    <path
       d="m 604.2731,652.16748 q 0,6.7749 -1.64795,9.52148 -1.64795,2.56348 -4.76074,2.56348 l -40.64941,0 q 6.7749,5.12695 12.08496,12.45117 5.49316,7.14112 9.33838,15.93018 3.84521,8.60596 6.04248,18.67676 2.19726,9.88769 2.19726,20.50781 0,19.04297 -4.76074,33.69141 -4.76074,14.46533 -14.64844,26.18408 -9.70459,11.53564 -25.08545,18.31054 -15.38086,6.77491 -34.24072,6.77491 -20.69092,0 -35.52246,-6.04248 -14.64844,-6.22559 -24.35303,-17.57813 -9.52148,-11.53564 -14.46533,-27.83203 -4.94385,-16.29639 -4.94385,-36.43799 0,-20.32471 5.49317,-36.9873 5.67627,-16.6626 16.47949,-28.38135 10.80322,-11.71875 27.09961,-17.94434 16.47949,-6.40869 38.45215,-6.40869 l 81.29882,0 q 2.19727,0 3.47901,0.73242 1.28174,0.73243 2.01416,2.38038 0.73242,1.64794 0.91553,4.02832 0.1831,2.38037 0.1831,5.85937 z m -48.33984,81.11572 q 0,-10.80322 -2.01416,-20.87402 -1.83106,-10.25391 -5.85938,-19.04297 -4.02832,-8.97217 -10.43701,-16.29639 -6.22558,-7.50732 -14.64844,-12.81738 l -7.32422,0 q -14.28222,0 -24.90234,4.76074 -10.43701,4.57764 -17.21191,13.00049 -6.77491,8.42285 -10.0708,19.9585 -3.1128,11.53564 -3.1128,25.26855 0,13.3667 2.56348,25.08545 2.56348,11.53565 8.23975,20.32471 5.85937,8.60596 15.19775,13.73291 9.33838,4.94385 23.07129,4.94385 22.52197,0 34.42383,-14.83155 12.08496,-15.01464 12.08496,-43.21289 z"
       id="path4281" />
  </g>
  <path
     style="fill:none;fill-opacity:1;fill-rule:evenodd;stroke:#000000;stroke-width:40;stroke-miterlimit:4;stroke-dasharray:none;stroke-opacity:1"
     d="M 945.32304,263.68686 A 199.63927,198.4494 0 0 1 745.68378,462.13626 199.63927,198.4494 0 0 1 546.04451,263.68686 199.63927,198.4494 0 0 1 745.68378,65.237457 199.63927,198.4494 0 0 1 945.32304,263.68686 Z"
     id="ellipse4245" />
  <g
     style="font-style:normal;font-weight:normal;font-size:40px;line-height:1.25;font-family:sans-serif;letter-spacing:0px;word-spacing:0px;fill:#000000;fill-opacity:1;stroke:none"
     id="text4247">
    <path
       d="m 751.05652,318.41364 q 0,3.41796 -0.36621,5.85937 -0.36621,2.31934 -1.09864,3.78418 -0.61035,1.34277 -1.46484,1.95312 -0.85449,0.61036 -1.95312,0.61036 l -87.15821,0 q -0.97656,0 -1.83105,-0.61036 -0.85449,-0.61035 -1.58692,-1.95312 -0.61035,-1.46484 -0.97656,-3.78418 -0.36621,-2.44141 -0.36621,-5.85937 0,-3.54004 0.24414,-5.85938 0.36621,-2.44141 0.97656,-3.90625 0.73243,-1.46484 1.58692,-2.0752 0.85449,-0.73242 1.95312,-0.73242 l 29.41895,0 0,-102.7832 -25.39063,14.03809 q -2.80761,1.34277 -4.63867,1.70898 -1.70898,0.24414 -2.80762,-0.73242 -0.97656,-1.09863 -1.34277,-3.66211 -0.36621,-2.56348 -0.36621,-7.20215 0,-2.92969 0.12207,-4.76074 0.12207,-1.95313 0.61035,-3.2959 0.48828,-1.34277 1.34278,-2.19727 0.85449,-0.85449 2.31933,-1.83105 l 33.93555,-21.97266 q 0.61035,-0.48828 1.46484,-0.73242 0.97656,-0.36621 2.44141,-0.48828 1.46484,-0.24414 3.78418,-0.24414 2.4414,-0.12207 6.22558,-0.12207 4.63868,0 7.44629,0.24414 2.92969,0.12207 4.39453,0.61035 1.46485,0.36621 1.95313,1.09863 0.48828,0.73243 0.48828,1.83106 l 0,130.49316 25.75684,0 q 1.09863,0 1.95312,0.73242 0.97656,0.61036 1.58692,2.0752 0.73242,1.46484 0.97656,3.90625 0.36621,2.31934 0.36621,5.85938 z"
       
       id="path4285" />
    <path
       d="m 854.81628,295.70856 q 0,9.27734 -3.54003,16.35742 -3.41797,7.08008 -9.76563,11.84082 -6.34766,4.76074 -15.01465,7.08008 -8.66699,2.4414 -18.79883,2.4414 -6.10351,0 -11.71875,-0.97656 -5.49316,-0.85449 -9.88769,-2.19726 -4.39453,-1.46485 -7.32422,-2.92969 -2.92969,-1.46485 -4.27246,-2.68555 -1.34277,-1.34277 -2.0752,-4.02832 -0.73242,-2.80762 -0.73242,-8.17871 0,-3.54004 0.24414,-5.61523 0.24414,-2.19727 0.73242,-3.41797 0.48829,-1.34278 1.22071,-1.70899 0.73242,-0.48828 1.83105,-0.48828 1.34278,0 3.90625,1.58692 2.68555,1.46484 6.5918,3.29589 3.90625,1.83106 9.0332,3.41797 5.24903,1.58692 11.84082,1.58692 4.15039,0 7.32422,-0.8545 3.2959,-0.85449 5.61524,-2.4414 2.4414,-1.58692 3.6621,-4.02832 1.22071,-2.44141 1.22071,-5.61524 0,-3.66211 -2.31934,-6.22558 -2.19726,-2.68555 -5.98144,-4.63867 -3.66211,-1.95313 -8.42286,-3.66211 -4.63867,-1.70899 -9.64355,-3.78418 -4.88281,-2.0752 -9.64355,-4.76075 -4.63868,-2.68554 -8.42286,-6.59179 -3.66211,-3.90625 -5.98144,-9.39942 -2.19727,-5.49316 -2.19727,-13.18359 0,-7.8125 3.05176,-14.28223 3.05176,-6.59179 8.78906,-11.23047 5.73731,-4.63867 13.91602,-7.20214 8.30078,-2.56348 18.55469,-2.56348 5.12695,0 9.88769,0.73242 4.88281,0.73242 8.78906,1.83106 3.90625,1.09863 6.5918,2.4414 2.68555,1.22071 3.78418,2.19727 1.2207,0.85449 1.70899,1.83105 0.48828,0.85449 0.73242,2.19727 0.24414,1.2207 0.36621,3.17383 0.24414,1.83105 0.24414,4.63867 0,3.2959 -0.24414,5.37109 -0.12207,2.0752 -0.61035,3.2959 -0.36621,1.2207 -1.09864,1.70898 -0.73242,0.36622 -1.70898,0.36622 -1.09863,0 -3.41797,-1.22071 -2.31934,-1.34277 -5.85937,-2.80761 -3.41797,-1.46485 -8.05665,-2.68555 -4.5166,-1.34278 -10.37597,-1.34278 -4.15039,0 -7.20215,0.8545 -3.05176,0.85449 -5.00488,2.4414 -1.95313,1.58692 -2.92969,3.78418 -0.97656,2.0752 -0.97656,4.5166 0,3.78418 2.31933,6.34766 2.31934,2.56348 6.10352,4.5166 3.78418,1.95313 8.54492,3.66211 4.88281,1.70899 9.76563,3.78418 5.00488,1.95313 9.76562,4.63867 4.88281,2.68555 8.66699,6.5918 3.78418,3.90625 6.10352,9.39941 2.31933,5.3711 2.31933,12.81739 z"
       
       id="path4287" />
  </g>
</svg>
