<?xml version="1.0" encoding="UTF-8" standalone="no"?>
<!-- Created with Inkscape (http://www.inkscape.org/) -->

<svg stroke="currentColor" fill="currentColor"
   xmlns:dc="http://purl.org/dc/elements/1.1/"
   xmlns:cc="http://creativecommons.org/ns#"
   xmlns:rdf="http://www.w3.org/1999/02/22-rdf-syntax-ns#"
   xmlns:svg="http://www.w3.org/2000/svg"
   xmlns="http://www.w3.org/2000/svg"
   xmlns:sodipodi="http://sodipodi.sourceforge.net/DTD/sodipodi-0.dtd"
   xmlns:inkscape="http://www.inkscape.org/namespaces/inkscape"
   width="1000"
   height="1000"
   id="svg4152"
   version="1.1"
   inkscape:version="0.91 r13725"
   viewBox="0 0 1000 1000"
   sodipodi:docname="lewis-nitrogen.ori.svg">
  <defs
     id="defs5498">
    <marker
       inkscape:isstock="true"
       style="overflow:visible"
       id="marker4233"
       refX="0.0"
       refY="0.0"
       orient="auto"
       inkscape:stockid="TriangleOutL">
      <path
         transform="scale(0.8)"
         style="fill-rule:evenodd;stroke:#000000;stroke-width:1pt;stroke-opacity:1;fill:#000000;fill-opacity:1"
         d="M 5.77,0.0 L -2.88,5.0 L -2.88,-5.0 L 5.77,0.0 z "
         id="path4235" />
    </marker>
    <marker
       inkscape:isstock="true"
       style="overflow:visible"
       id="marker4755"
       refX="0.0"
       refY="0.0"
       orient="auto"
       inkscape:stockid="TriangleOutL">
      <path
         transform="scale(0.8)"
         style="fill-rule:evenodd;stroke:#000000;stroke-width:1pt;stroke-opacity:1;fill:#000000;fill-opacity:1"
         d="M 5.77,0.0 L -2.88,5.0 L -2.88,-5.0 L 5.77,0.0 z "
         id="path4757" />
    </marker>
    <marker
       inkscape:stockid="Arrow1Lend"
       orient="auto"
       refY="0.0"
       refX="0.0"
       id="Arrow1Lend"
       style="overflow:visible;"
       inkscape:isstock="true">
      <path
         id="path4164"
         d="M 0.0,0.0 L 5.0,-5.0 L -12.5,0.0 L 5.0,5.0 L 0.0,0.0 z "
         style="fill-rule:evenodd;stroke:#000000;stroke-width:1pt;stroke-opacity:1;fill:#000000;fill-opacity:1"
         transform="scale(0.8) rotate(180) translate(12.5,0)" />
    </marker>
    <marker
       inkscape:stockid="Arrow2Lend"
       orient="auto"
       refY="0.0"
       refX="0.0"
       id="Arrow2Lend"
       style="overflow:visible;"
       inkscape:isstock="true">
      <path
         id="path4182"
         style="fill-rule:evenodd;stroke-width:0.625;stroke-linejoin:round;stroke:#000000;stroke-opacity:1;fill:#000000;fill-opacity:1"
         d="M 8.7185878,4.0337352 L -2.2072895,0.016013256 L 8.7185884,-4.0017078 C 6.9730900,-1.6296469 6.9831476,1.6157441 8.7185878,4.0337352 z "
         transform="scale(1.1) rotate(180) translate(1,0)" />
    </marker>
    <pattern
       y="0"
       x="0"
       height="6"
       width="6"
       patternUnits="userSpaceOnUse"
       id="EMFhbasepattern" />
  </defs>
  <sodipodi:namedview
     inkscape:window-height="1107"
     inkscape:window-width="2044"
     inkscape:pageshadow="2"
     inkscape:pageopacity="0.0"
     borderopacity="1.0"
     bordercolor="#666666"
     pagecolor="#ffffff"
     id="base"
     showgrid="true"
     showguides="true"
     inkscape:guide-bbox="true"
     inkscape:zoom="0.62225397"
     inkscape:cx="121.53717"
     inkscape:cy="488.59241"
     inkscape:window-x="4"
     inkscape:window-y="1"
     inkscape:current-layer="svg4152"
     inkscape:window-maximized="1"
     objecttolerance="20"
     inkscape:snap-text-baseline="false">
    <sodipodi:guide
       orientation="horizontal"
       position="200"
       id="guide5596"
       inkscape:locked="false" />
    <inkscape:grid
       type="xygrid"
       id="grid3430"
       empspacing="50" />
    <sodipodi:guide
       position="550,1000"
       orientation="0,1"
       id="guide4169"
       inkscape:locked="false" />
  </sodipodi:namedview>
  <metadata
     id="metadata5594">
    <rdf:RDF>
      <cc:Work
         rdf:about="">
        <dc:format>image/svg+xml</dc:format>
        <dc:type
           rdf:resource="http://purl.org/dc/dcmitype/StillImage" />
        <dc:title />
      </cc:Work>
    </rdf:RDF>
  </metadata>
  <rect
     style="fill:#000000;fill-opacity:0"
     id="rect6365"
     width="150"
     height="50"
     x="500"
     y="100" />
  <flowRoot
     xml:space="preserve"
     id="flowRoot37"
     style="fill:black;fill-opacity:1;stroke:none;font-family:sans-serif;font-style:normal;font-weight:normal;font-size:40px;line-height:1.25;letter-spacing:0px;word-spacing:0px"><flowRegion
       id="flowRegion39"><rect
         id="rect41"
         width="50"
         height="50"
         x="250"
         y="50" /></flowRegion><flowPara
       id="flowPara43" /></flowRoot>  <flowRoot
     xml:space="preserve"
     id="flowRoot53"
     style="fill:black;fill-opacity:1;stroke:none;font-family:sans-serif;font-style:normal;font-weight:normal;font-size:40px;line-height:1.25;letter-spacing:0px;word-spacing:0px"><flowRegion
       id="flowRegion55"><rect
         id="rect57"
         width="100"
         height="50"
         x="250"
         y="100" /></flowRegion><flowPara
       id="flowPara59" /></flowRoot>  <flowRoot
     xml:space="preserve"
     id="flowRoot61"
     style="font-style:normal;font-weight:normal;font-size:40px;line-height:1.25;font-family:sans-serif;letter-spacing:0px;word-spacing:0px;fill:#000000;fill-opacity:1;stroke:none"
     transform="translate(35.085965,-146.56486)"><flowRegion
       id="flowRegion63"><rect
         id="rect65"
         width="1101.3469"
         height="930.35303"
         x="200"
         y="100" /></flowRegion><flowPara
       id="flowPara67"
       style="font-style:normal;font-variant:normal;font-weight:bold;font-stretch:normal;font-size:800px;font-family:Calibri;-inkscape-font-specification:'Calibri Bold'">N</flowPara></flowRoot>  <flowRoot
     xml:space="preserve"
     id="flowRoot69"
     style="fill:black;fill-opacity:1;stroke:none;font-family:sans-serif;font-style:normal;font-weight:normal;font-size:40px;line-height:1.25;letter-spacing:0px;word-spacing:0px"><flowRegion
       id="flowRegion71"><rect
         id="rect73"
         width="200"
         height="250"
         x="1100"
         y="650" /></flowRegion><flowPara
       id="flowPara75" /></flowRoot>  <path
     inkscape:connector-curvature="0"
     id="path4811"
     d="m 398.63827,72 c 27.5197,0 49.79237,22.272548 49.79237,49.79224 0,27.52005 -22.27267,49.79271 -49.79237,49.79271 -27.51992,0 -49.79258,-22.27266 -49.79258,-49.79271 C 348.84569,94.272548 371.11835,72 398.63827,72 Z"
     style="fill:#000000;fill-opacity:1;fill-rule:evenodd;stroke:none" />
  <path
     inkscape:connector-curvature="0"
     id="path4811-9"
     d="m 600,70 c 27.51973,0 49.79233,22.27255 49.79233,49.79224 0,27.52005 -22.2726,49.79271 -49.79233,49.79271 -27.51992,0 -49.79258,-22.27266 -49.79258,-49.79271 C 550.20742,92.27255 572.48008,70 600,70 Z"
     style="fill:#000000;fill-opacity:1;fill-rule:evenodd;stroke:none" />
  <path
     inkscape:connector-curvature="0"
     id="path4811-9-9"
     d="m 174,400 c 27.51973,0 49.79233,22.27255 49.79233,49.79224 0,27.52005 -22.2726,49.79271 -49.79233,49.79271 -27.51992,0 -49.79258,-22.27266 -49.79258,-49.79271 C 124.20742,422.27255 146.48008,400 174,400 Z"
     style="fill:#000000;fill-opacity:1;fill-rule:evenodd;stroke:none" />
  <path
     inkscape:connector-curvature="0"
     id="path4811-9-9-5"
     d="m 822,400 c 27.51973,0 49.79233,22.27255 49.79233,49.79224 0,27.52005 -22.2726,49.79271 -49.79233,49.79271 -27.51992,0 -49.79258,-22.27266 -49.79258,-49.79271 C 772.20742,422.27255 794.48008,400 822,400 Z"
     style="fill:#000000;fill-opacity:1;fill-rule:evenodd;stroke:none" />
  <path
     inkscape:connector-curvature="0"
     id="path4811-9-9-5-4"
     d="m 500,778 c 27.51973,0 49.79233,22.27255 49.79233,49.79224 0,27.52005 -22.2726,49.79271 -49.79233,49.79271 -27.51992,0 -49.79258,-22.27266 -49.79258,-49.79271 C 450.20742,800.27255 472.48008,778 500,778 Z"
     style="fill:#000000;fill-opacity:1;fill-rule:evenodd;stroke:none" />
</svg>
