<svg stroke="currentColor" fill="currentColor"
   xmlns="http://www.w3.org/2000/svg"
   width="1000"
   height="1000"
   viewBox="97.7 -0.1 800.7 800.7">
  <path
     d="m 410.63827,50 c 27.5197,0 49.79237,22.272548 49.79237,49.792242 0,27.520048 -22.27267,49.792708 -49.79237,49.792708 -27.51992,0 -49.79258,-22.27266 -49.79258,-49.792708 C 360.84569,72.272548 383.11835,50 410.63827,50 Z"
     style="fill-opacity:1;fill-rule:evenodd;stroke:none" />
  <path
     d="m 577.85821,50 c 27.51773,0 49.79168,22.272548 49.79168,49.792242 0,27.520048 -22.27395,49.792708 -49.79168,49.792708 -27.40349,0 -49.7949,-22.27266 -49.7949,-49.792708 C 528.06331,72.272548 550.45472,50 577.85821,50 Z"
     style="fill-opacity:1;fill-rule:evenodd;stroke:none" />
  <path
     d="m 384.16773,280.3044 c -64.13558,67.40062 -64.13558,176.77977 0,244.18235 64.25201,67.51682 168.38517,67.51682 232.52134,0 64.25049,-67.40258 64.25049,-176.78173 0,-244.18235 -64.13617,-67.51717 -168.26933,-67.51717 -232.52134,0 z"
     style="fill:none;stroke-width:58.3049469px;stroke-linecap:round;stroke-linejoin:round;stroke-miterlimit:4;stroke-dasharray:none;stroke-opacity:1" />
  <path
     d="m 237.35594,329.04761 c 0,27.5197 -22.27266,49.79074 -49.7927,49.79074 -27.5197,0 -49.79225,-22.27104 -49.79225,-49.79074 0,-27.52004 22.27255,-49.79259 49.79225,-49.79259 27.52004,0 49.7927,22.27255 49.7927,49.79259 z"
     style="fill-opacity:1;fill-rule:evenodd;stroke:none" />
  <path
     d="m 237.35594,496.38166 c 0,27.40361 -22.27266,49.67755 -49.7927,49.67755 -27.5197,0 -49.79225,-22.27394 -49.79225,-49.67755 0,-27.51772 22.27255,-49.79155 49.79225,-49.79155 27.52004,0 49.7927,22.27383 49.7927,49.79155 z"
     style="fill-opacity:1;fill-rule:evenodd;stroke:none" />
  <path
     d="m 808.74546,350.50387 c 27.40349,0 49.6742,22.2722 49.6742,49.7926 0,27.52095 -22.27071,49.79166 -49.6742,49.79166 -27.52108,0 -49.79491,-22.27071 -49.79491,-49.79166 0,-27.5204 22.27383,-49.7926 49.79491,-49.7926 z"
     style="fill-opacity:1;fill-rule:evenodd;stroke:none" />
  <path
     d="m 500.4281,651.00705 c 27.52097,0 49.79168,22.27394 49.79168,49.79167 0,27.52096 -22.27071,49.7949 -49.79168,49.7949 -27.52095,0 -49.7927,-22.27394 -49.7927,-49.7949 0,-27.51773 22.27175,-49.79167 49.7927,-49.79167 z"
     style="fill-opacity:1;fill-rule:evenodd;stroke:none" />
</svg>
