<svg stroke="currentColor" fill="currentColor"
   xmlns="http://www.w3.org/2000/svg"
   width="1000"
   height="1000"
   viewBox="49.3 25.1 897.3 897.3">
  <path
     style="fill-opacity:0;marker-end:"
     d="m 500,100 150,0 0,50 -150,0 z" />
  <g
     style="font-style:normal;font-weight:normal;font-size:40px;line-height:1.25;font-family:sans-serif;letter-spacing:0px;word-spacing:0px;fill-opacity:1;stroke:none" />
  <g
     style="font-style:normal;font-weight:normal;font-size:40px;line-height:1.25;font-family:sans-serif;letter-spacing:0px;word-spacing:0px;fill-opacity:1;stroke:none" />
  <g
     transform="translate(35.085965,-146.56486)"
     style="font-style:normal;font-weight:normal;font-size:40px;line-height:1.25;font-family:sans-serif;letter-spacing:0px;word-spacing:0px;fill-opacity:1;stroke:none">
    <path
       d="m 671.875,844.0625 q 0,8.98437 -3.125,16.01562 -3.125,7.03125 -8.59375,11.71875 -5.07813,4.6875 -12.5,7.03125 -7.03125,1.95313 -14.45313,1.95313 l -43.75,0 q -13.67187,0 -23.82812,-2.73438 -9.76563,-2.73437 -18.35938,-9.76562 Q 539.0625,860.85937 531.25,848.75 523.4375,836.25 513.67187,816.71875 L 387.89062,580.39062 q -10.9375,-21.09375 -22.26562,-45.3125 -11.32813,-24.60937 -20.3125,-47.65625 l -0.78125,0 q 1.5625,28.125 2.34375,56.25 0.78125,27.73438 0.78125,57.42188 l 0,264.45312 q 0,3.90625 -2.34375,7.03125 -1.95313,3.125 -7.42188,5.46875 -5.07812,1.95313 -14.0625,3.125 -8.98437,1.17188 -23.04687,1.17188 -13.67188,0 -22.65625,-1.17188 -8.98438,-1.17187 -14.0625,-3.125 -5.07813,-2.34375 -7.03125,-5.46875 -1.95313,-3.125 -1.95313,-7.03125 l 0,-454.29687 q 0,-18.35938 10.54688,-27.34375 10.9375,-9.375 26.5625,-9.375 l 55.07812,0 q 14.84375,0 25,2.73437 10.15625,2.34375 17.96875,8.20313 8.20313,5.85937 15.23438,16.40625 7.03125,10.15625 14.45312,25.39062 l 98.4375,184.76563 q 8.59375,16.79687 16.79688,33.20312 8.59375,16.01563 16.40625,32.42188 7.8125,16.01562 15.23437,31.64062 7.42188,15.625 14.45313,31.25 l 0.39062,0 q -1.17187,-27.34375 -1.95312,-57.03125 -0.39063,-29.6875 -0.39063,-56.64062 l 0,-237.10938 q 0,-3.90625 2.34375,-7.03125 2.34375,-3.125 7.8125,-5.46875 5.46875,-2.34375 14.45313,-3.125 8.98437,-1.17187 23.04687,-1.17187 13.28125,0 22.26563,1.17187 8.98437,0.78125 13.67187,3.125 5.07813,2.34375 7.03125,5.46875 1.95313,3.125 1.95313,7.03125 l 0,454.29688 z" />
  </g>
  <g
     style="font-style:normal;font-weight:normal;font-size:40px;line-height:1.25;font-family:sans-serif;letter-spacing:0px;word-spacing:0px;fill-opacity:1;stroke:none" />
  <path
     d="m 398.63827,72 c 27.5197,0 49.79237,22.272548 49.79237,49.79224 0,27.52005 -22.27267,49.79271 -49.79237,49.79271 -27.51992,0 -49.79258,-22.27266 -49.79258,-49.79271 C 348.84569,94.272548 371.11835,72 398.63827,72 Z"
     style="fill-opacity:1;fill-rule:evenodd;stroke:none;marker-end:" />
  <path
     d="m 600,70 c 27.51973,0 49.79233,22.27255 49.79233,49.79224 0,27.52005 -22.2726,49.79271 -49.79233,49.79271 -27.51992,0 -49.79258,-22.27266 -49.79258,-49.79271 C 550.20742,92.27255 572.48008,70 600,70 Z"
     style="fill-opacity:1;fill-rule:evenodd;stroke:none;marker-end:" />
  <path
     d="m 174,400 c 27.51973,0 49.79233,22.27255 49.79233,49.79224 0,27.52005 -22.2726,49.79271 -49.79233,49.79271 -27.51992,0 -49.79258,-22.27266 -49.79258,-49.79271 C 124.20742,422.27255 146.48008,400 174,400 Z"
     style="fill-opacity:1;fill-rule:evenodd;stroke:none;marker-end:" />
  <path
     d="m 822,400 c 27.51973,0 49.79233,22.27255 49.79233,49.79224 0,27.52005 -22.2726,49.79271 -49.79233,49.79271 -27.51992,0 -49.79258,-22.27266 -49.79258,-49.79271 C 772.20742,422.27255 794.48008,400 822,400 Z"
     style="fill-opacity:1;fill-rule:evenodd;stroke:none;marker-end:" />
  <path
     d="m 500,778 c 27.51973,0 49.79233,22.27255 49.79233,49.79224 0,27.52005 -22.2726,49.79271 -49.79233,49.79271 -27.51992,0 -49.79258,-22.27266 -49.79258,-49.79271 C 450.20742,800.27255 472.48008,778 500,778 Z"
     style="fill-opacity:1;fill-rule:evenodd;stroke:none;marker-end:" />
</svg>
