<svg stroke="currentColor" fill="currentColor"
   xmlns="http://www.w3.org/2000/svg"
   width="1000"
   height="1000"
   viewBox="33.8 -6.9 924.8 924.8">
  <path
     d="m 91.99635,338.21903 c -11.39483,6.58003 -15.40698,21.185 -8.82695,32.73944 6.58019,11.39531 21.18468,15.08713 32.57952,8.5071 z m 0,0 391.4357,-225.96961 23.75257,41.24495 -391.4357,225.9712 z M 507.18462,153.49437 c 11.39499,-6.74076 15.4073,-21.34413 8.82711,-32.73944 -6.58035,-11.39531 -21.18452,-15.24626 -32.57968,-8.50551 z"
     style="fill-opacity:1;fill-rule:nonzero;stroke:none" />
  <path
     d="M 664.46331,802.1367 H 329.20103 l 0.32144,-47.825 h 335.26451 z m -335.10188,-23.9109 -0.16072,23.9109 c -13.32079,0 -23.91329,-10.7508 -23.75256,-23.9109 0.16072,-13.3192 10.91314,-23.9141 24.23393,-23.9141 z M 308.81868,766.3483 476.37049,478.91151 517.61672,502.66327 349.90418,790.1001 Z M 497.07397,490.78739 476.37049,478.91151 c 6.74044,-11.55604 21.34525,-15.40858 32.74024,-8.82855 11.39467,6.58004 15.24658,21.185 8.50599,32.58031 z M 517.61672,478.59006 685.32845,766.0285 644.08303,790.4247 476.37049,502.98472 Z m 147.00826,299.63574 20.70347,-12.1973 c 6.74108,11.3937 2.73052,25.9987 -8.66766,32.7394 -11.39372,6.7408 -26.16004,3.0505 -32.73944,-8.3432 z"
     style="fill-opacity:1;fill-rule:nonzero;stroke:none" />
  <path
     d="m 876.31298,472.8702 c 11.23204,6.58003 25.99853,2.72908 32.73944,-8.66623 6.57939,-11.55603 2.88773,-26.1594 -8.50599,-32.73944 z m 0,0 -391.4365,-225.96961 24.23425,-41.40726 391.4357,225.9712 z M 509.11073,205.49333 c -11.23459,-6.58003 -25.9998,-2.56677 -32.74024,8.82695 -6.57987,11.39531 -2.88869,26.00028 8.50599,32.58031 z"
     style="fill-opacity:1;fill-rule:nonzero;stroke:none" />
  <path
     d="m 876.31298,379.46557 c 11.23204,6.58003 25.99853,2.72749 32.73944,-8.66782 6.57939,-11.55444 2.88773,-26.15941 -8.50599,-32.73944 z m 0,0 -391.4365,-225.9712 24.23425,-41.40567 391.4357,225.96961 z M 509.11073,112.0887 c -11.23459,-6.58003 -25.9998,-2.56836 -32.74024,8.82695 -6.57987,11.39372 -2.88869,25.99869 8.50599,32.57872 z"
     style="fill-opacity:1;fill-rule:nonzero;stroke:none" />
</svg>
