<?xml version="1.0" encoding="utf-8"?>
<!-- Generator: Adobe Illustrator 15.0.0, SVG Export Plug-In . SVG Version: 6.00 Build 0)  -->
<!DOCTYPE svg PUBLIC "-//W3C//DTD SVG 1.1//EN" "http://www.w3.org/Graphics/SVG/1.1/DTD/svg11.dtd">
<svg stroke="currentColor" fill="currentColor" version="1.1"
	 id="svg4152" sodipodi:docname="icons.svg" inkscape:version="0.91 r13725" xmlns:dc="http://purl.org/dc/elements/1.1/" xmlns:cc="http://creativecommons.org/ns#" xmlns:rdf="http://www.w3.org/1999/02/22-rdf-syntax-ns#" xmlns:svg="http://www.w3.org/2000/svg" xmlns:sodipodi="http://sodipodi.sourceforge.net/DTD/sodipodi-0.dtd" xmlns:inkscape="http://www.inkscape.org/namespaces/inkscape"
	 xmlns="http://www.w3.org/2000/svg" xmlns:xlink="http://www.w3.org/1999/xlink" x="0px" y="0px" width="1000px" height="1000px"
	 viewBox="0 0 1000 1000" enable-background="new 0 0 1000 1000" xml:space="preserve">
<g>
	<path d="M797.952,261.166c0,13.929-1.729,26.394-5.188,37.395c-3.463,11.001-8.608,20.361-15.481,28.036
		c-6.832,7.628-15.304,13.484-25.375,17.521c-10.115,4.037-21.779,6.034-35.041,6.034c-13.087,0-24.485-1.686-34.247-5.102
		c-9.757-3.416-17.876-8.649-24.351-15.66c-6.523-7.052-11.401-15.969-14.641-26.792c-3.236-10.824-4.88-23.644-4.88-38.459
		c0-13.618,1.731-25.861,5.236-36.73c3.459-10.867,8.604-20.094,15.436-27.725c6.829-7.628,15.303-13.484,25.417-17.564
		c10.069-4.081,21.824-6.079,35.131-6.079c12.775,0,23.997,1.686,33.759,5.057c9.711,3.373,17.876,8.562,24.396,15.57
		c6.563,7.054,11.488,15.881,14.815,26.616C796.314,233.973,797.952,246.574,797.952,261.166L797.952,261.166z M762.112,262.985
		c0-8.873-0.709-16.9-2.084-24.132c-1.375-7.229-3.771-13.441-7.099-18.585c-3.327-5.146-7.763-9.139-13.306-11.932
		c-5.548-2.839-12.466-4.26-20.806-4.26c-8.383,0-15.437,1.598-21.07,4.747c-5.589,3.194-10.16,7.407-13.619,12.687
		c-3.463,5.278-5.899,11.444-7.364,18.497c-1.422,7.098-2.13,14.551-2.13,22.447c0,9.183,0.71,17.433,2.084,24.751
		c1.378,7.32,3.727,13.574,7.013,18.763c3.283,5.19,7.719,9.181,13.262,11.887c5.542,2.751,12.51,4.126,20.937,4.126
		c8.387,0,15.39-1.597,21.024-4.703c5.638-3.106,10.205-7.363,13.664-12.731c3.463-5.366,5.9-11.622,7.319-18.763
		C761.403,278.644,762.112,271.015,762.112,262.985L762.112,262.985z M957.954,342.519c0,0.844-0.267,1.641-0.842,2.308
		c-0.578,0.708-1.51,1.287-2.794,1.685c-1.288,0.444-3.018,0.799-5.189,1.065c-2.175,0.266-4.881,0.4-8.208,0.4
		c-3.369,0-6.163-0.134-8.382-0.4c-2.171-0.265-3.948-0.62-5.19-1.065c-1.239-0.398-2.171-0.977-2.705-1.685
		c-0.577-0.667-0.845-1.465-0.845-2.308v-68H860.9v68c0,0.844-0.268,1.641-0.798,2.308c-0.531,0.708-1.421,1.287-2.752,1.685
		c-1.286,0.444-3.016,0.799-5.188,1.065c-2.175,0.266-4.925,0.4-8.296,0.4c-3.283,0-6.031-0.134-8.251-0.4
		c-2.215-0.265-3.993-0.62-5.276-1.065c-1.289-0.398-2.22-0.977-2.795-1.685c-0.577-0.667-0.845-1.465-0.845-2.308V183.673
		c0-0.843,0.268-1.64,0.845-2.307c0.575-0.708,1.507-1.288,2.795-1.686c1.284-0.445,3.062-0.8,5.276-1.065
		c2.22-0.267,4.968-0.4,8.251-0.4c3.372,0,6.121,0.133,8.296,0.4c2.172,0.265,3.901,0.62,5.188,1.065
		c1.332,0.398,2.221,0.978,2.752,1.686c0.53,0.667,0.798,1.465,0.798,2.307v61.745h62.898v-61.745c0-0.843,0.268-1.64,0.845-2.307
		c0.534-0.708,1.467-1.288,2.705-1.686c1.242-0.445,3.02-0.8,5.19-1.065c2.219-0.267,5.013-0.4,8.382-0.4
		c3.327,0,6.033,0.133,8.208,0.4c2.172,0.265,3.902,0.62,5.189,1.065c1.285,0.398,2.216,0.978,2.794,1.686
		c0.575,0.667,0.842,1.465,0.842,2.307V342.519z"/>
	<path d="M584.268,503.718c0,13.926-1.73,26.394-5.188,37.394c-3.459,11-8.604,20.359-15.481,28.034
		c-6.832,7.63-15.303,13.483-25.372,17.521c-10.114,4.038-21.778,6.035-35.044,6.035c-13.086,0-24.488-1.686-34.245-5.104
		c-9.76-3.413-17.876-8.648-24.354-15.656c-6.52-7.054-11.399-15.968-14.64-26.793c-3.238-10.824-4.879-23.645-4.879-38.456
		c0-13.622,1.73-25.861,5.235-36.729c3.459-10.869,8.604-20.096,15.435-27.724c6.831-7.631,15.304-13.486,25.418-17.569
		c10.068-4.081,21.824-6.076,35.133-6.076c12.774,0,24.001,1.686,33.759,5.057c9.714,3.371,17.875,8.561,24.396,15.569
		c6.568,7.052,11.489,15.882,14.816,26.615C582.627,476.526,584.268,489.123,584.268,503.718L584.268,503.718z M548.427,505.534
		c0-8.87-0.711-16.9-2.085-24.129c-1.376-7.23-3.771-13.441-7.1-18.587c-3.322-5.145-7.759-9.138-13.307-11.934
		c-5.542-2.836-12.464-4.256-20.804-4.256c-8.385,0-15.44,1.597-21.072,4.747c-5.589,3.192-10.158,7.406-13.619,12.687
		c-3.458,5.276-5.899,11.443-7.364,18.496c-1.417,7.098-2.128,14.549-2.128,22.444c0,9.187,0.713,17.434,2.086,24.752
		c1.375,7.32,3.726,13.576,7.008,18.766c3.283,5.19,7.719,9.181,13.262,11.887c5.546,2.752,12.51,4.127,20.941,4.127
		c8.384,0,15.393-1.598,21.026-4.702c5.634-3.108,10.204-7.364,13.663-12.731c3.459-5.37,5.9-11.622,7.321-18.766
		C547.716,521.194,548.427,513.564,548.427,505.534z"/>
	<g>
		
			<line fill="none"stroke-width="32.6295" stroke-linecap="round" stroke-linejoin="round" stroke-miterlimit="22.9256" x1="600.127" y1="188.254" x2="372.785" y2="57"/>
		
			<line fill="none"stroke-width="32.6295" stroke-linecap="round" stroke-linejoin="round" stroke-miterlimit="22.9256" x1="38.672" y1="250.33" x2="372.785" y2="57"/>
		
			<line fill="none"stroke-width="32.6295" stroke-linecap="round" stroke-linejoin="round" stroke-miterlimit="22.9256" x1="38.672" y1="698.881" x2="364.126" y2="505.555"/>
		
			<line fill="none"stroke-width="32.6295" stroke-linecap="round" stroke-linejoin="round" stroke-miterlimit="22.9256" x1="960.28" y1="698.881" x2="634.823" y2="505.555"/>
	</g>
</g>
</svg>
