<?xml version="1.0" encoding="UTF-8" standalone="no"?>
<!-- Created with Inkscape (http://www.inkscape.org/) -->

<svg
   xmlns:dc="http://purl.org/dc/elements/1.1/"
   xmlns:cc="http://creativecommons.org/ns#"
   xmlns:rdf="http://www.w3.org/1999/02/22-rdf-syntax-ns#"
   xmlns:svg="http://www.w3.org/2000/svg"
   xmlns="http://www.w3.org/2000/svg"
   xmlns:sodipodi="http://sodipodi.sourceforge.net/DTD/sodipodi-0.dtd"
   xmlns:inkscape="http://www.inkscape.org/namespaces/inkscape"
   width="1000"
   height="1000"
   id="svg4152"
   version="1.1"
   inkscape:version="0.91 r13725"
   viewBox="0 0 1000 1000"
   sodipodi:docname="unsaturation-formula.svg">
  <defs
     id="defs5498">
    <marker
       inkscape:isstock="true"
       style="overflow:visible"
       id="marker4233"
       refX="0.0"
       refY="0.0"
       orient="auto"
       inkscape:stockid="TriangleOutL">
      <path
         transform="scale(0.8)"
         style="fill-rule:evenodd;stroke:#000000;stroke-width:1pt;stroke-opacity:1;fill:#000000;fill-opacity:1"
         d="M 5.77,0.0 L -2.88,5.0 L -2.88,-5.0 L 5.77,0.0 z "
         id="path4235" />
    </marker>
    <marker
       inkscape:isstock="true"
       style="overflow:visible"
       id="marker4755"
       refX="0.0"
       refY="0.0"
       orient="auto"
       inkscape:stockid="TriangleOutL">
      <path
         transform="scale(0.8)"
         style="fill-rule:evenodd;stroke:#000000;stroke-width:1pt;stroke-opacity:1;fill:#000000;fill-opacity:1"
         d="M 5.77,0.0 L -2.88,5.0 L -2.88,-5.0 L 5.77,0.0 z "
         id="path4757" />
    </marker>
    <marker
       inkscape:stockid="Arrow1Lend"
       orient="auto"
       refY="0.0"
       refX="0.0"
       id="Arrow1Lend"
       style="overflow:visible;"
       inkscape:isstock="true">
      <path
         id="path4164"
         d="M 0.0,0.0 L 5.0,-5.0 L -12.5,0.0 L 5.0,5.0 L 0.0,0.0 z "
         style="fill-rule:evenodd;stroke:#000000;stroke-width:1pt;stroke-opacity:1;fill:#000000;fill-opacity:1"
         transform="scale(0.8) rotate(180) translate(12.5,0)" />
    </marker>
    <marker
       inkscape:stockid="Arrow2Lend"
       orient="auto"
       refY="0.0"
       refX="0.0"
       id="Arrow2Lend"
       style="overflow:visible;"
       inkscape:isstock="true">
      <path
         id="path4182"
         style="fill-rule:evenodd;stroke-width:0.625;stroke-linejoin:round;stroke:#000000;stroke-opacity:1;fill:#000000;fill-opacity:1"
         d="M 8.7185878,4.0337352 L -2.2072895,0.016013256 L 8.7185884,-4.0017078 C 6.9730900,-1.6296469 6.9831476,1.6157441 8.7185878,4.0337352 z "
         transform="scale(1.1) rotate(180) translate(1,0)" />
    </marker>
    <pattern
       y="0"
       x="0"
       height="6"
       width="6"
       patternUnits="userSpaceOnUse"
       id="EMFhbasepattern" />
  </defs>
  <sodipodi:namedview
     inkscape:window-height="1107"
     inkscape:window-width="2044"
     inkscape:pageshadow="2"
     inkscape:pageopacity="0.0"
     borderopacity="1.0"
     bordercolor="#666666"
     pagecolor="#ffffff"
     id="base"
     showgrid="true"
     showguides="true"
     inkscape:guide-bbox="true"
     inkscape:zoom="0.5"
     inkscape:cx="-113.17787"
     inkscape:cy="344"
     inkscape:window-x="4"
     inkscape:window-y="1"
     inkscape:current-layer="flowRoot50"
     inkscape:window-maximized="1"
     objecttolerance="20">
    <sodipodi:guide
       orientation="horizontal"
       position="200"
       id="guide5596"
       inkscape:locked="false" />
    <inkscape:grid
       type="xygrid"
       id="grid3430"
       empspacing="50" />
    <sodipodi:guide
       position="550,1000"
       orientation="0,1"
       id="guide4169"
       inkscape:locked="false" />
  </sodipodi:namedview>
  <metadata
     id="metadata5594">
    <rdf:RDF>
      <cc:Work
         rdf:about="">
        <dc:format>image/svg+xml</dc:format>
        <dc:type
           rdf:resource="http://purl.org/dc/dcmitype/StillImage" />
        <dc:title></dc:title>
      </cc:Work>
    </rdf:RDF>
  </metadata>
  <g
     transform="translate(1062,158)"
     style="font-style:normal;font-weight:normal;font-size:40px;line-height:1.25;font-family:sans-serif;letter-spacing:0px;word-spacing:0px;fill:#000000;fill-opacity:1;stroke:none"
     id="flowRoot50">
    <path
       d="m -757.1875,472.0625 q 0,5.85937 -0.46875,10.07812 -0.23437,3.98438 -0.9375,7.03125 -0.70312,2.8125 -1.875,4.92188 -1.17187,2.10937 -3.75,4.92187 -2.57812,2.57813 -10.07812,6.79688 -7.26563,4.21875 -18.04688,8.20312 -10.54687,3.75 -24.375,6.32813 -13.59375,2.57812 -29.53125,2.57812 -31.17187,0 -56.25,-9.60937 -25.07812,-9.60938 -42.65625,-28.59375 -17.57812,-19.21875 -26.95312,-47.8125 -9.375,-28.59375 -9.375,-66.5625 0,-38.67188 10.3125,-68.67188 10.3125,-30 28.82812,-50.39062 18.51563,-20.39063 44.29688,-30.9375 26.01562,-10.54688 57.1875,-10.54688 12.65625,0 24.375,2.10938 11.71875,2.10937 21.5625,5.625 10.07812,3.28125 18.04687,7.73437 7.96875,4.45313 11.01563,7.73438 3.28125,3.04687 4.45312,5.15625 1.17188,2.10937 1.875,5.39062 0.70313,3.28125 0.9375,7.73438 0.46875,4.45312 0.46875,11.01562 0,7.03125 -0.46875,11.95313 -0.46875,4.92187 -1.64062,7.96875 -1.17188,3.04687 -2.8125,4.45312 -1.64063,1.40625 -3.75,1.40625 -3.51563,0 -8.90625,-3.98437 -5.39063,-4.21875 -14.0625,-9.14063 -8.4375,-5.15625 -20.39063,-9.14062 -11.71875,-4.21875 -28.125,-4.21875 -18.04687,0 -32.34375,7.5 -14.0625,7.26562 -24.14062,21.09375 -9.84375,13.59375 -15,33.04687 -5.15625,19.45313 -5.15625,43.82813 0,26.71875 5.39062,46.40625 5.625,19.45312 15.70313,32.10937 10.3125,12.65625 24.60937,18.98438 14.53125,6.09375 32.57813,6.09375 16.40625,0 28.35937,-3.75 11.95313,-3.98438 20.39063,-8.67188 8.67187,-4.6875 14.0625,-8.4375 5.625,-3.75 8.67187,-3.75 2.34375,0 3.75,0.9375 1.40625,0.9375 2.34375,3.75 0.9375,2.8125 1.40625,7.96875 0.46875,4.92188 0.46875,13.35938 z"
       id="path4175" />
    <path
       d="m -596.3125,548.1875 q 0,14.92969 -4.57031,27.72656 -4.57031,12.64453 -13.40625,21.9375 -8.83594,9.14063 -21.78516,14.47266 -12.94922,5.17969 -29.85937,5.17969 -13.71094,0 -23.91797,-3.19922 -10.20703,-3.04688 -17.67188,-8.83594 -7.46484,-5.94141 -12.1875,-14.32031 -4.72265,-8.37891 -7.61718,-18.89063 -2.74219,-10.51172 -3.8086,-22.85156 -1.0664,-12.33984 -1.0664,-26.20313 0,-11.57812 1.0664,-24.22265 1.21875,-12.64453 4.41797,-24.83203 3.35156,-12.1875 9.29297,-23.15625 5.94141,-11.1211 15.23437,-19.34766 9.44532,-8.37891 22.69922,-13.25391 13.40625,-4.875 31.6875,-4.875 5.78907,0 11.57813,0.76172 5.9414,0.60938 10.96875,1.67578 5.02734,1.06641 8.53125,2.4375 3.5039,1.3711 4.57031,2.4375 1.21875,0.91407 1.82813,2.13282 0.60937,1.21875 0.91406,2.74218 0.45703,1.3711 0.60937,3.50391 0.15235,2.13281 0.15235,5.17969 0,4.72265 -0.30469,7.92187 -0.15234,3.04688 -0.76172,4.875 -0.60937,1.67578 -1.67578,2.4375 -1.06641,0.76172 -2.58984,0.76172 -1.82813,0 -4.72266,-0.91406 -2.89453,-1.06641 -7.00781,-2.28516 -4.11328,-1.21875 -9.75,-2.13281 -5.48438,-0.91406 -12.79688,-0.91406 -12.33984,0 -20.87109,4.57031 -8.53125,4.57031 -13.86328,12.49219 -5.33203,7.76953 -7.76953,18.1289 -2.4375,10.35938 -2.58985,21.9375 3.35156,-2.13281 7.61719,-4.26562 4.41797,-2.13281 9.44531,-3.65625 5.17969,-1.52344 11.1211,-2.4375 5.9414,-1.06641 12.64453,-1.06641 14.92968,0 25.59375,4.11328 10.66406,4.11329 17.36718,11.73047 6.85547,7.61719 10.05469,18.4336 3.19922,10.8164 3.19922,24.07031 z m -39.30469,3.80859 q 0,-7.76953 -1.37109,-13.55859 -1.37109,-5.94141 -4.41797,-9.90234 -3.04687,-4.11329 -8.07422,-6.09375 -5.02734,-2.13282 -12.1875,-2.13282 -4.26562,0 -8.3789,0.76172 -4.11329,0.76172 -8.07422,2.13281 -3.96094,1.3711 -7.61719,3.35157 -3.65625,1.82812 -6.85547,3.96093 0,16.30079 1.82813,27.26954 1.82812,10.8164 5.33203,17.21484 3.65625,6.39844 8.98828,9.14062 5.48437,2.58985 12.64453,2.58985 7.00781,0 12.1875,-2.58985 5.33203,-2.58984 8.83594,-7.3125 3.5039,-4.72265 5.33203,-10.96875 1.82812,-6.39843 1.82812,-13.86328 z"
       style="font-size:64.99999762%;baseline-shift:sub"
       id="path4177" />
    <path
       d="m -316.79687,509.5625 q 0,2.34375 -1.64063,4.21875 -1.40625,1.875 -4.92187,3.04687 -3.51563,1.17188 -9.375,1.875 -5.85938,0.70313 -14.76563,0.70313 -9.14062,0 -15.23437,-0.70313 -5.85938,-0.70312 -9.375,-1.875 -3.28125,-1.17187 -4.92188,-3.04687 -1.40625,-1.875 -1.40625,-4.21875 l 0,-122.57813 -113.4375,0 0,122.57813 q 0,2.34375 -1.40625,4.21875 -1.40625,1.875 -4.92187,3.04687 -3.51563,1.17188 -9.375,1.875 -5.85938,0.70313 -15,0.70313 -8.90625,0 -15,-0.70313 -5.85938,-0.70312 -9.375,-1.875 -3.51563,-1.17187 -5.15625,-3.04687 -1.40625,-1.875 -1.40625,-4.21875 l 0,-286.40625 q 0,-2.34375 1.40625,-4.21875 1.64062,-1.875 5.15625,-3.04688 3.51562,-1.17187 9.375,-1.875 6.09375,-0.70312 15,-0.70312 9.14062,0 15,0.70312 5.85937,0.70313 9.375,1.875 3.51562,1.17188 4.92187,3.04688 1.40625,1.875 1.40625,4.21875 l 0,111.32812 113.4375,0 0,-111.32812 q 0,-2.34375 1.40625,-4.21875 1.64063,-1.875 4.92188,-3.04688 3.51562,-1.17187 9.375,-1.875 6.09375,-0.70312 15.23437,-0.70312 8.90625,0 14.76563,0.70312 5.85937,0.70313 9.375,1.875 3.51562,1.17188 4.92187,3.04688 1.64063,1.875 1.64063,4.21875 l 0,286.40625 z"
       id="path4179" />
    <path
       d="m -135.0625,548.1875 q 0,14.92969 -4.57031,27.72656 -4.57031,12.64453 -13.40625,21.9375 -8.83594,9.14063 -21.78516,14.47266 -12.94922,5.17969 -29.85937,5.17969 -13.71094,0 -23.91797,-3.19922 -10.20703,-3.04688 -17.67188,-8.83594 -7.46484,-5.94141 -12.1875,-14.32031 -4.72265,-8.37891 -7.61718,-18.89063 -2.74219,-10.51172 -3.8086,-22.85156 -1.0664,-12.33984 -1.0664,-26.20313 0,-11.57812 1.0664,-24.22265 1.21875,-12.64453 4.41797,-24.83203 3.35156,-12.1875 9.29297,-23.15625 5.94141,-11.1211 15.23437,-19.34766 9.44532,-8.37891 22.69922,-13.25391 13.40625,-4.875 31.6875,-4.875 5.78907,0 11.57813,0.76172 5.9414,0.60938 10.96875,1.67578 5.02734,1.06641 8.53125,2.4375 3.5039,1.3711 4.57031,2.4375 1.21875,0.91407 1.82813,2.13282 0.60937,1.21875 0.91406,2.74218 0.45703,1.3711 0.60937,3.50391 0.15235,2.13281 0.15235,5.17969 0,4.72265 -0.30469,7.92187 -0.15234,3.04688 -0.76172,4.875 -0.60937,1.67578 -1.67578,2.4375 -1.06641,0.76172 -2.58984,0.76172 -1.82813,0 -4.72266,-0.91406 -2.89453,-1.06641 -7.00781,-2.28516 -4.11328,-1.21875 -9.75,-2.13281 -5.48438,-0.91406 -12.79688,-0.91406 -12.33984,0 -20.87109,4.57031 -8.53125,4.57031 -13.86328,12.49219 -5.33203,7.76953 -7.76953,18.1289 -2.4375,10.35938 -2.58985,21.9375 3.35156,-2.13281 7.61719,-4.26562 4.41797,-2.13281 9.44531,-3.65625 5.17969,-1.52344 11.1211,-2.4375 5.9414,-1.06641 12.64453,-1.06641 14.92968,0 25.59375,4.11328 10.66406,4.11329 17.36718,11.73047 6.85547,7.61719 10.05469,18.4336 3.19922,10.8164 3.19922,24.07031 z m -39.30469,3.80859 q 0,-7.76953 -1.37109,-13.55859 -1.37109,-5.94141 -4.41797,-9.90234 -3.04687,-4.11329 -8.07422,-6.09375 -5.02734,-2.13282 -12.1875,-2.13282 -4.26562,0 -8.3789,0.76172 -4.11329,0.76172 -8.07422,2.13281 -3.96094,1.3711 -7.61719,3.35157 -3.65625,1.82812 -6.85547,3.96093 0,16.30079 1.82813,27.26954 1.82812,10.8164 5.33203,17.21484 3.65625,6.39844 8.98828,9.14062 5.48437,2.58985 12.64453,2.58985 7.00781,0 12.1875,-2.58985 5.33203,-2.58984 8.83594,-7.3125 3.5039,-4.72265 5.33203,-10.96875 1.82812,-6.39843 1.82812,-13.86328 z"
       style="font-size:64.99999762%;baseline-shift:sub"
       id="path4181" />
  </g>
</svg>
