<?xml version="1.0" encoding="utf-8"?>
<!-- Generator: Adobe Illustrator 15.0.0, SVG Export Plug-In . SVG Version: 6.00 Build 0)  -->
<!DOCTYPE svg PUBLIC "-//W3C//DTD SVG 1.1//EN" "http://www.w3.org/Graphics/SVG/1.1/DTD/svg11.dtd">
<svg version="1.1"
	 id="svg4152" sodipodi:docname="icons.svg" inkscape:version="0.91 r13725" xmlns:dc="http://purl.org/dc/elements/1.1/" xmlns:cc="http://creativecommons.org/ns#" xmlns:rdf="http://www.w3.org/1999/02/22-rdf-syntax-ns#" xmlns:svg="http://www.w3.org/2000/svg" xmlns:sodipodi="http://sodipodi.sourceforge.net/DTD/sodipodi-0.dtd" xmlns:inkscape="http://www.inkscape.org/namespaces/inkscape"
	 xmlns="http://www.w3.org/2000/svg" xmlns:xlink="http://www.w3.org/1999/xlink" x="0px" y="0px" width="1000px" height="1000px"
	 viewBox="0 0 1000 1000" enable-background="new 0 0 1000 1000" xml:space="preserve">
<path d="M953.102,865.157c0,3.837-1.218,7.457-3.836,10.49c-2.628,3.245-6.879,5.87-12.742,7.695
	c-5.848,2.012-13.735,3.625-23.629,4.83c-9.912,1.229-22.238,1.822-37.394,1.822c-15.355,0-28.085-0.594-38.183-1.822
	c-9.91-1.204-17.991-2.818-23.649-4.83c-5.662-1.825-9.896-4.45-12.321-7.695c-2.633-3.032-3.839-6.653-3.839-10.49V555.371H510.967
	v309.787c0,3.838-1.209,7.457-3.632,10.49c-2.43,3.244-6.464,5.87-12.53,7.695c-5.861,2.014-13.748,3.625-23.641,4.831
	c-9.902,1.229-22.43,1.822-37.799,1.822c-14.956,0-27.476-0.594-37.579-1.822c-10.099-1.204-18.187-2.817-24.049-4.831
	c-5.861-1.825-10.095-4.451-12.724-7.695c-2.634-3.031-3.837-6.652-3.837-10.49V141.536c0-3.834,1.203-7.485,3.837-10.515
	c2.627-3.221,6.861-5.848,12.724-7.673c5.862-2.036,13.951-3.645,24.049-4.852c10.102-1.208,22.624-1.822,37.579-1.822
	c15.369,0,27.897,0.615,37.799,1.822c9.894,1.207,17.779,2.816,23.641,4.852c6.066,1.825,10.101,4.452,12.53,7.673
	c2.423,3.029,3.632,6.68,3.632,10.515v281.274h286.542V141.536c0-3.834,1.205-7.485,3.839-10.515
	c2.427-3.221,6.661-5.848,12.321-7.673c5.658-2.036,13.737-3.645,23.649-4.852c10.098-1.208,22.829-1.822,38.183-1.822
	c15.155,0,27.481,0.615,37.394,1.822c9.894,1.207,17.779,2.816,23.629,4.852c5.863,1.825,10.114,4.452,12.742,7.673
	c2.617,3.029,3.836,6.68,3.836,10.515V865.157z"/>
<path d="M259.367,349.994c0,5.14-0.286,9.425-0.849,12.978c-0.563,3.55-1.312,6.44-2.327,8.5c-1.03,2.036-2.153,3.623-3.458,4.477
	c-1.217,0.923-2.711,1.397-4.391,1.397H53.178c-1.489,0-2.898-0.474-4.109-1.397c-1.312-0.854-2.422-2.441-3.452-4.477
	c-1.023-2.059-1.775-4.95-2.333-8.5c-0.557-3.553-0.84-7.839-0.84-12.978c0-5.327,0.283-9.709,0.744-13.26
	c0.476-3.553,1.124-6.44,2.146-8.572c1.025-2.252,2.149-3.838,3.455-4.853c1.222-0.948,2.714-1.494,4.389-1.494h65.893V91.547
	L62.13,122.995c-4.192,2.062-7.556,3.268-10.265,3.744c-2.603,0.447-4.665-0.098-6.25-1.682c-1.588-1.492-2.616-4.214-3.173-8.029
	c-0.474-3.834-0.747-9.234-0.747-16.15c0-4.38,0.095-7.934,0.273-10.823c0.094-2.811,0.568-5.238,1.314-7.189
	c0.745-2.062,1.776-3.647,2.983-4.952c1.312-1.299,3.091-2.615,5.236-4.107l76.059-49.184c0.842-0.745,1.963-1.314,3.361-1.776
	c1.395-0.475,3.175-0.843,5.327-1.126c2.239-0.284,5.033-0.461,8.68-0.553c3.544-0.098,8.121-0.098,13.807-0.098
	c6.914,0,12.511,0.098,16.812,0.369c4.288,0.284,7.458,0.76,9.695,1.41c2.155,0.555,3.646,1.491,4.393,2.522
	c0.654,1.113,1.019,2.522,1.019,4.107v292.338h57.685c1.68,0,3.173,0.544,4.58,1.494c1.304,1.016,2.512,2.603,3.541,4.853
	c1.033,2.13,1.688,5.019,2.158,8.572C259.081,340.285,259.367,344.666,259.367,349.994z"/>
</svg>
