<?xml version="1.0" encoding="utf-8"?>
<!-- Generator: Adobe Illustrator 15.0.0, SVG Export Plug-In . SVG Version: 6.00 Build 0)  -->
<!DOCTYPE svg PUBLIC "-//W3C//DTD SVG 1.1//EN" "http://www.w3.org/Graphics/SVG/1.1/DTD/svg11.dtd">
<svg stroke="currentColor" fill="currentColor" version="1.1"
	 id="svg4152" sodipodi:docname="icons.svg" inkscape:version="0.91 r13725" xmlns:dc="http://purl.org/dc/elements/1.1/" xmlns:cc="http://creativecommons.org/ns#" xmlns:rdf="http://www.w3.org/1999/02/22-rdf-syntax-ns#" xmlns:svg="http://www.w3.org/2000/svg" xmlns:sodipodi="http://sodipodi.sourceforge.net/DTD/sodipodi-0.dtd" xmlns:inkscape="http://www.inkscape.org/namespaces/inkscape"
	 xmlns="http://www.w3.org/2000/svg" xmlns:xlink="http://www.w3.org/1999/xlink" x="0px" y="0px" width="1000px" height="1000px"
	 viewBox="0 0 1000 1000" enable-background="new 0 0 1000 1000" xml:space="preserve">
<g>
	
		<line fill="none" stroke="#000002" stroke-width="30.0044" stroke-linecap="round" stroke-linejoin="round" stroke-miterlimit="22.9256" x1="363.105" y1="35.888" x2="416.233" y2="106.042"/>
	
		<line fill="none" stroke="#000002" stroke-width="30.0044" stroke-linecap="round" stroke-linejoin="round" stroke-miterlimit="22.9256" x1="309.974" y1="106.042" x2="363.105" y2="35.888"/>
	
		<line fill="none" stroke="#000002" stroke-width="41.5301" stroke-linecap="round" stroke-linejoin="round" stroke-miterlimit="22.9256" x1="363.114" y1="640.841" x2="939.468" y2="640.841"/>
	
		<line fill="none" stroke="#000002" stroke-width="41.5301" stroke-linecap="round" stroke-linejoin="round" stroke-miterlimit="22.9256" x1="363.105" y1="640.841" x2="363.105" y2="64.487"/>
	
		<line fill="none" stroke="#000002" stroke-width="30.0044" stroke-linecap="round" stroke-linejoin="round" stroke-miterlimit="22.9256" x1="968.07" y1="640.841" x2="897.912" y2="693.968"/>
	
		<line fill="none" stroke="#000002" stroke-width="30.0044" stroke-linecap="round" stroke-linejoin="round" stroke-miterlimit="22.9256" x1="897.912" y1="587.713" x2="968.07" y2="640.841"/>
	<path fill="#000002" d="M480.425,505.72c27.762,0,50.405-14.576,50.405-32.437c0-17.87-22.644-32.435-50.405-32.435
		c-27.769,0-50.41,14.565-50.41,32.435C430.015,491.145,452.656,505.72,480.425,505.72z"/>
	<path d="M284.782,291.987c0,2.158-0.043,3.961-0.175,5.458c-0.13,1.498-0.354,2.817-0.572,3.875
		c-0.266,1.101-0.616,2.026-1.057,2.774c-0.441,0.795-1.101,1.672-2.071,2.642c-0.921,1.012-2.772,2.244-5.459,3.83
		c-2.729,1.542-6.03,3.035-9.947,4.446c-3.917,1.406-8.361,2.598-13.423,3.521c-5.018,0.969-10.433,1.454-16.289,1.454
		c-11.442,0-21.743-1.804-30.944-5.327c-9.201-3.52-17.036-8.759-23.462-15.756c-6.468-7.045-11.398-15.76-14.835-26.281
		c-3.433-10.476-5.192-22.667-5.192-36.624c0-14.171,1.896-26.761,5.677-37.764c3.785-11.005,9.069-20.25,15.89-27.729
		c6.782-7.485,14.925-13.161,24.433-17.036c9.507-3.874,19.939-5.812,31.38-5.812c4.668,0,9.113,0.396,13.429,1.188
		c4.314,0.75,8.275,1.764,11.931,3.039c3.65,1.231,6.953,2.687,9.855,4.315c2.908,1.629,4.979,3.035,6.122,4.179
		c1.188,1.144,1.979,2.113,2.376,2.909c0.44,0.791,0.791,1.761,1.056,2.949c0.262,1.23,0.441,2.642,0.571,4.27
		c0.131,1.628,0.175,3.65,0.175,6.075c0,2.549-0.087,4.749-0.217,6.554c-0.175,1.808-0.485,3.258-0.926,4.406
		c-0.441,1.101-0.925,1.935-1.542,2.418c-0.615,0.529-1.275,0.792-2.065,0.792c-1.28,0-2.909-0.747-4.886-2.245
		c-1.982-1.493-4.537-3.209-7.704-5.061c-3.126-1.847-6.869-3.521-11.178-5.018c-4.358-1.499-9.556-2.244-15.586-2.244
		c-6.602,0-12.501,1.362-17.694,4.047c-5.24,2.729-9.638,6.603-13.293,11.62c-3.655,5.017-6.427,11.092-8.318,18.227
		c-1.896,7.171-2.861,15.185-2.861,24.119c0,9.817,1.014,18.311,3.036,25.486c2.025,7.18,4.93,13.074,8.672,17.742
		c3.742,4.621,8.231,8.096,13.511,10.384c5.284,2.25,11.271,3.393,17.873,3.393c6.031,0,11.223-0.707,15.581-2.113
		c4.402-1.411,8.188-2.996,11.314-4.712c3.122-1.716,5.721-3.257,7.747-4.664c2.026-1.366,3.563-2.027,4.708-2.027
		c0.838,0,1.542,0.131,2.026,0.485c0.528,0.354,0.969,1.056,1.318,2.07c0.354,1.057,0.571,2.463,0.75,4.309
		C284.694,286.396,284.782,288.865,284.782,291.987z"/>
	<path  stroke-width="0.9658" stroke-miterlimit="22.9256" d="M75.202,200.414c0,1.117-0.06,2.052-0.183,2.825
		c-0.122,0.772-0.283,1.403-0.507,1.851c-0.227,0.446-0.471,0.791-0.755,0.975c-0.262,0.206-0.59,0.307-0.956,0.307H30.29
		c-0.328,0-0.633-0.101-0.896-0.307c-0.284-0.184-0.529-0.529-0.75-0.975c-0.223-0.448-0.388-1.079-0.51-1.851
		c-0.122-0.774-0.181-1.708-0.181-2.825c0-1.162,0.059-2.114,0.163-2.887c0.1-0.774,0.245-1.406,0.467-1.875
		c0.222-0.484,0.467-0.834,0.75-1.057c0.267-0.201,0.589-0.324,0.956-0.324h14.354v-50.162l-12.402,6.856
		c-0.917,0.446-1.646,0.707-2.236,0.811c-0.572,0.1-1.017-0.021-1.362-0.367c-0.35-0.328-0.571-0.913-0.692-1.747
		c-0.103-0.835-0.163-2.013-0.163-3.521c0-0.956,0.021-1.729,0.06-2.358c0.023-0.611,0.122-1.14,0.284-1.568
		c0.162-0.445,0.388-0.791,0.65-1.074c0.284-0.284,0.672-0.572,1.139-0.896l16.569-10.717c0.188-0.162,0.428-0.284,0.733-0.384
		c0.305-0.105,0.689-0.183,1.162-0.245c0.484-0.06,1.096-0.101,1.891-0.122c0.77-0.023,1.769-0.023,3.009-0.023
		c1.501,0,2.726,0.023,3.659,0.083c0.934,0.06,1.625,0.162,2.114,0.305c0.466,0.122,0.794,0.324,0.956,0.546
		c0.14,0.245,0.222,0.55,0.222,0.895v63.682h12.563c0.367,0,0.693,0.123,0.996,0.324c0.289,0.223,0.551,0.571,0.774,1.057
		c0.227,0.466,0.367,1.101,0.471,1.874C75.142,198.3,75.202,199.252,75.202,200.414L75.202,200.414z M137.377,183.802
		c0,3.843-0.734,7.257-2.196,10.249c-1.463,2.964-3.521,5.467-6.141,7.498c-2.625,2.013-5.755,3.559-9.414,4.621
		c-3.66,1.057-7.646,1.563-11.974,1.563c-2.625,0-5.083-0.184-7.385-0.551c-2.298-0.384-4.328-0.851-6.096-1.403
		c-1.768-0.567-3.236-1.139-4.393-1.729c-1.139-0.612-1.891-1.057-2.258-1.38c-0.362-0.305-0.629-0.671-0.791-1.056
		c-0.183-0.411-0.345-0.878-0.489-1.405c-0.144-0.546-0.244-1.22-0.305-2.03c-0.06-0.817-0.083-1.791-0.083-2.952
		c0-1.908,0.167-3.233,0.471-3.961c0.324-0.733,0.812-1.101,1.441-1.101c0.388,0,1.078,0.267,2.052,0.812
		c0.979,0.533,2.218,1.1,3.721,1.729c1.505,0.612,3.275,1.18,5.31,1.729c2.013,0.529,4.329,0.791,6.909,0.791
		c2.179,0,4.109-0.262,5.777-0.773c1.669-0.507,3.091-1.235,4.25-2.175c1.179-0.934,2.053-2.053,2.625-3.393
		c0.567-1.324,0.873-2.809,0.873-4.433c0-1.791-0.367-3.397-1.057-4.822c-0.689-1.441-1.729-2.663-3.092-3.676
		c-1.362-1-3.091-1.791-5.183-2.341c-2.075-0.567-4.533-0.834-7.363-0.834h-6.668c-0.507,0-0.956-0.079-1.302-0.224
		c-0.362-0.122-0.672-0.427-0.896-0.851c-0.245-0.45-0.407-1.041-0.507-1.812c-0.105-0.795-0.145-1.791-0.145-3.009
		c0-1.158,0.039-2.091,0.145-2.846c0.1-0.729,0.262-1.302,0.467-1.687c0.222-0.405,0.506-0.672,0.834-0.833
		c0.345-0.161,0.75-0.244,1.217-0.244h6.73c2.317,0,4.354-0.267,6.139-0.795c1.791-0.546,3.297-1.297,4.493-2.296
		c1.224-0.997,2.135-2.197,2.787-3.6c0.633-1.424,0.935-2.964,0.935-4.678c0-1.318-0.201-2.558-0.65-3.72
		c-0.423-1.18-1.075-2.192-1.93-3.047c-0.855-0.857-1.951-1.524-3.314-2.013c-1.341-0.507-2.926-0.751-4.755-0.751
		c-2.075,0-4.008,0.305-5.834,0.913c-1.833,0.633-3.458,1.302-4.92,2.036c-1.446,0.733-2.687,1.423-3.683,2.053
		c-1.018,0.632-1.768,0.956-2.237,0.956c-0.322,0-0.61-0.083-0.834-0.205c-0.243-0.141-0.445-0.407-0.611-0.812
		c-0.139-0.385-0.262-0.975-0.346-1.729c-0.083-0.75-0.122-1.725-0.122-2.904c0-1,0.023-1.83,0.062-2.484
		c0.043-0.646,0.122-1.196,0.244-1.646c0.101-0.424,0.267-0.812,0.445-1.117c0.167-0.324,0.472-0.668,0.856-1.057
		c0.406-0.367,1.219-0.934,2.441-1.686c1.24-0.751,2.785-1.484,4.655-2.196c1.87-0.733,4.004-1.322,6.463-1.83
		c2.441-0.489,5.084-0.734,7.952-0.734c3.72,0,7.034,0.429,9.921,1.301c2.868,0.873,5.288,2.134,7.258,3.782
		c1.973,1.647,3.458,3.682,4.476,6.08c0.996,2.402,1.501,5.105,1.501,8.135c0,2.337-0.283,4.51-0.896,6.546
		c-0.59,2.035-1.463,3.843-2.603,5.429c-1.158,1.585-2.602,2.93-4.331,4.048c-1.725,1.117-3.721,1.951-5.973,2.498v0.184
		c2.681,0.306,5.123,0.996,7.257,2.053c2.153,1.062,3.966,2.38,5.45,3.964c1.485,1.59,2.642,3.375,3.433,5.391
		C136.989,179.331,137.377,181.484,137.377,183.802z"/>
	<path d="M849.393,917.236c0,0.839-0.262,1.634-0.834,2.289c-0.572,0.706-1.497,1.275-2.774,1.676
		c-1.279,0.438-2.996,0.786-5.153,1.058c-2.156,0.262-4.843,0.392-8.139,0.392c-3.346,0-6.12-0.131-8.325-0.392
		c-2.153-0.271-3.916-0.621-5.149-1.058c-1.23-0.4-2.157-0.97-2.685-1.676c-0.571-0.655-0.834-1.45-0.834-2.289V849.76H753.08
		v67.477c0,0.839-0.264,1.634-0.792,2.289c-0.527,0.706-1.409,1.275-2.728,1.676c-1.277,0.438-2.997,0.786-5.154,1.058
		c-2.157,0.262-4.887,0.392-8.231,0.392c-3.257,0-5.986-0.131-8.184-0.392c-2.199-0.271-3.961-0.621-5.239-1.058
		c-1.276-0.4-2.201-0.97-2.773-1.676c-0.571-0.655-0.835-1.45-0.835-2.289V759.609c0-0.838,0.264-1.633,0.835-2.287
		c0.57-0.708,1.497-1.275,2.773-1.678c1.28-0.437,3.04-0.785,5.239-1.057c2.197-0.262,4.927-0.392,8.184-0.392
		c3.345,0,6.074,0.132,8.231,0.392c2.157,0.271,3.877,0.621,5.154,1.057c1.318,0.402,2.2,0.97,2.728,1.678
		c0.528,0.654,0.792,1.45,0.792,2.287v61.27h62.419v-61.27c0-0.838,0.263-1.633,0.834-2.287c0.527-0.708,1.454-1.275,2.685-1.678
		c1.231-0.437,2.996-0.785,5.149-1.057c2.205-0.262,4.979-0.392,8.325-0.392c3.296,0,5.982,0.132,8.139,0.392
		c2.157,0.271,3.874,0.621,5.153,1.057c1.277,0.402,2.2,0.97,2.774,1.678c0.572,0.654,0.834,1.45,0.834,2.287V917.236z"/>
	<path  stroke-width="0.9658" stroke-miterlimit="22.9256" d="M686.806,805.017c0,1.118-0.062,2.053-0.184,2.83
		c-0.121,0.769-0.283,1.397-0.506,1.843c-0.223,0.453-0.468,0.796-0.752,0.979c-0.266,0.208-0.59,0.305-0.955,0.305h-42.517
		c-0.323,0-0.629-0.095-0.896-0.305c-0.284-0.184-0.528-0.524-0.751-0.979c-0.221-0.446-0.388-1.074-0.51-1.843
		c-0.118-0.777-0.179-1.711-0.179-2.83c0-1.161,0.061-2.113,0.162-2.883c0.1-0.776,0.243-1.406,0.466-1.879
		c0.223-0.479,0.468-0.829,0.752-1.055c0.267-0.203,0.59-0.325,0.957-0.325h14.354v-50.158l-12.402,6.848
		c-0.913,0.453-1.646,0.717-2.237,0.82c-0.566,0.096-1.017-0.027-1.362-0.367c-0.345-0.33-0.571-0.916-0.688-1.747
		c-0.104-0.839-0.167-2.017-0.167-3.52c0-0.961,0.022-1.729,0.061-2.357c0.021-0.612,0.122-1.146,0.284-1.574
		c0.166-0.444,0.388-0.786,0.65-1.074c0.288-0.288,0.672-0.566,1.139-0.89l16.573-10.717c0.182-0.165,0.429-0.288,0.729-0.385
		c0.305-0.104,0.693-0.183,1.161-0.244c0.488-0.062,1.096-0.104,1.892-0.122c0.772-0.026,1.767-0.026,3.008-0.026
		c1.503,0,2.726,0.026,3.659,0.087c0.935,0.062,1.63,0.158,2.115,0.306c0.468,0.114,0.795,0.325,0.956,0.542
		c0.144,0.246,0.223,0.551,0.223,0.901v63.676h12.566c0.367,0,0.69,0.121,0.997,0.324c0.283,0.226,0.55,0.575,0.773,1.055
		c0.223,0.472,0.366,1.103,0.467,1.879C686.744,802.903,686.806,803.855,686.806,805.017z"/>
	<path fill="#000002" d="M480.425,333.943c27.762,0,50.405-14.566,50.405-32.433c0-17.865-22.644-32.433-50.405-32.433
		c-27.769,0-50.41,14.568-50.41,32.433C430.015,319.375,452.656,333.943,480.425,333.943z"/>
	<path fill="#000002" d="M789.938,330.704c27.766,0,50.406-14.566,50.406-32.433s-22.641-32.433-50.406-32.433
		c-27.769,0-50.411,14.568-50.411,32.433S762.169,330.704,789.938,330.704z"/>
	<path fill="#000002" d="M789.938,181.619c27.766,0,50.406-14.568,50.406-32.434c0-17.864-22.641-32.432-50.406-32.432
		c-27.769,0-50.411,14.568-50.411,32.432C739.526,167.051,762.169,181.619,789.938,181.619z"/>
</g>
</svg>
