<!-- Generator: Adobe Illustrator 15.0.0, SVG Export Plug-In . SVG Version: 6.00 Build 0)  -->

<svg stroke="currentColor" fill="currentColor"
   xmlns="http://www.w3.org/2000/svg"
   x="0px"
   y="0px"
   width="1000px"
   height="1000px"
   viewBox="-2 24.6 970.5 970.5"
   enable-background="new 0 0 1000 1000"><g><path
       d="m 290.5916,768.96966 c 33.109,0 60.112,-27.008 60.112,-60.127 0,-33.114 -27.003,-60.119 -60.112,-60.119 -33.12,0 -60.125,27.005 -60.125,60.119 -0.001,33.119 27.005,60.127 60.125,60.127 z" /><line
       stroke-miterlimit="22.9256"
       x1="109.4912"
       y1="73.172371"
       x2="165.00719"
       y2="146.47939"
       style="fill:none;stroke-width:31.35440063;stroke-linecap:round;stroke-linejoin:round;stroke-miterlimit:22.92560005" /><line
       stroke-miterlimit="22.9256"
       x1="53.968185"
       y1="146.47939"
       x2="109.4912"
       y2="73.172371"
       style="fill:none;stroke-width:31.35440063;stroke-linecap:round;stroke-linejoin:round;stroke-miterlimit:22.92560005" /><line
       stroke-miterlimit="22.9256"
       x1="115.06079"
       y1="891.1087"
       x2="869.51727"
       y2="891.1087"
       style="fill:none;stroke-width:48.5728035;stroke-linecap:round;stroke-linejoin:round;stroke-miterlimit:22.92560005" /><line
       stroke-miterlimit="22.9256"
       x1="109.4912"
       y1="884.98694"
       x2="109.4912"
       y2="115.16853"
       style="fill:none;stroke-width:49.06461716;stroke-linecap:round;stroke-linejoin:round;stroke-miterlimit:22.92560005" /><line
       stroke-miterlimit="22.9256"
       x1="912.45844"
       y1="891.1087"
       x2="839.14246"
       y2="946.62671"
       style="fill:none;stroke-width:31.35440063;stroke-linecap:round;stroke-linejoin:round;stroke-miterlimit:22.92560005" /><line
       stroke-miterlimit="22.9256"
       x1="839.14246"
       y1="835.58972"
       x2="912.45844"
       y2="891.1087"
       style="fill:none;stroke-width:31.35440063;stroke-linecap:round;stroke-linejoin:round;stroke-miterlimit:22.92560005" /><path
       d="m 510.655,527.34 c 33.108,0 60.111,-27.005 60.111,-60.117 0,-33.121 -27.003,-60.126 -60.111,-60.126 -33.121,0 -60.127,27.007 -60.127,60.126 0,33.112 27.006,60.117 60.127,60.117 z" /><path
       d="m 793.139,527.34 c 33.111,0 60.116,-27.005 60.116,-60.117 0,-33.121 -27.005,-60.126 -60.116,-60.126 -33.121,0 -60.126,27.007 -60.126,60.126 0,33.112 27.005,60.117 60.126,60.117 z" /><path
       d="m 510.655,260.415 c 33.108,0 60.111,-27.007 60.111,-60.118 0,-33.121 -27.003,-60.126 -60.111,-60.126 -33.121,0 -60.127,27.005 -60.127,60.126 0,33.111 27.006,60.118 60.127,60.118 z" /><path
       d="M793.139,260.415c33.111,0,60.116-27.007,60.116-60.118c0-33.121-27.005-60.126-60.116-60.126   c-33.121,0-60.126,27.005-60.126,60.126C733.013,233.408,760.018,260.415,793.139,260.415z" /></g></svg>
