<?xml version="1.0" encoding="utf-8"?>

<svg stroke="currentColor" fill="currentColor" xmlns="http://www.w3.org/2000/svg" xmlns:xlink="http://www.w3.org/1999/xlink" width="1000" height="1000" viewBox="0 0 1000 1000">
	<g id="addFilter" transform="translate(-6.916 -44.608)">
		<path id="spectrum" d="M45.332,934.783c558.451,0,148.174-1.283,633.454-1.283,10.578,0,47.87-38,57.844-55l44.9-345.78L826.387,880.5l26.927,54,113.692.283" transform="translate(0 -2.494)" fill="none" stroke="#000" stroke-linecap="round" stroke-linejoin="round" stroke-miterlimit="22.926" stroke-width="50.126" />
		<g id="arrow">
			<path id="Path_9" data-name="Path 9" d="M215.713,31.912,120.755,92.669,86.629,200.117C73.842,136.809,35.927,57.184,0,0" transform="translate(491.639 407.607) rotate(-30)" stroke="#000" stroke-width="1" />
			<path id="Path_11" data-name="Path 11" d="M0,0C57.741,37.754,77.782,70.2,76.828,132.233" transform="translate(631.217 421.504) rotate(-30)" fill="none" stroke="#000" stroke-linejoin="round" stroke-miterlimit="22.926" stroke-width="48.987" />
		</g>
		<path id="filter" d="M533.369-427.3c18.317,5.053,34.108,20.212,40.424,38.4,2.021,5.937,2.4,10.738,2.4,33.6,0,28.8-1.011,35.876-6.822,47.246a72.107,72.107,0,0,1-7.706,11.369c-4.169,4.8-75.8,61.521-79.585,62.91-1.642.632-20.844-23.876-20.844-26.528,0-.884,17.054-14.906,37.9-31.076,26.655-20.717,38.4-30.571,39.793-33.476,1.516-3.285,1.895-9.222,1.895-29.56,0-28.676-.884-32.592-7.832-36.382-4.042-2.148-14.654-2.274-244.819-2.274s-240.777.126-244.819,2.274c-6.948,3.79-7.832,7.706-7.832,36.255,0,18.7.505,26.4,1.769,29.56,1.39,3.411,19.581,17.054,101.313,75.922,54.825,39.414,100.934,72.89,102.324,74.406,2.653,2.527,3.032,7.706,11.117,120.767,4.674,64.931,8.716,119.63,9.1,121.4a13.9,13.9,0,0,0,3.79,6.316c3.158,2.905,3.916,3.032,23.244,3.032,19.454,0,20.086-.126,23.244-3.032a14.8,14.8,0,0,0,3.916-6.948c.253-2.148,2.021-24.886,3.916-50.657,1.769-25.644,3.411-46.867,3.663-47.246.758-.632,33.6,2.148,34.361,2.905,1.011,1.011-5.937,95.5-7.453,101.187-3.79,14.654-14.148,26.655-29.687,34.361l-9.727,4.8H288.3c-21.6,0-22.486-.126-29.687-3.411-10.738-5.053-19.075-11.622-24.633-19.454-4.927-6.948-5.306-8.337-8.969-31.076-.632-4.421-4.421-52.93-8.211-107.756-3.916-54.952-7.327-100.934-7.58-102.45-.379-1.895-29.813-23.749-93.1-69.353-50.909-36.634-95.25-69.227-98.534-72.385-6.948-6.7-12.759-17.054-15.538-27.413-2.906-11.5-2.653-57.226.379-67.205,4.8-15.159,15.917-27.665,31.455-35.371l9.727-4.8,241.914-.253C478.544-428.82,528.7-428.568,533.369-427.3Z" transform="translate(103.359 548.156)" />
		<path id="container" d="M7.416,45.108h997.512l2.488,1000H7.416Z" fill="none" stroke="#707070" stroke-width="1" />
	</g>
</svg>
