<?xml version="1.0" encoding="utf-8"?>
<!-- Generator: Adobe Illustrator 14.0.0, SVG Export Plug-In . SVG Version: 6.00 Build 43363)  -->
<!DOCTYPE svg PUBLIC "-//W3C//DTD SVG 1.1//EN" "http://www.w3.org/Graphics/SVG/1.1/DTD/svg11.dtd">
<svg version="1.1"
	 id="svg4152" xmlns:dc="http://purl.org/dc/elements/1.1/" xmlns:svg="http://www.w3.org/2000/svg" xmlns:cc="http://creativecommons.org/ns#" xmlns:inkscape="http://www.inkscape.org/namespaces/inkscape" xmlns:rdf="http://www.w3.org/1999/02/22-rdf-syntax-ns#" xmlns:sodipodi="http://sodipodi.sourceforge.net/DTD/sodipodi-0.dtd" sodipodi:docname="icons.svg" inkscape:version="0.91 r13725"
	 xmlns="http://www.w3.org/2000/svg" xmlns:xlink="http://www.w3.org/1999/xlink" x="0px" y="0px" width="1000px" height="1000px"
	 viewBox="0 0 1000 1000" enable-background="new 0 0 1000 1000" xml:space="preserve">
<g>
	
		<path fill="none" stroke="#000000" stroke-width="49.3119" stroke-linecap="round" stroke-linejoin="round" stroke-miterlimit="22.9256" d="
		M444.092,954.83l260.101,0.898c0,0,18.906-3.57,32.399-15.299c11.067-9.619,16.2-13.5,22.5-26.1
		c0.244-0.832,16.859-45.973,17.101-46.801c9-37.801,6.299-23.4,16.199-90.9c15.443-190.23,18.9-309.6,18.9-309.6"/>
</g>
<g>
	
		<path fill="none" stroke="#000000" stroke-width="49.3119" stroke-linecap="round" stroke-linejoin="round" stroke-miterlimit="22.9256" d="
		M812.192,467.029c0-137.7,3.456,119.369,18.899,309.6c9.899,67.5,7.2,53.1,16.2,90.9c0.24,0.828,16.854,45.969,17.1,46.801
		c6.301,12.6,11.434,16.48,22.5,26.1c13.494,11.729,32.4,15.299,32.4,15.299l50.4-0.898"/>
</g>
<path d="M494.573,832.361l84.332-51.996l31.562-93.917c10.312,55.815,42.461,126.343,73.191,177.118
	C627.25,845.12,551.271,829.771,494.573,832.361z"/>
<line fill="none" stroke="#000000" stroke-width="48.9869" stroke-linejoin="round" stroke-miterlimit="22.9256" x1="462.253" y1="673.862" x2="580.512" y2="780.082"/>
<path fill="none" stroke="#000000" stroke-width="80" stroke-linecap="round" stroke-linejoin="round" stroke-miterlimit="22.9256" d="
	M536.969,53.506c51.065-19.271,334.979,22.168,390.4,0"/>
<path fill="none" stroke="#000000" stroke-width="80" stroke-linecap="round" stroke-linejoin="round" stroke-miterlimit="22.9256" d="
	M637.369,86.706c-8.012,84.916,1.6,315.199-71.2,404"/>
<path fill="none" stroke="#000000" stroke-width="80" stroke-linecap="round" stroke-linejoin="round" stroke-miterlimit="22.9256" d="
	M637.563,273.225c0.967-0.04,86.205,16.681,149.405,10.281"/>
<polyline fill="none" stroke="#000000" stroke-width="48.9869" stroke-linecap="round" stroke-linejoin="round" stroke-miterlimit="22.9256" points="
	29.053,29.608 58.84,963.65 124.798,189.183 165.223,789.183 231.18,392.374 282.244,678.544 349.266,503.012 419.479,618.97 
	481.18,545.565 553.947,580.458 730.543,580.458 "/>
</svg>
