<?xml version="1.0" encoding="utf-8"?>
<!-- Generator: Adobe Illustrator 14.0.0, SVG Export Plug-In . SVG Version: 6.00 Build 43363)  -->
<!DOCTYPE svg PUBLIC "-//W3C//DTD SVG 1.1//EN" "http://www.w3.org/Graphics/SVG/1.1/DTD/svg11.dtd">
<svg version="1.1"
	 id="svg4152" xmlns:dc="http://purl.org/dc/elements/1.1/" xmlns:rdf="http://www.w3.org/1999/02/22-rdf-syntax-ns#" xmlns:sodipodi="http://sodipodi.sourceforge.net/DTD/sodipodi-0.dtd" xmlns:cc="http://creativecommons.org/ns#" xmlns:inkscape="http://www.inkscape.org/namespaces/inkscape" xmlns:svg="http://www.w3.org/2000/svg" inkscape:version="0.91 r13725" sodipodi:docname="icons.svg"
	 xmlns="http://www.w3.org/2000/svg" xmlns:xlink="http://www.w3.org/1999/xlink" x="0px" y="0px" width="1000px" height="1000px"
	 viewBox="0 0 1000 1000" enable-background="new 0 0 1000 1000" xml:space="preserve">
<g>
	
		<path fill="none" stroke="#000000" stroke-width="49.3119" stroke-linecap="round" stroke-linejoin="round" stroke-miterlimit="22.9256" d="
		M40.677,920.5H142.5l36-5l25-28l14-59l15-87l19-284c0,0,3.841,52.633,21,264c11,75,8,59,18,101c0.267,0.921,18.728,51.077,19,52
		c7,14,12.703,18.312,25,29c14.993,13.033,36,17,36,17l590-1"/>
</g>
<path fill="none" stroke="#000000" stroke-width="49.3119" stroke-linejoin="round" stroke-miterlimit="22.9256" d="M64.5,439.5
	c197,5,187-23.598,186-200.397c-1-176.8-15-217.205,156-212.603"/>
<ellipse stroke="#000000" stroke-width="49.3119" stroke-linecap="round" stroke-linejoin="round" stroke-miterlimit="22.9256" cx="811.5" cy="117" rx="35" ry="28.5"/>
<path fill="none" stroke="#000000" stroke-width="49.3119" stroke-linecap="round" stroke-linejoin="round" stroke-miterlimit="22.9256" d="
	M807.5,87.5c-110-2-146,237-154,349"/>
<path fill="none" stroke="#000000" stroke-width="49.3119" stroke-linecap="round" stroke-linejoin="round" stroke-miterlimit="22.9256" d="
	M810.5,90.5c-110-2-115,234-123,346"/>
<ellipse stroke="#000000" stroke-width="49.3119" stroke-linecap="round" stroke-linejoin="round" stroke-miterlimit="22.9256" cx="529.5" cy="747.98" rx="35" ry="28.5"/>
<path fill="none" stroke="#000000" stroke-width="49.3119" stroke-linecap="round" stroke-linejoin="round" stroke-miterlimit="22.9256" d="
	M533.5,777.48c110,2,146-227,154-339"/>
<path fill="none" stroke="#000000" stroke-width="49.3119" stroke-linecap="round" stroke-linejoin="round" stroke-miterlimit="22.9256" d="
	M530.5,774.48c110,2,115-224,123-336"/>
</svg>
