<?xml version="1.0" encoding="utf-8"?>
<!-- Generator: Adobe Illustrator 14.0.0, SVG Export Plug-In . SVG Version: 6.00 Build 43363)  -->
<!DOCTYPE svg PUBLIC "-//W3C//DTD SVG 1.1//EN" "http://www.w3.org/Graphics/SVG/1.1/DTD/svg11.dtd">
<svg stroke="currentColor" fill="currentColor" version="1.1"
	 id="svg4152" xmlns:dc="http://purl.org/dc/elements/1.1/" xmlns:rdf="http://www.w3.org/1999/02/22-rdf-syntax-ns#" xmlns:sodipodi="http://sodipodi.sourceforge.net/DTD/sodipodi-0.dtd" xmlns:cc="http://creativecommons.org/ns#" xmlns:inkscape="http://www.inkscape.org/namespaces/inkscape" xmlns:svg="http://www.w3.org/2000/svg" inkscape:version="0.91 r13725" sodipodi:docname="icons.svg"
	 xmlns="http://www.w3.org/2000/svg" xmlns:xlink="http://www.w3.org/1999/xlink" x="0px" y="0px" width="1000px" height="1000px"
	 viewBox="0 0 1000 1000" enable-background="new 0 0 1000 1000" xml:space="preserve">
<g>
	
		<path fill="none"  stroke-width="49.3119" stroke-linecap="round" stroke-linejoin="round" stroke-miterlimit="22.9256" d="
		M211.5,287.5c0,0,3.841,43.633,21,255c11,75,19,146,41,213c20,37,72,66,92,78c37,13,61,53,88,79c6,8,33,9,33,9l434-2"/>
</g>
<g>
	
		<path fill="none"  stroke-width="49.3119" stroke-linecap="round" stroke-linejoin="round" stroke-miterlimit="22.9256" d="
		M35.5,919.5l56,1c0,0,21.007-3.967,36-17c12.297-10.688,18-15,25-29c0.272-0.923,18.732-51.079,19-52c10-42,7-26,18-101
		c17.159-211.367,21-587,21-434"/>
</g>
<g>
	
		<path fill="none"  stroke-width="49.3119" stroke-linecap="round" stroke-linejoin="round" stroke-miterlimit="22.9256" d="
		M472.5,76.5c0,0,3.841,132.633,21,344c11,75,8,59,18,101c0.268,0.921,18.728,51.077,19,52c7,14,12.703,18.312,25,29
		c14.993,13.033,36,17,36,17l289-1"/>
</g>
<g>
	
		<path fill="none"  stroke-width="49.3119" stroke-linecap="round" stroke-linejoin="round" stroke-miterlimit="22.9256" d="
		M296.5,618.5l56,1c0,0,21.007-3.967,36-17c12.297-10.688,18-15,25-29c0.272-0.923,18.732-51.079,19-52c10-42,7-26,18-101
		c17.159-211.367,21-497,21-344"/>
</g>
<path d="M708.897,831.817l-78.271-60.741l-99.021,3.379c48.656-29.23,103.428-84.072,140.201-130.658
	C674.314,703.092,686.587,779.627,708.897,831.817z"/>
<line fill="none"  stroke-width="48.9869" stroke-linejoin="round" stroke-miterlimit="22.9256" x1="583.5" y1="881.5" x2="641.5" y2="733.5"/>
<circle fill="none"  stroke-width="48.9869" stroke-linejoin="round" stroke-miterlimit="22.9256" cx="762.5" cy="238.5" r="197"/>
<circle  stroke-width="48.9869" stroke-linejoin="round" stroke-miterlimit="22.9256" cx="762.5" cy="131.5" r="18"/>
<circle  stroke-width="48.9869" stroke-linejoin="round" stroke-miterlimit="22.9256" cx="762.5" cy="339.5" r="18"/>
<line fill="none"  stroke-width="48.9869" stroke-linejoin="round" stroke-miterlimit="22.9256" x1="667.5" y1="235.5" x2="857.5" y2="235.5"/>
</svg>
