<?xml version="1.0" encoding="utf-8"?>
<!-- Generator: Adobe Illustrator 15.0.0, SVG Export Plug-In . SVG Version: 6.00 Build 0)  -->
<!DOCTYPE svg PUBLIC "-//W3C//DTD SVG 1.1//EN" "http://www.w3.org/Graphics/SVG/1.1/DTD/svg11.dtd">
<svg stroke="currentColor" fill="currentColor" version="1.1"
	 id="svg4152" sodipodi:docname="icons.svg" inkscape:version="0.91 r13725" xmlns:dc="http://purl.org/dc/elements/1.1/" xmlns:cc="http://creativecommons.org/ns#" xmlns:rdf="http://www.w3.org/1999/02/22-rdf-syntax-ns#" xmlns:svg="http://www.w3.org/2000/svg" xmlns:sodipodi="http://sodipodi.sourceforge.net/DTD/sodipodi-0.dtd" xmlns:inkscape="http://www.inkscape.org/namespaces/inkscape"
	 xmlns="http://www.w3.org/2000/svg" xmlns:xlink="http://www.w3.org/1999/xlink" x="0px" y="0px" width="1000px" height="1000px"
	 viewBox="0 0 1000 1000" enable-background="new 0 0 1000 1000" xml:space="preserve">
<g>
	
		<line fill="none"stroke-width="60.7771" stroke-linecap="round" stroke-linejoin="round" stroke-miterlimit="22.9256" x1="53.64" y1="725.878" x2="920.359" y2="725.878"/>
	<g>
		
			<line fill="none"stroke-width="60.7771" stroke-linecap="round" stroke-linejoin="round" stroke-miterlimit="22.9256" x1="947.136" y1="725.868" x2="849.354" y2="799.927"/>
		
			<line fill="none"stroke-width="60.7771" stroke-linecap="round" stroke-linejoin="round" stroke-miterlimit="22.9256" x1="849.354" y1="651.824" x2="947.136" y2="725.868"/>
	</g>
	<path d="M69.844,454.67c13.192,0,23.943-10.758,23.943-23.942c0-13.198-10.753-23.947-23.943-23.947
		c-13.186,0-23.945,10.749-23.945,23.947C45.899,443.91,56.659,454.67,69.844,454.67z"/>
	<path d="M286.296,454.67c13.193,0,23.945-10.758,23.945-23.942c0-13.198-10.751-23.947-23.945-23.947
		c-13.194,0-23.944,10.749-23.944,23.947C262.353,443.91,273.103,454.67,286.296,454.67z"/>
	<path d="M214.149,454.67c13.184,0,23.945-10.758,23.945-23.942c0-13.198-10.761-23.947-23.945-23.947
		c-13.193,0-23.953,10.749-23.953,23.947C190.196,443.91,200.954,454.67,214.149,454.67z"/>
	<path d="M141.999,454.67c13.187,0,23.945-10.758,23.945-23.942c0-13.198-10.758-23.947-23.945-23.947
		c-13.193,0-23.943,10.749-23.943,23.947C118.056,443.91,128.806,454.67,141.999,454.67z"/>
	<path d="M410.217,454.67c13.188,0,23.947-10.758,23.947-23.942c0-13.198-10.759-23.947-23.947-23.947
		c-13.185,0-23.943,10.749-23.943,23.947C386.274,443.91,397.032,454.67,410.217,454.67z"/>
	<path d="M626.66,454.67c13.193,0,23.943-10.758,23.943-23.942c0-13.198-10.75-23.947-23.943-23.947
		c-13.186,0-23.945,10.749-23.945,23.947C602.715,443.91,613.476,454.67,626.66,454.67z"/>
	<path d="M554.521,454.67c13.185,0,23.944-10.758,23.944-23.942c0-13.198-10.76-23.947-23.944-23.947
		c-13.193,0-23.945,10.749-23.945,23.947C530.575,443.91,541.327,454.67,554.521,454.67z"/>
	<path d="M482.369,454.67c13.189,0,23.939-10.758,23.939-23.942c0-13.198-10.75-23.947-23.939-23.947
		c-13.193,0-23.946,10.749-23.946,23.947C458.421,443.91,469.175,454.67,482.369,454.67z"/>
	<path d="M843.115,454.67c13.193,0,23.941-10.758,23.941-23.942c0-13.198-10.748-23.947-23.941-23.947
		c-13.195,0-23.948,10.749-23.948,23.947C819.167,443.91,829.92,454.67,843.115,454.67z"/>
	<path d="M770.964,454.67c13.189,0,23.944-10.758,23.944-23.942c0-13.198-10.757-23.947-23.944-23.947
		c-13.185,0-23.944,10.749-23.944,23.947C747.02,443.91,757.78,454.67,770.964,454.67z"/>
	<path d="M698.817,454.67c13.185,0,23.942-10.758,23.942-23.942c0-13.198-10.76-23.947-23.942-23.947
		c-13.193,0-23.943,10.749-23.943,23.947C674.874,443.91,685.624,454.67,698.817,454.67z"/>
	<path d="M347.174,99.073c13.195,0,23.945-10.751,23.945-23.945c0-13.183-10.75-23.945-23.945-23.945
		c-13.182,0-23.942,10.762-23.942,23.945C323.232,88.321,333.992,99.073,347.174,99.073z"/>
	<path d="M287.042,284.445c2.238-13.034,14.616-21.793,27.643-19.561c13.041,2.229,21.798,14.609,19.569,27.642
		c-2.239,13.032-14.609,21.79-27.643,19.562C293.571,309.857,284.822,297.477,287.042,284.445z"/>
	<path d="M274.875,355.559c2.23-13.034,14.609-21.793,27.643-19.562c13.03,2.238,21.79,14.61,19.56,27.643
		c-2.24,13.042-14.609,21.79-27.643,19.56C281.397,380.971,272.646,368.592,274.875,355.559z"/>
	<path d="M311.393,142.216c2.239-13.041,14.611-21.792,27.643-19.569c13.042,2.237,21.791,14.616,19.562,27.641
		c-2.231,13.04-14.609,21.8-27.643,19.569C317.925,167.618,309.166,155.237,311.393,142.216z"/>
	<path d="M299.221,213.33c2.238-13.033,14.606-21.801,27.642-19.561c13.039,2.231,21.79,14.601,19.569,27.643
		c-2.238,13.03-14.617,21.787-27.649,19.56C305.748,238.741,296.988,226.362,299.221,213.33z"/>
	<path d="M407.173,284.445c-2.238-13.034-14.618-21.793-27.639-19.561c-13.042,2.229-21.801,14.609-19.572,27.642
		c2.239,13.032,14.609,21.79,27.643,19.562C400.646,309.857,409.396,297.477,407.173,284.445z"/>
	<path d="M419.341,355.559c-2.23-13.034-14.609-21.793-27.642-19.562c-13.031,2.238-21.792,14.61-19.561,27.643
		c2.238,13.042,14.609,21.79,27.642,19.56C412.821,380.971,421.574,368.592,419.341,355.559z"/>
	<path d="M382.821,142.216c-2.236-13.041-14.607-21.792-27.64-19.569c-13.042,2.237-21.792,14.616-19.561,27.641
		c2.23,13.04,14.611,21.8,27.642,19.569C376.293,167.618,385.053,155.237,382.821,142.216z"/>
	<path d="M394.999,213.33c-2.239-13.033-14.609-21.801-27.641-19.561c-13.042,2.231-21.791,14.601-19.57,27.643
		c2.239,13.03,14.618,21.787,27.65,19.56C388.47,238.741,397.228,226.362,394.999,213.33z"/>
	
		<path fill="none"stroke-width="49.2241" stroke-linecap="round" stroke-linejoin="round" stroke-miterlimit="22.9256" d="
		M72.744,560.332c506.492,0-156.848,0,372.673,0l61.025-358.899l62.127,358.899h271.338"/>
</g>
</svg>
