<!-- Generator: Adobe Illustrator 14.0.0, SVG Export Plug-In . SVG Version: 6.00 Build 43363)  -->
<!DOCTYPE svg PUBLIC "-//W3C//DTD SVG 1.1//EN" "http://www.w3.org/Graphics/SVG/1.1/DTD/svg11.dtd">
<svg stroke="currentColor" fill="currentColor"
	 xmlns="http://www.w3.org/2000/svg" xmlns:xlink="http://www.w3.org/1999/xlink" x="0px" y="0px" width="1000px" height="1000px"
	 viewBox="0 0 1000 1000" enable-background="new 0 0 1000 1000">
<path fill="none"  stroke-width="39.6529" stroke-linecap="round" stroke-linejoin="round" d="
	M43.556,943.061c64.942-0.561,18.942-0.561,145.707,0.133C307.5,941.5,274.516,540.484,283.373,462.5
	c13.218,120.809-19.692,457.958,120.678,480.692c32.647,5.286,156.088,7.401,191.512,0C734.876,914.378,696.282,608.309,709.5,487.5
	c8.724,77.984-17,429,113,457c87.151,1.308,27.312,0,129-1.439"/>
<path fill="none"  stroke-width="39.6529" stroke-linecap="round" stroke-linejoin="round" d="M244.5,106.5
	c79,59,397,144,425,190s26,82,26,82"/>
<path fill="none"  stroke-width="39.6529" stroke-linecap="round" stroke-linejoin="round" d="M239.5,114.5
	c89,59,238.867,336.803,289.497,355.152c50.629,18.35,85.522,9.27,85.522,9.27"/>
<path fill="none"  stroke-width="39.6529" stroke-linecap="round" stroke-linejoin="round" d="M340.5,324.5"/>
</svg>
