<!-- Generator: Adobe Illustrator 14.0.0, SVG Export Plug-In . SVG Version: 6.00 Build 43363)  -->
<!DOCTYPE svg PUBLIC "-//W3C//DTD SVG 1.1//EN" "http://www.w3.org/Graphics/SVG/1.1/DTD/svg11.dtd">
<svg stroke="currentColor" fill="currentColor"
	 xmlns="http://www.w3.org/2000/svg" xmlns:xlink="http://www.w3.org/1999/xlink" x="0px" y="0px" width="1000px" height="1000px"
	 viewBox="0 0 1000 1000" enable-background="new 0 0 1000 1000">
<path fill="none"  stroke-width="39.6529" stroke-linecap="round" stroke-linejoin="round" d="
	M43.556,943.061c64.939-0.561,128.939-0.561,255.707,0.136C417.5,941.5,384.515,640.484,393.373,562.5
	c13.218,120.809-19.69,357.958,120.678,380.692c23.449,0.308,21.449-0.692,41.512,0C694.876,914.378,656.282,682.309,669.5,561.5
	c8.724,77.984-17,355,113,383c87.151,1.308,57.312,0,159-1.439"/>
<path fill="none"  stroke-width="39.6529" stroke-linecap="round" stroke-linejoin="round" d="M67.5,24.5
	c79,59,397,144,425,190s26,82,26,82"/>
<path fill="none"  stroke-width="39.6529" stroke-linecap="round" stroke-linejoin="round" d="M62.5,32.5
	c89,59,238.867,336.803,289.497,355.152c50.629,18.35,85.521,9.27,85.521,9.27"/>
<path fill="none"  stroke-width="39.6529" stroke-linecap="round" stroke-linejoin="round" d="M163.5,242.5"/>
<g>
	<path d="M609.5,329.5l31-168c5.5-29,9-54.5,12-75.5H703l-5.5,42.5h1c22.5-32.5,53-48,85-48c38,0,55,24.5,57,50
		c22-33,52.5-49.5,86.5-50c33,0,59,21.5,59,65c0,10.5-2,28.5-4,41.5l-26.5,142.5H899l25-136c2-9.5,3.5-21,3.5-30.5
		c0-21-8.5-35-29.5-35c-27,0-56.5,33.5-66,85l-21.5,116.5H754l26.5-138c1.5-10,3-19.5,3-28.5c0-18-5.5-35-29.5-35
		c-27,0-58,37-67,86.5l-21,115H609.5z"/>
</g>
<polyline fill="none"  stroke-width="39.6529" stroke-linecap="round" stroke-linejoin="round" points="
	267.5,635.5 267.5,483.5 794.5,483.5 794.5,634.5 "/>
</svg>
