<?xml version="1.0" encoding="utf-8"?>
<!-- Generator: Adobe Illustrator 14.0.0, SVG Export Plug-In . SVG Version: 6.00 Build 43363)  -->
<!DOCTYPE svg PUBLIC "-//W3C//DTD SVG 1.1//EN" "http://www.w3.org/Graphics/SVG/1.1/DTD/svg11.dtd">
<svg stroke="currentColor" fill="currentColor" version="1.1"
	 id="svg4152" xmlns:dc="http://purl.org/dc/elements/1.1/" xmlns:inkscape="http://www.inkscape.org/namespaces/inkscape" sodipodi:docname="peaks.svg" xmlns:sodipodi="http://sodipodi.sourceforge.net/DTD/sodipodi-0.dtd" xmlns:cc="http://creativecommons.org/ns#" xmlns:rdf="http://www.w3.org/1999/02/22-rdf-syntax-ns#" xmlns:svg="http://www.w3.org/2000/svg" inkscape:version="0.92.1 r15371"
	 xmlns="http://www.w3.org/2000/svg" xmlns:xlink="http://www.w3.org/1999/xlink" x="0px" y="0px" width="1000px" height="1000px"
	 viewBox="0 0 1000 1000" enable-background="new 0 0 1000 1000" xml:space="preserve">
<sodipodi:namedview  objecttolerance="20" inkscape:current-layer="svg4152" inkscape:window-y="-4" inkscape:window-x="-4" inkscape:cy="459.29481" inkscape:cx="357.82213" inkscape:zoom="0.5" showgrid="true" pagecolor="#ffffff" inkscape:pageshadow="2" showguides="true" inkscape:window-width="1280" inkscape:window-height="753" bordercolor="#666666" borderopacity="1.0" inkscape:pageopacity="0.0" inkscape:guide-bbox="true" inkscape:window-maximized="1" id="base">
	<sodipodi:guide  inkscape:locked="false" position="200" orientation="horizontal" id="guide5596"></sodipodi:guide>
	<inkscape:grid  type="xygrid" empspacing="50" id="grid3430"></inkscape:grid>
	<sodipodi:guide  inkscape:locked="false" position="550,1000" orientation="0,1" id="guide4169"></sodipodi:guide>
</sodipodi:namedview>
<path id="path3736" inkscape:connector-curvature="0" fill="none"  stroke-width="39.6529" stroke-linecap="round" stroke-linejoin="round" d="
	M43.556,943.061c64.939-0.561,128.939-0.561,255.707,0.136C417.5,941.5,384.515,640.484,393.373,562.5
	c13.218,120.809-19.69,357.958,120.678,380.692c23.449,0.308,21.449-0.692,41.512,0C694.876,914.378,656.282,682.309,669.5,561.5
	c8.724,77.984-17,355,113,383c87.151,1.308,57.312,0,159-1.439"/>
<path fill="none"  stroke-width="39.6529" stroke-linecap="round" stroke-linejoin="round" d="M67.5,24.5
	c79,59,397,144,425,190s26,82,26,82"/>
<path fill="none"  stroke-width="39.6529" stroke-linecap="round" stroke-linejoin="round" d="M62.5,32.5
	c89,59,238.867,336.803,289.497,355.152c50.629,18.35,85.521,9.27,85.521,9.27"/>
<path fill="none"  stroke-width="39.6529" stroke-linecap="round" stroke-linejoin="round" d="M163.5,242.5"/>
<g>
	<path d="M609.5,329.5l31-168c5.5-29,9-54.5,12-75.5H703l-5.5,42.5h1c22.5-32.5,53-48,85-48c38,0,55,24.5,57,50
		c22-33,52.5-49.5,86.5-50c33,0,59,21.5,59,65c0,10.5-2,28.5-4,41.5l-26.5,142.5H899l25-136c2-9.5,3.5-21,3.5-30.5
		c0-21-8.5-35-29.5-35c-27,0-56.5,33.5-66,85l-21.5,116.5H754l26.5-138c1.5-10,3-19.5,3-28.5c0-18-5.5-35-29.5-35
		c-27,0-58,37-67,86.5l-21,115H609.5z"/>
</g>
<polyline fill="none"  stroke-width="39.6529" stroke-linecap="round" stroke-linejoin="round" points="
	267.5,635.5 267.5,483.5 794.5,483.5 794.5,634.5 "/>
</svg>
