<!-- Generator: Adobe Illustrator 14.0.0, SVG Export Plug-In . SVG Version: 6.00 Build 43363)  -->
<!DOCTYPE svg PUBLIC "-//W3C//DTD SVG 1.1//EN" "http://www.w3.org/Graphics/SVG/1.1/DTD/svg11.dtd">
<svg stroke="currentColor" fill="currentColor"
	 xmlns="http://www.w3.org/2000/svg" xmlns:xlink="http://www.w3.org/1999/xlink" x="0px" y="0px" width="1000px" height="1000px"
	 viewBox="0 0 1000 1000" enable-background="new 0 0 1000 1000">
<polyline fill="none"  stroke-width="39.6529" stroke-linecap="round" stroke-linejoin="round" points="38.5,28.5
	38.5,962.5 971.5,962.5 "/>
<text transform="matrix(1 0 0 1 467.5002 896.5)" font-family="'MyriadPro-Regular'" font-size="500">Re</text>
<text transform="matrix(1 0 0 1 57.5002 354.5)" font-family="'MyriadPro-Regular'" font-size="500">Im</text>
<g>
	<g>
		<path fill="none"  stroke-width="50" d="M763.5,233.5c79,0,196,41,196,211"/>
		<path d="M595.297,237.352c85.194-31.611,190.897-85.547,256.406-142.646l-51.592,142.646l51.592,142.646
			C786.195,322.898,680.492,268.946,595.297,237.352z"/>
	</g>
</g>
<g>
	<g>
		<path fill="none"  stroke-width="50" d="M309.5,729.5c-79,0-196-41-196-211"/>
		<path d="M475.703,728.647c-85.194,31.611-190.897,85.547-256.405,142.647l51.591-142.647l-51.592-142.646
			C284.804,643.101,390.508,697.052,475.703,728.647z"/>
	</g>
</g>
</svg>
