<?xml version="1.0" encoding="UTF-8" standalone="no"?>
<svg stroke="currentColor" fill="currentColor"
   xmlns:dc="http://purl.org/dc/elements/1.1/"
   xmlns:cc="http://creativecommons.org/ns#"
   xmlns:rdf="http://www.w3.org/1999/02/22-rdf-syntax-ns#"
   xmlns:svg="http://www.w3.org/2000/svg"
   xmlns="http://www.w3.org/2000/svg"
   xmlns:sodipodi="http://sodipodi.sourceforge.net/DTD/sodipodi-0.dtd"
   xmlns:inkscape="http://www.inkscape.org/namespaces/inkscape"
   version="1.1"
   id="svg4152"
   sodipodi:docname="reference.svg"
   inkscape:version="1.0.1 (c497b03c, 2020-09-10)"
   x="0px"
   y="0px"
   width="1000px"
   height="1000px"
   viewBox="0 0 1000 1000"
   enable-background="new 0 0 1000 1000"
   xml:space="preserve"><metadata
   id="metadata31"><rdf:RDF><cc:Work
       rdf:about=""><dc:format>image/svg+xml</dc:format><dc:type
         rdf:resource="http://purl.org/dc/dcmitype/StillImage" /></cc:Work></rdf:RDF></metadata><defs
   id="defs29" /><sodipodi:namedview
   pagecolor="#ffffff"
   bordercolor="#666666"
   borderopacity="1"
   objecttolerance="10"
   gridtolerance="10"
   guidetolerance="10"
   inkscape:pageopacity="0"
   inkscape:pageshadow="2"
   inkscape:window-width="2393"
   inkscape:window-height="999"
   id="namedview27"
   showgrid="false"
   inkscape:zoom="0.57848045"
   inkscape:cx="500"
   inkscape:cy="500"
   inkscape:window-x="0"
   inkscape:window-y="23"
   inkscape:window-maximized="0"
   inkscape:current-layer="g24"
   inkscape:document-rotation="0" />
<g
   id="g24">
	
		<polyline
   fill="none"
  
   stroke-width="47.4168"
   stroke-linecap="round"
   stroke-linejoin="round"
   stroke-miterlimit="22.9256"
   points="   54.005,697.855 280.66,697.855 340.188,333.723 397.428,697.855 646.981,697.855 717.95,214.67 777.478,697.855 954.211,697.855     "
   id="polyline10"
   transform="translate(0,200)" />
	
		
	
		<line
   fill="none"
  
   stroke-width="41.8189"
   stroke-linecap="round"
   stroke-linejoin="round"
   stroke-miterlimit="22.9256"
   x1="715.664"
   y1="247.48401"
   x2="715.664"
   y2="328.34399"
   id="line14" />
	
		
	<g
   id="g22">
		
			
		
			
	</g>
<g
   id="text35"
   style="font-style:normal;font-weight:normal;font-size:266.667px;line-height:1.25;font-family:sans-serif;fill-opacity:1;stroke:none"><path
     d="M 29.135638,55.701051 H 183.95354 v 35.807335 q -20.18232,18.229194 -33.724,39.453174 -16.40627,25.78128 -25.91149,57.42194 -7.5521,24.60941 -10.15627,58.2032 H 61.297135 q 6.250008,-46.74485 19.661483,-78.38551 13.411474,-31.64067 42.447972,-67.70842 H 29.135638 Z"
      id="path30" /><path
     d="m 211.55773,193.46164 h 56.6407 v 53.12506 h -56.6407 z"
      id="path32" /><path
     d="M 450.62051,246.5867 H 291.50573 q 2.73438,-23.56774 16.53648,-44.27089 13.93231,-20.83336 52.08339,-49.0886 23.30732,-17.31773 29.81775,-26.30211 6.51042,-8.98439 6.51042,-17.05732 0,-8.72397 -6.51042,-14.843765 -6.38022,-6.250007 -16.14585,-6.250007 -10.15627,0 -16.66669,6.380216 -6.38022,6.380216 -8.59376,22.526066 l -53.12507,-4.29688 q 3.12501,-22.395858 11.45835,-34.895873 8.33334,-12.630224 23.43753,-19.270857 15.23439,-6.770842 42.05734,-6.770842 27.99483,0 43.48964,6.380217 15.62502,6.380216 24.4792,19.661482 8.98438,13.151058 8.98438,29.557323 0,17.44794 -10.28647,33.33338 -10.15626,15.88543 -37.10942,34.89587 -16.01564,11.06773 -21.4844,15.49482 -5.33855,4.42708 -12.63022,11.58855 h 82.8126 z"
      id="path34" /><path
     d="m 474.44869,55.701051 h 154.81789 v 35.807335 q -20.18231,18.229194 -33.724,39.453174 -16.40627,25.78128 -25.91149,57.42194 -7.55209,24.60941 -10.15626,58.2032 h -52.86465 q 6.25001,-46.74485 19.66149,-78.38551 13.41147,-31.64067 42.44797,-67.70842 h -94.27095 z"
      id="path36" /></g></g>
</svg>
