<?xml version="1.0" encoding="UTF-8" standalone="no"?>
<svg xmlns="http://www.w3.org/2000/svg" width="1000" height="1000" viewBox="0 0 1000 1000">
    <g id="reset-icon" transform="translate(273 174.25)">
      <g id="Group_1" data-name="Group 1">
        <path id="Union_1" data-name="Union 1" d="M-912.278,814.688l-285.93-242.377c-17.662-14.972-17.662-38.984,0-53.956,8.665-7.627,20-11.3,31.66-11.3a49.672,49.672,0,0,1,31.658,11.3l209.282,177.4V357.225h-398.4s-36.924-3.683-36.987-41.391,36.987-40.427,36.987-40.427h398.4V-43.785l-209.281,177.4c-17.329,14.689-45.989,14.689-63.319,0-17.662-14.972-17.662-38.984,0-53.956l285.93-242.377c8.331-7.345,19.662-11.3,31.659-11.3a49.907,49.907,0,0,1,31.659,11.3L-563.03,79.664c17.662,14.972,17.662,38.984,0,53.956-8.665,7.627-20,11.3-31.659,11.3a49.674,49.674,0,0,1-31.659-11.3L-835.63-43.785V275.406h441.847S-361,280.834-361,315.833s-32.783,41.391-32.783,41.391H-835.63V695.759l209.282-177.4c17.329-14.689,45.989-14.689,63.318,0,17.662,14.972,17.662,38.984,0,53.956L-848.96,814.688c-8.331,7.344-19.662,11.3-31.659,11.3A49.914,49.914,0,0,1-912.278,814.688Z" transform="translate(1088 -0.238)"/>
      </g>
    </g>
  </svg>
