<?xml version="1.0" encoding="UTF-8" standalone="no"?>
<svg xmlns="http://www.w3.org/2000/svg" width="1000" height="1000" viewBox="0 0 1000 1000">
    <g id="sameTop" transform="translate(249.743 155.05)">
      <g id="Group_1" data-name="Group 1" transform="translate(-249.743 -155.05)">
        <path id="Path_1" data-name="Path 1" d="M1042.939,426.95H112.71s-37.05,2.979-36.987,44.3S112.71,516.6,112.71,516.6h930.229s32.783-7,32.783-45.352S1042.939,426.95,1042.939,426.95Z" transform="translate(-75.723 -426.95)"/>
        <path id="Path_2" data-name="Path 2" d="M216.12,320.129,434.232,145.466V767.253c0,20.859,20.839,37.547,46.887,37.547s46.887-16.687,46.887-37.547V145.466L746.117,320.129c9.03,7.231,21.186,11.125,32.995,11.125,12.156,0,23.964-3.616,32.995-11.125,18.407-14.741,18.407-38.381,0-53.122L514.113,28.375c-8.683-6.953-20.839-11.125-32.995-11.125-12.5,0-24.312,3.894-32.995,11.125L150.131,267.007c-18.408,14.741-18.408,38.381,0,53.122C168.191,334.592,198.06,334.592,216.12,320.129Z" transform="translate(18.881 195.2)"/>
      </g>
    </g>
  </svg>
