<?xml version="1.0" encoding="utf-8"?>
<!-- Generator: Adobe Illustrator 14.0.0, SVG Export Plug-In . SVG Version: 6.00 Build 43363)  -->
<!DOCTYPE svg PUBLIC "-//W3C//DTD SVG 1.1//EN" "http://www.w3.org/Graphics/SVG/1.1/DTD/svg11.dtd">
<svg stroke="currentColor" fill="currentColor" version="1.1"
	 id="svg4152" xmlns:dc="http://purl.org/dc/elements/1.1/" xmlns:inkscape="http://www.inkscape.org/namespaces/inkscape" xmlns:svg="http://www.w3.org/2000/svg" xmlns:sodipodi="http://sodipodi.sourceforge.net/DTD/sodipodi-0.dtd" xmlns:cc="http://creativecommons.org/ns#" xmlns:rdf="http://www.w3.org/1999/02/22-rdf-syntax-ns#" inkscape:version="0.91 r13725" sodipodi:docname="icons.svg"
	 xmlns="http://www.w3.org/2000/svg" xmlns:xlink="http://www.w3.org/1999/xlink" x="0px" y="0px" width="1000px" height="1000px"
	 viewBox="0 0 1000 1000" enable-background="new 0 0 1000 1000" xml:space="preserve">
<g>
	<g>
		
			<path fill="none"stroke-width="46.9101" stroke-linecap="round" stroke-linejoin="round" stroke-miterlimit="22.9256" d="
			M419.367,668.216c-175.831,0-319.25-143.418-319.25-319.251c0-175.839,143.417-319.264,319.25-319.264
			c175.84,0,319.259,143.423,319.259,319.264C738.626,524.798,595.208,668.216,419.367,668.216"/>
		
			<polyline fill="none"stroke-width="46.9085" stroke-linecap="round" stroke-linejoin="round" stroke-miterlimit="22.9256" points="
			897.764,890.229 661.894,574.439 579.326,636.111 815.197,951.902 		"/>
		
			<path fill="none"stroke-width="46.9085" stroke-linecap="round" stroke-linejoin="round" stroke-miterlimit="22.9256" d="
			M815.197,951.902c21.303,26.598,23.303,26.598,53.354,7.72"/>
		
			<line fill="none"stroke-width="46.9085" stroke-linecap="round" stroke-linejoin="round" stroke-miterlimit="22.9256" x1="868.552" y1="959.624" x2="890.037" y2="943.57"/>
		
			<path fill="none"stroke-width="46.9085" stroke-linecap="round" stroke-linejoin="round" stroke-miterlimit="22.9256" d="
			M890.037,943.57c29.463-22.07,29.463-23.07,7.728-53.342"/>
	</g>
</g>
<text transform="matrix(1 0 0 1 258.4998 538.5)" font-family="'Helvetica'" font-size="550">?</text>
</svg>
