<?xml version="1.0" encoding="utf-8"?>
<!-- Generator: Adobe Illustrator 14.0.0, SVG Export Plug-In . SVG Version: 6.00 Build 43363)  -->
<!DOCTYPE svg PUBLIC "-//W3C//DTD SVG 1.1//EN" "http://www.w3.org/Graphics/SVG/1.1/DTD/svg11.dtd">
<svg stroke="currentColor" fill="currentColor" version="1.1"
	 id="svg4152" xmlns:dc="http://purl.org/dc/elements/1.1/" xmlns:inkscape="http://www.inkscape.org/namespaces/inkscape" xmlns:svg="http://www.w3.org/2000/svg" xmlns:sodipodi="http://sodipodi.sourceforge.net/DTD/sodipodi-0.dtd" xmlns:cc="http://creativecommons.org/ns#" xmlns:rdf="http://www.w3.org/1999/02/22-rdf-syntax-ns#" inkscape:version="0.91 r13725" sodipodi:docname="icons.svg"
	 xmlns="http://www.w3.org/2000/svg" xmlns:xlink="http://www.w3.org/1999/xlink" x="0px" y="0px" width="1000px" height="1000px"
	 viewBox="0 0 1000 1000" enable-background="new 0 0 1000 1000" xml:space="preserve">
<g>
	
		<polyline fill="none"  stroke-width="49.3119" stroke-linecap="round" stroke-linejoin="round" stroke-miterlimit="22.9256" points="
		40.677,918.5 136.457,918.5 187.048,121.223 242.565,918.5 329.427,918.5 388.37,120.5 445.842,918.5 553.326,918.5 610.798,748.5 
		669.748,918.5 756.61,918.5 812.129,653.5 862.718,918.5 958.5,918.5 	"/>
</g>
<line fill="none"  stroke-width="75" stroke-linejoin="round" stroke-miterlimit="22.9256" stroke-dasharray="40,40" x1="558.5" y1="126.5" x2="558.5" y2="414.5"/>
<rect x="583" y="105" fill="none"  stroke-width="49.3119" stroke-linecap="round" stroke-linejoin="round" stroke-miterlimit="22.9256" width="325" height="325"/>
<line fill="none"  stroke-width="75" stroke-linejoin="round" stroke-miterlimit="22.9256" stroke-dasharray="40,40" x1="932.5" y1="128.5" x2="932.5" y2="416.5"/>
<line fill="none"  stroke-width="75" stroke-linejoin="round" stroke-miterlimit="22.9256" stroke-dasharray="40,40" x1="605.5" y1="82.5" x2="893.5" y2="82.5"/>
<line fill="none"  stroke-width="75" stroke-linejoin="round" stroke-miterlimit="22.9256" stroke-dasharray="40,40" x1="605.5" y1="453.5" x2="893.5" y2="453.5"/>
<g enable-background="new    ">
	<path d="M700.17,262.665c0,15.469,1.531,25.862,4.593,31.179c3.062,5.318,8.565,7.977,16.517,7.977
		c12.674,0,23.147-8.835,31.42-26.506c8.271-17.67,12.408-40.147,12.408-67.435v-43.022h30.453v108.281
		c0,9.885,1.02,17.136,3.062,21.753c2.039,4.62,5.209,6.929,9.506,6.929c4.618,0,8.138-2.281,10.555-6.848
		c2.417-4.565,3.625-11.305,3.625-20.223v-4.512h6.93c0.105,0.861,0.186,1.8,0.241,2.82c0.053,1.021,0.081,2.497,0.081,4.431
		c0,12.246-2.606,21.728-7.815,28.44c-5.212,6.714-12.543,10.07-21.995,10.07c-11.064,0-19.391-4.698-24.975-14.1
		c-5.588-9.398-8.435-23.605-8.541-42.619c-5.05,19.553-11.79,33.894-20.222,43.022C737.578,311.436,726.918,316,714.027,316
		c-9.668,0-17.672-2.875-24.008-8.621c-6.34-5.745-10.744-14.204-13.213-25.378c-0.217,2.042-0.322,5.156-0.322,9.346
		c0,13.857,3.517,29.352,10.554,46.487c7.034,17.133,10.554,27.256,10.554,30.373c0,4.295-1.236,7.679-3.705,10.151
		c-2.473,2.47-5.856,3.706-10.152,3.706c-5.05,0-8.676-1.8-10.876-5.398c-2.203-3.6-3.304-9.481-3.304-17.644
		c0-1.934,0.215-8.298,0.645-19.095c0.429-10.795,0.645-20.6,0.645-29.406c0-7.948-0.16-19.119-0.482-33.516
		c-0.322-14.394-0.484-24.814-0.484-31.26v-80.889h30.293V262.665z"/>
</g>
</svg>
