<?xml version="1.0" encoding="utf-8"?>
<!-- Generator: Adobe Illustrator 14.0.0, SVG Export Plug-In . SVG Version: 6.00 Build 43363)  -->
<!DOCTYPE svg PUBLIC "-//W3C//DTD SVG 1.1//EN" "http://www.w3.org/Graphics/SVG/1.1/DTD/svg11.dtd">
<svg stroke="currentColor" fill="currentColor" xmlns="http://www.w3.org/2000/svg" width="1000" height="1000" viewBox="0 0 1000 1000">
  <g id="sum-icon" transform="translate(-946 -115)">
    <path id="Path_1" data-name="Path 1" d="M1161.782,765.629l84.27-.682V605.494s-5.122-24.916-20.866-40.995-42.111-23.322-42.111-23.322H564.023s-38.483,9.884-54.3,33.69-8.969,61.533-8.969,61.533l274.61,388.2a7.294,7.294,0,0,1,1.321,3.719,8.6,8.6,0,0,1-1.321,3.945L509.085,1401.419s-17.841,40.987-5.111,69.46S560,1515.314,560,1515.314h694.089s30-5.73,46.746-21.809S1321.089,1451,1321.089,1451v-234.49h-91.555l2,194.646s.146,1.94-.87,2.829-3.194.729-3.194.729l-606.513-3.5s-1.678-.251-2-1.062.7-2.183.7-2.183l242.047-340.2s12.2-18.089,12.2-38.858-12.2-44.218-12.2-44.218L612.291,634.081a1.98,1.98,0,0,1,.257-1.136,1.909,1.909,0,0,1,.943-.47l540.54-2s3.231.076,5.083,1.861,2.327,5.276,2.327,5.276Z" transform="translate(497.765 -412.863)"/>
  </g>
</svg>
