<svg stroke="currentColor" fill="currentColor"
   xmlns="http://www.w3.org/2000/svg"
   width="1000"
   height="1000"
   viewBox="0 0 1000 1000">
  <path
      d="m 499.30664,43.814453 a 21.397367,21.397367 0 0 0 -21.07422,21.697266 l 0,224.738281 -193.66406,84.12695 A 21.397367,21.397367 0 0 0 271.69727,394 l 0,216.09766 -145.46289,85.23046 a 21.397367,21.397367 0 0 0 -10.57813,18.45899 l 0,230.21289 a 21.397367,21.397367 0 1 0 42.78906,0 l 0,-217.95117 134.71875,-78.93555 134.71875,78.93555 0,217.95117 a 21.397367,21.397367 0 1 0 42.79102,0 l 0,-230.21289 a 21.397367,21.397367 0 0 0 -10.58008,-18.45899 l -145.60547,-85.31445 0,-201.98047 185.14063,-80.42382 185.13867,80.42382 0,202.0586 -145.59766,85.23047 a 21.397367,21.397367 0 0 0 -10.58594,18.46484 l 0,230.21289 a 21.397367,21.397367 0 1 0 42.78907,0 l 0,-217.94531 134.78515,-78.90235 134.65235,78.89649 0,217.95117 a 21.397367,21.397367 0 1 0 42.79101,0 l 0,-230.21289 A 21.397367,21.397367 0 0 0 873.02148,695.32812 L 727.55859,610.0957 727.55859,394 A 21.397367,21.397367 0 0 0 714.6875,374.37695 L 521.02344,290.25 l 0,-224.738281 a 21.397367,21.397367 0 0 0 -21.7168,-21.697266 z" />
</svg>
