<?xml version="1.0" encoding="UTF-8" standalone="no"?>
<!-- Created with Inkscape (http://www.inkscape.org/) -->

<svg stroke="currentColor" fill="currentColor"
   xmlns:dc="http://purl.org/dc/elements/1.1/"
   xmlns:cc="http://creativecommons.org/ns#"
   xmlns:rdf="http://www.w3.org/1999/02/22-rdf-syntax-ns#"
   xmlns:svg="http://www.w3.org/2000/svg"
   xmlns="http://www.w3.org/2000/svg"
   xmlns:sodipodi="http://sodipodi.sourceforge.net/DTD/sodipodi-0.dtd"
   xmlns:inkscape="http://www.inkscape.org/namespaces/inkscape"
   width="1000"
   height="1000"
   id="svg4152"
   version="1.1"
   inkscape:version="0.91 r13725"
   viewBox="0 0 1000 1000"
   sodipodi:docname="icon 3.svg">
  <defs
     id="defs5498">
    <marker
       inkscape:isstock="true"
       style="overflow:visible"
       id="marker4233"
       refX="0.0"
       refY="0.0"
       orient="auto"
       inkscape:stockid="TriangleOutL">
      <path
         transform="scale(0.8)"
         style="fill-rule:evenodd;stroke-width:1pt;stroke-opacity:1;fill-opacity:1"
         d="M 5.77,0.0 L -2.88,5.0 L -2.88,-5.0 L 5.77,0.0 z "
         id="path4235" />
    </marker>
    <marker
       inkscape:isstock="true"
       style="overflow:visible"
       id="marker4755"
       refX="0.0"
       refY="0.0"
       orient="auto"
       inkscape:stockid="TriangleOutL">
      <path
         transform="scale(0.8)"
         style="fill-rule:evenodd;stroke-width:1pt;stroke-opacity:1;fill-opacity:1"
         d="M 5.77,0.0 L -2.88,5.0 L -2.88,-5.0 L 5.77,0.0 z "
         id="path4757" />
    </marker>
    <marker
       inkscape:stockid="Arrow1Lend"
       orient="auto"
       refY="0.0"
       refX="0.0"
       id="Arrow1Lend"
       style="overflow:visible;"
       inkscape:isstock="true">
      <path
         id="path4164"
         d="M 0.0,0.0 L 5.0,-5.0 L -12.5,0.0 L 5.0,5.0 L 0.0,0.0 z "
         style="fill-rule:evenodd;stroke-width:1pt;stroke-opacity:1;fill-opacity:1"
         transform="scale(0.8) rotate(180) translate(12.5,0)" />
    </marker>
    <marker
       inkscape:stockid="Arrow2Lend"
       orient="auto"
       refY="0.0"
       refX="0.0"
       id="Arrow2Lend"
       style="overflow:visible;"
       inkscape:isstock="true">
      <path
         id="path4182"
         style="fill-rule:evenodd;stroke-width:0.625;stroke-linejoin:round;stroke-opacity:1;fill-opacity:1"
         d="M 8.7185878,4.0337352 L -2.2072895,0.016013256 L 8.7185884,-4.0017078 C 6.9730900,-1.6296469 6.9831476,1.6157441 8.7185878,4.0337352 z "
         transform="scale(1.1) rotate(180) translate(1,0)" />
    </marker>
    <pattern
       y="0"
       x="0"
       height="6"
       width="6"
       patternUnits="userSpaceOnUse"
       id="EMFhbasepattern" />
    <pattern
       y="0"
       x="0"
       height="6"
       width="6"
       patternUnits="userSpaceOnUse"
       id="EMFhbasepattern-2" />
    <pattern
       y="0"
       x="0"
       height="6"
       width="6"
       patternUnits="userSpaceOnUse"
       id="EMFhbasepattern-9" />
    <pattern
       y="0"
       x="0"
       height="6"
       width="6"
       patternUnits="userSpaceOnUse"
       id="EMFhbasepattern-24" />
  </defs>
  <sodipodi:namedview
     inkscape:window-height="1107"
     inkscape:window-width="2048"
     inkscape:pageshadow="2"
     inkscape:pageopacity="0.0"
     borderopacity="1.0"
     bordercolor="#666666"
     pagecolor="#ffffff"
     id="base"
     showgrid="true"
     showguides="true"
     inkscape:guide-bbox="true"
     inkscape:zoom="0.5"
     inkscape:cx="-113.17787"
     inkscape:cy="550.36666"
     inkscape:window-x="1920"
     inkscape:window-y="1"
     inkscape:current-layer="svg4152"
     inkscape:window-maximized="1"
     objecttolerance="20">
    <sodipodi:guide
       orientation="horizontal"
       position="200"
       id="guide5596"
       inkscape:locked="false" />
    <inkscape:grid
       type="xygrid"
       id="grid3430"
       empspacing="50" />
    <sodipodi:guide
       position="550,1000"
       orientation="0,1"
       id="guide4169"
       inkscape:locked="false" />
  </sodipodi:namedview>
  <metadata
     id="metadata5594">
    <rdf:RDF>
      <cc:Work
         rdf:about="">
        <dc:format>image/svg+xml</dc:format>
        <dc:type
           rdf:resource="http://purl.org/dc/dcmitype/StillImage" />
        <dc:title />
      </cc:Work>
    </rdf:RDF>
  </metadata>
  <path
      d="m 499.30664,43.814453 a 21.397367,21.397367 0 0 0 -21.07422,21.697266 l 0,224.738281 -193.66406,84.12695 A 21.397367,21.397367 0 0 0 271.69727,394 l 0,216.09766 -145.46289,85.23046 a 21.397367,21.397367 0 0 0 -10.57813,18.45899 l 0,230.21289 a 21.397367,21.397367 0 1 0 42.78906,0 l 0,-217.95117 134.71875,-78.93555 134.71875,78.93555 0,217.95117 a 21.397367,21.397367 0 1 0 42.79102,0 l 0,-230.21289 a 21.397367,21.397367 0 0 0 -10.58008,-18.45899 l -145.60547,-85.31445 0,-201.98047 185.14063,-80.42382 185.13867,80.42382 0,202.0586 -145.59766,85.23047 a 21.397367,21.397367 0 0 0 -10.58594,18.46484 l 0,230.21289 a 21.397367,21.397367 0 1 0 42.78907,0 l 0,-217.94531 134.78515,-78.90235 134.65235,78.89649 0,217.95117 a 21.397367,21.397367 0 1 0 42.79101,0 l 0,-230.21289 A 21.397367,21.397367 0 0 0 873.02148,695.32812 L 727.55859,610.0957 727.55859,394 A 21.397367,21.397367 0 0 0 714.6875,374.37695 L 521.02344,290.25 l 0,-224.738281 a 21.397367,21.397367 0 0 0 -21.7168,-21.697266 z"
     id="path3762"
     inkscape:connector-curvature="0" />
</svg>
