<?xml version="1.0" encoding="utf-8"?>
<!-- Generator: Adobe Illustrator 14.0.0, SVG Export Plug-In . SVG Version: 6.00 Build 43363)  -->
<!DOCTYPE svg PUBLIC "-//W3C//DTD SVG 1.1//EN" "http://www.w3.org/Graphics/SVG/1.1/DTD/svg11.dtd">
<svg stroke="currentColor" fill="currentColor" version="1.1"
	 id="svg4152" xmlns:dc="http://purl.org/dc/elements/1.1/" xmlns:svg="http://www.w3.org/2000/svg" xmlns:cc="http://creativecommons.org/ns#" xmlns:inkscape="http://www.inkscape.org/namespaces/inkscape" xmlns:rdf="http://www.w3.org/1999/02/22-rdf-syntax-ns#" xmlns:sodipodi="http://sodipodi.sourceforge.net/DTD/sodipodi-0.dtd" sodipodi:docname="icons.svg" inkscape:version="0.91 r13725"
	 xmlns="http://www.w3.org/2000/svg" xmlns:xlink="http://www.w3.org/1999/xlink" x="0px" y="0px" width="1000px" height="1000px"
	 viewBox="0 0 1000 1000" enable-background="new 0 0 1000 1000" xml:space="preserve">
<polyline fill="none"  stroke-width="48.9869" stroke-linecap="round" stroke-linejoin="round" stroke-miterlimit="22.9256" points="
	27.989,24.288 52.457,963.651 104.585,285.992 134.372,742.375 179.053,444.502 202.457,646.63 240.755,538.119 267.351,580.458 
	966.287,580.458 "/>
<line fill="none"  stroke-width="48.9869" stroke-linejoin="round" stroke-miterlimit="22.9256" stroke-dasharray="50,50" x1="293.947" y1="55.51" x2="293.947" y2="942.374"/>
<g>
	<path d="M786.083,122.546c22.189,42.847,30.287,92.068,30.287,147.656c0,43.728-3.812,84.928-17.435,123.597
		c-25.708,72.732-70.201,109.094-133.482,109.094c-43.292,0-78.888-19.661-106.787-58.996
		c-29.886-41.965-40.824-98.985-40.824-171.058c0-56.689,5.995-105.469,25.991-146.338c27.026-55.588,68.555-83.386,124.585-83.386
		C718.954,43.115,758.175,69.595,786.083,122.546z M735.985,431.085c12.079-35.35,18.126-86.502,18.126-153.472
		c0-53.353-3.624-95.941-10.875-127.778c-13.629-59.279-39.114-82.172-76.465-82.172c-37.359,0-62.953,23.769-76.796,84.803
		c-7.251,32.496-10.875,75.312-10.875,128.443c0,49.84,3.732,89.689,11.206,119.549c14.057,55.767,40.424,76.898,79.102,76.898
		C701.708,477.356,723.897,466.432,735.985,431.085z"/>
</g>
<line  stroke-width="50" x1="763.095" y1="123.225" x2="582.245" y2="430.672"/>
</svg>
