<?xml version="1.0" encoding="UTF-8" standalone="no"?>
<!-- Created with Inkscape (http://www.inkscape.org/) -->

<svg stroke="currentColor" fill="currentColor"
   xmlns:dc="http://purl.org/dc/elements/1.1/"
   xmlns:cc="http://creativecommons.org/ns#"
   xmlns:rdf="http://www.w3.org/1999/02/22-rdf-syntax-ns#"
   xmlns:svg="http://www.w3.org/2000/svg"
   xmlns="http://www.w3.org/2000/svg"
   xmlns:sodipodi="http://sodipodi.sourceforge.net/DTD/sodipodi-0.dtd"
   xmlns:inkscape="http://www.inkscape.org/namespaces/inkscape"
   width="1000"
   height="1000"
   id="svg4152"
   version="1.1"
   inkscape:version="0.91 r13725"
   viewBox="0 0 1000 1000"
   sodipodi:docname="Xray-request.svg">
  <defs
     id="defs5498">
    <marker
       inkscape:isstock="true"
       style="overflow:visible"
       id="marker4233"
       refX="0.0"
       refY="0.0"
       orient="auto"
       inkscape:stockid="TriangleOutL">
      <path
         transform="scale(0.8)"
         style="fill-rule:evenodd;stroke-width:1pt;stroke-opacity:1;fill:#000000;fill-opacity:1"
         d="M 5.77,0.0 L -2.88,5.0 L -2.88,-5.0 L 5.77,0.0 z "
         id="path4235" />
    </marker>
    <marker
       inkscape:isstock="true"
       style="overflow:visible"
       id="marker4755"
       refX="0.0"
       refY="0.0"
       orient="auto"
       inkscape:stockid="TriangleOutL">
      <path
         transform="scale(0.8)"
         style="fill-rule:evenodd;stroke-width:1pt;stroke-opacity:1;fill:#000000;fill-opacity:1"
         d="M 5.77,0.0 L -2.88,5.0 L -2.88,-5.0 L 5.77,0.0 z "
         id="path4757" />
    </marker>
    <marker
       inkscape:stockid="Arrow1Lend"
       orient="auto"
       refY="0.0"
       refX="0.0"
       id="Arrow1Lend"
       style="overflow:visible;"
       inkscape:isstock="true">
      <path
         id="path4164"
         d="M 0.0,0.0 L 5.0,-5.0 L -12.5,0.0 L 5.0,5.0 L 0.0,0.0 z "
         style="fill-rule:evenodd;stroke-width:1pt;stroke-opacity:1;fill:#000000;fill-opacity:1"
         transform="scale(0.8) rotate(180) translate(12.5,0)" />
    </marker>
    <marker
       inkscape:stockid="Arrow2Lend"
       orient="auto"
       refY="0.0"
       refX="0.0"
       id="Arrow2Lend"
       style="overflow:visible;"
       inkscape:isstock="true">
      <path
         id="path4182"
         style="fill-rule:evenodd;stroke-width:0.625;stroke-linejoin:round;stroke-opacity:1;fill:#000000;fill-opacity:1"
         d="M 8.7185878,4.0337352 L -2.2072895,0.016013256 L 8.7185884,-4.0017078 C 6.9730900,-1.6296469 6.9831476,1.6157441 8.7185878,4.0337352 z "
         transform="scale(1.1) rotate(180) translate(1,0)" />
    </marker>
    <pattern
       y="0"
       x="0"
       height="6"
       width="6"
       patternUnits="userSpaceOnUse"
       id="EMFhbasepattern" />
    <pattern
       y="0"
       x="0"
       height="6"
       width="6"
       patternUnits="userSpaceOnUse"
       id="EMFhbasepattern-6" />
    <pattern
       y="0"
       x="0"
       height="6"
       width="6"
       patternUnits="userSpaceOnUse"
       id="EMFhbasepattern-9" />
    <pattern
       y="0"
       x="0"
       height="6"
       width="6"
       patternUnits="userSpaceOnUse"
       id="EMFhbasepattern-0" />
    <pattern
       y="0"
       x="0"
       height="6"
       width="6"
       patternUnits="userSpaceOnUse"
       id="EMFhbasepattern-60" />
  </defs>
  <sodipodi:namedview
     inkscape:window-height="838"
     inkscape:window-width="1440"
     inkscape:pageshadow="2"
     inkscape:pageopacity="0.0"
     borderopacity="1.0"
     bordercolor="#666666"
     pagecolor="#ffffff"
     id="base"
     showgrid="true"
     showguides="true"
     inkscape:guide-bbox="true"
     inkscape:zoom="0.5"
     inkscape:cx="357.82213"
     inkscape:cy="459.29481"
     inkscape:window-x="-8"
     inkscape:window-y="-8"
     inkscape:current-layer="svg4152"
     inkscape:window-maximized="1"
     objecttolerance="20">
    <sodipodi:guide
       orientation="horizontal"
       position="200"
       id="guide5596" />
    <inkscape:grid
       type="xygrid"
       id="grid3430"
       empspacing="50" />
    <sodipodi:guide
       position="550,1000"
       orientation="0,1"
       id="guide4169" />
  </sodipodi:namedview>
  <metadata
     id="metadata5594">
    <rdf:RDF>
      <cc:Work
         rdf:about="">
        <dc:format>image/svg+xml</dc:format>
        <dc:type
           rdf:resource="http://purl.org/dc/dcmitype/StillImage" />
        <dc:title></dc:title>
      </cc:Work>
    </rdf:RDF>
  </metadata>
  <path
     inkscape:connector-curvature="0"
     id="path3584"
     d="m 973.85235,153.25192 0,449.48908 -49.70116,0.40335 0,-449.49186 z m 0,449.48908 c 0,35.27256 -15.23054,67.33177 -40.08393,90.5815 l -33.86499,-36.07451 c 15.02869,-14.02494 24.24776,-33.26492 24.24776,-54.10324 z m -40.08393,90.5815 c -24.44403,22.64388 -57.91087,36.8707 -94.58532,36.8707 l 0.40376,-49.6955 c 23.64212,0 45.08601,-9.01733 60.31657,-23.24971 z m -94.58532,36.8707 -461.71396,0 0.40098,-49.6955 461.71676,0 z m -461.51319,-24.84784 -0.20069,24.84784 c -13.82694,0 -24.8489,-11.01922 -24.8489,-24.84784 0.20029,-13.82864 11.42234,-24.84766 25.24986,-24.84766 z M 396.50676,721.57981 179.47699,973.27642 141.8027,941.00957 358.83247,689.11109 Z m -235.86662,235.66403 18.83685,16.03258 c -9.01776,10.62104 -24.8489,11.82097 -35.26971,2.80384 -10.22006,-8.81526 -11.42236,-24.64597 -2.40458,-35.07069 z m -24.24832,-5.00761 53.506,-251.70216 48.49606,9.62276 -53.506,251.8985 z m 77.75431,-246.89087 -24.4485,-5.00761 c 2.80552,-13.43043 16.0319,-22.24589 29.65862,-19.44205 13.42656,2.80382 22.04338,15.8307 19.03763,29.45745 z m -0.20069,24.84784 -53.10508,0 0.40099,-49.6955 53.10505,0 z m -53.10508,0 c -36.67274,0 -70.139018,-14.02493 -94.386846,-36.66883 l 34.267676,-36.4727 c 15.43075,14.4287 36.87295,23.44603 60.52014,23.44603 z M 66.453514,693.52437 C 41.804622,670.47653 26.374099,638.41177 26.374099,603.14475 l 49.898813,-0.40335 c 0,20.84387 9.218227,40.28017 24.448218,54.31068 z m -40.079415,-90.37962 0,-449.49187 49.898813,-0.40137 0,449.4891 z m 0,-449.49187 c 0,-35.47046 15.430523,-67.533647 40.279765,-90.579499 L 100.52094,99.14471 C 85.491139,113.17242 76.272912,132.21013 76.272912,153.25192 Z M 66.653864,63.073381 C 90.902036,40.228202 124.36831,26 161.24127,26 l -0.40097,49.898772 c -23.64661,0 -45.08939,8.817245 -60.31938,23.245938 z M 161.24127,26 l 678.34559,0 -0.40376,49.898772 -678.34278,0 z m 678.34559,0 c 36.66883,0 70.13568,14.228202 94.38345,36.873092 L 899.70156,99.34559 C 884.27474,84.716017 862.83083,75.898772 839.1831,75.898772 Z m 94.38345,36.873092 c 24.6515,23.045245 39.88204,55.109038 39.88204,90.378828 l -49.70116,0.40136 c 0,-21.04178 -9.21907,-40.27976 -24.44963,-54.30729 z"
     style="fill:#000000;fill-opacity:1;fill-rule:nonzero;stroke:none" />
  <path
     inkscape:connector-curvature="0"
     id="path3632"
     d="m 608.63121,427.32717 c 11.69417,-7.59059 15.18179,-23.38791 7.59059,-35.28711 -7.59059,-11.69375 -23.38789,-14.97651 -35.28668,-7.18028 z m 0,0 -119.40187,77.96033 -27.6959,-42.46799 119.40168,-77.95973 z m -147.09777,35.49234 c -11.69436,7.59118 -15.18198,23.3879 -7.5912,35.2871 7.5912,11.69434 23.3879,14.97652 35.2871,7.18089 z"
     style="fill:#000000;fill-opacity:1;fill-rule:nonzero;stroke:none" />
  <path
     inkscape:connector-curvature="0"
     id="path3634"
     d="m 315.87157,296.43679 c 18.2589,0 34.8766,-7.59079 46.98086,-19.48999 l 35.69719,35.69719 c -21.33623,21.33682 -50.87898,34.67176 -83.08854,34.67176 z m 46.77539,-19.69546 c 12.10467,-12.10424 19.69545,-28.51649 19.69545,-46.77538 l 50.87895,-0.4109 c 0,32.41501 -13.33493,61.75231 -34.67174,83.08853 z m 19.69545,-46.77538 c 0,-18.46455 -7.59078,-35.2873 -19.69545,-47.39155 l 36.10811,-36.1079 c 21.13136,21.33643 34.46629,50.67392 34.46629,83.08895 z M 362.64696,182.5744 C 350.54271,170.46975 333.72017,162.87916 315.46108,162.87916 L 315.87157,112 c 32.20937,0 61.54688,13.33513 82.8835,34.4665 z m -47.18588,-19.69524 c -18.46415,0 -35.08226,7.59059 -47.18651,19.48979 l -35.6972,-35.69719 C 253.9136,125.33513 283.45654,112 315.87157,112 Z m -47.18651,19.48979 c -11.8992,12.10424 -19.48978,28.72237 -19.48978,47.1865 l -50.87916,0.4105 c 0,-32.41504 13.33512,-61.95797 34.67174,-83.29419 z m -19.48978,47.1865 c 0,18.25911 7.59058,35.08164 19.69524,47.18588 l -36.10791,36.10812 c -21.13137,-21.33663 -34.46649,-50.67414 -34.46649,-82.8835 z m 19.69524,47.18588 c 12.10425,12.10467 28.92699,19.69546 47.39154,19.69546 l -0.4109,50.87896 c -32.41503,0 -61.75253,-13.33494 -83.08894,-34.4663 z"
     style="fill:#000000;fill-opacity:1;fill-rule:nonzero;stroke:none" />
  <path
     inkscape:connector-curvature="0"
     id="path3636"
     d="m 692.7456,433.27717 c 18.2591,0 34.87681,-7.5912 46.98165,-19.69544 l 35.9049,35.90264 c -21.33907,21.33622 -50.67637,34.67176 -83.29643,34.67176 z m 46.98165,-19.49059 c 12.10406,-12.10405 19.48979,-28.72175 19.48979,-46.98085 l 50.87795,-0.4109 c 0,32.20997 -13.12948,61.75293 -34.46284,83.08915 z m 19.48979,-46.98085 c 0,-18.46394 -7.38573,-35.28731 -19.48979,-47.39154 l 36.10588,-36.1075 c 21.13238,21.33622 34.26186,50.67412 34.26186,83.08853 z m -19.69543,-47.1859 C 727.41757,307.31015 710.59481,299.9244 692.33572,299.9244 l 0.41089,-51.08402 c 32.41504,0 61.95798,13.33493 83.08753,34.46631 z M 692.33572,299.9244 c -18.2591,0 -34.87681,7.38575 -46.98146,19.28495 l -35.69719,-35.69781 c 21.33621,-21.33623 50.67412,-34.67116 83.08853,-34.67116 z m -46.98146,19.28495 c -12.10425,12.10423 -19.48998,28.72193 -19.48998,47.18587 l -50.87897,0.41093 c 0,-32.41505 13.33555,-61.95738 34.67176,-83.2942 z m -19.48998,47.18587 c 0,18.25909 7.59119,35.08226 19.69543,47.18651 l -36.1077,36.10769 C 588.1154,428.3532 574.98531,399.0157 574.98531,366.80573 Z m 19.69543,47.18651 c 12.10425,12.10424 28.9268,19.69544 47.18589,19.69544 l -0.41091,50.87896 c -32.20997,0 -61.75231,-13.33554 -82.88349,-34.46671 z"
     style="fill:#000000;fill-opacity:1;fill-rule:nonzero;stroke:none" />
  <path
     inkscape:connector-curvature="0"
     id="path3638"
     d="m 386.85587,580.16992 c 18.25909,0 34.87681,-7.38574 46.98104,-19.48999 l 35.6976,35.90223 c -21.33661,21.33662 -50.67412,34.46692 -83.08915,34.46692 z m 46.98104,-19.48999 c 11.8992,-12.10466 19.48978,-28.72237 19.48978,-46.98146 l 50.87918,-0.41091 c 0,32.62009 -13.33514,61.95738 -34.46632,83.29358 z m 19.48978,-46.98146 c 0,-18.25909 -7.59058,-34.87679 -19.69481,-47.18588 l 36.31252,-36.1077 c 21.13137,21.13137 34.26147,50.46866 34.26147,82.8837 z m -19.69481,-47.18588 c -12.30972,-12.10426 -28.92742,-19.69546 -47.18652,-19.69546 l 0.41091,-50.87895 c 32.41503,0 61.75232,13.13009 83.08855,34.46671 z m -47.18652,-19.69546 c -18.46393,0 -35.08165,7.5912 -46.98085,19.48999 l -35.90263,-35.69719 c 21.336,-21.33622 50.87896,-34.67175 83.29399,-34.67175 z m -46.98085,19.69546 c -12.10423,11.8992 -19.48997,28.5169 -19.48997,46.776 l -50.87896,0.4109 c 0,-32.41442 13.13008,-61.95738 34.4663,-83.08854 z m -19.48997,46.776 c 0,18.46394 7.38574,35.08165 19.69482,47.39134 l -36.31252,36.1077 C 282.22566,575.4508 269.09558,546.1135 269.09558,513.69847 Z m 19.69482,47.39134 c 12.10425,12.10425 28.72257,19.48999 47.18651,19.48999 l -0.41092,50.87916 c -32.41502,0 -61.75231,-13.1303 -83.08852,-34.26145 z"
     style="fill:#000000;fill-opacity:1;fill-rule:nonzero;stroke:none" />
  <path
     inkscape:connector-curvature="0"
     id="path3640"
     d="m 580.93512,358.80464 c 12.71959,5.74436 27.69609,0.20546 33.6459,-12.71979 5.94939,-12.71959 0.40888,-27.90136 -12.3097,-33.64592 z m 0,0 -178.69243,-81.03745 21.33621,-46.36551 178.69242,81.03725 z M 423.5789,231.40168 c -12.7196,-5.74434 -27.6959,0 -33.64592,12.71959 -5.94918,12.92526 -0.4109,27.90156 12.30971,33.64592 z"
     style="fill:#000000;fill-opacity:1;fill-rule:nonzero;stroke:none" />
</svg>
