<svg stroke="currentColor" fill="currentColor"
   xmlns="http://www.w3.org/2000/svg"
   width="1000"
   height="1000"
   viewBox="122.4 12.5 753.3 753.3">
  <path
     d="m 426.17574,299.05269 0,-132.6325 153.49293,0 0,132.6325 c 71.76452,14.32177 122.04655,48.25853 122.04655,87.79906 0,19.61452 0.93399,39.54069 0.93399,59.31111 l 0,226.81559 c 0,30.35392 -24.90731,55.10577 -55.10781,55.10577 l -289.08284,0 c -30.35601,0 -55.10776,-24.75185 -55.10776,-55.10577 l 0,-226.81559 c 0,-3.42478 0.31133,-53.55128 0.93398,-56.82017 -2.95779,-54.17394 80.94939,-82.03954 121.89092,-90.29 z"
     style="fill:none;stroke-width:46.70159149px;stroke-linecap:round;stroke-linejoin:round;stroke-miterlimit:4;stroke-dasharray:none;stroke-opacity:1" />
  <path
     d="m 694.64919,652.42608 0,20.55237 c 0,30.1971 -24.90731,55.10577 -55.10781,55.10577 l -289.08284,0 c -30.20006,0 -55.10776,-24.75185 -55.10776,-55.10577 l 0,-20.55237 c 141.19452,-24.28138 259.66073,19.61591 399.29841,0 z"
     style="fill-opacity:1;fill-rule:evenodd;stroke:none" />
  <path
     d="m 385.3293,166.42019 219.34176,0"
     style="fill:none;stroke-width:46.70159149px;stroke-linecap:round;stroke-linejoin:round;stroke-miterlimit:4;stroke-dasharray:none;stroke-opacity:1" />
  <path
     d="m 412.10454,50.13333 165.79084,0 c 14.01034,0 28.95507,11.98672 25.37472,25.53025 l -12.76534,50.28193 c -3.42482,13.69942 -11.51946,25.53025 -25.53023,25.53025 l -140.10465,0 c -14.01033,0 -21.94991,-11.83083 -25.37474,-25.53025 L 386.57473,75.66358 C 383.1499,62.12005 398.09421,50.13333 412.10454,50.13333 Z"
     style="fill-opacity:1;fill-rule:evenodd;stroke:none" />
</svg>
