<svg stroke="currentColor" fill="currentColor"
   xmlns="http://www.w3.org/2000/svg"
   width="1000"
   height="1000"
   viewBox="124.4 14.5 753.3 753.3">
  <path
     d="m 424.17587,301.05269 0,-132.6325 153.49296,0 0,132.6325 c 71.76444,14.32177 122.04653,48.25853 122.04653,87.79906 0,19.61452 0.93383,39.54069 0.93383,59.31111 l 0,226.81559 c 0,30.35392 -24.90727,55.10576 -55.10777,55.10576 l -289.08286,0 c -30.35608,0 -55.10778,-24.75184 -55.10778,-55.10576 l 0,-226.81559 c 0,-3.42478 0.3118,-53.55128 0.93384,-56.82017 -2.95771,-54.17394 80.9495,-82.03954 121.89094,-90.29 z"
     style="fill:none;stroke-width:46.70159149px;stroke-linecap:round;stroke-linejoin:round;stroke-miterlimit:4;stroke-dasharray:none;stroke-opacity:1" />
  <path
     d="m 700.64935,358.65125 0,316.3272 c 0,30.35392 -24.90728,55.10576 -55.10778,55.10576 l -289.08286,0 c -30.35608,0 -55.10777,-24.75184 -55.10777,-55.10576 l 0,-316.3272 c 141.19445,-24.28477 259.66076,19.61499 399.29841,0 z"
     style="fill-opacity:1;fill-rule:evenodd;stroke:none" />
  <path
     d="m 391.32946,168.42019 219.34168,0"
     style="fill:none;stroke-width:46.70159149px;stroke-linecap:round;stroke-linejoin:round;stroke-miterlimit:4;stroke-dasharray:none;stroke-opacity:1" />
  <path
     d="m 418.10471,52.13333 165.79086,0 c 14.01029,0 28.95503,11.98672 25.37466,25.53025 l -12.76528,50.28193 c -3.42493,13.69942 -11.51949,25.53025 -25.53024,25.53025 l -140.10472,0 c -14.01028,0 -21.94988,-11.83083 -25.37466,-25.53025 L 392.57493,77.66358 C 389.15,64.12005 404.09443,52.13333 418.10471,52.13333 Z"
     style="fill-opacity:1;fill-rule:evenodd;stroke:none" />
</svg>
