<svg stroke="currentColor" fill="currentColor" xmlns="http://www.w3.org/2000/svg" viewBox="0 0 1000 1000">
  <path stroke-miterlimit="22.926" d="M419.367 668.216c-175.831 0-319.25-143.418-319.25-319.251 0-175.839 143.417-319.264 319.25-319.264 175.84 0 319.259 143.423 319.259 319.264 0 175.833-143.418 319.251-319.259 319.251" fill="none" stroke-width="46.91" stroke-linecap="round" stroke-linejoin="round"/>
  <path stroke-miterlimit="22.926" fill="none" stroke-width="46.909" stroke-linecap="round" stroke-linejoin="round" d="M897.765 890.229l-235.87-315.79-82.569 61.672 235.871 315.791M815.197 951.902c12.543 16.792 36.556 20.275 53.355 7.72M868.553 959.624l21.484-16.054M890.037 943.57c16.795-12.541 20.277-36.542 7.728-53.342"/>
  <g transform="translate(50, 50) scale(0.7)">
    <path d="M424.176 301.053V168.42h153.493v132.633c71.764 14.321 122.046 48.258 122.046 87.799 0 19.614.934 39.54.934 59.31v226.816c0 30.354-24.907 55.106-55.108 55.106H356.46c-30.357 0-55.108-24.752-55.108-55.106V448.163c0-3.425.312-53.551.934-56.82-2.958-54.174 80.95-82.04 121.89-90.29z" fill="none" stroke-width="46.702" stroke-linecap="round" stroke-linejoin="round"/>
    <path d="M391.33 168.42H610.67" fill="none" stroke-width="46.702" stroke-linecap="round" stroke-linejoin="round"/>
    <path d="M418.105 52.133h165.79c14.01 0 28.956 11.987 25.375 25.53l-12.765 50.283c-3.425 13.699-11.52 25.53-25.53 25.53H430.87c-14.01 0-21.95-11.831-25.375-25.53l-12.92-50.282c-3.425-13.544 11.52-25.53 25.53-25.53z" fill-rule="evenodd" stroke="none"/>
  </g>
</svg>
