<svg stroke="currentColor" fill="currentColor"
   xmlns="http://www.w3.org/2000/svg"
   width="1000"
   height="1000"
   viewBox="150.2 27.6 758.5 758.5">
  <path
     d="m 344.38207,172.76871 311.3653,0 c 39.06645,0 70.98203,31.91601 70.98203,70.9833 l 0,396.75756 c 0,38.96191 -31.91558,70.98501 -70.98203,70.98501 l -311.3653,0 c -38.96072,0 -70.98319,-32.0231 -70.98319,-70.98501 l 0,-396.75756 c 0,-39.06729 31.9159,-70.9833 70.98319,-70.9833 z"
     style="fill:none;stroke-width:34.79776382px;stroke-linecap:round;stroke-linejoin:round;stroke-miterlimit:4;stroke-dasharray:none;stroke-opacity:1" />
  <path
     d="m 500.11806,65.493477 c 33.94374,0 62.23015,24.123541 68.84932,56.039433 l 67.03324,0 0,90.83695 -271.87147,0 0,-90.83695 67.03378,0 c 6.61798,-31.915892 35.0113,-56.039433 68.95513,-56.039433 z"
     style="fill:#ffffff;fill-opacity:1;stroke-width:34.79800034;stroke-linecap:round;stroke-linejoin:round;stroke-miterlimit:4;stroke-dasharray:none;stroke-opacity:1" />
  <path
     d="m 508.23026,100.93152 c -16.75823,-4.483044 -33.94373,5.44405 -38.42688,22.20239 -4.48304,16.65165 5.44373,33.83714 22.20239,38.32029 16.65165,4.48305 33.83715,-5.44371 38.3203,-22.09548 4.48304,-16.75855 -5.44405,-33.94374 -22.09581,-38.4272 z"
     style="fill-opacity:1;fill-rule:evenodd;stroke:none" />
  <path
     d="m 503.42696,118.65075 c -6.93805,-1.92115 -14.08977,2.24173 -15.90434,9.17987 -1.92148,6.93805 2.24141,14.08977 9.17987,15.90434 6.93805,1.92148 14.08977,-2.2414 16.01093,-9.17955 1.81488,-6.93835 -2.348,-14.09007 -9.28646,-15.90466 z"
     style="fill:#fefefe;fill-opacity:1;fill-rule:evenodd;stroke:none" />
  <path
     d="m 646.03376,331.81369 -226.5056,0"
     style="fill:none;stroke-width:35.01124573px;stroke-linecap:round;stroke-linejoin:round;stroke-miterlimit:4;stroke-dasharray:none;stroke-opacity:1" />
  <path
     d="m 356.87084,313.34747 c -10.24703,-2.77526 -20.70796,3.30889 -23.37653,13.55625 -2.77517,10.14045 3.30919,20.70795 13.44965,23.37537 10.24704,2.77483 20.70764,-3.30657 23.48312,-13.44851 2.66857,-10.24704 -3.30889,-20.70765 -13.55624,-23.48311 z"
     style="fill-opacity:1;fill-rule:evenodd;stroke:none" />
  <path
     d="m 646.03376,418.80876 -226.5056,0"
     style="fill:none;stroke-width:35.01124573px;stroke-linecap:round;stroke-linejoin:round;stroke-miterlimit:4;stroke-dasharray:none;stroke-opacity:1" />
  <path
     d="m 356.87084,400.34041 c -10.24703,-2.77483 -20.70796,3.30953 -23.37653,13.55783 -2.77517,10.14067 3.30919,20.70849 13.44965,23.3759 10.24704,2.77484 20.70764,-3.30952 23.48312,-13.45029 2.66857,-10.24524 -3.30889,-20.70553 -13.55624,-23.48344 z"
     style="fill-opacity:1;fill-rule:evenodd;stroke:none" />
  <path
     d="m 646.03376,505.80383 -226.5056,0"
     style="fill:none;stroke-width:35.01124573px;stroke-linecap:round;stroke-linejoin:round;stroke-miterlimit:4;stroke-dasharray:none;stroke-opacity:1" />
  <path
     d="m 356.87084,487.33547 c -10.24703,-2.77483 -20.70796,3.30964 -23.37653,13.55783 -2.77517,10.14067 3.30919,20.70554 13.44965,23.37591 10.24704,2.77493 20.70764,-3.30952 23.48312,-13.55783 2.66857,-10.1377 -3.30889,-20.60096 -13.55624,-23.37591 z"
     style="fill-opacity:1;fill-rule:evenodd;stroke:none" />
  <path
     d="m 646.03376,592.79592 -226.5056,0"
     style="fill:none;stroke-width:35.01124573px;stroke-linecap:round;stroke-linejoin:round;stroke-miterlimit:4;stroke-dasharray:none;stroke-opacity:1" />
  <path
     d="m 356.87084,574.33064 c -10.24703,-2.77493 -20.70796,3.30953 -23.37653,13.55773 -2.77517,10.1377 3.30919,20.70563 13.44965,23.37591 10.24704,2.77494 20.70764,-3.30953 23.48312,-13.55772 2.66857,-10.14079 -3.30889,-20.60108 -13.55624,-23.37592 z"
     style="fill-opacity:1;fill-rule:evenodd;stroke:none" />
  <path
     d="m 561.06686,685.47646 62.65741,62.65741 161.71377,-168.2254"
     style="fill:none;stroke:#fefefe;stroke-width:74.71912384px;stroke-linecap:round;stroke-linejoin:round;stroke-miterlimit:4;stroke-dasharray:none;stroke-opacity:1" />
  <path
     d="m 561.06686,685.47646 62.65741,62.65741 161.71377,-168.2254"
     style="fill:none;stroke-width:35.01124573px;stroke-linecap:round;stroke-linejoin:round;stroke-miterlimit:4;stroke-dasharray:none;stroke-opacity:1" />
</svg>
