<?xml version="1.0" encoding="UTF-8" standalone="no"?>
<!-- Created with Inkscape (http://www.inkscape.org/) -->

<svg stroke="currentColor" fill="currentColor"
   xmlns:dc="http://purl.org/dc/elements/1.1/"
   xmlns:cc="http://creativecommons.org/ns#"
   xmlns:rdf="http://www.w3.org/1999/02/22-rdf-syntax-ns#"
   xmlns:svg="http://www.w3.org/2000/svg"
   xmlns="http://www.w3.org/2000/svg"
   xmlns:sodipodi="http://sodipodi.sourceforge.net/DTD/sodipodi-0.dtd"
   xmlns:inkscape="http://www.inkscape.org/namespaces/inkscape"
   width="1000"
   height="1000"
   id="svg4152"
   version="1.1"
   inkscape:version="0.91 r13725"
   viewBox="0 0 1000 1000"
   sodipodi:docname="inventory.svg">
  <defs
     id="defs5498">
    <marker
       inkscape:isstock="true"
       style="overflow:visible"
       id="marker4233"
       refX="0.0"
       refY="0.0"
       orient="auto"
       inkscape:stockid="TriangleOutL">
      <path
         transform="scale(0.8)"
         style="fill-rule:evenodd;stroke:#000000;stroke-width:1pt;stroke-opacity:1;fill:#000000;fill-opacity:1"
         d="M 5.77,0.0 L -2.88,5.0 L -2.88,-5.0 L 5.77,0.0 z "
         id="path4235" />
    </marker>
    <marker
       inkscape:isstock="true"
       style="overflow:visible"
       id="marker4755"
       refX="0.0"
       refY="0.0"
       orient="auto"
       inkscape:stockid="TriangleOutL">
      <path
         transform="scale(0.8)"
         style="fill-rule:evenodd;stroke:#000000;stroke-width:1pt;stroke-opacity:1;fill:#000000;fill-opacity:1"
         d="M 5.77,0.0 L -2.88,5.0 L -2.88,-5.0 L 5.77,0.0 z "
         id="path4757" />
    </marker>
    <marker
       inkscape:stockid="Arrow1Lend"
       orient="auto"
       refY="0.0"
       refX="0.0"
       id="Arrow1Lend"
       style="overflow:visible;"
       inkscape:isstock="true">
      <path
         id="path4164"
         d="M 0.0,0.0 L 5.0,-5.0 L -12.5,0.0 L 5.0,5.0 L 0.0,0.0 z "
         style="fill-rule:evenodd;stroke:#000000;stroke-width:1pt;stroke-opacity:1;fill:#000000;fill-opacity:1"
         transform="scale(0.8) rotate(180) translate(12.5,0)" />
    </marker>
    <marker
       inkscape:stockid="Arrow2Lend"
       orient="auto"
       refY="0.0"
       refX="0.0"
       id="Arrow2Lend"
       style="overflow:visible;"
       inkscape:isstock="true">
      <path
         id="path4182"
         style="fill-rule:evenodd;stroke-width:0.625;stroke-linejoin:round;stroke:#000000;stroke-opacity:1;fill:#000000;fill-opacity:1"
         d="M 8.7185878,4.0337352 L -2.2072895,0.016013256 L 8.7185884,-4.0017078 C 6.9730900,-1.6296469 6.9831476,1.6157441 8.7185878,4.0337352 z "
         transform="scale(1.1) rotate(180) translate(1,0)" />
    </marker>
    <pattern
       y="0"
       x="0"
       height="6"
       width="6"
       patternUnits="userSpaceOnUse"
       id="EMFhbasepattern" />
  </defs>
  <sodipodi:namedview
     inkscape:window-height="838"
     inkscape:window-width="1440"
     inkscape:pageshadow="2"
     inkscape:pageopacity="0.0"
     borderopacity="1.0"
     bordercolor="#666666"
     pagecolor="#ffffff"
     id="base"
     showgrid="true"
     showguides="true"
     inkscape:guide-bbox="true"
     inkscape:zoom="0.5"
     inkscape:cx="357.82213"
     inkscape:cy="506.70776"
     inkscape:window-x="-8"
     inkscape:window-y="-8"
     inkscape:current-layer="svg4152"
     inkscape:window-maximized="1"
     objecttolerance="20">
    <sodipodi:guide
       orientation="horizontal"
       position="200"
       id="guide5596" />
    <inkscape:grid
       type="xygrid"
       id="grid3430"
       empspacing="50" />
    <sodipodi:guide
       position="550,1000"
       orientation="0,1"
       id="guide4169" />
  </sodipodi:namedview>
  <metadata
     id="metadata5594">
    <rdf:RDF>
      <cc:Work
         rdf:about="">
        <dc:format>image/svg+xml</dc:format>
        <dc:type
           rdf:resource="http://purl.org/dc/dcmitype/StillImage" />
        <dc:title></dc:title>
      </cc:Work>
    </rdf:RDF>
  </metadata>
  <path
     inkscape:connector-curvature="0"
     id="path3399"
     d="m 344.38207,172.76871 311.3653,0 c 39.06645,0 70.98203,31.91601 70.98203,70.9833 l 0,396.75756 c 0,38.96191 -31.91558,70.98501 -70.98203,70.98501 l -311.3653,0 c -38.96072,0 -70.98319,-32.0231 -70.98319,-70.98501 l 0,-396.75756 c 0,-39.06729 31.9159,-70.9833 70.98319,-70.9833 z"
     style="fill:none;stroke:#000000;stroke-width:34.79776382px;stroke-linecap:round;stroke-linejoin:round;stroke-miterlimit:4;stroke-dasharray:none;stroke-opacity:1" />
  <path
     inkscape:connector-curvature="0"
     id="path3401"
     d="m 500.11806,65.493477 c 33.94374,0 62.23015,24.123541 68.84932,56.039433 l 67.03324,0 0,90.83695 -271.87147,0 0,-90.83695 67.03378,0 c 6.61798,-31.915892 35.0113,-56.039433 68.95513,-56.039433 z"
     style="fill:#ffffff;fill-opacity:1;stroke:#000000;stroke-width:34.79800034;stroke-linecap:round;stroke-linejoin:round;stroke-miterlimit:4;stroke-dasharray:none;stroke-opacity:1" />
  <path
     inkscape:connector-curvature="0"
     id="path3403"
     d="m 508.23026,100.93152 c -16.75823,-4.483044 -33.94373,5.44405 -38.42688,22.20239 -4.48304,16.65165 5.44373,33.83714 22.20239,38.32029 16.65165,4.48305 33.83715,-5.44371 38.3203,-22.09548 4.48304,-16.75855 -5.44405,-33.94374 -22.09581,-38.4272 z"
     style="fill:#000000;fill-opacity:1;fill-rule:evenodd;stroke:none" />
  <path
     inkscape:connector-curvature="0"
     id="path3405"
     d="m 503.42696,118.65075 c -6.93805,-1.92115 -14.08977,2.24173 -15.90434,9.17987 -1.92148,6.93805 2.24141,14.08977 9.17987,15.90434 6.93805,1.92148 14.08977,-2.2414 16.01093,-9.17955 1.81488,-6.93835 -2.348,-14.09007 -9.28646,-15.90466 z"
     style="fill:#fefefe;fill-opacity:1;fill-rule:evenodd;stroke:none" />
  <path
     inkscape:connector-curvature="0"
     id="path3407"
     d="m 646.03376,331.81369 -226.5056,0"
     style="fill:none;stroke:#000000;stroke-width:35.01124573px;stroke-linecap:round;stroke-linejoin:round;stroke-miterlimit:4;stroke-dasharray:none;stroke-opacity:1" />
  <path
     inkscape:connector-curvature="0"
     id="path3409"
     d="m 356.87084,313.34747 c -10.24703,-2.77526 -20.70796,3.30889 -23.37653,13.55625 -2.77517,10.14045 3.30919,20.70795 13.44965,23.37537 10.24704,2.77483 20.70764,-3.30657 23.48312,-13.44851 2.66857,-10.24704 -3.30889,-20.70765 -13.55624,-23.48311 z"
     style="fill:#000000;fill-opacity:1;fill-rule:evenodd;stroke:none" />
  <path
     inkscape:connector-curvature="0"
     id="path3411"
     d="m 646.03376,418.80876 -226.5056,0"
     style="fill:none;stroke:#000000;stroke-width:35.01124573px;stroke-linecap:round;stroke-linejoin:round;stroke-miterlimit:4;stroke-dasharray:none;stroke-opacity:1" />
  <path
     inkscape:connector-curvature="0"
     id="path3413"
     d="m 356.87084,400.34041 c -10.24703,-2.77483 -20.70796,3.30953 -23.37653,13.55783 -2.77517,10.14067 3.30919,20.70849 13.44965,23.3759 10.24704,2.77484 20.70764,-3.30952 23.48312,-13.45029 2.66857,-10.24524 -3.30889,-20.70553 -13.55624,-23.48344 z"
     style="fill:#000000;fill-opacity:1;fill-rule:evenodd;stroke:none" />
  <path
     inkscape:connector-curvature="0"
     id="path3415"
     d="m 646.03376,505.80383 -226.5056,0"
     style="fill:none;stroke:#000000;stroke-width:35.01124573px;stroke-linecap:round;stroke-linejoin:round;stroke-miterlimit:4;stroke-dasharray:none;stroke-opacity:1" />
  <path
     inkscape:connector-curvature="0"
     id="path3417"
     d="m 356.87084,487.33547 c -10.24703,-2.77483 -20.70796,3.30964 -23.37653,13.55783 -2.77517,10.14067 3.30919,20.70554 13.44965,23.37591 10.24704,2.77493 20.70764,-3.30952 23.48312,-13.55783 2.66857,-10.1377 -3.30889,-20.60096 -13.55624,-23.37591 z"
     style="fill:#000000;fill-opacity:1;fill-rule:evenodd;stroke:none" />
  <path
     inkscape:connector-curvature="0"
     id="path3419"
     d="m 646.03376,592.79592 -226.5056,0"
     style="fill:none;stroke:#000000;stroke-width:35.01124573px;stroke-linecap:round;stroke-linejoin:round;stroke-miterlimit:4;stroke-dasharray:none;stroke-opacity:1" />
  <path
     inkscape:connector-curvature="0"
     id="path3421"
     d="m 356.87084,574.33064 c -10.24703,-2.77493 -20.70796,3.30953 -23.37653,13.55773 -2.77517,10.1377 3.30919,20.70563 13.44965,23.37591 10.24704,2.77494 20.70764,-3.30953 23.48312,-13.55772 2.66857,-10.14079 -3.30889,-20.60108 -13.55624,-23.37592 z"
     style="fill:#000000;fill-opacity:1;fill-rule:evenodd;stroke:none" />
  <path
     inkscape:connector-curvature="0"
     id="path3423"
     d="m 561.06686,685.47646 62.65741,62.65741 161.71377,-168.2254"
     style="fill:none;stroke:#fefefe;stroke-width:74.71912384px;stroke-linecap:round;stroke-linejoin:round;stroke-miterlimit:4;stroke-dasharray:none;stroke-opacity:1" />
  <path
     inkscape:connector-curvature="0"
     id="path3425"
     d="m 561.06686,685.47646 62.65741,62.65741 161.71377,-168.2254"
     style="fill:none;stroke:#000000;stroke-width:35.01124573px;stroke-linecap:round;stroke-linejoin:round;stroke-miterlimit:4;stroke-dasharray:none;stroke-opacity:1" />
</svg>
