<svg stroke="currentColor" fill="currentColor"
   xmlns="http://www.w3.org/2000/svg"
   viewBox="0 0 1000 1000"
   height="1000"
   width="1000">
  <path
     style="fill:none;stroke-width:39.3228px;stroke-linecap:round;stroke-linejoin:round;stroke-miterlimit:4;stroke-dasharray:none;stroke-opacity:1"
     d="M 49.941423,850.47046 H 933.60307" />
  <path
     style="fill:none;stroke-width:39.3228px;stroke-linecap:round;stroke-linejoin:round;stroke-miterlimit:4;stroke-dasharray:none;stroke-opacity:1"
     d="m 947.56842,850.47046 -51.27014,38.95509" />
  <path
     style="fill:none;stroke-width:39.3228px;stroke-linecap:round;stroke-linejoin:round;stroke-miterlimit:4;stroke-dasharray:none;stroke-opacity:1"
     d="m 896.29828,811.70025 51.27014,38.77021" />
  <path
     style="fill:none;stroke-width:33.1807;stroke-linecap:round;stroke-linejoin:round;stroke-miterlimit:4;stroke-dasharray:none;stroke-opacity:1"
     d="m 48.777629,730.87173 c 10.983178,2.79667 44.153282,4.51805 55.796831,-25.61 14.84205,-38.4043 7.20366,-118.94467 9.39335,-210.84585 2.85175,-119.68768 -3.8967,-252.06479 23.64155,-273.17783 35.62524,7.88274 12.39064,418.11189 42.48957,472.86893 27.33565,49.63203 62.36484,34.56066 106.2719,24.67692 C 400,693.20531 400.60456,521.04092 400,477.7838 c -1.0188,-79.37238 13.328,-371.29667 11.42857,-370.94382 0,0 5.49599,245.00576 11.94976,360.61623 C 430.3926,593.10728 450,756.18196 520.34455,750 c 79.13245,-0.0376 90.78779,-82.77465 90.22235,-167.83633 -0.75244,-93.52665 -5.05222,-203.40451 24.7428,-207.36153 37.39603,-1.06684 33.20936,90.9545 45.11192,195.07072 10.72273,93.79587 -4.40389,184.93578 109.12019,174.58542 35.53102,-3.21808 113.25162,2.08838 145.22413,0.30651" />
</svg>
