<?xml version="1.0" encoding="UTF-8" standalone="no"?>
<!-- Created with Inkscape (http://www.inkscape.org/) -->

<svg stroke="currentColor" fill="currentColor"
   xmlns:dc="http://purl.org/dc/elements/1.1/"
   xmlns:cc="http://creativecommons.org/ns#"
   xmlns:rdf="http://www.w3.org/1999/02/22-rdf-syntax-ns#"
   xmlns:svg="http://www.w3.org/2000/svg"
   xmlns="http://www.w3.org/2000/svg"
   xmlns:sodipodi="http://sodipodi.sourceforge.net/DTD/sodipodi-0.dtd"
   xmlns:inkscape="http://www.inkscape.org/namespaces/inkscape"
   width="1000"
   height="1000"
   id="svg4152"
   version="1.1"
   inkscape:version="0.91 r13725"
   viewBox="0 0 1000 1000"
   sodipodi:docname="misc-cristal2.svg">
  <defs
     id="defs5498">
    <marker
       inkscape:isstock="true"
       style="overflow:visible"
       id="marker4233"
       refX="0.0"
       refY="0.0"
       orient="auto"
       inkscape:stockid="TriangleOutL">
      <path
         transform="scale(0.8)"
         style="fill-rule:evenodd;stroke:#000000;stroke-width:1pt;stroke-opacity:1;fill:#000000;fill-opacity:1"
         d="M 5.77,0.0 L -2.88,5.0 L -2.88,-5.0 L 5.77,0.0 z "
         id="path4235" />
    </marker>
    <marker
       inkscape:isstock="true"
       style="overflow:visible"
       id="marker4755"
       refX="0.0"
       refY="0.0"
       orient="auto"
       inkscape:stockid="TriangleOutL">
      <path
         transform="scale(0.8)"
         style="fill-rule:evenodd;stroke:#000000;stroke-width:1pt;stroke-opacity:1;fill:#000000;fill-opacity:1"
         d="M 5.77,0.0 L -2.88,5.0 L -2.88,-5.0 L 5.77,0.0 z "
         id="path4757" />
    </marker>
    <marker
       inkscape:stockid="Arrow1Lend"
       orient="auto"
       refY="0.0"
       refX="0.0"
       id="Arrow1Lend"
       style="overflow:visible;"
       inkscape:isstock="true">
      <path
         id="path4164"
         d="M 0.0,0.0 L 5.0,-5.0 L -12.5,0.0 L 5.0,5.0 L 0.0,0.0 z "
         style="fill-rule:evenodd;stroke:#000000;stroke-width:1pt;stroke-opacity:1;fill:#000000;fill-opacity:1"
         transform="scale(0.8) rotate(180) translate(12.5,0)" />
    </marker>
    <marker
       inkscape:stockid="Arrow2Lend"
       orient="auto"
       refY="0.0"
       refX="0.0"
       id="Arrow2Lend"
       style="overflow:visible;"
       inkscape:isstock="true">
      <path
         id="path4182"
         style="fill-rule:evenodd;stroke-width:0.625;stroke-linejoin:round;stroke:#000000;stroke-opacity:1;fill:#000000;fill-opacity:1"
         d="M 8.7185878,4.0337352 L -2.2072895,0.016013256 L 8.7185884,-4.0017078 C 6.9730900,-1.6296469 6.9831476,1.6157441 8.7185878,4.0337352 z "
         transform="scale(1.1) rotate(180) translate(1,0)" />
    </marker>
    <pattern
       y="0"
       x="0"
       height="6"
       width="6"
       patternUnits="userSpaceOnUse"
       id="EMFhbasepattern" />
  </defs>
  <sodipodi:namedview
     inkscape:window-height="838"
     inkscape:window-width="1440"
     inkscape:pageshadow="2"
     inkscape:pageopacity="0.0"
     borderopacity="1.0"
     bordercolor="#666666"
     pagecolor="#ffffff"
     id="base"
     showgrid="true"
     showguides="true"
     inkscape:guide-bbox="true"
     inkscape:zoom="0.5"
     inkscape:cx="357.82213"
     inkscape:cy="459.29481"
     inkscape:window-x="-8"
     inkscape:window-y="-8"
     inkscape:current-layer="svg4152"
     inkscape:window-maximized="1"
     objecttolerance="20">
    <sodipodi:guide
       orientation="horizontal"
       position="200"
       id="guide5596" />
    <inkscape:grid
       type="xygrid"
       id="grid3430"
       empspacing="50" />
    <sodipodi:guide
       position="550,1000"
       orientation="0,1"
       id="guide4169" />
  </sodipodi:namedview>
  <metadata
     id="metadata5594">
    <rdf:RDF>
      <cc:Work
         rdf:about="">
        <dc:format>image/svg+xml</dc:format>
        <dc:type
           rdf:resource="http://purl.org/dc/dcmitype/StillImage" />
        <dc:title></dc:title>
      </cc:Work>
    </rdf:RDF>
  </metadata>
  <path
     inkscape:connector-curvature="0"
     id="path3356"
     d="m 284.73989,723.58983 c -6.91261,2.35909 -10.45326,9.77556 -8.09299,16.52218 2.19192,6.91162 9.77874,10.4501 16.52302,8.26101 z m 0,0 181.07419,-61.54007 8.42986,24.78304 -181.07402,61.54022 z M 474.24394,686.8328 c 6.91279,-2.35894 10.45343,-9.77541 8.09317,-16.52202 -2.36043,-6.91179 -9.77873,-10.45494 -16.52303,-8.26102 z"
     style="fill:#040404;fill-opacity:1;fill-rule:nonzero;stroke:none" />
  <path
     inkscape:connector-curvature="0"
     id="path3358"
     d="m 616.54086,537.95977 c -1.34907,6.91647 3.20329,13.82808 10.28493,15.17747 7.08162,1.51456 13.82339,-3.0383 15.34263,-10.11993 z m 0,0 39.2858,-200.96702 25.45772,5.05755 -39.11596,200.96701 z M 681.28438,342.0503 c 1.34906,-6.91229 -3.20345,-13.82492 -10.28492,-15.17381 -7.08163,-1.51789 -13.82826,3.03514 -15.1728,10.11626 z"
     style="fill:#040404;fill-opacity:1;fill-rule:nonzero;stroke:none" />
  <path
     inkscape:connector-curvature="0"
     id="path3360"
     d="M 634.75178,74.316503 C 669.14521,45.149112 717.1922,39.248034 766.92827,53.241795 l -7.07678,25.289713 C 718.37644,66.729509 678.92078,71.113192 651.60881,94.21098 Z M 766.92827,53.241795 c 48.2215,13.656392 98.12742,46.027235 138.75794,93.909075 l -19.89533,16.85986 C 848.53367,120.17541 803.18061,90.670676 759.85149,78.531508 Z m 138.75794,93.909075 0,0 -19.89533,16.85986 0,0 z m -9.94542,8.43 9.27072,-9.27305 c 5.05755,5.05805 5.05755,13.4879 0,18.54594 -5.05754,5.05804 -13.4884,5.05804 -18.54593,0 z m 9.94542,-8.43 c 40.6352,47.88181 64.40384,102.50792 69.80124,152.07547 l -25.96725,2.86613 c -5.05772,-44.67836 -26.63728,-94.24643 -63.72932,-138.08174 z m 69.80124,152.07547 c 5.73223,51.59115 -7.92618,97.95574 -42.31959,127.12312 L 916.31083,406.2863 c 27.31197,-23.09797 37.93189,-61.20104 33.20937,-104.19383 z m -42.31959,127.12312 c -34.2236,29.16755 -82.27527,35.06863 -132.18117,20.90604 l 7.08164,-25.28938 c 41.47487,11.80183 80.92601,7.58681 108.2425,-15.67982 z M 800.98669,447.2555 C 752.93502,433.5991 702.86412,401.3971 662.22892,353.51527 l 20.06516,-17.02837 c 37.09206,43.83532 82.4451,73.34004 125.77425,85.47922 z M 662.22892,353.51527 C 621.76824,305.63328 597.99475,250.83883 592.43236,201.27077 l 26.13241,-2.86611 c 4.88771,44.67886 26.63727,94.24641 63.72931,138.08224 z m -69.79656,-152.2445 c -5.73225,-51.42214 7.92131,-97.78689 42.31942,-126.954267 l 16.85703,19.894477 c -27.14195,23.0983 -37.93174,61.20139 -33.04404,104.19368 z"
     style="fill:#040404;fill-opacity:1;fill-rule:nonzero;stroke:none" />
  <path
     inkscape:connector-curvature="0"
     id="path3362"
     d="m 874.49625,134.00015 c 4.04783,2.36042 7.58631,5.39539 10.61994,9.1047 28.32618,33.3824 1.18355,102.84479 -60.52586,155.11013 -61.70523,52.26517 -134.54009,67.6078 -162.86627,34.22541 -3.03362,-3.54081 -5.56239,-7.58681 -7.24679,-11.97066 33.21405,20.56902 97.2782,3.20347 152.24166,-43.32963 54.96346,-46.70145 82.44526,-107.05979 67.77732,-143.13995 z"
     style="fill:#040404;fill-opacity:1;fill-rule:evenodd;stroke:none" />
  <path
     inkscape:connector-curvature="0"
     id="path3364"
     d="m 608.10983,118.99502 c 2.36377,-5.05805 5.56724,-9.44156 9.61041,-12.98187 37.43173,-32.876874 132.18116,14.83645 211.5928,106.55409 79.40679,91.71732 113.46521,192.70751 76.03816,225.58405 -4.048,3.54082 -8.77054,6.23808 -14.16309,7.92416 C 911.08345,404.43155 876.35033,315.24317 805.53955,233.47311 734.7286,151.5342 651.77866,104.83277 608.10983,118.99502 Z"
     style="fill:#040404;fill-opacity:1;fill-rule:evenodd;stroke:none" />
  <path
     inkscape:connector-curvature="0"
     id="path3366"
     d="m 451.98919,485.02174 c 26.46976,-19.55766 61.53637,-21.58057 96.94419,-8.93571 l -8.76586,24.61519 c -27.31648,-9.6099 -53.61557,-8.59836 -72.66736,5.56373 z m 96.94419,-8.93571 c 33.54889,11.80182 67.60748,37.26056 94.24458,73.17304 l -21.07471,15.50781 c -23.43381,-31.52497 -52.93953,-53.78123 -81.93573,-64.06566 z m 83.62465,80.9292 10.61993,-7.75616 c 4.38302,5.73225 3.03831,13.99325 -2.69393,18.37627 -5.90208,4.213 -13.99793,3.03362 -18.38078,-2.86846 z m 8.43084,-10.11976 0,0 -16.69186,20.23502 0,0 z m -8.261,10.11976 9.2707,-9.27523 c 5.05755,5.2274 5.05755,13.48841 0,18.54595 -5.22754,5.22739 -13.48856,5.22739 -18.54609,0 z m 10.45009,-7.75616 c 26.64195,35.90782 40.9702,76.03834 42.48944,111.61115 l -26.13242,1.0097 c -1.34905,-30.68511 -13.99325,-65.41355 -37.43173,-97.11304 z m 42.48944,111.61115 c 1.68423,37.42705 -10.45494,70.30609 -36.92237,90.03158 l -15.68216,-21.07488 c 19.0508,-14.1631 27.65149,-38.94612 26.47211,-67.947 z m -44.67853,79.40678 7.75616,10.6248 c -5.73223,4.213 -13.99325,3.03361 -18.38077,-2.86847 -4.21317,-5.73224 -3.03363,-13.99324 2.69861,-18.20641 z m 7.75616,10.6248 0,0 -15.68216,-21.07488 0,0 z m 0,0 c -26.47193,19.55563 -61.54006,21.57955 -96.94787,9.10555 l 8.77054,-24.78788 c 27.14212,9.6104 53.61406,8.60069 72.49517,-5.39255 z m -96.94787,9.10555 C 518.24827,748.03333 484.02285,722.5756 457.55308,686.66294 l 21.07471,-15.50763 c 23.4333,31.52497 52.93904,53.78391 81.93991,64.06416 z m -94.24408,-73.34441 c -26.6386,-35.90782 -40.9692,-75.8683 -42.48693,-111.44129 l 26.13274,-1.18021 c 1.34907,30.6851 13.99377,65.41354 37.4289,97.11304 z M 415.06615,575.22165 c -1.68574,-37.59688 10.45327,-70.47392 36.92304,-90.03158 l 15.51097,20.90638 c -18.88278,14.16175 -27.65014,38.94477 -26.30127,67.94566 z m 44.67835,-79.57814 -7.75531,-10.62177 c 5.73223,-4.21501 13.99374,-3.03514 18.3771,2.86611 4.215,5.73225 3.03512,13.99375 -2.86613,18.3771 z"
     style="fill:#040404;fill-opacity:1;fill-rule:nonzero;stroke:none" />
  <path
     inkscape:connector-curvature="0"
     id="path3368"
     d="m 606.93046,524.9809 c 3.20346,2.69377 6.23709,5.73224 8.76586,9.27054 23.77349,32.03451 6.24177,85.47872 -39.11129,119.03246 -45.52306,33.71873 -101.6664,34.89829 -125.43889,2.69862 -2.52876,-3.37332 -4.72069,-7.08163 -6.23792,-10.95962 26.97546,22.08441 76.03867,17.87141 116.49935,-12.13917 40.63518,-30.01059 58.84144,-75.70333 45.52289,-107.90283 z"
     style="fill:#040404;fill-opacity:1;fill-rule:evenodd;stroke:none" />
  <path
     inkscape:connector-curvature="0"
     id="path3370"
     d="m 433.61209,518.23428 c 2.19142,-3.53847 5.05805,-6.74194 8.261,-9.27172 30.51627,-23.26663 96.77537,12.64503 148.03049,80.25234 51.25046,67.60747 68.11217,141.28671 37.5969,164.55068 -3.20347,2.52876 -6.91178,4.38284 -11.12946,5.56707 C 634.58195,729.32206 616.20384,664.24353 570.5131,603.88284 524.82505,543.692 467.16297,508.62538 433.61209,518.23428 Z"
     style="fill:#040404;fill-opacity:1;fill-rule:evenodd;stroke:none" />
  <path
     inkscape:connector-curvature="0"
     id="path3372"
     d="m 141.43127,563.08248 c 38.27192,-4.55269 75.02612,13.82341 103.85682,47.2073 l -19.895,17.19671 c -23.09778,-26.80711 -51.92782,-41.6449 -80.75851,-38.27159 z m 103.85682,47.2073 c 27.48114,32.0345 47.71298,78.06224 53.95141,130.49676 l -26.13291,3.20347 c -5.56374,-47.20713 -23.43515,-88.34718 -47.7135,-116.50352 z m 53.95141,130.49676 c 6.23792,52.59984 -2.52927,102.17075 -21.74957,139.76765 L 254.2238,868.41501 c 16.8597,-33.04404 24.61502,-77.2177 18.88279,-124.425 z m -21.74957,139.76765 c -20.06316,39.11127 -51.59098,65.58338 -89.69407,70.13608 l -3.20345,-26.13243 c 28.99887,-3.37313 53.44571,-24.61786 69.63139,-56.14283 z m -89.69407,70.13608 c -38.27158,4.55285 -75.19479,-13.82341 -103.856475,-47.03729 l 19.894495,-17.19671 c 23.09779,26.80694 51.75998,41.64005 80.75853,38.10157 z M 83.939385,903.65298 C 56.45791,871.61848 36.226059,825.59072 29.98797,772.98621 l 25.964079,-3.03363 c 5.732415,47.2073 23.603983,88.34735 47.881831,116.50369 z M 29.98797,772.98621 C 23.74988,720.38653 32.516915,670.98547 51.737216,633.38857 L 75.003673,645.3579 C 57.975306,678.57178 50.388326,722.5756 55.952049,769.95258 Z M 51.737216,633.38857 c 20.063159,-39.11613 51.590804,-65.75323 89.694054,-70.30609 l 3.20331,26.13242 c -28.99889,3.54315 -53.445556,24.61803 -69.630907,56.143 z"
     style="fill:#040404;fill-opacity:1;fill-rule:nonzero;stroke:none" />
  <path
     inkscape:connector-curvature="0"
     id="path3374"
     d="m 280.0192,706.39311 c 1.68573,4.21318 2.86611,8.59601 3.37198,12.97904 5.05804,41.64473 -45.35306,81.77039 -112.62369,89.69657 -67.10211,8.09116 -125.605718,-19.05097 -130.495089,-60.6957 -0.504844,-4.38301 -0.504844,-8.93571 0.168835,-13.31872 14.33093,34.05374 67.270814,54.96345 127.291464,47.71215 59.8525,-7.08163 106.38559,-39.79066 112.28667,-76.37334 z"
     style="fill:#040404;fill-opacity:1;fill-rule:evenodd;stroke:none" />
  <path
     inkscape:connector-curvature="0"
     id="path3376"
     d="m 102.48499,584.15736 c 4.38384,-2.35893 9.10455,-4.04801 13.99375,-4.72271 45.52156,-6.06708 93.06604,70.3061 106.21674,170.96229 13.15105,100.65152 -12.9817,187.13994 -58.50326,193.3817 -4.8897,0.67537 -9.77874,0.33434 -14.66794,-0.8442 36.58585,-20.40018 56.14283,-98.79744 44.34118,-188.65901 -11.63349,-89.69657 -50.74812,-160.17249 -91.38047,-170.11774 z"
     style="fill:#040404;fill-opacity:1;fill-rule:evenodd;stroke:none" />
</svg>
