<?xml version="1.0" encoding="UTF-8" standalone="no"?>
<!-- Created with Inkscape (http://www.inkscape.org/) -->

<svg stroke="currentColor" fill="currentColor"
   xmlns:dc="http://purl.org/dc/elements/1.1/"
   xmlns:cc="http://creativecommons.org/ns#"
   xmlns:rdf="http://www.w3.org/1999/02/22-rdf-syntax-ns#"
   xmlns:svg="http://www.w3.org/2000/svg"
   xmlns="http://www.w3.org/2000/svg"
   xmlns:sodipodi="http://sodipodi.sourceforge.net/DTD/sodipodi-0.dtd"
   xmlns:inkscape="http://www.inkscape.org/namespaces/inkscape"
   width="1000"
   height="1000"
   id="svg4152"
   version="1.1"
   inkscape:version="0.91 r13725"
   viewBox="0 0 1000 1000"
   sodipodi:docname="misc cristal.svg">
  <defs
     id="defs5498">
    <marker
       inkscape:isstock="true"
       style="overflow:visible"
       id="marker4233"
       refX="0.0"
       refY="0.0"
       orient="auto"
       inkscape:stockid="TriangleOutL">
      <path
         transform="scale(0.8)"
         style="fill-rule:evenodd;stroke:#000000;stroke-width:1pt;stroke-opacity:1;fill:#000000;fill-opacity:1"
         d="M 5.77,0.0 L -2.88,5.0 L -2.88,-5.0 L 5.77,0.0 z "
         id="path4235" />
    </marker>
    <marker
       inkscape:isstock="true"
       style="overflow:visible"
       id="marker4755"
       refX="0.0"
       refY="0.0"
       orient="auto"
       inkscape:stockid="TriangleOutL">
      <path
         transform="scale(0.8)"
         style="fill-rule:evenodd;stroke:#000000;stroke-width:1pt;stroke-opacity:1;fill:#000000;fill-opacity:1"
         d="M 5.77,0.0 L -2.88,5.0 L -2.88,-5.0 L 5.77,0.0 z "
         id="path4757" />
    </marker>
    <marker
       inkscape:stockid="Arrow1Lend"
       orient="auto"
       refY="0.0"
       refX="0.0"
       id="Arrow1Lend"
       style="overflow:visible;"
       inkscape:isstock="true">
      <path
         id="path4164"
         d="M 0.0,0.0 L 5.0,-5.0 L -12.5,0.0 L 5.0,5.0 L 0.0,0.0 z "
         style="fill-rule:evenodd;stroke:#000000;stroke-width:1pt;stroke-opacity:1;fill:#000000;fill-opacity:1"
         transform="scale(0.8) rotate(180) translate(12.5,0)" />
    </marker>
    <marker
       inkscape:stockid="Arrow2Lend"
       orient="auto"
       refY="0.0"
       refX="0.0"
       id="Arrow2Lend"
       style="overflow:visible;"
       inkscape:isstock="true">
      <path
         id="path4182"
         style="fill-rule:evenodd;stroke-width:0.625;stroke-linejoin:round;stroke:#000000;stroke-opacity:1;fill:#000000;fill-opacity:1"
         d="M 8.7185878,4.0337352 L -2.2072895,0.016013256 L 8.7185884,-4.0017078 C 6.9730900,-1.6296469 6.9831476,1.6157441 8.7185878,4.0337352 z "
         transform="scale(1.1) rotate(180) translate(1,0)" />
    </marker>
    <pattern
       y="0"
       x="0"
       height="6"
       width="6"
       patternUnits="userSpaceOnUse"
       id="EMFhbasepattern" />
  </defs>
  <sodipodi:namedview
     inkscape:window-height="838"
     inkscape:window-width="1440"
     inkscape:pageshadow="2"
     inkscape:pageopacity="0.0"
     borderopacity="1.0"
     bordercolor="#666666"
     pagecolor="#ffffff"
     id="base"
     showgrid="true"
     showguides="true"
     inkscape:guide-bbox="true"
     inkscape:zoom="0.5"
     inkscape:cx="357.82213"
     inkscape:cy="459.29481"
     inkscape:window-x="-8"
     inkscape:window-y="-8"
     inkscape:current-layer="svg4152"
     inkscape:window-maximized="1"
     objecttolerance="20">
    <sodipodi:guide
       orientation="horizontal"
       position="200"
       id="guide5596" />
    <inkscape:grid
       type="xygrid"
       id="grid3430"
       empspacing="50" />
    <sodipodi:guide
       position="550,1000"
       orientation="0,1"
       id="guide4169" />
  </sodipodi:namedview>
  <metadata
     id="metadata5594">
    <rdf:RDF>
      <cc:Work
         rdf:about="">
        <dc:format>image/svg+xml</dc:format>
        <dc:type
           rdf:resource="http://purl.org/dc/dcmitype/StillImage" />
        <dc:title></dc:title>
      </cc:Work>
    </rdf:RDF>
  </metadata>
  <path
     inkscape:connector-curvature="0"
     id="path3385"
     d="M 984.71233,452.91394 830.28061,808.32183 786.83864,789.94719 941.51079,434.29602 Z m -176.1526,346.33736 21.72088,9.31099 c -5.24976,11.93584 -19.33645,17.66674 -31.26567,12.41012 -11.93585,-5.00953 -17.42632,-19.09598 -12.1763,-31.02522 z m 7.40062,22.20203 L 456.01434,942.94282 441.21576,898.3118 801.15891,776.81571 Z m -367.34543,99.05388 7.39942,22.67606 c -12.41155,4.06098 -26.01709,-2.62488 -30.07475,-15.03503 -4.05766,-12.41675 2.86462,-25.78206 15.27617,-30.07689 z m -4.29597,23.3908 L 69.097715,879.93055 77.45186,833.14871 452.6726,897.35662 Z M 73.155377,856.53952 68.858919,879.93055 C 55.969772,877.77925 47.376854,865.61004 49.763651,852.47854 52.150677,839.59436 64.56246,830.99811 77.45186,833.14871 Z m -23.391726,3.58007 -31.029734,-214.10506 47.022068,-7.16085 30.791396,214.10578 z m -7.399416,-217.68513 -23.630318,3.58007 c -1.909892,-12.88892 7.16085,-25.06262 20.05002,-27.21061 13.127944,-1.90993 25.062615,6.92228 26.972048,20.04976 z m -23.39152,-4.7743 75.187387,-362.09255 46.306138,9.30885 -74.949052,362.09255 z M 117.31329,280.34118 94.160102,275.56761 c 2.625593,-12.88986 15.276168,-21.24353 27.926778,-18.61793 12.88914,2.62559 21.24352,15.03714 18.61793,27.92678 z M 98.217764,266.25852 240.47721,74.3512 278.42898,102.27798 136.40857,294.18528 Z M 259.57271,88.43411 240.47721,74.3512 c 7.87699,-10.50234 22.67559,-12.88914 33.17795,-5.25117 10.50257,7.87677 12.65058,22.67559 4.77382,33.17795 z m 4.77359,-23.39175 430.83928,85.68999 -9.78927,46.54468 -430.83645,-85.68996 z m 425.82311,109.08149 5.01617,-23.3915 c 12.65036,2.62557 20.9995,15.03712 18.37462,27.92675 -2.86533,12.88892 -15.27546,21.24353 -28.16389,18.61793 z m 16.71156,-16.94729 273.05564,269.48172 -33.65009,33.89388 -272.82465,-269.72005 z m 256.11048,286.42831 16.94516,-16.94659 c 9.31098,9.07052 9.31098,24.10744 0,33.65554 -9.30411,9.30885 -24.34598,9.54741 -33.65009,0.23903 z"
     style="fill:#000000;fill-opacity:1;fill-rule:nonzero;stroke:none" />
  <path
     inkscape:connector-curvature="0"
     id="path3387"
     d="m 282.24807,94.64 c -0.95376,-12.88937 -12.41204,-22.43702 -25.5395,-21.24352 -13.12819,1.19281 -22.6763,12.6506 -21.72111,25.77855 z m 0,0 22.198,265.18456 -47.26062,4.29691 -22.19799,-264.94644 z m -1.43184,267.3335 23.63007,-2.14894 c 0.95614,12.88961 -8.59293,24.58502 -21.72041,25.77853 -13.12818,1.1928 -24.58502,-8.35364 -25.5402,-21.48184 z m -9.07051,-21.72111 412.93466,-174.48292 17.89916,43.442 -412.93182,174.48217 z M 702.57977,209.21147 c 12.17632,-5.01287 17.907,-18.85695 12.89083,-31.02996 -4.77548,-11.93442 -18.61509,-17.66346 -30.79,-12.41204 z"
     style="fill:#000000;fill-opacity:1;fill-rule:nonzero;stroke:none" />
  <path
     inkscape:connector-curvature="0"
     id="path3389"
     d="m 55.253611,841.26406 c -8.592917,9.78525 -7.638189,24.82026 2.386797,33.41651 9.786442,8.35578 24.823819,7.16013 33.416506,-2.62488 z m 0,0 L 165.76743,713.08657 201.57095,743.8801 91.056914,872.05569 Z M 183.66918,728.60131 165.76743,713.08657 c 8.59291,-10.02499 23.63005,-11.21851 33.41649,-2.6256 9.78644,8.35438 10.97924,23.39367 2.38703,33.41913 z m 14.08268,-19.33384 260.41119,189.99955 -28.1658,38.18535 L 169.58605,747.694 Z m 232.24539,228.1849 c 10.50235,7.88173 25.30119,5.49045 33.17794,-5.24976 7.87701,-10.5 5.48975,-25.30118 -5.01214,-32.93559 z"
     style="fill:#000000;fill-opacity:1;fill-rule:nonzero;stroke:none" />
  <path
     inkscape:connector-curvature="0"
     id="path3391"
     d="m 160.27698,727.64684 c -3.34153,12.6532 4.29691,25.5376 16.94752,28.64339 12.41201,3.33961 25.53949,-4.2948 28.881,-16.94538 z m 0,0 98.34054,-373.55035 45.82855,11.6954 -98.34057,373.55296 z M 304.44607,365.79189 c 3.3415,-12.65058 -4.05767,-25.5395 -16.70825,-28.88126 -12.6506,-3.10319 -25.77878,4.53526 -29.1203,17.18586 z"
     style="fill:#000000;fill-opacity:1;fill-rule:nonzero;stroke:none" />
</svg>
