<?xml version="1.0" encoding="UTF-8" standalone="no"?>
<!-- Created with Inkscape (http://www.inkscape.org/) -->

<svg stroke="currentColor" fill="currentColor"
   xmlns:dc="http://purl.org/dc/elements/1.1/"
   xmlns:cc="http://creativecommons.org/ns#"
   xmlns:rdf="http://www.w3.org/1999/02/22-rdf-syntax-ns#"
   xmlns:svg="http://www.w3.org/2000/svg"
   xmlns="http://www.w3.org/2000/svg"
   xmlns:sodipodi="http://sodipodi.sourceforge.net/DTD/sodipodi-0.dtd"
   xmlns:inkscape="http://www.inkscape.org/namespaces/inkscape"
   width="1000"
   height="1000"
   id="svg4152"
   version="1.1"
   inkscape:version="0.91 r13725"
   viewBox="0 0 1000 1000"
   sodipodi:docname="isomerie.svg">
  <defs
     id="defs5498">
    <marker
       inkscape:isstock="true"
       style="overflow:visible"
       id="marker4233"
       refX="0.0"
       refY="0.0"
       orient="auto"
       inkscape:stockid="TriangleOutL">
      <path
         transform="scale(0.8)"
         style="fill-rule:evenodd;stroke-width:1pt;stroke-opacity:1;fill:#000000;fill-opacity:1"
         d="M 5.77,0.0 L -2.88,5.0 L -2.88,-5.0 L 5.77,0.0 z "
         id="path4235" />
    </marker>
    <marker
       inkscape:isstock="true"
       style="overflow:visible"
       id="marker4755"
       refX="0.0"
       refY="0.0"
       orient="auto"
       inkscape:stockid="TriangleOutL">
      <path
         transform="scale(0.8)"
         style="fill-rule:evenodd;stroke-width:1pt;stroke-opacity:1;fill:#000000;fill-opacity:1"
         d="M 5.77,0.0 L -2.88,5.0 L -2.88,-5.0 L 5.77,0.0 z "
         id="path4757" />
    </marker>
    <marker
       inkscape:stockid="Arrow1Lend"
       orient="auto"
       refY="0.0"
       refX="0.0"
       id="Arrow1Lend"
       style="overflow:visible;"
       inkscape:isstock="true">
      <path
         id="path4164"
         d="M 0.0,0.0 L 5.0,-5.0 L -12.5,0.0 L 5.0,5.0 L 0.0,0.0 z "
         style="fill-rule:evenodd;stroke-width:1pt;stroke-opacity:1;fill:#000000;fill-opacity:1"
         transform="scale(0.8) rotate(180) translate(12.5,0)" />
    </marker>
    <marker
       inkscape:stockid="Arrow2Lend"
       orient="auto"
       refY="0.0"
       refX="0.0"
       id="Arrow2Lend"
       style="overflow:visible;"
       inkscape:isstock="true">
      <path
         id="path4182"
         style="fill-rule:evenodd;stroke-width:0.625;stroke-linejoin:round;stroke-opacity:1;fill:#000000;fill-opacity:1"
         d="M 8.7185878,4.0337352 L -2.2072895,0.016013256 L 8.7185884,-4.0017078 C 6.9730900,-1.6296469 6.9831476,1.6157441 8.7185878,4.0337352 z "
         transform="scale(1.1) rotate(180) translate(1,0)" />
    </marker>
  </defs>
  <sodipodi:namedview
     inkscape:window-height="838"
     inkscape:window-width="1440"
     inkscape:pageshadow="2"
     inkscape:pageopacity="0.0"
     borderopacity="1.0"
     bordercolor="#666666"
     pagecolor="#ffffff"
     id="base"
     showgrid="true"
     showguides="true"
     inkscape:guide-bbox="true"
     inkscape:zoom="0.5"
     inkscape:cx="404.42014"
     inkscape:cy="459.29481"
     inkscape:window-x="-8"
     inkscape:window-y="-8"
     inkscape:current-layer="svg4152"
     inkscape:window-maximized="1"
     objecttolerance="20">
    <sodipodi:guide
       orientation="horizontal"
       position="200"
       id="guide5596" />
    <inkscape:grid
       type="xygrid"
       id="grid3430"
       empspacing="50" />
    <sodipodi:guide
       position="550,1000"
       orientation="0,1"
       id="guide4169" />
  </sodipodi:namedview>
  <metadata
     id="metadata5594">
    <rdf:RDF>
      <cc:Work
         rdf:about="">
        <dc:format>image/svg+xml</dc:format>
        <dc:type
           rdf:resource="http://purl.org/dc/dcmitype/StillImage" />
        <dc:title />
      </cc:Work>
    </rdf:RDF>
  </metadata>
  <g
     id="g19849"
     transform="matrix(3.3255622,0,0,3.3255622,162,62)">
    <path
       style="clip-rule:evenodd;fill:none;fill-rule:evenodd;stroke-width:11.55046463;stroke-linecap:round;stroke-linejoin:round;image-rendering:optimizeQuality;shape-rendering:geometricPrecision;text-rendering:geometricPrecision"
       inkscape:connector-curvature="0"
       id="path19188"
       d="m 49.626683,5.7752324 103.349507,0 c 12.96425,0 23.57008,10.6079626 23.57008,23.5700746 l 0,145.868983 c 0,12.96215 -10.60797,23.57008 -23.57008,23.57008 l -103.349507,0 c -12.962142,0 -23.570073,-10.60583 -23.570073,-23.57008 l 0,-145.868983 c 0,-12.964249 10.605824,-23.5700746 23.570073,-23.5700746 z"
       class="fil0 str0" />
    <path
       style="clip-rule:evenodd;fill:#000000;fill-rule:nonzero;image-rendering:optimizeQuality;shape-rendering:geometricPrecision;text-rendering:geometricPrecision"
       inkscape:connector-curvature="0"
       id="path19192"
       d="m 151.59129,33.469969 0.18639,0.0073 0.18356,0.02259 0.18105,0.03685 0.17824,0.05102 0.17504,0.06485 0.17186,0.07831 0.16795,0.09107 0.16441,0.103806 0.16051,0.116569 0.15589,0.127926 0.15165,0.139956 0.1467,0.150947 0.14173,0.161938 0.13678,0.172197 0.13147,0.182486 0.12579,0.192042 0.11977,0.201629 0.11373,0.210819 0.10735,0.219337 0.10099,0.227489 0.0939,0.235641 0.0872,0.24306 0.0801,0.250143 0.0723,0.257257 0.0649,0.263608 0.0571,0.269653 0.0485,0.275332 0.0404,0.280979 0.0319,0.285591 0.0229,0.290536 0.014,0.294811 0.005,0.298688 -0.005,0.298688 -0.014,0.29481 -0.0229,0.290537 -0.0319,0.28559 -0.0404,0.28098 -0.0485,0.275332 -0.0571,0.269652 -0.0649,0.263608 -0.0723,0.257257 -0.0801,0.250143 -0.0872,0.24306 -0.0939,0.235641 -0.10099,0.227489 -0.10735,0.219337 -0.11373,0.210819 -0.11977,0.201599 -0.12579,0.192042 -0.13147,0.182486 -0.13678,0.172197 -0.14173,0.161938 -0.1467,0.150947 -0.15165,0.139956 -0.15589,0.127926 -0.16051,0.116568 -0.16441,0.103807 -0.16795,0.09108 -0.17186,0.07831 -0.17504,0.06485 -0.17824,0.05102 -0.18105,0.03685 -0.18356,0.02259 -0.18639,0.0073 0,-11.609298 z m -100.58001,11.609299 0,-11.609299 100.58001,0 0,11.609299 -100.58001,0 z m 0,0 -0.186394,-0.0073 -0.183554,-0.02259 -0.181051,-0.03685 -0.178242,-0.05102 -0.175036,-0.06485 -0.171861,-0.07831 -0.167953,-0.09108 -0.164412,-0.103807 -0.160503,-0.116568 -0.155893,-0.127927 -0.151649,-0.139955 -0.146703,-0.150947 -0.141727,-0.161938 -0.13678,-0.172197 -0.131468,-0.182486 -0.125789,-0.192042 -0.119775,-0.201599 -0.113729,-0.210819 -0.107348,-0.219337 -0.100998,-0.227489 -0.09388,-0.235641 -0.08717,-0.24306 -0.08008,-0.250143 -0.0723,-0.257257 -0.06485,-0.263608 -0.05706,-0.269653 -0.04854,-0.275331 -0.04039,-0.28098 -0.03191,-0.28559 -0.0229,-0.290537 -0.01404,-0.29481 -0.0046,-0.298688 0.0046,-0.298689 0.01404,-0.29481 0.0229,-0.290536 0.03191,-0.285591 0.04039,-0.28098 0.04854,-0.275331 0.05706,-0.269653 0.06485,-0.263608 0.0723,-0.257257 0.08008,-0.250174 0.08717,-0.24306 0.09388,-0.23564 0.100998,-0.22749 0.107348,-0.219337 0.113729,-0.210819 0.119775,-0.201598 0.125789,-0.192042 0.131468,-0.182486 0.13678,-0.172197 0.141727,-0.161938 0.146703,-0.150947 0.151649,-0.139956 0.155893,-0.127926 0.160503,-0.116569 0.164412,-0.103806 0.167953,-0.09107 0.171861,-0.07831 0.175036,-0.06485 0.178242,-0.05102 0.181051,-0.03685 0.183554,-0.02259 0.186394,-0.0073 0,11.609299 z"
       class="fil1" />
    <path
       style="clip-rule:evenodd;fill:#000000;fill-rule:nonzero;image-rendering:optimizeQuality;shape-rendering:geometricPrecision;text-rendering:geometricPrecision"
       inkscape:connector-curvature="0"
       id="path19196"
       d="m 151.59129,59.720208 0.18639,0.0073 0.18356,0.02259 0.18105,0.03685 0.17824,0.05102 0.17504,0.06485 0.17186,0.07831 0.16795,0.09108 0.16441,0.103806 0.16051,0.116569 0.15589,0.127926 0.15165,0.139956 0.1467,0.150947 0.14173,0.161938 0.13678,0.172197 0.13147,0.182486 0.12579,0.192042 0.11977,0.201599 0.11373,0.210818 0.10735,0.219338 0.10099,0.227489 0.0939,0.235641 0.0872,0.24306 0.0801,0.250143 0.0723,0.257257 0.0649,0.263608 0.0571,0.269652 0.0485,0.275332 0.0404,0.28098 0.0319,0.28559 0.0229,0.290536 0.014,0.294811 0.005,0.298688 -0.005,0.298688 -0.014,0.294811 -0.0229,0.290567 -0.0319,0.28559 -0.0404,0.28098 -0.0485,0.275301 -0.0571,0.269653 -0.0649,0.263608 -0.0723,0.257257 -0.0801,0.250143 -0.0872,0.24306 -0.0939,0.235641 -0.10099,0.227489 -0.10735,0.219337 -0.11373,0.210819 -0.11977,0.201598 -0.12579,0.192043 -0.13147,0.182485 -0.13678,0.172197 -0.14173,0.161938 -0.1467,0.150947 -0.15165,0.139956 -0.15589,0.127926 -0.16051,0.116569 -0.16441,0.103807 -0.16795,0.09108 -0.17186,0.07831 -0.17504,0.06485 -0.17824,0.05102 -0.18105,0.03685 -0.18356,0.02259 -0.18639,0.0073 0,-11.609299 z m -100.58001,11.609298 0,-11.609298 100.58001,0 0,11.609298 -100.58001,0 z m 0,0 -0.186394,-0.0073 -0.183554,-0.02259 -0.181051,-0.03685 -0.178242,-0.05102 -0.175036,-0.06485 -0.171861,-0.07831 -0.167953,-0.09108 -0.164412,-0.103807 -0.160503,-0.116568 -0.155893,-0.127927 -0.151649,-0.139955 -0.146703,-0.150947 -0.141727,-0.161938 -0.13678,-0.172197 -0.131468,-0.182486 -0.125789,-0.192042 -0.119775,-0.201599 -0.113729,-0.210819 -0.107348,-0.219337 -0.100998,-0.227489 -0.09388,-0.235641 -0.08717,-0.24306 -0.08008,-0.250143 -0.0723,-0.257257 -0.06485,-0.263608 -0.05706,-0.269652 -0.04854,-0.275332 -0.04039,-0.28098 -0.03191,-0.28559 -0.0229,-0.290537 -0.01404,-0.29481 -0.0046,-0.298688 0.0046,-0.298688 0.01404,-0.294811 0.0229,-0.290567 0.03191,-0.28559 0.04039,-0.28098 0.04854,-0.275301 0.05706,-0.269653 0.06485,-0.263608 0.0723,-0.257257 0.08008,-0.250173 0.08717,-0.24306 0.09388,-0.235641 0.100998,-0.227489 0.107348,-0.219338 0.113729,-0.210819 0.119775,-0.201598 0.125789,-0.192042 0.131468,-0.182486 0.13678,-0.172197 0.141727,-0.161938 0.146703,-0.150947 0.151649,-0.139956 0.155893,-0.127926 0.160503,-0.116569 0.164412,-0.103806 0.167953,-0.09108 0.171861,-0.07831 0.175036,-0.06485 0.178242,-0.05102 0.181051,-0.03685 0.183554,-0.02259 0.186394,-0.0073 0,11.609299 z"
       class="fil1" />
    <path
       style="clip-rule:evenodd;fill:#000000;fill-rule:nonzero;image-rendering:optimizeQuality;shape-rendering:geometricPrecision;text-rendering:geometricPrecision"
       inkscape:connector-curvature="0"
       id="path19200"
       d="m 151.59129,85.970446 0.18639,0.0073 0.18356,0.02259 0.18105,0.03685 0.17824,0.05102 0.17504,0.06485 0.17186,0.07831 0.16795,0.09108 0.16441,0.103807 0.16051,0.116568 0.15589,0.127927 0.15165,0.139955 0.1467,0.150947 0.14173,0.161938 0.13678,0.172197 0.13147,0.182486 0.12579,0.192042 0.11977,0.201599 0.11373,0.210819 0.10735,0.219337 0.10099,0.227489 0.0939,0.235641 0.0872,0.24306 0.0801,0.250143 0.0723,0.257257 0.0649,0.263608 0.0571,0.269653 0.0485,0.275331 0.0404,0.28098 0.0319,0.28559 0.0229,0.290537 0.014,0.29481 0.005,0.298688 -0.005,0.298688 -0.014,0.294811 -0.0229,0.290567 -0.0319,0.28559 -0.0404,0.28098 -0.0485,0.275301 -0.0571,0.269653 -0.0649,0.263608 -0.0723,0.257257 -0.0801,0.250143 -0.0872,0.24306 -0.0939,0.235641 -0.10099,0.227489 -0.10735,0.219337 -0.11373,0.210819 -0.11977,0.201599 -0.12579,0.192042 -0.13147,0.182485 -0.13678,0.172197 -0.14173,0.161939 -0.1467,0.150946 -0.15165,0.139956 -0.15589,0.127926 -0.16051,0.116569 -0.16441,0.103807 -0.16795,0.09108 -0.17186,0.07831 -0.17504,0.06485 -0.17824,0.05102 -0.18105,0.03685 -0.18356,0.02259 -0.18639,0.0073 0,-11.609302 z m -100.58001,11.609299 0,-11.609299 100.58001,0 0,11.609299 -100.58001,0 z m 0,0 -0.186394,-0.0073 -0.183554,-0.02259 -0.181051,-0.03685 -0.178242,-0.05102 -0.175036,-0.06485 -0.171861,-0.07831 -0.167953,-0.09108 -0.164412,-0.103806 -0.160503,-0.116569 -0.155893,-0.127926 -0.151649,-0.139956 -0.146703,-0.150947 -0.141727,-0.161938 -0.13678,-0.172197 -0.131468,-0.182486 -0.125789,-0.192042 -0.119775,-0.201599 -0.113729,-0.210818 -0.107348,-0.219338 -0.100998,-0.227489 -0.09388,-0.235641 -0.08717,-0.24306 -0.08008,-0.250143 -0.0723,-0.257257 -0.06485,-0.263608 -0.05706,-0.269652 -0.04854,-0.275332 -0.04039,-0.28098 -0.03191,-0.28559 -0.0229,-0.290536 -0.01404,-0.294811 -0.0046,-0.298688 0.0046,-0.298688 0.01404,-0.294811 0.0229,-0.290567 0.03191,-0.28559 0.04039,-0.28098 0.04854,-0.275301 0.05706,-0.269653 0.06485,-0.263607 0.0723,-0.257258 0.08008,-0.250143 0.08717,-0.24306 0.09388,-0.235641 0.100998,-0.227489 0.107348,-0.219337 0.113729,-0.210819 0.119775,-0.201598 0.125789,-0.192043 0.131468,-0.182485 0.13678,-0.172197 0.141727,-0.161938 0.146703,-0.150947 0.151649,-0.139956 0.155893,-0.127926 0.160503,-0.116569 0.164412,-0.103807 0.167953,-0.09108 0.171861,-0.07831 0.175036,-0.06485 0.178242,-0.05102 0.181051,-0.03685 0.183554,-0.02259 0.186394,-0.0073 0,11.609302 z"
       class="fil1" />
    <rect
       class="fil2"
       transform="matrix(0.80589397,-0.59205988,0.59205756,0.80589568,0,0)"
       width="44.54916"
       height="90.16098"
       rx="6.7332716"
       ry="13.627156"
       id="rect19202"
       x="-55.055603"
       y="79.963768"
       style="clip-rule:evenodd;fill:#fefefe;fill-rule:evenodd;image-rendering:optimizeQuality;shape-rendering:geometricPrecision;text-rendering:geometricPrecision" />
    <line
       class="fil0 str0"
       x1="89.142792"
       y1="176.70685"
       x2="89.635872"
       y2="142.83354"
       id="line19208"
       style="clip-rule:evenodd;fill:none;fill-rule:evenodd;stroke-width:11.55046463;stroke-linecap:round;stroke-linejoin:round;image-rendering:optimizeQuality;shape-rendering:geometricPrecision;text-rendering:geometricPrecision" />
    <line
       class="fil0 str0"
       x1="56.671181"
       y1="167.05132"
       x2="89.143097"
       y2="176.70654"
       id="line19212"
       style="clip-rule:evenodd;fill:none;fill-rule:evenodd;stroke-width:11.55046463;stroke-linecap:round;stroke-linejoin:round;image-rendering:optimizeQuality;shape-rendering:geometricPrecision;text-rendering:geometricPrecision" />
    <path
       style="clip-rule:evenodd;fill:#000000;fill-rule:nonzero;image-rendering:optimizeQuality;shape-rendering:geometricPrecision;text-rendering:geometricPrecision"
       inkscape:connector-curvature="0"
       id="path19216"
       d="M 36.644452,79.408955 11.987981,97.523414 5.2060844,88.292385 29.862555,70.177925 l 3.55e-4,-3.54e-4 6.781529,9.231365 z m 11.016837,-6.542714 -9.308273,6.838593 0,0 -0.0418,-0.05422 -0.04216,-0.04855 -0.04394,-0.04641 -0.0457,-0.04323 -0.045,-0.03862 -0.04571,-0.03545 -0.05102,-0.03508 -0.05245,-0.03294 -0.05209,-0.02931 -0.056,-0.02809 -0.05599,-0.02442 -0.05526,-0.02137 -0.05917,-0.01924 -0.06448,-0.01801 -0.06094,-0.01374 -0.06024,-0.01069 -0.06131,-0.0079 -0.06341,-0.0049 -0.06131,-0.0025 -0.05599,0.0011 -0.06271,0.004 -0.05987,0.0064 -0.05102,0.0082 -0.0574,0.01252 -0.05456,0.01374 -0.05172,0.01679 -0.05102,0.01893 -0.04961,0.02137 -0.04818,0.02351 -0.04925,0.02717 -0.04925,0.03084 -0.05032,0.03508 -6.781193,-9.231731 0.537166,-0.37382 0.551691,-0.343346 0.565156,-0.313582 0.57685,-0.28275 0.586064,-0.251579 0.593151,-0.220039 0.600945,-0.189569 0.603779,-0.158397 0.606615,-0.127926 0.616535,-0.09886 0.610511,-0.06732 0.609094,-0.03862 0.615826,-0.0089 0.609803,0.02015 0.605552,0.04891 0.603425,0.07795 0.600237,0.10631 0.59315,0.13501 0.58252,0.161205 0.579332,0.190638 0.573309,0.219673 0.56126,0.246968 0.549213,0.273897 0.539645,0.302229 0.524409,0.329174 0.510237,0.356102 0.497835,0.385514 0.479409,0.411379 0.459567,0.436534 0.440079,0.461692 0.419882,0.488624 0.396141,0.511299 0,0 z m 35.810822,68.253729 -45.118912,-61.415014 9.308274,-6.838593 45.118911,61.415017 -9.308273,6.83859 z m 6.553339,10.94952 -6.781897,-9.23103 -3.54e-4,3.6e-4 0.04891,-0.0376 0.04287,-0.0372 0.0411,-0.0393 0.03755,-0.0393 0.03438,-0.0408 0.03401,-0.0436 0.03191,-0.0461 0.02931,-0.0464 0.02565,-0.0461 0.02565,-0.051 0.02412,-0.0553 0.02229,-0.0578 0.01832,-0.0563 0.01557,-0.0567 0.01404,-0.0627 0.01099,-0.0595 0.0079,-0.0624 0.0052,-0.0641 0.0018,-0.0599 -0.0011,-0.0641 -0.0037,-0.0624 -0.0067,-0.0609 -0.0098,-0.0609 -0.01191,-0.0581 -0.01526,-0.0574 -0.01893,-0.0599 -0.02076,-0.0567 -0.02381,-0.0556 -0.02595,-0.0531 -0.03084,-0.0549 -0.03508,-0.0567 -0.03899,-0.056 9.308274,-6.83859 0.36992,0.53149 0.339094,0.54425 0.310039,0.55878 0.280278,0.57189 0.249105,0.58004 0.217903,0.58748 0.187431,0.5928 0.157664,0.60095 0.12756,0.60519 0.09709,0.60733 0.06769,0.60945 0.03826,0.60944 0.0089,0.60768 -0.02015,0.61122 -0.04925,0.60413 -0.07724,0.60307 -0.106646,0.60095 -0.133941,0.59138 -0.163709,0.59031 -0.192042,0.58146 -0.218635,0.57082 -0.247335,0.56268 -0.275667,0.55418 -0.306141,0.54566 -0.332715,0.53044 -0.359293,0.51449 -0.38693,0.49996 -0.415629,0.48437 -0.442204,0.46594 -0.467007,0.44469 -0.494291,0.42484 -0.516614,0.4004 -3.55e-4,3.5e-4 z m -31.438428,8.88306 24.65647,-18.11409 6.781897,9.23103 -24.656471,18.11409 -6.781896,-9.23103 z m -11.016838,6.54308 9.308273,-6.83859 0,0 0.0418,0.0542 0.04216,0.0485 0.04393,0.0464 0.04571,0.0432 0.045,0.0386 0.0457,0.0354 0.05102,0.0351 0.05245,0.0329 0.05209,0.0293 0.05599,0.0281 0.05599,0.0244 0.05526,0.0214 0.05917,0.0192 0.06448,0.018 0.06094,0.0137 0.06024,0.0107 0.06131,0.008 0.06024,0.005 0.06164,0.002 0.06164,-0.001 0.05987,-0.004 0.0567,-0.006 0.0574,-0.009 0.05422,-0.0113 0.05456,-0.014 0.05172,-0.0162 0.04854,-0.018 0.05209,-0.0223 0.04818,-0.0235 0.04925,-0.0272 0.04925,-0.0308 0.04995,-0.0347 6.781896,9.23102 -0.537519,0.37418 -0.551693,0.34334 -0.565156,0.31359 -0.57685,0.28275 -0.583582,0.25051 -0.59563,0.22144 -0.600946,0.1892 -0.603778,0.15874 -0.609803,0.12826 -0.610156,0.0978 -0.613702,0.068 -0.61193,0.0383 -0.610157,0.009 -0.609448,-0.0198 -0.60874,-0.0489 -0.603425,-0.078 -0.600237,-0.10631 -0.59315,-0.13501 -0.58252,-0.1612 -0.579332,-0.19064 -0.573309,-0.21968 -0.56126,-0.24696 -0.549213,-0.2739 -0.539645,-0.30223 -0.524409,-0.32917 -0.510237,-0.35611 -0.497835,-0.38551 -0.479409,-0.41138 -0.459567,-0.43653 -0.440079,-0.46169 -0.419882,-0.48863 -0.396141,-0.5113 0,0 z M 11.759057,99.241901 56.878579,160.65692 47.570306,167.49551 2.4507835,106.08049 11.759057,99.241901 Z m -6.5530031,-10.949516 6.7818961,9.231029 -3.54e-4,3.54e-4 -0.04819,0.03685 -0.04429,0.03862 -0.04004,0.03792 -0.03685,0.03932 -0.03614,0.0418 -0.03295,0.04287 -0.03118,0.0443 -0.02833,0.0457 -0.02833,0.05032 -0.02586,0.05245 -0.02339,0.05245 -0.02125,0.05563 -0.01841,0.0567 -0.01594,0.05777 -0.01346,0.05954 -0.01133,0.06308 -0.0082,0.06164 -0.0049,0.06415 -0.0021,0.06308 0.0011,0.06131 0.0035,0.06234 0.0067,0.06061 0.0099,0.06094 0.01206,0.0588 0.01523,0.05703 0.01878,0.05987 0.02091,0.0567 0.02375,0.05563 0.02586,0.05315 0.03083,0.05493 0.03508,0.0567 0.03898,0.05599 -9.3082734,6.838592 -0.3699208,-0.53149 -0.3390933,-0.54425 -0.3100397,-0.55878 -0.2802755,-0.57189 -0.24909457,-0.58004 -0.21791348,-0.58748 -0.18744107,-0.5928 -0.15767728,-0.6013 -0.12755904,-0.6052 L 0.11480325,100.3007 0.04712595,99.690895 0.00885827,99.081447 0,98.470936 0.0205512,97.862904 0.06944897,97.258063 0.14704743,96.654993 0.25263794,96.057592 0.3872836,95.463025 0.55062994,94.873773 0.74267728,94.291962 0.96236249,93.719007 1.2103939,93.154205 1.4864177,92.60145 1.7897249,92.060032 2.1227944,91.52889 l 0.3607095,-0.516969 0.3879923,-0.500668 0.4138584,-0.4826 0.4422038,-0.465945 0.4687782,-0.446102 0.4928736,-0.423424 0.517323,-0.401103 -3.544e-4,3.55e-4 z"
       class="fil1" />
  </g>
</svg>
