<svg stroke="currentColor" fill="currentColor"
   xmlns="http://www.w3.org/2000/svg"
   width="1000"
   height="1000"
   viewBox="0 0 1000 1000">
  <path
     d="m 122.51033,335.9603 c 42.68311,0 77.3291,-34.82495 77.3291,-77.329 0,-42.50458 -34.64599,-77.1511 -77.3291,-77.1511 -42.50445,0 -77.150618,34.64652 -77.150618,77.1511 0,42.50405 34.646168,77.329 77.150618,77.329 z"
     style="fill:none;stroke-width:50.71941757px;stroke-linecap:round;stroke-linejoin:round;stroke-miterlimit:4;stroke-dasharray:none;stroke-opacity:1" />
  <path
     d="M 500.40583,757.4312 331.28156,685.99724"
     style="fill:none;stroke-width:50.71941757px;stroke-linecap:round;stroke-linejoin:round;stroke-miterlimit:4;stroke-dasharray:none;stroke-opacity:1" />
  <path
     d="m 411.46815,201.83943 c 42.50462,0 77.15061,-34.82492 77.15061,-77.32898 0,-42.50457 -34.64599,-77.150741 -77.15061,-77.150741 -42.5041,0 -77.15062,34.646171 -77.15062,77.150741 0,42.50406 34.64652,77.32898 77.15062,77.32898 z"
     style="fill:none;stroke-width:50.71941757px;stroke-linecap:round;stroke-linejoin:round;stroke-miterlimit:4;stroke-dasharray:none;stroke-opacity:1" />
  <path
     d="m 524.51757,492.22597 c 42.50356,0 77.14618,-34.64602 77.14618,-77.15058 0,-42.50407 -34.64262,-77.329 -77.14618,-77.329 -42.50658,0 -77.33141,34.82493 -77.33141,77.329 0,42.50456 34.82483,77.15058 77.33141,77.15058 z"
     style="fill:none;stroke-width:50.71941757px;stroke-linecap:round;stroke-linejoin:round;stroke-miterlimit:4;stroke-dasharray:none;stroke-opacity:1" />
  <path
     d="m 267.168,705.64234 c 42.50391,0 77.32893,-34.82744 77.32893,-77.331 0,-42.50356 -34.82502,-77.1511 -77.32893,-77.1511 -42.50463,0 -77.15062,34.64754 -77.15062,77.1511 0,42.50356 34.64599,77.331 77.15062,77.331 z"
     style="fill:none;stroke-width:50.71941757px;stroke-linecap:round;stroke-linejoin:round;stroke-miterlimit:4;stroke-dasharray:none;stroke-opacity:1" />
  <path
     d="m 580.23454,849.04999 c 42.50357,0 77.33106,-34.64751 77.33106,-77.15107 0,-42.50356 -34.82749,-77.1511 -77.33106,-77.1511 -42.50356,0 -77.15008,34.64754 -77.15008,77.1511 0,42.50356 34.64652,77.15107 77.15008,77.15107 z"
     style="fill:none;stroke-width:50.71941757px;stroke-linecap:round;stroke-linejoin:round;stroke-miterlimit:4;stroke-dasharray:none;stroke-opacity:1" />
  <path
     d="M 507.37076,337.74639 446.47148,192.73153"
     style="fill:none;stroke-width:50.71941757px;stroke-linecap:round;stroke-linejoin:round;stroke-miterlimit:4;stroke-dasharray:none;stroke-opacity:1" />
  <path
     d="M 464.86614,469.54542 341.28247,580.80529"
     style="fill:none;stroke-width:50.71941757px;stroke-linecap:round;stroke-linejoin:round;stroke-miterlimit:4;stroke-dasharray:none;stroke-opacity:1" />
  <path
     d="M 341.6398,157.72818 197.51797,222.19866"
     style="fill:none;stroke-width:50.71941757px;stroke-linecap:round;stroke-linejoin:round;stroke-miterlimit:4;stroke-dasharray:none;stroke-opacity:1" />
  <path
     d="m 873.30177,685.63742 c 42.68347,0 77.32592,-34.64753 77.32592,-77.15109 0,-42.50356 -34.64245,-77.32599 -77.32592,-77.32599 -42.50357,0 -77.15115,34.82243 -77.15115,77.32599 0,42.50356 34.64758,77.15109 77.15115,77.15109 z"
     style="fill:none;stroke-width:50.71941757px;stroke-linecap:round;stroke-linejoin:round;stroke-miterlimit:4;stroke-dasharray:none;stroke-opacity:1" />
  <path
     d="m 789.71887,368.6423 c 42.50852,0 77.15114,-34.64652 77.15114,-77.15058 0,-42.68297 -34.64262,-77.3295 -77.15114,-77.3295 -42.68348,0 -77.32593,34.64653 -77.32593,77.3295 0,42.50406 34.64245,77.15058 77.32593,77.15058 z"
     style="fill:none;stroke-width:50.71941757px;stroke-linecap:round;stroke-linejoin:round;stroke-miterlimit:4;stroke-dasharray:none;stroke-opacity:1" />
  <path
     d="M 799.18411,649.74053 658.2801,727.42634"
     style="fill:none;stroke-width:50.71941757px;stroke-linecap:round;stroke-linejoin:round;stroke-miterlimit:4;stroke-dasharray:none;stroke-opacity:1" />
  <path
     d="M 853.6566,530.80052 809.72385,365.78475"
     style="fill:none;stroke-width:50.71941757px;stroke-linecap:round;stroke-linejoin:round;stroke-miterlimit:4;stroke-dasharray:none;stroke-opacity:1" />
</svg>
