<svg stroke="currentColor" fill="currentColor"
   xmlns="http://www.w3.org/2000/svg"
   viewBox="0 0 1000 1000"
   height="1000"
   width="1000">
  <path
     d="M 100,200 C 250,150 400,100 521.42857,131.42857 704.94457,178.92683 894.76884,164.70821 950,150"
     style="fill:none;stroke-width:50;stroke-linecap:round;stroke-linejoin:round;stroke-miterlimit:4;stroke-dasharray:none;stroke-opacity:1" />
  <path
     d="M 50,450 C 232.69632,307.88486 400,361.59935 500,411.59935 589.44272,456.32071 850,450 950,550"
     style="fill:none;stroke-width:50;stroke-linecap:round;stroke-linejoin:round;stroke-miterlimit:4;stroke-dasharray:none;stroke-opacity:1" />
  <path
     d="M 50,800 C 200,900 300,900 400,850 500,800 550,800 627.14286,757.14286 724.87661,702.84633 900,750 950,700"
     style="fill:none;stroke-width:50;stroke-linecap:round;stroke-linejoin:round;stroke-miterlimit:4;stroke-dasharray:none;stroke-opacity:1" />
  <path
     style="fill:none;stroke-width:50;stroke-linecap:round;stroke-linejoin:round;stroke-miterlimit:4;stroke-dasharray:none;stroke-opacity:1"
     d="m 344.28571,138.57143 c 150,50 55.32662,255.41233 144.28572,267.14286" />
  <path
     d="M 255.71429,372.85714 C 300,450 340.79665,708.98701 150,850"
     style="fill:none;stroke-width:50;stroke-linecap:round;stroke-linejoin:round;stroke-miterlimit:4;stroke-dasharray:none;stroke-opacity:1" />
  <path
     d="M 817.14286,172.85714 C 750,250 650,400 700,450"
     style="fill:none;stroke-width:50;stroke-linecap:round;stroke-linejoin:round;stroke-miterlimit:4;stroke-dasharray:none;stroke-opacity:1" />
  <path
     d="M 546.42857,430.71429 C 600,500 550,700 567.85714,772.14286"
     style="fill:none;stroke-width:50;stroke-linecap:round;stroke-linejoin:round;stroke-miterlimit:4;stroke-dasharray:none;stroke-opacity:1" />
</svg>
