<svg
   xmlns="http://www.w3.org/2000/svg"
   stroke="currentColor"
   fill="currentColor"
   width="1000"
   height="1000"
   viewBox="0 0 1000 1000">
  <path
     d="m 510.48242,36.392578 a 27.526903,27.526903 0 0 0 -13.18164,3.439453 l -372.125,205.880859 a 27.526903,27.526903 0 0 0 -14.19922,24.01367 L 109.875,706.25977 a 27.526903,27.526903 0 0 0 13.00195,23.45117 L 493.35156,959.8125 A 27.526903,27.526903 0 0 0 521.22461,960.5 L 893.35156,754.06836 a 27.526903,27.526903 0 0 0 14.17188,-23.99805 L 908.625,294.08789 A 27.526903,27.526903 0 0 0 895.62305,270.63672 L 525.14844,40.535156 a 27.526903,27.526903 0 0 0 -14.66602,-4.142578 z m -0.66015,59.423828 343.71679,213.482424 -1.02148,404.4707 -343.85742,190.75 -343.69922,-213.47265 1.02148,-405 z" />
  <g
     style="opacity:1"
     transform="translate(-20)">
    <path
       d="m 652.28285,416.22495 h 106.79361 c -3.30289,-29.72606 -11.00965,-56.14922 -23.67075,-79.26949 -12.6611,-23.12027 -28.62509,-42.38716 -48.44246,-58.35115 -19.26689,-15.41351 -41.28619,-27.52413 -66.05791,-35.23088 -24.77171,-8.25724 -50.64439,-12.6611 -78.719,-12.6611 -38.53378,0 -73.21418,7.15627 -104.04121,20.91833 -30.27654,14.31255 -56.6997,33.02896 -77.61804,57.80067 -20.91833,24.22123 -37.43281,53.39681 -48.44246,85.87528 -11.56013,33.02895 -17.06496,68.81032 -17.06496,107.3441 0,37.43281 5.50483,72.11321 17.06496,104.59168 11.00965,32.47847 27.52413,61.10356 48.44246,84.77431 20.91834,24.22124 47.3415,42.93764 77.61804,56.69971 30.82703,13.76206 65.50743,20.36785 104.04121,20.36785 31.3775,0 59.45211,-4.40386 85.32479,-14.31255 25.87268,-9.3582 48.44247,-23.67075 67.70935,-41.83667 19.26689,-18.16592 34.68041,-40.18523 46.24054,-66.05791 12.11061,-25.87268 19.26689,-55.04825 22.0193,-87.52672 H 656.68671 c -4.40386,34.6804 -15.964,62.75501 -35.23089,83.67335 -18.7164,21.46882 -45.13957,31.92798 -79.26948,31.92798 -24.77172,0 -45.69006,-4.95434 -63.3055,-14.86302 -17.61544,-9.90869 -31.3775,-23.12027 -42.38715,-39.08427 -10.45917,-16.51447 -18.71641,-35.23088 -23.67075,-55.59873 -4.95435,-20.36786 -7.15628,-41.28619 -7.15628,-62.75501 0,-22.56979 2.20193,-44.58909 7.15628,-65.50743 4.95434,-21.46882 13.21158,-40.18522 23.67075,-56.6997 11.00965,-16.51448 24.77171,-29.72606 42.38715,-39.63474 17.61544,-9.90869 38.53378,-14.86303 63.3055,-14.86303 13.76206,0 26.97364,2.20193 39.08426,7.15627 12.6611,4.40386 23.67075,10.45917 33.57943,18.71641 9.90869,8.25724 18.16593,17.61544 24.77172,28.62509 6.60579,11.00965 10.45917,22.56979 12.6611,35.78137 z" />
  </g>
</svg>
