<?xml version="1.0" encoding="UTF-8" standalone="no"?>
<svg
   xmlns:dc="http://purl.org/dc/elements/1.1/"
   xmlns:cc="http://creativecommons.org/ns#"
   xmlns:rdf="http://www.w3.org/1999/02/22-rdf-syntax-ns#"
   xmlns:svg="http://www.w3.org/2000/svg"
   xmlns="http://www.w3.org/2000/svg"
   xmlns:sodipodi="http://sodipodi.sourceforge.net/DTD/sodipodi-0.dtd"
   xmlns:inkscape="http://www.inkscape.org/namespaces/inkscape"
   stroke="currentColor"
   fill="currentColor"
   width="1000"
   height="1000"
   id="svg4152"
   version="1.1"
   inkscape:version="1.0.1 (c497b03c, 2020-09-10)"
   viewBox="0 0 1000 1000"
   sodipodi:docname="pubchem.svg">
  <metadata
     id="metadata852">
    <rdf:RDF>
      <cc:Work
         rdf:about="">
        <dc:format>image/svg+xml</dc:format>
        <dc:type
           rdf:resource="http://purl.org/dc/dcmitype/StillImage" />
      </cc:Work>
    </rdf:RDF>
  </metadata>
  <defs
     id="defs5498">
    <marker
       inkscape:isstock="true"
       style="overflow:visible"
       id="marker4233"
       refX="0.0"
       refY="0.0"
       orient="auto"
       inkscape:stockid="TriangleOutL">
      <path
         transform="scale(0.8)"
         style="fill-rule:evenodd;stroke-width:1pt;stroke-opacity:1;fill-opacity:1"
         d="M 5.77,0.0 L -2.88,5.0 L -2.88,-5.0 L 5.77,0.0 z "
         id="path4235" />
    </marker>
    <marker
       inkscape:isstock="true"
       style="overflow:visible"
       id="marker4755"
       refX="0.0"
       refY="0.0"
       orient="auto"
       inkscape:stockid="TriangleOutL">
      <path
         transform="scale(0.8)"
         style="fill-rule:evenodd;stroke-width:1pt;stroke-opacity:1;fill-opacity:1"
         d="M 5.77,0.0 L -2.88,5.0 L -2.88,-5.0 L 5.77,0.0 z "
         id="path4757" />
    </marker>
    <marker
       inkscape:stockid="Arrow1Lend"
       orient="auto"
       refY="0.0"
       refX="0.0"
       id="Arrow1Lend"
       style="overflow:visible;"
       inkscape:isstock="true">
      <path
         id="path4164"
         d="M 0.0,0.0 L 5.0,-5.0 L -12.5,0.0 L 5.0,5.0 L 0.0,0.0 z "
         style="fill-rule:evenodd;stroke-width:1pt;stroke-opacity:1;fill-opacity:1"
         transform="scale(0.8) rotate(180) translate(12.5,0)" />
    </marker>
    <marker
       inkscape:stockid="Arrow2Lend"
       orient="auto"
       refY="0.0"
       refX="0.0"
       id="Arrow2Lend"
       style="overflow:visible;"
       inkscape:isstock="true">
      <path
         id="path4182"
         style="fill-rule:evenodd;stroke-width:0.625;stroke-linejoin:round;stroke-opacity:1;fill-opacity:1"
         d="M 8.7185878,4.0337352 L -2.2072895,0.016013256 L 8.7185884,-4.0017078 C 6.9730900,-1.6296469 6.9831476,1.6157441 8.7185878,4.0337352 z "
         transform="scale(1.1) rotate(180) translate(1,0)" />
    </marker>
    <pattern
       y="0"
       x="0"
       height="6"
       width="6"
       patternUnits="userSpaceOnUse"
       id="EMFhbasepattern" />
  </defs>
  <sodipodi:namedview
     inkscape:window-height="1035"
     inkscape:window-width="1920"
     inkscape:pageshadow="2"
     inkscape:pageopacity="0.0"
     borderopacity="1.0"
     bordercolor="#666666"
     pagecolor="#ffffff"
     id="base"
     showgrid="true"
     showguides="true"
     inkscape:guide-bbox="true"
     inkscape:zoom="0.5"
     inkscape:cx="124.82213"
     inkscape:cy="459.29481"
     inkscape:window-x="654"
     inkscape:window-y="23"
     inkscape:current-layer="svg4152"
     inkscape:window-maximized="0"
     objecttolerance="20"
     inkscape:document-rotation="0">
    <sodipodi:guide
       orientation="horizontal"
       position="200"
       id="guide5596" />
    <inkscape:grid
       type="xygrid"
       id="grid3430"
       empspacing="50" />
    <sodipodi:guide
       position="550,1000"
       orientation="0,1"
       id="guide4169" />
  </sodipodi:namedview>
  <path
     d="M 530.48242 36.392578 A 27.526903 27.526903 0 0 0 517.30078 39.832031 L 145.17578 245.71289 A 27.526903 27.526903 0 0 0 130.97656 269.72656 L 129.875 706.25977 A 27.526903 27.526903 0 0 0 142.87695 729.71094 L 513.35156 959.8125 A 27.526903 27.526903 0 0 0 541.22461 960.5 L 913.35156 754.06836 A 27.526903 27.526903 0 0 0 927.52344 730.07031 L 928.625 294.08789 A 27.526903 27.526903 0 0 0 915.62305 270.63672 L 545.14844 40.535156 A 27.526903 27.526903 0 0 0 530.48242 36.392578 z M 529.82227 95.816406 L 873.53906 309.29883 L 872.51758 713.76953 L 528.66016 904.51953 L 184.96094 691.04688 L 185.98242 286.04688 L 529.82227 95.816406 z "
     id="path1495" />
  <g
     id="g1497"
     style="opacity:1">
    <path
       d="m 652.28285,416.22495 h 106.79361 c -3.30289,-29.72606 -11.00965,-56.14922 -23.67075,-79.26949 -12.6611,-23.12027 -28.62509,-42.38716 -48.44246,-58.35115 -19.26689,-15.41351 -41.28619,-27.52413 -66.05791,-35.23088 -24.77171,-8.25724 -50.64439,-12.6611 -78.719,-12.6611 -38.53378,0 -73.21418,7.15627 -104.04121,20.91833 -30.27654,14.31255 -56.6997,33.02896 -77.61804,57.80067 -20.91833,24.22123 -37.43281,53.39681 -48.44246,85.87528 -11.56013,33.02895 -17.06496,68.81032 -17.06496,107.3441 0,37.43281 5.50483,72.11321 17.06496,104.59168 11.00965,32.47847 27.52413,61.10356 48.44246,84.77431 20.91834,24.22124 47.3415,42.93764 77.61804,56.69971 30.82703,13.76206 65.50743,20.36785 104.04121,20.36785 31.3775,0 59.45211,-4.40386 85.32479,-14.31255 25.87268,-9.3582 48.44247,-23.67075 67.70935,-41.83667 19.26689,-18.16592 34.68041,-40.18523 46.24054,-66.05791 12.11061,-25.87268 19.26689,-55.04825 22.0193,-87.52672 H 656.68671 c -4.40386,34.6804 -15.964,62.75501 -35.23089,83.67335 -18.7164,21.46882 -45.13957,31.92798 -79.26948,31.92798 -24.77172,0 -45.69006,-4.95434 -63.3055,-14.86302 -17.61544,-9.90869 -31.3775,-23.12027 -42.38715,-39.08427 -10.45917,-16.51447 -18.71641,-35.23088 -23.67075,-55.59873 -4.95435,-20.36786 -7.15628,-41.28619 -7.15628,-62.75501 0,-22.56979 2.20193,-44.58909 7.15628,-65.50743 4.95434,-21.46882 13.21158,-40.18522 23.67075,-56.6997 11.00965,-16.51448 24.77171,-29.72606 42.38715,-39.63474 17.61544,-9.90869 38.53378,-14.86303 63.3055,-14.86303 13.76206,0 26.97364,2.20193 39.08426,7.15627 12.6611,4.40386 23.67075,10.45917 33.57943,18.71641 9.90869,8.25724 18.16593,17.61544 24.77172,28.62509 6.60579,11.00965 10.45917,22.56979 12.6611,35.78137 z"
       id="path1499" />
  </g>
</svg>
