<?xml version="1.0" encoding="utf-8"?>
<!-- Generator: Adobe Illustrator 24.1.0, SVG Export Plug-In . SVG Version: 6.00 Build 0)  -->
<svg version="1.1"
	 id="svg4152" inkscape:version="0.92.2 5c3e80d, 2017-08-06" sodipodi:docname="assignment.svg" xmlns:cc="http://creativecommons.org/ns#" xmlns:dc="http://purl.org/dc/elements/1.1/" xmlns:inkscape="http://www.inkscape.org/namespaces/inkscape" xmlns:rdf="http://www.w3.org/1999/02/22-rdf-syntax-ns#" xmlns:sodipodi="http://sodipodi.sourceforge.net/DTD/sodipodi-0.dtd" xmlns:svg="http://www.w3.org/2000/svg"
	 xmlns="http://www.w3.org/2000/svg" xmlns:xlink="http://www.w3.org/1999/xlink" x="0px" y="0px" viewBox="0 0 1000 1000"
	 style="enable-background:new 0 0 1000 1000;" xml:space="preserve">
<style type="text/css">
	.st0{fill:none;stroke:#000000;stroke-width:38.8466;stroke-linecap:round;stroke-linejoin:round;stroke-miterlimit:9.4994;}
	.st1{fill:none;stroke:#000000;stroke-width:30;stroke-miterlimit:9.4994;}
	.st2{filter:url(#filter907);}
</style>
<filter  height="1.2475594" id="filter907" inkscape:collect="always" style="color-interpolation-filters:sRGB" width="1.0791939" x="-0.039596961" y="-0.12377968">
	<feGaussianBlur  id="feGaussianBlur909" inkscape:collect="always" stdDeviation="1.5270996"></feGaussianBlur>
</filter>
<sodipodi:namedview  bordercolor="#666666" borderopacity="1.0" id="base" inkscape:current-layer="g6050" inkscape:cx="-270.01591" inkscape:cy="632.46663" inkscape:guide-bbox="true" inkscape:pageopacity="0.0" inkscape:pageshadow="2" inkscape:window-height="1035" inkscape:window-maximized="1" inkscape:window-width="3840" inkscape:window-x="0" inkscape:window-y="1" inkscape:zoom="1.2183223" objecttolerance="20" pagecolor="#ffffff" showgrid="false" showguides="false">
	<sodipodi:guide  id="guide5596" inkscape:locked="false" orientation="horizontal" position="200"></sodipodi:guide>
	<inkscape:grid  empspacing="50" id="grid3430" type="xygrid"></inkscape:grid>
	<sodipodi:guide  id="guide4169" inkscape:locked="false" orientation="0,1" position="550,1000"></sodipodi:guide>
</sodipodi:namedview>
<g id="g6050" transform="matrix(2.3748502,0,0,2.3748502,1485.6411,-1771.974)">
	<path id="path5963" inkscape:connector-curvature="0" d="M-578.8,1087.7c0,5.5,3.7,9.9,8.2,9.9c4.5,0,8.2-4.4,8.2-9.9H-578.8z
		 M-578.8,1087.7V814.4h16.4v273.3H-578.8z M-562.4,814.4c0-5.4-3.7-9.8-8.2-9.8c-4.6,0-8.2,4.4-8.2,9.8H-562.4z"/>
	<path id="path5965" inkscape:connector-curvature="0" class="st0" d="M-570.6,801.5l21,27.7"/>
	<path id="path5967" inkscape:connector-curvature="0" class="st0" d="M-591.6,829.2l21-27.7"/>
	<path id="path5969" inkscape:connector-curvature="0" d="M-562.4,1087.7c-6.2,0-11.2,3.7-11.2,8.2c0,4.6,5,8.2,11.2,8.2V1087.7z
		 M-562.4,1087.7H-253v16.4h-309.5V1087.7z M-253,1104.1c6.1,0,11.1-3.7,11.1-8.2c0-4.5-5-8.2-11.1-8.2V1104.1z"/>
	<path id="path5971" inkscape:connector-curvature="0" class="st0" d="M-238.8,1095.8l-27.7,21.1"/>
	<path id="path5973" inkscape:connector-curvature="0" class="st0" d="M-266.5,1074.8l27.7,21"/>
	<path id="path857" inkscape:connector-curvature="0" sodipodi:nodetypes="csscsc" class="st1" d="M-551.6,1040
		c7.1,1.1,22,2.3,38.5-4.5c3.1-1.3,12.3-5.2,20-12.6c17-16.4,12-36.4,19.6-65.6c6.1-23.4,22.5-61,39.5-61
		c21.7,0,39.9,61.1,41.8,67.6c11.2,37.6,5.1,55.6,21,67.1c8.7,6.3,21.6,6.6,47.5,7.2c18.6,0.5,33.9-0.8,44.2-1.9"/>
	<g id="flowRoot859" transform="matrix(0.42107919,0,0,0.42107919,-534.65881,975.86965)" class="st2">
	</g>
</g>
</svg>
