<?xml version="1.0" encoding="UTF-8" standalone="no"?>
<!-- Created with Inkscape (http://www.inkscape.org/) -->

<svg
   xmlns:dc="http://purl.org/dc/elements/1.1/"
   xmlns:cc="http://creativecommons.org/ns#"
   xmlns:rdf="http://www.w3.org/1999/02/22-rdf-syntax-ns#"
   xmlns:svg="http://www.w3.org/2000/svg"
   xmlns="http://www.w3.org/2000/svg"
   xmlns:sodipodi="http://sodipodi.sourceforge.net/DTD/sodipodi-0.dtd"
   xmlns:inkscape="http://www.inkscape.org/namespaces/inkscape"
   width="1000"
   height="1000"
   id="svg4152"
   version="1.1"
   inkscape:version="0.91 r13725"
   viewBox="0 0 1000 1000"
   sodipodi:docname="up-arrow-1.svg">
  <defs
     id="defs5498">
    <marker
       inkscape:isstock="true"
       style="overflow:visible"
       id="marker4233"
       refX="0.0"
       refY="0.0"
       orient="auto"
       inkscape:stockid="TriangleOutL">
      <path
         transform="scale(0.8)"
         style="fill-rule:evenodd;stroke:#000000;stroke-width:1pt;stroke-opacity:1;fill:#000000;fill-opacity:1"
         d="M 5.77,0.0 L -2.88,5.0 L -2.88,-5.0 L 5.77,0.0 z "
         id="path4235" />
    </marker>
    <marker
       inkscape:isstock="true"
       style="overflow:visible"
       id="marker4755"
       refX="0.0"
       refY="0.0"
       orient="auto"
       inkscape:stockid="TriangleOutL">
      <path
         transform="scale(0.8)"
         style="fill-rule:evenodd;stroke:#000000;stroke-width:1pt;stroke-opacity:1;fill:#000000;fill-opacity:1"
         d="M 5.77,0.0 L -2.88,5.0 L -2.88,-5.0 L 5.77,0.0 z "
         id="path4757" />
    </marker>
    <marker
       inkscape:stockid="Arrow1Lend"
       orient="auto"
       refY="0.0"
       refX="0.0"
       id="Arrow1Lend"
       style="overflow:visible;"
       inkscape:isstock="true">
      <path
         id="path4164"
         d="M 0.0,0.0 L 5.0,-5.0 L -12.5,0.0 L 5.0,5.0 L 0.0,0.0 z "
         style="fill-rule:evenodd;stroke:#000000;stroke-width:1pt;stroke-opacity:1;fill:#000000;fill-opacity:1"
         transform="scale(0.8) rotate(180) translate(12.5,0)" />
    </marker>
    <marker
       inkscape:stockid="Arrow2Lend"
       orient="auto"
       refY="0.0"
       refX="0.0"
       id="Arrow2Lend"
       style="overflow:visible;"
       inkscape:isstock="true">
      <path
         id="path4182"
         style="fill-rule:evenodd;stroke-width:0.625;stroke-linejoin:round;stroke:#000000;stroke-opacity:1;fill:#000000;fill-opacity:1"
         d="M 8.7185878,4.0337352 L -2.2072895,0.016013256 L 8.7185884,-4.0017078 C 6.9730900,-1.6296469 6.9831476,1.6157441 8.7185878,4.0337352 z "
         transform="scale(1.1) rotate(180) translate(1,0)" />
    </marker>
    <pattern
       y="0"
       x="0"
       height="6"
       width="6"
       patternUnits="userSpaceOnUse"
       id="EMFhbasepattern" />
  </defs>
  <sodipodi:namedview
     inkscape:window-height="838"
     inkscape:window-width="1440"
     inkscape:pageshadow="2"
     inkscape:pageopacity="0.0"
     borderopacity="1.0"
     bordercolor="#666666"
     pagecolor="#ffffff"
     id="base"
     showgrid="true"
     showguides="true"
     inkscape:guide-bbox="true"
     inkscape:zoom="0.44262934"
     inkscape:cx="202.81547"
     inkscape:cy="774.2454"
     inkscape:window-x="-8"
     inkscape:window-y="-8"
     inkscape:current-layer="svg4152"
     inkscape:window-maximized="1"
     objecttolerance="20">
    <sodipodi:guide
       orientation="horizontal"
       position="200"
       id="guide5596" />
    <inkscape:grid
       type="xygrid"
       id="grid3430"
       empspacing="50" />
    <sodipodi:guide
       position="550,1000"
       orientation="0,1"
       id="guide4169" />
  </sodipodi:namedview>
  <metadata
     id="metadata5594">
    <rdf:RDF>
      <cc:Work
         rdf:about="">
        <dc:format>image/svg+xml</dc:format>
        <dc:type
           rdf:resource="http://purl.org/dc/dcmitype/StillImage" />
        <dc:title></dc:title>
      </cc:Work>
    </rdf:RDF>
  </metadata>
  <g
     id="g6040"
     transform="matrix(2.3748502,0,0,2.3748502,1524.0116,-1025.3092)">
    <path
       style="fill:#000000;fill-opacity:1;fill-rule:nonzero;stroke:none"
       d="m -548.9054,712.1385 c 0,4.51695 3.66283,8.17884 8.22894,8.17884 4.51581,0 8.17879,-3.66189 8.17879,-8.17884 z m 0,0 0,-228.15167 16.40773,0 0,228.15167 z m 16.40773,-228.15167 c 0,-4.56612 -3.66298,-8.22939 -8.17879,-8.22939 -4.56611,0 -8.22894,3.66327 -8.22894,8.22939 z"
       id="path5937"
       inkscape:connector-curvature="0" />
    <path
       style="fill:none;stroke:#000000;stroke-width:16.35749817px;stroke-linecap:round;stroke-linejoin:round;stroke-miterlimit:4;stroke-dasharray:none;stroke-opacity:1"
       d="m -540.67646,472.64739 21.02394,27.79677"
       id="path5939"
       inkscape:connector-curvature="0" />
    <path
       style="fill:none;stroke:#000000;stroke-width:16.35749817px;stroke-linecap:round;stroke-linejoin:round;stroke-miterlimit:4;stroke-dasharray:none;stroke-opacity:1"
       d="m -561.75055,500.44416 21.07409,-27.79677"
       id="path5941"
       inkscape:connector-curvature="0" />
    <path
       style="fill:#000000;fill-opacity:1;fill-rule:nonzero;stroke:none"
       d="m -540.67646,703.91055 c -4.56611,0 -8.22894,3.66184 -8.22894,8.22795 0,4.51695 3.66283,8.17884 8.22894,8.17884 z m 0,0 228.15251,0 0,16.40679 -228.15251,0 z m 228.15251,16.40679 c 4.51557,0 8.1788,-3.66189 8.1788,-8.17884 0,-4.56611 -3.66323,-8.22795 -8.1788,-8.22795 z"
       id="path5943"
       inkscape:connector-curvature="0" />
    <path
       style="fill:none;stroke:#000000;stroke-width:16.35749817px;stroke-linecap:round;stroke-linejoin:round;stroke-miterlimit:4;stroke-dasharray:none;stroke-opacity:1"
       d="m -301.23506,712.1385 -27.74761,21.02483"
       id="path5945"
       inkscape:connector-curvature="0" />
    <path
       style="fill:none;stroke:#000000;stroke-width:16.35749817px;stroke-linecap:round;stroke-linejoin:round;stroke-miterlimit:4;stroke-dasharray:none;stroke-opacity:1"
       d="m -328.98267,691.1151 27.74761,21.0234"
       id="path5947"
       inkscape:connector-curvature="0" />
    <path
       style="fill:#000000;fill-opacity:1;fill-rule:nonzero;stroke:none"
       d="m -535.70896,648.56563 c -2.75975,0 -4.9675,-2.20726 -4.9675,-4.9677 0,-2.759 2.20775,-5.0182 4.9675,-5.0182 z m 0,0 35.52486,0.0995 0,-9.98446 -35.52486,-0.10099 z m 35.52486,-4.91716 0,5.01681 c 2.7597,0 4.96735,-2.20721 4.96735,-5.01681 0,-2.76044 -2.20765,-5.0182 -4.96735,-5.0182 z m 3.96387,3.06094 57.55229,-75.51608 -7.9279,-6.07128 -57.55213,75.51608 z m 53.58841,-78.57697 3.96388,3.06089 c 1.70596,-2.20721 1.25442,-5.36924 -0.90309,-7.02466 -2.2078,-1.70597 -5.31869,-1.25383 -7.02481,0.90283 z m -4.01412,2.91064 49.07215,68.33978 8.07914,-5.81994 -49.0729,-68.33978 z m 53.08647,65.43053 -4.01432,2.9598 c 1.60627,2.2578 4.71636,2.75905 6.97551,1.10363 2.20726,-1.60488 2.7085,-4.71636 1.10363,-6.97412 z m 0,5.01681 30.05587,0.30199 0.0995,-10.03645 -30.10502,-0.24975 z m 30.10641,-4.71636 -0.0507,5.01825 c 2.75905,0.0497 5.01825,-2.20866 5.06736,-4.9677 0,-2.76045 -2.20721,-5.0182 -4.96766,-5.06875 z m -2.76039,4.16452 30.45746,20.52215 5.57004,-8.32904 -30.50806,-20.52215 z m 36.0275,12.19311 c 2.25775,1.55572 2.86009,4.66581 1.35353,6.92357 -1.55433,2.3083 -4.61527,2.91069 -6.92357,1.40547 z"
       id="path5985"
       inkscape:connector-curvature="0" />
    <path
       style="fill:#000000;fill-opacity:1;fill-rule:nonzero;stroke:none"
       d="m -531.99598,626.8893 c -1.80637,2.05696 -4.96741,2.25776 -7.02467,0.40149 -2.05726,-1.80706 -2.20775,-4.96765 -0.40149,-7.02461 z m 0,0 35.52486,-39.94067 -7.42611,-6.62313 -35.52481,39.94073 z m 31.81188,-43.25151 3.71298,3.36138 c 1.85661,-2.05701 1.65582,-5.26815 -0.40149,-7.12575 -2.05731,-1.80567 -5.21845,-1.65542 -7.02482,0.40149 z m -3.86362,3.16059 57.45188,70.89942 7.72725,-6.32262 -57.45189,-70.89943 z m 61.31551,67.73739 -3.86363,3.16203 c 1.75627,2.15806 4.86716,2.45855 7.02481,0.70204 2.15751,-1.75651 2.45856,-4.91711 0.70244,-7.02466 z m 4.817,1.35497 36.82978,-132.06434 -9.58426,-2.65934 -36.87938,132.01518 z m 32.06293,-133.41787 4.76685,1.35353 c 0.75264,-2.65934 -0.80313,-5.41834 -3.46248,-6.17093 -2.60875,-0.75259 -5.36919,0.80313 -6.12178,3.46248 z m -4.36532,2.50771 41.14401,72.0536 8.68147,-4.96765 -41.14539,-72.05221 z m 45.50932,69.5445 -4.36531,2.5091 c 1.40547,2.40801 4.41586,3.26169 6.82387,1.85622 2.40939,-1.35498 3.21113,-4.46502 1.8576,-6.82387 z m 1.70597,4.7177 31.76188,-11.69182 -3.46248,-9.43267 -31.76049,11.74098 z m 28.2994,-21.12449 c 2.61019,-0.95338 5.47029,0.4015 6.42367,2.9598 0.95338,2.6088 -0.40149,5.51949 -2.96119,6.47287 z"
       id="path5987"
       inkscape:connector-curvature="0" />
  </g>
</svg>
