<?xml version="1.0" encoding="UTF-8" standalone="no"?>
<!-- Generator: Adobe Illustrator 14.0.0, SVG Export Plug-In . SVG Version: 6.00 Build 43363)  -->

<svg
   stroke="currentColor"
   fill="currentColor"
   version="1.1"
   id="svg4152"
   inkscape:version="1.1 (c4e8f9e, 2021-05-24)"
   sodipodi:docname="sdf-table.svg"
   x="0px"
   y="0px"
   width="1000px"
   height="1000px"
   viewBox="0 0 1000 1000"
   enable-background="new 0 0 1000 1000"
   xml:space="preserve"
   xmlns:inkscape="http://www.inkscape.org/namespaces/inkscape"
   xmlns:sodipodi="http://sodipodi.sourceforge.net/DTD/sodipodi-0.dtd"
   xmlns="http://www.w3.org/2000/svg"
   xmlns:svg="http://www.w3.org/2000/svg"><defs
   id="defs843" /><sodipodi:namedview
   id="namedview841"
   pagecolor="#ffffff"
   bordercolor="#666666"
   borderopacity="1.0"
   inkscape:pageshadow="2"
   inkscape:pageopacity="0.0"
   inkscape:pagecheckerboard="0"
   showgrid="false"
   inkscape:snap-text-baseline="true"
   inkscape:zoom="0.847"
   inkscape:cx="500.59032"
   inkscape:cy="345.33648"
   inkscape:window-width="1920"
   inkscape:window-height="1027"
   inkscape:window-x="2880"
   inkscape:window-y="25"
   inkscape:window-maximized="0"
   inkscape:current-layer="svg4152" />


<text
   xml:space="preserve"
   style="font-style:normal;font-weight:normal;font-size:40px;line-height:1.25;font-family:sans-serif;fill:#000000;fill-opacity:1;stroke:none"
   x="249.11452"
   y="394.33295"
   id="text12277"><tspan
     sodipodi:role="line"
     id="tspan12275"
     x="249.11452"
     y="394.33295" /></text><path
   style="fill:none;stroke:#000000;stroke-width:66.66666667;stroke-linecap:butt;stroke-linejoin:miter;stroke-miterlimit:4;stroke-dasharray:none;stroke-opacity:1"
   d="M 247.9339,446.28099 H 932.70363"
   id="path1104"
   sodipodi:nodetypes="cc" /><path
   style="fill:#000000;fill-opacity:0;stroke:#000000;stroke-width:66.66666667;stroke-linecap:butt;stroke-linejoin:miter;stroke-miterlimit:4;stroke-dasharray:none;stroke-opacity:1"
   d="M 247.9339,602.91222 H 932.70363"
   id="path1328"
   sodipodi:nodetypes="cc" /><path
   style="fill:#000000;fill-opacity:0;stroke:#000000;stroke-width:66.66666667;stroke-linecap:butt;stroke-linejoin:miter;stroke-miterlimit:4;stroke-dasharray:none;stroke-opacity:1"
   d="M 247.93389,759.54348 H 932.70363"
   id="path1328-0"
   sodipodi:nodetypes="cc" /><path
   style="fill:#000000;fill-opacity:0;stroke:#000000;stroke-width:66.66666667;stroke-linecap:butt;stroke-linejoin:miter;stroke-miterlimit:4;stroke-dasharray:none;stroke-opacity:1"
   d="M 247.9339,916.17473 H 932.70363"
   id="path1328-9"
   sodipodi:nodetypes="cc" /><path
   style="fill:none;stroke:#000000;stroke-width:66.6667;stroke-linecap:butt;stroke-linejoin:miter;stroke-miterlimit:4;stroke-dasharray:none;stroke-opacity:1"
   d="M 280.99173,451.00355 V 923.25856"
   id="path4312" /><path
   style="fill:none;stroke:#000000;stroke-width:66.6667;stroke-linecap:butt;stroke-linejoin:miter;stroke-miterlimit:4;stroke-dasharray:none;stroke-opacity:1"
   d="M 639.90555,425.02952 V 897.28453"
   id="path4312-6" /><path
   style="fill:none;stroke:#000000;stroke-width:66.6667;stroke-linecap:butt;stroke-linejoin:miter;stroke-miterlimit:4;stroke-dasharray:none;stroke-opacity:1"
   d="M 898.46517,451.00354 V 923.25855"
   id="path4312-5" /><g
   aria-label="SDF"
   id="text6194"
   style="font-size:40px;line-height:1.25;fill:#000000;stroke:none"><path
     d="m 253.26997,252.04545 q 0,35.80726 -30.43616,58.26818 -30.27341,22.29815 -82.35669,22.29815 -30.11065,0 -52.571567,-5.20833 -22.298155,-5.37109 -41.829386,-13.5091 v -58.10541 h 6.83593 q 19.368471,15.46222 43.294229,23.763 24.088514,8.30077 46.223914,8.30077 5.69661,0 14.97394,-0.97656 9.27734,-0.97656 15.13671,-3.25521 7.16145,-2.92968 11.71874,-7.32421 4.72004,-4.39452 4.72004,-13.02082 0,-7.97525 -6.83593,-13.67186 -6.67317,-5.85937 -19.69399,-8.95181 -13.67186,-3.25521 -28.97132,-6.02213 -15.13671,-2.92969 -28.48305,-7.32422 -30.598929,-9.92837 -44.10803,-26.85544 -13.346341,-17.08982 -13.346341,-42.31766 0,-33.85414 30.273408,-55.17573 30.436173,-21.484356 78.124923,-21.484356 23.92576,0 47.20048,4.720047 23.43747,4.557288 40.5273,11.555979 v 55.82677 h -6.67317 q -14.64842,-11.71874 -35.97002,-19.53123 -21.15883,-7.97526 -43.29423,-7.97526 -7.81249,0 -15.62498,1.13933 -7.64973,0.97656 -14.81118,3.90624 -6.34765,2.44141 -10.90494,7.48697 -4.55729,4.88281 -4.55729,11.23046 0,9.60286 7.32421,14.81119 7.32421,5.04556 27.66925,9.27733 13.34634,2.76692 25.55336,5.37109 12.36978,2.60416 26.52992,7.16145 27.832,9.11457 41.01558,24.90232 13.34634,15.62498 13.34634,40.69006 z"
     style="font-weight:bold;font-size:333.333px;-inkscape-font-specification:'sans-serif, Bold'"
     id="path9502" /><path
     d="m 525.24237,207.28638 q 0,33.85414 -15.46222,60.70958 -15.46223,26.69268 -39.06246,41.01558 -17.74087,10.74218 -38.8997,14.97395 -21.15884,4.23176 -50.13016,4.23176 H 296.23869 V 85.867231 h 87.89054 q 29.62237,0 51.10672,5.045568 21.48435,4.882808 36.13278,13.997381 25.06508,15.29947 39.38798,41.34111 14.48566,25.87888 14.48566,61.03509 z m -64.61582,-0.48828 q 0,-23.92576 -8.78905,-40.85282 -8.6263,-17.08983 -27.50649,-26.69268 -9.60285,-4.72005 -19.69399,-6.34765 -9.92837,-1.79037 -30.11065,-1.79037 h -15.78774 v 151.69256 h 15.78774 q 22.29816,0 32.71482,-1.95312 10.41665,-2.11588 20.34503,-7.48697 17.08983,-9.76562 25.06508,-26.04164 7.97525,-16.43879 7.97525,-40.52731 z"
     style="font-weight:bold;font-size:333.333px;-inkscape-font-specification:'sans-serif, Bold'"
     id="path9504" /><path
     d="M 746.59633,132.74219 H 635.10555 v 45.08459 h 103.35277 v 46.87495 H 635.10555 V 328.21725 H 572.93113 V 85.867231 h 173.6652 z"
     style="font-weight:bold;font-size:333.333px;-inkscape-font-specification:'sans-serif, Bold'"
     id="path9506" /></g></svg>
