<?xml version="1.0" encoding="utf-8"?>
<!-- Generator: Adobe Illustrator 15.0.0, SVG Export Plug-In . SVG Version: 6.00 Build 0)  -->
<!DOCTYPE svg PUBLIC "-//W3C//DTD SVG 1.1//EN" "http://www.w3.org/Graphics/SVG/1.1/DTD/svg11.dtd">
<svg version="1.1"
	 id="svg4152" sodipodi:docname="icons.svg" inkscape:version="0.91 r13725" xmlns:dc="http://purl.org/dc/elements/1.1/" xmlns:cc="http://creativecommons.org/ns#" xmlns:rdf="http://www.w3.org/1999/02/22-rdf-syntax-ns#" xmlns:svg="http://www.w3.org/2000/svg" xmlns:sodipodi="http://sodipodi.sourceforge.net/DTD/sodipodi-0.dtd" xmlns:inkscape="http://www.inkscape.org/namespaces/inkscape"
	 xmlns="http://www.w3.org/2000/svg" xmlns:xlink="http://www.w3.org/1999/xlink" x="0px" y="0px" width="1000px" height="1000px"
	 viewBox="0 0 1000 1000" enable-background="new 0 0 1000 1000" xml:space="preserve">
<path d="M959.838,645.911c0,8.223-0.169,15.101-0.665,20.795c-0.506,5.699-1.342,10.729-2.185,14.756
	c-0.999,4.185-2.348,7.712-4.019,10.559c-1.681,3.015-4.193,6.366-7.878,10.06c-3.524,3.853-10.569,8.546-20.795,14.579
	c-10.396,5.873-22.968,11.57-37.889,16.935c-14.92,5.363-31.848,9.892-51.132,13.418c-19.114,3.684-39.733,5.531-62.034,5.531
	c-43.586,0-82.819-6.875-117.862-20.284c-35.035-13.419-64.871-33.361-89.349-60.02c-24.647-26.828-43.418-60.021-56.505-100.09
	c-13.075-39.902-19.78-86.337-19.78-139.481c0-53.99,7.208-101.937,21.629-143.854c14.42-41.906,34.535-77.114,60.521-105.62
	c25.816-28.498,56.835-50.127,93.049-64.874c36.208-14.756,75.94-22.13,119.534-22.13c17.772,0,34.71,1.502,51.132,4.527
	c16.433,2.848,31.521,6.699,45.434,11.563c13.918,4.695,26.484,10.225,37.559,16.433c11.068,6.198,18.945,11.562,23.298,15.925
	c4.531,4.361,7.551,8.045,9.055,11.062c1.682,3.026,3.018,6.708,4.028,11.238c1.004,4.694,1.671,10.06,2.17,16.257
	c0.514,6.208,0.675,13.92,0.675,23.143c0,9.716-0.329,18.104-0.844,24.981c-0.666,6.865-1.833,12.395-3.514,16.759
	c-1.679,4.194-3.519,7.377-5.868,9.225c-2.348,2.013-4.861,3.014-7.886,3.014c-4.86,0-11.059-2.848-18.606-8.546
	c-7.544-5.698-17.269-12.24-29.342-19.283c-11.895-7.043-26.149-13.419-42.581-19.115c-16.593-5.7-36.376-8.548-59.344-8.548
	c-25.15,0-47.616,5.196-67.4,15.423c-19.951,10.39-36.72,25.147-50.629,44.263c-13.92,19.107-24.478,42.242-31.689,69.402
	c-7.208,27.328-10.894,57.838-10.894,91.877c0,37.387,3.86,69.745,11.561,97.063c7.72,27.329,18.781,49.795,33.037,67.564
	c14.242,17.604,31.344,30.855,51.465,39.569c20.114,8.556,42.918,12.907,68.063,12.907c22.966,0,42.749-2.682,59.354-8.046
	c16.768-5.363,31.177-11.405,43.083-17.937c11.905-6.544,21.798-12.407,29.508-17.771c7.714-5.197,13.576-7.711,17.939-7.711
	c3.186,0,5.863,0.502,7.71,1.846c2.012,1.337,3.683,4.019,5.032,7.879c1.336,4.016,2.179,9.381,2.846,16.424
	C959.504,624.624,959.838,634.006,959.838,645.911z"/>
<path d="M205.28,297.133c0,4.263-0.234,7.83-0.695,10.767c-0.463,2.946-1.082,5.343-1.935,7.042
	c-0.855,1.711-1.777,3.026-2.871,3.724c-1,0.778-2.236,1.159-3.634,1.159H34.219c-1.236,0-2.397-0.381-3.41-1.159
	c-1.079-0.698-2.015-2.013-2.867-3.724c-0.849-1.698-1.467-4.096-1.938-7.042c-0.457-2.938-0.696-6.504-0.696-10.767
	c0-4.411,0.239-8.057,0.618-10.992c0.392-2.947,0.934-5.343,1.791-7.122c0.853-1.858,1.777-3.184,2.867-4.026
	c0.999-0.776,2.236-1.241,3.634-1.241h54.667V82.709L41.654,108.81c-3.487,1.699-6.276,2.703-8.517,3.095
	c-2.173,0.384-3.88-0.077-5.195-1.396c-1.306-1.237-2.164-3.486-2.634-6.658c-0.38-3.171-0.619-7.674-0.619-13.401
	c0-3.632,0.078-6.581,0.239-8.978c0.076-2.326,0.459-4.341,1.077-5.962c0.632-1.708,1.475-3.026,2.479-4.106
	c1.091-1.08,2.561-2.171,4.339-3.409l63.117-40.807c0.694-0.628,1.621-1.091,2.789-1.474c1.159-0.392,2.626-0.695,4.413-0.93
	c1.855-0.238,4.183-0.384,7.197-0.463c2.95-0.078,6.739-0.078,11.466-0.078c5.728,0,10.372,0.078,13.937,0.305
	c3.557,0.238,6.19,0.63,8.054,1.168c1.779,0.463,3.017,1.24,3.638,2.095c0.537,0.923,0.852,2.082,0.852,3.397v242.546h47.86
	c1.397,0,2.634,0.465,3.794,1.241c1.081,0.844,2.093,2.169,2.945,4.026c0.844,1.78,1.384,4.174,1.778,7.122
	C205.047,289.078,205.28,292.724,205.28,297.133L205.28,297.133z M442.093,233.871c0,14.638-2.791,27.643-8.37,39.028
	c-5.567,11.309-13.401,20.837-23.389,28.576c-9.994,7.663-21.906,13.548-35.856,17.575c-13.93,4.028-29.114,5.963-45.608,5.963
	c-9.994,0-19.355-0.699-28.106-2.094c-8.754-1.462-16.494-3.25-23.233-5.343c-6.739-2.161-12.32-4.331-16.728-6.582
	c-4.342-2.316-7.202-4.018-8.599-5.265c-1.394-1.16-2.404-2.554-3.016-4.026c-0.696-1.542-1.315-3.331-1.863-5.335
	c-0.541-2.094-0.926-4.648-1.16-7.751c-0.225-3.096-0.315-6.816-0.315-11.228c0-7.281,0.632-12.31,1.79-15.099
	c1.238-2.79,3.094-4.185,5.497-4.185c1.466,0,4.097,1.011,7.82,3.103c3.713,2.006,8.44,4.175,14.167,6.582
	c5.736,2.318,12.477,4.49,20.214,6.582c7.665,2.016,16.494,3.018,26.327,3.018c8.292,0,15.64-1.002,21.996-2.937
	c6.346-1.946,11.77-4.725,16.177-8.292c4.498-3.567,7.829-7.818,10-12.927c2.163-5.039,3.332-10.687,3.332-16.885
	c0-6.819-1.394-12.928-4.036-18.351c-2.626-5.5-6.583-10.146-11.771-14.018c-5.186-3.803-11.769-6.816-19.746-8.908
	c-7.895-2.171-17.27-3.173-28.027-3.173h-25.4c-1.939,0-3.646-0.305-4.961-0.855c-1.399-0.463-2.557-1.62-3.401-3.251
	c-0.935-1.701-1.553-3.95-1.947-6.887c-0.38-3.025-0.536-6.817-0.536-11.462c0-4.42,0.156-7.977,0.536-10.847
	c0.393-2.779,1.011-4.949,1.791-6.423c0.843-1.553,1.933-2.555,3.17-3.173c1.319-0.618,2.872-0.932,4.65-0.932h25.625
	c8.833,0,16.571-1.004,23.393-3.017c6.816-2.092,12.544-4.959,17.111-8.753c4.646-3.793,8.133-8.36,10.607-13.702
	c2.396-5.424,3.569-11.308,3.569-17.821c0-5.03-0.779-9.754-2.487-14.164c-1.622-4.49-4.097-8.369-7.359-11.621
	c-3.252-3.249-7.428-5.805-12.614-7.663c-5.118-1.934-11.16-2.868-18.124-2.868c-7.898,0-15.257,1.161-22.23,3.487
	c-6.965,2.397-13.163,4.96-18.736,7.74c-5.498,2.79-10.225,5.425-14.014,7.83c-3.874,2.398-6.739,3.635-8.519,3.635
	c-1.237,0-2.328-0.306-3.184-0.776c-0.921-0.542-1.7-1.542-2.317-3.095c-0.542-1.472-1.012-3.71-1.316-6.583
	c-0.314-2.866-0.463-6.581-0.463-11.079c0-3.792,0.07-6.965,0.225-9.441c0.16-2.483,0.47-4.568,0.935-6.276
	c0.382-1.619,1.003-3.095,1.7-4.255c0.619-1.246,1.785-2.562,3.252-4.026c1.548-1.394,4.646-3.565,9.292-6.435
	c4.724-2.857,10.606-5.647,17.74-8.36c7.124-2.79,15.256-5.028,24.63-6.964c9.292-1.866,19.349-2.789,30.277-2.789
	c14.162,0,26.796,1.621,37.789,4.95c10.913,3.331,20.127,8.135,27.641,14.413c7.516,6.266,13.162,14.008,17.042,23.152
	c3.794,9.136,5.729,19.431,5.729,30.974c0,8.911-1.091,17.19-3.41,24.932c-2.25,7.75-5.58,14.638-9.911,20.679
	c-4.412,6.041-9.91,11.149-16.493,15.412c-6.58,4.254-14.175,7.436-22.771,9.53v0.687c10.227,1.169,19.517,3.803,27.642,7.83
	c8.214,4.017,15.109,9.056,20.758,15.099c5.651,6.041,10.07,12.846,13.084,20.521C440.617,216.829,442.093,225.041,442.093,233.871z
	"/>
</svg>
