<?xml version="1.0" encoding="utf-8"?>
<!-- Generator: Adobe Illustrator 15.0.0, SVG Export Plug-In . SVG Version: 6.00 Build 0)  -->
<!DOCTYPE svg PUBLIC "-//W3C//DTD SVG 1.1//EN" "http://www.w3.org/Graphics/SVG/1.1/DTD/svg11.dtd">
<svg version="1.1"
	 id="svg4152" sodipodi:docname="icons.svg" inkscape:version="0.91 r13725" xmlns:dc="http://purl.org/dc/elements/1.1/" xmlns:cc="http://creativecommons.org/ns#" xmlns:rdf="http://www.w3.org/1999/02/22-rdf-syntax-ns#" xmlns:svg="http://www.w3.org/2000/svg" xmlns:sodipodi="http://sodipodi.sourceforge.net/DTD/sodipodi-0.dtd" xmlns:inkscape="http://www.inkscape.org/namespaces/inkscape"
	 xmlns="http://www.w3.org/2000/svg" xmlns:xlink="http://www.w3.org/1999/xlink" x="0px" y="0px" width="1000px" height="1000px"
	 viewBox="0 0 1000 1000" enable-background="new 0 0 1000 1000" xml:space="preserve">
<g>
	<path d="M235.272,294.355c0,1.324-0.394,2.506-1.192,3.506c-0.792,1.045-2.045,1.907-3.883,2.635
		c-1.786,0.722-4.225,1.245-7.325,1.639c-3.101,0.405-7,0.536-11.809,0.536c-4.748,0-8.64-0.131-11.739-0.536
		c-3.102-0.393-5.61-0.915-7.455-1.639c-1.848-0.727-3.171-1.59-3.891-2.635c-0.662-1-1.057-2.181-1.057-3.506v-81.914
		c-4.611,4.276-9.104,7.968-13.526,11.14c-4.345,3.168-8.769,5.743-13.123,7.717c-4.354,1.977-8.906,3.43-13.519,4.355
		c-4.622,0.921-9.567,1.313-14.721,1.313c-12.592,0-23.345-2.51-32.252-7.583c-8.906-5.077-16.154-11.939-21.77-20.585
		c-5.6-8.64-9.689-18.724-12.264-30.266c-2.578-11.544-3.832-23.687-3.832-36.417c0-15.373,1.648-29.155,5.016-41.361
		c3.366-12.263,8.244-22.687,14.711-31.329c6.399-8.64,14.318-15.237,23.748-19.856c9.362-4.684,20.321-6.993,32.653-6.993
		c4.74,0,9.36,0.464,13.718,1.454c4.352,0.983,8.775,2.634,13.131,5.003c4.413,2.38,8.966,5.479,13.655,9.312
		c4.681,3.821,9.894,8.433,15.563,13.982V53.585c0-1.254,0.325-2.439,1.056-3.364c0.662-0.979,1.846-1.771,3.427-2.441
		c1.649-0.655,3.761-1.117,6.338-1.44c2.577-0.328,5.935-0.465,10.022-0.465c3.891,0,7.128,0.137,9.766,0.465
		c2.637,0.323,4.749,0.785,6.271,1.44c1.58,0.67,2.635,1.461,3.297,2.441c0.654,0.926,0.987,2.111,0.987,3.364V294.355
		L235.272,294.355z M186.918,110.784c-6.932-8.775-13.594-15.441-19.985-20.053c-6.398-4.68-13.063-6.997-19.994-6.997
		c-6.329,0-11.733,1.587-16.352,4.756c-4.553,3.16-8.246,7.388-11.019,12.66c-2.774,5.274-4.818,11.147-6.201,17.672
		c-1.315,6.537-1.984,13.202-1.984,19.996c0,7.193,0.602,14.24,1.718,21.17c1.194,6.863,3.04,12.994,5.737,18.268
		c2.646,5.282,6.141,9.508,10.496,12.734c4.416,3.241,9.963,4.818,16.619,4.818c3.367,0,6.604-0.458,9.765-1.448
		c3.17-0.929,6.399-2.507,9.697-4.683c3.236-2.25,6.664-5.083,10.091-8.641c3.494-3.504,7.325-7.85,11.413-13.072V110.784z"/>
	
		<polyline fill="none" stroke="#000000" stroke-width="49.8592" stroke-linecap="round" stroke-linejoin="round" stroke-miterlimit="22.9256" points="
		34.5,703.843 131.345,703.843 182.496,557.417 238.63,703.843 326.45,703.843 386.051,173.312 444.162,703.843 552.832,703.843 
		610.941,173.312 670.544,703.843 758.369,703.843 814.503,557.417 865.657,703.843 962.5,703.843 	"/>
</g>
</svg>
