<?xml version="1.0" encoding="UTF-8" standalone="no"?>
<!-- Created with Inkscape (http://www.inkscape.org/) -->

<svg
   xmlns:dc="http://purl.org/dc/elements/1.1/"
   xmlns:cc="http://creativecommons.org/ns#"
   xmlns:rdf="http://www.w3.org/1999/02/22-rdf-syntax-ns#"
   xmlns:svg="http://www.w3.org/2000/svg"
   xmlns="http://www.w3.org/2000/svg"
   xmlns:sodipodi="http://sodipodi.sourceforge.net/DTD/sodipodi-0.dtd"
   xmlns:inkscape="http://www.inkscape.org/namespaces/inkscape"
   width="1000"
   height="1000"
   id="svg4152"
   version="1.1"
   inkscape:version="0.91 r13725"
   viewBox="0 0 1000 1000"
   sodipodi:docname="nmr-multiplet.svg">
  <defs
     id="defs5498">
    <marker
       inkscape:isstock="true"
       style="overflow:visible"
       id="marker4233"
       refX="0.0"
       refY="0.0"
       orient="auto"
       inkscape:stockid="TriangleOutL">
      <path
         transform="scale(0.8)"
         style="fill-rule:evenodd;stroke:#000000;stroke-width:1pt;stroke-opacity:1;fill:#000000;fill-opacity:1"
         d="M 5.77,0.0 L -2.88,5.0 L -2.88,-5.0 L 5.77,0.0 z "
         id="path4235" />
    </marker>
    <marker
       inkscape:isstock="true"
       style="overflow:visible"
       id="marker4755"
       refX="0.0"
       refY="0.0"
       orient="auto"
       inkscape:stockid="TriangleOutL">
      <path
         transform="scale(0.8)"
         style="fill-rule:evenodd;stroke:#000000;stroke-width:1pt;stroke-opacity:1;fill:#000000;fill-opacity:1"
         d="M 5.77,0.0 L -2.88,5.0 L -2.88,-5.0 L 5.77,0.0 z "
         id="path4757" />
    </marker>
    <marker
       inkscape:stockid="Arrow1Lend"
       orient="auto"
       refY="0.0"
       refX="0.0"
       id="Arrow1Lend"
       style="overflow:visible;"
       inkscape:isstock="true">
      <path
         id="path4164"
         d="M 0.0,0.0 L 5.0,-5.0 L -12.5,0.0 L 5.0,5.0 L 0.0,0.0 z "
         style="fill-rule:evenodd;stroke:#000000;stroke-width:1pt;stroke-opacity:1;fill:#000000;fill-opacity:1"
         transform="scale(0.8) rotate(180) translate(12.5,0)" />
    </marker>
    <marker
       inkscape:stockid="Arrow2Lend"
       orient="auto"
       refY="0.0"
       refX="0.0"
       id="Arrow2Lend"
       style="overflow:visible;"
       inkscape:isstock="true">
      <path
         id="path4182"
         style="fill-rule:evenodd;stroke-width:0.625;stroke-linejoin:round;stroke:#000000;stroke-opacity:1;fill:#000000;fill-opacity:1"
         d="M 8.7185878,4.0337352 L -2.2072895,0.016013256 L 8.7185884,-4.0017078 C 6.9730900,-1.6296469 6.9831476,1.6157441 8.7185878,4.0337352 z "
         transform="scale(1.1) rotate(180) translate(1,0)" />
    </marker>
  </defs>
  <sodipodi:namedview
     inkscape:window-height="1043"
     inkscape:window-width="1920"
     inkscape:pageshadow="2"
     inkscape:pageopacity="0.0"
     borderopacity="1.0"
     bordercolor="#666666"
     pagecolor="#ffffff"
     id="base"
     showgrid="true"
     showguides="true"
     inkscape:guide-bbox="true"
     inkscape:zoom="0.64205296"
     inkscape:cx="199.0325"
     inkscape:cy="391.9778"
     inkscape:window-x="0"
     inkscape:window-y="0"
     inkscape:current-layer="svg4152"
     inkscape:window-maximized="1"
     objecttolerance="20">
    <sodipodi:guide
       orientation="horizontal"
       position="200"
       id="guide5596" />
    <inkscape:grid
       type="xygrid"
       id="grid3430"
       empspacing="50" />
  </sodipodi:namedview>
  <metadata
     id="metadata5594">
    <rdf:RDF>
      <cc:Work
         rdf:about="">
        <dc:format>image/svg+xml</dc:format>
        <dc:type
           rdf:resource="http://purl.org/dc/dcmitype/StillImage" />
        <dc:title />
      </cc:Work>
    </rdf:RDF>
  </metadata>
  <g
     transform="translate(57.10678,-767.96807)"
     style="font-style:normal;font-weight:normal;font-size:180px;line-height:125%;font-family:sans-serif;letter-spacing:0px;word-spacing:0px;fill:#000000;fill-opacity:1;stroke:none;stroke-width:1px;stroke-linecap:butt;stroke-linejoin:miter;stroke-opacity:1"
     id="flowRoot84801">
    <path
       d="m 109.0625,980.36598 q -17.8125,0 -27.34375,13.125 -9.375,13.12502 -9.375,38.12502 0,25 9.375,38.125 9.53125,13.125 27.34375,13.125 17.96875,0 27.34375,-13.125 9.53125,-13.125 9.53125,-38.125 0,-25 -9.53125,-38.12502 -9.375,-13.125 -27.34375,-13.125 z m 36.875,113.28122 q -11.5625,15.4688 -25.46875,22.6563 -13.90625,7.1875 -32.1875,7.1875 -32.34375,0 -53.125,-25.625 -20.78125,-25.7813 -20.78125,-66.25 0,-40.46877 20.78125,-65.93752 20.78125,-25.625 53.125,-25.625 18.28125,0 32.1875,7.1875 13.90625,7.1875 25.46875,22.65625 l 0,-25.9375 56.25,0 0,241.56247 -56.25,0 0,-91.875 z"
       style="font-weight:bold;font-size:320px"
       id="path84814" />
  </g>
  <path
     style="color:#000000;font-style:normal;font-variant:normal;font-weight:normal;font-stretch:normal;font-size:medium;line-height:normal;font-family:sans-serif;text-indent:0;text-align:start;text-decoration:none;text-decoration-line:none;text-decoration-style:solid;text-decoration-color:#000000;letter-spacing:normal;word-spacing:normal;text-transform:none;direction:ltr;block-progression:tb;writing-mode:lr-tb;baseline-shift:baseline;text-anchor:start;white-space:normal;clip-rule:nonzero;display:inline;overflow:visible;visibility:visible;opacity:1;isolation:auto;mix-blend-mode:normal;color-interpolation:sRGB;color-interpolation-filters:linearRGB;solid-color:#000000;solid-opacity:1;fill:#000000;fill-opacity:1;fill-rule:evenodd;stroke:none;stroke-width:30;stroke-linecap:butt;stroke-linejoin:round;stroke-miterlimit:4;stroke-dasharray:none;stroke-dashoffset:0;stroke-opacity:1;color-rendering:auto;image-rendering:auto;shape-rendering:auto;text-rendering:auto;enable-background:accumulate"
     d="m 397.99023,335.94336 a 15.0015,15.0015 0 0 0 -14.29687,13.31836 l -48.51758,436.65625 -75.76172,0 -46.58203,-139.74414 a 15.0015,15.0015 0 0 0 -28.45898,0 l -46.58203,139.74414 -87.79102,0 0,30 98.60156,0 a 15.0015,15.0015 0 0 0 14.23047,-10.25586 l 35.76953,-107.31055 35.77149,107.31055 a 15.0015,15.0015 0 0 0 14.22851,10.25586 l 100,0 a 15.0015,15.0015 0 0 0 14.90821,-13.34375 l 35.09179,-315.82617 35.0918,315.82617 a 15.0015,15.0015 0 0 0 14.9082,13.34375 l 100,0 a 15.0015,15.0015 0 0 0 14.90821,-13.34375 l 35.09179,-315.82617 35.0918,315.82617 a 15.0015,15.0015 0 0 0 14.9082,13.34375 l 100,0 a 15.0015,15.0015 0 0 0 14.23047,-10.25586 l 35.76953,-107.31055 35.77149,107.31055 a 15.0015,15.0015 0 0 0 14.22851,10.25586 l 100,0 0,-30 -89.1875,0 -46.58203,-139.74414 a 15.0015,15.0015 0 0 0 -28.45898,0 l -46.58203,139.74414 -75.76368,0 -48.51757,-436.65625 a 15.0015,15.0015 0 0 0 -29.81641,0 l -48.51758,436.65625 -73.14844,0 -48.51757,-436.65625 a 15.0015,15.0015 0 0 0 -15.51954,-13.31836 z"
     id="path84799"
     inkscape:connector-curvature="0" />
</svg>
