<?xml version="1.0" encoding="UTF-8" standalone="no"?>
<!-- Created with Inkscape (http://www.inkscape.org/) -->

<svg
   xmlns:dc="http://purl.org/dc/elements/1.1/"
   xmlns:cc="http://creativecommons.org/ns#"
   xmlns:rdf="http://www.w3.org/1999/02/22-rdf-syntax-ns#"
   xmlns:svg="http://www.w3.org/2000/svg"
   xmlns="http://www.w3.org/2000/svg"
   xmlns:sodipodi="http://sodipodi.sourceforge.net/DTD/sodipodi-0.dtd"
   xmlns:inkscape="http://www.inkscape.org/namespaces/inkscape"
   width="1000"
   height="1000"
   id="svg4152"
   version="1.1"
   inkscape:version="0.91 r13725"
   viewBox="0 0 1000 1000"
   sodipodi:docname="nmr-overlay.svg">
  <defs
     id="defs5498">
    <marker
       inkscape:isstock="true"
       style="overflow:visible"
       id="marker4233"
       refX="0.0"
       refY="0.0"
       orient="auto"
       inkscape:stockid="TriangleOutL">
      <path
         transform="scale(0.8)"
         style="fill-rule:evenodd;stroke:#000000;stroke-width:1pt;stroke-opacity:1;fill:#000000;fill-opacity:1"
         d="M 5.77,0.0 L -2.88,5.0 L -2.88,-5.0 L 5.77,0.0 z "
         id="path4235" />
    </marker>
    <marker
       inkscape:isstock="true"
       style="overflow:visible"
       id="marker4755"
       refX="0.0"
       refY="0.0"
       orient="auto"
       inkscape:stockid="TriangleOutL">
      <path
         transform="scale(0.8)"
         style="fill-rule:evenodd;stroke:#000000;stroke-width:1pt;stroke-opacity:1;fill:#000000;fill-opacity:1"
         d="M 5.77,0.0 L -2.88,5.0 L -2.88,-5.0 L 5.77,0.0 z "
         id="path4757" />
    </marker>
    <marker
       inkscape:stockid="Arrow1Lend"
       orient="auto"
       refY="0.0"
       refX="0.0"
       id="Arrow1Lend"
       style="overflow:visible;"
       inkscape:isstock="true">
      <path
         id="path4164"
         d="M 0.0,0.0 L 5.0,-5.0 L -12.5,0.0 L 5.0,5.0 L 0.0,0.0 z "
         style="fill-rule:evenodd;stroke:#000000;stroke-width:1pt;stroke-opacity:1;fill:#000000;fill-opacity:1"
         transform="scale(0.8) rotate(180) translate(12.5,0)" />
    </marker>
    <marker
       inkscape:stockid="Arrow2Lend"
       orient="auto"
       refY="0.0"
       refX="0.0"
       id="Arrow2Lend"
       style="overflow:visible;"
       inkscape:isstock="true">
      <path
         id="path4182"
         style="fill-rule:evenodd;stroke-width:0.625;stroke-linejoin:round;stroke:#000000;stroke-opacity:1;fill:#000000;fill-opacity:1"
         d="M 8.7185878,4.0337352 L -2.2072895,0.016013256 L 8.7185884,-4.0017078 C 6.9730900,-1.6296469 6.9831476,1.6157441 8.7185878,4.0337352 z "
         transform="scale(1.1) rotate(180) translate(1,0)" />
    </marker>
  </defs>
  <sodipodi:namedview
     inkscape:window-height="1043"
     inkscape:window-width="1920"
     inkscape:pageshadow="2"
     inkscape:pageopacity="0.0"
     borderopacity="1.0"
     bordercolor="#666666"
     pagecolor="#ffffff"
     id="base"
     showgrid="true"
     showguides="true"
     inkscape:guide-bbox="true"
     inkscape:zoom="0.64205296"
     inkscape:cx="623.45794"
     inkscape:cy="395.09281"
     inkscape:window-x="0"
     inkscape:window-y="0"
     inkscape:current-layer="layer1"
     inkscape:window-maximized="1"
     objecttolerance="20">
    <sodipodi:guide
       orientation="horizontal"
       position="200"
       id="guide5596" />
    <inkscape:grid
       type="xygrid"
       id="grid3430"
       empspacing="50" />
  </sodipodi:namedview>
  <metadata
     id="metadata5594">
    <rdf:RDF>
      <cc:Work
         rdf:about="">
        <dc:format>image/svg+xml</dc:format>
        <dc:type
           rdf:resource="http://purl.org/dc/dcmitype/StillImage" />
        <dc:title />
      </cc:Work>
    </rdf:RDF>
  </metadata>
  <g
     inkscape:label="Layer 1"
     inkscape:groupmode="layer"
     id="layer1">
    <path
       style="fill:#000000;fill-opacity:1;fill-rule:evenodd;stroke:#000000;stroke-width:1.1759547px;stroke-linecap:butt;stroke-linejoin:miter;stroke-opacity:1"
       d="m 49.263499,749.72798 0,49.90444 762.034561,0 0,49.90445 138.55174,-71.66782 -138.55174,-78.04551 0,49.90444 z"
       id="path4317"
       inkscape:connector-curvature="0"
       sodipodi:nodetypes="cccccccc" />
    <path
       style="color:#000000;font-style:normal;font-variant:normal;font-weight:normal;font-stretch:normal;font-size:medium;line-height:normal;font-family:sans-serif;text-indent:0;text-align:start;text-decoration:none;text-decoration-line:none;text-decoration-style:solid;text-decoration-color:#000000;letter-spacing:normal;word-spacing:normal;text-transform:none;direction:ltr;block-progression:tb;writing-mode:lr-tb;baseline-shift:baseline;text-anchor:start;white-space:normal;clip-rule:nonzero;display:inline;overflow:visible;visibility:visible;opacity:1;isolation:auto;mix-blend-mode:normal;color-interpolation:sRGB;color-interpolation-filters:linearRGB;solid-color:#000000;solid-opacity:1;fill:#000000;fill-opacity:1;fill-rule:evenodd;stroke:none;stroke-width:30;stroke-linecap:butt;stroke-linejoin:round;stroke-miterlimit:4;stroke-dasharray:none;stroke-dashoffset:0;stroke-opacity:1;color-rendering:auto;image-rendering:auto;shape-rendering:auto;text-rendering:auto;enable-background:accumulate"
       d="m 500.68359,185.02539 a 15.0015,15.0015 0 0 0 -15.56836,13.11328 L 436.75781,585 50,585 l 0,30 400,0 a 15.0015,15.0015 0 0 0 14.88477,-13.13867 L 500,320.93945 535.11523,601.86133 A 15.0015,15.0015 0 0 0 550,615 l 300,0 0,-30 -286.75781,0 -48.35742,-386.86133 a 15.0015,15.0015 0 0 0 -14.20118,-13.11328 z"
       id="path4183"
       inkscape:connector-curvature="0" />
    <path
       style="color:#000000;font-style:normal;font-variant:normal;font-weight:normal;font-stretch:normal;font-size:medium;line-height:normal;font-family:sans-serif;text-indent:0;text-align:start;text-decoration:none;text-decoration-line:none;text-decoration-style:solid;text-decoration-color:#000000;letter-spacing:normal;word-spacing:normal;text-transform:none;direction:ltr;block-progression:tb;writing-mode:lr-tb;baseline-shift:baseline;text-anchor:start;white-space:normal;clip-rule:nonzero;display:inline;overflow:visible;visibility:visible;opacity:1;isolation:auto;mix-blend-mode:normal;color-interpolation:sRGB;color-interpolation-filters:linearRGB;solid-color:#000000;solid-opacity:1;fill:#000000;fill-opacity:1;fill-rule:evenodd;stroke:none;stroke-width:30;stroke-linecap:butt;stroke-linejoin:round;stroke-miterlimit:4;stroke-dasharray:30, 30;stroke-dashoffset:0;stroke-opacity:1;color-rendering:auto;image-rendering:auto;shape-rendering:auto;text-rendering:auto;enable-background:accumulate"
       d="m 346.27344,135.4707 -5.60156,2.78321 -3.97852,4.82421 -1.54297,4.80079 -0.50195,3.51757 2.78711,0.39844 -2.28516,0.32617 3.74023,26.18164 29.69922,-4.24414 -3.74023,-26.17968 -2.15625,-5.8711 -4.36133,-4.48047 -5.81055,-2.31445 z m -20.11133,75.32227 17.73242,2.5332 3.48242,24.37305 29.69727,-4.24219 -4.24219,-29.69922 -15.67969,2.24024 2.95118,-20.66016 -29.69727,-4.24219 z m -8.48438,59.39648 29.69922,4.24414 4.24219,-29.69921 -29.69922,-4.24219 z m 33.94141,-2.79101 4.24219,29.69726 29.69922,-4.24218 -4.24414,-29.69922 z m -42.42578,62.18945 29.69726,4.24219 4.24219,-29.69922 -29.69726,-4.24219 z m 50.91016,-2.79297 4.24414,29.69727 29.69726,-4.24219 -4.24219,-29.69727 z m -59.39649,62.18946 29.69922,4.24218 4.24219,-29.69726 -29.69922,-4.24414 z m 67.88281,-2.79297 4.24219,29.69921 29.69922,-4.24414 -4.24414,-29.69726 z m -76.36718,62.18945 29.69726,4.24219 4.24219,-29.69727 -29.69727,-4.24219 z m 84.85156,-2.79297 4.24219,29.69922 29.69921,-4.24219 -4.24218,-29.69922 z M 285.15039,497.87891 290,498.57227 290,515 l 10,0 6.11719,-1.30273 5.05273,-3.68555 3.11133,-5.42383 0.56836,-2.4668 2.82812,-19.79882 -29.69921,-4.24219 z M 50,515 l 30,0 0,-30 -30,0 z m 60,0 30,0 0,-30 -30,0 z m 60,0 30,0 0,-30 -30,0 z m 60,0 30,0 0,-30 -30,0 z m 172.89258,0 30,0 0,-30 -30,0 z m 60,0 30,0 0,-30 -30,0 z m 60,0 30,0 0,-30 -30,0 z m 60,0 30,0 0,-30 -30,0 z m 60,0 30,0 0,-30 -30,0 z m 60,0 30,0 0,-30 -30,0 z m 60,0 30,0 0,-30 -30,0 z m 60,0 27.10742,0 0,-30 -27.10742,0 z"
       id="path4185"
       inkscape:connector-curvature="0" />
  </g>
</svg>
