<?xml version="1.0" encoding="utf-8"?>
<!-- Generator: Adobe Illustrator 15.0.0, SVG Export Plug-In . SVG Version: 6.00 Build 0)  -->
<!DOCTYPE svg PUBLIC "-//W3C//DTD SVG 1.1//EN" "http://www.w3.org/Graphics/SVG/1.1/DTD/svg11.dtd">
<svg version="1.1"
	 id="svg4152" sodipodi:docname="icons.svg" inkscape:version="0.91 r13725" xmlns:dc="http://purl.org/dc/elements/1.1/" xmlns:cc="http://creativecommons.org/ns#" xmlns:rdf="http://www.w3.org/1999/02/22-rdf-syntax-ns#" xmlns:svg="http://www.w3.org/2000/svg" xmlns:sodipodi="http://sodipodi.sourceforge.net/DTD/sodipodi-0.dtd" xmlns:inkscape="http://www.inkscape.org/namespaces/inkscape"
	 xmlns="http://www.w3.org/2000/svg" xmlns:xlink="http://www.w3.org/1999/xlink" x="0px" y="0px" width="1000px" height="1000px"
	 viewBox="0 0 1000 1000" enable-background="new 0 0 1000 1000" xml:space="preserve">
<g>
	<path d="M493.451,251.114c1.298,3.96,2.149,7.125,2.488,9.442c0.28,2.317-0.12,4.07-1.359,5.203
		c-1.19,1.185-3.337,1.869-6.446,2.149c-3.11,0.28-7.346,0.449-12.775,0.449c-5.596,0-10.006-0.107-13.174-0.281
		c-3.109-0.168-5.538-0.506-7.178-0.957c-1.639-0.512-2.828-1.189-3.509-2.095c-0.621-0.906-1.188-2.036-1.64-3.505l-14.416-43.026
		h-80.506l-13.574,41.898c-0.449,1.524-1.02,2.821-1.749,3.898c-0.681,1.017-1.87,1.862-3.45,2.49
		c-1.581,0.562-3.9,1.014-6.789,1.238c-2.937,0.231-6.785,0.34-11.527,0.34c-5.096,0-9.055-0.169-11.934-0.51
		c-2.879-0.334-4.866-1.125-5.938-2.426c-1.131-1.242-1.53-3.059-1.19-5.371c0.34-2.317,1.19-5.428,2.498-9.272L367.37,60.643
		c0.68-1.865,1.41-3.396,2.317-4.578c0.909-1.133,2.32-2.038,4.24-2.658c1.918-0.564,4.585-0.962,8.026-1.133
		c3.389-0.168,7.975-0.28,13.575-0.28c6.496,0,11.696,0.11,15.604,0.28c3.84,0.169,6.838,0.567,8.987,1.133
		c2.148,0.62,3.738,1.526,4.64,2.773c0.958,1.184,1.749,2.825,2.43,4.972L493.451,251.114L493.451,251.114z M395.02,93.944h-0.168
		l-30.309,91.078h60.774L395.02,93.944L395.02,93.944z M708.193,203.059c0,7.636-1.021,14.528-3.109,20.697
		c-2.142,6.217-5.03,11.7-8.699,16.448c-3.737,4.754-8.145,8.822-13.291,12.21c-5.089,3.45-10.814,6.294-16.962,8.484
		c-6.15,2.19-12.775,3.843-19.783,4.86c-7.011,1.073-14.84,1.583-23.471,1.583h-56.927c-3.646,0-6.728-1.073-9.218-3.223
		c-2.489-2.146-3.729-5.651-3.729-10.513V66.748c0-4.862,1.257-8.385,3.729-10.515c2.47-2.133,5.547-3.221,9.218-3.221h53.816
		c13.117,0,24.279,1.141,33.365,3.33c9.091,2.193,16.786,5.544,23.004,10.012c6.276,4.462,11.026,10.12,14.363,16.959
		c3.279,6.842,4.979,14.925,4.979,24.201c0,5.196-0.679,10.064-2.039,14.642c-1.299,4.581-3.219,8.765-5.767,12.497
		c-2.548,3.783-5.649,7.067-9.386,9.947c-3.671,2.883-7.91,5.202-12.668,6.955c6.109,1.132,11.705,3.056,16.854,5.823
		c5.085,2.776,9.615,6.274,13.401,10.686c3.789,4.354,6.831,9.44,9.038,15.32C707.121,189.21,708.193,195.767,708.193,203.059
		L708.193,203.059z M651.884,112.825c0-4.354-0.68-8.194-1.977-11.59c-1.3-3.447-3.34-6.272-5.999-8.537
		c-2.599-2.261-5.93-4.013-10.006-5.258c-4.009-1.187-9.412-1.807-16.105-1.807h-22.049v55.63h24.357
		c6.278,0,11.313-0.736,15.036-2.206c3.798-1.467,6.905-3.561,9.395-6.108c2.479-2.597,4.298-5.65,5.538-9.155
		C651.266,120.346,651.884,116.67,651.884,112.825L651.884,112.825z M662.971,204.583c0-4.975-0.798-9.437-2.499-13.34
		c-1.63-3.957-4.058-7.237-7.228-9.895c-3.218-2.601-7.295-4.694-12.272-6.103c-4.978-1.414-11.452-2.151-19.385-2.151h-25.836
		v60.948h31.486c6.056,0,11.135-0.623,15.322-1.926c4.119-1.242,7.688-3.11,10.745-5.592c3.041-2.491,5.419-5.602,7.118-9.275
		C662.121,213.52,662.971,209.331,662.971,204.583z"/>
	
		<polyline fill="none" stroke="#000000" stroke-width="49.3119" stroke-linecap="round" stroke-linejoin="round" stroke-miterlimit="22.9256" points="
		40.677,918.5 136.457,918.5 187.048,773.682 242.565,918.5 329.427,918.5 388.37,393.777 445.842,918.5 553.326,918.5 
		610.798,393.777 669.748,918.5 756.61,918.5 812.129,773.682 862.718,918.5 958.5,918.5 	"/>
</g>
</svg>
